<svg width="24" height="24" viewBox="0 0 24 24" fill="none" xmlns="http://www.w3.org/2000/svg">
<path d="M9.31626 9.5511C8.79231 9.37645 8.22599 9.65961 8.05134 10.1836C7.8767 10.7075 8.15986 11.2738 8.6838 11.4485L11 12.2205V13.197L9.16798 15.9451C8.86162 16.4046 8.9858 17.0255 9.44533 17.3318C9.90486 17.6382 10.5257 17.514 10.8321 17.0545L12 15.3026L13.168 17.0545C13.4743 17.514 14.0952 17.6382 14.5547 17.3318C15.0143 17.0255 15.1384 16.4046 14.8321 15.9451L13 13.197V12.2205L15.3163 11.4485C15.8402 11.2738 16.1234 10.7075 15.9487 10.1836C15.7741 9.65961 15.2077 9.37645 14.6838 9.5511L12 10.4457L9.31626 9.5511Z" fill="black"/>
<path d="M12 6C11.1716 6 10.5 6.67157 10.5 7.5C10.5 8.32843 11.1716 9 12 9C12.8284 9 13.5 8.32843 13.5 7.5C13.5 6.67157 12.8284 6 12 6Z" fill="black"/>
<path fill-rule="evenodd" clip-rule="evenodd" d="M12 2C6.47715 2 2 6.47715 2 12C2 17.5228 6.47715 22 12 22C17.5228 22 22 17.5228 22 12C22 6.47715 17.5228 2 12 2ZM4 12C4 7.58172 7.58172 4 12 4C16.4183 4 20 7.58172 20 12C20 16.4183 16.4183 20 12 20C7.58172 20 4 16.4183 4 12Z" fill="black"/>
</svg>
