<svg width="24" height="24" viewBox="0 0 24 24" fill="none" xmlns="http://www.w3.org/2000/svg">
<path fill-rule="evenodd" clip-rule="evenodd" d="M7.81704 2.973C7.92427 2.68723 8.11613 2.44098 8.367 2.26712C8.61787 2.09327 8.91581 2.00008 9.22104 2H14.778C15.0834 1.99987 15.3816 2.09297 15.6327 2.26684C15.8837 2.44071 16.0757 2.68707 16.183 2.973L22.183 18.973C22.2682 19.2 22.2971 19.4443 22.2672 19.6849C22.2373 19.9255 22.1496 20.1552 22.0115 20.3545C21.8733 20.5538 21.689 20.7166 21.4742 20.829C21.2594 20.9414 21.0205 21.0001 20.778 21H17.221C16.9158 20.9999 16.6179 20.9067 16.367 20.7329C16.1161 20.559 15.9243 20.3128 15.817 20.027L12 9.848L10.068 15H12.033C12.3384 14.9999 12.6366 15.093 12.8877 15.2668C13.1387 15.4407 13.3307 15.6871 13.438 15.973L14.563 18.973C14.6482 19.2 14.6771 19.4443 14.6472 19.6849C14.6173 19.9255 14.5296 20.1552 14.3915 20.3545C14.2533 20.5538 14.069 20.7166 13.8542 20.829C13.6394 20.9414 13.4005 21.0001 13.158 21H3.22204C2.97967 20.9999 2.74092 20.9412 2.52624 20.8287C2.31156 20.7162 2.12733 20.5533 1.98932 20.3541C1.85132 20.1549 1.76365 19.9251 1.73382 19.6846C1.70399 19.4441 1.73288 19.1999 1.81804 18.973L7.81804 2.973H7.81704ZM9.56704 4L3.94404 19H12.438L11.688 17H8.62504C8.4635 16.9999 8.30438 16.9607 8.16129 16.8858C8.01821 16.8108 7.89541 16.7023 7.80342 16.5695C7.71142 16.4367 7.65296 16.2836 7.63304 16.1233C7.61312 15.963 7.63234 15.8003 7.68904 15.649L11.064 6.649C11.1356 6.45861 11.2636 6.29459 11.4308 6.17881C11.5981 6.06303 11.7966 6.001 12 6.001C12.2034 6.001 12.402 6.06303 12.5692 6.17881C12.7365 6.29459 12.8644 6.45861 12.936 6.649L17.568 19H20.057L14.432 4H9.56804H9.56704Z" fill="black"/>
</svg>
