<svg width="24" height="24" viewBox="0 0 24 24" fill="none" xmlns="http://www.w3.org/2000/svg">
<path fill-rule="evenodd" clip-rule="evenodd" d="M10.1713 2.50825C10.7323 2.15761 11.3244 2 11.997 2C13.4558 2 14.3774 2.79172 15.268 3.85951C15.2908 3.88693 15.3122 3.91555 15.332 3.94525C18.048 8.01871 19.411 11.0848 20.4285 13.6286C20.9266 14.8738 21.375 16.1613 21.375 17.375C21.375 18.6898 20.8518 19.8611 19.6 20.8C18.4516 21.6613 17.3703 22 16.375 22C15.3984 22 14.6094 21.6727 14.0528 21.3944C13.1898 20.9629 12.6353 20.5148 12 19.9057C11.3647 20.5148 10.8102 20.9629 9.94721 21.3944C9.39061 21.6727 8.60158 22 7.625 22C6.62969 22 5.54842 21.6613 4.4 20.8C3.14819 19.8611 2.625 18.6898 2.625 17.375C2.625 16.1613 3.07344 14.8738 3.57152 13.6286C4.58904 11.0848 5.952 8.01871 8.66798 3.94525C8.68761 3.91581 8.70878 3.88744 8.73142 3.86025C9.18709 3.31281 9.64329 2.83823 10.1713 2.50825ZM13.3272 18.4064C13.9033 17.6399 14.4685 16.8509 14.9236 16.0879C15.501 15.1197 16 14.0369 16 13C16 11.8459 15.7108 10.7966 14.9571 10.0429C14.2034 9.28921 13.1541 9 12 9C10.8459 9 9.79657 9.28921 9.04289 10.0429C8.28921 10.7966 8 11.8459 8 13C8 14.0369 8.49897 15.1197 9.0764 16.0879C9.53149 16.8509 10.0967 17.6399 10.6728 18.4064C10.0771 18.9821 9.69399 19.285 9.05279 19.6056C8.60939 19.8273 8.14842 20 7.625 20C7.12031 20 6.45158 19.8387 5.6 19.2C4.85181 18.6389 4.625 18.0602 4.625 17.375C4.625 16.5887 4.92656 15.6262 5.42848 14.3714C6.40721 11.9245 7.70407 9.00364 10.3021 5.09959C10.7026 4.62242 10.986 4.35753 11.2312 4.20425C11.4502 4.06739 11.6696 4 11.997 4C12.5362 4 12.9425 4.20224 13.6982 5.10007C16.296 9.00388 17.5928 11.9246 18.5715 14.3714C19.0734 15.6262 19.375 16.5887 19.375 17.375C19.375 18.0602 19.1482 18.6389 18.4 19.2C17.5484 19.8387 16.8797 20 16.375 20C15.8516 20 15.3906 19.8273 14.9472 19.6056C14.306 19.285 13.9229 18.9821 13.3272 18.4064ZM12 16.8402C12.4531 16.226 12.868 15.63 13.2059 15.0634C13.752 14.1478 14 13.4631 14 13C14 12.1541 13.7892 11.7034 13.5429 11.4571C13.2966 11.2108 12.8459 11 12 11C11.1541 11 10.7034 11.2108 10.4571 11.4571C10.2108 11.7034 10 12.1541 10 13C10 13.4631 10.248 14.1478 10.7941 15.0634C11.132 15.63 11.5469 16.226 12 16.8402Z" fill="black"/>
</svg>
