<svg width="24" height="24" viewBox="0 0 24 24" fill="none" xmlns="http://www.w3.org/2000/svg">
<path fill-rule="evenodd" clip-rule="evenodd" d="M2 4C2 3.44772 2.44772 3 3 3H21C21.5523 3 22 3.44772 22 4V18C22 18.5523 21.5523 19 21 19H18V17H20V5H4V17H6V19H3C2.44772 19 2 18.5523 2 18V4ZM12 13.5C12.3199 13.5 12.6206 13.6531 12.8087 13.9118L16.8087 19.4118C17.03 19.716 17.0618 20.1186 16.8911 20.4538C16.7204 20.7889 16.3761 21 16 21H8C7.62388 21 7.27956 20.7889 7.10889 20.4538C6.93821 20.1186 6.97004 19.716 7.19126 19.4118L11.1913 13.9118C11.3794 13.6531 11.6801 13.5 12 13.5ZM9.96377 19H14.0362L12 16.2002L9.96377 19Z" fill="black"/>
</svg>
