<svg width="24" height="24" viewBox="0 0 24 24" fill="none" xmlns="http://www.w3.org/2000/svg">
<path d="M15.625 14.6198C14.518 16.2388 12.897 17.0038 11 17.0038C8.69599 17.0038 6.72399 15.2308 7.00699 12.8798C7.32199 10.2718 9.34699 9.14981 12.715 8.7368C13.316 8.66381 13.565 8.6428 14.862 8.5468L15 8.5368V8.3218C15 6.5258 13.932 5.2998 12.5 5.2998C11.063 5.2998 10.06 6.0468 9.44499 7.8258L7.55499 7.1738C8.44199 4.6038 10.193 3.2998 12.5 3.2998C15.103 3.2998 17 5.4778 17 8.3218C17 10.9708 17.163 13.0778 17.483 13.8788C17.839 14.7708 17.969 14.9958 18.367 15.4918L16.807 16.7428C16.284 16.0908 16.054 15.6938 15.626 14.6208V14.6198H15.625ZM21.257 20.5448C20.986 20.7448 20.515 20.6258 20.728 20.1048C20.993 19.4568 21.275 18.6968 20.99 18.3528C20.78 18.0978 20.523 17.9708 19.963 17.9708C19.503 17.9708 19.273 18.0308 18.968 18.0508C18.764 18.0638 18.675 17.7538 18.877 17.6108C19.1415 17.4213 19.4354 17.2767 19.747 17.1828C20.897 16.8388 22.252 17.0278 22.417 17.2658C22.782 17.7958 22.218 19.8348 21.257 20.5458V20.5448ZM20.075 19.4608C19.8153 19.712 19.5379 19.9443 19.245 20.1558C17.123 21.7718 14.375 22.6158 11.987 22.6158C8.14399 22.6158 4.70699 20.8228 2.09899 17.8208C1.87599 17.5908 2.06099 17.2548 2.32199 17.4368C5.13199 19.5138 8.60999 20.7698 12.211 20.7698C14.476 20.7698 16.919 20.2328 19.246 19.0768C19.408 19.0008 19.59 18.8968 19.749 18.8228C20.116 18.6128 20.439 19.1288 20.075 19.4608ZM15.01 10.5408C13.752 10.6348 13.514 10.6538 12.958 10.7218C10.406 11.0348 9.16099 11.7248 8.99299 13.1198C8.86699 14.1628 9.80299 15.0038 11 15.0038C13.039 15.0038 14.517 13.7758 15.022 10.5408H15.01Z" fill="black"/>
</svg>
