<svg width="24" height="24" viewBox="0 0 24 24" fill="none" xmlns="http://www.w3.org/2000/svg">
<path fill-rule="evenodd" clip-rule="evenodd" d="M7.55279 2.10579C8.04676 1.8588 8.64744 2.05903 8.89443 2.55301L9.41156 3.58727C10.2122 3.20441 11.0956 3.00022 12 3.00022C12.9044 3.00022 13.7878 3.20441 14.5884 3.58727L15.1056 2.55301C15.3526 2.05903 15.9532 1.8588 16.4472 2.10579C16.9412 2.35278 17.1414 2.95345 16.8944 3.44743L16.2404 4.75539C16.2412 4.75612 16.2419 4.75685 16.2426 4.75758C17.3679 5.8828 18 7.40892 18 9.00022V17.0002C18 17.5306 17.7893 18.0394 17.4142 18.4144C17.0391 18.7895 16.5304 19.0002 16 19.0002V21.0002C16 21.5525 15.5523 22.0002 15 22.0002C14.4477 22.0002 14 21.5525 14 21.0002V19.0002H10V21.0002C10 21.5525 9.55228 22.0002 9 22.0002C8.44772 22.0002 8 21.5525 8 21.0002V19.0002C7.46957 19.0002 6.96086 18.7895 6.58579 18.4144C6.21071 18.0394 6 17.5307 6 17.0002V9.00022C6 7.40892 6.63214 5.8828 7.75736 4.75758C7.75809 4.75685 7.75882 4.75612 7.75955 4.75539L7.10557 3.44743C6.85858 2.95345 7.05881 2.35278 7.55279 2.10579ZM9.58684 5.81011C9.44109 5.92037 9.30228 6.04109 9.17157 6.17179C8.66203 6.68133 8.30416 7.31419 8.12701 8.00022H15.873C15.6958 7.31419 15.338 6.68133 14.8284 6.17179C14.6977 6.04109 14.5589 5.92036 14.4132 5.81011C14.4037 5.8033 14.3945 5.79635 14.3853 5.78925C13.6998 5.27994 12.8643 5.00022 12 5.00022C11.1357 5.00022 10.3003 5.27994 9.61467 5.78925C9.60554 5.79634 9.59626 5.8033 9.58684 5.81011ZM16 10.0002H8V17.0002H16V10.0002ZM4 9.00022C4.55228 9.00022 5 9.44793 5 10.0002V16.0002C5 16.5525 4.55228 17.0002 4 17.0002C3.44772 17.0002 3 16.5525 3 16.0002V10.0002C3 9.44793 3.44772 9.00022 4 9.00022ZM20 9.00022C20.5523 9.00022 21 9.44793 21 10.0002V16.0002C21 16.5525 20.5523 17.0002 20 17.0002C19.4477 17.0002 19 16.5525 19 16.0002V10.0002C19 9.44793 19.4477 9.00022 20 9.00022Z" fill="black"/>
</svg>
