<svg width="24" height="24" viewBox="0 0 24 24" fill="none" xmlns="http://www.w3.org/2000/svg">
<path d="M10.3541 20.8507L13.7321 14.9999M10.3541 20.8507C10.8876 20.9492 11.438 21 12 21C14.7394 21 17.193 19.7761 18.8437 17.8452M10.3541 20.8507C6.16933 20.0775 3 16.4086 3 12C3 9.76725 3.81305 7.72439 5.15922 6.15135M13.7321 14.9999L15.4665 11.9957M13.7321 14.9999H10.2679M15.4665 11.9957L18.8437 17.8452M15.4665 11.9957L13.7394 9.00429M18.8444 17.8465L18.8437 17.8452M18.8437 17.8452C20.1881 16.2726 21 14.2311 21 12C21 7.59141 17.8307 3.92235 13.6458 3.14924M13.7394 9.00429H20.487M13.7394 9.00429H10.2654M10.2654 9.00429L13.6458 3.14924M10.2654 9.00429L8.5359 11.9999M13.6458 3.14924C13.1124 3.05069 12.562 3 12 3C9.26219 3 6.80991 4.22247 5.15922 6.15135M8.5359 11.9999L5.15922 6.15135M8.5359 11.9999L10.2679 14.9999M5.15844 6.14999L5.15922 6.15135M10.2679 14.9999H3.5145" stroke="black" stroke-width="2" stroke-linecap="round" stroke-linejoin="round"/>
</svg>
