<svg width="24" height="24" viewBox="0 0 24 24" fill="none" xmlns="http://www.w3.org/2000/svg">
<path fill-rule="evenodd" clip-rule="evenodd" d="M12 2C10.3431 2 8.99997 3.34315 8.99997 5C8.99997 6.30622 9.83478 7.41746 11 7.82929V8.5828C10.5516 8.65773 10.1093 8.78359 9.68252 8.96002L4.05204 11.2906C3.86755 11.3656 3.69715 11.4725 3.54927 11.6072C3.22326 11.7721 2.99981 12.1102 2.99997 12.5005L3.00009 12.7729C2.99934 12.7882 2.99879 12.8034 2.99846 12.8187C2.9982 12.8303 2.99807 12.8418 2.99805 12.8533C2.998 12.8825 2.99871 12.9116 3.00016 12.9406L3.00196 17.2204C2.98583 17.5486 3.06493 17.875 3.23023 18.1598C3.40338 18.4582 3.66297 18.697 3.9747 18.8447L9.43787 21.4253C10.239 21.8038 11.114 22 12 22C12.886 22 13.761 21.8037 14.5621 21.4253L20.0241 18.8453L20.0263 18.8442C20.4067 18.6634 20.7067 18.3481 20.8683 17.9591C20.9647 17.7273 21.0096 17.4775 21 17.2269V12.5001C21 12.1077 20.774 11.7682 20.4452 11.6044C20.3002 11.4727 20.1327 11.3664 19.9497 11.2913L19.9472 11.2903L14.317 8.95985C13.8902 8.78342 13.4483 8.65773 13 8.5828V7.82929C14.1652 7.41746 15 6.30622 15 5C15 3.34315 13.6568 2 12 2ZM11 5C11 4.44772 11.4477 4 12 4C12.5523 4 13 4.44772 13 5C13 5.55228 12.5523 6 12 6C11.4477 6 11 5.55228 11 5ZM18.542 12.8732L13.5529 10.8081C13.3723 10.7335 13.1872 10.6722 13 10.6247V13C13 13.5523 12.5523 14 12 14C11.4477 14 11 13.5523 11 13V10.6247C10.8127 10.6722 10.6281 10.7333 10.4474 10.808L5.45796 12.8732L10.2866 15.1213C10.8232 15.3707 11.4082 15.5002 12 15.5002C12.5917 15.5002 13.1763 15.3709 13.7129 15.1215L18.542 12.8732ZM5.00192 17.1181L5.00097 14.8666L9.44337 16.9349C10.2442 17.3072 11.1168 17.5002 12 17.5002C12.8832 17.5002 13.7562 17.307 14.557 16.9346L19 14.8661V17.1171L13.7078 19.6169C13.1738 19.8692 12.5906 20 12 20C11.4094 20 10.8261 19.8692 10.2921 19.6169L5.00192 17.1181Z" fill="black"/>
</svg>
