<svg width="24" height="24" viewBox="0 0 24 24" fill="none" xmlns="http://www.w3.org/2000/svg">
<path fill-rule="evenodd" clip-rule="evenodd" d="M9.59156 2.44901C9.83893 2.25594 10.1626 2.19017 10.4657 2.27139L13.3634 3.04785C13.7101 3.14072 13.9804 3.41222 14.0717 3.75926L15.976 10.9948L20.245 12.1387C21.0136 12.3446 21.6688 12.8474 22.0667 13.5365C22.4645 14.2255 22.5723 15.0444 22.3664 15.8129C22.1604 16.5815 21.6576 17.2367 20.9686 17.6346C20.2795 18.0324 19.4607 18.1402 18.6921 17.9343L4.20324 14.052C3.83738 13.9539 3.5583 13.6576 3.48236 13.2865L2.1375 6.71451C2.06802 6.37497 2.1793 6.02366 2.4316 5.78605C2.6839 5.54843 3.04125 5.4584 3.37602 5.5481L6.2738 6.32456C6.52997 6.3932 6.74839 6.5608 6.881 6.79049L8.08811 8.88126L9.30523 9.20738L9.20698 3.25381C9.20181 2.94007 9.3442 2.64208 9.59156 2.44901ZM11.2286 4.54636L11.3268 10.4999C11.332 10.8137 11.1896 11.1117 10.9423 11.3047C10.6949 11.4978 10.3712 11.5636 10.0681 11.4824L7.17037 10.7059C6.91419 10.6373 6.69577 10.4697 6.56316 10.24L5.35606 8.14921L4.42128 7.89873L5.31786 12.2801L19.2098 16.0024C19.4659 16.071 19.7389 16.0351 19.9686 15.9025C20.1983 15.7699 20.3659 15.5515 20.4345 15.2953C20.5032 15.0391 20.4672 14.7662 20.3346 14.5365C20.202 14.3068 19.9836 14.1392 19.7274 14.0705L14.8978 12.7765C14.5511 12.6836 14.2809 12.4121 14.1895 12.065L12.2853 4.8295L11.2286 4.54636ZM2 21C2 20.4477 2.44772 20 3 20H21C21.5523 20 22 20.4477 22 21C22 21.5523 21.5523 22 21 22H3C2.44772 22 2 21.5523 2 21Z" fill="black"/>
</svg>
