<svg width="24" height="24" viewBox="0 0 24 24" fill="none" xmlns="http://www.w3.org/2000/svg">
<path fill-rule="evenodd" clip-rule="evenodd" d="M12 1C12.1783 0.999993 12.3533 1.04764 12.507 1.13802C12.6606 1.22839 12.7874 1.3582 12.874 1.514L22.874 19.514C23.238 20.17 22.75 21 22 21H15.636C15.4656 20.9998 15.298 20.9561 15.1493 20.8729C15.0005 20.7898 14.8755 20.67 14.786 20.525L10.379 13.386C9.44535 11.8737 8.9316 10.1399 8.89064 8.36312C8.84969 6.58631 9.28301 4.83069 10.146 3.277L11.126 1.514C11.2126 1.3582 11.3394 1.22839 11.493 1.13802C11.6467 1.04764 11.8217 0.999993 12 1ZM12 4.06C10.562 6.648 10.504 9.782 12.08 12.336L16.195 19H20.302L12 4.06ZM9.27301 21C9.46532 21 9.65354 20.9445 9.81512 20.8402C9.97669 20.7359 10.1048 20.5872 10.184 20.412C10.824 18.6 10.717 16.642 10.241 14.8C9.80501 13.113 9.06101 11.202 7.64001 10.083C7.52487 10.0026 7.39422 9.94702 7.2564 9.91993C7.11859 9.89284 6.97663 9.89479 6.83962 9.92566C6.7026 9.95652 6.57352 10.0156 6.46063 10.0992C6.34775 10.1828 6.25353 10.289 6.18401 10.411L1.12601 19.514C0.762006 20.17 1.25001 21 2.00001 21H9.27301ZM8.30401 15.3C7.98601 14.065 7.57701 13.212 7.22801 12.649L3.69901 19H8.52001C8.65301 18.316 8.75901 17.059 8.30401 15.3Z" fill="black"/>
</svg>
