<svg width="24" height="24" viewBox="0 0 24 24" fill="none" xmlns="http://www.w3.org/2000/svg">
<path d="M12 12V12.0118M20.3563 3.64371C19.4698 2.75722 17.7392 2.78743 15.5453 3.72769C13.3513 4.66796 10.8737 6.44126 8.65749 8.65748C6.44126 10.8737 4.66796 13.3513 3.7277 15.5453C2.78743 17.7392 2.75722 19.4698 3.64371 20.3563C4.5302 21.2428 6.26078 21.2126 8.45473 20.2723C10.6487 19.332 13.1263 17.5587 15.3425 15.3425C16.4399 14.2452 17.44 13.0721 18.2859 11.8903C19.1318 10.7085 19.8067 9.54106 20.2723 8.45473C20.7379 7.36839 20.9849 6.3844 20.9993 5.55892C21.0137 4.73344 20.7952 4.08266 20.3563 3.64371ZM3.64371 3.64371C2.75722 4.5302 2.78743 6.26078 3.72769 8.45473C4.66796 10.6487 6.44126 13.1263 8.65748 15.3425C10.8737 17.5587 13.3513 19.332 15.5453 20.2723C17.7392 21.2126 19.4698 21.2428 20.3563 20.3563C21.2428 19.4698 21.2126 17.7392 20.2723 15.5453C19.332 13.3513 17.5587 10.8737 15.3425 8.65748C14.2452 7.56012 13.0721 6.55996 11.8903 5.7141C10.7085 4.86825 9.54106 4.19327 8.45473 3.7277C7.36839 3.26212 6.3844 3.01508 5.55892 3.00067C4.73344 2.98626 4.08266 3.20476 3.64371 3.64371Z" stroke="black" stroke-width="2" stroke-linecap="round" stroke-linejoin="round"/>
</svg>
