<svg width="24" height="24" viewBox="0 0 24 24" fill="none" xmlns="http://www.w3.org/2000/svg">
<path fill-rule="evenodd" clip-rule="evenodd" d="M12 3C8.68629 3 6 5.68629 6 9C6 12.3137 8.68629 15 12 15C15.3137 15 18 12.3137 18 9C18 5.68629 15.3137 3 12 3ZM4 9C4 4.58172 7.58172 1 12 1C16.4183 1 20 4.58172 20 9C20 11.5264 18.8289 13.7793 17 15.2454V22C17 22.3788 16.786 22.725 16.4472 22.8944C16.1084 23.0638 15.703 23.0273 15.4 22.8L12 20.25L8.6 22.8C8.29698 23.0273 7.89157 23.0638 7.55279 22.8944C7.214 22.725 7 22.3788 7 22V15.2454C5.17107 13.7793 4 11.5264 4 9ZM9 16.4185V20L11.4 18.2C11.7556 17.9333 12.2444 17.9333 12.6 18.2L15 20V16.4185C14.0736 16.7935 13.0609 17 12 17C10.9391 17 9.92643 16.7935 9 16.4185Z" fill="black"/>
</svg>
