<svg width="24" height="24" viewBox="0 0 24 24" fill="none" xmlns="http://www.w3.org/2000/svg">
<path fill-rule="evenodd" clip-rule="evenodd" d="M16 4.05029C14.9524 4.05029 13.9478 4.46643 13.2071 5.20715L5.20709 13.2071C4.46636 13.9479 4.05023 14.9525 4.05023 16C4.05023 17.0476 4.46636 18.0522 5.20709 18.7929C5.94781 19.5337 6.95244 19.9498 7.99998 19.9498C9.04752 19.9498 10.0522 19.5337 10.7929 18.7929L18.7929 10.7929C19.5336 10.0522 19.9497 9.04758 19.9497 8.00004C19.9497 6.9525 19.5336 5.94787 18.7929 5.20715C18.0522 4.46643 17.0475 4.05029 16 4.05029ZM11.7929 3.79293C12.9087 2.67714 14.422 2.05029 16 2.05029C17.578 2.05029 19.0913 2.67714 20.2071 3.79293C21.3229 4.90873 21.9497 6.42207 21.9497 8.00004C21.9497 9.57801 21.3229 11.0914 20.2071 12.2071L12.2071 20.2071C11.0913 21.3229 9.57795 21.9498 7.99998 21.9498C6.42201 21.9498 4.90867 21.3229 3.79287 20.2071C2.67708 19.0914 2.05023 17.578 2.05023 16C2.05023 14.4221 2.67708 12.9087 3.79287 11.7929L11.7929 3.79293ZM12 9.00004C12.5523 9.00004 13 9.44776 13 10V10.01C13 10.5623 12.5523 11.01 12 11.01C11.4477 11.01 11 10.5623 11 10.01V10C11 9.44776 11.4477 9.00004 12 9.00004ZM9.99998 11C10.5523 11 11 11.4478 11 12V12.01C11 12.5623 10.5523 13.01 9.99998 13.01C9.44769 13.01 8.99998 12.5623 8.99998 12.01V12C8.99998 11.4478 9.44769 11 9.99998 11ZM14 11C14.5523 11 15 11.4478 15 12V12.01C15 12.5623 14.5523 13.01 14 13.01C13.4477 13.01 13 12.5623 13 12.01V12C13 11.4478 13.4477 11 14 11ZM12 13C12.5523 13 13 13.4478 13 14V14.01C13 14.5623 12.5523 15.01 12 15.01C11.4477 15.01 11 14.5623 11 14.01V14C11 13.4478 11.4477 13 12 13Z" fill="black"/>
</svg>
