<svg width="24" height="24" viewBox="0 0 24 24" fill="none" xmlns="http://www.w3.org/2000/svg">
<path fill-rule="evenodd" clip-rule="evenodd" d="M11.5144 2.12584C11.8164 1.95805 12.1836 1.95805 12.4856 2.12584L21.4856 7.12584C21.8031 7.30221 22 7.63683 22 8V10C22 10.5523 21.5523 11 21 11H3C2.44772 11 2 10.5523 2 10V8C2 7.63683 2.19689 7.30221 2.51436 7.12584L11.5144 2.12584ZM4 8.5884V9H20V8.5884L12 4.14396L4 8.5884ZM4 12V19H2V12H4ZM10 12V19H8V12H10ZM16 12V19H14V12H16ZM22 12V19H20V12H22ZM22 20V22H2V20H22Z" fill="black"/>
</svg>
