<svg width="24" height="24" viewBox="0 0 24 24" fill="none" xmlns="http://www.w3.org/2000/svg">
<path fill-rule="evenodd" clip-rule="evenodd" d="M4.05514 11.0558C5.98891 11.2609 7.8223 12.026 9.32854 13.2572L10.5858 12L5.68014 7.09436C4.80905 8.21495 4.22944 9.57337 4.05514 11.0558ZM7.09436 5.68014L12 10.5858L13.2572 9.32854C12.026 7.8223 11.2609 5.98891 11.0558 4.05514C9.57337 4.22944 8.21495 4.80905 7.09436 5.68014ZM13.072 4.07121C13.2607 5.46803 13.8156 6.79133 14.6804 7.9054L16.9056 5.68014C15.8173 4.83414 14.5047 4.26307 13.072 4.07121ZM18.3199 7.09436L16.0946 9.31962C17.2087 10.1844 18.532 10.7393 19.9288 10.928C19.7369 9.49531 19.1659 8.18267 18.3199 7.09436ZM19.9449 12.9442C18.0111 12.7391 16.1777 11.974 14.6715 10.7428L13.4142 12L18.3199 16.9056C19.191 15.785 19.7706 14.4266 19.9449 12.9442ZM16.9056 18.3199L12 13.4142L10.7428 14.6715C11.974 16.1777 12.7391 18.0111 12.9442 19.9449C14.4266 19.7706 15.785 19.191 16.9056 18.3199ZM10.928 19.9288C10.7393 18.532 10.1844 17.2087 9.31962 16.0946L7.09436 18.3199C8.18267 19.1659 9.49531 19.7369 10.928 19.9288ZM5.68014 16.9056L7.9054 14.6804C6.79133 13.8156 5.46803 13.2607 4.07121 13.072C4.26308 14.5047 4.83414 15.8173 5.68014 16.9056ZM2 12C2 6.47715 6.47715 2 12 2C17.5228 2 22 6.47715 22 12C22 17.5228 17.5228 22 12 22C6.47715 22 2 17.5228 2 12Z" fill="black"/>
</svg>
