<svg width="24" height="24" viewBox="0 0 24 24" fill="none" xmlns="http://www.w3.org/2000/svg">
<path fill-rule="evenodd" clip-rule="evenodd" d="M17.5858 19L21.2929 22.7071L22.7071 21.2928L2.70712 1.29285L1.29291 2.70706L3.58585 5H3C2.73478 5 2.48043 5.10536 2.29289 5.29289C2.10536 5.48043 2 5.73478 2 6V18C2 18.2652 2.10536 18.5196 2.29289 18.7071C2.48043 18.8946 2.73478 19 3 19H17.5858ZM15.5858 17L5.58585 7H4V17H15.5858Z" fill="black"/>
<path d="M20 6V16.5857L18 14.5857V7H10.4143L8.41428 5H19C19.2652 5 19.5196 5.10536 19.7071 5.29289C19.8946 5.48043 20 5.73478 20 6Z" fill="black"/>
<path d="M21 9H23V15H21V9Z" fill="black"/>
</svg>
