<svg width="24" height="24" viewBox="0 0 24 24" fill="none" xmlns="http://www.w3.org/2000/svg">
<path d="M12 14C13.1046 14 14 13.1046 14 12C14 10.8955 13.1046 10 12 10C10.8954 10 10 10.8955 10 12C10 13.1046 10.8954 14 12 14ZM12 14V15M12 15C12 17.7615 9.76143 20 7.00001 20M12 15C12 17.7615 14.2386 20 17 20M10.268 11L9.40194 10.5M9.40194 10.5C7.01047 9.11934 6.1911 6.06138 7.57181 3.66992M9.40194 10.5C7.01047 9.11934 3.95252 9.93871 2.57181 12.3302M13.7321 11.0001L14.5981 10.5001M14.5981 10.5001C16.9895 9.11939 20.0475 9.93876 21.4282 12.3302M14.5981 10.5001C16.9895 9.11939 17.8089 6.06144 16.4282 3.66997" stroke="black" stroke-width="2" stroke-linecap="round" stroke-linejoin="round"/>
</svg>
