<svg width="24" height="24" viewBox="0 0 24 24" fill="none" xmlns="http://www.w3.org/2000/svg">
<path fill-rule="evenodd" clip-rule="evenodd" d="M9.32107 2.40908C9.72078 2.79019 9.73585 3.42318 9.35473 3.82289L9.20032 3.98483C8.79564 4.43515 8.50597 4.97681 8.35615 5.56354C8.2053 6.15426 8.20076 6.77285 8.34291 7.36572C8.48506 7.95858 8.76962 8.50785 9.17194 8.96594C9.42959 9.25931 9.73056 9.50961 10.0633 9.70882C10.5859 9.26662 11.2618 9 12 9C12.7349 9 13.408 9.26422 13.9296 9.70285C14.2707 9.49691 14.578 9.23719 14.8391 8.93246C15.2462 8.45723 15.528 7.88767 15.6587 7.27568C15.7893 6.66369 15.7648 6.02873 15.5872 5.42866C15.4097 4.8286 15.0848 4.2825 14.6421 3.84015C14.2515 3.44975 14.2513 2.81658 14.6417 2.42593C15.0321 2.03528 15.6652 2.03508 16.0559 2.42548C16.7346 3.10376 17.2328 3.9411 17.505 4.86121C17.7773 5.78131 17.8149 6.75492 17.6146 7.6933C17.5171 8.14968 17.3649 8.59066 17.1624 9.0071C17.8302 9.05572 18.4874 9.22082 19.1035 9.49789C20.0731 9.934 20.9029 10.6304 21.5006 11.5098C22.0982 12.3891 22.4404 13.417 22.489 14.4791C22.4897 14.4943 22.49 14.5096 22.49 14.5248V14.7418C22.49 15.2941 22.0423 15.7418 21.49 15.7418C20.9377 15.7418 20.49 15.2941 20.49 14.7418V14.549C20.4547 13.864 20.2322 13.2016 19.8464 12.634C19.4567 12.0605 18.9155 11.6063 18.2831 11.3219C17.6507 11.0375 16.9518 10.934 16.2642 11.0229C15.8014 11.0827 15.3559 11.2281 14.9496 11.4496C14.9827 11.628 15 11.812 15 12C15 13.3077 14.1632 14.4201 12.9959 14.8307C13.0031 15.1431 13.0493 15.4543 13.1341 15.7569C13.2806 16.2795 13.5388 16.7641 13.8908 17.1771C14.2429 17.5902 14.6804 17.9219 15.1732 18.1494C15.666 18.3769 16.2022 18.4947 16.745 18.4947C17.2973 18.4947 17.745 18.9424 17.745 19.4947C17.745 20.047 17.2973 20.4947 16.745 20.4947C15.9128 20.4947 15.0905 20.3141 14.3349 19.9653C13.5793 19.6165 12.9085 19.1078 12.3687 18.4744C12.2358 18.3185 12.1117 18.156 11.9967 17.9876C11.8202 18.2465 11.6218 18.4922 11.4027 18.7216C10.3807 19.7914 8.98564 20.4261 7.50768 20.4937C7.49246 20.4944 7.47723 20.4947 7.462 20.4947H7.245C6.69271 20.4947 6.245 20.047 6.245 19.4947C6.245 18.9424 6.69271 18.4947 7.245 18.4947H7.4378C8.39371 18.4455 9.29496 18.0326 9.95653 17.34C10.6052 16.6611 10.9748 15.7642 10.9942 14.8272C9.83203 14.4138 9 13.304 9 12C9 11.8148 9.01679 11.6334 9.04893 11.4575C8.62809 11.2266 8.16494 11.0776 7.6841 11.0209C6.98092 10.938 6.26863 11.0558 5.62964 11.3609C4.99065 11.6659 4.45106 12.1455 4.0733 12.7444C3.69554 13.3432 3.49504 14.0368 3.495 14.7449C3.49496 15.2972 3.04722 15.7448 2.49494 15.7448C1.94265 15.7448 1.49496 15.297 1.495 14.7448C1.49506 13.6591 1.80249 12.5956 2.38172 11.6773C2.96096 10.7591 3.78833 10.0236 4.76811 9.55592C5.41546 9.24693 6.11186 9.0632 6.82088 9.01076C6.6381 8.63578 6.49601 8.24066 6.39803 7.83204C6.18007 6.92297 6.18703 5.97447 6.41833 5.0687C6.64962 4.16294 7.09827 3.32722 7.7254 2.63396C7.73127 2.62748 7.73722 2.62107 7.74326 2.61474L7.90726 2.44274C8.28837 2.04303 8.92136 2.02796 9.32107 2.40908ZM12.1148 12.9935C12.0949 12.9923 12.075 12.9917 12.055 12.9917H11.995C11.9649 12.9917 11.9352 12.993 11.9058 12.9956C11.3977 12.9482 11 12.5205 11 12C11 11.4477 11.4477 11 12 11C12.3286 11 12.6203 11.1585 12.8025 11.4033C12.8261 11.4474 12.8526 11.4891 12.8818 11.5283L12.8858 11.5355C12.9587 11.6743 13 11.8323 13 12C13 12.5135 12.613 12.9366 12.1148 12.9935Z" fill="black"/>
</svg>
