<svg width="24" height="24" viewBox="0 0 24 24" fill="none" xmlns="http://www.w3.org/2000/svg">
<path fill-rule="evenodd" clip-rule="evenodd" d="M11.5932 2.08652C11.9539 1.92585 12.3754 1.99254 12.669 2.25672L17.669 6.75672C17.8797 6.94637 18 7.21653 18 7.50002C18 7.7835 17.8797 8.05367 17.669 8.24331L13.4948 12L17.669 15.7567C17.8797 15.9464 18 16.2165 18 16.5C18 16.7835 17.8797 17.0537 17.669 17.2433L12.669 21.7433C12.3754 22.0075 11.9539 22.0742 11.5932 21.9135C11.2324 21.7529 11 21.3949 11 21V14.2454L6.92567 17.9123L5.58774 16.4257L10.5051 12L5.58774 7.57435L6.92567 6.08776L11 9.75466V3.00002C11 2.60511 11.2324 2.24718 11.5932 2.08652ZM13 14.2454L15.5052 16.5L13 18.7547V14.2454ZM13 9.75466V5.24538L15.5051 7.50002L13 9.75466Z" fill="black"/>
</svg>
