<svg width="24" height="24" viewBox="0 0 24 24" fill="none" xmlns="http://www.w3.org/2000/svg">
<path d="M3 17.9999H21C21.0929 17.9999 21.1839 18.0258 21.2629 18.0746C21.3419 18.1234 21.4057 18.1932 21.4472 18.2763C21.4887 18.3593 21.5063 18.4523 21.498 18.5448C21.4896 18.6373 21.4557 18.7256 21.4 18.7999L19.3 21.5999C19.2069 21.7241 19.0861 21.8249 18.9472 21.8943C18.8084 21.9637 18.6552 21.9999 18.5 21.9999H5.5C5.34476 21.9999 5.19164 21.9637 5.05279 21.8943C4.91393 21.8249 4.79315 21.7241 4.7 21.5999L2.6 18.7999C2.54429 18.7256 2.51036 18.6373 2.50202 18.5448C2.49368 18.4523 2.51126 18.3593 2.55279 18.2763C2.59431 18.1932 2.65815 18.1234 2.73713 18.0746C2.81612 18.0258 2.90714 17.9999 3 17.9999ZM7.161 13.9999H13V6.70189L7.161 13.9999ZM15 2.42489V14.9999C15 15.2651 14.8946 15.5195 14.7071 15.707C14.5196 15.8945 14.2652 15.9999 14 15.9999H4.04C3.94592 15.9998 3.85378 15.9731 3.77417 15.9229C3.69457 15.8728 3.63074 15.8012 3.59 15.7164C3.54927 15.6316 3.53329 15.537 3.5439 15.4435C3.55452 15.35 3.59129 15.2614 3.65 15.1879L14.11 2.11289C14.1748 2.03218 14.2629 1.97355 14.3624 1.94508C14.4619 1.91661 14.5678 1.9197 14.6654 1.95393C14.7631 1.98817 14.8477 2.05185 14.9076 2.1362C14.9675 2.22055 14.9998 2.32142 15 2.42489Z" fill="black"/>
</svg>
