<svg width="24" height="24" viewBox="0 0 24 24" fill="none" xmlns="http://www.w3.org/2000/svg">
<path fill-rule="evenodd" clip-rule="evenodd" d="M4 2C4 1.44772 4.44772 1 5 1H19C19.5523 1 20 1.44772 20 2V22C20 22.379 19.7858 22.7254 19.4467 22.8947C19.1076 23.064 18.702 23.027 18.399 22.7993L12 17.988L5.60096 22.7993C5.29804 23.027 4.8924 23.064 4.55332 22.8947C4.21424 22.7254 4 22.379 4 22V2ZM6 3V19.997L11.399 15.9376C11.755 15.6699 12.245 15.6699 12.601 15.9376L18 19.997V3H6Z" fill="black"/>
</svg>
