<svg width="24" height="24" viewBox="0 0 24 24" fill="none" xmlns="http://www.w3.org/2000/svg">
<path fill-rule="evenodd" clip-rule="evenodd" d="M11 4.06189C7.05369 4.55399 4 7.92038 4 12C4 16.0796 7.05369 19.446 11 19.9381V4.06189ZM13 4.06189V6.58579L15.003 4.58275C14.3715 4.32679 13.6998 4.14915 13 4.06189ZM16.8084 5.60577L13 9.41421V11.8858L18.0825 6.8033C17.7029 6.35942 17.2756 5.9576 16.8084 5.60577ZM19.2018 8.51241L13 14.7142V17.1858L19.8307 10.3551C19.6956 9.70877 19.4826 9.09112 19.2018 8.51241ZM13.0875 19.9267L19.9267 13.0875C19.4445 16.6358 16.6358 19.4445 13.0875 19.9267ZM2 12C2 6.47715 6.47715 2 12 2C17.5228 2 22 6.47715 22 12C22 17.5228 17.5228 22 12 22C6.47715 22 2 17.5228 2 12Z" fill="black"/>
</svg>
