<svg width="24" height="24" viewBox="0 0 24 24" fill="none" xmlns="http://www.w3.org/2000/svg">
<path d="M12 21C16.9706 21 21 16.9706 21 12C21 11.5565 20.9679 11.1204 20.9059 10.6941M12 21C7.02944 21 3 16.9706 3 12C3 7.02944 7.02944 3 12 3M12 21V19.6M12 3C13.7165 3 15.3208 3.48053 16.6856 4.3144M12 3V9M16.6856 4.3144C17.7641 4.9733 18.693 5.85282 19.4098 6.89021M16.6856 4.3144L12 9M19.4098 6.89021C20.1783 8.00246 20.7027 9.29619 20.9059 10.6941M19.4098 6.89021L12 14.3M20.9059 10.6941L12 19.6M12 9V14.3M12 14.3V19.6" stroke="black" stroke-width="2" stroke-linecap="round" stroke-linejoin="round"/>
</svg>
