<svg width="24" height="24" viewBox="0 0 24 24" fill="none" xmlns="http://www.w3.org/2000/svg">
<path fill-rule="evenodd" clip-rule="evenodd" d="M21.7071 2.2929C21.9282 2.51399 22.0331 2.82575 21.9908 3.13553C21.576 6.1681 20.3501 9.03243 18.4426 11.4262C16.7174 13.5911 14.4925 15.2985 11.9645 16.4051C12.0663 17.2548 11.9485 18.1188 11.6194 18.9134C11.241 19.8271 10.6001 20.608 9.77785 21.1574C8.95561 21.7068 7.98891 22 7 22H3C2.44772 22 2 21.5523 2 21V17C2 16.0111 2.29325 15.0444 2.84265 14.2222C3.39206 13.3999 4.17295 12.759 5.08658 12.3806C5.88121 12.0515 6.7452 11.9337 7.59493 12.0355C8.70147 9.50755 10.4089 7.28262 12.5739 5.55739C14.9676 3.64989 17.8319 2.42403 20.8645 2.00923C21.1743 1.96686 21.486 2.07182 21.7071 2.2929ZM7.75908 14.0976C7.7874 14.1115 7.81663 14.1242 7.84672 14.1355C7.9125 14.1604 7.97926 14.1778 8.04608 14.1883C8.44818 14.3379 8.81533 14.5727 9.12132 14.8787C9.42731 15.1847 9.66211 15.5518 9.81171 15.9539C9.82219 16.0208 9.83964 16.0875 9.86448 16.1533C9.87585 16.1834 9.88851 16.2126 9.90238 16.2409C9.9174 16.2983 9.93073 16.3563 9.94236 16.4147C10.0581 16.9967 9.9987 17.5999 9.77164 18.1481C9.54458 18.6962 9.16006 19.1648 8.66671 19.4944C8.17336 19.8241 7.59334 20 7 20H4V17C4 16.4067 4.17595 15.8266 4.50559 15.3333C4.83524 14.84 5.30377 14.4554 5.85195 14.2284C6.40013 14.0013 7.00333 13.9419 7.58527 14.0577C7.64371 14.0693 7.70166 14.0826 7.75908 14.0976ZM11.3293 14.4987C11.1122 14.1228 10.8458 13.7748 10.5355 13.4645C10.2253 13.1542 9.87724 12.8878 9.50134 12.6707C9.88303 11.8268 10.3411 11.0223 10.8685 10.2667C12.0533 10.9599 13.0401 11.9467 13.7333 13.1315C12.9777 13.6589 12.1732 14.117 11.3293 14.4987ZM15.3062 11.8681C15.8708 11.3484 16.3967 10.7843 16.8785 10.1798C18.2688 8.4351 19.2487 6.40712 19.7538 4.24619C17.5929 4.75135 15.5649 5.73124 13.8203 7.12151C13.2157 7.60327 12.6516 8.1292 12.1319 8.69379C13.4167 9.49755 14.5025 10.5833 15.3062 11.8681Z" fill="black"/>
</svg>
