<svg width="24" height="24" viewBox="0 0 24 24" fill="none" xmlns="http://www.w3.org/2000/svg">
<path d="M10 15H14M14 11H10M6.34141 9C6.12031 9.62556 6 10.2987 6 11V13M6.34141 9H4M6.34141 9C6.97396 7.21034 8.4315 5.81039 10.2571 5.25707M6 13V15C6 15.7013 6.12031 16.3744 6.34141 17M6 13H4M6.34141 17C7.16508 19.3304 9.38756 21 12 21C14.6124 21 16.8349 19.3304 17.6586 17M6.34141 17H4M17.6586 17C17.8797 16.3744 18 15.7013 18 15V13M17.6586 17H20M18 13V11C18 10.2987 17.8797 9.62556 17.6586 9M18 13H20M17.6586 9H20M17.6586 9C17.026 7.21034 15.5685 5.81039 13.7429 5.25707M13.7429 5.25707C13.1913 5.08989 12.6062 5 12 5C11.3938 5 10.8086 5.08989 10.2571 5.25707M13.7429 5.25707L16 3M10.2571 5.25707L8 3" stroke="black" stroke-width="2" stroke-linecap="round" stroke-linejoin="round"/>
</svg>
