<svg width="24" height="24" viewBox="0 0 24 24" fill="none" xmlns="http://www.w3.org/2000/svg">
<path fill-rule="evenodd" clip-rule="evenodd" d="M16.1871 17.6013L21.2929 22.7072L22.7071 21.293L2.70712 1.29297L1.29291 2.70718L4.89994 6.31422C4.86194 6.3874 4.82504 6.46124 4.78924 6.53572C4.13639 7.89418 3.88057 9.40944 4.05125 10.9069C4.22194 12.4044 4.81218 13.8233 5.75399 15C5.89693 15.1781 6.09305 15.3802 6.31031 15.6041C7.03695 16.3529 7.99999 17.3452 7.99999 18.5V21C7.99999 21.5304 8.2107 22.0391 8.58578 22.4142C8.96085 22.7893 9.46956 23 9.99999 23H14C14.5304 23 15.0391 22.7893 15.4142 22.4142C15.7893 22.0391 16 21.5304 16 21V18.5C16 18.188 16.0702 17.8879 16.1871 17.6013ZM14.6941 16.1084L13 14.4143V18H14.027C14.1016 17.3205 14.33 16.7081 14.6941 16.1084ZM11.5857 13L6.40883 7.82311C6.05623 8.72846 5.92793 9.70826 6.03818 10.6782C6.16584 11.8012 6.60808 12.8653 7.31399 13.748C7.37018 13.8179 7.69749 14.1606 7.94859 14.4236C8.08172 14.563 8.19353 14.6801 8.23199 14.722C9.22799 15.806 9.84099 16.798 9.97299 18H11V13H11.5857ZM9.99999 20V21H14V20H9.99999Z" fill="black"/>
<path d="M19.948 10.9095C19.7815 12.3663 19.2179 13.7486 18.3199 14.9057L16.8905 13.4763C17.4767 12.6514 17.846 11.6899 17.9611 10.6807C18.0892 9.55781 17.8976 8.42151 17.4082 7.40271C16.9189 6.38392 16.1517 5.52406 15.1951 4.92215C14.2385 4.32025 13.1313 4.00078 12.0011 4.00054C10.8708 4.0003 9.76353 4.31929 8.80665 4.92079C8.71049 4.98123 8.61624 5.04429 8.524 5.10984L7.09504 3.68089C7.30231 3.52004 7.51796 3.36902 7.74135 3.22856C9.01727 2.42627 10.4939 2.00074 12.0011 2.00098C13.5083 2.00122 14.9847 2.42722 16.2604 3.22992C17.5361 4.03262 18.559 5.17935 19.2114 6.53803C19.8639 7.8967 20.1192 9.41204 19.948 10.9095Z" fill="black"/>
</svg>
