<svg width="24" height="24" viewBox="0 0 24 24" fill="none" xmlns="http://www.w3.org/2000/svg">
<path fill-rule="evenodd" clip-rule="evenodd" d="M3 3C3 2.44772 3.44772 2 4 2H20C20.5523 2 21 2.44772 21 3V21C21 21.5523 20.5523 22 20 22H4C3.44772 22 3 21.5523 3 21V3ZM5 4V20H19V4H5ZM7 7C7 6.44772 7.44772 6 8 6H16C16.5523 6 17 6.44772 17 7V9C17 9.55228 16.5523 10 16 10H8C7.44772 10 7 9.55228 7 9V7ZM9 12V14H7V12H9ZM13 14H11V12H13V14ZM15 18V12H17V18H15ZM9 16V18H7V16H9ZM13 18H11V16H13V18Z" fill="black"/>
</svg>
