<svg width="24" height="24" viewBox="0 0 24 24" fill="none" xmlns="http://www.w3.org/2000/svg">
<path d="M5 10H7V12H5V10Z" fill="black"/>
<path fill-rule="evenodd" clip-rule="evenodd" d="M17 18.4143L21.2929 22.7072L22.7071 21.293L2.70712 1.29297L1.29291 2.70718L4.58573 6H2C1.73478 6 1.48043 6.10536 1.29289 6.29289C1.10536 6.48043 1 6.73478 1 7V19C1 19.2652 1.10536 19.5196 1.29289 19.7071C1.48043 19.8946 1.73478 20 2 20H16C16.2652 20 16.5196 19.8946 16.7071 19.7071C16.8946 19.5196 17 19.2652 17 19V18.4143ZM15 16.4143L6.58572 8H3V18H15V16.4143Z" fill="black"/>
<path fill-rule="evenodd" clip-rule="evenodd" d="M22.213 18.45L21.0495 17.6354L15 11.5858V8H11.4142L9.41415 6H13V4H7.41415L5.41415 2H15V6H16C16.2652 6 16.5196 6.10536 16.7071 6.29289C16.8946 6.48043 17 6.73478 17 7V9.2L22.213 5.55C22.288 5.49746 22.3759 5.4665 22.4672 5.4605C22.5586 5.4545 22.6498 5.4737 22.731 5.51599C22.8122 5.55829 22.8802 5.62206 22.9276 5.70035C22.9751 5.77865 23.0001 5.86846 23 5.96V18.04C23.0001 18.1315 22.9751 18.2214 22.9276 18.2996C22.8802 18.3779 22.8122 18.4417 22.731 18.484C22.6498 18.5263 22.5586 18.5455 22.4672 18.5395C22.3759 18.5335 22.288 18.5025 22.213 18.45ZM17 12.359L21 15.159V8.84L17 11.64V12.359Z" fill="black"/>
</svg>
