<svg width="24" height="24" viewBox="0 0 24 24" fill="none" xmlns="http://www.w3.org/2000/svg">
<path fill-rule="evenodd" clip-rule="evenodd" d="M19.5857 21L21.2929 22.7072L22.7071 21.293L2.70712 1.29297L1.29291 2.70718L3.58573 5H3C2.73478 5 2.48043 5.10536 2.29289 5.29289C2.10536 5.48043 2 5.73478 2 6V20C2 20.2652 2.10536 20.5196 2.29289 20.7071C2.48043 20.8946 2.73478 21 3 21H19.5857ZM17.5857 19L15.405 16.8193C14.4398 17.5802 13.2415 18 12 18C10.5413 18 9.14236 17.4205 8.11091 16.3891C7.07946 15.3576 6.5 13.9587 6.5 12.5C6.5 11.2585 6.91977 10.0602 7.68072 9.095L5.58572 7H4V19H17.5857ZM9.11056 10.5248C8.71561 11.1026 8.5 11.7902 8.5 12.5C8.5 13.4283 8.86875 14.3185 9.52513 14.9749C10.1815 15.6313 11.0717 16 12 16C12.7098 16 13.3974 15.7844 13.9752 15.3894L9.11056 10.5248Z" fill="black"/>
<path d="M22 6V18.5858L20 16.5858V7H16.172L14.172 5H9.828L9.12108 5.70692L7.70708 4.29292L9 3H15L17 5H21C21.2652 5 21.5196 5.10536 21.7071 5.29289C21.8946 5.48043 22 5.73478 22 6Z" fill="black"/>
<path d="M17.5 12.5C17.5 12.9779 17.4378 13.4494 17.3179 13.9037L15.472 12.0578C15.3745 11.2926 15.0261 10.5764 14.4749 10.0251C13.9236 9.47385 13.2074 9.12547 12.4422 9.02803L10.5963 7.18213C11.0506 7.0622 11.5221 7 12 7C13.4587 7 14.8576 7.57946 15.8891 8.61091C16.9205 9.64236 17.5 11.0413 17.5 12.5Z" fill="black"/>
</svg>
