<svg width="24" height="24" viewBox="0 0 24 24" fill="none" xmlns="http://www.w3.org/2000/svg">
<path d="M8.48035 8.48035L4.45789 12.5028C3.52442 13.4363 3 14.7023 3 16.0225C3 17.3426 3.52442 18.6086 4.45789 19.5421C5.39136 20.4756 6.65741 21 7.97754 21C9.29767 21 10.5637 20.4756 11.4972 19.5421L15.5197 15.5197M8.48035 8.48035L12.5028 4.45789C13.4363 3.52442 14.7023 3 16.0225 3C17.3426 3 18.6086 3.52442 19.5421 4.45789C20.4756 5.39136 21 6.65741 21 7.97754C21 9.29767 20.4756 10.5637 19.5421 11.4972L15.5197 15.5197M8.48035 8.48035L15.5197 15.5197" stroke="black" stroke-width="2" stroke-linecap="round" stroke-linejoin="round"/>
</svg>
