<svg width="24" height="24" viewBox="0 0 24 24" fill="none" xmlns="http://www.w3.org/2000/svg">
<path d="M11.0217 2.001V4.01794C7.06616 4.51115 4.00481 7.88542 4.00481 11.9754C4.00481 16.4043 7.59543 19.9951 12.0241 19.9951C13.8775 19.9951 15.5826 19.3665 16.9419 18.311L18.3683 19.7375C16.6401 21.1509 14.4298 22 12.0241 22C6.48777 22 2 17.512 2 11.9754C2 6.77771 5.9565 2.50323 11.0217 2.001ZM21.998 12.9779C21.7975 14.9938 21.0016 16.8343 19.7857 18.319L18.3593 16.8935C19.2213 15.7838 19.7987 14.4425 19.9812 12.9779H21.999H21.998ZM13.0285 2.001C17.7638 2.47115 21.5289 6.23738 22 10.973H19.9822C19.5301 7.3461 16.6552 4.47105 13.0285 4.01794V2V2.001Z" fill="black"/>
</svg>
