<svg width="24" height="24" viewBox="0 0 24 24" fill="none" xmlns="http://www.w3.org/2000/svg">
<path d="M10 16C10 17.6569 8.65685 19 7 19C5.34315 19 4 17.6569 4 16C4 14.3431 5.34315 13 7 13C8.65685 13 10 14.3431 10 16Z" stroke="black" stroke-width="2" stroke-linecap="round" stroke-linejoin="round"/>
<path d="M20 7.5C20 9.98528 17.9853 12 15.5 12C13.0147 12 11 9.98528 11 7.5C11 5.01472 13.0147 3 15.5 3C17.9853 3 20 5.01472 20 7.5Z" stroke="black" stroke-width="2" stroke-linecap="round" stroke-linejoin="round"/>
<path d="M19 19C19 20.1046 18.1046 21 17 21C15.8954 21 15 20.1046 15 19C15 17.8954 15.8954 17 17 17C18.1046 17 19 17.8954 19 19Z" stroke="black" stroke-width="2" stroke-linecap="round" stroke-linejoin="round"/>
</svg>
