<svg width="24" height="24" viewBox="0 0 24 24" fill="none" xmlns="http://www.w3.org/2000/svg">
<path fill-rule="evenodd" clip-rule="evenodd" d="M17.5858 19L21.2929 22.7071L22.7071 21.2929L2.70712 1.29291L1.29291 2.70712L2.11665 3.53086C2.04219 3.67077 2 3.83046 2 4V21C2 21.4045 2.24364 21.7691 2.61732 21.9239C2.99099 22.0787 3.42111 21.9931 3.70711 21.7071L6.41421 19H17.5858ZM15.5858 17L4 5.41421V18.5858L5.29289 17.2929C5.48043 17.1054 5.73478 17 6 17H15.5858Z" fill="black"/>
<path d="M22 18C22 18.1695 21.9578 18.3292 21.8834 18.4691L20 16.5858V5H8.41421L6.41421 3H21C21.5523 3 22 3.44772 22 4V18Z" fill="black"/>
</svg>
