<svg width="24" height="24" viewBox="0 0 24 24" fill="none" xmlns="http://www.w3.org/2000/svg">
<path fill-rule="evenodd" clip-rule="evenodd" d="M2 4C2 3.44772 2.44772 3 3 3H21C21.5523 3 22 3.44772 22 4V12H20V5H4V18.5858L5.29289 17.2929C5.48043 17.1054 5.73478 17 6 17H12V19H6.41421L3.70711 21.7071C3.42111 21.9931 2.99099 22.0787 2.61732 21.9239C2.24364 21.7691 2 21.4045 2 21V4ZM17 14.126C16.285 14.31 15.6474 14.6868 15.1459 15.1975L14.1698 14.634L13.1698 16.366L14.145 16.929C14.0505 17.2699 14 17.6291 14 18C14 18.371 14.0505 18.7301 14.145 19.071L13.1699 19.634L14.1699 21.366L15.1459 20.8025C15.6475 21.3133 16.2851 21.69 17 21.874V23H19V21.874C19.7149 21.69 20.3525 21.3133 20.8541 20.8025L21.8301 21.366L22.8301 19.634L21.855 19.071C21.9495 18.7301 22 18.371 22 18C22 17.629 21.9495 17.2699 21.855 16.929L22.8301 16.366L21.8301 14.634L20.8541 15.1975C20.3525 14.6867 19.7149 14.31 19 14.126V13H17V14.126ZM18 16C16.8954 16 16 16.8954 16 18C16 19.1046 16.8954 20 18 20C19.1046 20 20 19.1046 20 18C20 16.8954 19.1046 16 18 16Z" fill="black"/>
</svg>
