<svg width="24" height="24" viewBox="0 0 24 24" fill="none" xmlns="http://www.w3.org/2000/svg">
<path fill-rule="evenodd" clip-rule="evenodd" d="M11 6V3H13V6H11ZM6.30711 4.89289L8.50711 7.09289L7.09289 8.50711L4.89289 6.30711L6.30711 4.89289ZM19.1071 6.30711L16.9071 8.50711L15.4929 7.09289L17.6929 4.89289L19.1071 6.30711ZM11.2929 11.2929C11.5607 11.0251 11.9569 10.9315 12.3162 11.0513L21.3162 14.0513C21.6999 14.1792 21.9688 14.5257 21.9975 14.9291C22.0262 15.3326 21.809 15.7135 21.4472 15.8944L17.7454 17.7454L15.8944 21.4472C15.7135 21.809 15.3326 22.0262 14.9291 21.9975C14.5257 21.9688 14.1792 21.6999 14.0513 21.3162L11.0513 12.3162C10.9315 11.9569 11.0251 11.5607 11.2929 11.2929ZM6 13H3V11H6V13ZM13.5811 13.5811L15.1852 18.3934L16.1056 16.5528C16.2023 16.3593 16.3593 16.2023 16.5528 16.1056L18.3934 15.1852L13.5811 13.5811ZM4.89289 17.6929L7.09289 15.4929L8.50711 16.9071L6.30711 19.1071L4.89289 17.6929Z" fill="black"/>
</svg>
