<svg width="24" height="24" viewBox="0 0 24 24" fill="none" xmlns="http://www.w3.org/2000/svg">
<path d="M13 12.5289C13.9122 11.2433 15.3644 10.4118 17 10.4118C17.3083 10.4118 17.61 10.4413 17.9028 10.4978M6.09718 10.4978C6.03334 10.1265 6 9.74383 6 9.35294C6 5.84431 8.68629 3 12 3C15.3137 3 18 5.84431 18 9.35294C18 9.74383 17.9667 10.1265 17.9028 10.4978M6.09718 10.4978C3.7667 10.9478 2 13.1084 2 15.7059C2 18.6297 4.23858 21 7 21H17C19.7614 21 22 18.6297 22 15.7059C22 13.1084 20.2333 10.9478 17.9028 10.4978M6.09718 10.4978C6.39001 10.4413 6.69175 10.4118 7 10.4118" stroke="black" stroke-width="2" stroke-linecap="round" stroke-linejoin="round"/>
</svg>
