<svg width="24" height="24" viewBox="0 0 24 24" fill="none" xmlns="http://www.w3.org/2000/svg">
<path d="M13.2251 5.09077C13.8165 3.29573 15.5069 2 17.5 2C19.9853 2 22 4.01472 22 6.5C22 8.75001 20.3487 10.6143 18.1918 10.9471M13.2251 5.09077C12.4689 4.96645 11.6927 4.96982 10.9373 5.10096C10.1499 5.23768 9.40062 5.51057 8.73217 5.90406C7.38217 6.69876 6.44348 7.93644 6.12261 9.34483C4.76401 9.34483 3.46105 9.85345 2.50038 10.7588C1.5397 11.6641 1 12.8921 1 14.1724C1 15.4528 1.5397 16.6807 2.50038 17.586C3.46105 18.4914 4.76401 19 6.12261 19H19.189C20.1997 19 21.1691 18.6044 21.8838 17.9002C22.5985 17.1961 23 16.241 23 15.2452C23 14.2494 22.5985 13.2943 21.8838 12.5902C21.1691 11.886 20.1997 11.4904 19.189 11.4904H18.1001C18.1411 11.3105 18.1717 11.1292 18.1918 10.9471M13.2251 5.09077C13.2572 5.09604 13.2892 5.10155 13.3212 5.10728C14.1077 5.24816 14.8551 5.52502 15.5209 5.92205C16.1867 6.31907 16.7578 6.8285 17.2015 7.42123C17.6453 8.01396 17.9531 8.67838 18.1072 9.37658C18.2216 9.89462 18.2498 10.4237 18.1918 10.9471" stroke="black" stroke-width="2" stroke-linecap="round" stroke-linejoin="round"/>
</svg>
