<svg width="24" height="24" viewBox="0 0 24 24" fill="none" xmlns="http://www.w3.org/2000/svg">
<path d="M5 16.9302C3.89339 16.2904 2.95619 15.3948 2.26692 14.3183C1.57764 13.2418 1.15635 12.0158 1.03832 10.743C0.920304 9.47025 1.10899 8.18771 1.58858 7.00284C2.06817 5.81797 2.8247 4.76528 3.79481 3.93292C4.76492 3.10057 5.92035 2.51279 7.16434 2.21883C8.40832 1.92486 9.70464 1.93326 10.9447 2.24332C12.1848 2.55339 13.3325 3.15609 14.2917 4.00095C15.251 4.8458 15.9938 5.90822 16.458 7.0992C17.8533 6.82338 19.3012 7.09882 20.4978 7.8677C21.6944 8.63658 22.5466 9.83911 22.8755 11.2229C23.2044 12.6066 22.9845 14.064 22.2619 15.2891C21.5393 16.5141 20.3702 17.4117 19 17.7932V15.6632C19.4622 15.4439 19.8707 15.1259 20.1967 14.7317C20.5227 14.3375 20.7584 13.8766 20.8871 13.3815C21.0157 12.8863 21.0343 12.369 20.9415 11.8659C20.8486 11.3629 20.6466 10.8863 20.3497 10.4697C20.0528 10.0531 19.6681 9.70666 19.2229 9.45477C18.7776 9.20289 18.2825 9.05168 17.7725 9.01178C17.2625 8.97189 16.7499 9.04428 16.2709 9.22386C15.7919 9.40344 15.3581 9.68585 15 10.0512V10.0002C15 8.99935 14.7497 8.0144 14.2718 7.13503C13.7939 6.25566 13.1036 5.50981 12.2638 4.96539C11.4239 4.42097 10.4613 4.09529 9.46341 4.01799C8.46556 3.94068 7.46422 4.11423 6.55057 4.52281C5.63693 4.93139 4.84 5.56203 4.23236 6.35731C3.62472 7.15259 3.22568 8.08723 3.07156 9.07614C2.91744 10.065 3.01315 11.0768 3.34997 12.0193C3.68679 12.9617 4.25401 13.805 5 14.4722V16.9302ZM7 14.0002H9V20.0002H7V14.0002ZM15 14.0002H17V20.0002H15V14.0002ZM11 17.0002H13V23.0002H11V17.0002Z" fill="black"/>
</svg>
