<svg width="24" height="24" viewBox="0 0 24 24" fill="none" xmlns="http://www.w3.org/2000/svg">
<path d="M8.67002 5.00694C9.32633 3.61857 10.421 2.48455 11.7853 1.77962C13.1496 1.07469 14.7079 0.837969 16.22 1.10594C15.9623 1.89582 15.9282 2.74164 16.1217 3.54968C16.3151 4.35772 16.7285 5.09642 17.316 5.68394C17.9035 6.27145 18.6422 6.68484 19.4503 6.87829C20.2583 7.07174 21.1041 7.0377 21.894 6.77994C21.964 7.17594 22 7.58394 22 7.99994C22.0018 9.17935 21.7041 10.3399 21.135 11.3729C21.9735 12.1115 22.567 13.088 22.8367 14.1723C23.1065 15.2567 23.0395 16.3974 22.6448 17.4428C22.2501 18.4881 21.5464 19.3884 20.6273 20.0239C19.7082 20.6594 18.6174 20.9998 17.5 20.9999H9.00002C6.90766 20.9987 4.89904 20.1779 3.40475 18.7133C1.91046 17.2486 1.04945 15.2569 1.00628 13.165C0.963117 11.0731 1.74124 9.04749 3.17384 7.52249C4.60644 5.99749 6.57949 5.09444 8.67002 5.00694ZM10.847 5.21394C12.1073 5.51424 13.2759 6.11552 14.253 6.96629C15.23 7.81706 15.9863 8.89196 16.457 10.0989C17.4476 9.9091 18.4712 9.99383 19.417 10.3439C19.643 9.91894 19.81 9.45894 19.905 8.97394C18.3928 8.83456 16.977 8.17023 15.9034 7.09621C14.8297 6.02218 14.1659 4.60622 14.027 3.09394C12.7282 3.35193 11.5847 4.11429 10.847 5.21394ZM17.5 18.9999C18.0771 18.9999 18.6451 18.8571 19.1537 18.5844C19.6622 18.3117 20.0954 17.9175 20.4147 17.4368C20.7341 16.9562 20.9296 16.4041 20.984 15.8296C21.0383 15.2551 20.9498 14.6761 20.7263 14.1442C20.5027 13.6122 20.1511 13.1437 19.7028 12.7805C19.2544 12.4172 18.7232 12.1704 18.1564 12.0621C17.5897 11.9538 17.0049 11.9873 16.4542 12.1597C15.9035 12.332 15.4039 12.6379 15 13.0499V12.9999C15 11.8132 14.6481 10.6532 13.9888 9.66652C13.3295 8.67982 12.3925 7.91079 11.2961 7.45666C10.1998 7.00254 8.99336 6.88372 7.82948 7.11523C6.66559 7.34674 5.59649 7.91818 4.75738 8.7573C3.91826 9.59641 3.34682 10.6655 3.11531 11.8294C2.8838 12.9933 3.00262 14.1997 3.45674 15.296C3.91087 16.3924 4.6799 17.3295 5.6666 17.9888C6.65329 18.648 7.81333 18.9999 9.00002 18.9999H17.5Z" fill="black"/>
</svg>
