<svg width="24" height="24" viewBox="0 0 24 24" fill="none" xmlns="http://www.w3.org/2000/svg">
<path d="M18.2019 9.98873C18.848 10.0346 19.4983 9.94017 20.1082 9.70944C20.8742 9.41969 21.5478 8.92587 22.0571 8.28065C22.5663 7.63543 22.8922 6.86302 23 6.04581C22.2971 6.58035 21.4305 6.84981 20.5508 6.80734C19.6712 6.76488 18.8341 6.41317 18.1851 5.81335C17.5361 5.21354 17.1162 4.40355 16.9985 3.52418C16.8807 2.64481 17.0725 1.75167 17.5405 1L17.3499 1.05147L17.3489 1.04756C16.5586 1.26112 15.8407 1.68682 15.2717 2.27925C14.7028 2.87167 14.3041 3.60861 14.1182 4.41144C14.0529 4.69329 14.0148 4.97955 14.0035 5.26635M18.2019 9.98873C18.1836 9.78366 18.152 9.57927 18.1072 9.37658C17.9531 8.67839 17.6453 8.01396 17.2015 7.42123C16.7578 6.8285 16.1867 6.31907 15.5209 5.92205C15.0508 5.64172 14.54 5.4213 14.0035 5.26635M18.2019 9.98873C18.2468 10.4901 18.2129 10.9955 18.1001 11.4904H19.189C20.1997 11.4904 21.1691 11.886 21.8838 12.5902C22.5985 13.2943 23 14.2494 23 15.2452C23 16.241 22.5985 17.1961 21.8838 17.9002C21.1691 18.6044 20.1997 19 19.189 19H6.12261C4.76401 19 3.46105 18.4914 2.50038 17.586C1.5397 16.6807 1 15.4528 1 14.1724C1 12.8921 1.5397 11.6641 2.50038 10.7588C3.46105 9.85345 4.76401 9.34483 6.12261 9.34483C6.44348 7.93644 7.38217 6.69876 8.73217 5.90406C9.40062 5.51057 10.1499 5.23768 10.9373 5.10096C11.7247 4.96425 12.5348 4.9664 13.3212 5.10728C13.5524 5.14869 13.7802 5.20185 14.0035 5.26635" stroke="black" stroke-width="2" stroke-linecap="round" stroke-linejoin="round"/>
</svg>
