<svg width="24" height="24" viewBox="0 0 24 24" fill="none" xmlns="http://www.w3.org/2000/svg">
<path d="M19 21H5M6.12261 17C4.76401 17 3.46105 16.4914 2.50038 15.586C1.5397 14.6807 1 13.4528 1 12.1724C1 10.8921 1.5397 9.66414 2.50038 8.7588C3.46105 7.85345 4.76401 7.34483 6.12261 7.34483C6.44348 5.93644 7.38217 4.69876 8.73217 3.90406C9.40062 3.51057 10.1499 3.23768 10.9373 3.10096C11.7247 2.96425 12.5348 2.9664 13.3212 3.10728C14.1077 3.24816 14.8551 3.52502 15.5209 3.92205C16.1867 4.31907 16.7578 4.8285 17.2015 5.42123C17.6453 6.01396 17.9531 6.67838 18.1072 7.37658C18.2614 8.07477 18.259 8.79306 18.1001 9.49042H19.189C20.1997 9.49042 21.1691 9.88601 21.8838 10.5902C22.5985 11.2943 23 12.2494 23 13.2452C23 14.241 22.5985 15.1961 21.8838 15.9002C21.1691 16.6044 20.1997 17 19.189 17H6.12261Z" stroke="black" stroke-width="2" stroke-linecap="round" stroke-linejoin="round"/>
</svg>
