<svg width="24" height="24" viewBox="0 0 24 24" fill="none" xmlns="http://www.w3.org/2000/svg">
<path d="M6.12261 19C4.76401 19 3.46105 18.4914 2.50038 17.586C1.5397 16.6807 1 15.4528 1 14.1724C1 12.8921 1.5397 11.6641 2.50038 10.7588C3.46105 9.85345 4.76401 9.34483 6.12261 9.34483C6.44348 7.93644 7.38217 6.69876 8.73217 5.90406C9.40062 5.51057 10.1499 5.23768 10.9373 5.10096C11.7247 4.96425 12.5348 4.9664 13.3212 5.10728C14.1077 5.24816 14.8551 5.52502 15.5209 5.92205C16.1867 6.31907 16.7578 6.8285 17.2015 7.42123C17.6453 8.01396 17.9531 8.67838 18.1072 9.37658C18.2614 10.0748 18.259 10.7931 18.1001 11.4904H19.189C20.1997 11.4904 21.1691 11.886 21.8838 12.5902C22.5985 13.2943 23 14.2494 23 15.2452C23 16.241 22.5985 17.1961 21.8838 17.9002C21.1691 18.6044 20.1997 19 19.189 19H6.12261Z" stroke="black" stroke-width="2" stroke-linecap="round" stroke-linejoin="round"/>
</svg>
