<svg width="24" height="24" viewBox="0 0 24 24" fill="none" xmlns="http://www.w3.org/2000/svg">
<path d="M13 13L11 17H14L12 21M18 18H19.189C20.1997 18 21.1691 17.6044 21.8838 16.9002C22.5985 16.1961 23 15.241 23 14.2452C23 13.2494 22.5985 12.2943 21.8838 11.5902C21.1691 10.886 20.1997 10.4904 19.189 10.4904H18.1001C18.259 9.79306 18.2614 9.07477 18.1072 8.37658C17.9531 7.67839 17.6453 7.01396 17.2015 6.42123C16.7578 5.8285 16.1867 5.31907 15.5209 4.92205C14.8551 4.52502 14.1077 4.24816 13.3212 4.10728C12.5348 3.9664 11.7247 3.96425 10.9373 4.10096C10.1499 4.23768 9.40062 4.51057 8.73217 4.90406C7.38217 5.69876 6.44348 6.93644 6.12261 8.34483C4.76401 8.34483 3.46105 8.85345 2.50038 9.7588C1.5397 10.6641 1 11.8921 1 13.1724C1 14.4528 1.5397 15.6807 2.50038 16.586C3.46105 17.4914 4.76401 18 6.12261 18H7" stroke="black" stroke-width="2" stroke-linecap="round" stroke-linejoin="round"/>
</svg>
