<svg width="24" height="24" viewBox="0 0 24 24" fill="none" xmlns="http://www.w3.org/2000/svg">
<path fill-rule="evenodd" clip-rule="evenodd" d="M12 4C9.29166 4 7 6.34197 7 9.35294C7 9.68688 7.02848 10.0129 7.08272 10.3284C7.17492 10.8649 6.82118 11.3765 6.28676 11.4797C4.45676 11.8331 3 13.5564 3 15.7059C3 18.1321 4.84394 20 7 20H17C19.1561 20 21 18.1321 21 15.7059C21 13.5564 19.5432 11.8331 17.7132 11.4797C17.4825 11.4351 17.2442 11.4118 17 11.4118C15.8373 11.4118 14.7792 11.9448 14.0382 12.8204L12.5115 11.5285C13.6015 10.2404 15.2027 9.41186 16.9997 9.41177C16.9999 9.39219 17 9.37258 17 9.35294C17 6.34197 14.7083 4 12 4ZM18.9891 9.76562C18.9963 9.62894 19 9.49135 19 9.35294C19 5.34665 15.9191 2 12 2C8.08092 2 5 5.34665 5 9.35294C5 9.49135 5.00365 9.62894 5.01086 9.76562C2.64878 10.634 1 12.9922 1 15.7059C1 19.1274 3.63321 22 7 22H17C20.3668 22 23 19.1274 23 15.7059C23 12.9922 21.3512 10.634 18.9891 9.76562Z" fill="black"/>
</svg>
