<svg width="24" height="24" viewBox="0 0 24 24" fill="none" xmlns="http://www.w3.org/2000/svg">
<path d="M9.98398 5.05977C10.3896 4.28719 10.9467 3.6042 11.622 3.05152C12.2973 2.49884 13.0769 2.08778 13.9144 1.84285C14.7519 1.59792 15.6302 1.52413 16.4969 1.62589C17.3635 1.72765 18.2008 2.00286 18.9588 2.43513C19.7168 2.8674 20.3801 3.44787 20.9089 4.14194C21.4378 4.836 21.8215 5.62946 22.0372 6.47499C22.2529 7.32052 22.2961 8.20083 22.1643 9.06342C22.0325 9.92601 21.7283 10.7532 21.27 11.4958C22.0721 12.2511 22.6288 13.23 22.8681 14.3055C23.1073 15.381 23.018 16.5036 22.6118 17.5278C22.2055 18.5519 21.501 19.4305 20.5896 20.0495C19.6781 20.6686 18.6018 20.9996 17.5 20.9998L8.99998 20.9988C7.9084 20.9979 6.82854 20.7737 5.82685 20.3399C4.82517 19.9061 3.92285 19.2719 3.17545 18.4764C2.42804 17.6808 1.85135 16.7407 1.48088 15.7139C1.11041 14.6871 0.953986 13.5954 1.02124 12.5059C1.0885 11.4164 1.37801 10.3521 1.87196 9.37871C2.36591 8.40528 3.05385 7.54323 3.89343 6.84563C4.73301 6.14802 5.70648 5.62962 6.75391 5.32232C7.80134 5.01502 8.90059 4.92533 9.98398 5.05877V5.05977ZM12.055 5.60377C13.0538 6.0178 13.9587 6.62938 14.7153 7.40181C15.472 8.17423 16.0647 9.09158 16.458 10.0988C17.5058 9.89793 18.5894 10.0046 19.578 10.4058C20.0415 9.41653 20.1294 8.29244 19.8252 7.24318C19.521 6.19393 18.8454 5.29117 17.9246 4.70332C17.0038 4.11548 15.9006 3.88268 14.8207 4.04836C13.7409 4.21404 12.7582 4.76689 12.056 5.60377H12.055ZM17.5 18.9998C18.077 18.9997 18.6451 18.8569 19.1536 18.5842C19.6621 18.3115 20.0954 17.9173 20.4147 17.4367C20.734 16.956 20.9296 16.4039 20.9839 15.8295C21.0383 15.255 20.9497 14.676 20.7262 14.144C20.5027 13.612 20.1511 13.1435 19.7028 12.7803C19.2544 12.417 18.7232 12.1703 18.1564 12.062C17.5896 11.9537 17.0049 11.9872 16.4542 12.1595C15.9035 12.3319 15.4039 12.6377 15 13.0498V12.9998C15 11.8131 14.6481 10.653 13.9888 9.66635C13.3295 8.67965 12.3924 7.91062 11.2961 7.45649C10.1997 7.00237 8.99333 6.88355 7.82944 7.11506C6.66555 7.34657 5.59646 7.91802 4.75734 8.75713C3.91823 9.59624 3.34678 10.6653 3.11527 11.8292C2.88376 12.9931 3.00258 14.1995 3.4567 15.2959C3.91083 16.3922 4.67987 17.3293 5.66656 17.9886C6.65325 18.6479 7.81329 18.9998 8.99998 18.9998H17.5Z" fill="black"/>
</svg>
