<svg width="24" height="24" viewBox="0 0 24 24" fill="none" xmlns="http://www.w3.org/2000/svg">
<path fill-rule="evenodd" clip-rule="evenodd" d="M19.8399 21.2542L21.2929 22.7071L22.7071 21.2929L2.70712 1.29291L1.29291 2.70712L5.42231 6.83652C5.1487 7.6245 5 8.4728 5 9.35294C5 9.49135 5.00365 9.62894 5.01086 9.76562C2.64878 10.634 1 12.9922 1 15.7059C1 19.1274 3.63321 22 7 22H17C18.0342 22 18.9992 21.7289 19.8399 21.2542ZM18.3377 19.7519L7.06559 8.4798C7.02247 8.76321 7 9.05479 7 9.35294C7 9.68688 7.02848 10.0129 7.08272 10.3284C7.17492 10.8649 6.82118 11.3765 6.28676 11.4797C4.45676 11.8331 3 13.5564 3 15.7059C3 18.1321 4.84394 20 7 20H17C17.4656 20 17.9166 19.9129 18.3377 19.7519Z" fill="black"/>
<path d="M23 15.7059C23 16.8254 22.7181 17.8861 22.2209 18.8067L20.7162 17.302C20.8988 16.8118 21 16.2742 21 15.7059C21 13.5564 19.5432 11.8331 17.7132 11.4797C17.4825 11.4351 17.2442 11.4118 17 11.4118C16.3775 11.4118 15.785 11.5645 15.2551 11.8409L13.7969 10.3827C14.7198 9.77048 15.8174 9.41183 16.9997 9.41177L17 9.35294C17 6.34197 14.7083 4 12 4C10.7611 4 9.60935 4.49008 8.7243 5.31008L7.30866 3.89445C8.54232 2.72106 10.1809 2 12 2C15.9191 2 19 5.34665 19 9.35294C19 9.49135 18.9963 9.62894 18.9891 9.76562C21.3512 10.634 23 12.9922 23 15.7059Z" fill="black"/>
</svg>
