<svg width="24" height="24" viewBox="0 0 24 24" fill="none" xmlns="http://www.w3.org/2000/svg">
<path d="M6.09718 10.4978C6.03334 10.1265 6 9.74383 6 9.35294C6 8.36424 6.21331 7.42828 6.59386 6.59386M6.09718 10.4978C3.7667 10.9478 2 13.1084 2 15.7059C2 18.6297 4.23858 21 7 21H17C18.111 21 19.1373 20.6163 19.9673 19.9673M6.09718 10.4978C6.39001 10.4413 6.69175 10.4118 7 10.4118M17.9028 10.4978C17.9667 10.1265 18 9.74383 18 9.35294C18 5.84431 15.3137 3 12 3C10.8688 3 9.81071 3.33146 8.90765 3.90765M17.9028 10.4978C17.61 10.4413 17.3083 10.4118 17 10.4118C16.5202 10.4118 16.0562 10.4833 15.6169 10.6169M17.9028 10.4978C20.2333 10.9478 22 13.1084 22 15.7059C22 16.1084 21.9576 16.5004 21.8772 16.8772M6.59386 6.59386L1 1M6.59386 6.59386L19.9673 19.9673M19.9673 19.9673L23 23" stroke="black" stroke-width="2" stroke-linecap="round" stroke-linejoin="round"/>
</svg>
