<svg width="24" height="24" viewBox="0 0 24 24" fill="none" xmlns="http://www.w3.org/2000/svg">
<path d="M16.5 13.2021L13 15.5351V19.1311L19.197 15.0001L16.5 13.2021ZM14.697 12.0001L12 10.2021L9.303 12.0001L12 13.7982L14.697 12.0001ZM20 10.8692L18.303 12.0001L20 13.1311V10.8701V10.8692ZM19.197 9.00015L13 4.86915V8.46515L16.5 10.7982L19.197 9.00015ZM7.5 10.7982L11 8.46515V4.86915L4.803 9.00015L7.5 10.7982ZM4.803 15.0001L11 19.1311V15.5351L7.5 13.2021L4.803 15.0001ZM4 13.1311L5.697 12.0001L4 10.8692V13.1311ZM2 9.00015C1.99998 8.83556 2.04058 8.6735 2.11821 8.52837C2.19583 8.38323 2.30808 8.2595 2.445 8.16815L11.445 2.16815C11.6093 2.05851 11.8025 2 12 2C12.1975 2 12.3907 2.05851 12.555 2.16815L21.555 8.16815C21.6919 8.2595 21.8042 8.38323 21.8818 8.52837C21.9594 8.6735 22 8.83556 22 9.00015V15.0001C22 15.1647 21.9594 15.3268 21.8818 15.4719C21.8042 15.6171 21.6919 15.7408 21.555 15.8321L12.555 21.8321C12.3907 21.9418 12.1975 22.0003 12 22.0003C11.8025 22.0003 11.6093 21.9418 11.445 21.8321L2.445 15.8321C2.30808 15.7408 2.19583 15.6171 2.11821 15.4719C2.04058 15.3268 1.99998 15.1647 2 15.0001V9.00015Z" fill="black"/>
</svg>
