<svg width="24" height="24" viewBox="0 0 24 24" fill="none" xmlns="http://www.w3.org/2000/svg">
<path fill-rule="evenodd" clip-rule="evenodd" d="M17.5 3.5C17.7652 3.5 18.0196 3.60536 18.2071 3.79289L20.2071 5.79289C20.5976 6.18342 20.5976 6.81658 20.2071 7.20711L17.4142 10L19.7071 12.2929L18.2929 13.7071L16.5 11.9142L7.70711 20.7071C7.51957 20.8947 7.26522 21 7 21H4C3.44772 21 3 20.5523 3 20V17C3 16.7348 3.10536 16.4804 3.29289 16.2929L12.0858 7.50001L10.2929 5.70712L11.7071 4.29291L14 6.58579L16.7929 3.79289C16.9804 3.60536 17.2348 3.5 17.5 3.5ZM5.41421 17L13.5 8.91423L15.0858 10.5L7 18.5858L5.41421 17Z" fill="black"/>
</svg>
