<svg width="24" height="24" viewBox="0 0 24 24" fill="none" xmlns="http://www.w3.org/2000/svg">
<path fill-rule="evenodd" clip-rule="evenodd" d="M10.8706 4.12602C9.14534 4.57006 7.87056 6.13616 7.87056 8C7.87056 9.10266 8.31673 10.1011 9.03838 10.8247L3 21.5079L4.74113 22.4921L10.7597 11.8437C11.1124 11.9455 11.4851 12 11.8706 12C12.256 12 12.6287 11.9455 12.9814 11.8437L19 22.4921L20.7411 21.5079L14.7027 10.8247C15.4244 10.1011 15.8706 9.10266 15.8706 8C15.8706 6.13616 14.5958 4.57006 12.8706 4.12602V2H10.8706V4.12602ZM11.8706 6C10.766 6 9.87056 6.89543 9.87056 8C9.87056 9.10457 10.766 10 11.8706 10C12.9751 10 13.8706 9.10457 13.8706 8C13.8706 6.89543 12.9751 6 11.8706 6Z" fill="black"/>
</svg>
