<svg width="24" height="24" viewBox="0 0 24 24" fill="none" xmlns="http://www.w3.org/2000/svg">
<path fill-rule="evenodd" clip-rule="evenodd" d="M15.79 2.01312C15.9187 1.78222 16.1336 1.61167 16.3877 1.53877C16.6418 1.46588 16.9144 1.49656 17.146 1.62412L21.983 4.29012C22.0983 4.35377 22.1999 4.43958 22.282 4.54263C22.3641 4.64567 22.425 4.76391 22.4612 4.89057C22.4975 5.01722 22.5083 5.14979 22.4932 5.28065C22.4781 5.41152 22.4372 5.5381 22.373 5.65312L20.765 8.53812C19.7176 10.4211 18.0085 11.8482 15.969 12.5431L21.886 15.8041C22.0014 15.8677 22.1031 15.9534 22.1853 16.0564C22.2675 16.1594 22.3285 16.2777 22.3648 16.4043C22.4012 16.531 22.4121 16.6636 22.397 16.7945C22.382 16.9254 22.3412 17.052 22.277 17.1671L19.597 21.9771C19.4681 22.2081 19.2529 22.3787 18.9986 22.4514C18.7443 22.5241 18.4715 22.4931 18.24 22.3651L11.47 18.6331C11.1885 18.4772 10.8568 18.4391 10.5473 18.5269C10.2377 18.6148 9.97556 18.8216 9.81798 19.1021L8.20998 21.9861C8.08127 22.217 7.86636 22.3876 7.61226 22.4605C7.35815 22.5334 7.08552 22.5027 6.85398 22.3751L2.01698 19.7101C1.90164 19.6465 1.80001 19.5607 1.71793 19.4576C1.63585 19.3546 1.57494 19.2363 1.5387 19.1097C1.50246 18.983 1.49161 18.8505 1.50676 18.7196C1.5219 18.5887 1.56276 18.4621 1.62698 18.3471L3.23498 15.4621C4.2824 13.5792 5.99143 12.152 8.03098 11.4571L2.11398 8.19612C1.99855 8.13256 1.89683 8.04681 1.81465 7.94381C1.73247 7.8408 1.67146 7.72257 1.63513 7.59591C1.59879 7.46925 1.58785 7.33665 1.60292 7.20575C1.618 7.07484 1.6588 6.94821 1.72298 6.83312L4.40298 2.02312C4.53186 1.79212 4.74702 1.62159 5.00135 1.54887C5.25568 1.47615 5.52846 1.50717 5.75998 1.63512L12.531 5.36712C13.12 5.69212 13.859 5.47712 14.181 4.89912L15.791 2.01312H15.79ZM17.053 3.85612L15.929 5.87212C15.5138 6.614 14.822 7.1615 14.0046 7.39513C13.1871 7.62876 12.3105 7.52953 11.566 7.11912L5.66598 3.86712L3.95998 6.92912L9.85098 10.1761C13.111 11.9731 17.216 10.7991 19.019 7.56412L20.139 5.55612L17.054 3.85612H17.053ZM14.15 13.8241C10.89 12.0271 6.78498 13.2011 4.98198 16.4361L3.86198 18.4441L6.94798 20.1441L8.07198 18.1281C8.48697 17.3861 9.17878 16.8384 9.99627 16.6047C10.8138 16.3711 11.6905 16.4704 12.435 16.8811L18.334 20.1331L20.041 17.0711L14.15 13.8241Z" fill="black"/>
</svg>
