<svg width="24" height="24" viewBox="0 0 24 24" fill="none" xmlns="http://www.w3.org/2000/svg">
<path d="M9.42 4.40008C8.11954 4.83699 6.95329 5.60098 6.03329 6.61866C5.11329 7.63634 4.47045 8.87351 4.16654 10.2113C3.86263 11.5491 3.90785 12.9426 4.29787 14.2579C4.68788 15.5731 5.40958 16.766 6.39363 17.7219C7.37768 18.6778 8.59102 19.3646 9.91707 19.7162C11.2431 20.0679 12.6373 20.0727 13.9657 19.73C15.2941 19.3874 16.5121 18.7089 17.5027 17.7598C18.4932 16.8106 19.223 15.6227 19.622 14.3101C16.222 15.7701 12.374 16.2901 8.077 15.8751C7.366 11.7491 7.813 7.92508 9.42 4.40008ZM11.868 3.98608C11.2031 5.17526 10.6853 6.44088 10.326 7.75508C11.8732 7.78592 13.3482 8.41535 14.441 9.51108C15.4746 10.5418 16.0953 11.9152 16.186 13.3721C17.516 13.0311 18.775 12.5521 19.966 11.9391C19.9607 10.8839 19.7465 9.84029 19.3359 8.86832C18.9252 7.89635 18.3262 7.01529 17.5734 6.27596C16.8206 5.53662 15.9289 4.95364 14.9496 4.56062C13.9704 4.16761 12.9231 3.97234 11.868 3.98608ZM4.895 19.0571C0.989998 15.1521 0.989998 8.82008 4.895 4.91508C8.8 1.01008 15.132 1.01008 19.037 4.91508C22.942 8.82008 22.942 15.1521 19.037 19.0571C15.132 22.9621 8.8 22.9621 4.895 19.0571ZM9.915 9.76408C9.72248 11.1658 9.69697 12.5854 9.839 13.9931C11.296 14.0573 12.7558 13.9836 14.199 13.7731C14.2022 13.2444 14.1002 12.7203 13.899 12.2314C13.6978 11.7424 13.4014 11.2984 13.027 10.9251C12.6221 10.5194 12.1346 10.2057 11.5975 10.0054C11.0605 9.80502 10.4867 9.72272 9.915 9.76408Z" fill="black"/>
</svg>
