<svg width="24" height="24" viewBox="0 0 24 24" fill="none" xmlns="http://www.w3.org/2000/svg">
<path fill-rule="evenodd" clip-rule="evenodd" d="M8.7047 3.56559C9.05133 3.47271 9.42115 3.57269 9.67377 3.82757L14.9407 9.1416L19.2098 7.9977C19.9783 7.79177 20.7972 7.89958 21.4862 8.2974C22.1753 8.69523 22.6781 9.35048 22.884 10.119C23.0899 10.8876 22.9821 11.7064 22.5843 12.3955C22.1865 13.0845 21.5312 13.5873 20.7627 13.7933L6.2738 17.6755C5.90793 17.7736 5.51808 17.6565 5.26678 17.3731L0.816084 12.354C0.58614 12.0947 0.506858 11.7348 0.606552 11.4029C0.706246 11.0709 0.970699 10.8143 1.30547 10.7246L4.20325 9.94814C4.45942 9.87949 4.73238 9.91543 4.96206 10.048L7.05283 11.2551L8.26996 10.929L5.20809 5.8222C5.04673 5.55307 5.02105 5.22381 5.13874 4.93293C5.25643 4.64204 5.50383 4.42326 5.80693 4.34205L8.7047 3.56559ZM7.60512 5.93078L10.667 11.0376C10.8283 11.3067 10.854 11.636 10.7363 11.9269C10.6186 12.2178 10.3712 12.4365 10.0681 12.5177L7.17037 13.2942C6.91419 13.3628 6.64124 13.3269 6.41155 13.1943L4.32078 11.9872L3.38601 12.2377L6.35313 15.5837L20.245 11.8614C20.5012 11.7928 20.7196 11.6252 20.8523 11.3955C20.9849 11.1658 21.0208 10.8928 20.9522 10.6367C20.8835 10.3805 20.7159 10.1621 20.4862 10.0295C20.2565 9.89684 19.9836 9.86091 19.7274 9.92955L14.8978 11.2236C14.5511 11.3165 14.1813 11.2166 13.9287 10.9617L8.66179 5.64764L7.60512 5.93078ZM2 21.0001C2 20.4478 2.44772 20.0001 3 20.0001H21C21.5523 20.0001 22 20.4478 22 21.0001C22 21.5524 21.5523 22.0001 21 22.0001H3C2.44772 22.0001 2 21.5524 2 21.0001Z" fill="black"/>
</svg>
