<svg width="24" height="24" viewBox="0 0 24 24" fill="none" xmlns="http://www.w3.org/2000/svg">
<path fill-rule="evenodd" clip-rule="evenodd" d="M4.46714 3.50031C4.64572 3.19074 4.97595 3 5.33334 3H18.6667C19.0241 3 19.3543 3.19074 19.5329 3.50031L22.8662 9.27866C23.0785 9.64659 23.0351 10.1085 22.7581 10.4305L13.3137 21.4093C13.3038 21.4207 13.2938 21.4319 13.2835 21.4429C13.1199 21.6165 12.9226 21.7566 12.7018 21.8531C12.4809 21.9497 12.2422 22 12 22C11.7578 22 11.5191 21.9497 11.2982 21.8531C11.0774 21.7566 10.8801 21.6165 10.7166 21.4429C10.7062 21.4319 10.6962 21.4207 10.6864 21.4093L1.24191 10.4305C0.964904 10.1085 0.921552 9.64659 1.1338 9.27866L4.46714 3.50031ZM5.91094 5L3.22056 9.66378L12 19.8696L20.7795 9.66378L18.0891 5H5.91094ZM8.72192 7.52533C9.20031 7.8013 9.36441 8.41283 9.08844 8.89123L8.77908 9.42751L10.5307 11.4316C10.8942 11.8474 10.8517 12.4792 10.4359 12.8426C10.02 13.2061 9.38831 13.1636 9.02485 12.7478L6.80263 10.2053C6.52119 9.8833 6.47566 9.41797 6.68936 9.04752L7.35603 7.89185C7.63199 7.41346 8.24353 7.24936 8.72192 7.52533Z" fill="black"/>
</svg>
