<svg width="24" height="24" viewBox="0 0 24 24" fill="none" xmlns="http://www.w3.org/2000/svg">
<path fill-rule="evenodd" clip-rule="evenodd" d="M12 1C12.5523 1 13 1.44772 13 2V3.10526H19C19.2741 3.10526 19.5362 3.21778 19.725 3.41651L21.725 5.52178C22.0917 5.90774 22.0917 6.51331 21.725 6.89928L19.725 9.00454C19.5362 9.20327 19.2741 9.31579 19 9.31579H13V11.5263C13.5475 11.5263 14.0615 11.7557 14.4321 12.1459C14.8011 12.5343 15 13.0506 15 13.5789V15.6842C15 16.2125 14.8011 16.7289 14.4321 17.1173C14.0615 17.5074 13.5475 17.7368 13 17.7368V22C13 22.5523 12.5523 23 12 23C11.4477 23 11 22.5523 11 22V17.7368H6C5.72589 17.7368 5.46379 17.6243 5.275 17.4256L3.275 15.3203C2.90833 14.9344 2.90833 14.3288 3.275 13.9428L5.275 11.8376C5.46379 11.6388 5.72589 11.5263 6 11.5263H11V9.31579H9C8.45253 9.31579 7.93854 9.08639 7.56789 8.69623C7.1989 8.30781 7 7.79147 7 7.26316V5.1579C7 4.62958 7.1989 4.11324 7.56789 3.72482C7.93854 3.33466 8.45253 3.10526 9 3.10526H11V2C11 1.44772 11.4477 1 12 1ZM9.01542 5.10526C9.00908 5.1136 9 5.13156 9 5.1579V7.26316C9 7.28949 9.00908 7.30745 9.01542 7.31579H18.5707L19.6207 6.21053L18.5707 5.10526H9.01542ZM6.42931 13.5263L5.37931 14.6316L6.42931 15.7368H12.9846C12.9909 15.7285 13 15.7105 13 15.6842V13.5789C13 13.5526 12.9909 13.5347 12.9846 13.5263H6.42931Z" fill="black"/>
</svg>
