<svg width="24" height="24" viewBox="0 0 24 24" fill="none" xmlns="http://www.w3.org/2000/svg">
<path fill-rule="evenodd" clip-rule="evenodd" d="M1 3C1 2.44772 1.44772 2 2 2H19V4H3V15H1V3ZM5 7C5 6.44772 5.44772 6 6 6H22C22.5523 6 23 6.44772 23 7V18C23 18.5523 22.5523 19 22 19H16.5352L14.8321 21.5547C14.6466 21.8329 14.3344 22 14 22C13.6656 22 13.3534 21.8329 13.1679 21.5547L11.4648 19H6C5.44772 19 5 18.5523 5 18V7ZM7 8V17H12C12.3344 17 12.6466 17.1671 12.8321 17.4453L14 19.1972L15.1679 17.4453C15.3534 17.1671 15.6656 17 16 17H21V8H7Z" fill="black"/>
</svg>
