<svg width="24" height="24" viewBox="0 0 24 24" fill="none" xmlns="http://www.w3.org/2000/svg">
<path d="M9.5 7.99997C8.67158 7.99997 8 8.67155 8 9.49997C8 10.3284 8.67158 11 9.5 11C10.3284 11 11 10.3284 11 9.49997C11 8.67155 10.3284 7.99997 9.5 7.99997Z" fill="black"/>
<path d="M15.7071 8.29287C15.3166 7.90234 14.6834 7.90234 14.2929 8.29287L8.2929 14.2929C7.90237 14.6834 7.90237 15.3166 8.2929 15.7071C8.68342 16.0976 9.31659 16.0976 9.70711 15.7071L15.7071 9.70708C16.0976 9.31656 16.0976 8.68339 15.7071 8.29287Z" fill="black"/>
<path d="M14.5 13C13.6716 13 13 13.6715 13 14.5C13 15.3284 13.6716 16 14.5 16C15.3284 16 16 15.3284 16 14.5C16 13.6715 15.3284 13 14.5 13Z" fill="black"/>
<path fill-rule="evenodd" clip-rule="evenodd" d="M12.01 2.01123C11.5883 2.01123 11.1707 2.0946 10.7813 2.25654C10.3924 2.41827 10.0392 2.65518 9.74207 2.95369L9.74091 2.95486L9.04489 3.65088L9.04402 3.65174C8.81949 3.87456 8.51605 3.99972 8.19969 3.99997H7.2C6.35131 3.99997 5.53738 4.33712 4.93726 4.93723C4.33715 5.53735 4 6.35128 4 7.19997V8.19966C3.99975 8.51602 3.87459 8.81946 3.65177 9.04399L3.65091 9.04486L2.95489 9.74088L2.95372 9.74204C2.65522 10.0392 2.4183 10.3923 2.25657 10.7812C2.09463 11.1706 2.01126 11.5882 2.01126 12.01C2.01126 12.4317 2.09463 12.8493 2.25657 13.2387C2.41832 13.6277 2.65527 13.9808 2.95382 14.278L2.95489 14.2791L3.65091 14.9751L3.65177 14.976C3.87459 15.2005 3.99975 15.5039 4 15.8203V16.82C4 17.6687 4.33715 18.4826 4.93726 19.0827C5.53738 19.6828 6.35131 20.02 7.2 20.02H8.19943C8.51597 20.0202 8.82027 20.1461 9.04489 20.3691L9.74091 21.0651L9.74202 21.0662C10.0392 21.3647 10.3923 21.6017 10.7813 21.7634C11.1707 21.9253 11.5883 22.0087 12.01 22.0087C12.4318 22.0087 12.8493 21.9253 13.2387 21.7634C13.6276 21.6017 13.9807 21.3649 14.2778 21.0664L14.2791 21.0651L14.9751 20.3691L14.976 20.3682C15.2006 20.1453 15.5041 20.0202 15.8206 20.02H16.82C17.6687 20.02 18.4826 19.6828 19.0827 19.0827C19.6829 18.4826 20.02 17.6687 20.02 16.82V15.8205C20.0202 15.5041 20.1454 15.2005 20.3682 14.976L20.3691 14.9751L21.0651 14.2791L21.0665 14.2777C21.3649 13.9806 21.6017 13.6275 21.7634 13.2387C21.9254 12.8493 22.0087 12.4317 22.0087 12.01C22.0087 11.5882 21.9254 11.1706 21.7634 10.7812C21.6017 10.3923 21.3648 10.0391 21.0662 9.74199L21.0651 9.74088L20.3684 9.04418C20.1454 8.81957 20.0202 8.51594 20.02 8.1994V7.19997C20.02 6.35128 19.6829 5.53735 19.0827 4.93723C18.4826 4.33711 17.6687 3.99997 16.82 3.99997H15.8203C15.504 3.99972 15.2005 3.87456 14.976 3.65174L14.9751 3.65088L14.2791 2.95486L14.278 2.95379C13.9809 2.65524 13.6277 2.41829 13.2387 2.25654C12.8493 2.0946 12.4317 2.01123 12.01 2.01123ZM11.5492 4.10322C11.6953 4.04249 11.8518 4.01123 12.01 4.01123C12.1682 4.01123 12.3247 4.04249 12.4708 4.10322C12.6168 4.16395 12.7494 4.25294 12.8609 4.36509L12.8629 4.36708L13.5629 5.06708L13.5649 5.06906C14.164 5.66485 14.9751 5.99949 15.82 5.99997H16.82C17.1383 5.99997 17.4435 6.1264 17.6685 6.35145C17.8936 6.57649 18.02 6.88171 18.02 7.19997V8.20054C18.0205 9.04549 18.3551 9.85595 18.9509 10.4551L18.9529 10.4571L19.6529 11.1571L19.6549 11.1591C19.767 11.2706 19.856 11.4032 19.9168 11.5492C19.9775 11.6952 20.0087 11.8518 20.0087 12.01C20.0087 12.1681 19.9775 12.3247 19.9168 12.4707C19.856 12.6168 19.767 12.7494 19.6549 12.8609L19.6529 12.8629L18.9529 13.5629L18.9509 13.5649C18.3551 14.164 18.0205 14.975 18.02 15.82V16.82C18.02 17.1382 17.8936 17.4435 17.6685 17.6685C17.4435 17.8935 17.1383 18.02 16.82 18.02H15.8194C14.9745 18.0205 14.164 18.3551 13.5649 18.9509L13.5629 18.9529L12.8629 19.6529L12.8609 19.6549C12.7494 19.767 12.6168 19.856 12.4708 19.9167C12.3247 19.9775 12.1682 20.0087 12.01 20.0087C11.8519 20.0087 11.6953 19.9775 11.5492 19.9167C11.4032 19.856 11.2706 19.767 11.1591 19.6549L10.4571 18.9529L10.4551 18.9509C9.85598 18.3551 9.04495 18.0205 8.2 18.02H7.2C6.88174 18.02 6.57652 17.8935 6.35148 17.6685C6.12643 17.4435 6 17.1382 6 16.82L6 15.8194C5.99952 14.9745 5.66488 14.164 5.0691 13.5649L4.36711 12.8629L4.36512 12.8609C4.25298 12.7494 4.16398 12.6168 4.10325 12.4707C4.04252 12.3247 4.01126 12.1681 4.01126 12.01C4.01126 11.8518 4.04252 11.6952 4.10325 11.5492C4.16398 11.4032 4.25297 11.2706 4.36512 11.1591L4.36711 11.1571L5.06711 10.4571L5.06909 10.4551C5.66488 9.85595 5.99952 9.04492 6 8.19997V7.19997C6 6.88171 6.12643 6.57649 6.35148 6.35145C6.57652 6.1264 6.88174 5.99997 7.2 5.99997L8.20057 5.99997C9.04552 5.99949 9.85598 5.66485 10.4551 5.06906L10.4571 5.06708L11.1571 4.36708L11.1591 4.36509C11.2706 4.25294 11.4032 4.16395 11.5492 4.10322Z" fill="black"/>
</svg>
