<svg width="24" height="24" viewBox="0 0 24 24" fill="none" xmlns="http://www.w3.org/2000/svg">
<path d="M20.3383 12.6562C20.8834 12.1141 21.3122 11.464 21.5978 10.7465C21.8833 10.0289 22.0195 9.25947 21.9978 8.48622C21.976 7.71297 21.7969 6.95258 21.4715 6.25264C21.1461 5.55271 20.6815 4.92829 20.1068 4.41848C19.5321 3.90867 18.8596 3.52443 18.1314 3.28982C17.4032 3.0552 16.635 2.97527 15.875 3.055C15.1149 3.13474 14.3792 3.37244 13.714 3.75323C13.0489 4.13401 12.4685 4.64968 12.0093 5.26797C11.552 4.64516 10.9723 4.12494 10.3067 3.74008C9.64104 3.35521 8.9039 3.11402 8.14167 3.03171C8.10111 3.02733 8.06053 3.02341 8.01994 3.01994M1 1L4.16631 4.16631M4.16631 4.16631C4.07372 4.23844 3.98326 4.31362 3.89511 4.39174C3.31835 4.90289 2.85239 5.52938 2.52656 6.23178C2.20074 6.93418 2.02211 7.69727 2.00193 8.47298C1.98174 9.2487 2.12044 10.0202 2.40928 10.739C2.69813 11.4578 3.13086 12.1083 3.68024 12.6495L12.0093 21L16.4988 16.4988M4.16631 4.16631L16.4988 16.4988M20.3383 12.6495L18.9956 13.9956M16.4988 16.4988L23 23" stroke="black" stroke-width="2" stroke-linecap="round" stroke-linejoin="round"/>
</svg>
