<svg width="24" height="24" viewBox="0 0 24 24" fill="none" xmlns="http://www.w3.org/2000/svg">
<path fill-rule="evenodd" clip-rule="evenodd" d="M16.032 17.4463L21.2929 22.7072L22.7071 21.293L2.70711 1.29297L1.29289 2.70718L3.55486 4.96915C1.49321 7.24002 1.48162 10.7093 3.52101 12.993L11.999 21.485L16.032 17.4463ZM14.618 16.0323L4.97233 6.38662C3.67816 7.88319 3.67119 10.1207 4.98001 11.623L12 18.654L14.618 16.0323Z" fill="black"/>
<path d="M20.479 12.993L18.4445 15.0304L17.0305 13.6163L19.02 11.624C20.394 10.047 20.319 7.66498 18.827 6.16998C17.327 4.66798 14.907 4.60698 13.337 6.01698L12.002 7.21498L10.666 6.01798C10.0234 5.44192 9.24106 5.11119 8.43777 5.02364L6.58288 3.16875C8.44755 2.71762 10.4862 3.17103 12.001 4.52898C14.35 2.41998 17.98 2.48998 20.243 4.75698C22.505 7.02498 22.583 10.637 20.479 12.993Z" fill="black"/>
</svg>
