<svg width="24" height="24" viewBox="0 0 24 24" fill="none" xmlns="http://www.w3.org/2000/svg">
<path d="M8.64597 17.2598L12.038 19.4218L15.43 17.2608L17.29 18.4458L12.038 21.7918L6.78597 18.4458L8.64597 17.2608V17.2598ZM7.76897 8.97984L10.162 7.42684L7.73697 5.85284L5.27997 7.36984L7.76997 8.97984H7.76897ZM9.60897 10.1698L12 11.7188L14.39 10.1718L12 8.61884L9.60897 10.1708V10.1698ZM13.84 12.9098L16.264 14.4778L18.714 12.9758L16.229 11.3638L13.84 12.9088V12.9098ZM12 6.23384L16.237 3.48584L22.46 7.32984L18.068 10.1728L22.461 13.0228L16.235 16.8418L12 14.0998L7.76497 16.8398L1.53497 13.0228L5.93097 10.1718L1.53897 7.32984L7.76297 3.48684L12 6.23484V6.23384ZM13.837 7.42584L16.23 8.97984L18.719 7.36984L16.263 5.85284L13.837 7.42684V7.42584ZM10.16 12.9098L7.76997 11.3638L5.28397 12.9768L7.73497 14.4788L10.16 12.9098Z" fill="black"/>
</svg>
