<svg width="24" height="24" viewBox="0 0 24 24" fill="none" xmlns="http://www.w3.org/2000/svg">
<path fill-rule="evenodd" clip-rule="evenodd" d="M17.8726 19.2868L21.2929 22.7071L22.7071 21.2929L2.70712 1.29291L1.29291 2.70712L6.24992 7.66413C5.16061 8.85435 4.42979 10.3522 4.13995 11.9689C3.84888 13.5923 4.01379 15.2719 4.61637 16.7993C5.21908 18.3271 6.23575 19.6413 7.54815 20.5702C8.86142 21.4997 10.4102 22 12 22C13.5898 22 15.1386 21.4997 16.4518 20.5702C16.9749 20.2 17.451 19.7686 17.8726 19.2868ZM16.4543 17.8685L7.66596 9.08017C6.8718 9.97289 6.32818 11.0968 6.10856 12.3218C5.88251 13.5826 6.01145 14.8857 6.47683 16.0654C6.94207 17.2447 7.71992 18.2415 8.70359 18.9377C9.68639 19.6334 10.833 20 12 20C13.167 20 14.3136 19.6334 15.2964 18.9377C15.7242 18.6349 16.1131 18.2753 16.4543 17.8685Z" fill="black"/>
<path d="M19.86 11.9689C20.1126 13.3775 20.0219 14.8284 19.5998 16.1856L17.9314 14.5172C18.0341 13.7926 18.022 13.0501 17.8914 12.3218C17.6657 11.0628 17.0978 9.91059 16.2673 9.00639L12 4.46101L10.0027 6.58846L8.58774 5.17353L11.2709 2.31554C11.46 2.11421 11.7238 2 12 2C12.2762 2 12.54 2.11421 12.7291 2.31554L17.736 7.64873C18.8331 8.8414 19.569 10.3453 19.86 11.9689Z" fill="black"/>
</svg>
