<svg width="24" height="24" viewBox="0 0 24 24" fill="none" xmlns="http://www.w3.org/2000/svg">
<path fill-rule="evenodd" clip-rule="evenodd" d="M14.6013 4.21225C13.7099 3.9654 12.7734 3.92798 11.8652 4.10292C10.9569 4.27787 10.1014 4.66043 9.36545 5.22073C8.62951 5.78104 8.03307 6.5039 7.62273 7.33286C7.2124 8.16182 6.99927 9.07442 7 9.99938C7.00044 10.5517 6.55308 10.9997 6.00079 11.0002C5.44851 11.0006 5.00044 10.5533 5 10.001C4.99903 8.76769 5.2832 7.55088 5.83031 6.4456C6.37743 5.34032 7.17268 4.3765 8.15394 3.62944C9.1352 2.88237 10.2759 2.37228 11.4869 2.13902C12.6979 1.90576 13.9465 1.95565 15.135 2.28479C16.3236 2.61393 17.4199 3.2134 18.3385 4.03638C19.257 4.85935 19.9728 5.88355 20.43 7.02896C20.8872 8.17437 21.0734 9.40997 20.974 10.6392C20.8746 11.8685 20.4924 13.0582 19.8571 14.1153C19.8396 14.1445 19.8205 14.1729 19.8 14.2002C19.1865 15.0182 18.4619 15.7467 17.6473 16.3645C16.8904 17.0883 16.3054 17.9728 15.9357 18.9531C15.9208 18.9924 15.9035 19.0308 15.8839 19.0679C15.5046 19.7846 14.9715 20.4086 14.3228 20.8952C13.6742 21.3818 12.9259 21.7189 12.1316 21.8825C11.3374 22.046 10.5168 22.0318 9.72868 21.8411C8.94054 21.6503 8.20432 21.2876 7.57277 20.779C7.14263 20.4326 7.07476 19.8031 7.42117 19.3729C7.76758 18.9428 8.3971 18.8749 8.82724 19.2213C9.22914 19.545 9.69763 19.7758 10.1992 19.8972C10.7007 20.0186 11.2229 20.0276 11.7283 19.9235C12.2338 19.8195 12.7099 19.6049 13.1227 19.2953C13.5203 18.9971 13.8495 18.6178 14.0889 18.1829C14.5736 16.927 15.334 15.7956 16.3144 14.8722C16.3415 14.8466 16.3701 14.8226 16.4 14.8002C17.0684 14.2989 17.6637 13.707 18.1688 13.0416C18.6297 12.2597 18.9073 11.3832 18.9805 10.4781C19.055 9.55613 18.9154 8.62943 18.5725 7.77038C18.2296 6.91132 17.6927 6.14317 17.0038 5.52594C16.315 4.90871 15.4927 4.4591 14.6013 4.21225ZM13.8053 8.13367C13.499 7.99891 13.1638 7.94314 12.8304 7.97149C12.497 7.99983 12.176 8.11138 11.8969 8.29591C11.6177 8.48044 11.3893 8.73206 11.2326 9.02772C11.0759 9.32337 10.9959 9.65363 10.9999 9.98822C11.0065 10.5405 10.5642 10.9935 10.012 11.0001C9.45972 11.0067 9.00668 10.5644 9.00007 10.0121C8.99207 9.34295 9.1521 8.68245 9.46549 8.09113C9.77889 7.49981 10.2356 6.99658 10.7939 6.62752C11.3522 6.25846 11.9941 6.03537 12.661 5.97868C13.3278 5.92199 13.9982 6.03351 14.6107 6.30304C15.2233 6.57257 15.7584 6.99148 16.1672 7.52141C16.5759 8.05134 16.8451 8.67534 16.9502 9.33628C17.0553 9.99721 16.9928 10.6739 16.7686 11.3045C16.5444 11.935 16.1655 12.4993 15.6667 12.9455C15.2551 13.3137 14.6229 13.2785 14.2547 12.8669C13.8865 12.4553 13.9216 11.8231 14.3333 11.4549C14.5827 11.2318 14.7721 10.9497 14.8842 10.6344C14.9963 10.3191 15.0275 9.98075 14.975 9.65029C14.9224 9.31982 14.7878 9.00782 14.5835 8.74285C14.3791 8.47789 14.1115 8.26843 13.8053 8.13367Z" fill="black"/>
</svg>
