<svg width="24" height="24" viewBox="0 0 24 24" fill="none" xmlns="http://www.w3.org/2000/svg">
<path d="M5 9.78359C4.99915 8.58462 5.2478 7.40167 5.72652 6.32714C6.20525 5.25261 6.9011 4.31561 7.7597 3.58932C8.6183 2.86304 9.6164 2.36714 10.676 2.14038C11.7357 1.91361 12.8282 1.96211 13.8682 2.28209C14.9081 2.60207 15.8674 3.18486 16.6712 3.98494C17.4749 4.78502 18.1012 5.78073 18.5012 6.89427C18.9013 8.00781 19.0642 9.20903 18.9772 10.4041C18.8903 11.5992 18.5558 12.7557 18 13.7834C17.4315 14.6257 16.7581 15.3738 16 16.0055C15.1137 16.933 14.4297 18.073 14 19.3387C13.6897 19.9903 13.2535 20.5575 12.7228 20.9998C12.192 21.4422 11.5798 21.7486 10.93 21.8973C10.2802 22.0459 9.60878 22.0331 8.96393 21.8597C8.31908 21.6863 7.71673 21.3566 7.2 20.8942M8.99997 9.78358C8.99397 9.22595 9.11399 8.67556 9.34904 8.18281C9.58408 7.69007 9.92665 7.27073 10.3454 6.96319C10.7641 6.65565 11.2455 6.46975 11.7456 6.42251C12.2458 6.37528 12.7486 6.46821 13.208 6.6928C13.6674 6.9174 14.0688 7.26648 14.3753 7.70806C14.6818 8.14965 14.8837 8.66964 14.9626 9.22039C15.0414 9.77114 14.9945 10.3351 14.8264 10.8605C14.6582 11.3859 14.3741 11.8561 14 12.2279" stroke="black" stroke-width="2" stroke-linecap="round" stroke-linejoin="round"/>
</svg>
