<svg width="24" height="24" viewBox="0 0 24 24" fill="none" xmlns="http://www.w3.org/2000/svg">
<path d="M11 5C11 6.10457 10.1046 7 9 7C7.89543 7 7 6.10457 7 5M11 5C11 3.89543 10.1046 3 9 3C7.89543 3 7 3.89543 7 5M11 5H21M7 5H3M11 19C11 20.1046 10.1046 21 9 21C7.89543 21 7 20.1046 7 19M11 19C11 17.8954 10.1046 17 9 17C7.89543 17 7 17.8954 7 19M11 19H21M7 19H3M17 12C17 13.1046 16.1046 14 15 14C13.8954 14 13 13.1046 13 12M17 12C17 10.8954 16.1046 10 15 10C13.8954 10 13 10.8954 13 12M17 12H21M13 12H3" stroke="black" stroke-width="2" stroke-linecap="round" stroke-linejoin="round"/>
</svg>
