<svg width="24" height="24" viewBox="0 0 24 24" fill="none" xmlns="http://www.w3.org/2000/svg">
<path fill-rule="evenodd" clip-rule="evenodd" d="M14.5927 5.01907C14.5925 5.01918 14.5928 5.01897 14.5927 5.01907L12.9823 6.56814L18.2267 11.8124L19.9963 10.1101L14.7041 5.01907C14.704 5.01897 14.7042 5.01918 14.7041 5.01907C14.6954 5.011 14.6759 5 14.6484 5C14.6209 5 14.6013 5.011 14.5927 5.01907ZM16.785 13.1992L11.5407 7.95493L4.00365 15.2053L7.94835 19H10.7549L16.785 13.1992ZM13.6398 19L21.3852 11.5492L21.3874 11.5471C21.775 11.172 22 10.6562 22 10.1101C22 9.56392 21.775 9.04811 21.3874 8.673L16.0885 3.57565L16.0863 3.5736C15.6978 3.2021 15.1802 3 14.6484 3C14.1165 3 13.5989 3.2021 13.2104 3.5736L13.2083 3.57566L2.61478 13.7662L2.61264 13.7683C2.22501 14.1434 2 14.6592 2 15.2053C2 15.7515 2.22501 16.2673 2.61264 16.6424L2.61478 16.6445L6.85217 20.7207C7.03847 20.8999 7.28694 21 7.54544 21H19.1983V19H13.6398Z" fill="black"/>
</svg>
