<svg width="24" height="24" viewBox="0 0 24 24" fill="none" xmlns="http://www.w3.org/2000/svg">
<path fill-rule="evenodd" clip-rule="evenodd" d="M17.8825 19.2967L21.2929 22.7072L22.7071 21.293L2.70712 1.29297L1.29291 2.70718L4.52006 5.93433C2.81866 7.5127 1.61749 9.62268 1.18103 12C2.12203 17.12 6.60803 21 12 21C14.1634 21 16.1811 20.3754 17.8825 19.2967ZM16.4234 17.8376L14.3953 15.8096C13.6835 16.2571 12.8543 16.5 12 16.5C10.8066 16.5 9.66196 16.0259 8.81805 15.182C7.97414 14.3381 7.50003 13.1935 7.50003 12C7.50003 11.1458 7.74292 10.3166 8.19046 9.60473L5.93919 7.35347C4.58478 8.58598 3.6346 10.206 3.22303 12C3.67713 13.9883 4.7927 15.7635 6.38717 17.0352C7.98164 18.3068 9.96056 18.9996 12 19C13.5579 18.9997 15.0805 18.5954 16.4234 17.8376ZM9.67271 11.087C9.55967 11.3751 9.50003 11.6845 9.50003 12C9.50003 12.663 9.76342 13.2989 10.2323 13.7678C10.7011 14.2366 11.337 14.5 12 14.5C12.3155 14.5 12.6249 14.4404 12.913 14.3273L9.67271 11.087Z" fill="black"/>
<path d="M22.819 12C22.4713 13.894 21.6382 15.6183 20.4535 17.0393L19.0319 15.6178C19.8733 14.5652 20.4732 13.3303 20.777 12C20.3213 10.0133 19.205 8.24 17.6107 6.97003C16.0163 5.70005 14.0383 5.00853 12 5.00853C10.9541 5.00853 9.9241 5.1906 8.95363 5.53948L7.41317 3.99902C8.80942 3.35763 10.363 3 12 3C17.392 3 21.878 6.88 22.819 12Z" fill="black"/>
<path d="M16.5 12C16.5 12.3317 16.4634 12.6596 16.3924 12.9783L14.1664 10.7522C14.0578 10.5638 13.9243 10.3887 13.7678 10.2322C13.6113 10.0758 13.4363 9.94219 13.2478 9.83364L11.0218 7.60761C11.3405 7.53661 11.6684 7.5 12 7.5C13.1935 7.5 14.3381 7.97411 15.182 8.81802C16.0259 9.66193 16.5 10.8065 16.5 12Z" fill="black"/>
</svg>
