<svg width="24" height="24" viewBox="0 0 24 24" fill="none" xmlns="http://www.w3.org/2000/svg">
<path d="M9.35384 4.35384C10.1967 4.12317 11.0839 4 12 4C16.8379 4 20.8734 7.43552 21.7999 12C21.5493 13.2348 21.0711 14.3871 20.411 15.411M5.99957 5.99957C4.07939 7.44203 2.69537 9.55967 2.20001 12C3.12655 16.5645 7.16206 20 12 20C14.2514 20 16.329 19.256 18.0004 18.0004M5.99957 5.99957L1 1M5.99957 5.99957L9.87867 9.87867M18.0004 18.0004L23 23M18.0004 18.0004L14.1213 14.1213M9.87867 9.87867C9.33577 10.4216 8.99998 11.1716 8.99998 12C8.99998 13.6569 10.3431 15 12 15C12.8284 15 13.5784 14.6642 14.1213 14.1213M9.87867 9.87867L14.1213 14.1213" stroke="black" stroke-width="2" stroke-linecap="round" stroke-linejoin="round"/>
</svg>
