<svg width="24" height="24" viewBox="0 0 24 24" fill="none" xmlns="http://www.w3.org/2000/svg">
<path fill-rule="evenodd" clip-rule="evenodd" d="M7.66794 1.44541C7.97429 0.985877 8.59516 0.861704 9.05469 1.16806C10.0159 1.80889 10.7404 2.86476 11.2187 3.88972C11.699 4.91909 12 6.06502 12 7.00011C12 7.55239 11.5523 8.00011 11 8.00011C10.4477 8.00011 9.99999 7.55239 9.99999 7.00011C9.99999 6.43519 9.80094 5.58112 9.40631 4.73549C9.00962 3.88545 8.48404 3.19132 7.94529 2.83216C7.48576 2.5258 7.36159 1.90493 7.66794 1.44541ZM11.9 1.20011C12.3418 0.868735 12.9686 0.958278 13.3 1.40011C14.8889 3.51867 15.5 5.22427 15.5 7.00011C15.5 7.55239 15.0523 8.00011 14.5 8.00011C13.9477 8.00011 13.5 7.55239 13.5 7.00011C13.5 5.77595 13.1111 4.48154 11.7 2.60011C11.3686 2.15828 11.4582 1.53148 11.9 1.20011ZM16.168 3.94533C16.4744 3.48583 17.0953 3.36171 17.5548 3.66811C18.6737 4.41421 19.6306 5.37834 20.3683 6.50283C21.0325 7.5153 21.5067 8.63904 21.7689 9.81894C22.1275 10.1227 22.4224 10.4966 22.6346 10.9194C22.9145 11.477 23.0402 12.0992 22.9988 12.7217C22.9574 13.3443 22.7504 13.9444 22.3991 14.46C22.1328 14.8509 21.791 15.1824 21.3955 15.436C20.7155 17.2926 19.499 18.9091 17.8965 20.0774C16.1855 21.3247 14.1228 21.9968 12.0055 21.9968C9.88815 21.9968 7.82545 21.3247 6.1145 20.0774C4.51194 18.9091 3.29546 17.2926 2.61549 15.436C2.21994 15.1824 1.87815 14.8509 1.61189 14.46C1.26063 13.9444 1.05358 13.3443 1.01217 12.7217C0.970767 12.0992 1.09651 11.477 1.37639 10.9194C1.58858 10.4966 1.88352 10.1227 2.24208 9.81894C2.4985 8.66497 2.95774 7.56451 3.59946 6.56922C4.31377 5.46133 5.24008 4.5056 6.3251 3.757C6.77969 3.44336 7.40246 3.55763 7.7161 4.01222C8.02973 4.4668 7.91547 5.08957 7.46088 5.40321C6.59286 6.00209 5.85182 6.76667 5.28037 7.65298C4.70892 8.5393 4.31834 9.52985 4.1311 10.5677C4.08199 10.8399 3.92228 11.0796 3.68998 11.2298C3.46545 11.375 3.2838 11.5776 3.16386 11.8166C3.04391 12.0555 2.99002 12.3222 3.00776 12.589C3.02551 12.8558 3.11425 13.113 3.26479 13.334C3.41532 13.555 3.6222 13.7317 3.86398 13.8458C4.11426 13.964 4.30437 14.1807 4.38905 14.4442C4.90725 16.0568 5.92395 17.4634 7.2927 18.4613C8.66146 19.4591 10.3116 19.9968 12.0055 19.9968C13.6994 19.9968 15.3495 19.4591 16.7183 18.4613C18.087 17.4634 19.1037 16.0568 19.6219 14.4442C19.7066 14.1807 19.8967 13.964 20.147 13.8458C20.3888 13.7317 20.5957 13.555 20.7462 13.334C20.8967 13.113 20.9855 12.8558 21.0032 12.589C21.021 12.3222 20.9671 12.0555 20.8471 11.8166C20.7272 11.5776 20.5455 11.375 20.321 11.2298C20.0887 11.0796 19.929 10.8399 19.8799 10.5677C19.6889 9.50886 19.2862 8.49947 18.6961 7.59988C18.1059 6.70029 17.3404 5.92899 16.4452 5.3321C15.9857 5.02571 15.8616 4.40483 16.168 3.94533ZM7.99999 12.0001C7.99999 11.4478 8.44771 11.0001 8.99999 11.0001H9.00999C9.56228 11.0001 10.01 11.4478 10.01 12.0001C10.01 12.5524 9.56228 13.0001 9.00999 13.0001H8.99999C8.44771 13.0001 7.99999 12.5524 7.99999 12.0001ZM14 12.0001C14 11.4478 14.4477 11.0001 15 11.0001H15.01C15.5623 11.0001 16.01 11.4478 16.01 12.0001C16.01 12.5524 15.5623 13.0001 15.01 13.0001H15C14.4477 13.0001 14 12.5524 14 12.0001ZM8.80014 15.2858C9.19463 14.8993 9.82776 14.9058 10.2143 15.3003C10.447 15.5378 10.7249 15.7266 11.0315 15.8554C11.3381 15.9842 11.6674 16.0506 12 16.0506C12.3326 16.0506 12.6618 15.9842 12.9685 15.8554C13.2751 15.7266 13.5529 15.5378 13.7857 15.3003C14.1722 14.9058 14.8054 14.8993 15.1998 15.2858C15.5943 15.6723 15.6008 16.3055 15.2143 16.7C14.7953 17.1276 14.2952 17.4673 13.7433 17.6992C13.1913 17.9312 12.5987 18.0506 12 18.0506C11.4013 18.0506 10.8087 17.9312 10.2567 17.6992C9.7048 17.4673 9.20469 17.1276 8.78571 16.7C8.39919 16.3055 8.40565 15.6723 8.80014 15.2858Z" fill="black"/>
</svg>
