<svg width="24" height="24" viewBox="0 0 24 24" fill="none" xmlns="http://www.w3.org/2000/svg">
<path fill-rule="evenodd" clip-rule="evenodd" d="M12 4C7.58172 4 4 7.58172 4 12C4 16.4183 7.58172 20 12 20C16.4183 20 20 16.4183 20 12C20 7.58172 16.4183 4 12 4ZM2 12C2 6.47715 6.47715 2 12 2C17.5228 2 22 6.47715 22 12C22 17.5228 17.5228 22 12 22C6.47715 22 2 17.5228 2 12ZM8 9C8 8.44772 8.44772 8 9 8H9.01C9.56228 8 10.01 8.44772 10.01 9C10.01 9.55228 9.56228 10 9.01 10H9C8.44772 10 8 9.55228 8 9ZM14 9C14 8.44772 14.4477 8 15 8H15.01C15.5623 8 16.01 8.44772 16.01 9C16.01 9.55228 15.5623 10 15.01 10H15C14.4477 10 14 9.55228 14 9ZM7.29289 12.2929C7.48043 12.1054 7.73478 12 8 12H16C16.2652 12 16.5196 12.1054 16.7071 12.2929C16.8946 12.4804 17 12.7348 17 13C17 14.3261 16.4732 15.5979 15.5355 16.5355C14.5979 17.4732 13.3261 18 12 18C10.6739 18 9.40215 17.4732 8.46447 16.5355C7.52678 15.5979 7 14.3261 7 13C7 12.7348 7.10536 12.4804 7.29289 12.2929ZM9.17157 14C9.31933 14.4179 9.55927 14.8019 9.87868 15.1213C10.4413 15.6839 11.2044 16 12 16C12.7956 16 13.5587 15.6839 14.1213 15.1213C14.4407 14.8019 14.6807 14.4179 14.8284 14H9.17157Z" fill="black"/>
</svg>
