<svg width="24" height="24" viewBox="0 0 24 24" fill="none" xmlns="http://www.w3.org/2000/svg">
<path d="M9 10H9.01M15 10H15.01M10 14V16C10 16.5304 10.2107 17.0391 10.5858 17.4142C10.9609 17.7893 11.4696 18 12 18C12.5304 18 13.0391 17.7893 13.4142 17.4142C13.7893 17.0391 14 16.5304 14 16V14M10 14H14M10 14H9M14 14H15.01M21 12C21 16.9706 16.9706 21 12 21C7.02944 21 3 16.9706 3 12C3 7.02944 7.02944 3 12 3C16.9706 3 21 7.02944 21 12Z" stroke="black" stroke-width="2" stroke-linecap="round" stroke-linejoin="round"/>
</svg>
