<svg width="24" height="24" viewBox="0 0 24 24" fill="none" xmlns="http://www.w3.org/2000/svg">
<path fill-rule="evenodd" clip-rule="evenodd" d="M12 4C7.58172 4 4 7.58172 4 12C4 16.4183 7.58172 20 12 20C16.4183 20 20 16.4183 20 12C20 7.58172 16.4183 4 12 4ZM2 12C2 6.47715 6.47715 2 12 2C17.5228 2 22 6.47715 22 12C22 17.5228 17.5228 22 12 22C6.47715 22 2 17.5228 2 12ZM8 10C8 9.44772 8.44772 9 9 9H9.01C9.56228 9 10.01 9.44772 10.01 10C10.01 10.5523 9.56228 11 9.01 11H9C8.44772 11 8 10.5523 8 10ZM14 10C14 9.44772 14.4477 9 15 9H15.01C15.5623 9 16.01 9.44772 16.01 10C16.01 10.5523 15.5623 11 15.01 11H15C14.4477 11 14 10.5523 14 10ZM7.5 14C7.5 13.4477 7.94772 13 8.5 13H15.5C16.0523 13 16.5 13.4477 16.5 14C16.5 14.5523 16.0523 15 15.5 15H15V16C15 16.7957 14.6839 17.5587 14.1213 18.1213C13.5587 18.6839 12.7957 19 12 19C11.2043 19 10.4413 18.6839 9.87868 18.1213C9.31607 17.5587 9 16.7957 9 16V15H8.5C7.94772 15 7.5 14.5523 7.5 14ZM11 15V16C11 16.2652 11.1054 16.5196 11.2929 16.7071C11.4804 16.8946 11.7348 17 12 17C12.2652 17 12.5196 16.8946 12.7071 16.7071C12.8946 16.5196 13 16.2652 13 16V15H11Z" fill="black"/>
</svg>
