<svg width="24" height="24" viewBox="0 0 24 24" fill="none" xmlns="http://www.w3.org/2000/svg">
<path fill-rule="evenodd" clip-rule="evenodd" d="M4.00001 5C4.00001 3.89543 4.89544 3 6.00001 3C7.10458 3 8.00001 3.89543 8.00001 5C8.00001 6.10457 7.10458 7 6.00001 7C4.89544 7 4.00001 6.10457 4.00001 5ZM14.2929 4.29289C14.6834 3.90237 15.3166 3.90237 15.7071 4.29289C16.0976 4.68342 16.0976 5.31658 15.7071 5.70711L12.7071 8.70711C12.5196 8.89464 12.2652 9 12 9H10L11.8 11.4C11.88 11.5066 11.9378 11.6282 11.9701 11.7575L12.9701 15.7575C13.0061 15.9011 13.0096 16.0509 12.9806 16.1961L11.9806 21.1961C11.8723 21.7377 11.3455 22.0889 10.8039 21.9806C10.2623 21.8723 9.91112 21.3454 10.0194 20.8039L10.9753 16.0244L10.0788 12.4384L8.00001 9.66667L6.08559 12.2192L6.97015 15.7575C7.1041 16.2933 6.77834 16.8362 6.24254 16.9701C5.70675 17.1041 5.16381 16.7783 5.02987 16.2425L4.02987 12.2425C3.95683 11.9504 4.01933 11.6409 4.20001 11.4L7.20001 7.4C7.38886 7.14819 7.68525 7 8.00001 7H11.5858L14.2929 4.29289ZM12.5 12C12.5 11.4477 12.9477 11 13.5 11H16C16.1553 11 16.3084 11.0361 16.4472 11.1056L20.4472 13.1056C20.9412 13.3526 21.1414 13.9532 20.8944 14.4472C20.6474 14.9412 20.0468 15.1414 19.5528 14.8944L15.7639 13H13.5C12.9477 13 12.5 12.5523 12.5 12Z" fill="black"/>
</svg>
