<svg width="24" height="24" viewBox="0 0 24 24" fill="none" xmlns="http://www.w3.org/2000/svg">
<path fill-rule="evenodd" clip-rule="evenodd" d="M9 4C7.89543 4 7 4.89543 7 6C7 7.10457 7.89543 8 9 8H11V4H9ZM9 2C6.79086 2 5 3.79086 5 6C5 7.19471 5.52377 8.26708 6.35421 9.00003C6.29174 9.05513 6.23082 9.11232 6.17157 9.17157C5.42143 9.92172 5 10.9391 5 12C5 13.0609 5.42143 14.0783 6.17157 14.8284C6.23083 14.8877 6.29176 14.9449 6.35424 15C5.89866 15.4018 5.53873 15.9037 5.30448 16.4693C5.00173 17.2002 4.92252 18.0044 5.07686 18.7804C5.2312 19.5563 5.61216 20.269 6.17157 20.8284C6.73098 21.3878 7.44372 21.7688 8.21964 21.9231C8.99556 22.0775 9.79983 21.9983 10.5307 21.6955C11.2616 21.3928 11.8864 20.8801 12.3259 20.2223C12.7654 19.5645 13 18.7911 13 18V15.4649C13.5883 15.8052 14.2714 16 15 16C17.2091 16 19 14.2091 19 12C19 10.8053 18.4762 9.73295 17.6458 9C18.4762 8.26706 19 7.19469 19 6C19 3.79086 17.2091 2 15 2H9ZM13 4V8H15C16.1046 8 17 7.10457 17 6C17 4.89543 16.1046 4 15 4H13ZM11 10H9C8.46957 10 7.96086 10.2107 7.58579 10.5858C7.21072 10.9609 7 11.4696 7 12C7 12.5304 7.21072 13.0391 7.58579 13.4142C7.96086 13.7893 8.46957 14 9 14H11V10ZM13 12C13 13.1046 13.8954 14 15 14C16.1046 14 17 13.1046 17 12C17 10.8954 16.1046 10 15 10C13.8954 10 13 10.8954 13 12ZM11 16H9C8.60444 16 8.21776 16.1173 7.88886 16.3371C7.55996 16.5568 7.30362 16.8692 7.15224 17.2346C7.00087 17.6001 6.96126 18.0022 7.03843 18.3902C7.1156 18.7781 7.30608 19.1345 7.58579 19.4142C7.86549 19.6939 8.22186 19.8844 8.60982 19.9616C8.99778 20.0387 9.39992 19.9991 9.76537 19.8478C10.1308 19.6964 10.4432 19.44 10.6629 19.1111C10.8827 18.7822 11 18.3956 11 18V16Z" fill="black"/>
</svg>
