<svg width="24" height="24" viewBox="0 0 24 24" fill="none" xmlns="http://www.w3.org/2000/svg">
<path d="M18.1918 7.01695C19.0525 8.51631 19.4203 10.2708 19.2386 12.0109V13.0097C19.2375 14.0613 19.5001 15.0947 20 16.0061M7.81833 11.0121C7.81833 9.95252 8.2194 8.93634 8.93331 8.1871C9.64721 7.43787 10.6155 7.01695 11.6251 7.01695C12.6347 7.01695 13.603 7.43787 14.3169 8.1871C15.0308 8.93634 15.4319 9.95252 15.4319 11.0121V12.0109C15.4319 14.172 16.0998 16.2748 17.3353 18.0036M11.6251 11.0121V13.0097C11.6221 15.8656 12.4524 18.6541 14.0043 21M7.81833 15.0073C8.05121 17.0946 8.631 19.1229 9.53138 21M4.86808 19.0024C4.22592 16.7355 3.9367 14.3746 4.01156 12.0109V11.0121C4.00791 9.60767 4.35704 8.22703 5.02378 7.00931C5.69052 5.7916 6.65131 4.77982 7.80933 4.07595C8.96735 3.37207 10.2817 3.00096 11.6199 3C12.9581 2.99905 14.2729 3.36829 15.4319 4.07052" stroke="black" stroke-width="2" stroke-linecap="round" stroke-linejoin="round"/>
</svg>
