<svg width="24" height="24" viewBox="0 0 24 24" fill="none" xmlns="http://www.w3.org/2000/svg">
<path fill-rule="evenodd" clip-rule="evenodd" d="M6.15781 1.06039C6.52091 0.928165 6.9277 1.01698 7.20265 1.28851L10.8312 4.87184L11.1158 4.33306C11.2636 4.05331 11.5351 3.86 11.8478 3.81184C12.1605 3.76368 12.4775 3.86635 12.7027 4.08867L15.4308 6.7829L16.812 5.47352C17.0855 5.21424 17.4815 5.13073 17.8364 5.2575C18.1913 5.38426 18.4447 5.69978 18.4921 6.07365L19.9921 17.9243C20.0431 18.3273 19.8452 18.7211 19.4914 18.9207L12.4914 22.8709C12.1864 23.0431 11.8136 23.0431 11.5085 22.8709L4.50853 18.9207C4.1651 18.7269 3.96763 18.3494 4.00433 17.9568L5.50433 1.90697C5.54028 1.52222 5.7947 1.19262 6.15781 1.06039ZM13.9786 8.15966L12.2553 6.45773L8.72443 13.1409L13.9786 8.15966ZM6.46327 13.1394L9.85528 6.71898L7.29923 4.19476L6.46327 13.1394ZM6.67036 17.8442L12 20.8518L17.9236 17.509L16.7557 8.28278L6.67036 17.8442Z" fill="black"/>
</svg>
