<svg width="24" height="24" viewBox="0 0 24 24" fill="none" xmlns="http://www.w3.org/2000/svg">
<path fill-rule="evenodd" clip-rule="evenodd" d="M5 15H12L12.724 16.447C12.807 16.6131 12.9346 16.7528 13.0925 16.8504C13.2504 16.9481 13.4323 16.9999 13.618 17H20C20.2652 17 20.5196 16.8946 20.7071 16.7071C20.8946 16.5196 21 16.2652 21 16V5C21 4.73478 20.8946 4.48043 20.7071 4.29289C20.5196 4.10536 20.2652 4 20 4H14L13.276 2.553C13.193 2.38692 13.0654 2.24722 12.9075 2.14955C12.7496 2.05188 12.5677 2.0001 12.382 2H3V22H5V15ZM5 13V4H11.764L12.764 6H19V15H14.236L13.236 13H5Z" fill="black"/>
</svg>
