<svg width="24" height="24" viewBox="0 0 24 24" fill="none" xmlns="http://www.w3.org/2000/svg">
<path fill-rule="evenodd" clip-rule="evenodd" d="M2 4C2 3.44772 2.44772 3 3 3H10C10.2652 3 10.5196 3.10536 10.7071 3.29289L12.4142 5H20C20.5523 5 21 5.44772 21 6V9H19V7H12C11.7348 7 11.4804 6.89464 11.2929 6.70711L9.58579 5H4V15.2194L5.58384 11.5992C5.74309 11.2352 6.1027 11 6.5 11H21.5C21.8181 11 22.1173 11.1514 22.3057 11.4077C22.4941 11.664 22.5494 11.9946 22.4545 12.2983L19.9545 20.2983C19.824 20.7157 19.4374 21 19 21H3C2.44772 21 2 20.5523 2 20V4ZM4.52902 19H18.2648L20.1398 13H7.15402L4.52902 19Z" fill="black"/>
</svg>
