<svg width="24" height="24" viewBox="0 0 24 24" fill="none" xmlns="http://www.w3.org/2000/svg">
<path fill-rule="evenodd" clip-rule="evenodd" d="M7 4V20C7 20.0047 7.00022 20.0083 7.00048 20.0109C7.00273 20.0123 7.00567 20.0137 7.00921 20.0149C7.01313 20.0163 7.01667 20.017 7.01946 20.0174C7.02113 20.0157 7.02338 20.0132 7.02612 20.0098C7.02635 20.0095 7.02658 20.0092 7.02681 20.009L11.1724 14.7569C11.5539 14.2805 12.1323 14 12.746 14H15C15.0032 14 15.0069 13.9989 15.0094 13.9968C15.0118 13.9949 15.0135 13.9922 15.0142 13.9891C15.0142 13.989 15.0142 13.9892 15.0142 13.9891L15.8169 10H11V8H16.2194L16.999 4.12616C17.0006 4.11849 17.0021 4.10175 16.9964 4.07691C16.9906 4.05138 16.9792 4.02669 16.9657 4.00765C16.9636 4.00476 16.9617 4.00222 16.9599 4H7ZM5 4C5 2.88109 5.89034 2 7 2H17C17.7046 2 18.2635 2.38262 18.5943 2.84685C18.9212 3.30552 19.0841 3.91746 18.9578 4.52997L16.9743 14.3863L16.9738 14.3892C16.8808 14.8441 16.6335 15.253 16.2737 15.5465C15.9141 15.8399 15.4641 16.0001 15 16C14.9998 16 15.0002 16 15 16H12.746C12.7438 16 12.7385 16.0013 12.7341 16.0064C12.7339 16.0066 12.7343 16.0062 12.7341 16.0064L8.59394 21.2516L8.59119 21.255C7.40438 22.745 5 21.9122 5 20V4Z" fill="black"/>
</svg>
