<svg width="24" height="24" viewBox="0 0 24 24" fill="none" xmlns="http://www.w3.org/2000/svg">
<path d="M7.99998 13.5V9.5C7.99998 9.10218 8.15802 8.72064 8.43932 8.43934C8.72063 8.15804 9.10216 8 9.49998 8C9.89781 8 10.2793 8.15804 10.5606 8.43934C10.8419 8.72064 11 9.10218 11 9.5M11 9.5V12M11 9.5V3.5C11 3.10218 11.158 2.72064 11.4393 2.43934C11.7206 2.15804 12.1022 2 12.5 2C12.8978 2 13.2793 2.15804 13.5606 2.43934C13.8419 2.72064 14 3.10218 14 3.5V9.5M14 9.5V12M14 9.5C14 9.10218 14.158 8.72064 14.4393 8.43934C14.7206 8.15804 15.1022 8 15.5 8C15.8978 8 16.2793 8.15804 16.5606 8.43934C16.8419 8.72064 17 9.10218 17 9.5V10.5M17 10.5V12M17 10.5C17 10.1022 17.158 9.72064 17.4393 9.43934C17.7206 9.15804 18.1022 9 18.5 9C18.8978 9 19.2793 9.15804 19.5606 9.43934C19.8419 9.72064 20 10.1022 20 10.5V16C20 17.5913 19.3678 19.1174 18.2426 20.2426C17.1174 21.3679 15.5913 22 14 22H12C10.9564 21.856 9.9644 21.5113 9.09845 20.9917C8.23249 20.4721 7.51506 19.7912 6.99998 19L4.29998 13.75C4.03477 13.3853 3.92528 12.9302 3.9956 12.4848C4.06593 12.0394 4.31031 11.6402 4.67498 11.375C5.03966 11.1098 5.49475 11.0003 5.94015 11.0706C6.38555 11.1409 6.78477 11.3853 7.04998 11.75L7.94998 13.5" stroke="black" stroke-width="2" stroke-linecap="round" stroke-linejoin="round"/>
</svg>
