<svg width="24" height="24" viewBox="0 0 24 24" fill="none" xmlns="http://www.w3.org/2000/svg">
<path d="M13 7.066C14.884 7.32142 16.6008 8.28279 17.8031 9.75569C19.0054 11.2286 19.6036 13.1031 19.4765 15.0002C19.3495 16.8972 18.5068 18.6753 17.1189 19.9747C15.7309 21.2742 13.9013 21.998 12 22C10.0963 22.0018 8.26325 21.2797 6.87231 19.9801C5.48138 18.6804 4.63669 16.9005 4.50951 15.0011C4.38232 13.1017 4.98215 11.225 6.1874 9.75154C7.39264 8.27804 9.1131 7.31798 11 7.066V1H13V7.066ZM12 20C13.4587 20 14.8576 19.4205 15.8891 18.3891C16.9205 17.3576 17.5 15.9587 17.5 14.5C17.5 13.0413 16.9205 11.6424 15.8891 10.6109C14.8576 9.57946 13.4587 9 12 9C10.5413 9 9.14234 9.57946 8.11089 10.6109C7.07944 11.6424 6.49998 13.0413 6.49998 14.5C6.49998 15.9587 7.07944 17.3576 8.11089 18.3891C9.14234 19.4205 10.5413 20 12 20Z" fill="black"/>
</svg>
