<svg width="24" height="24" viewBox="0 0 24 24" fill="none" xmlns="http://www.w3.org/2000/svg">
<path d="M12 2C7.58172 2 4 5.80558 4 10.5V19.5C4 20.8807 5.11929 22 6.5 22C7.70948 22 8.71836 21.1411 8.94999 20H9.55001C9.78164 21.1411 10.7905 22 12 22C13.2095 22 14.2184 21.1411 14.45 20H15.05C15.2816 21.1411 16.2905 22 17.5 22C18.8807 22 20 20.8807 20 19.5V10.5C20 5.80558 16.4183 2 12 2Z" stroke="black" stroke-width="2" stroke-linecap="round" stroke-linejoin="round"/>
<path d="M10 9C10 9.55228 9.55228 10 9 10C8.44772 10 8 9.55228 8 9C8 8.44772 8.44772 8 9 8C9.55228 8 10 8.44772 10 9Z" stroke="black" stroke-width="2" stroke-linecap="round" stroke-linejoin="round"/>
<path d="M16 9C16 9.55228 15.5523 10 15 10C14.4477 10 14 9.55228 14 9C14 8.44772 14.4477 8 15 8C15.5523 8 16 8.44772 16 9Z" stroke="black" stroke-width="2" stroke-linecap="round" stroke-linejoin="round"/>
</svg>
