<svg width="24" height="24" viewBox="0 0 24 24" fill="none" xmlns="http://www.w3.org/2000/svg">
<path d="M7.5 7.99995C6.83696 7.99995 6.20107 7.73656 5.73223 7.26772C5.26339 6.79887 5 6.16299 5 5.49995C5 4.83691 5.26339 4.20102 5.73223 3.73218C6.20107 3.26334 6.83696 2.99995 7.5 2.99995C8.46469 2.98314 9.41003 3.45121 10.2127 4.34311C11.0154 5.23501 11.6383 6.50935 12 7.99995M12 7.99995C12.3617 6.50935 12.9846 5.23501 13.7873 4.34311C14.59 3.45121 15.5353 2.98314 16.5 2.99995C17.163 2.99995 17.7989 3.26334 18.2678 3.73218C18.7366 4.20102 19 4.83691 19 5.49995C19 6.16299 18.7366 6.79887 18.2678 7.26772C17.7989 7.73656 17.163 7.99995 16.5 7.99995M12 7.99995H21V11.9999H19M12 7.99995H3V11.9999H5M12 7.99995V11.9999M19 11.9999V20.9999H12M19 11.9999H12M5 11.9999H12M5 11.9999V20.9999H12M12 11.9999V20.9999" stroke="black" stroke-width="2" stroke-linecap="round" stroke-linejoin="round"/>
</svg>
