<svg width="24" height="24" viewBox="0 0 24 24" fill="none" xmlns="http://www.w3.org/2000/svg">
<path fill-rule="evenodd" clip-rule="evenodd" d="M13.414 3.82782C13.0389 3.45288 12.5303 3.24225 12 3.24225C11.4697 3.24225 10.9611 3.45288 10.586 3.82782L9.914 4.49982L11.482 6.06782C11.8211 5.97745 12.1781 5.97782 12.517 6.06888C12.8559 6.15995 13.165 6.33852 13.4131 6.58668C13.6613 6.83485 13.8399 7.14389 13.9309 7.48283C14.022 7.82177 14.0224 8.1787 13.932 8.51782L15.982 10.5678C16.4073 10.4538 16.8583 10.4834 17.2651 10.6518C17.6718 10.8203 18.0117 11.1183 18.2318 11.4996C18.452 11.8808 18.5402 12.3241 18.4827 12.7606C18.4252 13.1972 18.2254 13.6025 17.914 13.9138C17.6027 14.2252 17.1973 14.4251 16.7608 14.4825C16.3243 14.54 15.881 14.4518 15.4997 14.2316C15.1184 14.0115 14.8205 13.6717 14.652 13.2649C14.4835 12.8581 14.454 12.4071 14.568 11.9818L13 10.4138V15.2678C13.3813 15.488 13.6792 15.8278 13.8477 16.2345C14.0162 16.6413 14.0457 17.0922 13.9318 17.5175C13.8178 17.9427 13.5667 18.3185 13.2175 18.5865C12.8682 18.8545 12.4403 18.9998 12 18.9998C11.5598 18.9998 11.1318 18.8545 10.7825 18.5865C10.4333 18.3185 10.1822 17.9427 10.0682 17.5175C9.9543 17.0922 9.98385 16.6413 10.1523 16.2345C10.3208 15.8278 10.6187 15.488 11 15.2678V9.73182C10.6186 9.51169 10.3206 9.17186 10.1521 8.76504C9.98354 8.35821 9.95399 7.90715 10.068 7.48182L8.5 5.91382L3.828 10.5858C3.45306 10.9609 3.24243 11.4695 3.24243 11.9998C3.24243 12.5302 3.45306 13.0388 3.828 13.4138L10.586 20.1718C10.9611 20.5468 11.4697 20.7574 12 20.7574C12.5303 20.7574 13.0389 20.5468 13.414 20.1718L20.172 13.4138C20.5469 13.0388 20.7576 12.5302 20.7576 11.9998C20.7576 11.4695 20.5469 10.9609 20.172 10.5858L13.414 3.82782ZM9.172 2.41382C9.92212 1.66394 10.9393 1.24268 12 1.24268C13.0607 1.24268 14.0779 1.66394 14.828 2.41382L21.586 9.17182C22.3359 9.92193 22.7571 10.9392 22.7571 11.9998C22.7571 13.0605 22.3359 14.0777 21.586 14.8278L14.828 21.5858C14.0779 22.3357 13.0607 22.757 12 22.757C10.9393 22.757 9.92212 22.3357 9.172 21.5858L2.414 14.8278C1.66412 14.0777 1.24286 13.0605 1.24286 11.9998C1.24286 10.9392 1.66412 9.92193 2.414 9.17182L9.172 2.41382Z" fill="black"/>
</svg>
