<svg width="24" height="24" viewBox="0 0 24 24" fill="none" xmlns="http://www.w3.org/2000/svg">
<path d="M5.68002 7.31379L3.86002 13.2278L12 19.4418L20.14 13.2278L18.32 7.31379L16.643 10.9998H7.35602L5.68102 7.31379H5.68002ZM15.357 8.99979L18.245 2.64579C18.2785 2.57172 18.3338 2.50961 18.4035 2.46775C18.4732 2.42589 18.554 2.40625 18.6351 2.41147C18.7163 2.41668 18.7939 2.44649 18.8576 2.49693C18.9214 2.54737 18.9683 2.61604 18.992 2.69379L22.359 13.6388C22.389 13.7364 22.3884 13.8408 22.3573 13.9381C22.3262 14.0353 22.2661 14.1207 22.185 14.1828L12 21.9578L1.81602 14.1828C1.73494 14.1207 1.67481 14.0353 1.6437 13.9381C1.6126 13.8408 1.61201 13.7364 1.64202 13.6388L5.00902 2.69379C5.03277 2.61604 5.07965 2.54737 5.14341 2.49693C5.20717 2.44649 5.28479 2.41668 5.36592 2.41147C5.44705 2.40625 5.52785 2.42589 5.59754 2.46775C5.66723 2.50961 5.72251 2.57172 5.75602 2.64579L8.64402 8.99979H15.356H15.357Z" fill="black"/>
</svg>
