<svg width="24" height="24" viewBox="0 0 24 24" fill="none" xmlns="http://www.w3.org/2000/svg">
<path fill-rule="evenodd" clip-rule="evenodd" d="M7.01216 2.84451C7.0887 2.35824 7.50775 2 8 2H16C16.4923 2 16.9113 2.35824 16.9878 2.84451L17.9878 9.19745C17.9959 9.24888 18 9.30087 18 9.35294C18 11.0044 17.3809 12.5989 16.2625 13.7831C15.3773 14.7204 14.235 15.3403 13 15.5591V20H16C16.5523 20 17 20.4477 17 21C17 21.5523 16.5523 22 16 22H8C7.44772 22 7 21.5523 7 21C7 20.4477 7.44772 20 8 20H11V15.5591C9.76504 15.3403 8.62269 14.7204 7.73745 13.7831C6.61905 12.5989 6 11.0044 6 9.35294C6 9.30087 6.00407 9.24888 6.01216 9.19745L7.01216 2.84451ZM8.85491 4L8.29156 7.57893C8.6835 7.47675 9.08907 7.42382 9.5 7.42382C10.6516 7.42382 11.7612 7.83949 12.6466 8.59015C13.1801 9.04234 13.834 9.28206 14.5 9.28206C14.9934 9.28206 15.4801 9.15051 15.9162 8.89849L15.1451 4H8.85491ZM15.6344 11.1456C15.2655 11.2356 14.8851 11.2821 14.5 11.2821C13.3484 11.2821 12.2388 10.8664 11.3534 10.1157C10.8199 9.66354 10.166 9.42382 9.5 9.42382C8.9847 9.42382 8.47661 9.56733 8.02599 9.84173C8.12997 10.8158 8.54205 11.7222 9.19148 12.4098C9.94661 13.2094 10.9582 13.6471 12 13.6471C13.0418 13.6471 14.0534 13.2094 14.8085 12.4098C15.1549 12.043 15.4338 11.614 15.6344 11.1456Z" fill="black"/>
</svg>
