<svg width="24" height="24" viewBox="0 0 24 24" fill="none" xmlns="http://www.w3.org/2000/svg">
<path d="M13 20.9999H18V22.9999H5.99998V20.9999H11V19.9499C9.41446 19.7907 7.88992 19.255 6.55334 18.3874C5.21676 17.5197 4.10682 16.3453 3.31598 14.9619L5.05298 13.9699C5.66376 15.0372 6.51235 15.9493 7.53283 16.6353C8.55331 17.3214 9.71821 17.763 10.9371 17.9258C12.1559 18.0886 13.3959 17.9683 14.5606 17.5741C15.7254 17.18 16.7837 16.5226 17.6532 15.6531C18.5227 14.7836 19.1801 13.7254 19.5742 12.5606C19.9684 11.3958 20.0887 10.1558 19.9259 8.93699C19.7631 7.71815 19.3215 6.55325 18.6354 5.53277C17.9493 4.51229 17.0372 3.6637 15.97 3.05292L16.962 1.31592C18.493 2.19046 19.7655 3.45442 20.6503 4.97955C21.5351 6.50468 22.0007 8.23671 22 9.99992C22 15.1849 18.053 19.4489 13 19.9499V20.9999ZM12 16.9999C11.0807 16.9999 10.1705 16.8189 9.32119 16.4671C8.47192 16.1153 7.70024 15.5997 7.05023 14.9497C6.40022 14.2997 5.88461 13.528 5.53282 12.6787C5.18104 11.8294 4.99998 10.9192 4.99998 9.99992C4.99998 9.08066 5.18104 8.17041 5.53282 7.32113C5.88461 6.47186 6.40022 5.70018 7.05023 5.05017C7.70024 4.40016 8.47192 3.88454 9.32119 3.53276C10.1705 3.18098 11.0807 2.99992 12 2.99992C13.8565 2.99992 15.637 3.73742 16.9497 5.05017C18.2625 6.36293 19 8.1434 19 9.99992C19 11.8564 18.2625 13.6369 16.9497 14.9497C15.637 16.2624 13.8565 16.9999 12 16.9999ZM12 14.9999C13.3261 14.9999 14.5978 14.4731 15.5355 13.5355C16.4732 12.5978 17 11.326 17 9.99992C17 8.67384 16.4732 7.40207 15.5355 6.46438C14.5978 5.5267 13.3261 4.99992 12 4.99992C10.6739 4.99992 9.40213 5.5267 8.46445 6.46438C7.52676 7.40207 6.99998 8.67384 6.99998 9.99992C6.99998 11.326 7.52676 12.5978 8.46445 13.5355C9.40213 14.4731 10.6739 14.9999 12 14.9999Z" fill="black"/>
</svg>
