<svg width="24" height="24" viewBox="0 0 24 24" fill="none" xmlns="http://www.w3.org/2000/svg">
<path fill-rule="evenodd" clip-rule="evenodd" d="M8.62861 2.07152C8.74673 2.02428 8.87278 2 9 2H20C20.5523 2 21 2.44772 21 3V8C21 8.55228 20.5523 9 20 9H15V21C15 21.5523 14.5523 22 14 22H10C9.44772 22 9 21.5523 9 21V9H4C3.44772 9 3 8.55228 3 8V5C3 4.5911 3.24895 4.22339 3.62861 4.07152L8.62861 2.07152ZM17 7H19V4H17V7ZM15 4H9.19258L5 5.67703V7H10C10.5523 7 11 7.44772 11 8V20H13V8C13 7.44772 13.4477 7 14 7H15V4Z" fill="black"/>
</svg>
