<svg width="24" height="24" viewBox="0 0 24 24" fill="none" xmlns="http://www.w3.org/2000/svg">
<path d="M11.0141 5.5C11.0141 5.10218 10.8564 4.72064 10.5755 4.43934C10.2946 4.15804 9.91371 4 9.51651 4C9.36319 4 9.21229 4.02355 9.06864 4.06864M11.0141 5.5V3.5C11.0141 3.10218 11.1719 2.72064 11.4528 2.43934C11.7337 2.15804 12.1146 2 12.5118 2C12.909 2 13.2899 2.15804 13.5708 2.43934C13.8516 2.72064 14.0094 3.10218 14.0094 3.5V5.5M11.0141 5.5V6.01415M14.0094 5.5C14.0094 5.10218 14.1672 4.72064 14.4481 4.43934C14.7289 4.15804 15.1099 4 15.5071 4C15.9043 4 16.2852 4.15804 16.5661 4.43934C16.8469 4.72064 17.0047 5.10218 17.0047 5.5V7.5M14.0094 5.5V8.75M17.0047 7.5V12M17.0047 7.5C17.0047 7.10218 17.1625 6.72064 17.4434 6.43934C17.7242 6.15804 18.1052 6 18.5024 6C18.8996 6 19.2805 6.15804 19.5614 6.43934C19.8422 6.72064 20 7.10218 20 7.5V15M7.96894 13.5L7.07036 11.75C6.80556 11.3853 6.40697 11.1409 5.96227 11.0706C5.51757 11.0003 5.06319 11.1098 4.69909 11.375C4.33499 11.6402 4.091 12.0394 4.02078 12.4848C3.95056 12.9302 4.05988 13.3853 4.32468 13.75L7.02044 19C7.5347 19.7912 8.251 20.4721 9.1156 20.9917C9.98019 21.5113 10.9706 21.856 12.0126 22H14.0094C15.5982 22 17.122 21.3679 18.2454 20.2426C18.5843 19.9032 18.8785 19.5272 19.124 19.124M1 1L8.01886 8.01886M8.01886 8.01886V13.5M8.01886 8.01886L11.0141 11.0141M19.124 19.124L23 23M19.124 19.124L11.0141 11.0141M11.0141 11.0141V12" stroke="black" stroke-width="2" stroke-linecap="round" stroke-linejoin="round"/>
</svg>
