<svg width="24" height="24" viewBox="0 0 24 24" fill="none" xmlns="http://www.w3.org/2000/svg">
<path fill-rule="evenodd" clip-rule="evenodd" d="M12.5 3C12.3674 3 12.2402 3.05268 12.1464 3.14645C12.0527 3.24021 12 3.36739 12 3.5V12C12 12.5523 11.5523 13 11 13C10.4477 13 9.99999 12.5523 9.99999 12V5.5C9.99999 5.36739 9.94731 5.24021 9.85354 5.14645C9.75977 5.05268 9.6326 5 9.49999 5C9.36738 5 9.2402 5.05268 9.14643 5.14645C9.05267 5.24021 8.99999 5.36739 8.99999 5.5V13.5C8.99999 14.0523 8.55227 14.5 7.99999 14.5C7.99316 14.5 7.98635 14.4999 7.97955 14.4998C7.60663 14.5106 7.24271 14.3113 7.0607 13.9573L6.20369 12.2909C6.09603 12.1669 5.94766 12.0842 5.78419 12.0584C5.60076 12.0294 5.41334 12.0745 5.26316 12.1837C5.11298 12.293 5.01233 12.4574 4.98337 12.6408C4.95441 12.8242 4.9995 13.0116 5.10872 13.1618C5.13889 13.2033 5.16582 13.247 5.18928 13.2927L7.86481 18.4951C8.28971 19.1336 8.8833 19.6964 9.61295 20.1342C10.3404 20.5707 11.1796 20.8685 12.0709 21H14C15.3261 21 16.5978 20.4732 17.5355 19.5355C18.4732 18.5979 19 17.3261 19 16V7.5C19 7.36739 18.9473 7.24021 18.8535 7.14645C18.7598 7.05268 18.6326 7 18.5 7C18.3674 7 18.2402 7.05268 18.1464 7.14645C18.0527 7.24022 18 7.36739 18 7.5V12C18 12.5523 17.5523 13 17 13C16.4477 13 16 12.5523 16 12V5.5C16 5.36739 15.9473 5.24022 15.8535 5.14645C15.7598 5.05268 15.6326 5 15.5 5C15.3674 5 15.2402 5.05268 15.1464 5.14645C15.0527 5.24021 15 5.36739 15 5.5V12C15 12.5523 14.5523 13 14 13C13.4477 13 13 12.5523 13 12V3.5C13 3.36739 12.9473 3.24021 12.8535 3.14645C12.7598 3.05268 12.6326 3 12.5 3ZM14.9608 3.05884C14.8713 2.55968 14.6313 2.09575 14.2678 1.73223C13.7989 1.26339 13.163 1 12.5 1C11.8369 1 11.2011 1.26339 10.7322 1.73223C10.3687 2.09575 10.1287 2.55968 10.0392 3.05884C9.86349 3.02002 9.68277 3 9.49999 3C8.83695 3 8.20106 3.26339 7.73222 3.73223C7.26338 4.20107 6.99999 4.83696 6.99999 5.5V10.3973C6.72244 10.2409 6.41681 10.1335 6.09612 10.0829C5.38875 9.97117 4.66598 10.1451 4.08682 10.5663C3.50765 10.9875 3.11954 11.6215 3.00785 12.3289C2.90063 13.0079 3.05658 13.7012 3.44187 14.268L6.1107 19.4573C6.12627 19.4876 6.14337 19.5171 6.16194 19.5456C6.7655 20.4727 7.59714 21.2571 8.58395 21.8492C9.57056 22.4411 10.692 22.829 11.8633 22.9906C11.9086 22.9969 11.9543 23 12 23H14C15.8565 23 17.637 22.2625 18.9497 20.9497C20.2625 19.637 21 17.8565 21 16V7.5C21 6.83696 20.7366 6.20107 20.2678 5.73223C19.7989 5.26339 19.163 5 18.5 5C18.3172 5 18.1365 5.02002 17.9608 5.05884C17.8713 4.55968 17.6313 4.09575 17.2678 3.73223C16.7989 3.26339 16.163 3 15.5 3C15.3172 3 15.1365 3.02002 14.9608 3.05884Z" fill="black"/>
</svg>
