<svg width="24" height="24" viewBox="0 0 24 24" fill="none" xmlns="http://www.w3.org/2000/svg">
<path d="M8.01886 13.5V5.5C8.01886 5.10218 8.17665 4.72064 8.45751 4.43934C8.73837 4.15804 9.11931 4 9.51651 4C9.91371 4 10.2946 4.15804 10.5755 4.43934C10.8564 4.72064 11.0141 5.10218 11.0141 5.5M11.0141 5.5V12M11.0141 5.5V3.5C11.0141 3.10218 11.1719 2.72064 11.4528 2.43934C11.7337 2.15804 12.1146 2 12.5118 2C12.909 2 13.2899 2.15804 13.5708 2.43934C13.8516 2.72064 14.0094 3.10218 14.0094 3.5V5.5M14.0094 5.5V12M14.0094 5.5C14.0094 5.10218 14.1672 4.72064 14.4481 4.43934C14.7289 4.15804 15.1099 4 15.5071 4C15.9043 4 16.2852 4.15804 16.5661 4.43934C16.8469 4.72064 17.0047 5.10218 17.0047 5.5V7.5M17.0047 7.5V12M17.0047 7.5C17.0047 7.10218 17.1625 6.72064 17.4434 6.43934C17.7242 6.15804 18.1052 6 18.5024 6C18.8996 6 19.2805 6.15804 19.5614 6.43934C19.8422 6.72064 20 7.10218 20 7.5V16C20 17.5913 19.3689 19.1174 18.2454 20.2426C17.122 21.3679 15.5982 22 14.0094 22H12.0126C10.9706 21.856 9.98019 21.5113 9.1156 20.9917C8.25101 20.4721 7.5347 19.7912 7.02044 19L4.32468 13.75C4.05988 13.3853 3.95056 12.9302 4.02078 12.4848C4.091 12.0394 4.33499 11.6402 4.69909 11.375C5.06319 11.1098 5.51757 11.0003 5.96227 11.0706C6.40697 11.1409 6.80556 11.3853 7.07036 11.75L7.96894 13.5" stroke="black" stroke-width="2" stroke-linecap="round" stroke-linejoin="round"/>
</svg>
