<svg width="24" height="24" viewBox="0 0 24 24" fill="none" xmlns="http://www.w3.org/2000/svg">
<path d="M20 20H17C16.4477 20 16 19.5523 16 19V16M20 20L16 16M20 20L23 23M21 13V12C21 7.02944 16.9706 3 12 3C10.8144 3 9.68239 3.22924 8.64581 3.64581M21 13V16M21 13H18M3 13H7C7.55228 13 8 13.4477 8 14V19C8 19.5523 7.55228 20 7 20H4C3.44772 20 3 19.5523 3 19V13ZM3 13V12C3 9.51472 4.00736 7.26472 5.63604 5.63604M5.63604 5.63604L1 1M5.63604 5.63604L16 16" stroke="black" stroke-width="2" stroke-linecap="round" stroke-linejoin="round"/>
</svg>
