<svg width="24" height="24" viewBox="0 0 24 24" fill="none" xmlns="http://www.w3.org/2000/svg">
<path fill-rule="evenodd" clip-rule="evenodd" d="M20.243 4.75698C17.98 2.48998 14.35 2.41998 12.001 4.52898C9.64501 2.41698 6.02201 2.49298 3.75701 4.75698C1.49601 7.01898 1.41701 10.637 3.52101 12.993L11.999 21.485L20.479 12.993C22.583 10.637 22.505 7.02498 20.243 4.75698ZM13.337 6.01698C14.907 4.60698 17.327 4.66798 18.827 6.16998C20.319 7.66498 20.394 10.047 19.02 11.624L13 17.6526V17.236L14.8944 13.4472C15.1105 13.0149 14.9866 12.4899 14.6 12.2L11.2676 9.70072L12.8944 6.44719C12.9038 6.42851 12.9125 6.40968 12.9205 6.39072L13.337 6.01698ZM10.8089 6.14603L10.666 6.01798C9.09101 4.60598 6.67601 4.66798 5.17201 6.17198C3.68201 7.66198 3.60701 10.047 4.98001 11.623L11 17.6524V17C11 16.8447 11.0361 16.6916 11.1056 16.5528L12.7323 13.2992L9.39999 10.8C9.01336 10.51 8.88943 9.98503 9.10556 9.55276L10.8089 6.14603Z" fill="black"/>
</svg>
