<svg width="24" height="24" viewBox="0 0 24 24" fill="none" xmlns="http://www.w3.org/2000/svg">
<path fill-rule="evenodd" clip-rule="evenodd" d="M11.526 4.16802L5.54054 7.73136C5.53194 7.73648 5.52326 7.74148 5.5145 7.74634C5.3586 7.83292 5.22869 7.9596 5.13823 8.11328C5.04781 8.26688 5.00008 8.44186 5 8.6201C5 8.62018 5 8.62003 5 8.6201V15.1567C5.00019 15.3348 5.04795 15.5097 5.13836 15.6631C5.22882 15.8167 5.35868 15.9433 5.5145 16.0299C5.53244 16.0398 5.55006 16.0503 5.56736 16.0614L11.537 19.875C11.6798 19.9496 11.8386 19.9886 12 19.9886C12.1614 19.9886 12.3202 19.9496 12.463 19.875L18.4326 16.0614C18.4499 16.0503 18.4676 16.0398 18.4855 16.0299C18.6414 15.9433 18.7713 15.8166 18.8618 15.6629C18.9522 15.5093 18.9999 15.3343 19 15.1561C19 15.156 19 15.1562 19 15.1561V8.61265C19.0013 8.43584 18.9558 8.26185 18.8679 8.10841C18.7801 7.95496 18.6531 7.82754 18.5 7.73915C18.4454 7.7076 18.3947 7.67149 18.3481 7.63152L12.5319 4.16799C12.3776 4.08437 12.2047 4.04053 12.029 4.04053C11.8533 4.04053 11.6804 4.08438 11.526 4.16802ZM19.7079 6.13873C19.6574 6.09209 19.6015 6.05015 19.5406 6.01391L13.5407 2.44091C13.5323 2.43594 13.5239 2.43109 13.5154 2.42636C13.0608 2.17333 12.5492 2.04053 12.029 2.04053C11.5088 2.04053 10.9972 2.17333 10.5426 2.42636C10.5342 2.43107 10.5258 2.4359 10.5175 2.44085L4.52906 6.00594C4.06779 6.26544 3.68328 6.64241 3.41469 7.09868C3.1433 7.5597 3.00013 8.0849 3 8.61987V15.1571C3.00039 15.6918 3.1437 16.2174 3.41507 16.6782C3.68071 17.1292 4.05962 17.5026 4.51397 17.7617L10.4906 21.5798C10.5079 21.5909 10.5256 21.6014 10.5435 21.6113C10.9891 21.8588 11.4903 21.9886 12 21.9886C12.5097 21.9886 13.0109 21.8588 13.4565 21.6113C13.4744 21.6014 13.4921 21.5909 13.5094 21.5798L19.486 17.7617C19.9406 17.5025 20.3196 17.1288 20.5853 16.6775C20.8567 16.2165 20.9999 15.6913 21 15.1563V8.62333C21.0032 8.09438 20.8665 7.57396 20.6037 7.11484C20.381 6.72589 20.0746 6.39268 19.7079 6.13873Z" fill="black"/>
</svg>
