<svg width="24" height="24" viewBox="0 0 24 24" fill="none" xmlns="http://www.w3.org/2000/svg">
<path fill-rule="evenodd" clip-rule="evenodd" d="M11.2929 5.29286C12.2761 4.30967 13.6096 3.75732 15 3.75732C16.3904 3.75732 17.7239 4.30967 18.7071 5.29286C19.6903 6.27604 20.2426 7.60953 20.2426 8.99996C20.2426 10.3904 19.6903 11.7239 18.7071 12.7071L11.7071 19.7071C11.3166 20.0976 10.6834 20.0976 10.2929 19.7071L8 17.4142L4.70711 20.7071C4.31658 21.0976 3.68342 21.0976 3.29289 20.7071C2.90237 20.3165 2.90237 19.6834 3.29289 19.2929L6.58579 16L4.29289 13.7071C3.90237 13.3165 3.90237 12.6834 4.29289 12.2929L11.2929 5.29286ZM11 17.5858L17.2929 11.2929C17.901 10.6847 18.2426 9.85997 18.2426 8.99996C18.2426 8.13996 17.901 7.31518 17.2929 6.70707C16.6848 6.09896 15.86 5.75732 15 5.75732C14.14 5.75732 13.3152 6.09896 12.7071 6.70707L6.41421 13L11 17.5858Z" fill="black"/>
</svg>
