<svg width="24" height="24" viewBox="0 0 24 24" fill="none" xmlns="http://www.w3.org/2000/svg">
<path fill-rule="evenodd" clip-rule="evenodd" d="M3 3C3 2.44772 3.44772 2 4 2H9V4H5V14H19V4H15V2H20C20.5523 2 21 2.44772 21 3V21C21 21.5523 20.5523 22 20 22H4C3.44772 22 3 21.5523 3 21V3ZM19 16H5V20H19V16ZM11 6H9C8.59554 6 8.2309 6.24364 8.07612 6.61732C7.92134 6.99099 8.0069 7.42111 8.29289 7.70711L11.2929 10.7071C11.6834 11.0976 12.3166 11.0976 12.7071 10.7071L15.7071 7.70711C15.9931 7.42111 16.0787 6.99099 15.9239 6.61732C15.7691 6.24364 15.4045 6 15 6H13V2H11V6ZM17 19H15V17H17V19Z" fill="black"/>
</svg>
