<svg width="24" height="24" viewBox="0 0 24 24" fill="none" xmlns="http://www.w3.org/2000/svg">
<path fill-rule="evenodd" clip-rule="evenodd" d="M11.072 0.723766C11.4545 0.52709 11.8895 0.456944 12.3143 0.523442C12.7392 0.58994 13.132 0.789646 13.436 1.09377L22.906 10.5638C23.0945 10.7523 23.2441 10.9761 23.3461 11.2224C23.4482 11.4687 23.5007 11.7327 23.5007 11.9993C23.5007 12.2659 23.4482 12.5299 23.3461 12.7762C23.2441 13.0225 23.0945 13.2463 22.906 13.4348L13.436 22.9048C13.2475 23.0934 13.0236 23.2431 12.7772 23.3452C12.5308 23.4473 12.2667 23.4999 12 23.4999C11.7333 23.4999 11.4692 23.4473 11.2228 23.3452C10.9764 23.2431 10.7525 23.0934 10.564 22.9048L1.09402 13.4348C0.713587 13.0541 0.499878 12.5379 0.499878 11.9998C0.499878 11.4616 0.713587 10.9454 1.09402 10.5648L10.564 1.09477C10.716 0.941766 10.888 0.818766 11.072 0.723766ZM12.086 2.57277C11.6079 3.36706 11.4093 4.29849 11.5218 5.21874C11.6343 6.13898 12.0516 6.99511 12.707 7.65077L16.349 11.2928C16.5365 11.4803 16.6418 11.7346 16.6418 11.9998C16.6418 12.2649 16.5365 12.5192 16.349 12.7068L13.357 15.6998C14.0529 16.6681 14.4512 17.8184 14.503 19.0098L21.491 12.0218C21.4941 12.019 21.4965 12.0156 21.4981 12.0118C21.4996 12.008 21.5003 12.0039 21.5 11.9998C21.5001 11.9957 21.4994 11.9916 21.498 11.9878C21.4964 11.984 21.494 11.9806 21.491 11.9778L12.086 2.57277ZM11.914 21.4268C12.3922 20.6325 12.5908 19.701 12.4782 18.7808C12.3657 17.8606 11.9485 17.0044 11.293 16.3488L7.65002 12.7068C7.46255 12.5192 7.35724 12.2649 7.35724 11.9998C7.35724 11.7346 7.46255 11.4803 7.65002 11.2928L10.643 8.29977C9.94716 7.33141 9.5489 6.18109 9.49702 4.98977L2.51002 11.9788C2.50698 11.9815 2.50459 11.985 2.50302 11.9888C2.50137 11.9922 2.50036 11.9959 2.50002 11.9998L2.50202 12.0118L2.50902 12.0218L11.914 21.4268ZM12 9.77177L9.77203 11.9998L12 14.2278L14.228 11.9998L12 9.77177Z" fill="black"/>
</svg>
