<svg width="24" height="24" viewBox="0 0 24 24" fill="none" xmlns="http://www.w3.org/2000/svg">
<path d="M4.342 1.4082L22.373 19.4402C22.6544 19.7215 22.8125 20.103 22.8126 20.5009C22.8127 20.8987 22.6548 21.2803 22.3735 21.5617C22.0922 21.8431 21.7107 22.0012 21.3129 22.0013C20.915 22.0014 20.5334 21.8435 20.252 21.5622L15.656 16.9652L12.12 20.5002L4.342 12.7222C2.87208 11.2525 2.03191 9.26834 1.99944 7.18995C1.96696 5.11156 2.74472 3.10213 4.168 1.5872L4.342 1.4082ZM4.583 4.4782L4.532 4.5882C4.04709 5.66026 3.88781 6.85115 4.07395 8.01296C4.26009 9.17477 4.78344 10.2563 5.579 11.1232L5.756 11.3082L12.119 17.6712L14.948 14.8432L4.583 4.4782Z" fill="black"/>
</svg>
