<svg width="24" height="24" viewBox="0 0 24 24" fill="none" xmlns="http://www.w3.org/2000/svg">
<path d="M4.34199 1.4082L22.373 19.4402C22.6544 19.7215 22.8125 20.103 22.8126 20.5009C22.8127 20.8987 22.6548 21.2803 22.3735 21.5617C22.0922 21.8431 21.7107 22.0012 21.3128 22.0013C20.915 22.0014 20.5334 21.8435 20.252 21.5622L15.656 16.9652L12.12 20.5002L7.99999 16.3802V19.0002C7.99999 19.2654 7.89464 19.5198 7.7071 19.7073C7.51956 19.8948 7.26521 20.0002 6.99999 20.0002C6.73478 20.0002 6.48042 19.8948 6.29289 19.7073C6.10535 19.5198 5.99999 19.2654 5.99999 19.0002V15.0002C5.99971 14.7453 5.90212 14.5002 5.72715 14.3148C5.55218 14.1295 5.31304 14.018 5.0586 14.003C4.80416 13.9881 4.55362 14.0709 4.35816 14.2345C4.16271 14.3981 4.0371 14.6301 4.00699 14.8832L3.99999 15.0002V16.0002C3.99999 16.2654 3.89464 16.5198 3.7071 16.7073C3.51956 16.8948 3.26521 17.0002 2.99999 17.0002C2.73478 17.0002 2.48042 16.8948 2.29289 16.7073C2.10535 16.5198 1.99999 16.2654 1.99999 16.0002V7.2142C1.95845 5.1271 2.73681 3.10689 4.16799 1.5872L4.34199 1.4082ZM4.58299 4.4782L4.53199 4.5882C4.23166 5.25166 4.05477 5.96431 4.00999 6.6912L3.99999 7.0002L3.99899 7.1202C4.01103 8.6043 4.57414 10.031 5.57899 11.1232L5.75599 11.3082L12.119 17.6712L14.948 14.8432L4.58299 4.4782Z" fill="black"/>
</svg>
