<svg width="24" height="24" viewBox="0 0 24 24" fill="none" xmlns="http://www.w3.org/2000/svg">
<path fill-rule="evenodd" clip-rule="evenodd" d="M5 5V9.58579L9.58579 5H5ZM12.4142 5L5 12.4142V17.5858L17.5858 5H12.4142ZM6.41421 19H17.5858L12 13.4142L6.41421 19ZM13.4142 12L20.7071 4.70711C20.9931 4.42111 21.0787 3.99099 20.9239 3.61732C20.7691 3.24364 20.4045 3 20 3H4C3.44772 3 3 3.44772 3 4V20C3 20.5523 3.44772 21 4 21H20C20.4045 21 20.7691 20.7564 20.9239 20.3827C21.0787 20.009 20.9931 19.5789 20.7071 19.2929L13.4142 12Z" fill="black"/>
</svg>
