<svg width="24" height="24" viewBox="0 0 24 24" fill="none" xmlns="http://www.w3.org/2000/svg">
<path d="M21.7485 11.1497C21.6204 11.0093 20.7009 9.8654 20.2052 9.24892C19.9415 8.92119 19.7333 8.66227 19.6458 8.55489L19.6388 8.54614L19.631 8.53778C19.4271 8.30591 19.1372 8.04023 18.7021 8.04023C18.6313 8.04116 18.5607 8.047 18.4908 8.05773C18.4763 8.05972 18.4615 8.0621 18.4458 8.06369C18.3501 8.07443 18.0529 8.12335 17.3466 8.24187C16.7998 8.33295 15.9752 8.47136 15.8502 8.4833L15.8224 8.48568L15.7955 8.49085C15.4049 8.56165 15.1463 8.73824 15.0314 9.01545C14.9709 9.16182 14.9057 9.45892 15.1463 9.80534C15.2061 9.89364 15.4131 10.1856 15.7689 10.6871C16.0056 11.0212 16.2717 11.3959 16.5013 11.7212L12.1522 12.7557L7.88507 5.63835L7.87726 5.62483L7.86827 5.6117L7.85108 5.58585C7.67648 5.32494 7.45929 5 6.83196 5C6.78782 5 6.74172 5 6.69016 5.00438C6.51048 5.01432 5.85346 5.06682 5.09292 5.12807C4.25348 5.19528 3.10467 5.28716 2.95545 5.29114H2.92694L2.89608 5.29432C2.53905 5.32972 2.28007 5.47727 2.12656 5.73182C1.8707 6.15699 2.07109 6.63426 2.13672 6.79097C2.26835 7.10795 3.46716 9.68125 4.52457 11.9527C5.22768 13.4616 5.95346 15.0219 6.01283 15.1603C6.11724 15.4189 6.29599 15.6393 6.52562 15.7925C6.75525 15.9457 7.02503 16.0247 7.29953 16.019C7.42908 16.0184 7.55819 16.0038 7.68468 15.9753H7.69288L7.7007 15.9733C8.24209 15.8389 9.95965 15.395 11.185 15.0748C11.2592 15.2069 11.3374 15.3465 11.4194 15.4901C12.276 17.0213 12.8998 18.129 13.1053 18.4118C13.2108 18.5625 13.5233 19 14.1115 19C14.3248 19 14.5201 18.9443 14.7264 18.8851L14.7861 18.868H14.7908C15.2021 18.7486 20.6771 16.7934 20.9575 16.6665L20.9661 16.6626C21.1786 16.5667 21.4997 16.4219 21.5981 16.0501C21.6626 15.8066 21.6052 15.5597 21.4271 15.3159L21.4243 15.3123L21.4216 15.3087C21.3884 15.2649 21.2653 15.1015 21.0985 14.8752C20.7419 14.3951 20.1657 13.6195 19.6595 12.9446C20.338 12.7656 21.1751 12.5425 21.354 12.4852C21.802 12.3488 21.9376 12.0601 21.979 11.8994C22.0099 11.7741 22.0501 11.4539 21.7485 11.1497ZM9.24872 13.464C8.55303 13.6299 8.06827 13.7456 7.76866 13.818C7.50812 13.2874 6.99758 12.241 6.49915 11.2197C5.33745 8.83648 4.73746 7.60949 4.42184 6.96795L4.74019 6.94011C5.26128 6.89437 5.97494 6.83193 6.3722 6.79812C7.02688 7.9221 9.27528 11.7816 10.1339 13.2532L9.24872 13.464ZM16.208 16.1145C15.2623 16.4327 14.7498 16.6065 14.4729 16.7007C14.2268 16.2895 13.6854 15.3676 13.2045 14.5455L17.724 13.373C17.9193 13.6438 18.2931 14.1573 19.031 15.1599C18.3251 15.4002 17.1482 15.7971 16.208 16.1145ZM18.3904 11.2769L17.4623 10.0229C17.9962 9.92784 18.3037 9.87295 18.4837 9.83994L18.9525 10.4318L19.4189 11.0212C19.0986 11.1003 18.7259 11.193 18.3904 11.2769Z" fill="black"/>
</svg>
