<svg width="24" height="24" viewBox="0 0 24 24" fill="none" xmlns="http://www.w3.org/2000/svg">
<path fill-rule="evenodd" clip-rule="evenodd" d="M4.06189 11H19.9381C19.8032 9.91806 19.4522 8.90321 18.9297 8H5.07026C4.54778 8.90321 4.19681 9.91806 4.06189 11ZM6.70835 6H17.2916C15.8814 4.75527 14.0289 4 12 4C9.97111 4 8.11862 4.75527 6.70835 6ZM19.9381 13H4.06189C4.19681 14.0819 4.54778 15.0968 5.07026 16H18.9297C19.4522 15.0968 19.8032 14.0819 19.9381 13ZM17.2916 18H6.70835C8.11862 19.2447 9.97111 20 12 20C14.0289 20 15.8814 19.2447 17.2916 18ZM2 12C2 6.47715 6.47715 2 12 2C17.5228 2 22 6.47715 22 12C22 17.5228 17.5228 22 12 22C6.47715 22 2 17.5228 2 12Z" fill="black"/>
</svg>
