<svg width="24" height="24" viewBox="0 0 24 24" fill="none" xmlns="http://www.w3.org/2000/svg">
<path d="M9.1875 10.8889H9.19875M14.8125 10.8889H14.8238M9.1875 15.3333C9.55411 15.7029 9.9917 15.9965 10.4746 16.1969C10.9576 16.3973 11.4762 16.5006 12 16.5006C12.5238 16.5006 13.0424 16.3973 13.5254 16.1969C14.0083 15.9965 14.4459 15.7029 14.8125 15.3333M6.375 4.22222H7.5V2H16.5V4.22222H17.625C18.5201 4.22222 19.3786 4.57341 20.0115 5.19853C20.6444 5.82365 21 6.6715 21 7.55556V17.5556C21 18.4396 20.6444 19.2875 20.0115 19.9126C19.3786 20.5377 18.5201 20.8889 17.625 20.8889V22H6.375V20.8889C5.47989 20.8889 4.62145 20.5377 3.98851 19.9126C3.35558 19.2875 3 18.4396 3 17.5556V7.55556C3 6.6715 3.35558 5.82365 3.98851 5.19853C4.62145 4.57341 5.47989 4.22222 6.375 4.22222Z" stroke="black" stroke-width="2" stroke-linecap="round" stroke-linejoin="round"/>
</svg>
