<svg width="24" height="24" viewBox="0 0 24 24" fill="none" xmlns="http://www.w3.org/2000/svg">
<path fill-rule="evenodd" clip-rule="evenodd" d="M3 5C3 4.44772 3.44772 4 4 4H8C8.55228 4 9 4.44772 9 5V9C9 9.55228 8.55228 10 8 10H4C3.44772 10 3 9.55228 3 9V5ZM5 6V8H7V6H5ZM21 6H11V4H21V6ZM17 10H11V8H17V10Z" fill="black"/>
<path fill-rule="evenodd" clip-rule="evenodd" d="M3 15C3 14.4477 3.44772 14 4 14H8C8.55228 14 9 14.4477 9 15V19C9 19.5523 8.55228 20 8 20H4C3.44772 20 3 19.5523 3 19V15ZM5 16V18H7V16H5ZM21 16H11V14H21V16ZM17 20H11V18H17V20Z" fill="black"/>
</svg>
