<svg width="24" height="24" viewBox="0 0 24 24" fill="none" xmlns="http://www.w3.org/2000/svg">
<path d="M16.0023 20.1005V20.1105M19.2246 17.6019V17.6119M21 13.9939V14.0039M21 9.99611V10.0061M19.2246 6.38812V6.39811M16.0023 3.88951V3.8995M12 3V3.00999M7.99772 3.88951V3.8995M4.77537 6.38812V6.39811M3 9.99611V10.0061M3 13.9939V14.0039M4.77537 17.6019V17.6119M7.99772 20.1005V20.1105M12 20.99V21M13.0262 11.995C13.0262 12.547 12.5668 12.9944 12 12.9944C11.4332 12.9944 10.9738 12.547 10.9738 11.995C10.9738 11.443 11.4332 10.9956 12 10.9956C12.5668 10.9956 13.0262 11.443 13.0262 11.995ZM17.1311 11.995C17.1311 14.7549 14.8338 16.9922 12 16.9922C9.16616 16.9922 6.86887 14.7549 6.86887 11.995C6.86887 9.23511 9.16616 6.99778 12 6.99778C14.8338 6.99778 17.1311 9.23511 17.1311 11.995Z" stroke="black" stroke-width="2" stroke-linecap="round" stroke-linejoin="round"/>
</svg>
