<svg width="24" height="24" viewBox="0 0 24 24" fill="none" xmlns="http://www.w3.org/2000/svg">
<path fill-rule="evenodd" clip-rule="evenodd" d="M12 2C12.5523 2 13 2.44772 13 3V3.01C13 3.56228 12.5523 4.01 12 4.01C11.4477 4.01 11 3.56228 11 3.01V3C11 2.44772 11.4477 2 12 2ZM8.10001 2.89C8.6523 2.89 9.10001 3.33772 9.10001 3.89V3.9C9.10001 4.45228 8.6523 4.9 8.10001 4.9C7.54773 4.9 7.10001 4.45228 7.10001 3.9V3.89C7.10001 3.33772 7.54773 2.89 8.10001 2.89ZM15.9 2.89C16.4523 2.89 16.9 3.33772 16.9 3.89V3.9C16.9 4.45228 16.4523 4.9 15.9 4.9C15.3477 4.9 14.9 4.45228 14.9 3.9V3.89C14.9 3.33772 15.3477 2.89 15.9 2.89ZM4.96001 5.39C5.5123 5.39 5.96001 5.83772 5.96001 6.39V6.4C5.96001 6.95228 5.5123 7.4 4.96001 7.4C4.40773 7.4 3.96001 6.95228 3.96001 6.4V6.39C3.96001 5.83772 4.40773 5.39 4.96001 5.39ZM19.04 5.39C19.5923 5.39 20.04 5.83772 20.04 6.39V6.4C20.04 6.95228 19.5923 7.4 19.04 7.4C18.4877 7.4 18.04 6.95228 18.04 6.4V6.39C18.04 5.83772 18.4877 5.39 19.04 5.39ZM12 8C9.79087 8 8.00001 9.79086 8.00001 12C8.00001 14.2091 9.79087 16 12 16C14.2092 16 16 14.2091 16 12C16 9.79086 14.2092 8 12 8ZM6.00001 12C6.00001 8.68629 8.6863 6 12 6C15.3137 6 18 8.68629 18 12C18 15.3137 15.3137 18 12 18C8.6863 18 6.00001 15.3137 6.00001 12ZM3.23001 9C3.7823 9 4.23001 9.44772 4.23001 10V10.01C4.23001 10.5623 3.7823 11.01 3.23001 11.01C2.67773 11.01 2.23001 10.5623 2.23001 10.01V10C2.23001 9.44772 2.67773 9 3.23001 9ZM20.77 9C21.3223 9 21.77 9.44772 21.77 10V10.01C21.77 10.5623 21.3223 11.01 20.77 11.01C20.2177 11.01 19.77 10.5623 19.77 10.01V10C19.77 9.44772 20.2177 9 20.77 9ZM10 12C10 10.8954 10.8954 10 12 10C13.1046 10 14 10.8954 14 12C14 13.1046 13.1046 14 12 14C10.8954 14 10 13.1046 10 12ZM3.23001 13C3.7823 13 4.23001 13.4477 4.23001 14V14.01C4.23001 14.5623 3.7823 15.01 3.23001 15.01C2.67773 15.01 2.23001 14.5623 2.23001 14.01V14C2.23001 13.4477 2.67773 13 3.23001 13ZM20.77 13C21.3223 13 21.77 13.4477 21.77 14V14.01C21.77 14.5623 21.3223 15.01 20.77 15.01C20.2177 15.01 19.77 14.5623 19.77 14.01V14C19.77 13.4477 20.2177 13 20.77 13ZM4.96001 16.61C5.5123 16.61 5.96001 17.0577 5.96001 17.61V17.62C5.96001 18.1723 5.5123 18.62 4.96001 18.62C4.40773 18.62 3.96001 18.1723 3.96001 17.62V17.61C3.96001 17.0577 4.40773 16.61 4.96001 16.61ZM19.04 16.61C19.5923 16.61 20.04 17.0577 20.04 17.61V17.62C20.04 18.1723 19.5923 18.62 19.04 18.62C18.4877 18.62 18.04 18.1723 18.04 17.62V17.61C18.04 17.0577 18.4877 16.61 19.04 16.61ZM8.10001 19.11C8.6523 19.11 9.10001 19.5577 9.10001 20.11V20.12C9.10001 20.6723 8.6523 21.12 8.10001 21.12C7.54773 21.12 7.10001 20.6723 7.10001 20.12V20.11C7.10001 19.5577 7.54773 19.11 8.10001 19.11ZM15.9 19.11C16.4523 19.11 16.9 19.5577 16.9 20.11V20.12C16.9 20.6723 16.4523 21.12 15.9 21.12C15.3477 21.12 14.9 20.6723 14.9 20.12V20.11C14.9 19.5577 15.3477 19.11 15.9 19.11ZM12 20C12.5523 20 13 20.4477 13 21V21.01C13 21.5623 12.5523 22.01 12 22.01C11.4477 22.01 11 21.5623 11 21.01V21C11 20.4477 11.4477 20 12 20Z" fill="black"/>
</svg>
