<svg width="24" height="24" viewBox="0 0 24 24" fill="none" xmlns="http://www.w3.org/2000/svg">
<path fill-rule="evenodd" clip-rule="evenodd" d="M11.2719 2.02617C6.08896 2.39911 2 6.72207 2 12.0001C2 17.2781 6.08896 21.601 11.2719 21.974C11.3864 22.0007 11.504 22.0068 11.6191 21.9929C11.7455 21.9977 11.8725 22.0001 12 22.0001C12.1275 22.0001 12.2545 21.9977 12.3809 21.9929C12.496 22.0068 12.6136 22.0007 12.7281 21.974C17.911 21.601 22 17.2781 22 12.0001C22 6.72207 17.911 2.39911 12.7281 2.02617C12.6136 1.9994 12.496 1.99335 12.3809 2.00718C12.2545 2.00245 12.1275 2.00006 12 2.00006C11.8725 2.00006 11.7455 2.00245 11.6191 2.00718C11.504 1.99335 11.3864 1.9994 11.2719 2.02617ZM11 4.74171C10.2139 5.51788 9.55672 6.41892 9.05685 7.41124C8.33982 8.83464 7.96633 10.4063 7.96633 12.0001C7.96633 13.5939 8.33982 15.1655 9.05685 16.5889C9.55672 17.5812 10.2139 18.4822 11 19.2584V4.74171ZM8.20588 19.0449C7.85695 18.5515 7.54414 18.0315 7.27067 17.4887C6.41306 15.7862 5.96633 13.9064 5.96633 12.0001C5.96633 10.0938 6.41306 8.21397 7.27067 6.51148C7.54414 5.96861 7.85695 5.44859 8.20588 4.95525C5.7016 6.30682 4 8.95473 4 12.0001C4 15.0454 5.7016 17.6933 8.20588 19.0449ZM15.7941 19.0449C18.2984 17.6933 20 15.0454 20 12.0001C20 8.95473 18.2984 6.30682 15.7941 4.95525C16.143 5.44858 16.4559 5.96861 16.7293 6.51148C17.5869 8.21397 18.0337 10.0938 18.0337 12.0001C18.0337 13.9064 17.5869 15.7862 16.7293 17.4887C16.4559 18.0315 16.143 18.5515 15.7941 19.0449ZM13 19.2584C13.7861 18.4822 14.4433 17.5812 14.9432 16.5889C15.6602 15.1655 16.0337 13.5939 16.0337 12.0001C16.0337 10.4063 15.6602 8.83464 14.9432 7.41124C14.4433 6.41892 13.7861 5.51788 13 4.74171V19.2584Z" fill="black"/>
</svg>
