<svg width="24" height="24" viewBox="0 0 24 24" fill="none" xmlns="http://www.w3.org/2000/svg">
<path fill-rule="evenodd" clip-rule="evenodd" d="M6 4C5.73478 4 5.48043 4.10536 5.29289 4.29289C5.10536 4.48043 5 4.73478 5 5V7H8V5C8 4.73478 7.89464 4.48043 7.70711 4.29289C7.51957 4.10536 7.26522 4 7 4H6ZM10 5C10 4.20435 9.68393 3.44129 9.12132 2.87868C8.55871 2.31607 7.79565 2 7 2H6C5.20435 2 4.44129 2.31607 3.87868 2.87868C3.31607 3.44129 3 4.20435 3 5V13C3 15.3869 3.94821 17.6761 5.63604 19.364C7.32387 21.0518 9.61305 22 12 22C14.3869 22 16.6761 21.0518 18.364 19.364C20.0518 17.6761 21 15.3869 21 13V5C21 4.20435 20.6839 3.44129 20.1213 2.87868C19.5587 2.31607 18.7956 2 18 2H17C16.2044 2 15.4413 2.31607 14.8787 2.87868C14.3161 3.44129 14 4.20435 14 5V13C14 13.5304 13.7893 14.0391 13.4142 14.4142C13.0391 14.7893 12.5304 15 12 15C11.4696 15 10.9609 14.7893 10.5858 14.4142C10.2107 14.0391 10 13.5304 10 13V5ZM8 9H5V13C5 14.8565 5.7375 16.637 7.05025 17.9497C8.36301 19.2625 10.1435 20 12 20C13.8565 20 15.637 19.2625 16.9497 17.9497C18.2625 16.637 19 14.8565 19 13V9H16V13C16 14.0609 15.5786 15.0783 14.8284 15.8284C14.0783 16.5786 13.0609 17 12 17C10.9391 17 9.92172 16.5786 9.17157 15.8284C8.42143 15.0783 8 14.0609 8 13V9ZM16 7H19V5C19 4.73478 18.8946 4.48043 18.7071 4.29289C18.5196 4.10536 18.2652 4 18 4H17C16.7348 4 16.4804 4.10536 16.2929 4.29289C16.1054 4.48043 16 4.73478 16 5V7Z" fill="black"/>
</svg>
