<svg width="24" height="24" viewBox="0 0 24 24" fill="none" xmlns="http://www.w3.org/2000/svg">
<path fill-rule="evenodd" clip-rule="evenodd" d="M11.4453 2.16795C11.7812 1.94402 12.2188 1.94402 12.5547 2.16795L21.5547 8.16795C21.8329 8.35342 22 8.66565 22 9V21C22 21.5523 21.5523 22 21 22H3C2.44772 22 2 21.5523 2 21V9C2 8.66565 2.1671 8.35342 2.4453 8.16795L11.4453 2.16795ZM4 10.8685V20H20V10.8685L12.5547 15.8321C12.2188 16.056 11.7812 16.056 11.4453 15.8321L4 10.8685ZM19.1972 9L12 13.7982L4.80278 9L12 4.20185L19.1972 9Z" fill="black"/>
</svg>
