<svg width="24" height="24" viewBox="0 0 24 24" fill="none" xmlns="http://www.w3.org/2000/svg">
<path fill-rule="evenodd" clip-rule="evenodd" d="M12 4C11.4477 4 11 4.44772 11 5C11 5.55228 11.4477 6 12 6C12.5523 6 13 5.55228 13 5C13 4.44772 12.5523 4 12 4ZM9 5C9 3.34315 10.3431 2 12 2C13.6569 2 15 3.34315 15 5C15 6.65685 13.6569 8 12 8C10.3431 8 9 6.65685 9 5ZM8.58579 10.5858C8.96086 10.2107 9.46957 10 10 10H14C14.5304 10 15.0391 10.2107 15.4142 10.5858C15.7893 10.9609 16 11.4696 16 12V16C16 16.2652 15.8946 16.5196 15.7071 16.7071L15 17.4142V22C15 22.5523 14.5523 23 14 23C13.4477 23 13 22.5523 13 22V17C13 16.7348 13.1054 16.4804 13.2929 16.2929L14 15.5858V12H10L10 15.5858L10.7071 16.2929C10.8946 16.4804 11 16.7348 11 17V22C11 22.5523 10.5523 23 10 23C9.44772 23 9 22.5523 9 22V17.4142L8.29289 16.7071C8.10536 16.5196 8 16.2652 8 16V12C8 11.4696 8.21071 10.9609 8.58579 10.5858Z" fill="black"/>
</svg>
