<svg width="24" height="24" viewBox="0 0 24 24" fill="none" xmlns="http://www.w3.org/2000/svg">
<path d="M20.8271 11.7558C20.5452 13.1728 19.9274 14.4962 19.0316 15.6175L17.6062 14.1921C18.2291 13.3591 18.661 12.3941 18.8656 11.3658C19.1356 10.0079 18.9969 8.60052 18.4671 7.32148C17.9373 6.04244 17.04 4.94923 15.8889 4.18009C14.7378 3.41095 13.3844 3.00043 12 3.00043C10.6156 3.00043 9.26222 3.41095 8.11109 4.18009C8.00811 4.24889 7.90717 4.32029 7.80834 4.39418L6.38252 2.96836C6.58127 2.80958 6.78721 2.65887 6.99988 2.51677C8.47992 1.52784 10.22 1 12 1C13.78 1 15.5201 1.52784 17.0001 2.51677C18.4802 3.50569 19.6337 4.91129 20.3149 6.55582C20.9961 8.20035 21.1743 10.0099 20.8271 11.7558Z" fill="black"/>
<path fill-rule="evenodd" clip-rule="evenodd" d="M16.6568 18.0711L21.2929 22.7072L22.7071 21.293L2.70712 1.29297L1.29291 2.70718L4.16214 5.57642C3.98413 5.89183 3.82469 6.21881 3.6851 6.55582C3.00391 8.20035 2.82567 10.0099 3.17293 11.7558C3.52019 13.5016 4.37734 15.1052 5.636 16.3639L12 22.7279L16.6568 18.0711ZM15.2428 16.6571L12 19.8999L7.05 14.9499C6.07111 13.9709 5.40449 12.7236 5.13445 11.3658C4.86442 10.0079 5.00308 8.60052 5.53292 7.32148C5.56922 7.23384 5.60724 7.14708 5.64696 7.06123L8.0377 9.45197C8.01273 9.63253 8 9.81557 8 9.99992C8 11.0608 8.42143 12.0782 9.17158 12.8283C9.92172 13.5785 10.9391 13.9999 12 13.9999C12.1844 13.9999 12.3674 13.9872 12.548 13.9622L15.2428 16.6571Z" fill="black"/>
<path d="M16 9.99992C16 10.7206 15.8055 11.4211 15.4457 12.0315L13.9318 10.5177C13.9767 10.3502 14 10.1763 14 9.99992C14 9.46949 13.7893 8.96078 13.4142 8.58571C13.0391 8.21064 12.5304 7.99992 12 7.99992C11.8236 7.99992 11.6497 8.02321 11.4822 8.0681L9.9684 6.55425C10.5788 6.19438 11.2794 5.99992 12 5.99992C13.0609 5.99992 14.0783 6.42135 14.8284 7.17149C15.5786 7.92164 16 8.93906 16 9.99992Z" fill="black"/>
</svg>
