<svg width="24" height="24" viewBox="0 0 24 24" fill="none" xmlns="http://www.w3.org/2000/svg">
<path d="M9.975 8.97488C10.4645 8.48539 10.7978 7.86174 10.9328 7.18282C11.0678 6.5039 10.9985 5.80018 10.7335 5.16066C10.4686 4.52114 10.02 3.97454 9.44446 3.58997C8.8689 3.2054 8.19222 3.00014 7.5 3.00014C6.80778 3.00014 6.13111 3.2054 5.55554 3.58997C4.97998 3.97454 4.53138 4.52114 4.26646 5.16066C4.00154 5.80018 3.93221 6.5039 4.06723 7.18282C4.20225 7.86174 4.53555 8.48539 5.025 8.97488L7.5 11.4499L9.975 8.97488ZM7.5 14.2779L3.61 10.3899C2.84107 9.62059 2.3175 8.64058 2.10549 7.57376C1.89349 6.50693 2.00255 5.4012 2.41891 4.39635C2.83527 3.39151 3.54022 2.53268 4.44463 1.92845C5.34905 1.32421 6.41232 1.00171 7.5 1.00171C8.58769 1.00171 9.65096 1.32421 10.5554 1.92845C11.4598 2.53268 12.1647 3.39151 12.5811 4.39635C12.9975 5.4012 13.1065 6.50693 12.8945 7.57376C12.6825 8.64058 12.1589 9.62059 11.39 10.3899L7.5 14.2799V14.2779ZM7.5 7.99988C7.10218 7.99988 6.72065 7.84185 6.43934 7.56054C6.15804 7.27924 6 6.89771 6 6.49988C6 6.10206 6.15804 5.72053 6.43934 5.43922C6.72065 5.15792 7.10218 4.99988 7.5 4.99988C7.89783 4.99988 8.27936 5.15792 8.56066 5.43922C8.84197 5.72053 9 6.10206 9 6.49988C9 6.89771 8.84197 7.27924 8.56066 7.56054C8.27936 7.84185 7.89783 7.99988 7.5 7.99988ZM16.5 20.4499L18.975 17.9749C19.4645 17.4854 19.7978 16.8617 19.9328 16.1828C20.0678 15.5039 19.9985 14.8002 19.7335 14.1607C19.4686 13.5211 19.02 12.9745 18.4445 12.59C17.8689 12.2054 17.1922 12.0001 16.5 12.0001C15.8078 12.0001 15.1311 12.2054 14.5555 12.59C13.98 12.9745 13.5314 13.5211 13.2665 14.1607C13.0015 14.8002 12.9322 15.5039 13.0672 16.1828C13.2022 16.8617 13.5356 17.4854 14.025 17.9749L16.5 20.4499ZM20.39 19.3899L16.5 23.2779L12.61 19.3889C11.8411 18.6196 11.3175 17.6396 11.1055 16.5728C10.8935 15.5059 11.0026 14.4002 11.4189 13.3954C11.8353 12.3905 12.5402 11.5317 13.4446 10.9274C14.349 10.3232 15.4123 10.0007 16.5 10.0007C17.5877 10.0007 18.651 10.3232 19.5554 10.9274C20.4598 11.5317 21.1647 12.3905 21.5811 13.3954C21.9974 14.4002 22.1065 15.5059 21.8945 16.5728C21.6825 17.6396 21.1589 18.6196 20.39 19.3889V19.3899ZM16.5 16.9999C16.1022 16.9999 15.7206 16.8418 15.4393 16.5605C15.158 16.2792 15 15.8977 15 15.4999C15 15.1021 15.158 14.7205 15.4393 14.4392C15.7206 14.1579 16.1022 13.9999 16.5 13.9999C16.8978 13.9999 17.2794 14.1579 17.5607 14.4392C17.842 14.7205 18 15.1021 18 15.4999C18 15.8977 17.842 16.2792 17.5607 16.5605C17.2794 16.8418 16.8978 16.9999 16.5 16.9999Z" fill="black"/>
</svg>
