<svg width="24" height="24" viewBox="0 0 24 24" fill="none" xmlns="http://www.w3.org/2000/svg">
<path d="M12 14C10.3431 14 9 12.6568 9 11C9 10.4278 9.16017 9.89306 9.43812 9.43812M2 2L5.83079 5.83079M23 23L16.9689 16.9689M5.83079 5.83079C5.3276 6.42431 4.91477 7.09037 4.60901 7.80917C4.00349 9.23261 3.84504 10.7989 4.15369 12.3101C4.46234 13.8212 5.22422 15.2093 6.343 16.2988L10.587 20.4305C10.962 20.7953 11.4704 21.0002 12.0005 21.0002C12.5306 21.0002 13.039 20.7953 13.414 20.4305L16.9689 16.9689M5.83079 5.83079L9.43812 9.43812M8.69577 3.69577C9.7292 3.23938 10.8553 3.00024 12 3.00024C13.5822 3.00024 15.1289 3.45712 16.4445 4.3131C17.7601 5.16908 18.7855 6.38572 19.391 7.80917C19.9965 9.23261 20.155 10.7989 19.8463 12.3101C19.7268 12.8952 19.5393 13.4619 19.2895 14M16.9689 16.9689L9.43812 9.43812" stroke="black" stroke-width="2" stroke-linecap="round" stroke-linejoin="round"/>
</svg>
