<svg width="24" height="24" viewBox="0 0 24 24" fill="none" xmlns="http://www.w3.org/2000/svg">
<path d="M13.414 20.4305L17.657 16.2988C18.7758 15.2093 19.5377 13.8212 19.8463 12.3101C20.155 10.7989 19.9965 9.23261 19.391 7.80917C18.7855 6.38572 17.7601 5.16908 16.4445 4.3131C15.1289 3.45712 13.5822 3.00024 12 3.00024C10.4178 3.00024 8.87107 3.45712 7.55548 4.3131C6.2399 5.16908 5.21452 6.38572 4.60901 7.80917C4.00349 9.23261 3.84504 10.7989 4.15369 12.3101C4.46234 13.8212 5.22422 15.2093 6.343 16.2988L10.587 20.4305C10.962 20.7953 11.4704 21.0002 12.0005 21.0002C12.5306 21.0002 13.039 20.7953 13.414 20.4305Z" stroke="black" stroke-width="2" stroke-linecap="round" stroke-linejoin="round"/>
</svg>
