<svg width="24" height="24" viewBox="0 0 24 24" fill="none" xmlns="http://www.w3.org/2000/svg">
<path d="M20 8V6L12 4L9.6 4.6M20 8V12M20 8H23V12.5C23 13.3284 22.3284 14 21.5 14H20V12M20 12C20 12.8804 19.8104 13.7165 19.4697 14.4697M4 12V14H2.5C1.67157 14 1 13.3284 1 12.5V8H4M4 12V8M4 12C4 14.087 5.06551 15.9251 6.6822 17L12 20L17.1146 17.1146M4 8V6L5.6 5.6M5.6 5.6L1 1M5.6 5.6L17.1146 17.1146M17.1146 17.1146L23 23" stroke="black" stroke-width="2" stroke-linecap="round" stroke-linejoin="round"/>
</svg>
