<svg width="24" height="24" viewBox="0 0 24 24" fill="none" xmlns="http://www.w3.org/2000/svg">
<path fill-rule="evenodd" clip-rule="evenodd" d="M17.0569 18.4712L21.2929 22.7072L22.7071 21.293L2.70712 1.29297L1.29291 2.70718L3.67139 5.08566C3.2725 5.22464 3 5.60201 3 6.03004V7.00004H2C0.895 7.00004 0 7.89504 0 9.00004V12C0 13.657 1.343 15 3 15H3.422C3.957 16.35 4.974 17.486 6.316 18.158L11.106 20.553C11.669 20.834 12.331 20.834 12.894 20.553L17.0569 18.4712ZM15.5668 16.981L5.31741 6.73168L5 6.81104V12.791C5 14.307 5.856 15.691 7.211 16.37L12 18.764L15.5668 16.981ZM3 9.00004H2V12C2 12.552 2.448 13 3 13V9.00004Z" fill="black"/>
<path fill-rule="evenodd" clip-rule="evenodd" d="M20.579 15C20.3826 15.4957 20.1211 15.9626 19.8024 16.3882L18.3665 14.9523C18.7725 14.3195 19 13.573 19 12.792V6.81203L12 5.06203L9.18015 5.766L7.53094 4.11679L11.515 3.12104C11.833 3.04104 12.167 3.04104 12.485 3.12104L20.243 5.06104C20.688 5.17103 21 5.57104 21 6.03104V7.00004H22C23.1 7.00004 24 7.90004 24 9.00004V12C24 13.657 22.657 15 21 15H20.579ZM22 9.00004H21V13C21.552 13 22 12.552 22 12V9.00004Z" fill="black"/>
</svg>
