<svg width="24" height="24" viewBox="0 0 24 24" fill="none" xmlns="http://www.w3.org/2000/svg">
<path fill-rule="evenodd" clip-rule="evenodd" d="M12.1623 3.72925C12.2836 3.29797 12.677 3 13.125 3H22V5H13.8825L9.58765 20.2707C9.47549 20.6696 9.12902 20.9579 8.71648 20.9958C8.30393 21.0337 7.91073 20.8133 7.72779 20.4416L4.62763 14.1429H2V12.1429H5.25C5.63103 12.1429 5.97895 12.3594 6.14721 12.7013L8.36924 17.2159L12.1623 3.72925ZM17 12.5858L19 14.5858L21 12.5858L22.4142 14L20.4142 16L22.4142 18L21 19.4142L19 17.4142L17 19.4142L15.5858 18L17.5858 16L15.5858 14L17 12.5858Z" fill="black"/>
</svg>
