<svg width="24" height="24" viewBox="0 0 24 24" fill="none" xmlns="http://www.w3.org/2000/svg">
<path d="M20.944 11C20.754 12.6953 20.0873 14.2946 19.031 15.6169L17.6033 14.1892C18.2995 13.2596 18.7585 12.1648 18.928 11H20.944Z" fill="black"/>
<path fill-rule="evenodd" clip-rule="evenodd" d="M16.4233 17.8375L21.2929 22.7072L22.7071 21.293L2.70712 1.29297L1.29291 2.70718L6.99999 8.41427V10C6.99999 11.3261 7.52678 12.5979 8.46446 13.5355C9.40214 14.4732 10.6739 15 12 15C12.4742 15 12.9414 14.9326 13.3889 14.8032L14.9343 16.3486C14.021 16.7703 13.0204 16.9936 11.999 16.9936C10.3167 16.9936 8.69059 16.3879 7.41823 15.2873C6.14586 14.1867 5.31228 12.6648 5.06999 11H3.05499C3.28241 13.0289 4.19256 14.9202 5.63617 16.3638C7.07978 17.8074 8.97113 18.7176 11 18.945V23H13V18.945C14.2123 18.809 15.3754 18.4292 16.4233 17.8375ZM9.0336 10.4479C9.1287 11.0778 9.42273 11.6654 9.87867 12.1213C10.3346 12.5773 10.9222 12.8713 11.5521 12.9664L9.0336 10.4479Z" fill="black"/>
<path d="M17 10C17 10.9877 16.7078 11.9452 16.1712 12.757L14.7071 11.2929C14.8981 10.8929 15 10.4517 15 10V6C15 5.20435 14.6839 4.44129 14.1213 3.87868C13.5587 3.31607 12.7956 3 12 3C11.2043 3 10.4413 3.31607 9.87867 3.87868C9.40852 4.34883 9.11053 4.95898 9.02529 5.61114L7.41643 4.00227C7.6641 3.43399 8.01763 2.9113 8.46446 2.46447C9.40214 1.52678 10.6739 1 12 1C12.6566 1 13.3068 1.12933 13.9134 1.3806C14.52 1.63188 15.0712 2.00017 15.5355 2.46447C15.9998 2.92876 16.3681 3.47995 16.6194 4.08658C16.8707 4.69321 17 5.34339 17 6V10Z" fill="black"/>
</svg>
