<svg width="24" height="24" viewBox="0 0 24 24" fill="none" xmlns="http://www.w3.org/2000/svg">
<path d="M12 18C7.58172 18 4 14.4183 4 10M12 18V22M12 18C13.6983 18 15.2731 17.4708 16.5683 16.5683M16.5683 16.5683L23 23M16.5683 16.5683L13.6465 13.6465M20 10C20 11.4388 19.6202 12.7888 18.9554 13.9554M15.8987 10.8987C15.965 10.6098 16 10.309 16 10V6C16 3.79086 14.2091 2 12 2C10.64 2 9.43857 2.6787 8.71586 3.71586M13.6465 13.6465C13.1444 13.8736 12.5869 14 12 14C9.79086 14 8 12.2091 8 10V8M13.6465 13.6465L8 8M1 1L8 8" stroke="black" stroke-width="2" stroke-linecap="round" stroke-linejoin="round"/>
</svg>
