<svg width="24" height="24" viewBox="0 0 24 24" fill="none" xmlns="http://www.w3.org/2000/svg">
<path d="M8.75149 7.79781C8.91182 7.39649 9 6.95854 9 6.5C9 4.567 7.433 3 5.5 3C3.567 3 2 4.567 2 6.5C2 8.433 3.567 10 5.5 10C5.78381 10 6.05974 9.96622 6.32397 9.90246M8.75149 7.79781C9.72233 7.28827 10.8275 7 12 7C13.1725 7 14.2777 7.28827 15.2485 7.79781M8.75149 7.79781C7.78826 8.30336 6.95727 9.02673 6.32397 9.90246M6.32397 9.90246C5.49097 11.0543 5 12.4698 5 14C5 17.866 8.13401 21 12 21C15.866 21 19 17.866 19 14C19 12.4698 18.509 11.0543 17.676 9.90246M17.676 9.90246C17.9403 9.96622 18.2162 10 18.5 10C20.433 10 22 8.433 22 6.5C22 4.567 20.433 3 18.5 3C16.567 3 15 4.567 15 6.5C15 6.95854 15.0882 7.39649 15.2485 7.79781M17.676 9.90246C17.0427 9.02673 16.2117 8.30336 15.2485 7.79781" stroke="black" stroke-width="2" stroke-linecap="round" stroke-linejoin="round"/>
</svg>
