<svg width="24" height="24" viewBox="0 0 24 24" fill="none" xmlns="http://www.w3.org/2000/svg">
<path d="M13.196 2.26808L16.446 7.89808C16.722 8.37508 16.558 8.98708 16.08 9.26308L14.78 10.0131L15.781 11.7451L14.049 12.7451L13.049 11.0121L11.75 11.7631C11.272 12.0391 10.66 11.8751 10.384 11.3971L8.546 8.21508C6.494 8.83708 5 10.7451 5 13.0001C5 13.6251 5.115 14.2241 5.324 14.7761C6.1 14.2841 7.016 14.0001 8 14.0001C9.684 14.0001 11.174 14.8331 12.08 16.1091L19.768 11.6701L20.768 13.4021L12.89 17.9511C12.962 18.2891 13 18.6411 13 19.0001C13 19.3431 12.966 19.6771 12.9 20.0001H21V22.0001L4 22.0011C3.372 21.1651 3 20.1261 3 19.0001C3 17.9931 3.298 17.0551 3.81 16.2701C3.293 15.2951 3 14.1821 3 13.0001C3 10.0051 4.881 7.44908 7.527 6.45008L7.134 5.76808C6.582 4.81108 6.909 3.58808 7.866 3.03608L10.464 1.53608C11.421 0.984082 12.644 1.31108 13.196 2.26808ZM8 16.0001C6.343 16.0001 5 17.3431 5 19.0001C5 19.3501 5.06 19.6871 5.17 20.0001H10.83C10.94 19.6871 11 19.3501 11 19.0001C11 17.3431 9.657 16.0001 8 16.0001ZM11.464 3.26808L8.866 4.76808L11.616 9.53108L14.214 8.03108L11.464 3.26808Z" fill="black"/>
</svg>
