<svg width="24" height="24" viewBox="0 0 24 24" fill="none" xmlns="http://www.w3.org/2000/svg">
<path fill-rule="evenodd" clip-rule="evenodd" d="M5 4C5 3.44772 5.44772 3 6 3H19C19.5523 3 20 3.44772 20 4C20 4.55228 19.5523 5 19 5H13.9414C14.5758 5.739 15.0024 6.62539 15.1798 7.57143H19C19.5523 7.57143 20 8.01914 20 8.57143C20 9.12371 19.5523 9.57143 19 9.57143H15.1798C14.9708 10.6858 14.4162 11.7173 13.5833 12.5228C12.5069 13.5637 11.0538 14.1429 9.54546 14.1429H8.47261L13.7861 19.2811C14.1831 19.6651 14.1937 20.2981 13.8098 20.6952C13.4258 21.0922 12.7928 21.1028 12.3958 20.7189L5.30484 13.8617C5.0119 13.5784 4.92016 13.1457 5.07295 12.7679C5.22574 12.3901 5.59249 12.1429 6 12.1429H9.54546C10.5446 12.1429 11.4964 11.7587 12.193 11.0851C12.6354 10.6573 12.9518 10.1355 13.1236 9.57143H6C5.44772 9.57143 5 9.12371 5 8.57143C5 8.01914 5.44772 7.57143 6 7.57143H13.1236C12.9518 7.00738 12.6354 6.48559 12.193 6.0578C11.4964 5.38414 10.5446 5 9.54546 5H6C5.44772 5 5 4.55228 5 4Z" fill="black"/>
</svg>
