<svg width="24" height="24" viewBox="0 0 24 24" fill="none" xmlns="http://www.w3.org/2000/svg">
<path d="M9 6V12M9 6H7M9 6H10M9 12V18M9 12H15M9 18H10M9 18H7M15 12C15.7956 12 16.5587 11.6839 17.1213 11.1213C17.6839 10.5587 18 9.79565 18 9C18 8.20435 17.6839 7.44129 17.1213 6.87868C16.5587 6.31607 15.7956 6 15 6H14M15 12C15.7956 12 16.5587 12.3161 17.1213 12.8787C17.6839 13.4413 18 14.2044 18 15C18 15.7956 17.6839 16.5587 17.1213 17.1213C16.5587 17.6839 15.7956 18 15 18H14M10 3V6M10 6H14M14 3V6M10 18V21M10 18H14M14 18V21" stroke="black" stroke-width="2" stroke-linecap="round" stroke-linejoin="round"/>
</svg>
