<svg width="24" height="24" viewBox="0 0 24 24" fill="none" xmlns="http://www.w3.org/2000/svg">
<path fill-rule="evenodd" clip-rule="evenodd" d="M14.6835 5.27148C13.9172 4.96983 13.0667 4.91769 12.2649 5.12442C11.4634 5.33107 10.7622 5.78287 10.2646 6.40211C9.76826 7.01981 9.50055 7.77101 9.49505 8.54023V12.1013H14.3168C14.8691 12.1013 15.3168 12.549 15.3168 13.1013C15.3168 13.6536 14.8691 14.1013 14.3168 14.1013H9.49505V17.0952C9.49505 17.134 9.49279 17.1728 9.48827 17.2114C9.45629 17.4847 9.39828 17.753 9.31581 18.013C10.3517 17.9615 11.39 18.1019 12.3741 18.4282C12.404 18.4381 12.4335 18.4494 12.4623 18.4621C13.2664 18.8161 14.1423 19 15.0297 19C15.9171 19 16.793 18.8161 17.5971 18.4621C18.1026 18.2396 18.6927 18.469 18.9152 18.9745C19.1378 19.4799 18.9084 20.0701 18.4029 20.2926C17.3431 20.7592 16.1927 21 15.0297 21C13.8837 21 12.7498 20.7661 11.7029 20.3128C10.8734 20.0442 9.99246 19.9482 9.11953 20.032C8.53262 20.0884 7.95954 20.2251 7.41738 20.4362C7.11074 20.6268 6.78078 20.7817 6.43426 20.8969C5.94565 21.0593 5.41357 20.8241 5.20474 20.3535C4.99592 19.8828 5.17862 19.3305 5.62692 19.0773C5.90445 18.9205 6.19063 18.7801 6.48385 18.6567C6.66505 18.5292 6.82789 18.3795 6.96792 18.2114C7.25459 17.8672 7.43498 17.4591 7.49505 17.0316V14.1013H6C5.44772 14.1013 5 13.6536 5 13.1013C5 12.549 5.44772 12.1013 6 12.1013H7.49505V8.53063C7.50276 7.3015 7.93067 6.11371 8.70558 5.14935C9.47988 4.18574 10.5565 3.4995 11.7656 3.18776C12.9744 2.87609 14.2561 2.95386 15.4161 3.41047C16.5764 3.86724 17.5568 4.68053 18.1999 5.7334C18.4878 6.20471 18.3391 6.82017 17.8678 7.10808C17.3965 7.39598 16.7811 7.2473 16.4932 6.77599C16.0829 6.10434 15.4494 5.57296 14.6835 5.27148Z" fill="black"/>
</svg>
