<svg width="24" height="24" viewBox="0 0 24 24" fill="none" xmlns="http://www.w3.org/2000/svg">
<path fill-rule="evenodd" clip-rule="evenodd" d="M11.0985 3.72665C12.5438 3.01872 14.1479 2.82003 15.7016 3.16591C17.253 3.51127 18.6585 4.37766 19.7524 5.627C20.1162 6.04252 20.0743 6.6743 19.6587 7.03811C19.2432 7.40192 18.6114 7.35999 18.2476 6.94447C17.4109 5.98885 16.3704 5.36376 15.267 5.11813C14.166 4.87303 13.0248 5.01016 11.9783 5.52275C10.9286 6.03694 10.0076 6.91371 9.34983 8.06767C9.23076 8.27655 9.12153 8.49244 9.02247 8.7143H14.3327C14.8849 8.7143 15.3327 9.16202 15.3327 9.7143C15.3327 10.2666 14.8849 10.7143 14.3327 10.7143H8.43429C8.36811 11.1356 8.33418 11.5659 8.33418 12C8.33418 12.4342 8.36811 12.8644 8.43429 13.2857H14.3327C14.8849 13.2857 15.3327 13.7334 15.3327 14.2857C15.3327 14.838 14.8849 15.2857 14.3327 15.2857H9.02247C9.12153 15.5076 9.23076 15.7235 9.34983 15.9324C10.0076 17.0863 10.9286 17.9631 11.9783 18.4773C13.0248 18.9899 14.166 19.127 15.267 18.8819C16.3704 18.6363 17.4109 18.0112 18.2476 17.0556C18.6114 16.64 19.2432 16.5981 19.6587 16.9619C20.0743 17.3257 20.1162 17.9575 19.7524 18.373C18.6585 19.6224 17.253 20.4888 15.7016 20.8341C14.1479 21.18 12.5438 20.9813 11.0985 20.2734C9.65653 19.5671 8.45033 18.3929 7.61231 16.9228C7.31668 16.4042 7.07052 15.8554 6.87574 15.2857H5C4.44772 15.2857 4 14.838 4 14.2857C4 13.7334 4.44772 13.2857 5 13.2857H6.41465C6.36122 12.8611 6.33418 12.4315 6.33418 12C6.33418 11.5686 6.36122 11.1389 6.41465 10.7143H5C4.44772 10.7143 4 10.2666 4 9.7143C4 9.16202 4.44772 8.7143 5 8.7143H6.87574C7.07052 8.14465 7.31667 7.59583 7.61231 7.07721C8.45033 5.60709 9.65653 4.43298 11.0985 3.72665Z" fill="black"/>
</svg>
