<svg width="24" height="24" viewBox="0 0 24 24" fill="none" xmlns="http://www.w3.org/2000/svg">
<path fill-rule="evenodd" clip-rule="evenodd" d="M5.4 3.20006C5.84183 2.86869 6.46863 2.95823 6.8 3.40006L12 10.3334L17.2 3.40006C17.5314 2.95823 18.1582 2.86869 18.6 3.20006C19.0418 3.53143 19.1314 4.15823 18.8 4.60006L13.1429 12.1429H16.8C17.3523 12.1429 17.8 12.5906 17.8 13.1429C17.8 13.6952 17.3523 14.1429 16.8 14.1429H13V16.7143H16.8C17.3523 16.7143 17.8 17.1621 17.8 17.7143C17.8 18.2666 17.3523 18.7143 16.8 18.7143H13V20.0001C13 20.5523 12.5523 21.0001 12 21.0001C11.4477 21.0001 11 20.5523 11 20.0001V18.7143H7.2C6.64771 18.7143 6.2 18.2666 6.2 17.7143C6.2 17.1621 6.64771 16.7143 7.2 16.7143H11V14.1429H7.2C6.64771 14.1429 6.2 13.6952 6.2 13.1429C6.2 12.5906 6.64771 12.1429 7.2 12.1429H10.8571L5.2 4.60006C4.86863 4.15823 4.95817 3.53143 5.4 3.20006Z" fill="black"/>
</svg>
