<svg width="24" height="24" viewBox="0 0 24 24" fill="none" xmlns="http://www.w3.org/2000/svg">
<path d="M8 21H13M3 17H11M5 13H9M4.33847 9C4.72565 7.65611 5.43317 6.42529 6.40215 5.41635C7.47686 4.29732 8.8329 3.49322 10.3256 3.08983L10.3276 3.09722L10.6877 3C9.80365 4.41982 9.44137 6.10687 9.66381 7.7679C9.88624 9.42893 10.6793 10.9589 11.9052 12.0919C13.131 13.2249 14.7122 13.8892 16.3737 13.9694C18.0353 14.0496 19.6722 13.5407 21 12.531C20.7965 14.0746 20.1809 15.5336 19.2189 16.7523C18.5968 17.5405 17.8449 18.209 17 18.7311" stroke="black" stroke-width="2" stroke-linecap="round" stroke-linejoin="round"/>
</svg>
