<svg width="24" height="24" viewBox="0 0 24 24" fill="none" xmlns="http://www.w3.org/2000/svg">
<path d="M16 1V3M16 3V5M16 3H14M16 3H18M21 6V8M21 8V10M21 8H19M21 8H23M9.69978 3.10294L10.0811 3C9.14504 4.50334 8.76146 6.28963 8.99697 8.04837C9.23249 9.8071 10.0722 11.4271 11.3702 12.6267C12.6682 13.8263 14.3423 14.5298 16.1016 14.6147C17.8609 14.6996 19.5941 14.1607 21 13.0916C20.7845 14.726 20.1327 16.2709 19.1141 17.5613C18.0956 18.8517 16.7485 19.8394 15.2165 20.4189C13.6845 20.9984 12.0251 21.148 10.4154 20.8518C8.80564 20.5556 7.30588 19.8246 6.07609 18.7369C4.84631 17.6492 3.93263 16.2456 3.43251 14.6757C2.9324 13.1058 2.86461 11.4286 3.23637 9.82289C3.60814 8.21722 4.40552 6.74335 5.54345 5.55849C6.68138 4.37363 8.11719 3.52224 9.6977 3.09512L9.69978 3.10294Z" stroke="black" stroke-width="2" stroke-linecap="round" stroke-linejoin="round"/>
</svg>
