<svg width="24" height="24" viewBox="0 0 24 24" fill="none" xmlns="http://www.w3.org/2000/svg">
<path d="M10.0811 3L9.69978 3.10294L9.6977 3.09512C8.11719 3.52224 6.68138 4.37363 5.54345 5.55849C4.40552 6.74335 3.60814 8.21722 3.23637 9.82289C2.86461 11.4286 2.9324 13.1058 3.43251 14.6757C3.93263 16.2456 4.84631 17.6492 6.07609 18.7369C7.30588 19.8246 8.80564 20.5556 10.4154 20.8518C12.0251 21.148 13.6845 20.9984 15.2165 20.4189C16.7485 19.8394 18.0956 18.8517 19.1141 17.5613C20.1327 16.2709 20.7845 14.726 21 13.0916C19.5941 14.1607 17.8609 14.6996 16.1016 14.6147C14.3423 14.5298 12.6682 13.8263 11.3702 12.6267C10.0722 11.4271 9.23249 9.8071 8.99697 8.04837C8.76146 6.28963 9.14504 4.50334 10.0811 3Z" stroke="black" stroke-width="2" stroke-linecap="round" stroke-linejoin="round"/>
</svg>
