<svg width="24" height="24" viewBox="0 0 24 24" fill="none" xmlns="http://www.w3.org/2000/svg">
<path d="M4.96501 5.09593L8.51101 17.5059L11.551 11.4259L17.188 9.17093L4.96501 5.09593ZM2.89901 2.29993L21.705 8.56793C21.8023 8.60019 21.8874 8.6616 21.9487 8.74383C22.0099 8.82606 22.0444 8.92514 22.0475 9.02763C22.0505 9.13013 22.022 9.23108 21.9657 9.31682C21.9095 9.40255 21.8282 9.46892 21.733 9.50693L13 12.9999L8.57501 21.8499C8.52998 21.94 8.45878 22.0145 8.37074 22.0634C8.28269 22.1124 8.18191 22.1336 8.0816 22.1243C7.98129 22.115 7.88612 22.0756 7.80857 22.0113C7.73103 21.947 7.67471 21.8608 7.64701 21.7639L2.26001 2.91093C2.23506 2.82334 2.2345 2.7306 2.2584 2.64272C2.28229 2.55484 2.32974 2.47516 2.39561 2.41227C2.46148 2.34939 2.54328 2.30568 2.63217 2.28589C2.72106 2.26609 2.81368 2.27094 2.90001 2.29993H2.89901Z" fill="black"/>
</svg>
