<svg width="24" height="24" viewBox="0 0 24 24" fill="none" xmlns="http://www.w3.org/2000/svg">
<path d="M9.38616 20.6847L3 3L20.6847 9.38616C20.7788 9.42927 20.8585 9.49847 20.9144 9.58555C20.9703 9.67264 21 9.77393 21 9.8774C21 9.98087 20.9703 10.0822 20.9144 10.1693C20.8585 10.2563 20.7788 10.3255 20.6847 10.3686L13.8073 13.8073L10.3686 20.6847C10.3255 20.7788 10.2563 20.8585 10.1693 20.9144C10.0822 20.9703 9.98087 21 9.8774 21C9.77393 21 9.67264 20.9703 9.58555 20.9144C9.49847 20.8585 9.42927 20.7788 9.38616 20.6847Z" stroke="black" stroke-width="2" stroke-linecap="round" stroke-linejoin="round"/>
</svg>
