<svg width="24" height="24" viewBox="0 0 24 24" fill="none" xmlns="http://www.w3.org/2000/svg">
<path fill-rule="evenodd" clip-rule="evenodd" d="M18.5857 20L21.2929 22.7072L22.7071 21.293L2.70712 1.29297L1.29291 2.70718L4.54932 5.9636C3.57144 7.40846 3 9.15273 3 11.031V20H18.5857ZM16.5857 18L5.99746 7.41173C5.3642 8.46901 5 9.7073 5 11.031V18H16.5857Z" fill="black"/>
<path d="M21 11.031V17.5858L19 15.5858V11.031C19 7.148 15.866 4 12 4C10.6871 4 9.45871 4.36303 8.40875 4.9946L6.96121 3.54706C8.39902 2.57041 10.1332 2 12 2C16.97 2 21 6.043 21 11.031Z" fill="black"/>
<path d="M14.5 21C14.5 21.663 14.2366 22.2989 13.7678 22.7678C13.2989 23.2366 12.663 23.5 12 23.5C11.337 23.5 10.7011 23.2366 10.2322 22.7678C9.76339 22.2989 9.5 21.663 9.5 21H14.5Z" fill="black"/>
</svg>
