<svg width="24" height="24" viewBox="0 0 24 24" fill="none" xmlns="http://www.w3.org/2000/svg">
<path fill-rule="evenodd" clip-rule="evenodd" d="M8.71432 4C8.71207 4.00218 8.70967 4.00455 8.70711 4.00711L4.00711 8.70711C4.00455 8.70967 4.00218 8.71207 4 8.71432V15.2857C4.00218 15.2879 4.00455 15.2903 4.00711 15.2929L8.70711 19.9929C8.70967 19.9955 8.71207 19.9978 8.71432 20H15.2857C15.2879 19.9978 15.2903 19.9955 15.2929 19.9929L19.9929 15.2929C19.9955 15.2903 19.9978 15.2879 20 15.2857V8.71432C19.9978 8.71207 19.9955 8.70967 19.9929 8.70711L15.2929 4.00711C15.2903 4.00455 15.2879 4.00218 15.2857 4H8.71432ZM8.7 2C8.43331 2 8.16637 2.04563 7.90636 2.16119C7.6507 2.27482 7.45193 2.43386 7.29289 2.59289L2.59289 7.29289C2.43386 7.45193 2.27482 7.6507 2.16119 7.90636C2.04563 8.16637 2 8.43331 2 8.7V15.3C2 15.5667 2.04563 15.8336 2.16119 16.0936C2.27482 16.3493 2.43386 16.5481 2.59289 16.7071L7.29289 21.4071C7.45193 21.5661 7.6507 21.7252 7.90636 21.8388C8.16637 21.9544 8.43332 22 8.7 22H15.3C15.5667 22 15.8336 21.9544 16.0936 21.8388C16.3493 21.7252 16.5481 21.5661 16.7071 21.4071L21.4071 16.7071C21.5661 16.5481 21.7252 16.3493 21.8388 16.0936C21.9544 15.8336 22 15.5667 22 15.3V8.7C22 8.43332 21.9544 8.16637 21.8388 7.90636C21.7252 7.6507 21.5661 7.45193 21.4071 7.29289L16.7071 2.59289C16.5481 2.43386 16.3493 2.27482 16.0936 2.16119C15.8336 2.04563 15.5667 2 15.3 2H8.7Z" fill="black"/>
</svg>
