<svg width="24" height="24" viewBox="0 0 24 24" fill="none" xmlns="http://www.w3.org/2000/svg">
<path d="M12 20.9999V21.0099M3 8.99993V9.00993M21 8.99993V9.00993M8 20.0999C6.63534 19.4343 5.46126 18.4343 4.58704 17.1929C3.71281 15.9515 3.16686 14.5091 3 12.9999M16 20.0999C17.3647 19.4343 18.5387 18.4343 19.413 17.1929C20.2872 15.9515 20.8331 14.5091 21 12.9999M6.2 4.99993C7.80809 3.68389 9.82204 2.96484 11.9 2.96484C13.978 2.96484 15.9919 3.68389 17.6 4.99993M15 11.9999C15 13.6568 13.6569 14.9999 12 14.9999C10.3431 14.9999 9 13.6568 9 11.9999C9 10.3431 10.3431 8.99993 12 8.99993C13.6569 8.99993 15 10.3431 15 11.9999Z" stroke="black" stroke-width="2" stroke-linecap="round" stroke-linejoin="round"/>
</svg>
