<svg width="24" height="24" viewBox="0 0 24 24" fill="none" xmlns="http://www.w3.org/2000/svg">
<path d="M6 17C6 16.4477 6.44771 16 7 16C7.55229 16 8 16.4477 8 17V17.01C8 17.5623 7.55229 18.01 7 18.01C6.44771 18.01 6 17.5623 6 17.01V17Z" fill="black"/>
<path fill-rule="evenodd" clip-rule="evenodd" d="M9 2C9.79565 2 10.5587 2.31607 11.1213 2.87868C11.6689 3.42629 11.983 4.1638 11.9993 4.93643L12.293 4.64276C12.8556 4.08035 13.6185 3.7644 14.414 3.7644C15.2095 3.7644 15.9724 4.08035 16.535 4.64276L19.3632 7.47098C19.9256 8.03356 20.2416 8.79648 20.2416 9.59198C20.2416 10.3875 19.9255 11.1505 19.3631 11.7131L19.0752 12.0009C19.8436 12.0202 20.5765 12.3338 21.1213 12.8787C21.6839 13.4413 22 14.2044 22 15V19C22 19.7957 21.6839 20.5587 21.1213 21.1213C20.5587 21.6839 19.7957 22 19 22H7C5.67392 22 4.40215 21.4732 3.46447 20.5355C2.52679 19.5979 2 18.3261 2 17V5C2 4.20435 2.31607 3.44129 2.87868 2.87868C3.44129 2.31607 4.20435 2 5 2H9ZM19 14H17.0762L11.0762 20H19C19.2652 20 19.5196 19.8946 19.7071 19.7071C19.8946 19.5196 20 19.2652 20 19V15C20 14.7348 19.8946 14.4804 19.7071 14.2929C19.5196 14.1054 19.2652 14 19 14ZM4.87868 19.1213C5.44129 19.6839 6.20435 20 7 20C7.79565 20 8.55871 19.6839 9.12132 19.1213C9.68393 18.5587 10 17.7956 10 17V5C10 4.73478 9.89464 4.48043 9.70711 4.29289C9.51957 4.10536 9.26522 4 9 4H5C4.73478 4 4.48043 4.10536 4.29289 4.29289C4.10536 4.48043 4 4.73478 4 5V17C4 17.7956 4.31607 18.5587 4.87868 19.1213ZM12 16.2478V7.76419L13.707 6.05719C13.8945 5.86979 14.1489 5.7644 14.414 5.7644C14.6791 5.7644 14.9334 5.86968 15.1209 6.05708L17.9488 8.88498C18.1362 9.0725 18.2416 9.32686 18.2416 9.59198C18.2416 9.85709 18.1363 10.1114 17.9489 10.2989L12 16.2478Z" fill="black"/>
</svg>
