<svg width="24" height="24" viewBox="0 0 24 24" fill="none" xmlns="http://www.w3.org/2000/svg">
<path fill-rule="evenodd" clip-rule="evenodd" d="M10.9686 3.55651C11.982 2.5582 13.3534 2 14.7802 2C16.2071 2 17.5784 2.5582 18.5919 3.55651C19.6058 4.55531 20.1783 5.91322 20.1783 7.33234C20.1783 8.75147 19.6058 10.1094 18.5919 11.1082L11.8538 17.7456C11.2527 18.3377 10.4407 18.6677 9.59707 18.6677C8.75345 18.6677 7.94141 18.3377 7.34036 17.7456C6.7388 17.153 6.39805 16.3461 6.39805 15.5015C6.39805 14.6569 6.7388 13.8499 7.34036 13.2574L14.0785 6.61993C14.4719 6.23236 15.1051 6.23712 15.4926 6.63058C15.8802 7.02403 15.8754 7.65718 15.482 8.04475L8.74389 14.6822C8.52066 14.9021 8.39805 15.1971 8.39805 15.5015C8.39805 15.8059 8.52066 16.1009 8.74389 16.3208C8.96764 16.5412 9.27426 16.6677 9.59707 16.6677C9.91989 16.6677 10.2265 16.5412 10.4503 16.3208L17.1883 9.68336C17.824 9.05723 18.1783 8.21124 18.1783 7.33234C18.1783 6.45345 17.824 5.60746 17.1883 4.98132C16.5522 4.35469 15.6863 4 14.7802 4C13.8742 4 13.0082 4.35469 12.3721 4.98132L5.634 11.6188C4.58598 12.6511 4 14.0481 4 15.5015C4 16.9549 4.58598 18.3519 5.634 19.3842C6.68254 20.4171 8.10782 21 9.59707 21C11.0863 21 12.5116 20.4171 13.5601 19.3842L20.2982 12.7468C20.6917 12.3592 21.3248 12.364 21.7124 12.7574C22.1 13.1509 22.0952 13.784 21.7018 14.1716L14.9637 20.809C13.5378 22.2136 11.6071 23 9.59707 23C7.58702 23 5.65632 22.2136 4.23047 20.809C2.80412 19.404 2 17.4951 2 15.5015C2 13.5079 2.80412 11.599 4.23047 10.1939L10.9686 3.55651Z" fill="black"/>
</svg>
