<svg width="24" height="24" viewBox="0 0 24 24" fill="none" xmlns="http://www.w3.org/2000/svg">
<path fill-rule="evenodd" clip-rule="evenodd" d="M17 5C16.4477 5 16 5.44772 16 6C16 6.55228 16.4477 7 17 7C17.5523 7 18 6.55228 18 6C18 5.44772 17.5523 5 17 5ZM14 6C14 4.34315 15.3432 3 17 3C18.6569 3 20 4.34315 20 6C20 7.65685 18.6569 9 17 9C15.3432 9 14 7.65685 14 6ZM9.75748 6.02986C10.0496 5.95682 10.3591 6.01932 10.6 6.2L14.6 9.2C15.01 9.50747 15.1212 10.0751 14.8575 10.5145L12.7662 14H15C15.3038 14 15.5911 14.1381 15.7809 14.3753L19.7809 19.3753C20.1259 19.8066 20.056 20.4359 19.6247 20.7809C19.1934 21.1259 18.5642 21.056 18.2191 20.6247L14.5194 16H11C10.6397 16 10.3073 15.8062 10.1298 15.4927C9.95231 15.1792 9.95716 14.7944 10.1425 14.4855L12.6785 10.2589L9.78079 8.08558L6.24255 8.97014C5.70676 9.10409 5.16382 8.77833 5.02987 8.24254C4.89592 7.70674 5.22168 7.16381 5.75748 7.02986L9.75748 6.02986ZM6.0633 10.7195C6.96988 10.2301 7.98721 9.98233 9.01731 10.0001C9.56951 10.0097 10.0094 10.4651 9.99986 11.0173C9.99031 11.5695 9.53492 12.0094 8.98272 11.9999C8.29599 11.988 7.61777 12.1531 7.01338 12.4794C6.40899 12.8057 5.8988 13.2821 5.53194 13.8627C5.16508 14.4434 4.95392 15.1087 4.91878 15.7946C4.88365 16.4806 5.02573 17.164 5.33134 17.7791C5.63695 18.3942 6.0958 18.9202 6.66369 19.3065C7.23158 19.6929 7.88937 19.9264 8.57372 19.9848C9.25807 20.0431 9.94592 19.9243 10.571 19.6397C11.1961 19.3551 11.7374 18.9143 12.1427 18.3599C12.4687 17.914 13.0943 17.8168 13.5402 18.1427C13.986 18.4686 14.0832 19.0943 13.7573 19.5401C13.1493 20.3719 12.3374 21.033 11.3997 21.4599C10.4621 21.8868 9.43034 22.0651 8.40381 21.9776C7.37729 21.89 6.39059 21.5397 5.53876 20.9602C4.68693 20.3807 3.99866 19.5916 3.54024 18.669C3.08182 17.7464 2.8687 16.7212 2.9214 15.6923C2.9741 14.6634 3.29085 13.6654 3.84114 12.7945C4.39143 11.9235 5.15672 11.2089 6.0633 10.7195Z" fill="black"/>
</svg>
