<svg width="24" height="24" viewBox="0 0 24 24" fill="none" xmlns="http://www.w3.org/2000/svg">
<path fill-rule="evenodd" clip-rule="evenodd" d="M11 4.06189C7.05369 4.55399 4 7.92038 4 12C4 13.8487 4.62708 15.551 5.68014 16.9056L11 11.5858V4.06189ZM13 4.06189V11.5858L18.3199 16.9056C19.3729 15.551 20 13.8487 20 12C20 7.92038 16.9463 4.55399 13 4.06189ZM16.9056 18.3199L13 14.4142V19.9381C14.4607 19.756 15.7991 19.18 16.9056 18.3199ZM11 19.9381V14.4142L7.09436 18.3199C8.20088 19.18 9.53929 19.756 11 19.9381ZM2 12C2 6.47715 6.47715 2 12 2C17.5228 2 22 6.47715 22 12C22 17.5228 17.5228 22 12 22C6.47715 22 2 17.5228 2 12Z" fill="black"/>
</svg>
