<svg width="24" height="24" viewBox="0 0 24 24" fill="none" xmlns="http://www.w3.org/2000/svg">
<path fill-rule="evenodd" clip-rule="evenodd" d="M2.29291 2.29291C2.53925 2.04658 2.89602 1.9462 3.23466 2.02794L16.2847 5.17794C16.6632 5.2693 16.9542 5.57208 17.0306 5.9539L18.0463 11.0326C18.3786 10.9458 18.7468 11.0326 19.0071 11.2929L21.7071 13.9929C22.0977 14.3834 22.0977 15.0166 21.7071 15.4071L15.4071 21.7071C15.0166 22.0977 14.3834 22.0977 13.9929 21.7071L11.2929 19.0071C11.0326 18.7468 10.9458 18.3786 11.0326 18.0463L5.9539 17.0306C5.57208 16.9542 5.2693 16.6632 5.17794 16.2847L2.02794 3.23466C1.9462 2.89602 2.04658 2.53925 2.29291 2.29291ZM12.5713 16.3145L16.3145 12.5713L15.1947 6.97228L6.22025 4.80604L10.5345 9.12031C10.9251 9.51084 10.9251 10.144 10.5345 10.5345C10.144 10.9251 9.51084 10.9251 9.12031 10.5345L4.80604 6.22025L6.97228 15.1947L12.5713 16.3145ZM13.4142 18.3L14.7 19.5858L19.5858 14.7L18.3 13.4142L13.4142 18.3Z" fill="black"/>
</svg>
