<svg width="24" height="24" viewBox="0 0 24 24" fill="none" xmlns="http://www.w3.org/2000/svg">
<path fill-rule="evenodd" clip-rule="evenodd" d="M5.11765 4C4.82123 4 4.53695 4.11775 4.32735 4.32735C4.12389 4.53081 4.00697 4.80464 4.0003 5.09164C4.24416 8.96517 5.89289 12.6172 8.63787 15.3621C11.3828 18.1071 15.0348 19.7558 18.9083 19.9997C19.1954 19.993 19.4692 19.8761 19.6726 19.6726C19.8822 19.463 20 19.1788 20 18.8824V15.3241L16.1252 13.7742L14.9751 15.691C14.7074 16.1372 14.1421 16.3035 13.6753 16.0733C11.1787 14.842 9.15799 12.8213 7.92667 10.3247C7.69647 9.85791 7.86277 9.29262 8.30903 9.02486L10.2258 7.87479L8.67591 4H5.11765ZM2.91314 2.91314C3.49781 2.32847 4.2908 2 5.11765 2H9.35294C9.76185 2 10.1296 2.24895 10.2814 2.62861L12.3991 7.92273C12.5814 8.37844 12.406 8.89909 11.9851 9.15161L10.1618 10.2456C11.0518 11.7154 12.2846 12.9482 13.7544 13.8382L14.8484 12.0149C15.1009 11.594 15.6216 11.4186 16.0773 11.6009L21.3714 13.7186C21.7511 13.8704 22 14.2382 22 14.6471V18.8824C22 19.7092 21.6715 20.5022 21.0869 21.0869C20.5022 21.6715 19.7092 22 18.8824 22C18.8621 22 18.8419 21.9994 18.8217 21.9982C14.4477 21.7323 10.3222 19.8749 7.22365 16.7763C4.12507 13.6778 2.26765 9.55229 2.00184 5.17831C2.00061 5.15811 2 5.13788 2 5.11765C2 4.2908 2.32847 3.49781 2.91314 2.91314Z" fill="black"/>
<path fill-rule="evenodd" clip-rule="evenodd" d="M15 2C15 1.44772 15.4477 1 16 1C17.8565 1 19.637 1.7375 20.9497 3.05025C22.2625 4.36301 23 6.14349 23 8C23 8.55228 22.5523 9 22 9C21.4477 9 21 8.55228 21 8C21 6.67392 20.4732 5.40215 19.5355 4.46447C18.5979 3.52678 17.3261 3 16 3C15.4477 3 15 2.55228 15 2ZM15 6C15 5.44772 15.4477 5 16 5C16.7956 5 17.5587 5.31607 18.1213 5.87868C18.6839 6.44129 19 7.20435 19 8C19 8.55228 18.5523 9 18 9C17.4477 9 17 8.55228 17 8C17 7.73478 16.8946 7.48043 16.7071 7.29289C16.5196 7.10536 16.2652 7 16 7C15.4477 7 15 6.55228 15 6Z" fill="black"/>
</svg>
