<svg width="24" height="24" viewBox="0 0 24 24" fill="none" xmlns="http://www.w3.org/2000/svg">
<path fill-rule="evenodd" clip-rule="evenodd" d="M21.2929 1.29285L1.29291 21.2928L2.70712 22.7071L7.95045 17.4637C10.9532 20.1491 14.7814 21.7526 18.8217 21.9982C18.8419 21.9994 18.8621 22 18.8824 22C19.7092 22 20.5022 21.6715 21.0869 21.0869C21.6715 20.5022 22 19.7092 22 18.8824V14.6471C22 14.2382 21.7511 13.8704 21.3714 13.7186L16.0773 11.6009C15.6216 11.4186 15.1009 11.594 14.8484 12.0149L13.7544 13.8382C13.307 13.5673 12.8816 13.2646 12.4811 12.9331L22.7071 2.70706L21.2929 1.29285ZM11.0616 14.3526L9.36714 16.047C12.0138 18.3808 15.3686 19.7769 18.9083 19.9997C19.1954 19.993 19.4692 19.8761 19.6726 19.6726C19.8822 19.463 20 19.1788 20 18.8824V15.3241L16.1252 13.7742L14.9751 15.691C14.7074 16.1372 14.1421 16.3035 13.6753 16.0733C12.7302 15.6072 11.8533 15.028 11.0616 14.3526Z" fill="black"/>
<path d="M7.92667 10.3247C8.1799 10.8381 8.46652 11.3315 8.7838 11.8019L10.2297 10.3561C10.2068 10.3194 10.1842 10.2826 10.1618 10.2456L10.6077 9.97802L12.457 8.1288C12.4453 8.05941 12.4261 7.99035 12.3991 7.92273L10.2814 2.62861C10.1296 2.24895 9.76185 2 9.35294 2H5.11765C4.2908 2 3.49781 2.32847 2.91314 2.91314C2.32847 3.49781 2 4.2908 2 5.11765C2 5.13788 2.00061 5.15811 2.00184 5.17831C2.21842 8.74215 3.49162 12.141 5.63188 14.9539L7.06073 13.525C5.26409 11.0782 4.1931 8.15418 4.0003 5.09164C4.00697 4.80464 4.12389 4.53081 4.32735 4.32735C4.53695 4.11775 4.82123 4 5.11765 4H8.67591L10.2258 7.87479L8.30903 9.02486C7.86277 9.29262 7.69647 9.85791 7.92667 10.3247Z" fill="black"/>
</svg>
