<svg width="24" height="24" viewBox="0 0 24 24" fill="none" xmlns="http://www.w3.org/2000/svg">
<path fill-rule="evenodd" clip-rule="evenodd" d="M15.5762 16.9905L21.2929 22.7072L22.7071 21.293L2.70712 1.29297L1.29291 2.70718L7.00962 8.4239L5.34299 8.75704L3.92898 10.172L8.17198 14.414L3.22198 19.364L4.63599 20.778L9.58599 15.828L13.828 20.071L15.243 18.657L15.5762 16.9905ZM13.8761 15.2904L8.70917 10.1234L7.04298 10.457L13.543 16.957L13.8761 15.2904Z" fill="black"/>
<path d="M20.192 10.879L17.2426 13.8284L15.8283 12.4141L18.778 9.46504L14.536 5.22204L11.5858 8.17162L10.1721 6.75793L13.122 3.80804L12.415 3.10104L13.8285 1.68654L22.314 10.172L20.899 11.586L20.192 10.879Z" fill="black"/>
</svg>
