<svg width="24" height="24" viewBox="0 0 24 24" fill="none" xmlns="http://www.w3.org/2000/svg">
<path d="M18.8201 13.5838C21.1095 15.7202 22.3617 17.5805 21.908 18.48C21.4253 19.426 19.14 19.0373 16.1022 17.6727M18.8201 13.5838C18.9378 13.0749 19 12.5447 19 12C19 8.13401 15.866 5 12 5C8.6791 5 5.89832 7.31255 5.18018 10.4151M18.8201 13.5838C18.4334 15.2553 17.4481 16.6977 16.1022 17.6727M16.1022 17.6727C14.4518 16.9313 12.5793 15.9019 10.653 14.642C8.52265 13.2481 6.64044 11.7775 5.18018 10.4151M16.1022 17.6727C14.9495 18.5077 13.5322 19 12 19C8.13401 19 5 15.866 5 12C5 11.4549 5.0623 10.9244 5.18018 10.4151M5.18018 10.4151C2.891 8.27941 1.63876 6.40978 2.093 5.519C2.557 4.609 5.019 5.075 7.896 6.324" stroke="black" stroke-width="2" stroke-linecap="round" stroke-linejoin="round"/>
</svg>
