<svg width="24" height="24" viewBox="0 0 24 24" fill="none" xmlns="http://www.w3.org/2000/svg">
<path fill-rule="evenodd" clip-rule="evenodd" d="M4.09504 10.763C4.03246 11.1661 3.99998 11.5793 3.99998 12C3.99998 16.4183 7.5817 20 12 20C13.5417 20 14.9816 19.5639 16.203 18.8082C16.7371 19.0356 17.2481 19.2326 17.7303 19.397C18.7903 19.7586 19.774 19.9849 20.5868 19.9993C21.3321 20.0126 22.335 19.8431 22.7987 18.9345L22.8008 18.9303C23.0656 18.4054 23.0297 17.8438 22.9047 17.3768C22.7785 16.9053 22.5352 16.4237 22.233 15.9535C21.6981 15.1213 20.8939 14.1951 19.9051 13.2358C19.9676 12.833 20 12.4203 20 12C20 7.58172 16.4183 4 12 4C10.4562 4 9.0146 4.43726 7.79219 5.19469C6.49511 4.6627 5.26168 4.28031 4.2416 4.12344C3.67192 4.03583 3.10369 4.00789 2.60428 4.10274C2.10903 4.1968 1.51567 4.44976 1.20212 5.06466M6.03868 6.66482C5.23526 6.38124 4.51943 6.18967 3.93761 6.1002C3.50647 6.0339 3.2046 6.03274 3.01758 6.06083C3.04026 6.16222 3.0954 6.33176 3.23157 6.58949C3.5115 7.11933 4.02161 7.80022 4.76119 8.5897C5.09342 7.88573 5.52532 7.23803 6.03868 6.66482ZM11.2004 13.8051C9.32126 12.5756 7.65095 11.2928 6.30958 10.0924L11.2004 13.8051ZM6.30958 10.0924C7.1066 7.71388 9.35314 6 12 6C15.3137 6 18 8.68629 18 12C18 12.4347 17.9538 12.8585 17.866 13.267C17.847 13.3246 17.8335 13.3836 17.8253 13.4431C17.5276 14.649 16.8651 15.7113 15.9617 16.5062C14.5061 15.8156 12.8802 14.9038 11.2005 13.8051M17.9468 17.3513C18.0929 17.4054 18.236 17.4564 18.3759 17.5041C19.3526 17.8372 20.1101 17.9906 20.6223 17.9996C20.8051 18.0029 20.9209 17.9889 20.991 17.9738C20.9869 17.9515 20.981 17.9249 20.9727 17.8938C20.9198 17.6962 20.7915 17.4099 20.5505 17.0349C20.2463 16.5616 19.8056 16.0127 19.2394 15.409C18.904 16.1201 18.4668 16.7738 17.9468 17.3513ZM20.9993 18.0729C20.9993 18.0728 20.9994 18.0722 20.9996 18.0709L20.9993 18.0729ZM21.0756 17.9474C21.0814 17.9429 21.0849 17.9411 21.0852 17.9414C21.0856 17.9416 21.0827 17.9439 21.0756 17.9474ZM13.8767 17.7006C12.669 17.0696 11.3958 16.3227 10.1056 15.4788L10.1055 15.4787C8.61057 14.5006 7.22852 13.481 6.01887 12.4796C6.26322 15.5691 8.84771 18 12 18C12.6554 18 13.2863 17.8949 13.8767 17.7006ZM4.09504 10.763C3.81783 10.4939 3.55688 10.2291 3.31351 9.96972C2.50966 9.11308 1.86248 8.27949 1.4632 7.52378C1.10239 6.84084 0.775119 5.90206 1.2021 5.0647M2.87554 6.09578C2.87541 6.09571 2.87716 6.09472 2.8812 6.09303C2.8777 6.09502 2.87567 6.09586 2.87554 6.09578Z" fill="black"/>
</svg>
