<svg width="24" height="24" viewBox="0 0 24 24" fill="none" xmlns="http://www.w3.org/2000/svg">
<path fill-rule="evenodd" clip-rule="evenodd" d="M8.04499 4.16167C8.50805 4.46266 8.63943 5.08205 8.33844 5.54511L4.16686 11.9629L7.53207 18.003L15.6425 4.48562C15.8199 4.1899 16.1372 4.00648 16.482 4.00028C16.8268 3.99408 17.1505 4.16598 17.3384 4.45513L21.8384 11.3782C22.0405 11.689 22.054 12.0861 21.8736 12.4099L17.3736 20.4868C17.1048 20.9693 16.4958 21.1425 16.0133 20.8737C15.5308 20.6049 15.3576 19.9959 15.6264 19.5134L19.8331 11.9629L16.5339 6.88722L8.35749 20.5146C8.17382 20.8207 7.84089 21.0057 7.48395 21C7.127 20.9943 6.80018 20.7987 6.62643 20.4868L2.12643 12.4099C1.94602 12.0861 1.95953 11.689 2.16156 11.3782L6.66156 4.45513C6.96255 3.99207 7.58193 3.86068 8.04499 4.16167Z" fill="black"/>
</svg>
