<svg width="24" height="24" viewBox="0 0 24 24" fill="none" xmlns="http://www.w3.org/2000/svg">
<path fill-rule="evenodd" clip-rule="evenodd" d="M7 3.34414C8.52019 2.46646 10.2446 2.00439 12 2.00439C13.7554 2.00439 15.4798 2.46646 17 3.34414C17.2298 3.47679 17.3974 3.69531 17.466 3.95159C17.5346 4.20788 17.4985 4.48092 17.3658 4.71061L14.3658 9.90061C14.0895 10.3786 13.4781 10.5422 13 10.2662C12.696 10.0907 12.3511 9.99824 12 9.99824C11.6489 9.99824 11.304 10.0907 11 10.2662C10.5219 10.5422 9.91052 10.3786 9.63423 9.90061L6.63423 4.71061C6.50146 4.48092 6.46541 4.20788 6.53401 3.95159C6.60261 3.69531 6.77024 3.47679 7 3.34414ZM8.8979 4.63032L10.9291 8.14426C11.2763 8.04778 11.6365 7.99824 12 7.99824C12.3635 7.99824 12.7237 8.04778 13.0709 8.14426L15.1021 4.63032C14.1231 4.21849 13.0687 4.00439 12 4.00439C10.9313 4.00439 9.87686 4.21849 8.8979 4.63032ZM2.29273 11.2932C2.48028 11.1056 2.7347 11.0002 3 11.0002H9C9.26533 11.0002 9.51978 11.1056 9.70733 11.2933C9.89489 11.481 10.0002 11.7355 10 12.0008C9.99977 12.3521 10.0921 12.6973 10.2676 13.0015C10.4432 13.3058 10.6958 13.5585 11 13.7341C11.2298 13.8668 11.3974 14.0853 11.466 14.3416C11.5346 14.5979 11.4985 14.8709 11.3658 15.1006L8.36577 20.2906C8.08948 20.7686 7.47812 20.9322 7 20.6562C5.4805 19.7789 4.21856 18.5173 3.34092 16.998C2.46328 15.4787 2.00082 13.7552 2 12.0006C1.99988 11.7353 2.10518 11.4809 2.29273 11.2932ZM4.06328 13.0002C4.19652 14.0532 4.53846 15.0727 5.07274 15.9976C5.60719 16.9228 6.31977 17.7285 7.16578 18.3701L9.19715 14.8559C8.93994 14.6032 8.71696 14.3159 8.53526 14.001C8.35357 13.6861 8.21647 13.3492 8.12652 13.0002H4.06328ZM14.2927 11.2933C14.4802 11.1056 14.7347 11.0002 15 11.0002H21C21.2653 11.0002 21.5197 11.1056 21.7073 11.2932C21.8948 11.4809 22.0001 11.7353 22 12.0006C21.9992 13.7552 21.5367 15.4787 20.6591 16.998C19.7814 18.5173 18.5195 19.7789 17 20.6562C16.5219 20.9322 15.9105 20.7686 15.6342 20.2906L12.6342 15.1006C12.5015 14.8709 12.4654 14.5979 12.534 14.3416C12.6026 14.0853 12.7702 13.8668 13 13.7341C13.3042 13.5585 13.5568 13.3058 13.7324 13.0015C13.9079 12.6973 14.0002 12.3521 14 12.0008C13.9998 11.7355 14.1051 11.481 14.2927 11.2933ZM15.8735 13.0002C15.7835 13.3492 15.6464 13.6861 15.4647 14.001C15.283 14.3159 15.0601 14.6032 14.8028 14.8559L16.8342 18.3701C17.6802 17.7285 18.3928 16.9228 18.9273 15.9976C19.4615 15.0727 19.8035 14.0532 19.9367 13.0002H15.8735Z" fill="black"/>
</svg>
