<svg width="24" height="24" viewBox="0 0 24 24" fill="none" xmlns="http://www.w3.org/2000/svg">
<path d="M16.5 19.7899L13.5 14.5999C13.9563 14.3365 14.3352 13.9574 14.5986 13.501C14.8619 13.0446 15.0003 12.5269 15 11.9999H21C20.9993 13.579 20.583 15.1302 19.7932 16.4975C19.0033 17.8649 17.8676 19.0004 16.5 19.7899Z" stroke="black" stroke-width="2" stroke-linecap="round" stroke-linejoin="round"/>
<path d="M16.5 4.20992L13.5 9.39992C13.0439 9.13662 12.5266 8.998 12 8.998C11.4734 8.998 10.9561 9.13662 10.5 9.39992L7.5 4.20992C8.86817 3.42001 10.4202 3.00415 12 3.00415C13.5798 3.00415 15.1318 3.42001 16.5 4.20992Z" stroke="black" stroke-width="2" stroke-linecap="round" stroke-linejoin="round"/>
<path d="M7.5 19.7899L10.5 14.5999C10.0437 14.3365 9.66476 13.9574 9.40144 13.501C9.13812 13.0446 8.99966 12.5269 9 11.9999H3C3.00074 13.579 3.41695 15.1302 4.20683 16.4975C4.99671 17.8649 6.13245 19.0004 7.5 19.7899Z" stroke="black" stroke-width="2" stroke-linecap="round" stroke-linejoin="round"/>
</svg>
