<svg width="24" height="24" viewBox="0 0 24 24" fill="none" xmlns="http://www.w3.org/2000/svg">
<path d="M14.2566 15C13.4613 14.0359 13.018 12.8296 12.9999 11.5798C12.9817 10.3301 13.3898 9.11142 14.1569 8.12461C14.9239 7.13779 16.0042 6.44166 17.2198 6.1509C18.4354 5.86014 19.7138 5.99208 20.8443 6.52499C21.9749 7.0579 22.8903 7.96 23.4396 9.08269C23.9889 10.2054 24.1395 11.4817 23.8665 12.7014C23.5935 13.9211 22.9132 15.0114 21.9376 15.7928C20.9621 16.5741 19.7495 16.9999 18.4996 17H5.49965C4.24977 16.9999 3.0372 16.5741 2.06166 15.7928C1.08613 15.0114 0.40583 13.9211 0.132818 12.7014C-0.140194 11.4817 0.0103691 10.2054 0.559706 9.08269C1.10904 7.96 2.02439 7.0579 3.15496 6.52499C4.28553 5.99208 5.5639 5.86014 6.77949 6.1509C7.99507 6.44166 9.07537 7.13779 9.84243 8.12461C10.6095 9.11142 11.0176 10.3301 10.9994 11.5798C10.9813 12.8296 10.538 14.0359 9.74265 15H14.2566ZM5.49965 15C6.4279 15 7.31814 14.6313 7.97452 13.9749C8.6309 13.3185 8.99965 12.4283 8.99965 11.5C8.99965 10.5717 8.6309 9.68151 7.97452 9.02513C7.31814 8.36875 6.4279 8 5.49965 8C4.57139 8 3.68115 8.36875 3.02477 9.02513C2.3684 9.68151 1.99965 10.5717 1.99965 11.5C1.99965 12.4283 2.3684 13.3185 3.02477 13.9749C3.68115 14.6313 4.57139 15 5.49965 15ZM18.4996 15C19.4279 15 20.3181 14.6313 20.9745 13.9749C21.6309 13.3185 21.9996 12.4283 21.9996 11.5C21.9996 10.5717 21.6309 9.68151 20.9745 9.02513C20.3181 8.36875 19.4279 8 18.4996 8C17.5714 8 16.6812 8.36875 16.0248 9.02513C15.3684 9.68151 14.9996 10.5717 14.9996 11.5C14.9996 12.4283 15.3684 13.3185 16.0248 13.9749C16.6812 14.6313 17.5714 15 18.4996 15Z" fill="black"/>
</svg>
