<svg width="24" height="24" viewBox="0 0 24 24" fill="none" xmlns="http://www.w3.org/2000/svg">
<path d="M19.562 12.0968L21.093 14.7498C22.06 16.4238 21.486 18.5648 19.813 19.5308C19.28 19.8378 18.677 19.9998 18.063 19.9998H16V22.4998L11 18.9998L16 15.4998V17.9998H18.062C18.325 17.9998 18.584 17.9298 18.812 17.7988C19.53 17.3848 19.775 16.4668 19.362 15.7498L17.83 13.0968L19.562 12.0968ZM7.304 9.13376L7.83399 15.2138L5.67 13.9638L4.63899 15.7498C4.50699 15.9778 4.438 16.2368 4.438 16.4998C4.438 17.3278 5.10899 17.9998 5.93799 17.9998H9V19.9998H5.93799C4.00499 19.9998 2.43799 18.4328 2.43799 16.4998C2.43799 15.8858 2.6 15.2818 2.907 14.7498L3.937 12.9628L1.77299 11.7138L7.30299 9.13376H7.304ZM13.75 2.96876C14.282 3.27576 14.724 3.71776 15.031 4.24976L16.061 6.03476L18.227 4.78476L17.697 10.8658L12.165 8.28576L14.33 7.03576L13.299 5.24976C13.167 5.02176 12.978 4.83276 12.75 4.70076C12.033 4.28676 11.115 4.53276 10.701 5.24976L9.16899 7.90276L7.43699 6.90276L8.97 4.24976C9.936 2.57576 12.077 2.00176 13.751 2.96876H13.75Z" fill="black"/>
</svg>
