<svg width="24" height="24" viewBox="0 0 24 24" fill="none" xmlns="http://www.w3.org/2000/svg">
<path d="M9.98792 18.9971L12.009 16.9943V18.9971M9.98792 18.9971L12.009 21V18.9971M9.98792 18.9971H12.009M12.009 18.9971H19.0829C19.4049 18.9807 19.7182 18.8882 19.9968 18.7273C20.2753 18.5664 20.5109 18.3418 20.684 18.0722C20.8571 17.8027 20.9626 17.496 20.9917 17.1779C21.0209 16.8597 20.9727 16.5392 20.8514 16.2432L20.2956 15.2418M7.76858 8.24976L8.50836 10.9857L6.75802 9.98429M7.76858 8.24976L5.00769 8.98286L6.75802 9.98429M7.76858 8.24976L6.75802 9.98429M6.75802 9.98429L3.22107 16.0551C3.07446 16.3397 2.99867 16.6548 3.00002 16.9743C3.00137 17.2938 3.07982 17.6083 3.22883 17.8916C3.37784 18.1749 3.59309 18.4188 3.85659 18.6029C4.12009 18.787 4.4242 18.9059 4.74355 18.9498L5.89662 18.9735M18.2706 11.7188L15.5097 10.9857L17.2601 9.98429M18.2706 11.7188L19.0104 8.98286L17.2601 9.98429M18.2706 11.7188L17.2601 9.98429M17.2601 9.98429L13.7231 3.91345C13.5477 3.64536 13.3102 3.42273 13.0303 3.26415C12.7505 3.10557 12.4364 3.01564 12.1143 3.00186C11.7922 2.98809 11.4714 3.05087 11.1788 3.18497C10.8862 3.31906 10.6302 3.52059 10.4321 3.77271L9.83488 4.75041" stroke="black" stroke-width="2" stroke-linecap="round" stroke-linejoin="round"/>
</svg>
