<svg width="24" height="24" viewBox="0 0 24 24" fill="none" xmlns="http://www.w3.org/2000/svg">
<path d="M11.102 7.81522L11.853 4.27922C11.9076 4.02226 12.0124 3.7786 12.1612 3.56213C12.3101 3.34566 12.5001 3.16064 12.7205 3.01763C12.9408 2.87463 13.1872 2.77643 13.4455 2.72866C13.7038 2.68089 13.969 2.68448 14.226 2.73922L17.422 3.41922C17.7166 3.09204 18.1109 2.87122 18.5439 2.79101C18.9768 2.7108 19.4241 2.77569 19.8163 2.9756C20.2086 3.17552 20.524 3.49929 20.7135 3.8967C20.903 4.29411 20.956 4.74295 20.8645 5.1736C20.7729 5.60425 20.5417 5.99264 20.2069 6.27853C19.8721 6.56443 19.4523 6.73184 19.0126 6.75482C18.5729 6.77779 18.1379 6.65504 17.7751 6.4056C17.4123 6.15616 17.142 5.79398 17.006 5.37522L13.81 4.69522L13.144 7.83022C14.928 7.96722 16.701 8.56022 18.307 9.53022C18.7842 9.26487 19.3215 9.12638 19.8676 9.128C20.4136 9.12963 20.9501 9.2713 21.4258 9.53947C21.9014 9.80765 22.3003 10.1934 22.5844 10.6597C22.8684 11.1261 23.028 11.6575 23.048 12.2032V12.2242C23.0556 12.7133 22.9508 13.1977 22.7415 13.6398C22.5322 14.0819 22.2241 14.4701 21.841 14.7742C21.8392 14.8153 21.8365 14.8563 21.833 14.8972C21.833 18.8952 17.383 21.9272 12.034 21.9272C6.70198 21.9272 2.32598 18.9032 2.32898 14.9742C2.32461 14.9139 2.32128 14.8536 2.31898 14.7932C1.67309 14.3084 1.23498 13.5968 1.09293 12.8018C0.950878 12.0068 1.11545 11.1875 1.55348 10.509C1.99151 9.83057 2.67043 9.34334 3.45343 9.14556C4.23643 8.94778 5.06529 9.05414 5.77297 9.44322C7.38808 8.46986 9.21866 7.91062 11.102 7.81522ZM20.388 13.3412C20.796 13.1382 21.052 12.7212 21.049 12.2662C21.0386 12.0374 20.9625 11.8164 20.8298 11.6298C20.6971 11.4431 20.5134 11.2986 20.3007 11.2135C20.088 11.1285 19.8554 11.1066 19.6305 11.1503C19.4057 11.1941 19.1983 11.3016 19.033 11.4602L18.448 12.0202L17.778 11.5652C16.163 10.4672 14.326 9.84022 12.548 9.80122H11.542C9.66698 9.83022 7.89097 10.4012 6.30498 11.4762L5.64198 11.9262L5.05798 11.3762C4.93204 11.258 4.78191 11.1686 4.61799 11.1141C4.45407 11.0597 4.28027 11.0415 4.10863 11.0608C3.93699 11.0802 3.77161 11.1366 3.62393 11.2262C3.47625 11.3158 3.34981 11.4364 3.25335 11.5797C3.1569 11.723 3.09274 11.8855 3.06531 12.0561C3.03788 12.2266 3.04785 12.4011 3.09451 12.5674C3.14117 12.7337 3.22342 12.8878 3.33556 13.0192C3.4477 13.1506 3.58706 13.256 3.74397 13.3282L4.37697 13.6182L4.32297 14.3132C4.30997 14.4832 4.30998 14.6522 4.32598 14.8972C4.32598 17.6072 7.68198 19.9272 12.034 19.9272C16.405 19.9272 19.833 17.5912 19.836 14.8212C19.849 14.6521 19.849 14.4823 19.836 14.3132L19.784 13.6412L20.388 13.3412ZM6.99998 13.5002C6.99998 13.1024 7.15801 12.7209 7.43931 12.4396C7.72062 12.1583 8.10215 12.0002 8.49998 12.0002C8.8978 12.0002 9.27933 12.1583 9.56064 12.4396C9.84194 12.7209 9.99998 13.1024 9.99998 13.5002C9.99998 13.898 9.84194 14.2796 9.56064 14.5609C9.27933 14.8422 8.8978 15.0002 8.49998 15.0002C8.10215 15.0002 7.72062 14.8422 7.43931 14.5609C7.15801 14.2796 6.99998 13.898 6.99998 13.5002ZM14 13.5002C14 13.1024 14.158 12.7209 14.4393 12.4396C14.7206 12.1583 15.1022 12.0002 15.5 12.0002C15.8978 12.0002 16.2793 12.1583 16.5606 12.4396C16.8419 12.7209 17 13.1024 17 13.5002C17 13.898 16.8419 14.2796 16.5606 14.5609C16.2793 14.8422 15.8978 15.0002 15.5 15.0002C15.1022 15.0002 14.7206 14.8422 14.4393 14.5609C14.158 14.2796 14 13.898 14 13.5002ZM12.016 18.6032C10.619 18.6032 9.24897 18.2332 8.13398 17.3932C8.06662 17.3119 8.03203 17.2084 8.03697 17.1029C8.04191 16.9974 8.08603 16.8976 8.16069 16.8229C8.23536 16.7483 8.33519 16.7042 8.44066 16.6992C8.54614 16.6943 8.64966 16.7289 8.73098 16.7962C9.67597 17.4892 10.854 17.7862 12 17.7862C13.146 17.7862 14.33 17.5112 15.284 16.8272C15.3391 16.7734 15.4075 16.7351 15.4822 16.716C15.5569 16.697 15.6353 16.698 15.7095 16.7189C15.7836 16.7398 15.851 16.7798 15.9048 16.835C15.9586 16.8902 15.997 16.9585 16.016 17.0332C16.0322 17.1081 16.0298 17.1858 16.0091 17.2595C15.9883 17.3333 15.9498 17.4008 15.897 17.4562C15.213 18.2532 13.413 18.6032 12.016 18.6032Z" fill="black"/>
</svg>
