<svg width="24" height="24" viewBox="0 0 24 24" fill="none" xmlns="http://www.w3.org/2000/svg">
<path d="M15.502 19.545C14.8404 21.1273 13.5823 22.3854 12 23.047C10.4177 22.3854 9.15956 21.1273 8.498 19.545H10.758C11.084 20.034 11.505 20.457 12 20.788C12.495 20.458 12.916 20.034 13.243 19.545H15.502ZM18 14.35L20 16.618V18.545H4V16.618L6 14.35V8.545C6 5.062 8.504 2.098 12 1C15.496 2.098 18 5.062 18 8.545V14.35ZM17.27 16.545L16 15.105V8.545C16 6.227 14.43 4.115 12 3.125C9.57 4.115 8 6.226 8 8.545V15.105L6.73 16.545H17.27ZM12 10.545C11.4696 10.545 10.9609 10.3343 10.5858 9.95921C10.2107 9.58414 10 9.07543 10 8.545C10 8.01457 10.2107 7.50586 10.5858 7.13079C10.9609 6.75571 11.4696 6.545 12 6.545C12.5304 6.545 13.0391 6.75571 13.4142 7.13079C13.7893 7.50586 14 8.01457 14 8.545C14 9.07543 13.7893 9.58414 13.4142 9.95921C13.0391 10.3343 12.5304 10.545 12 10.545Z" fill="black"/>
</svg>
