<svg width="24" height="24" viewBox="0 0 24 24" fill="none" xmlns="http://www.w3.org/2000/svg">
<path fill-rule="evenodd" clip-rule="evenodd" d="M16.372 2.15054C17.649 2.38454 18.931 2.95954 19.552 4.14254C20.192 5.36254 20.125 6.54854 19.593 7.54754C19.09 8.49154 18.213 9.19754 17.331 9.67154C16.441 10.1495 15.438 10.4495 14.559 10.5085C14.122 10.5385 13.662 10.5105 13.243 10.3755C12.823 10.2395 12.36 9.96354 12.103 9.44354C11.9874 9.21339 11.965 8.94751 12.0406 8.7013C12.1161 8.45508 12.2838 8.24751 12.5086 8.12183C12.7334 7.99615 12.998 7.96205 13.2474 8.02664C13.4967 8.09123 13.7115 8.24952 13.847 8.46854C13.8503 8.4699 13.8536 8.47124 13.857 8.47254C13.957 8.50454 14.144 8.53254 14.426 8.51254C14.986 8.47554 15.714 8.26954 16.384 7.90954C17.061 7.54654 17.574 7.08354 17.828 6.60654C18.053 6.18554 18.11 5.69854 17.782 5.07254C17.582 4.69054 17.044 4.30654 16.012 4.11754C15.014 3.93454 13.747 3.97754 12.447 4.24754C11.15 4.51754 9.88397 5.00054 8.87997 5.64454C7.86597 6.29454 7.20497 7.05054 6.95097 7.83454C6.67697 8.68154 6.77397 9.27854 7.02097 9.76854C7.29297 10.3055 7.78897 10.8035 8.47397 11.3365C8.80597 11.5945 9.15797 11.8435 9.52897 12.1065L9.54897 12.1205C9.91997 12.3825 10.312 12.6595 10.677 12.9485C10.986 13.1915 11.3 13.4615 11.589 13.7655C12.882 13.5155 14.002 13.5425 14.921 13.9625C16.103 14.5035 16.695 15.5695 16.974 16.7755C17.0075 16.9048 17.0147 17.0395 16.9953 17.1716C16.9759 17.3038 16.9302 17.4307 16.861 17.5449C16.7917 17.659 16.7003 17.7582 16.5921 17.8365C16.4839 17.9148 16.3611 17.9706 16.231 18.0006C16.1009 18.0307 15.9661 18.0344 15.8345 18.0115C15.7029 17.9886 15.5773 17.9396 15.4649 17.8673C15.3526 17.7951 15.2559 17.7011 15.1805 17.5909C15.1051 17.4806 15.0526 17.3564 15.026 17.2255C14.826 16.3595 14.499 15.9695 14.089 15.7815C13.789 15.6445 13.339 15.5655 12.671 15.6265C13.287 17.7915 12.211 19.7525 10.895 20.8635C10.185 21.4625 9.31797 21.8985 8.44897 21.9845C7.54197 22.0755 6.57197 21.7705 6.00197 20.8235C5.49997 19.9865 5.49597 19.0965 5.75797 18.3035C6.00997 17.5415 6.50797 16.8555 7.05397 16.2875C7.74827 15.5769 8.54635 14.9758 9.42097 14.5045C9.08533 14.2456 8.74322 13.9952 8.39497 13.7535L8.35897 13.7275C7.98182 13.4654 7.61072 13.1947 7.24597 12.9155C6.49597 12.3305 5.71097 11.6115 5.23597 10.6695C4.73597 9.67954 4.62197 8.53554 5.04897 7.21754C5.49597 5.83554 6.56397 4.75354 7.79997 3.96054C9.04597 3.16254 10.55 2.59954 12.04 2.29054C13.526 1.98054 15.06 1.91054 16.372 2.15054ZM10.722 16.0905C9.89186 16.4818 9.13808 17.0179 8.49597 17.6735C8.06597 18.1205 7.78097 18.5555 7.65597 18.9325C7.54197 19.2785 7.56797 19.5455 7.71597 19.7935C7.79897 19.9305 7.92597 20.0275 8.25097 19.9945C8.61597 19.9585 9.11697 19.7475 9.60597 19.3345C10.541 18.5465 11.107 17.3245 10.722 16.0905ZM13.812 8.45454H13.814H13.812Z" fill="black"/>
</svg>
