<svg width="24" height="24" viewBox="0 0 24 24" fill="none" xmlns="http://www.w3.org/2000/svg">
<path fill-rule="evenodd" clip-rule="evenodd" d="M6.375 4C5.06332 4 4 5.06332 4 6.375C4 7.68668 5.06332 8.75 6.375 8.75C7.68668 8.75 8.75 7.68668 8.75 6.375C8.75 5.06332 7.68668 4 6.375 4ZM2 6.375C2 3.95875 3.95875 2 6.375 2C8.79125 2 10.75 3.95875 10.75 6.375C10.75 6.92167 10.6497 7.44493 10.4666 7.92738L13.125 10.5858L20.2929 3.41789C20.6834 3.02737 21.3166 3.02737 21.7071 3.41789C22.0976 3.80842 22.0976 4.44158 21.7071 4.83211L14.5392 12L21.7071 19.1679C22.0976 19.5584 22.0976 20.1916 21.7071 20.5821C21.3166 20.9726 20.6834 20.9726 20.2929 20.5821L13.125 13.4142L10.4666 16.0726C10.6497 16.5551 10.75 17.0783 10.75 17.625C10.75 20.0412 8.79125 22 6.375 22C3.95875 22 2 20.0412 2 17.625C2 15.2088 3.95875 13.25 6.375 13.25C7.50955 13.25 8.54323 13.6819 9.32062 14.3902L11.7108 12L9.32062 9.60984C8.54323 10.3181 7.50955 10.75 6.375 10.75C3.95875 10.75 2 8.79125 2 6.375ZM6.375 15.25C5.06332 15.25 4 16.3133 4 17.625C4 18.9367 5.06332 20 6.375 20C7.68668 20 8.75 18.9367 8.75 17.625C8.75 16.3133 7.68668 15.25 6.375 15.25Z" fill="black"/>
</svg>
