<svg width="24" height="24" viewBox="0 0 24 24" fill="none" xmlns="http://www.w3.org/2000/svg">
<path fill-rule="evenodd" clip-rule="evenodd" d="M14.375 4C14.375 3.44772 14.8227 3 15.375 3H16.5C17.3671 3 18.1954 3.35006 18.8036 3.96795C19.4114 4.58531 19.75 5.41933 19.75 6.28571V12C19.75 12.4917 19.3926 12.9104 18.907 12.9876C17.7073 13.1784 16.5957 13.7515 15.7335 14.6274C14.871 15.5036 14.3027 16.6375 14.1133 17.8666C14.0382 18.3543 13.6185 18.7143 13.125 18.7143H8.3463C7.9294 20.033 6.70991 21 5.25 21C3.44029 21 2 19.514 2 17.7143C2 15.9145 3.44029 14.4286 5.25 14.4286C6.70991 14.4286 7.9294 15.3956 8.3463 16.7143H12.315C12.667 15.4009 13.3514 14.1964 14.3082 13.2244C15.2642 12.2532 16.4517 11.5555 17.75 11.1956V6.28571C17.75 5.93968 17.6145 5.61094 17.3783 5.37099C17.1427 5.13157 16.8264 5 16.5 5H15.375C14.8227 5 14.375 4.55228 14.375 4ZM5.25 16.4286C4.57443 16.4286 4 16.9893 4 17.7143C4 18.4393 4.57443 19 5.25 19C5.92557 19 6.5 18.4393 6.5 17.7143C6.5 16.9893 5.92557 16.4286 5.25 16.4286ZM18.75 16.4286C18.0744 16.4286 17.5 16.9893 17.5 17.7143C17.5 18.4393 18.0744 19 18.75 19C19.4256 19 20 18.4393 20 17.7143C20 16.9893 19.4256 16.4286 18.75 16.4286ZM15.5 17.7143C15.5 15.9145 16.9403 14.4286 18.75 14.4286C20.5597 14.4286 22 15.9145 22 17.7143C22 19.514 20.5597 21 18.75 21C16.9403 21 15.5 19.514 15.5 17.7143Z" fill="black"/>
</svg>
