<svg width="24" height="24" viewBox="0 0 24 24" fill="none" xmlns="http://www.w3.org/2000/svg">
<path fill-rule="evenodd" clip-rule="evenodd" d="M21.2929 1.29297L1.29291 21.293L2.70712 22.7072L6.57604 18.8383C7.88274 19.5778 9.39236 20 11 20C13.042 20.0029 15.0237 19.3082 16.617 18.031L20.899 22.314L22.314 20.899L18.031 16.617C19.3082 15.0237 20.0029 13.042 20 11C20 9.39236 19.5778 7.88274 18.8383 6.57604L22.7071 2.70718L21.2929 1.29297ZM17.3548 8.05947L8.05947 17.3548C8.95337 17.7689 9.94954 18 11 18C12.8204 18.0029 14.5699 17.2941 15.875 16.025L16.025 15.875C17.2941 14.5699 18.0029 12.8204 18 11C18 9.94954 17.7689 8.95337 17.3548 8.05947Z" fill="black"/>
<path d="M11 4C12.5728 4 14.0242 4.51811 15.1927 5.39313L16.6168 3.96907C15.0769 2.73701 13.124 2 11 2C6.032 2 2 6.032 2 11C2 13.124 2.73701 15.0769 3.96907 16.6168L5.39313 15.1927C4.51811 14.0242 4 12.5728 4 11C4 7.132 7.132 4 11 4Z" fill="black"/>
</svg>
