<svg width="24" height="24" viewBox="0 0 24 24" fill="none" xmlns="http://www.w3.org/2000/svg">
<path d="M16.6569 16.6569C18.1046 15.2091 19 13.2091 19 11C19 9.30167 18.4708 7.72694 17.5683 6.43173M16.6569 16.6569C15.2091 18.1046 13.2091 19 11 19C9.30167 19 7.72694 18.4708 6.43173 17.5683M16.6569 16.6569L21 21M14.9554 4.04463C13.7888 3.37981 12.4388 3 11 3C6.58172 3 3 6.58172 3 11C3 12.4388 3.37981 13.7888 4.04463 14.9554M17.5683 6.43173L23 1M17.5683 6.43173L6.43173 17.5683M6.43173 17.5683L1 23" stroke="black" stroke-width="2" stroke-linecap="round" stroke-linejoin="round"/>
</svg>
