<svg width="24" height="24" viewBox="0 0 24 24" fill="none" xmlns="http://www.w3.org/2000/svg">
<path d="M12 11.5H8.66667C6.89856 11.5 5.20286 10.8283 3.95262 9.63281C2.70238 8.43726 2 6.81576 2 5.125V3H5.33333C7.10144 3 8.79714 3.67165 10.0474 4.86719C11.2976 6.06274 12 7.68425 12 9.375V11.5ZM12 11.5V13.625M12 13.625C12 11.9342 12.7024 10.3127 13.9526 9.11719C15.2029 7.92165 16.8986 7.25 18.6667 7.25H22V8.3125C22 10.0033 21.2976 11.6248 20.0474 12.8203C18.7971 14.0159 17.1014 14.6875 15.3333 14.6875H12M12 13.625V14.6875M12 14.6875V21" stroke="black" stroke-width="2" stroke-linecap="round" stroke-linejoin="round"/>
</svg>
