<svg width="24" height="24" viewBox="0 0 24 24" fill="none" xmlns="http://www.w3.org/2000/svg">
<path fill-rule="evenodd" clip-rule="evenodd" d="M21.7071 2.29292C21.9813 2.56708 22.0722 2.975 21.9406 3.33967L15.5544 21.0244C15.545 21.0505 15.5345 21.0762 15.5229 21.1014C15.4001 21.3695 15.2028 21.5967 14.9545 21.756C14.7063 21.9153 14.4176 22 14.1226 22C13.8276 22 13.5389 21.9153 13.2907 21.756C13.0484 21.6006 12.8547 21.3804 12.7313 21.1207L9.4473 14.5527L2.87934 11.2687C2.6196 11.1453 2.39945 10.9516 2.24399 10.7094C2.08468 10.4611 2 10.1724 2 9.87743C2 9.58248 2.08468 9.29372 2.24399 9.04549C2.40329 8.79725 2.63051 8.59997 2.89865 8.4771C2.92386 8.46555 2.94953 8.45505 2.97561 8.44563L20.6604 2.05947C21.025 1.92779 21.4329 2.01876 21.7071 2.29292ZM11.4094 14.0048L14.0533 19.2927L18.5365 6.87772L11.4094 14.0048ZM17.1223 5.46351L4.70735 9.94669L9.9952 12.5906L17.1223 5.46351Z" fill="black"/>
</svg>
