<svg width="24" height="24" viewBox="0 0 24 24" fill="none" xmlns="http://www.w3.org/2000/svg">
<path d="M15.3161 7.34193C15.8087 8.32508 16.8255 9 18 9C19.6569 9 21 7.65685 21 6C21 4.34315 19.6569 3 18 3C16.3431 3 15 4.34315 15 6C15 6.48237 15.1138 6.93815 15.3161 7.34193ZM15.3161 7.34193L8.68387 10.6581M8.68387 10.6581C8.19134 9.67492 7.17449 9 6 9C4.34315 9 3 10.3431 3 12C3 13.6569 4.34315 15 6 15C7.17449 15 8.19134 14.3251 8.68387 13.3419M8.68387 10.6581C8.88616 11.0619 9 11.5176 9 12C9 12.4824 8.88616 12.9381 8.68387 13.3419M15.3161 16.6581C15.1138 17.0619 15 17.5176 15 18C15 19.6569 16.3431 21 18 21C19.6569 21 21 19.6569 21 18C21 16.3431 19.6569 15 18 15C16.8255 15 15.8087 15.6749 15.3161 16.6581ZM15.3161 16.6581L8.68387 13.3419" stroke="black" stroke-width="2" stroke-linecap="round" stroke-linejoin="round"/>
</svg>
