<svg width="24" height="24" viewBox="0 0 24 24" fill="none" xmlns="http://www.w3.org/2000/svg">
<path d="M20.2899 16.62C20.2603 16.6753 20.2298 16.7301 20.1985 16.7844L18.7066 15.2925C18.8998 14.8165 18.9999 14.3064 19 13.79V4.604L12 3.05L7.46983 4.0557L5.79339 2.37925L12 1L20.217 2.826C20.4391 2.87536 20.6377 2.99897 20.78 3.1764C20.9224 3.35384 21 3.57452 21 3.802V13.789C20.9999 14.7767 20.756 15.7492 20.2899 16.62Z" fill="black"/>
<path fill-rule="evenodd" clip-rule="evenodd" d="M17.7512 19.1655L21.2929 22.7072L22.7071 21.293L2.70711 1.29297L1.29289 2.70718L3 4.41429V13.79C3.00024 14.7776 3.24424 15.7498 3.71035 16.6205C4.17646 17.4911 4.85027 18.2332 5.672 18.781L12 23L17.7512 19.1655ZM16.3093 17.7236L12 20.597L6.781 17.117C6.23315 16.7517 5.78395 16.2568 5.47326 15.6763C5.16257 15.0957 5.00001 14.4475 5 13.789V6.41429L16.3093 17.7236Z" fill="black"/>
</svg>
