<svg width="24" height="24" viewBox="0 0 24 24" fill="none" xmlns="http://www.w3.org/2000/svg">
<path fill-rule="evenodd" clip-rule="evenodd" d="M4 4H2V2H5C5.55228 2 6 2.44772 6 3V15H18.256L20.656 7H8V5H22C22.3161 5 22.6136 5.14946 22.8023 5.40307C22.991 5.65668 23.0487 5.98457 22.9578 6.28735L19.9578 16.2873C19.8309 16.7103 19.4416 17 19 17H5C4.44772 17 4 16.5523 4 16V4ZM4 21C4 19.8954 4.89543 19 6 19C7.10457 19 8 19.8954 8 21C8 22.1046 7.10457 23 6 23C4.89543 23 4 22.1046 4 21ZM16 21C16 19.8954 16.8954 19 18 19C19.1046 19 20 19.8954 20 21C20 22.1046 19.1046 23 18 23C16.8954 23 16 22.1046 16 21Z" fill="black"/>
</svg>
