<svg width="24" height="24" viewBox="0 0 24 24" fill="none" xmlns="http://www.w3.org/2000/svg">
<path fill-rule="evenodd" clip-rule="evenodd" d="M5.0915 4.58214C5.25469 4.22734 5.60948 4 6.00001 4H17C17.5304 4 18.0392 4.21071 18.4142 4.58579C18.7893 4.96086 19 5.46957 19 6V9H17L17 6L8.17423 6L12.7593 11.3492C13.0803 11.7237 13.0803 12.2763 12.7593 12.6508L8.17423 18H17V15H19V18C19 18.5304 18.7893 19.0391 18.4142 19.4142C18.0392 19.7893 17.5304 20 17 20H6.00001C5.60948 20 5.25469 19.7727 5.0915 19.4179C4.92832 19.0631 4.9866 18.6457 5.24076 18.3492L10.6829 12L5.24076 5.65079C4.9866 5.35428 4.92832 4.93694 5.0915 4.58214Z" fill="black"/>
</svg>
