<svg width="24" height="24" viewBox="0 0 24 24" fill="none" xmlns="http://www.w3.org/2000/svg">
<path fill-rule="evenodd" clip-rule="evenodd" d="M7.55122 3.00391L7.55399 3.00391L16.4828 3.00391C16.8073 3.00482 17.1267 3.08467 17.4135 3.23659C17.7003 3.38851 17.9457 3.60793 18.1288 3.87591L18.1295 3.87705L21.666 9.07031C22.1891 9.83693 22.1172 10.8635 21.4926 11.5499L13.4929 20.3396C13.4928 20.3397 13.4931 20.3394 13.4929 20.3396C12.6963 21.2154 11.3192 21.2159 10.5225 20.34C10.5223 20.3399 10.5226 20.3402 10.5225 20.34L2.52247 11.551C2.47068 11.4941 2.42636 11.4323 2.38974 11.367C1.90498 10.6894 1.88577 9.77042 2.36477 9.06857L5.90477 3.87657C6.0878 3.60859 6.33374 3.38851 6.6205 3.23659C6.90727 3.08467 7.2267 3.00482 7.55122 3.00391ZM4.11215 10.3263L12.0015 18.9938L12.0038 18.9961C12.0038 18.9961 12.0038 18.9961 12.0038 18.9961M4.11215 10.3263C4.08407 10.2839 4.05251 10.2432 4.01755 10.2048C4.01657 10.2037 4.01638 10.2033 4.0163 10.2031C4.0161 10.2026 4.01579 10.2016 4.01569 10.2003C4.0156 10.1989 4.01577 10.198 4.01587 10.1976C4.0159 10.1975 4.01594 10.1971 4.01672 10.196L7.55677 5.00391L16.4772 5.00391L20.0134 10.1968L20.0143 10.1981C20.0144 10.1983 20.0146 10.1994 20.0146 10.2006C20.0145 10.2019 20.0142 10.2027 20.0141 10.203L20.0134 10.2038L12.0134 18.9938L12.0112 18.9961" fill="black"/>
</svg>
