<svg width="24" height="24" viewBox="0 0 24 24" fill="none" xmlns="http://www.w3.org/2000/svg">
<path fill-rule="evenodd" clip-rule="evenodd" d="M8.93841 4.30728C8.29036 4.01461 7.56854 3.92627 6.86903 4.05402C6.16953 4.18178 5.52553 4.51956 5.02277 5.02241C4.52001 5.52525 4.18233 6.16931 4.0547 6.86883C3.92706 7.56836 4.01552 8.29017 4.3083 8.93817C4.4087 9.16039 4.42445 9.41165 4.35257 9.64467C3.92367 11.0351 3.8821 12.5162 4.23235 13.9284C4.5826 15.3407 5.31139 16.6307 6.34028 17.6596C7.36916 18.6885 8.65918 19.4173 10.0715 19.7676C11.4838 20.1178 12.9648 20.0762 14.3552 19.6473C14.5882 19.5755 14.8393 19.5912 15.0615 19.6915C15.7094 19.984 16.4311 20.0723 17.1305 19.9445C17.8299 19.8168 18.4737 19.4791 18.9765 18.9764C19.4792 18.4737 19.8169 17.8298 19.9446 17.1304C20.0724 16.431 19.9841 15.7093 19.6916 15.0614C19.5913 14.8393 19.5756 14.5883 19.6473 14.3555C20.0161 13.1587 20.0987 11.892 19.8885 10.6575C19.6784 9.42296 19.1814 8.25499 18.4375 7.24759C17.6936 6.2402 16.7235 5.42151 15.6055 4.85743C14.4874 4.29335 13.2525 3.99963 12.0002 3.99991L11.9987 3.99991C11.2005 3.99888 10.4066 4.11751 9.64357 4.35184C9.41093 4.42329 9.16021 4.40745 8.93841 4.30728ZM9.40735 2.33918C8.48386 1.99729 7.48303 1.90881 6.50971 2.08657C5.41049 2.28732 4.39849 2.81813 3.60844 3.60831C2.81838 4.3985 2.28775 5.41059 2.08718 6.50984C1.90963 7.48292 1.99818 8.48345 2.34 9.40667C1.90053 11.0414 1.88274 12.763 2.29116 14.4099C2.72896 16.1752 3.63995 17.7877 4.92606 19.0738C6.21217 20.36 7.82469 21.2709 9.59005 21.7088C11.2369 22.1172 12.9587 22.0994 14.5934 21.6599C15.5166 22.0014 16.517 22.0897 17.4899 21.912C18.5889 21.7112 19.6007 21.1805 20.3907 20.3906C21.1806 19.6006 21.7113 18.5888 21.9121 17.4898C22.0898 16.5168 22.0015 15.5164 21.6599 14.5931C22.0335 13.2019 22.1024 11.7448 21.8602 10.3219C21.5975 8.77872 20.9762 7.31876 20.0463 6.05951C19.1164 4.80027 17.9039 3.77692 16.5063 3.07182C15.109 2.36683 13.5656 1.99968 12.0005 1.99991C11.1245 1.99884 10.2526 2.11305 9.40735 2.33918ZM9.49687 8.56766C9.12986 8.83325 9 9.15164 9 9.49991C9 9.76896 9.16477 10.1183 9.73078 10.4523C10.2907 10.7826 11.108 10.9999 12 10.9999C13.181 10.9999 14.3637 11.2811 15.2855 11.825C16.2013 12.3653 17 13.266 17 14.4999C17 15.4646 16.5824 16.3963 15.6756 17.0524C14.8056 17.682 13.5697 17.9999 12 17.9999C11.0956 17.9999 10.0436 17.8651 9.11592 17.39C8.15018 16.8954 7.35596 16.0469 7.02986 14.7424L6.78732 13.7723L8.7276 13.2872L8.97014 14.2574C9.14404 14.953 9.52882 15.3544 10.0276 15.6098C10.5644 15.8848 11.2624 15.9999 12 15.9999C13.3352 15.9999 14.0994 15.7243 14.5031 15.4322C14.8701 15.1666 15 14.8482 15 14.4999C15 14.2309 14.8352 13.8815 14.2692 13.5475C13.7093 13.2172 12.892 12.9999 12 12.9999C10.819 12.9999 9.63629 12.7187 8.71447 12.1748C7.79873 11.6345 7 10.7339 7 9.49991C7 8.53517 7.41764 7.60356 8.32437 6.9474C9.19439 6.31782 10.4302 5.99991 12 5.99991C12.9044 5.99991 13.9564 6.13475 14.8841 6.60984C15.8498 7.10442 16.644 7.95296 16.9701 9.25737L17.2127 10.2275L15.2724 10.7126L15.0299 9.74244C14.856 9.04686 14.4712 8.6454 13.9724 8.38998C13.4356 8.11506 12.7376 7.99991 12 7.99991C10.6648 7.99991 9.90061 8.2755 9.49687 8.56766Z" fill="black"/>
</svg>
