<svg width="24" height="24" viewBox="0 0 24 24" fill="none" xmlns="http://www.w3.org/2000/svg">
<path fill-rule="evenodd" clip-rule="evenodd" d="M10.3827 5.07612C10.2 5.00043 9.99889 4.98063 9.80491 5.01922C9.61093 5.0578 9.43275 5.15304 9.2929 5.29289C9.15304 5.43275 9.0578 5.61093 9.01922 5.80491C8.98063 5.99889 9.00043 6.19996 9.07612 6.38269C9.15181 6.56541 9.27998 6.72159 9.44443 6.83147C9.60888 6.94135 9.80222 7 10 7H11L11 6C11 5.80222 10.9414 5.60888 10.8315 5.44443C10.7216 5.27998 10.5654 5.15181 10.3827 5.07612ZM12 3.76393C11.7495 3.5399 11.4618 3.35834 11.1481 3.22836C10.5999 3.0013 9.99667 2.94189 9.41473 3.05765C8.83279 3.1734 8.29824 3.45912 7.87868 3.87868C7.45912 4.29824 7.1734 4.83279 7.05765 5.41473C6.95222 5.94473 6.99209 6.49236 7.17157 7H6C5.20435 7 4.44129 7.31607 3.87868 7.87868C3.31607 8.44129 3 9.20435 3 10C3 10.7398 3.27328 11.4515 3.76393 12C3.5399 12.2505 3.35834 12.5382 3.22836 12.852C3.0013 13.4001 2.94189 14.0033 3.05765 14.5853C3.1734 15.1672 3.45912 15.7018 3.87868 16.1213C4.29824 16.5409 4.83279 16.8266 5.41473 16.9424C5.94473 17.0478 6.49236 17.0079 7 16.8284V18C7 18.7957 7.31607 19.5587 7.87868 20.1213C8.44129 20.6839 9.20435 21 10 21C10.7398 21 11.4515 20.7267 12 20.2361C12.2505 20.4601 12.5382 20.6417 12.852 20.7716C13.4001 20.9987 14.0033 21.0581 14.5853 20.9424C15.1672 20.8266 15.7018 20.5409 16.1213 20.1213C16.5409 19.7018 16.8266 19.1672 16.9424 18.5853C17.0478 18.0553 17.0079 17.5076 16.8284 17H18C18.7957 17 19.5587 16.6839 20.1213 16.1213C20.6839 15.5587 21 14.7957 21 14C21 13.2602 20.7267 12.5485 20.2361 12C20.4601 11.7495 20.6417 11.4618 20.7716 11.1481C20.9987 10.5999 21.0581 9.99667 20.9424 9.41473C20.8266 8.83279 20.5409 8.29824 20.1213 7.87868C19.7018 7.45913 19.1672 7.1734 18.5853 7.05765C18.0553 6.95222 17.5076 6.99209 17 7.17157V6C17 5.20435 16.6839 4.44129 16.1213 3.87868C15.5587 3.31607 14.7957 3 14 3C13.2602 3 12.5485 3.27328 12 3.76393ZM17 10V11L18 11C18.1978 11 18.3911 10.9414 18.5556 10.8315C18.72 10.7216 18.8482 10.5654 18.9239 10.3827C18.9996 10.2 19.0194 9.99889 18.9808 9.80491C18.9422 9.61093 18.847 9.43275 18.7071 9.2929C18.5673 9.15304 18.3891 9.0578 18.1951 9.01922C18.0011 8.98063 17.8 9.00043 17.6173 9.07612C17.4346 9.15181 17.2784 9.27998 17.1685 9.44443C17.0587 9.60888 17 9.80222 17 10ZM18 13H13V15H18C18.2652 15 18.5196 14.8946 18.7071 14.7071C18.8946 14.5196 19 14.2652 19 14C19 13.7348 18.8946 13.4804 18.7071 13.2929C18.5196 13.1054 18.2652 13 18 13ZM15 6C15 5.73479 14.8946 5.48043 14.7071 5.29289C14.5196 5.10536 14.2652 5 14 5C13.7348 5 13.4804 5.10536 13.2929 5.29289C13.1054 5.48043 13 5.73479 13 6V11L15 11V6ZM11 11L11 9H6C5.73479 9 5.48043 9.10536 5.29289 9.29289C5.10536 9.48043 5 9.73479 5 10C5 10.2652 5.10536 10.5196 5.29289 10.7071C5.48043 10.8946 5.73479 11 6 11H11ZM7 13H6C5.80222 13 5.60888 13.0587 5.44443 13.1685C5.27998 13.2784 5.15181 13.4346 5.07612 13.6173C5.00043 13.8 4.98063 14.0011 5.01922 14.1951C5.0578 14.3891 5.15304 14.5673 5.29289 14.7071C5.43275 14.847 5.61093 14.9422 5.80491 14.9808C5.99889 15.0194 6.19996 14.9996 6.38269 14.9239C6.56541 14.8482 6.72159 14.72 6.83147 14.5556C6.94135 14.3911 7 14.1978 7 14V13ZM14 17H13V18C13 18.1978 13.0587 18.3911 13.1685 18.5556C13.2784 18.72 13.4346 18.8482 13.6173 18.9239C13.8 18.9996 14.0011 19.0194 14.1951 18.9808C14.3891 18.9422 14.5673 18.847 14.7071 18.7071C14.847 18.5673 14.9422 18.3891 14.9808 18.1951C15.0194 18.0011 14.9996 17.8 14.9239 17.6173C14.8482 17.4346 14.72 17.2784 14.5556 17.1685C14.3911 17.0587 14.1978 17 14 17ZM11 18V13H9V18C9 18.2652 9.10536 18.5196 9.29289 18.7071C9.48043 18.8946 9.73479 19 10 19C10.2652 19 10.5196 18.8946 10.7071 18.7071C10.8946 18.5196 11 18.2652 11 18Z" fill="black"/>
</svg>
