<svg width="24" height="24" viewBox="0 0 24 24" fill="none" xmlns="http://www.w3.org/2000/svg">
<path fill-rule="evenodd" clip-rule="evenodd" d="M18 3C18.2707 3 18.5299 3.10975 18.7182 3.30416L21.7182 6.40057C22.0939 6.78838 22.0939 7.40443 21.7182 7.79224L16.3924 13.2892L17.7182 14.6576C18.0833 15.0344 18.0951 15.6293 17.7453 16.0203C15.881 18.1039 13.4941 19.6216 10.8438 20.4032C8.19944 21.183 5.39789 21.1989 2.74552 20.4493C2.66066 20.427 2.57811 20.3934 2.50026 20.3485C2.39467 20.2877 2.30285 20.2089 2.22771 20.1174C2.13535 20.0054 2.07102 19.8779 2.03484 19.7442C1.99789 19.6087 1.98912 19.464 2.01334 19.3187C2.03257 19.2019 2.07262 19.0878 2.13357 18.9823C2.17832 18.9046 2.2328 18.8343 2.29493 18.7727L17.2818 3.30416C17.4702 3.10975 17.7293 3 18 3ZM4.97644 18.8792C6.74487 19.1261 8.54998 18.9945 10.2781 18.4849C12.2734 17.8965 14.1015 16.8231 15.6112 15.3572L14.2818 13.9851C13.9061 13.5972 13.9061 12.9812 14.2818 12.5934L19.6076 7.09641L18 5.43712L4.97644 18.8792Z" fill="black"/>
</svg>
