<svg width="24" height="24" viewBox="0 0 24 24" fill="none" xmlns="http://www.w3.org/2000/svg">
<path fill-rule="evenodd" clip-rule="evenodd" d="M16 4C16.5523 4 17 4.44772 17 5V5.5C17 5.76522 17.1054 6.01957 17.2929 6.20711C17.4804 6.39464 17.7348 6.5 18 6.5C18.7957 6.5 19.5587 6.81607 20.1213 7.37868C20.6839 7.94129 21 8.70435 21 9.5V10C21 10.5523 20.5523 11 20 11C19.4477 11 19 10.5523 19 10V9.5C19 9.23478 18.8946 8.98043 18.7071 8.79289C18.5196 8.60536 18.2652 8.5 18 8.5C17.2044 8.5 16.4413 8.18393 15.8787 7.62132C15.3161 7.05871 15 6.29565 15 5.5V5C15 4.44772 15.4477 4 16 4ZM2 14C2 12.8954 2.89543 12 4 12H20C21.1046 12 22 12.8954 22 14V16C22 17.1046 21.1046 18 20 18H4C2.89543 18 2 17.1046 2 16V14ZM9 16H20V14H9V16ZM7 14V16H4V14H7Z" fill="black"/>
</svg>
