<svg width="24" height="24" viewBox="0 0 24 24" fill="none" xmlns="http://www.w3.org/2000/svg">
<path d="M9 10V14M9 10L12 8.5M9 10L6 8.5M9 14L12 15.5M9 14L6 15.5M12 15.5L15 14M12 15.5V18.75M15 14V10M15 14L18 15.5M15 10L12 8.5M15 10L18 8.5M12 8.5V5.25M6 8.5L3 7M6 8.5L4 10M6 8.5V6M6 15.5L3 17M6 15.5V18M6 15.5L4 14M12 18.75V22M12 18.75L14 20M12 18.75L10 20M12 5.25V2M12 5.25L10 4M12 5.25L14 4M18 8.5L21 7M18 8.5L20 10M18 8.5V6M18 15.5L21 17M18 15.5V18M18 15.5L20 14" stroke="black" stroke-width="2" stroke-linecap="round" stroke-linejoin="round"/>
</svg>
