<svg width="24" height="24" viewBox="0 0 24 24" fill="none" xmlns="http://www.w3.org/2000/svg">
<path fill-rule="evenodd" clip-rule="evenodd" d="M12 1C12.5522 1 13 1.44772 13 2V3H14C14.4637 3 14.8667 3.31888 14.9732 3.77025C15.0798 4.22162 14.862 4.68702 14.4472 4.89443L13 5.61803V7.92064L15.0399 9.0902L17.0269 7.94299L16.93 6.32786C16.9022 5.86492 17.1963 5.44362 17.6405 5.31021C18.0847 5.17681 18.5623 5.36631 18.7942 5.76795L19.2942 6.63397L20.1602 6.13397C20.6385 5.85783 21.2501 6.02171 21.5262 6.5C21.8024 6.97829 21.6385 7.58988 21.1602 7.86603L20.2942 8.36602L20.7942 9.23205C21.0261 9.63369 20.9514 10.1421 20.6138 10.46C20.2761 10.778 19.7642 10.8221 19.3772 10.5666L18.0269 9.67504L16.0328 10.8263L16.0399 13.1778L18.0269 14.325L19.3772 13.4334C19.7642 13.1779 20.2761 13.222 20.6138 13.54C20.9514 13.8579 21.0261 14.3663 20.7942 14.7679L20.2942 15.634L21.1602 16.134C21.6385 16.4101 21.8024 17.0217 21.5262 17.5C21.2501 17.9783 20.6385 18.1422 20.1602 17.866L19.2942 17.366L18.7942 18.232C18.5623 18.6337 18.0847 18.8232 17.6405 18.6898C17.1963 18.5564 16.9022 18.1351 16.93 17.6721L17.0269 16.057L15.0328 14.9057L13 16.0876V18.382L14.4472 19.1056C14.862 19.313 15.0798 19.7784 14.9732 20.2298C14.8667 20.6811 14.4637 21 14 21H13V22C13 22.5523 12.5522 23 12 23C11.4477 23 11 22.5523 11 22V21H9.99996C9.53618 21 9.13326 20.6811 9.02671 20.2298C8.92016 19.7784 9.13793 19.313 9.55275 19.1056L11 18.382V16.0794L8.96003 14.9098L6.97301 16.057L7.06996 17.6721C7.09775 18.1351 6.80359 18.5564 6.35941 18.6898C5.91523 18.8232 5.43762 18.6337 5.20573 18.232L4.70573 17.366L3.83971 17.866C3.36141 18.1422 2.74982 17.9783 2.47368 17.5C2.19754 17.0217 2.36141 16.4101 2.83971 16.134L3.70573 15.634L3.20573 14.7679C2.97384 14.3663 3.04854 13.8579 3.38616 13.54C3.72378 13.222 4.23572 13.1779 4.62275 13.4334L5.97302 14.325L7.96713 13.1737L7.96003 10.8222L5.97301 9.67504L4.62275 10.5666C4.23572 10.8221 3.72378 10.778 3.38616 10.46C3.04854 10.1421 2.97384 9.63369 3.20573 9.23205L3.70573 8.36603L2.83971 7.86603C2.36141 7.58988 2.19754 6.97829 2.47368 6.5C2.74982 6.02171 3.36141 5.85783 3.83971 6.13397L4.70573 6.63397L5.20573 5.76795C5.43762 5.36631 5.91523 5.17681 6.35941 5.31021C6.80359 5.44362 7.09775 5.86492 7.06996 6.32786L6.97301 7.94299L8.96713 9.09429L11 7.91244V5.61803L9.55275 4.89443C9.13793 4.68702 8.92016 4.22162 9.02671 3.77025C9.13326 3.31888 9.53618 3 9.99996 3H11V2C11 1.44772 11.4477 1 12 1ZM11.9929 9.64863L9.96006 10.8305L9.96716 13.1818L12.0071 14.3514L14.0399 13.1695L14.0328 10.8182L11.9929 9.64863Z" fill="black"/>
</svg>
