<svg width="24" height="24" viewBox="0 0 24 24" fill="none" xmlns="http://www.w3.org/2000/svg">
<path d="M12 11C10.3431 11 9 12.3431 9 14C9 14.6504 9.20696 15.2524 9.55861 15.7438M12 11C13.6569 11 15 12.3431 15 14C15 14.6504 14.793 15.2524 14.4414 15.7438M12 11V7M12 7C13.1046 7 14 6.10457 14 5C14 3.89543 13.1046 3 12 3C10.8954 3 10 3.89543 10 5C10 6.10457 10.8954 7 12 7ZM6.62759 17.8374C6.2648 17.3304 5.67099 17 5 17C3.89543 17 3 17.8954 3 19C3 20.1046 3.89543 21 5 21C6.10457 21 7 20.1046 7 19C7 18.5664 6.86203 18.1651 6.62759 17.8374ZM6.62759 17.8374L9.55861 15.7438M14.4414 15.7438C13.8972 16.5044 13.0065 17 12 17C10.9935 17 10.1028 16.5044 9.55861 15.7438M14.4414 15.7438L17.3724 17.8374M17.3724 17.8374C17.138 18.1651 17 18.5664 17 19C17 20.1046 17.8954 21 19 21C20.1046 21 21 20.1046 21 19C21 17.8954 20.1046 17 19 17C18.329 17 17.7352 17.3304 17.3724 17.8374Z" stroke="black" stroke-width="2" stroke-linecap="round" stroke-linejoin="round"/>
</svg>
