<svg width="24" height="24" viewBox="0 0 24 24" fill="none" xmlns="http://www.w3.org/2000/svg">
<path fill-rule="evenodd" clip-rule="evenodd" d="M12 4C11.4477 4 11 4.44772 11 5C11 5.55228 11.4477 6 12 6C12.5523 6 13 5.55228 13 5C13 4.44772 12.5523 4 12 4ZM9 5C9 3.34315 10.3431 2 12 2C13.6569 2 15 3.34315 15 5C15 6.30622 14.1652 7.41746 13 7.82929V10.126C14.7252 10.5701 16 12.1362 16 14C16 14.5111 15.9041 14.9999 15.7294 15.4492L17.2694 16.5492C17.7584 16.2033 18.3554 16 19 16C20.6569 16 22 17.3431 22 19C22 20.6569 20.6569 22 19 22C17.3431 22 16 20.6569 16 19C16 18.7161 16.0394 18.4414 16.1131 18.1811L14.5612 17.0726C13.8674 17.6516 12.9744 18 12 18C11.0256 18 10.1326 17.6516 9.43879 17.0726L7.88688 18.1811C7.96057 18.4414 8 18.7161 8 19C8 20.6569 6.65685 22 5 22C3.34315 22 2 20.6569 2 19C2 17.3431 3.34315 16 5 16C5.64456 16 6.24164 16.2033 6.73064 16.5492L8.27061 15.4492C8.09587 14.9999 8 14.5111 8 14C8 12.1362 9.27477 10.5701 11 10.126V7.82929C9.83481 7.41746 9 6.30622 9 5ZM12 12C10.8954 12 10 12.8954 10 14C10 15.1046 10.8954 16 12 16C13.1046 16 14 15.1046 14 14C14 12.8954 13.1046 12 12 12ZM5 18C4.44772 18 4 18.4477 4 19C4 19.5523 4.44772 20 5 20C5.55228 20 6 19.5523 6 19C6 18.4477 5.55228 18 5 18ZM19 18C18.4477 18 18 18.4477 18 19C18 19.5523 18.4477 20 19 20C19.5523 20 20 19.5523 20 19C20 18.4477 19.5523 18 19 18Z" fill="black"/>
</svg>
