<svg width="24" height="24" viewBox="0 0 24 24" fill="none" xmlns="http://www.w3.org/2000/svg">
<path fill-rule="evenodd" clip-rule="evenodd" d="M17.5177 18.9319L21.2929 22.7072L22.7071 21.293L2.70712 1.29297L1.29291 2.70718L5.58567 6.99995H4C3.46957 6.99995 2.96086 7.21066 2.58579 7.58573C2.21071 7.96081 2 8.46951 2 8.99995V12.9999C2 13.5304 2.21071 14.0391 2.58579 14.4142C2.96086 14.7892 3.46957 14.9999 4 14.9999H6V18.9999C6 19.5304 6.21071 20.0391 6.58579 20.4142C6.96086 20.7892 7.46957 20.9999 8 20.9999H9C9.53043 20.9999 10.0391 20.7892 10.4142 20.4142C10.7893 20.0391 11 19.5304 11 18.9999V14.9999H11.638L15.884 18.5383C16.1615 18.7695 16.4992 18.9167 16.8574 18.9629C17.0786 18.9913 17.3021 18.9805 17.5177 18.9319ZM11.5857 12.9999L11 12.4143V12.9999H11.5857ZM7.58567 8.99995L9 10.4143V12.9999H4V8.99995H7.58567ZM9 14.9999H8V18.9999H9V14.9999Z" fill="black"/>
<path fill-rule="evenodd" clip-rule="evenodd" d="M19 14.8729V15.5858L17 13.5858V5.13499L12.6402 8.76817C12.5532 8.8407 12.4551 8.89734 12.3506 8.93647L10.4141 6.99995H11.6379L15.8838 3.46173C16.1613 3.23058 16.4992 3.08316 16.8574 3.03704C17.2156 2.99092 17.5795 3.04785 17.9065 3.20117C18.2336 3.35449 18.5101 3.59783 18.7038 3.90269C18.8973 4.20741 19.0001 4.56147 19 4.92246V7.12695C19.686 7.3041 20.3189 7.66198 20.8284 8.17152C21.5786 8.92167 22 9.93908 22 10.9999C22 12.0608 21.5786 13.0782 20.8284 13.8284C20.3189 14.3379 19.686 14.6958 19 14.8729ZM19 9.26789V12.732C19.1501 12.6454 19.2895 12.5388 19.4142 12.4142C19.7893 12.0391 20 11.5304 20 10.9999C20 10.4695 19.7893 9.96081 19.4142 9.58573C19.2895 9.46106 19.1501 9.35454 19 9.26789Z" fill="black"/>
</svg>
