<svg width="24" height="24" viewBox="0 0 24 24" fill="none" xmlns="http://www.w3.org/2000/svg">
<path fill-rule="evenodd" clip-rule="evenodd" d="M17 5.13499L12.6402 8.76817C12.4605 8.91793 12.2339 8.99995 12 8.99995H11V12.9999H12C12.2339 12.9999 12.4605 13.082 12.6402 13.2317L17 16.8649V5.13499ZM19 9.26789V12.732C19.1501 12.6454 19.2895 12.5388 19.4142 12.4142C19.7893 12.0391 20 11.5304 20 10.9999C20 10.4695 19.7893 9.96081 19.4142 9.58573C19.2895 9.46106 19.1501 9.35454 19 9.26789ZM19 14.8729C19.686 14.6958 20.3189 14.3379 20.8284 13.8284C21.5786 13.0782 22 12.0608 22 10.9999C22 9.93908 21.5786 8.92167 20.8284 8.17152C20.3189 7.66198 19.686 7.3041 19 7.12695V4.92246M19 14.8729V17.0774C19 17.0776 19 17.0773 19 17.0774C19.0001 17.4384 18.8973 17.7925 18.7038 18.0972C18.5101 18.4021 18.2336 18.6454 17.9065 18.7987C17.5795 18.952 17.2156 19.009 16.8574 18.9629C16.4992 18.9167 16.1615 18.7695 15.884 18.5383L11.638 14.9999H11V18.9999C11 19.5304 10.7893 20.0391 10.4142 20.4142C10.0391 20.7892 9.53043 20.9999 9 20.9999H8C7.46957 20.9999 6.96086 20.7892 6.58579 20.4142C6.21071 20.0391 6 19.5304 6 18.9999V14.9999H4C3.46957 14.9999 2.96086 14.7892 2.58579 14.4142C2.21071 14.0391 2 13.5304 2 12.9999V8.99995C2 8.46951 2.21071 7.96081 2.58579 7.58573C2.96086 7.21066 3.46957 6.99995 4 6.99995H11.6379L15.8838 3.46173C16.1613 3.23058 16.4992 3.08316 16.8574 3.03704C17.2156 2.99092 17.5795 3.04785 17.9065 3.20117C18.2336 3.35449 18.5101 3.59783 18.7038 3.90269C18.8973 4.20741 19.0001 4.56147 19 4.92246M9 8.99995H4V12.9999H9V8.99995ZM9 14.9999H8V18.9999H9V14.9999Z" fill="black"/>
</svg>
