<svg width="24" height="24" viewBox="0 0 24 24" fill="none" xmlns="http://www.w3.org/2000/svg">
<path d="M12 13.3331L2.777 19.4821C2.70171 19.5322 2.61423 19.5609 2.52389 19.5652C2.43355 19.5696 2.34373 19.5493 2.264 19.5066C2.18427 19.4639 2.1176 19.4004 2.07111 19.3228C2.02462 19.2452 2.00005 19.1565 2 19.0661V4.93407C2.00005 4.84363 2.02462 4.75489 2.07111 4.67731C2.1176 4.59973 2.18427 4.53622 2.264 4.49353C2.34373 4.45084 2.43355 4.43058 2.52389 4.4349C2.61423 4.43922 2.70171 4.46796 2.777 4.51807L12 10.6671V4.93407C12 4.84363 12.0246 4.75489 12.0711 4.67731C12.1176 4.59973 12.1843 4.53622 12.264 4.49353C12.3437 4.45084 12.4336 4.43058 12.5239 4.4349C12.6142 4.43922 12.7017 4.46796 12.777 4.51807L23.376 11.5841C23.4445 11.6297 23.5006 11.6916 23.5395 11.7642C23.5783 11.8367 23.5986 11.9178 23.5986 12.0001C23.5986 12.0824 23.5783 12.1634 23.5395 12.236C23.5006 12.3085 23.4445 12.3704 23.376 12.4161L12.777 19.4821C12.7017 19.5322 12.6142 19.5609 12.5239 19.5652C12.4336 19.5696 12.3437 19.5493 12.264 19.5066C12.1843 19.4639 12.1176 19.4004 12.0711 19.3228C12.0246 19.2452 12 19.1565 12 19.0661V13.3331ZM10.394 12.0001L4 7.73707V16.2631L10.394 12.0001ZM14 7.73707V16.2631L20.394 12.0001L14 7.73707Z" fill="black"/>
</svg>
