<svg width="24" height="24" viewBox="0 0 24 24" fill="none" xmlns="http://www.w3.org/2000/svg">
<path d="M16.8298 2.90476L14.8192 4.91534H5.01058V18.9894H19.0847V9.18079L21.0952 7.17021V19.9947C21.0952 20.2613 20.9893 20.517 20.8008 20.7056C20.6123 20.8941 20.3566 21 20.0899 21H4.00529C3.73867 21 3.48297 20.8941 3.29444 20.7056C3.10591 20.517 3 20.2613 3 19.9947V3.91005C3 3.64343 3.10591 3.38773 3.29444 3.1992C3.48297 3.01068 3.73867 2.90476 4.00529 2.90476H16.8298ZM20.5775 2L22 3.42349L12.7594 12.6641L11.3399 12.6671L11.3379 11.2426L20.5775 2Z" fill="black"/>
</svg>
