<svg width="24" height="24" viewBox="0 0 24 24" fill="none" xmlns="http://www.w3.org/2000/svg">
<path fill-rule="evenodd" clip-rule="evenodd" d="M12.4142 4.00015L6.41421 10.0002H9V12.0002H3V6.00015H5V8.58594L11 2.58594L12.4142 4.00015ZM15 8.00015C15 7.44787 15.4477 7.00015 16 7.00015H20C20.5523 7.00015 21 7.44787 21 8.00015C21 8.55244 20.5523 9.00015 20 9.00015H17V12.0002C17 12.5524 16.5523 13.0002 16 13.0002H13V16.0002C13 16.5524 12.5523 17.0002 12 17.0002H9V20.0002C9 20.5524 8.55228 21.0002 8 21.0002H4C3.44772 21.0002 3 20.5524 3 20.0002C3 19.4479 3.44772 19.0002 4 19.0002H7V16.0002C7 15.4479 7.44772 15.0002 8 15.0002H11V12.0002C11 11.4479 11.4477 11.0002 12 11.0002H15V8.00015Z" fill="black"/>
</svg>
