<svg width="24" height="24" viewBox="0 0 24 24" fill="none" xmlns="http://www.w3.org/2000/svg">
<path fill-rule="evenodd" clip-rule="evenodd" d="M6 3H10.9997H12V9H10V6.41421L4 12.4142L2.58578 11L8.58578 5H6V3ZM15 8C15 7.44772 15.4477 7 16 7H20C20.5523 7 21 7.44772 21 8C21 8.55228 20.5523 9 20 9H17V12C17 12.5523 16.5523 13 16 13H13V16C13 16.5523 12.5523 17 12 17H9V20C9 20.5523 8.55228 21 8 21H4C3.44771 21 3 20.5523 3 20C3 19.4477 3.44771 19 4 19H7V16C7 15.4477 7.44771 15 8 15H11V12C11 11.4477 11.4477 11 12 11H15V8Z" fill="black"/>
</svg>
