<svg width="24" height="24" viewBox="0 0 24 24" fill="none" xmlns="http://www.w3.org/2000/svg">
<path fill-rule="evenodd" clip-rule="evenodd" d="M4.03243 11.2748C4.01096 11.5137 4 11.7556 4 12C4 16.0796 7.05369 19.446 11 19.9381V14.8293C10.0744 14.5022 9.35734 13.7337 9.10153 12.7768L4.03243 11.2748ZM4.46138 9.31596L9.27554 10.7424C9.75117 9.7137 10.7922 9 12 9C13.2078 9 14.2488 9.7137 14.7245 10.7424L19.5386 9.31596C18.4355 6.21786 15.4768 4 12 4C8.52325 4 5.5645 6.21786 4.46138 9.31596ZM19.9676 11.2748L14.8985 12.7768C14.6427 13.7337 13.9256 14.5022 13 14.8293V19.9381C16.9463 19.446 20 16.0796 20 12C20 11.7556 19.989 11.5137 19.9676 11.2748ZM2 12C2 6.47715 6.47715 2 12 2C17.5228 2 22 6.47715 22 12C22 17.5228 17.5228 22 12 22C6.47715 22 2 17.5228 2 12ZM12 11C11.4477 11 11 11.4477 11 12C11 12.5523 11.4477 13 12 13C12.5523 13 13 12.5523 13 12C13 11.4477 12.5523 11 12 11Z" fill="black"/>
</svg>
