<svg width="24" height="24" viewBox="0 0 24 24" fill="none" xmlns="http://www.w3.org/2000/svg">
<path fill-rule="evenodd" clip-rule="evenodd" d="M10.6923 4.10759C9.57531 4.29268 8.50515 4.71367 7.55544 5.34824C6.23985 6.22729 5.21447 7.47672 4.60897 8.93853C4.00347 10.4003 3.84504 12.0089 4.15372 13.5607C4.4624 15.1126 5.22433 16.538 6.34315 17.6569C7.46197 18.7757 8.88743 19.5376 10.4393 19.8463C11.9911 20.155 13.5997 19.9965 15.0615 19.391C16.5233 18.7855 17.7727 17.7602 18.6518 16.4446C19.2863 15.4948 19.7073 14.4247 19.8924 13.3077L18.9925 13.5326C18.9415 13.5454 18.8895 13.5541 18.8371 13.5587C17.7098 13.6573 16.5745 13.5078 15.5111 13.1208C14.4477 12.7337 13.482 12.1185 12.6817 11.3183C11.8815 10.518 11.2663 9.55231 10.8792 8.4889C10.4922 7.42549 10.3427 6.29022 10.4413 5.16286C10.4459 5.11046 10.4546 5.0585 10.4674 5.00746L10.6923 4.10759ZM12.5418 4.95599L19.044 11.4582L18.5872 11.5724C17.7757 11.6326 16.9604 11.5199 16.1952 11.2414C15.4062 10.9542 14.6897 10.4977 14.096 9.90404C13.5023 9.31034 13.0458 8.59382 12.7586 7.80484C12.4801 7.03964 12.3674 6.22428 12.4276 5.41278L12.5418 4.95599ZM6.4443 3.6853C8.08879 2.58649 10.0222 2 12 2C12.2652 2 12.5196 2.10536 12.7071 2.29289L21.7071 11.2929C21.8946 11.4804 22 11.7348 22 12C22 13.9778 21.4135 15.9112 20.3147 17.5557C19.2159 19.2002 17.6541 20.4819 15.8268 21.2388C13.9996 21.9957 11.9889 22.1937 10.0491 21.8078C8.10929 21.422 6.32746 20.4696 4.92894 19.0711C3.53041 17.6725 2.578 15.8907 2.19215 13.9509C1.8063 12.0111 2.00433 10.0004 2.76121 8.17316C3.51809 6.3459 4.79981 4.78412 6.4443 3.6853Z" fill="black"/>
</svg>
