<svg width="24" height="24" viewBox="0 0 24 24" fill="none" xmlns="http://www.w3.org/2000/svg">
<path d="M18 12C18 12.752 17.8588 13.4895 17.5911 14.177L15.9623 12.5481C15.9873 12.3675 16 12.1844 16 12C16 10.9391 15.5786 9.92172 14.8284 9.17157C14.0783 8.42143 13.0609 8 12 8C11.8156 8 11.6325 8.01274 11.4519 8.03772L9.82302 6.40887C10.5105 6.14118 11.248 6 12 6C13.5913 6 15.1174 6.63214 16.2426 7.75736C17.3679 8.88258 18 10.4087 18 12Z" fill="black"/>
<path fill-rule="evenodd" clip-rule="evenodd" d="M7.10955 8.52382C6.39253 9.53256 6 10.746 6 12C6 13.5913 6.63214 15.1174 7.75736 16.2426C8.88258 17.3679 10.4087 18 12 18C13.254 18 14.4674 17.6075 15.4762 16.8905L21.2929 22.7072L22.7071 21.293L2.70712 1.29297L1.29291 2.70718L7.10955 8.52382ZM8.55425 9.96852C8.19443 10.5789 8 11.2794 8 12C8 13.0609 8.42143 14.0783 9.17157 14.8284C9.92172 15.5786 10.9391 16 12 16C12.7206 16 13.4211 15.8056 14.0315 15.4458L8.55425 9.96852Z" fill="black"/>
<path d="M11 1H13V4H11V1Z" fill="black"/>
<path d="M11 23V20H13V23H11Z" fill="black"/>
<path d="M19.071 3.514L20.485 4.929L18.364 7.05L16.95 5.636L19.071 3.515V3.514Z" fill="black"/>
<path d="M5.636 16.95L7.05 18.364L4.929 20.485L3.515 19.071L5.636 16.95Z" fill="black"/>
<path d="M23 13H20V11H23V13Z" fill="black"/>
<path d="M4 11V13H1V11H4Z" fill="black"/>
</svg>
