<svg width="24" height="24" viewBox="0 0 24 24" fill="none" xmlns="http://www.w3.org/2000/svg">
<path d="M12 2V3M12 21V22M2 12H3M21 12H22M19.0711 4.92893L18.364 5.63604M5.63604 18.364L4.92893 19.0711M12 7C14.7614 7 17 9.23858 17 12M1 1L8.46447 8.46447M8.46447 8.46447C7.55964 9.36929 7 10.6193 7 12C7 14.7614 9.23858 17 12 17C13.3807 17 14.6307 16.4404 15.5355 15.5355M8.46447 8.46447L15.5355 15.5355M15.5355 15.5355L23 23" stroke="black" stroke-width="2" stroke-linecap="round" stroke-linejoin="round"/>
</svg>
