<svg width="24" height="24" viewBox="0 0 24 24" fill="none" xmlns="http://www.w3.org/2000/svg">
<path fill-rule="evenodd" clip-rule="evenodd" d="M11.2929 2.29289C11.6834 1.90237 12.3166 1.90237 12.7071 2.29289L16.4142 6L15 7.41421L13 5.41421V10H11V5.41421L9 7.41421L7.58579 6L11.2929 2.29289ZM5.6 9.18579L7.71421 11.3L6.3 12.7142L4.18579 10.6L5.6 9.18579ZM19.8142 10.6L17.7 12.7142L16.2858 11.3L18.4 9.18579L19.8142 10.6ZM12 14C11.2044 14 10.4413 14.3161 9.87868 14.8787C9.31607 15.4413 9 16.2044 9 17V18H7V17C7 15.6739 7.52678 14.4021 8.46447 13.4645C9.40215 12.5268 10.6739 12 12 12C13.3261 12 14.5979 12.5268 15.5355 13.4645C16.4732 14.4021 17 15.6739 17 17V18H15V17C15 16.2044 14.6839 15.4413 14.1213 14.8787C13.5587 14.3161 12.7956 14 12 14ZM2 16H5V18H2V16ZM19 16H22V18H19V16ZM2 20H22V22H2V20Z" fill="black"/>
</svg>
