<svg width="24" height="24" viewBox="0 0 24 24" fill="none" xmlns="http://www.w3.org/2000/svg">
<path fill-rule="evenodd" clip-rule="evenodd" d="M2 3C2 2.44772 2.44772 2 3 2H12.3889C12.6542 2 12.9086 2.10539 13.0961 2.29299L21.1633 10.3623C21.6992 10.9016 22 11.631 22 12.3914C22 13.1517 21.6992 13.8811 21.1633 14.4204L20.4542 13.7158L21.1612 14.4225L14.4297 21.1558C14.1625 21.4234 13.8451 21.6357 13.4957 21.7806C13.1463 21.9254 12.7718 22 12.3936 22C12.0154 22 11.6409 21.9254 11.2915 21.7806C10.9423 21.6358 10.625 21.4236 10.3578 21.1561L2.29321 13.0988C2.10548 12.9112 2 12.6567 2 12.3914V3ZM19.7447 13.0106L19.7454 13.0099C19.9084 12.8454 20 12.6231 20 12.3914C20 12.1596 19.9084 11.9373 19.7454 11.7728L19.7447 11.7721L11.9746 4H4V11.9769L11.7727 19.7425C11.8542 19.8242 11.951 19.8889 12.0575 19.9331C12.1641 19.9773 12.2783 20 12.3936 20C12.5089 20 12.6231 19.9773 12.7296 19.9331C12.8362 19.8889 12.933 19.8242 13.0145 19.7425L19.7447 13.0106Z" fill="black"/>
<path d="M9 8C9 8.55228 8.55228 9 8 9C7.44772 9 7 8.55228 7 8C7 7.44772 7.44772 7 8 7C8.55228 7 9 7.44772 9 8Z" fill="black"/>
</svg>
