<svg width="24" height="24" viewBox="0 0 24 24" fill="none" xmlns="http://www.w3.org/2000/svg">
<path fill-rule="evenodd" clip-rule="evenodd" d="M21.6612 3.24982C21.9416 3.49699 22.0608 3.87991 21.9701 4.24255L17.9701 20.2426C17.8828 20.5921 17.6141 20.8676 17.2669 20.9637C16.9197 21.0599 16.5476 20.9619 16.2929 20.7071L12.1082 16.5224L9.80001 19.6C9.57684 19.8976 9.20697 20.0467 8.83982 19.9871C8.47268 19.9275 8.16894 19.6691 8.05132 19.3162L6.18231 13.7092L2.55279 11.8944C2.19901 11.7176 1.98274 11.3488 2.00108 10.9537C2.01942 10.5585 2.26892 10.2114 2.63756 10.068L20.6376 3.06801C20.9859 2.93253 21.3808 3.00266 21.6612 3.24982ZM13.3204 14.9062L13.4 14.8L12.6569 14.2427L12.4142 14L16.4142 10L15 8.5858L10.2929 13.2929C9.90237 13.6834 9.90237 14.3166 10.2929 14.7071L10.6796 15.0939L9.34515 16.8732L7.94869 12.6838C7.86482 12.4322 7.68444 12.2242 7.44722 12.1056L5.46487 11.1144L19.5611 5.63255L16.4582 18.044L13.3204 14.9062Z" fill="black"/>
</svg>
