<svg width="24" height="24" viewBox="0 0 24 24" fill="none" xmlns="http://www.w3.org/2000/svg">
<path fill-rule="evenodd" clip-rule="evenodd" d="M12 2C12.4451 2 12.8366 2.29414 12.9605 2.7216C13.4 4.23792 14.4151 5.60197 15.8701 6.57195C17.3265 7.54292 19.1262 8.05231 20.9719 8.0004C21.2419 7.9928 21.5034 8.09474 21.6971 8.28302C21.8907 8.4713 22 8.72991 22 9C22 10.0609 21.5786 11.0783 20.8284 11.8284C20.3189 12.338 19.686 12.6958 19 12.873V20H21V22H3V20H5V12.873C4.31397 12.6958 3.68111 12.338 3.17157 11.8284C2.42143 11.0783 2 10.0609 2 9C2 8.72991 2.10925 8.4713 2.3029 8.28302C2.49655 8.09474 2.75813 7.9928 3.02811 8.0004C4.87381 8.05231 6.67348 7.54292 8.12993 6.57195C9.58489 5.60197 10.6 4.23792 11.0395 2.7216C11.1634 2.29414 11.5549 2 12 2ZM7 13V20H17V13H7ZM12 5.41931C11.3114 6.52091 10.3711 7.48156 9.23933 8.23605C7.76971 9.2158 6.04129 9.80637 4.24672 9.9623C4.33699 10.1268 4.45073 10.2792 4.58579 10.4142C4.96086 10.7893 5.46957 11 6 11H18C18.5304 11 19.0391 10.7893 19.4142 10.4142C19.5493 10.2792 19.663 10.1268 19.7533 9.9623C17.9587 9.80637 16.2303 9.2158 14.7607 8.23605C13.6289 7.48156 12.6886 6.52091 12 5.41931Z" fill="black"/>
</svg>
