<svg width="24" height="24" viewBox="0 0 24 24" fill="none" xmlns="http://www.w3.org/2000/svg">
<path fill-rule="evenodd" clip-rule="evenodd" d="M5.99535 6.71362C4.75339 8.12323 4 9.97363 4 12C4 14.0264 4.75339 15.8768 5.99535 17.2864C6.52739 16.6821 6.96637 15.9995 7.29604 15.261C7.7541 14.2349 7.99084 13.1237 7.99084 12C7.99084 10.8763 7.7541 9.76514 7.29604 8.739C6.96637 8.0005 6.52739 7.31794 5.99535 6.71362ZM7.49376 5.38894C8.16004 6.14509 8.70969 6.99936 9.12234 7.92375C9.69491 9.20642 9.99084 10.5953 9.99084 12C9.99084 13.4047 9.69491 14.7936 9.12234 16.0762C8.70969 17.0006 8.16003 17.8549 7.49376 18.6111C8.77708 19.4875 10.3287 20 12 20C13.6713 20 15.2229 19.4875 16.5062 18.6111C15.84 17.8549 15.2903 17.0006 14.8777 16.0762C14.3051 14.7936 14.0092 13.4047 14.0092 12C14.0092 10.5953 14.3051 9.20642 14.8777 7.92375C15.2903 6.99936 15.84 6.1451 16.5062 5.38894C15.2229 4.51251 13.6713 4 12 4C10.3287 4 8.77708 4.51251 7.49376 5.38894ZM18.0046 6.71362C17.4726 7.31794 17.0336 8.0005 16.704 8.739C16.2459 9.76514 16.0092 10.8763 16.0092 12C16.0092 13.1237 16.2459 14.2349 16.704 15.261C17.0336 15.9995 17.4726 16.6821 18.0046 17.2864C19.2466 15.8768 20 14.0264 20 12C20 9.97363 19.2466 8.12323 18.0046 6.71362ZM2 12C2 6.47715 6.47715 2 12 2C17.5228 2 22 6.47715 22 12C22 17.5228 17.5228 22 12 22C6.47715 22 2 17.5228 2 12Z" fill="black"/>
</svg>
