<svg width="24" height="24" viewBox="0 0 24 24" fill="none" xmlns="http://www.w3.org/2000/svg">
<g clip-path="url(#clip0)">
<path d="M14.6938 6V14.76C15.4965 15.2963 16.1054 16.0766 16.4307 16.9856C16.7559 17.8946 16.7802 18.8841 16.5 19.8079C16.2198 20.7317 15.6498 21.541 14.8744 22.1161C14.099 22.6912 13.1592 23.0017 12.1938 23.0017C11.2283 23.0017 10.2885 22.6912 9.51309 22.1161C8.73767 21.541 8.16775 20.7317 7.88751 19.8079C7.60728 18.8841 7.63158 17.8946 7.95683 16.9856C8.28208 16.0766 8.89103 15.2963 9.69376 14.76V6M14.6938 6V3.5C14.6938 2.83696 14.4304 2.20107 13.9615 1.73223C13.4927 1.26339 12.8568 1 12.1938 1C11.5307 1 10.8948 1.26339 10.426 1.73223C9.95715 2.20107 9.69376 2.83696 9.69376 3.5V6M14.6938 6H9.69376" stroke="black" stroke-width="2" stroke-linecap="round" stroke-linejoin="round"/>
</g>
<defs>
<clipPath id="clip0">
<rect width="24" height="24" fill="white"/>
</clipPath>
</defs>
</svg>
