<svg width="24" height="24" viewBox="0 0 24 24" fill="none" xmlns="http://www.w3.org/2000/svg">
<path d="M20.556 3.44396C22.118 5.00596 22.118 7.53796 20.556 9.10096L12.356 17.301C11.714 17.943 10.872 18.348 9.969 18.448L6.591 18.822L4.293 21.122C3.903 21.512 3.269 21.512 2.879 21.122C2.489 20.731 2.489 20.098 2.879 19.707L5.177 17.408L5.552 14.031C5.652 13.128 6.057 12.286 6.699 11.644L14.899 3.44396C16.462 1.88196 18.994 1.88196 20.556 3.44396ZM16.314 4.85796L8.114 13.058C7.792 13.379 7.59 13.8 7.54 14.251L7.264 16.736L9.749 16.46C10.199 16.41 10.621 16.208 10.942 15.887L11.364 15.464L9.95 14.05L11.364 12.636L12.778 14.05L14.192 12.636L12.778 11.222L14.192 9.80796L15.607 11.222L17.021 9.80696L15.607 8.39296L17.02 6.97996L18.434 8.39396L19.141 7.68696C19.922 6.90696 19.922 5.63996 19.141 4.85896C18.361 4.07796 17.094 4.07796 16.313 4.85896L16.314 4.85796Z" fill="black"/>
</svg>
