<svg width="24" height="24" viewBox="0 0 24 24" fill="none" xmlns="http://www.w3.org/2000/svg">
<path d="M8 20.9946H3V11H6.5C6.7583 11 7.74945 10.8476 8 10.7987M8 20.9946V10.7987M8 20.9946H17.8235C18.2818 21.036 18.7362 20.839 19.1181 20.4333C19.5 20.0276 19.7889 19.4352 19.9412 18.7453L21 13.122C21 12.5254 20.7769 11.9533 20.3798 11.5314C19.9826 11.1096 19.444 10.8726 18.8824 10.8726H15.7059V5.24932C15.7059 4.65277 15.4828 4.08064 15.0856 3.65881C14.6885 3.23698 14.1499 3 13.5882 3C13.0266 3 12.488 3.23698 12.0908 3.65881C11.6937 4.08064 11.4706 4.65277 11.4706 5.24932V6.37398C11.4706 7.5671 11.0244 8.71135 10.2301 9.55501C9.61847 10.2047 8.83903 10.6351 8 10.7987" stroke="black" stroke-width="2" stroke-linecap="round" stroke-linejoin="round"/>
</svg>
