<svg width="24" height="24" viewBox="0 0 24 24" fill="none" xmlns="http://www.w3.org/2000/svg">
<path d="M8 3.00542H3V13H6.5C6.7583 13 7.74945 13.1524 8 13.2013M8 3.00542V13.2013M8 3.00542H17.8235C18.2818 2.964 18.7362 3.16097 19.1181 3.56666C19.5 3.97235 19.7889 4.56479 19.9412 5.25474L21 10.878C21 11.4746 20.7769 12.0467 20.3798 12.4686C19.9826 12.8904 19.444 13.1274 18.8824 13.1274H15.7059V18.7507C15.7059 19.3472 15.4828 19.9194 15.0856 20.3412C14.6885 20.763 14.1499 21 13.5882 21C13.0266 21 12.488 20.763 12.0908 20.3412C11.6937 19.9194 11.4706 19.3472 11.4706 18.7507V17.626C11.4706 16.4329 11.0244 15.2887 10.2301 14.445C9.61847 13.7953 8.83903 13.3649 8 13.2013" stroke="black" stroke-width="2" stroke-linecap="round" stroke-linejoin="round"/>
</svg>
