<svg width="24" height="24" viewBox="0 0 24 24" fill="none" xmlns="http://www.w3.org/2000/svg">
<path fill-rule="evenodd" clip-rule="evenodd" d="M4.29289 6.29289C4.68342 5.90237 5.31658 5.90237 5.70711 6.29289L8.20711 8.79289C8.59763 9.18342 8.59763 9.81658 8.20711 10.2071L5.70711 12.7071C5.31658 13.0976 4.68342 13.0976 4.29289 12.7071L1.79289 10.2071C1.40237 9.81658 1.40237 9.18342 1.79289 8.79289L4.29289 6.29289ZM11.2929 6.29289C11.6834 5.90237 12.3166 5.90237 12.7071 6.29289L15.2071 8.79289C15.4023 8.98812 15.5 9.24397 15.5 9.49984C15.5 9.24397 15.5977 8.98812 15.7929 8.79289L18.2929 6.29289C18.6834 5.90237 19.3166 5.90237 19.7071 6.29289L22.2071 8.79289C22.5976 9.18342 22.5976 9.81658 22.2071 10.2071L19.7071 12.7071C19.3166 13.0976 18.6834 13.0976 18.2929 12.7071L15.7929 10.2071C15.5977 10.0119 15.5 9.75603 15.5 9.50016C15.5 9.75603 15.4023 10.0119 15.2071 10.2071L12.7071 12.7071C12.3166 13.0976 11.6834 13.0976 11.2929 12.7071L8.79289 10.2071C8.40237 9.81658 8.40237 9.18342 8.79289 8.79289L11.2929 6.29289ZM3.91421 9.5L5 10.5858L6.08579 9.5L5 8.41421L3.91421 9.5ZM10.9142 9.5L12 10.5858L13.0858 9.5L12 8.41421L10.9142 9.5ZM17.9142 9.5L19 10.5858L20.0858 9.5L19 8.41421L17.9142 9.5ZM8.79289 15.7929L11.2929 13.2929C11.6834 12.9024 12.3166 12.9024 12.7071 13.2929L15.2071 15.7929C15.5976 16.1834 15.5976 16.8166 15.2071 17.2071L12.7071 19.7071C12.3166 20.0976 11.6834 20.0976 11.2929 19.7071L8.79289 17.2071C8.40237 16.8166 8.40237 16.1834 8.79289 15.7929ZM10.9142 16.5L12 17.5858L13.0858 16.5L12 15.4142L10.9142 16.5Z" fill="black"/>
</svg>
