<svg width="24" height="24" viewBox="0 0 24 24" fill="none" xmlns="http://www.w3.org/2000/svg">
<path fill-rule="evenodd" clip-rule="evenodd" d="M13 3C13.5523 3 14 3.44772 14 4C14 5.06087 14.4214 6.07828 15.1716 6.82843C15.9217 7.57857 16.9391 8 18 8H19V10H18C16.5203 10 15.097 9.45345 14 8.47215V16C14 16.9889 13.7068 17.9556 13.1573 18.7779C12.6079 19.6001 11.8271 20.241 10.9134 20.6194C9.99979 20.9978 8.99446 21.0969 8.02455 20.9039C7.05464 20.711 6.16373 20.2348 5.46447 19.5355C4.76521 18.8363 4.289 17.9454 4.09608 16.9755C3.90315 16.0055 4.00217 15.0002 4.3806 14.0866C4.75904 13.173 5.39991 12.3921 6.22215 11.8427C7.0444 11.2932 8.0111 11 9 11H10V13H9C8.40666 13 7.82664 13.1759 7.33329 13.5056C6.83994 13.8352 6.45543 14.3038 6.22836 14.8519C6.0013 15.4001 5.94189 16.0033 6.05765 16.5853C6.1734 17.1672 6.45912 17.7018 6.87868 18.1213C7.29824 18.5409 7.83279 18.8266 8.41473 18.9424C8.99667 19.0581 9.59987 18.9987 10.1481 18.7716C10.6962 18.5446 11.1648 18.1601 11.4944 17.6667C11.8241 17.1734 12 16.5933 12 16V4C12 3.44772 12.4477 3 13 3Z" fill="black"/>
</svg>
