<svg width="24" height="24" viewBox="0 0 24 24" fill="none" xmlns="http://www.w3.org/2000/svg">
<path fill-rule="evenodd" clip-rule="evenodd" d="M12.0146 1.18004C12.3204 0.966549 12.7196 0.940985 13.0502 1.11373C15.8771 2.59107 18.3498 4.68947 19.8136 7.72898C21.2165 10.4676 21.3587 13.6731 20.3265 16.3512C19.2861 19.0502 17.0403 21.2265 13.7265 21.7824C5.08085 23.6529 -0.734335 13.0779 5.78788 6.85305C6.10006 6.54557 6.9938 5.71234 7.41813 5.40873C7.72289 5.19068 8.12398 5.16132 8.45725 5.33265C8.79051 5.50399 9.00002 5.84727 9.00002 6.222C9.00002 6.41318 9.05957 7.21373 9.20537 7.91562C9.2426 8.09485 9.28093 8.24441 9.31729 8.36321C10.0823 8.23544 10.7022 7.63142 11.1433 6.5147C11.6422 5.25201 11.7847 3.58117 11.5954 2.12932C11.5472 1.75948 11.7088 1.39354 12.0146 1.18004ZM9.43265 8.65248C9.43259 8.65267 9.43077 8.65015 9.42735 8.64436C9.43099 8.6494 9.4327 8.65229 9.43265 8.65248ZM18.918 8.174L18.0166 8.60699C17.0477 6.58992 15.5322 5.02459 13.6694 3.79386C13.6312 4.98169 13.4201 6.19493 13.0034 7.24955C12.3723 8.84722 11.1465 10.3194 9.14347 10.3866C8.79911 10.4568 8.46011 10.3755 8.18802 10.1919C7.91213 10.0057 7.74746 9.74615 7.65241 9.56699C7.45532 9.19548 7.33069 8.72447 7.24717 8.32238C7.24147 8.29493 7.23587 8.26736 7.23038 8.2397C7.21487 8.25481 7.20021 8.26917 7.1865 8.2827L7.17384 8.29498C2.14053 13.0908 6.58257 21.2998 13.3241 19.8232C13.341 19.8194 13.3581 19.8162 13.3753 19.8133C15.9284 19.3922 17.6436 17.7508 18.4603 15.6319C19.2863 13.4888 19.18 10.8718 18.0286 8.63104L18.918 8.174Z" fill="black"/>
</svg>
