<svg width="24" height="24" viewBox="0 0 24 24" fill="none" xmlns="http://www.w3.org/2000/svg">
<path d="M16 7C17.3261 7 18.5979 7.52678 19.5355 8.46447C20.4732 9.40215 21 10.6739 21 12C21 13.3261 20.4732 14.5979 19.5355 15.5355C18.5979 16.4732 17.3261 17 16 17H8C6.67392 17 5.40215 16.4732 4.46447 15.5355C3.52678 14.5979 3 13.3261 3 12C3 10.6739 3.52678 9.40215 4.46447 8.46447C5.40215 7.52678 6.67392 7 8 7H16ZM16 5H8C6.14348 5 4.36301 5.7375 3.05025 7.05025C1.7375 8.36301 1 10.1435 1 12C1 13.8565 1.7375 15.637 3.05025 16.9497C4.36301 18.2625 6.14348 19 8 19H16C17.8565 19 19.637 18.2625 20.9497 16.9497C22.2625 15.637 23 13.8565 23 12C23 10.1435 22.2625 8.36301 20.9497 7.05025C19.637 5.7375 17.8565 5 16 5ZM16 15C16.7956 15 17.5587 14.6839 18.1213 14.1213C18.6839 13.5587 19 12.7956 19 12C19 11.2044 18.6839 10.4413 18.1213 9.87868C17.5587 9.31607 16.7956 9 16 9C15.2044 9 14.4413 9.31607 13.8787 9.87868C13.3161 10.4413 13 11.2044 13 12C13 12.7956 13.3161 13.5587 13.8787 14.1213C14.4413 14.6839 15.2044 15 16 15Z" fill="black"/>
</svg>
