<svg width="24" height="24" viewBox="0 0 24 24" fill="none" xmlns="http://www.w3.org/2000/svg">
<path fill-rule="evenodd" clip-rule="evenodd" d="M6.29289 2.29289C6.68342 1.90237 7.31658 1.90237 7.70711 2.29289L12 6.58579L15.2929 3.29289C16.0109 2.57492 16.9846 2.17157 18 2.17157C19.0154 2.17157 19.9891 2.57492 20.7071 3.29289C21.4251 4.01086 21.8284 4.98464 21.8284 6C21.8284 7.01536 21.4251 7.98914 20.7071 8.70711L17.4142 12L21.7071 16.2929C22.0976 16.6834 22.0976 17.3166 21.7071 17.7071L17.7071 21.7071C17.3166 22.0976 16.6834 22.0976 16.2929 21.7071L12 17.4142L7.70711 21.7071C7.51957 21.8946 7.26522 22 7 22H3C2.44772 22 2 21.5523 2 21V17C2 16.7348 2.10536 16.4804 2.29289 16.2929L6.58579 12L2.29289 7.70711C1.90237 7.31658 1.90237 6.68342 2.29289 6.29289L6.29289 2.29289ZM8 10.5858L10.5858 8L7 4.41421L4.41421 7L5.5 8.08579L6.79289 6.79289L8.20711 8.20711L6.91421 9.5L8 10.5858ZM13.4142 16L14.5 17.0858L15.7929 15.7929L17.2071 17.2071L15.9142 18.5L17 19.5858L19.5858 17L16 13.4142L13.4142 16ZM18 4.17157C17.5151 4.17157 17.05 4.36421 16.7071 4.70711L15.9142 5.5L18.5 8.08579L19.2929 7.29289C19.6358 6.95 19.8284 6.48493 19.8284 6C19.8284 5.51507 19.6358 5.05 19.2929 4.70711C18.95 4.36421 18.4849 4.17157 18 4.17157ZM17.0858 9.5L14.5 6.91421L4 17.4142V20H6.58579L17.0858 9.5Z" fill="black"/>
</svg>
