<svg width="24" height="24" viewBox="0 0 24 24" fill="none" xmlns="http://www.w3.org/2000/svg">
<path fill-rule="evenodd" clip-rule="evenodd" d="M8.42649 4.0464L10.7123 6.33221C10.8998 6.51974 11.0052 6.7741 11.0052 7.03932V10.0052C11.0052 10.5575 10.5575 11.0052 10.0052 11.0052H7.03932C6.7741 11.0052 6.51974 10.8998 6.33221 10.7123L4.0464 8.42649C3.97756 8.9248 3.98495 9.43365 4.07103 9.93534C4.24349 10.9405 4.72333 11.8675 5.44448 12.5886C6.16563 13.3098 7.09261 13.7896 8.09779 13.9621C9.10296 14.1346 10.1369 13.9912 11.0572 13.5516C11.4396 13.369 11.8956 13.4472 12.1952 13.7469L18.127 19.6786C18.3327 19.8844 18.6118 20 18.9028 20C19.1938 20 19.4729 19.8844 19.6786 19.6786C19.8844 19.4729 20 19.1938 20 18.9028C20 18.6118 19.8844 18.3327 19.6786 18.127L13.7469 12.1952C13.4472 11.8956 13.369 11.4396 13.5516 11.0572C13.9912 10.1369 14.1346 9.10296 13.9621 8.09779C13.7896 7.09261 13.3098 6.16563 12.5886 5.44448C11.8675 4.72333 10.9405 4.24349 9.93534 4.07103C9.43365 3.98495 8.9248 3.97756 8.42649 4.0464ZM6.11404 2.67676C7.40754 2.059 8.86074 1.85743 10.2735 2.09983C11.6863 2.34223 12.9893 3.01667 14.0029 4.03027C15.0165 5.04387 15.6909 6.34678 15.9333 7.75958C16.1349 8.93443 16.0294 10.1372 15.633 11.2529L21.0929 16.7128C21.6737 17.2936 22 18.0814 22 18.9028C22 19.7242 21.6737 20.512 21.0929 21.0929C20.512 21.6737 19.7242 22 18.9028 22C18.0814 22 17.2936 21.6737 16.7128 21.0929L11.2529 15.633C10.1372 16.0294 8.93443 16.1349 7.75958 15.9333C6.34678 15.6909 5.04387 15.0165 4.03027 14.0029C3.01667 12.9893 2.34223 11.6863 2.09983 10.2735C1.85743 8.86074 2.059 7.40754 2.67676 6.11404C2.81667 5.8211 3.09007 5.6143 3.41003 5.5594C3.72999 5.50451 4.05668 5.60834 4.28624 5.8379L7.45353 9.00519H9.00519V7.45353L5.8379 4.28624C5.60834 4.05668 5.50451 3.72999 5.5594 3.41003C5.6143 3.09007 5.8211 2.81667 6.11404 2.67676Z" fill="black"/>
</svg>
