<svg width="24" height="24" viewBox="0 0 24 24" fill="none" xmlns="http://www.w3.org/2000/svg">
<path d="M16.9607 10.0052H13.9948V7.03931L17.455 3.57913C16.3481 3.05048 15.1045 2.878 13.8956 3.08543C12.6866 3.29286 11.5716 3.87 10.7042 4.73737C9.83687 5.60475 9.25973 6.7197 9.0523 7.92868C8.84487 9.13767 9.01736 10.3812 9.546 11.4881L3.61425 17.4199C3.22095 17.8132 3 18.3466 3 18.9028C3 19.459 3.22095 19.9924 3.61425 20.3857C4.00755 20.779 4.54098 21 5.09719 21C5.6534 21 6.18683 20.779 6.58013 20.3857L12.5119 14.454C13.6188 14.9826 14.8623 15.1551 16.0713 14.9477C17.2803 14.7403 18.3953 14.1631 19.2626 13.2958C20.13 12.4284 20.7071 11.3134 20.9146 10.1044C21.122 8.89546 20.9495 7.6519 20.4209 6.545L16.9607 10.0052Z" stroke="black" stroke-width="2" stroke-linecap="round" stroke-linejoin="round"/>
</svg>
