<svg width="24" height="24" viewBox="0 0 24 24" fill="none" xmlns="http://www.w3.org/2000/svg">
<path fill-rule="evenodd" clip-rule="evenodd" d="M2 3H6.85714C7.47533 3 8.06051 3.25501 8.48612 3.69639C8.91055 4.13653 9.14286 4.72599 9.14286 5.33333V5.66667H13.2857C13.9039 5.66667 14.4891 5.92167 14.9147 6.36306C15.3391 6.8032 15.5714 7.39266 15.5714 8V11H22V13H15.5714V16C15.5714 16.6073 15.3391 17.1968 14.9147 17.6369C14.4891 18.0783 13.9039 18.3333 13.2857 18.3333H9.14286V18.6667C9.14286 19.274 8.91055 19.8635 8.48612 20.3036C8.06051 20.745 7.47533 21 6.85714 21H2V19H6.85714C6.92094 19 6.98982 18.9741 7.04644 18.9153C7.10425 18.8554 7.14286 18.7666 7.14286 18.6667V16C7.14286 15.9001 7.10425 15.8113 7.04644 15.7513C6.98982 15.6926 6.92094 15.6667 6.85714 15.6667H2V13.6667H6.85714C7.47533 13.6667 8.06051 13.9217 8.48612 14.3631C8.91055 14.8032 9.14286 15.3927 9.14286 16V16.3333H13.2857C13.3495 16.3333 13.4184 16.3074 13.475 16.2487C13.5328 16.1887 13.5714 16.0999 13.5714 16V8C13.5714 7.9001 13.5328 7.81128 13.475 7.75133C13.4184 7.69261 13.3495 7.66667 13.2857 7.66667H9.14286V8C9.14286 8.60734 8.91055 9.1968 8.48612 9.63694C8.06051 10.0783 7.47533 10.3333 6.85714 10.3333H2V8.33333H6.85714C6.92094 8.33333 6.98982 8.30739 7.04644 8.24867C7.10425 8.18872 7.14286 8.0999 7.14286 8V5.33333C7.14286 5.23343 7.10425 5.14461 7.04644 5.08466C6.98982 5.02594 6.92094 5 6.85714 5H2V3Z" fill="black"/>
</svg>
