<svg width="24" height="24" viewBox="0 0 24 24" fill="none" xmlns="http://www.w3.org/2000/svg">
<path fill-rule="evenodd" clip-rule="evenodd" d="M10.0513 4.68377C10.1874 4.27543 10.5696 4 11 4H13C13.4304 4 13.8126 4.27543 13.9487 4.68377L18.7208 19H20C20.5523 19 21 19.4477 21 20C21 20.5523 20.5523 21 20 21H18.0231C18.0076 21.0004 17.9921 21.0004 17.9766 21H6.02335C6.00792 21.0004 5.99244 21.0004 5.97693 21H4C3.44772 21 3 20.5523 3 20C3 19.4477 3.44772 19 4 19H5.27924L10.0513 4.68377ZM7.38743 19H16.6126L15.6126 16H8.38743L7.38743 19ZM9.05409 14H14.9459L13.9459 11H10.0541L9.05409 14ZM10.7208 9H13.2792L12.2792 6H11.7208L10.7208 9Z" fill="black"/>
</svg>
