<svg width="24" height="24" viewBox="0 0 24 24" fill="none" xmlns="http://www.w3.org/2000/svg">
<path d="M3 5H9M9 5H12.751M9 5V3M12.751 5H15M12.751 5C12.2283 8.1159 10.905 10.9606 8.99989 13.315M10.048 14.5C9.68089 14.12 9.33124 13.7245 8.99989 13.315M8.99989 13.315C7.94137 12.0068 7.06963 10.5547 6.412 9M8.99989 13.315C7.37711 15.3205 5.33211 16.9703 3 18.129M12.5 18H19.5M12.5 18L11 21M12.5 18L16 11L19.5 18M19.5 18L21 21" stroke="black" stroke-width="2" stroke-linecap="round" stroke-linejoin="round"/>
</svg>
