<svg width="24" height="24" viewBox="0 0 24 24" fill="none" xmlns="http://www.w3.org/2000/svg">
<path d="M8.94997 8.53697C10.4624 7.38294 12.3569 6.8468 14.2498 7.03713C16.1427 7.22746 17.8926 8.13003 19.145 9.56207C20.3974 10.9941 21.0589 12.8486 20.9953 14.75C20.9318 16.6514 20.148 18.4576 18.8028 19.8028C17.4576 21.148 15.6514 21.9318 13.75 21.9953C11.8486 22.0589 9.99411 21.3974 8.56207 20.145C7.13003 18.8926 6.22746 17.1427 6.03713 15.2498C5.8468 13.3569 6.38294 11.4624 7.53697 9.94997L4.66197 7.07497L2.18597 9.54997L0.771973 8.13597L7.13597 1.77197L8.54997 3.18597L6.07497 5.66097L8.95097 8.53697H8.94997ZM13.5 20C14.9587 20 16.3576 19.4205 17.3891 18.3891C18.4205 17.3576 19 15.9587 19 14.5C19 13.0413 18.4205 11.6423 17.3891 10.6109C16.3576 9.57943 14.9587 8.99997 13.5 8.99997C12.0413 8.99997 10.6423 9.57943 9.61088 10.6109C8.57943 11.6423 7.99997 13.0413 7.99997 14.5C7.99997 15.9587 8.57943 17.3576 9.61088 18.3891C10.6423 19.4205 12.0413 20 13.5 20Z" fill="black"/>
</svg>
