<svg width="24" height="24" viewBox="0 0 24 24" fill="none" xmlns="http://www.w3.org/2000/svg">
<path fill-rule="evenodd" clip-rule="evenodd" d="M8 4C6.34315 4 5 5.34315 5 7V13C5 14.3062 5.83481 15.4175 7 15.8293V12H9V15.8293C10.1652 15.4175 11 14.3062 11 13V7C11 5.34315 9.65685 4 8 4ZM12.9797 6.54693C12.7508 3.99781 10.6087 2 8 2C5.23858 2 3 4.23858 3 7V13C3 15.419 4.71776 17.4367 7 17.9V22H9V17.9C10.0808 17.6806 11.035 17.1126 11.7401 16.3185C12.4652 17.3363 13.6551 18 15 18V22H17V18C19.2091 18 21 16.2091 21 14V10C21 7.79086 19.2091 6 17 6H15C14.2631 6 13.5726 6.1993 12.9797 6.54693ZM13 10V14C13 15.1046 13.8954 16 15 16V13H17V16C18.1046 16 19 15.1046 19 14V10C19 8.89543 18.1046 8 17 8H15C13.8954 8 13 8.89543 13 10Z" fill="black"/>
</svg>
