<svg width="24" height="24" viewBox="0 0 24 24" fill="none" xmlns="http://www.w3.org/2000/svg">
<path fill-rule="evenodd" clip-rule="evenodd" d="M11.2929 2.29289C11.6834 1.90237 12.3166 1.90237 12.7071 2.29289L14.7071 4.29289C15.0976 4.68342 15.0976 5.31658 14.7071 5.70711C14.3166 6.09763 13.6834 6.09763 13.2929 5.70711L13 5.41421V12.9161C14.2203 12.7098 15.3559 12.1293 16.2426 11.2426C17.3679 10.1174 18 8.5913 18 7V4C18 3.59554 18.2436 3.2309 18.6173 3.07612C18.991 2.92134 19.4211 3.0069 19.7071 3.29289L21.7071 5.29289C22.0976 5.68342 22.0976 6.31658 21.7071 6.70711C21.3166 7.09763 20.6834 7.09763 20.2929 6.70711L20 6.41421V7C20 9.12173 19.1571 11.1566 17.6569 12.6569C16.3942 13.9195 14.753 14.7165 13 14.9373V21C13 21.5523 12.5523 22 12 22C11.4477 22 11 21.5523 11 21V14.9373C9.247 14.7165 7.60577 13.9195 6.34315 12.6569C4.84285 11.1566 4 9.12173 4 7V6.41421L3.70711 6.70711C3.31658 7.09763 2.68342 7.09763 2.29289 6.70711C1.90237 6.31658 1.90237 5.68342 2.29289 5.29289L4.29289 3.29289C4.57889 3.0069 5.00901 2.92134 5.38268 3.07612C5.75636 3.2309 6 3.59554 6 4V7C6 8.5913 6.63214 10.1174 7.75736 11.2426C8.64405 12.1293 9.77969 12.7098 11 12.9161V5.41421L10.7071 5.70711C10.3166 6.09763 9.68342 6.09763 9.29289 5.70711C8.90237 5.31658 8.90237 4.68342 9.29289 4.29289L11.2929 2.29289Z" fill="black"/>
</svg>
