<svg width="24" height="24" viewBox="0 0 24 24" fill="none" xmlns="http://www.w3.org/2000/svg">
<path d="M17.654 1.7002L14.872 4.2332C16.167 4.62438 17.359 5.29827 18.362 6.20619C21.874 9.40619 21.874 14.5942 18.362 17.7942C15.77 20.1542 11.764 21.6562 6.34597 22.3002L9.12797 19.7672C7.83292 19.376 6.6409 18.7021 5.63797 17.7942C2.12597 14.5942 2.10497 9.42519 5.63797 6.20619C8.22997 3.84619 12.237 2.3442 17.655 1.7002H17.654ZM12 6.0002C8.13397 6.0002 4.99997 8.6862 4.99997 12.0002C4.99997 15.3142 8.13397 18.0002 12 18.0002C15.866 18.0002 19 15.3142 19 12.0002C19 8.6862 15.866 6.0002 12 6.0002ZM12 8.3002C14.21 8.3002 16 9.9572 16 12.0002C16 14.0432 14.21 15.7002 12 15.7002C9.78997 15.7002 7.99997 14.0432 7.99997 12.0002C7.99997 9.9572 9.78997 8.3002 12 8.3002ZM12 10.3002C10.862 10.3002 9.99997 11.0972 9.99997 12.0002C9.99997 12.9032 10.862 13.7002 12 13.7002C13.138 13.7002 14 12.9032 14 12.0002C14 11.0972 13.138 10.3002 12 10.3002Z" fill="black"/>
</svg>
