<svg width="24" height="24" viewBox="0 0 24 24" fill="none" xmlns="http://www.w3.org/2000/svg">
<path fill-rule="evenodd" clip-rule="evenodd" d="M3 3C3 2.44772 3.44772 2 4 2H8V4H5V14H19V4H16V2H20C20.5523 2 21 2.44772 21 3V21C21 21.5523 20.5523 22 20 22H4C3.44772 22 3 21.5523 3 21V3ZM19 16H5V20H19V16ZM11.2929 2.29289C11.6834 1.90237 12.3166 1.90237 12.7071 2.29289L15.7071 5.29289C15.9931 5.57889 16.0787 6.00901 15.9239 6.38268C15.7691 6.75636 15.4045 7 15 7H13V11H11V7H9C8.59554 7 8.2309 6.75636 8.07612 6.38268C7.92134 6.00901 8.0069 5.57889 8.29289 5.29289L11.2929 2.29289ZM17 17V19H15V17H17Z" fill="black"/>
</svg>
