<svg width="24" height="24" viewBox="0 0 24 24" fill="none" xmlns="http://www.w3.org/2000/svg">
<path d="M16 21V19M19 16H21M3 8H5M8 3V5M9 14.7681C9.38967 15.1581 9.85478 15.468 10.3681 15.6795C10.8814 15.891 11.4326 16 11.9894 16C12.5462 16 13.0974 15.891 13.6107 15.6795C14.124 15.468 14.5891 15.1581 14.9788 14.7681L19.7618 10.0775C20.5546 9.30003 21 8.2455 21 7.14593C21 6.04636 20.5546 4.99183 19.7618 4.21431C18.9689 3.4368 17.8936 3 16.7724 3C15.6511 3 14.5758 3.4368 13.783 4.21431L13.1851 4.80064M15 9.23188C14.6103 8.84186 14.1452 8.53201 13.6319 8.32048C13.1186 8.10895 12.5674 8 12.0106 8C11.4538 8 10.9026 8.10895 10.3893 8.32048C9.87603 8.53201 9.41091 8.84186 9.02125 9.23188L4.23824 13.9225C3.44541 14.7 3 15.7545 3 16.8541C3 17.9536 3.44541 19.0082 4.23824 19.7857C5.03107 20.5632 6.10638 21 7.22762 21C8.34885 21 9.42416 20.5632 10.217 19.7857L10.8149 19.1994" stroke="black" stroke-width="2" stroke-linecap="round" stroke-linejoin="round"/>
</svg>
