<svg width="24" height="24" viewBox="0 0 24 24" fill="none" xmlns="http://www.w3.org/2000/svg">
<path fill-rule="evenodd" clip-rule="evenodd" d="M8 2C8.55228 2 9 2.44772 9 3V5C9 5.55228 8.55228 6 8 6C7.44772 6 7 5.55228 7 5V3C7 2.44772 7.44772 2 8 2ZM2 8C2 7.44772 2.44772 7 3 7H5C5.55228 7 6 7.44772 6 8C6 8.55228 5.55228 9 5 9H3C2.44772 9 2 8.55228 2 8ZM18 16C18 15.4477 18.4477 15 19 15H21C21.5523 15 22 15.4477 22 16C22 16.5523 21.5523 17 21 17H19C18.4477 17 18 16.5523 18 16ZM16 18C16.5523 18 17 18.4477 17 19V21C17 21.5523 16.5523 22 16 22C15.4477 22 15 21.5523 15 21V19C15 18.4477 15.4477 18 16 18Z" fill="black"/>
<path fill-rule="evenodd" clip-rule="evenodd" d="M13.5329 3.45272C14.4631 2.52256 15.7247 2 17.0401 2C18.3556 2 19.6171 2.52256 20.5473 3.45272C21.4774 4.38288 22 5.64444 22 6.95989C22 8.27533 21.4774 9.5369 20.5473 10.4671L16.0705 14.9438C15.6132 15.4095 15.0678 15.7796 14.466 16.0325C13.8626 16.286 13.2146 16.4166 12.56 16.4166C11.9054 16.4166 11.2575 16.286 10.654 16.0325C10.0506 15.7789 9.50377 15.4075 9.04566 14.9399C8.65915 14.5454 8.66561 13.9123 9.0601 13.5258C9.45458 13.1392 10.0877 13.1457 10.4742 13.5402C10.7461 13.8177 11.0706 14.0381 11.4288 14.1886C11.7869 14.3391 12.1715 14.4166 12.56 14.4166C12.9485 14.4166 13.3331 14.3391 13.6912 14.1886C14.0494 14.0381 14.3739 13.8177 14.6458 13.5402L14.6529 13.5329L19.1331 9.05284C19.6882 8.49776 20 7.7449 20 6.95989C20 6.17488 19.6882 5.42202 19.1331 4.86693C18.578 4.31184 17.8251 4 17.0401 4C16.2551 4 15.5022 4.31184 14.9472 4.86693L14.3871 5.42694C13.9966 5.81747 13.3635 5.81747 12.9729 5.42694C12.5824 5.03642 12.5824 4.40325 12.9729 4.01273L13.5329 3.45272ZM9.53398 7.96754C10.1374 7.71396 10.7854 7.58335 11.44 7.58335C12.0946 7.58335 12.7425 7.71396 13.346 7.96754C13.9494 8.22111 14.4962 8.59255 14.9543 9.0601C15.3409 9.45458 15.3344 10.0877 14.9399 10.4742C14.5454 10.8608 13.9123 10.8543 13.5258 10.4598C13.2539 10.1823 12.9294 9.96186 12.5712 9.81137C12.2131 9.66087 11.8285 9.58335 11.44 9.58335C11.0515 9.58335 10.6669 9.66087 10.3088 9.81137C9.95062 9.96186 9.62609 10.1823 9.35421 10.4598L9.34707 10.4671L4.86693 14.9472C4.31184 15.5022 4 16.2551 4 17.0401C4 17.8251 4.31184 18.578 4.86693 19.1331C5.42202 19.6882 6.17488 20 6.95989 20C7.7449 20 8.49776 19.6882 9.05284 19.1331L9.61286 18.5731C10.0034 18.1825 10.6365 18.1825 11.0271 18.5731C11.4176 18.9636 11.4176 19.5967 11.0271 19.9873L10.4671 20.5473C9.5369 21.4774 8.27533 22 6.95989 22C5.64444 22 4.38288 21.4774 3.45272 20.5473C2.52256 19.6171 2 18.3556 2 17.0401C2 15.7247 2.52256 14.4631 3.45272 13.5329L7.92943 9.05623C8.38675 8.5905 8.93219 8.22041 9.53398 7.96754Z" fill="black"/>
</svg>
