<svg width="24" height="24" viewBox="0 0 24 24" fill="none" xmlns="http://www.w3.org/2000/svg">
<path d="M22 22C22 21.6605 21.9758 21.3266 21.9291 21C21.6255 18.8772 20.3694 17.0616 18.6076 16M3 22C3 18.134 6.13401 15 10 15C13.866 15 17 18.134 17 22M17 12.7439C18.7478 12.1262 20 10.4593 20 8.5C20 7.08637 19.3482 5.82498 18.3287 5M15 7C15 9.76142 12.7614 12 10 12C7.23858 12 5 9.76142 5 7C5 4.23858 7.23858 2 10 2C12.7614 2 15 4.23858 15 7Z" stroke="black" stroke-width="2" stroke-linecap="round" stroke-linejoin="round"/>
</svg>
