<svg width="24" height="24" viewBox="0 0 24 24" fill="none" xmlns="http://www.w3.org/2000/svg">
<path fill-rule="evenodd" clip-rule="evenodd" d="M9 7C9 5.89543 9.89543 5 11 5H13C14.1046 5 15 5.89543 15 7H19.2676C19.6134 6.4022 20.2597 6 21 6C22.1046 6 23 6.89543 23 8C23 9.10457 22.1046 10 21 10C20.2597 10 19.6134 9.5978 19.2676 9H17.4463C17.7114 9.21685 17.9615 9.4539 18.1942 9.70982C19.0408 10.6411 19.6167 11.7787 19.8694 13H20C21.1046 13 22 13.8954 22 15V17C22 18.1046 21.1046 19 20 19H18C16.8954 19 16 18.1046 16 17V15C16 13.9589 16.7955 13.1036 17.8118 13.0087C17.5997 12.2873 17.2263 11.6184 16.7143 11.0552C16.1959 10.4849 15.5562 10.0459 14.8478 9.76669C14.547 10.4908 13.833 11 13 11H11C10.167 11 9.45302 10.4908 9.15223 9.7667C8.44385 10.0459 7.80408 10.4849 7.28568 11.0552C6.77366 11.6184 6.40026 12.2873 6.18825 13.0087C7.20454 13.1036 8 13.9589 8 15V17C8 18.1046 7.10457 19 6 19H4C2.89543 19 2 18.1046 2 17V15C2 13.8954 2.89543 13 4 13H4.13061C4.38334 11.7787 4.95923 10.6411 5.8058 9.70982C6.03846 9.4539 6.28857 9.21685 6.55372 9H4.73244C4.38663 9.5978 3.74028 10 3 10C1.89543 10 1 9.10457 1 8C1 6.89543 1.89543 6 3 6C3.74028 6 4.38663 6.4022 4.73244 7H9ZM11 8.48359V7H13V8.48359C12.9998 8.49537 12.9998 8.5071 13 8.51881V9H11V8.51881C11.0002 8.5071 11.0002 8.49537 11 8.48359ZM4.99188 15H4V17H6V15H5.01016C5.00408 15.0001 4.99798 15.0001 4.99188 15ZM18.9898 15H18V17H20V15H19.0081C19.002 15.0001 18.9959 15.0001 18.9898 15Z" fill="black"/>
</svg>
