<svg width="24" height="24" viewBox="0 0 24 24" fill="none" xmlns="http://www.w3.org/2000/svg">
<path d="M17.993 3.00391C20.426 3.00391 21.998 4.51591 21.998 7.49991C21.998 9.21991 21 11.4399 20.166 12.7349C17.377 17.0679 13.933 21.4749 10.523 21.4749C6.81699 21.4749 5.85299 14.6439 5.43099 13.0429C5.00899 11.4419 4.89799 10.8329 4.26099 9.80991C3.94399 10.0299 3.50099 10.3389 2.93099 10.7399C2.70699 10.8969 2.39799 10.8449 2.23799 10.6229L0.924987 8.80691C0.788987 8.61991 0.799987 8.36291 0.951987 8.18691C3.77899 4.91491 6.12799 3.27791 7.99999 3.27791C10.392 3.27791 11.124 6.09391 11.324 7.50091C11.624 9.61791 12.014 12.2389 12.568 13.3729C13.125 12.5809 14.748 10.4849 14.535 9.38291C14.441 8.89691 13.218 9.56591 12.648 9.46091C12.223 9.38091 11.842 9.05891 11.842 8.43491C11.842 7.12491 13.694 3.00491 17.993 3.00491V3.00391ZM18 5.00391C15.805 5.00391 14.749 6.53691 14.347 7.21191C15.597 7.25791 16.317 8.02991 16.48 9.01491C16.869 11.3449 14.564 13.9349 14.141 14.5799C13.745 15.1829 11.08 17.9079 9.89099 11.2199C9.77899 10.5909 9.52399 9.05691 9.22599 7.03391C9.05599 5.88291 8.35299 5.27091 7.99599 5.27091C7.15399 5.27091 6.07599 5.92091 4.14099 7.78591C6.04599 7.67091 6.68599 10.0619 7.05699 11.4189C7.87299 14.4029 8.62799 19.4749 10.677 19.4749C12.404 19.4749 15.116 16.8289 18.047 12.4349C18.256 12.1239 20.013 9.41091 20.013 7.39891C20.013 5.00391 18.544 5.00391 18 5.00391Z" fill="black"/>
</svg>
