<svg width="24" height="24" viewBox="0 0 24 24" fill="none" xmlns="http://www.w3.org/2000/svg">
<path d="M17 12C17 14.7614 14.7614 17 12 17M17 12C17 9.23858 14.7614 7 12 7M17 12H21M12 17C9.23858 17 7 14.7614 7 12M12 17V21M7 12C7 9.23858 9.23858 7 12 7M7 12H3M12 7V3M11 3H13M15.5355 8.46447L18.364 5.63604M17.6569 4.92893L19.0711 6.34315M21 11V13M15.5355 15.5355L18.364 18.364M19.0711 17.6569L17.6569 19.0711M13 21H11M8.46447 15.5355L5.63604 18.364M6.34315 19.0711L4.92893 17.6569M3 13V11M8.46447 8.46447L5.63604 5.63604M4.92893 6.34315L6.34315 4.92893" stroke="black" stroke-width="2" stroke-linecap="round" stroke-linejoin="round"/>
</svg>
