<svg width="24" height="24" viewBox="0 0 24 24" fill="none" xmlns="http://www.w3.org/2000/svg">
<path fill-rule="evenodd" clip-rule="evenodd" d="M10 2H14V4H13V6.08296C13.9117 6.23591 14.7536 6.59444 15.4765 7.10925L16.9497 5.63604L16.2426 4.92893L17.6569 3.51472L20.4853 6.34315L19.0711 7.75736L18.364 7.05025L16.8907 8.52347C17.4056 9.2464 17.7641 10.0883 17.917 11H20V10H22V14H20V13H17.917C17.7641 13.9117 17.4056 14.7536 16.8907 15.4765L18.364 16.9497L19.0711 16.2426L20.4853 17.6569L17.6569 20.4853L16.2426 19.0711L16.9497 18.364L15.4765 16.8907C14.7536 17.4056 13.9117 17.7641 13 17.917V20H14V22H10V20H11V17.917C10.0883 17.7641 9.2464 17.4056 8.52347 16.8907L7.05025 18.364L7.75736 19.0711L6.34315 20.4853L3.51472 17.6569L4.92893 16.2426L5.63604 16.9497L7.10925 15.4765C6.59444 14.7536 6.23591 13.9117 6.08296 13H4V14H2V10H4V11H6.08296C6.23591 10.0883 6.59444 9.2464 7.10925 8.52347L5.63604 7.05025L4.92893 7.75736L3.51472 6.34315L6.34315 3.51472L7.75736 4.92893L7.05025 5.63604L8.52347 7.10925C9.2464 6.59444 10.0883 6.23591 11 6.08296V4H10V2ZM9.17157 9.17157C8.44771 9.89543 8 10.8954 8 12C8 14.2091 9.79086 16 12 16C14.2091 16 16 14.2091 16 12C16 9.79086 14.2091 8 12 8C10.8954 8 9.89543 8.44771 9.17157 9.17157Z" fill="black"/>
</svg>
