<svg width="24" height="24" viewBox="0 0 24 24" fill="none" xmlns="http://www.w3.org/2000/svg">
<path fill-rule="evenodd" clip-rule="evenodd" d="M18.364 19.7783L21.2929 22.7072L22.7071 21.293L2.70712 1.29297L1.29291 2.70718L4.22184 5.63612L3.51473 6.34322L4.92895 7.75743L5.63605 7.05033L7.10927 8.52354C6.59445 9.24647 6.23592 10.0884 6.08297 11.0001H4.00001V10.0001H2.00001V14.0001H4.00001V13.0001H6.08297C6.23592 13.9117 6.59445 14.7537 7.10927 15.4766L5.63605 16.9498L4.92895 16.2427L3.51473 17.6569L6.34316 20.4854L7.75737 19.0711L7.05027 18.364L8.52348 16.8908C9.24641 17.4056 10.0884 17.7642 11 17.9171V20.0001H10V22.0001H14V20.0001H13V17.9171C13.9117 17.7642 14.7536 17.4056 15.4765 16.8908L16.9498 18.364L16.2427 19.0711L17.6569 20.4854L18.364 19.7783ZM14.032 15.4463L8.55383 9.96811C8.20194 10.5636 8.00001 11.2583 8.00001 12.0001C8.00001 14.2092 9.79088 16.0001 12 16.0001C12.7418 16.0001 13.4365 15.7981 14.032 15.4463Z" fill="black"/>
<path d="M17.9171 13.0001C17.8486 13.4083 17.7389 13.8025 17.5924 14.1783L15.9627 12.5486C15.9873 12.3692 16 12.1861 16 12.0001C16 9.79094 14.2092 8.00008 12 8.00008C11.8139 8.00008 11.6308 8.01278 11.4515 8.03737L9.82183 6.40768C10.1976 6.2612 10.5918 6.15151 11 6.08303V4.00008H10V2.00008H14V4.00008H13V6.08303C13.9117 6.23598 14.7536 6.59451 15.4765 7.10933L16.9498 5.63611L16.2427 4.92901L17.6569 3.51479L20.4853 6.34322L19.0711 7.75743L18.364 7.05033L16.8908 8.52354C17.4056 9.24647 17.7641 10.0884 17.9171 11.0001H20V10.0001H22V14.0001H20V13.0001H17.9171Z" fill="black"/>
</svg>
