<svg width="24" height="24" viewBox="0 0 24 24" fill="none" xmlns="http://www.w3.org/2000/svg">
<path d="M12 17C9.23858 17 7 14.7614 7 12M12 17V21M12 17C13.3807 17 14.6307 16.4404 15.5355 15.5355M7 12H3M7 12C7 10.6193 7.55964 9.36929 8.46447 8.46447M12 3V7C14.7614 7 17 9.23858 17 12H21M11 3H13M15.5355 8.46447L18.364 5.63604M17.6569 4.92893L19.0711 6.34315M21 11V13M18.364 18.364L17.6569 19.0711M13 21H11M8.46447 15.5355L5.63604 18.364M6.34315 19.0711L4.92893 17.6569M3 13V11M4.92893 6.34315L5.63604 5.63604M1 1L5.63604 5.63604M23 23L15.5355 15.5355M8.46447 8.46447L5.63604 5.63604M8.46447 8.46447L15.5355 15.5355" stroke="black" stroke-width="2" stroke-linecap="round" stroke-linejoin="round"/>
</svg>
