<svg width="24" height="24" viewBox="0 0 24 24" fill="none" xmlns="http://www.w3.org/2000/svg">
<path fill-rule="evenodd" clip-rule="evenodd" d="M19.5528 4.6582L21.3416 5.55263L20.8944 6.44706C20.3688 7.49832 19.5847 8.80547 18.6643 9.98878C18.105 10.7079 17.4663 11.4195 16.7758 11.9998C17.4663 12.5802 18.105 13.2918 18.6643 14.0109C19.5847 15.1942 20.3688 16.5014 20.8944 17.5526L21.3416 18.4471L19.5528 19.3415L19.1055 18.4471C18.6312 17.4983 17.9153 16.3055 17.0856 15.2388C16.3079 14.2389 15.4942 13.4334 14.7479 12.9998H13V17.9998C13 18.3032 12.8623 18.5901 12.6257 18.7799C12.3891 18.9697 12.0791 19.0418 11.783 18.976C9.20904 18.404 7.02091 16.5746 5.37374 14.2686C3.71915 11.9521 2.54042 9.06247 2.0161 6.17873L1.83722 5.19486L3.80496 4.83709L3.98384 5.82096C4.45953 8.43722 5.5308 11.0475 7.00121 13.1061C8.16324 14.733 9.5318 15.9589 11 16.6167V6.99984H8.99997V4.99984H12C12.5523 4.99984 13 5.44756 13 5.99984V10.9998H14.7479C15.4942 10.5663 16.3079 9.76082 17.0856 8.7609C17.9153 7.69422 18.6312 6.50137 19.1055 5.55263L19.5528 4.6582Z" fill="black"/>
</svg>
