<svg width="24" height="24" viewBox="0 0 24 24" fill="none" xmlns="http://www.w3.org/2000/svg">
<path fill-rule="evenodd" clip-rule="evenodd" d="M4.00035 11.9244C4.00012 11.9496 4 11.9748 4 12C4 13.0106 4.1874 13.9775 4.52934 14.8677C5.17889 13.9319 6.0036 13.1231 6.96389 12.489C8.28874 11.6143 9.8182 11.1076 11.3959 11.0151C11.8083 10.1738 12.0474 9.25905 12.0997 8.3254C10.6646 8.33043 9.24163 8.61629 7.91197 9.16963C6.42081 9.79017 5.0856 10.7311 4.00035 11.9244ZM4.73944 8.63621C5.48986 8.11679 6.29536 7.67611 7.14356 7.32313C8.66283 6.69089 10.2852 6.35412 11.9239 6.3271C11.7347 5.52437 11.4046 4.75942 10.9472 4.06866C8.18639 4.43159 5.86898 6.20227 4.73944 8.63621ZM13.2523 4.09745C13.7377 5.12758 14.0256 6.24584 14.0945 7.39409C14.1897 8.97882 13.8638 10.5567 13.1551 11.9693C13.6773 12.7471 14.3501 13.4115 15.1324 13.9237C15.8456 12.6783 16.3096 11.303 16.4952 9.87485C16.7034 8.27257 16.556 6.64516 16.0647 5.10812C15.2155 4.60618 14.2655 4.25673 13.2523 4.09745ZM18.5436 7.39653C18.618 8.30532 18.5968 9.22241 18.4785 10.1326C18.2664 11.7645 17.7469 13.3379 16.9509 14.7706C17.7411 15.0082 18.5691 15.1047 19.3965 15.0538C19.7854 14.1128 20 13.0815 20 12C20 10.2863 19.4611 8.69836 18.5436 7.39653ZM18.2165 17.0357C17.0821 16.9409 15.9701 16.6312 14.9416 16.1169C13.5216 15.4069 12.318 14.3357 11.4491 13.0157C10.5143 13.0791 9.60259 13.3295 8.76784 13.7509C9.48976 14.9913 10.4488 16.0807 11.5928 16.9555C12.8764 17.9371 14.3595 18.6231 15.9364 18.9662C16.8127 18.4699 17.586 17.8131 18.2165 17.0357ZM12.7146 19.9685C11.8905 19.5786 11.107 19.1017 10.3779 18.5442C9.07076 17.5446 7.96794 16.308 7.12515 14.9023C6.52473 15.4674 6.02741 16.1356 5.65792 16.8769C7.12062 18.7762 9.41739 20 12 20C12.2408 20 12.4792 19.9894 12.7146 19.9685ZM2 12C2 6.47715 6.47715 2 12 2C17.5228 2 22 6.47715 22 12C22 17.5228 17.5228 22 12 22C6.47715 22 2 17.5228 2 12Z" fill="black"/>
</svg>
