<svg width="24" height="24" viewBox="0 0 24 24" fill="none" xmlns="http://www.w3.org/2000/svg">
<path fill-rule="evenodd" clip-rule="evenodd" d="M9 2C9.55228 2 10 2.44772 10 3C10 3.26522 10.1054 3.51957 10.2929 3.70711C10.4804 3.89464 10.7348 4 11 4C11.5523 4 12 4.44772 12 5C12 5.55228 11.5523 6 11 6C10.7348 6 10.4804 6.10536 10.2929 6.29289C10.1054 6.48043 10 6.73478 10 7C10 7.55228 9.55228 8 9 8C8.44772 8 8 7.55228 8 7C8 6.73478 7.89464 6.48043 7.70711 6.29289C7.51957 6.10536 7.26522 6 7 6C6.44772 6 6 5.55228 6 5C6 4.44772 6.44772 4 7 4C7.26522 4 7.51957 3.89464 7.70711 3.70711C7.89464 3.51957 8 3.26522 8 3C8 2.44772 8.44772 2 9 2ZM17.2929 2.29289C17.6834 1.90237 18.3166 1.90237 18.7071 2.29289L21.7071 5.29289C22.0976 5.68342 22.0976 6.31658 21.7071 6.70711L6.70711 21.7071C6.31658 22.0976 5.68342 22.0976 5.29289 21.7071L2.29289 18.7071C1.90237 18.3166 1.90237 17.6834 2.29289 17.2929L14.2927 5.2931L17.2929 2.29289ZM15 7.41421L4.41421 18L6 19.5858L16.5858 9L15 7.41421ZM18 7.58579L16.4142 6L18 4.41421L19.5858 6L18 7.58579ZM19 12C19.5523 12 20 12.4477 20 13C20 13.2652 20.1054 13.5196 20.2929 13.7071C20.4804 13.8946 20.7348 14 21 14C21.5523 14 22 14.4477 22 15C22 15.5523 21.5523 16 21 16C20.7348 16 20.4804 16.1054 20.2929 16.2929C20.1054 16.4804 20 16.7348 20 17C20 17.5523 19.5523 18 19 18C18.4477 18 18 17.5523 18 17C18 16.7348 17.8946 16.4804 17.7071 16.2929C17.5196 16.1054 17.2652 16 17 16C16.4477 16 16 15.5523 16 15C16 14.4477 16.4477 14 17 14C17.2652 14 17.5196 13.8946 17.7071 13.7071C17.8946 13.5196 18 13.2652 18 13C18 12.4477 18.4477 12 19 12Z" fill="black"/>
</svg>
