<svg width="24" height="24" viewBox="0 0 24 24" fill="none" xmlns="http://www.w3.org/2000/svg">
<g clip-path="url(#clip0)">
<path fill-rule="evenodd" clip-rule="evenodd" d="M12.52 3.04655C11.8363 2.92621 11.1321 3.04669 10.5273 3.38746C9.92247 3.72822 9.45457 4.26819 9.20332 4.91531C8.95207 5.56243 8.93301 6.27666 9.1494 6.93627C9.36579 7.59587 9.80423 8.16001 10.39 8.53254C10.6135 8.67505 10.7712 8.90045 10.8286 9.15921C10.886 9.41798 10.8383 9.68893 10.696 9.91255L6.77399 16.0755C6.97765 16.4659 7.04683 16.9125 6.97079 17.3461C6.89476 17.7798 6.67777 18.1762 6.35346 18.474C6.02916 18.7717 5.61567 18.9541 5.17713 18.9929C4.73858 19.0318 4.29948 18.9248 3.92793 18.6886C3.55639 18.4524 3.27315 18.1002 3.12215 17.6867C2.97116 17.2731 2.96084 16.8213 3.09279 16.4013C3.22475 15.9813 3.49161 15.6165 3.85199 15.3636C4.21237 15.1107 4.64612 14.9838 5.08599 15.0025L8.52599 9.59755C7.90541 8.99805 7.45054 8.24817 7.2056 7.42081C6.96067 6.59346 6.93401 5.71681 7.12821 4.8761C7.32241 4.03539 7.73087 3.25925 8.31387 2.62315C8.89686 1.98705 9.63454 1.51264 10.4552 1.24607C11.2758 0.979496 12.1515 0.929825 12.997 1.10189C13.8425 1.27395 14.6291 1.66189 15.2803 2.22798C15.9315 2.79407 16.4251 3.51905 16.7131 4.3324C17.0011 5.14575 17.0738 6.0198 16.924 6.86954C16.9011 6.9989 16.853 7.12248 16.7824 7.23324C16.7118 7.344 16.6201 7.43977 16.5124 7.51508C16.4048 7.59039 16.2834 7.64376 16.1552 7.67215C16.0269 7.70054 15.8943 7.70339 15.765 7.68054C15.6356 7.65769 15.512 7.60959 15.4013 7.53898C15.2905 7.46837 15.1948 7.37663 15.1194 7.26901C15.0441 7.16139 14.9908 7.03998 14.9624 6.91173C14.934 6.78348 14.9311 6.6509 14.954 6.52154C15.0921 5.73811 14.9133 4.93191 14.457 4.28025C14.0008 3.62859 13.3044 3.18482 12.521 3.04655H12.52ZM9.99999 6.00055C10.0002 5.69751 10.0693 5.39849 10.202 5.12607C10.3347 4.85365 10.5276 4.61495 10.7661 4.42799C11.0046 4.24104 11.2824 4.11072 11.5787 4.04689C11.8749 3.98305 12.1818 3.98737 12.4761 4.0595C12.7704 4.13164 13.0445 4.26971 13.2776 4.4633C13.5108 4.65688 13.6969 4.90091 13.8219 5.17696C13.9469 5.453 14.0075 5.75385 13.9992 6.05676C13.9909 6.35968 13.9139 6.65676 13.774 6.92555L17.214 12.3305C18.037 12.0156 18.9285 11.9238 19.7984 12.0643C20.6683 12.2049 21.4856 12.5728 22.1675 13.1309C22.8494 13.6889 23.3718 14.4173 23.6816 15.2421C23.9915 16.067 24.0778 16.9592 23.9319 17.8282C23.786 18.6972 23.4131 19.5122 22.8508 20.1906C22.2886 20.8691 21.5571 21.387 20.7303 21.6917C19.9035 21.9965 19.0109 22.0774 18.1428 21.9261C17.2747 21.7749 16.462 21.3969 15.787 20.8305C15.5901 20.6583 15.4686 20.4157 15.4485 20.1549C15.4284 19.8941 15.5112 19.6358 15.6793 19.4354C15.8475 19.2349 16.0874 19.1084 16.3478 19.0828C16.6081 19.0572 16.8681 19.1347 17.072 19.2985C17.4967 19.6546 18.0118 19.8861 18.5601 19.9673C19.1083 20.0485 19.6684 19.9762 20.1781 19.7584C20.6878 19.5407 21.1272 19.186 21.4475 18.7337C21.7679 18.2814 21.9567 17.7492 21.993 17.1961C22.0293 16.6431 21.9117 16.0907 21.6532 15.6005C21.3947 15.1102 21.0054 14.7011 20.5285 14.4186C20.0517 14.1361 19.5059 13.9912 18.9517 14C18.3975 14.0088 17.8566 14.171 17.389 14.4685C17.1652 14.6107 16.8942 14.6583 16.6354 14.6007C16.3767 14.5431 16.1513 14.3852 16.009 14.1615L12.086 7.99855C11.8164 8.01015 11.5472 7.96707 11.2947 7.87189C11.0421 7.77672 10.8115 7.63142 10.6166 7.44475C10.4217 7.25807 10.2666 7.03389 10.1606 6.78569C10.0546 6.53749 10 6.27042 9.99999 6.00055ZM4.57199 12.9005C4.66246 13.1497 4.65029 13.4246 4.53815 13.6648C4.42602 13.905 4.2231 14.0909 3.97399 14.1815C3.45838 14.3694 3.00417 14.6951 2.6608 15.1232C2.31744 15.5512 2.09807 16.0653 2.02656 16.6094C1.95506 17.1535 2.03416 17.7067 2.25526 18.209C2.47636 18.7113 2.83099 19.1432 3.28056 19.4579C3.73012 19.7727 4.25739 19.958 4.80499 19.9939C5.35258 20.0297 5.89952 19.9147 6.38628 19.6613C6.87304 19.4079 7.28096 19.0258 7.56567 18.5567C7.85037 18.0876 8.00094 17.5493 8.00099 17.0005C8.00099 16.7353 8.10634 16.481 8.29388 16.2934C8.48141 16.1059 8.73577 16.0005 9.00099 16.0005H17.267C17.4871 15.6193 17.8269 15.3213 18.2337 15.1528C18.6404 14.9843 19.0914 14.9547 19.5167 15.0687C19.9419 15.1826 20.3177 15.4337 20.5857 15.783C20.8538 16.1323 20.999 16.5603 20.999 17.0005C20.999 17.4408 20.8538 17.8688 20.5857 18.2181C20.3177 18.5674 19.9419 18.8184 19.5167 18.9324C19.0914 19.0463 18.6404 19.0168 18.2337 18.8483C17.8269 18.6798 17.4871 18.3818 17.267 18.0005H9.89999C9.72562 18.8549 9.33085 19.6488 8.75488 20.3034C8.1789 20.9581 7.44173 21.4507 6.61654 21.7325C5.79134 22.0142 4.90682 22.0753 4.05074 21.9096C3.19467 21.7438 2.39682 21.3571 1.73637 20.7878C1.07592 20.2185 0.575843 19.4863 0.285765 18.664C-0.0043135 17.8417 -0.0743047 16.9579 0.0827375 16.1002C0.23978 15.2425 0.618395 14.4407 1.18101 13.7746C1.74362 13.1084 2.47066 12.6009 3.28999 12.3025C3.53916 12.2117 3.8142 12.2236 4.05463 12.3355C4.29505 12.4475 4.48114 12.6504 4.57199 12.8995V12.9005Z" fill="black"/>
</g>
<defs>
<clipPath id="clip0">
<rect width="24" height="24" fill="white"/>
</clipPath>
</defs>
</svg>
