<svg width="24" height="24" viewBox="0 0 24 24" fill="none" xmlns="http://www.w3.org/2000/svg">
<path fill-rule="evenodd" clip-rule="evenodd" d="M11 4C10.4477 4 10 4.44772 10 5C10 5.55228 10.4477 6 11 6C11.5523 6 12 5.55228 12 5C12 4.44772 11.5523 4 11 4ZM8.00001 5C8.00001 3.34315 9.34316 2 11 2C12.6569 2 14 3.34315 14 5C14 6.30622 13.1652 7.41746 12 7.82929V10H16C16.5523 10 17 10.4477 17 11C17 11.5523 16.5523 12 16 12H12V14H15C15.3038 14 15.5911 14.1381 15.7809 14.3753L19.7809 19.3753C20.1259 19.8066 20.056 20.4359 19.6247 20.7809C19.1934 21.1259 18.5641 21.056 18.2191 20.6247L14.5194 16H11C10.4477 16 10 15.5523 10 15V7.82929C8.83482 7.41746 8.00001 6.30622 8.00001 5ZM7.92392 11.1174C8.13523 11.6276 7.89288 12.2126 7.38262 12.4239C6.80942 12.6613 6.29929 13.0287 5.89256 13.4972C5.48584 13.9657 5.19366 14.5224 5.03914 15.1233C4.88462 15.7241 4.87198 16.3527 5.00223 16.9593C5.13248 17.5659 5.40204 18.1339 5.78961 18.6183C6.17718 19.1028 6.67213 19.4904 7.23533 19.7507C7.79853 20.0109 8.41454 20.1365 9.03467 20.1177C9.6548 20.0988 10.262 19.936 10.8084 19.642C11.3547 19.3481 11.8252 18.931 12.1826 18.4239C12.5008 17.9725 13.1247 17.8644 13.5761 18.1826C14.0275 18.5008 14.1356 19.1247 13.8174 19.5761C13.2813 20.3368 12.5756 20.9623 11.756 21.4033C10.9365 21.8442 10.0256 22.0885 9.09546 22.1168C8.16527 22.1451 7.24125 21.9566 6.39645 21.5662C5.55165 21.1759 4.80923 20.5944 4.22787 19.8677C3.64652 19.141 3.24217 18.2891 3.0468 17.3792C2.85143 16.4693 2.87038 15.5264 3.10217 14.6251C3.33395 13.7239 3.77221 12.8888 4.3823 12.1861C4.99239 11.4834 5.75759 10.9322 6.61739 10.5761C7.12765 10.3648 7.7126 10.6071 7.92392 11.1174Z" fill="black"/>
</svg>
