<svg width="24" height="24" viewBox="0 0 24 24" fill="none" xmlns="http://www.w3.org/2000/svg">
<path d="M15.7251 17.1392L21.2929 22.7071L22.7071 21.2928L2.70712 1.29285L1.29291 2.70706L4.08429 5.49844C3.07439 6.19503 2.12173 7.03732 1.25011 8.02535C0.884747 8.43951 0.924303 9.07144 1.33846 9.4368C1.75262 9.80217 2.38455 9.76261 2.74991 9.34845C3.59882 8.38617 4.53381 7.58354 5.52647 6.94062L7.86761 9.28176C6.63111 9.87724 5.51515 10.7329 4.57722 11.7959C4.21183 12.21 4.25133 12.8419 4.66546 13.2073C5.07959 13.5727 5.71152 13.5332 6.07692 13.1191C6.86474 12.2262 7.7932 11.5256 8.80548 11.0504C8.99812 10.9599 9.19319 10.8779 9.39029 10.8044L12.2613 13.6754C12.1687 13.6704 12.0757 13.6679 11.9824 13.6679C10.4261 13.6679 8.96314 14.3695 7.90557 15.5677C7.5401 15.9817 7.5795 16.6137 7.99356 16.9791C8.40763 17.3446 9.03957 17.3052 9.40504 16.8912C10.1124 16.0897 11.0429 15.6679 11.9824 15.6679C12.9218 15.6679 13.8523 16.0897 14.5597 16.8912C14.8583 17.2295 15.3349 17.3177 15.7251 17.1392Z" fill="black"/>
<path d="M15.1593 11.0504C14.7948 10.8793 14.4215 10.7383 14.0424 10.6281L11.7503 8.33606C11.8276 8.33413 11.905 8.33317 11.9824 8.33317C13.3684 8.33317 14.7371 8.64277 16.0092 9.23994C17.2807 9.83687 18.4274 10.7077 19.3875 11.7959C19.7529 12.21 19.7134 12.8419 19.2993 13.2073C18.8851 13.5727 18.2532 13.5332 17.8878 13.1191C17.1 12.2262 16.1715 11.5256 15.1593 11.0504Z" fill="black"/>
<path d="M21.2522 9.35082C17.8634 5.53383 13.1394 4.2293 8.8477 5.43342L7.26051 3.84623C12.5251 1.90716 18.5555 3.30097 22.7478 8.02298C23.1145 8.43598 23.0769 9.06803 22.6639 9.4347C22.2509 9.80138 21.6189 9.76382 21.2522 9.35082Z" fill="black"/>
<path d="M10.9824 20C10.9824 19.4477 11.4301 19 11.9824 19H11.9941C12.5464 19 12.9941 19.4477 12.9941 20C12.9941 20.5523 12.5464 21 11.9941 21H11.9824C11.4301 21 10.9824 20.5523 10.9824 20Z" fill="black"/>
</svg>
