<svg width="24" height="24" viewBox="0 0 24 24" fill="none" xmlns="http://www.w3.org/2000/svg">
<path d="M22.0378 8.73152C19.2756 6.3268 15.72 5 12.0378 5C11.3936 5 10.7533 5.04061 10.1205 5.12049M8.72023 16.035C9.67978 15.3617 10.8277 15 12.0047 15C13.1818 15 14.3297 15.3617 15.2892 16.035M12 20H12.0095M2.03781 8.73152C3.27587 7.6537 4.67331 6.79242 6.1701 6.1701M6.1701 6.1701L1 1M6.1701 6.1701L10.1675 10.1675M10.1675 10.1675L23 23M10.1675 10.1675C8.41711 10.4837 6.76711 11.2405 5.38375 12.3785M15.6337 10.6337C16.7382 11.0358 17.7737 11.6232 18.6919 12.3785" stroke="black" stroke-width="2" stroke-linecap="round" stroke-linejoin="round"/>
</svg>
