<svg width="24" height="24" viewBox="0 0 24 24" fill="none" xmlns="http://www.w3.org/2000/svg">
<path fill-rule="evenodd" clip-rule="evenodd" d="M21.2522 9.35082C16.1005 3.54829 7.86349 3.55195 2.74991 9.34845C2.38455 9.76261 1.75262 9.80217 1.33846 9.4368C0.924303 9.07144 0.884747 8.43951 1.25011 8.02535C7.16242 1.32345 16.803 1.32711 22.7478 8.02298C23.1145 8.43598 23.0769 9.06803 22.6639 9.4347C22.2509 9.80138 21.6189 9.76382 21.2522 9.35082ZM11.9824 10.3332C10.8963 10.3332 9.81726 10.5754 8.80548 11.0504C7.7932 11.5256 6.86474 12.2262 6.07692 13.1191C5.71152 13.5332 5.07959 13.5727 4.66546 13.2073C4.25133 12.8419 4.21183 12.21 4.57722 11.7959C5.53734 10.7077 6.68401 9.83687 7.95557 9.23994C9.22764 8.64277 10.5964 8.33317 11.9824 8.33317C13.3684 8.33317 14.7371 8.64277 16.0092 9.23994C17.2807 9.83687 18.4274 10.7077 19.3875 11.7959C19.7529 12.21 19.7134 12.8419 19.2993 13.2073C18.8851 13.5727 18.2532 13.5332 17.8878 13.1191C17.1 12.2262 16.1715 11.5256 15.1593 11.0504C14.1475 10.5754 13.0684 10.3332 11.9824 10.3332ZM11.9824 15.6679C11.0429 15.6679 10.1124 16.0897 9.40504 16.8912C9.03957 17.3052 8.40763 17.3446 7.99356 16.9791C7.5795 16.6137 7.5401 15.9817 7.90557 15.5677C8.96314 14.3695 10.4261 13.6679 11.9824 13.6679C13.5386 13.6679 15.0016 14.3695 16.0592 15.5677C16.4246 15.9817 16.3852 16.6137 15.9712 16.9791C15.5571 17.3446 14.9252 17.3052 14.5597 16.8912C13.8523 16.0897 12.9218 15.6679 11.9824 15.6679ZM10.9824 20C10.9824 19.4477 11.4301 19 11.9824 19H11.9941C12.5464 19 12.9941 19.4477 12.9941 20C12.9941 20.5523 12.5464 21 11.9941 21H11.9824C11.4301 21 10.9824 20.5523 10.9824 20Z" fill="black"/>
</svg>
