<svg width="24" height="24" viewBox="0 0 24 24" fill="none" xmlns="http://www.w3.org/2000/svg">
<path d="M8 18.5C8 19.8807 9.11929 21 10.5 21C11.8807 21 13 19.8807 13 18.5C13 17.1193 11.8807 16 10.5 16H5M11 5.5C11 4.11929 12.1193 3 13.5 3C14.8807 3 16 4.11929 16 5.5C16 6.88071 14.8807 8 13.5 8H5C3.89543 8 3 8.89543 3 10C3 11.1046 3.89543 12 5 12H18.5C19.8807 12 21 13.1193 21 14.5C21 15.8807 19.8807 17 18.5 17C17.1193 17 16 15.8807 16 14.5" stroke="black" stroke-width="2" stroke-linecap="round" stroke-linejoin="round"/>
</svg>
