<svg width="24" height="24" viewBox="0 0 24 24" fill="none" xmlns="http://www.w3.org/2000/svg">
<path fill-rule="evenodd" clip-rule="evenodd" d="M12 4C11.4477 4 11 4.44772 11 5C11 5.55228 11.4477 6 12 6C12.5523 6 13 5.55228 13 5C13 4.44772 12.5523 4 12 4ZM9.00001 5C9.00001 3.34315 10.3432 2 12 2C13.6569 2 15 3.34315 15 5C15 6.65685 13.6569 8 12 8C10.3432 8 9.00001 6.65685 9.00001 5ZM9.58579 10.5858C9.96087 10.2107 10.4696 10 11 10H13C13.5304 10 14.0391 10.2107 14.4142 10.5858C14.7444 10.916 14.9473 11.3498 14.991 11.8108L16.9487 17.6838C17.0503 17.9887 16.9992 18.3239 16.8112 18.5847C16.6233 18.8455 16.3215 19 16 19H15V22C15 22.5523 14.5523 23 14 23C13.4477 23 13 22.5523 13 22V18C13 17.4477 13.4477 17 14 17H14.6126L13.0513 12.3162C13.0173 12.2143 13 12.1075 13 12H11C11 12.1075 10.9827 12.2143 10.9487 12.3162L9.38743 17H10C10.5523 17 11 17.4477 11 18V22C11 22.5523 10.5523 23 10 23C9.44772 23 9.00001 22.5523 9.00001 22V19H8.00001C7.67856 19 7.37672 18.8455 7.18877 18.5847C7.00081 18.3239 6.94967 17.9887 7.05132 17.6838L9.00897 11.8108C9.05275 11.3498 9.25557 10.916 9.58579 10.5858Z" fill="black"/>
</svg>
