<svg width="24" height="24" viewBox="0 0 24 24" fill="none" xmlns="http://www.w3.org/2000/svg">
<path d="M12 21V3M12 21C11.8255 21 11.6522 20.995 11.4801 20.9852M12 21C12.1745 21 12.3478 20.995 12.5199 20.9852M12 3C11.8255 3 11.6522 3.00497 11.4801 3.01477M12 3C12.1745 3 12.3478 3.00497 12.5199 3.01477M11.4801 3.01477C10.0829 4.05445 8.94737 5.40572 8.16376 6.9613C7.37644 8.52425 6.96633 10.2499 6.96633 12C6.96633 13.7501 7.37644 15.4758 8.16376 17.0387C8.94737 18.5943 10.0829 19.9455 11.4801 20.9852M11.4801 3.01477C6.75148 3.28408 3 7.20394 3 12C3 16.7961 6.75148 20.7159 11.4801 20.9852M12.5199 3.01477C13.9171 4.05445 15.0526 5.40572 15.8362 6.9613C16.6236 8.52425 17.0337 10.2499 17.0337 12C17.0337 13.7501 16.6236 15.4758 15.8362 17.0387C15.0526 18.5943 13.9171 19.9455 12.5199 20.9852M12.5199 3.01477C17.2485 3.28408 21 7.20394 21 12C21 16.7961 17.2485 20.7159 12.5199 20.9852" stroke="black" stroke-width="2" stroke-linecap="round" stroke-linejoin="round"/>
</svg>
