<svg width="24" height="24" viewBox="0 0 24 24" fill="none" xmlns="http://www.w3.org/2000/svg">
<path d="M11.4912 3.01414C10.3462 4.853 9.56809 6.8856 9.189 9M11.4912 3.01414C11.6596 3.00476 11.8292 3 12 3C12.1708 3 12.3404 3.00476 12.5088 3.01414M11.4912 3.01414C7.79479 3.22014 4.69379 5.65674 3.51212 9M9.189 9C9.01222 9.98599 8.9222 10.9898 8.9222 12C8.9222 13.0102 9.01222 14.014 9.189 15M9.189 9H3.51212M9.189 9H14.811M12.5088 3.01414C13.6538 4.853 14.4319 6.8856 14.811 9M12.5088 3.01414C16.2052 3.22014 19.3062 5.65674 20.4879 9M14.811 9C14.9878 9.98599 15.0778 10.9898 15.0778 12C15.0778 13.0102 14.9878 14.014 14.811 15M14.811 9H20.4879M14.811 15C14.4319 17.1144 13.6538 19.147 12.5088 20.9859M14.811 15H9.189M14.811 15H20.4879M12.5088 20.9859C12.3404 20.9952 12.1708 21 12 21C11.8292 21 11.6596 20.9952 11.4912 20.9859M12.5088 20.9859C16.2052 20.7799 19.3062 18.3433 20.4879 15M9.189 15C9.56809 17.1144 10.3462 19.147 11.4912 20.9859M9.189 15H3.51212M11.4912 20.9859C7.79479 20.7799 4.69379 18.3433 3.51212 15M20.4879 9C20.8195 9.93834 21 10.9481 21 12C21 13.0519 20.8195 14.0617 20.4879 15M3.51212 15C3.18046 14.0617 3 13.0519 3 12C3 10.9481 3.18046 9.93834 3.51212 9" stroke="black" stroke-width="2" stroke-linecap="round" stroke-linejoin="round"/>
</svg>
