<svg width="24" height="24" viewBox="0 0 24 24" fill="none" xmlns="http://www.w3.org/2000/svg">
<path d="M10.5 16.5C10.5 15.6716 11.1716 15 12 15C12.8284 15 13.5 15.6716 13.5 16.5C13.5 17.3284 12.8284 18 12 18C11.1716 18 10.5 17.3284 10.5 16.5Z" fill="black"/>
<path d="M10.5 7.5C10.5 6.67157 11.1716 6 12 6C12.8284 6 13.5 6.67157 13.5 7.5C13.5 8.32843 12.8284 9 12 9C11.1716 9 10.5 8.32843 10.5 7.5Z" fill="black"/>
<path fill-rule="evenodd" clip-rule="evenodd" d="M2 12C2 6.47715 6.47715 2 12 2C17.5228 2 22 6.47715 22 12C22 17.5228 17.5228 22 12 22C6.47715 22 2 17.5228 2 12ZM4 12C4 9.61053 5.04759 7.46573 6.70853 5.99984C6.57135 6.48368 6.5 6.98816 6.5 7.5C6.5 8.95869 7.07946 10.3576 8.11091 11.3891C9.14236 12.4205 10.5413 13 12 13C12.9283 13 13.8185 13.3687 14.4749 14.0251C15.1313 14.6815 15.5 15.5717 15.5 16.5C15.5 17.4283 15.1313 18.3185 14.4749 18.9749C13.8185 19.6312 12.9283 20 12 20C7.58172 20 4 16.4183 4 12ZM20 12C20 14.3895 18.9524 16.5343 17.2915 18.0002C17.4287 17.5163 17.5 17.0118 17.5 16.5C17.5 15.0413 16.9205 13.6424 15.8891 12.6109C14.8576 11.5795 13.4587 11 12 11C11.0717 11 10.1815 10.6313 9.52513 9.97487C8.86875 9.3185 8.5 8.42826 8.5 7.5C8.5 6.57174 8.86875 5.6815 9.52513 5.02513C10.1815 4.36875 11.0717 4 12 4C16.4183 4 20 7.58172 20 12Z" fill="black"/>
</svg>
