<svg width="24" height="24" viewBox="0 0 24 24" fill="none" xmlns="http://www.w3.org/2000/svg">
<path fill-rule="evenodd" clip-rule="evenodd" d="M12 3.9917C10.5588 3.9917 9.16574 4.51046 8.07556 5.45313C6.98539 6.39579 6.27094 7.69936 6.06288 9.12548C5.85481 10.5516 6.16702 12.005 6.94242 13.2198C7.71782 14.4347 8.9046 15.3298 10.2857 15.7416C10.7095 15.8679 11 16.2577 11 16.6999V16.9999C11 17.5522 10.5523 17.9999 10 17.9999H4.00002V15.9999H6.71782C6.15726 15.5071 5.66426 14.9346 5.25655 14.2958C4.22269 12.676 3.8064 10.7382 4.08383 8.83674C4.36125 6.93525 5.31384 5.19715 6.76741 3.94027C8.22098 2.68338 10.0784 1.9917 12 1.9917C13.9216 1.9917 15.7791 2.68338 17.2326 3.94027C18.6862 5.19715 19.6388 6.93525 19.9162 8.83674C20.1936 10.7382 19.7774 12.676 18.7435 14.2958C18.3358 14.9346 17.8428 15.5071 17.2822 15.9999H20V17.9999H14C13.4477 17.9999 13 17.5522 13 16.9999V16.6999C13 16.2577 13.2905 15.8679 13.7143 15.7416C15.0954 15.3298 16.2822 14.4347 17.0576 13.2198C17.833 12.005 18.1452 10.5516 17.9372 9.12548C17.7291 7.69936 17.0147 6.39579 15.9245 5.45313C14.8343 4.51046 13.4412 3.9917 12 3.9917ZM4.00002 18.9999H20V20.9999H4.00002V18.9999Z" fill="black"/>
</svg>
