<svg width="24" height="24" viewBox="0 0 24 24" fill="none" xmlns="http://www.w3.org/2000/svg">
<path fill-rule="evenodd" clip-rule="evenodd" d="M2 3H3C3.73983 3 4.45148 3.27328 5 3.76393C5.54852 3.27328 6.26017 3 7 3C7.73983 3 8.45148 3.27328 9 3.76393C9.54852 3.27328 10.2602 3 11 3C11.7956 3 12.5587 3.31607 13.1213 3.87868C13.6839 4.44129 14 5.20435 14 6V10.5359C14.6029 10.1878 15.2918 10 16 10C17.0609 10 18.0783 10.4214 18.8284 11.1716C19.5786 11.9217 20 12.9391 20 14V16C20 17.4523 19.3177 18.7823 18.1962 19.811C18.7707 19.9343 19.3777 20 20 20H21V22H20C18.5988 22 17.217 21.727 16 21.2047C14.783 21.727 13.4012 22 12 22H11V20H12C12.6223 20 13.2293 19.9343 13.8038 19.811C12.6823 18.7823 12 17.4523 12 16V6C12 5.73478 11.8946 5.48043 11.7071 5.29289C11.5196 5.10536 11.2652 5 11 5C10.7348 5 10.4804 5.10536 10.2929 5.29289C10.1054 5.48043 10 5.73478 10 6V16H8V6C8 5.73478 7.89464 5.48043 7.70711 5.29289C7.51957 5.10536 7.26522 5 7 5C6.73478 5 6.48043 5.10536 6.29289 5.29289C6.10536 5.48043 6 5.73478 6 6V16H4V6C4 5.73478 3.89464 5.48043 3.70711 5.29289C3.51957 5.10536 3.26522 5 3 5H2V3ZM14 16C14 16.9315 14.5173 17.9259 15.6315 18.7218C15.7494 18.8061 15.8724 18.8868 16 18.9637C16.1276 18.8868 16.2506 18.8061 16.3685 18.7218C17.4827 17.9259 18 16.9315 18 16V14C18 13.4696 17.7893 12.9609 17.4142 12.5858C17.0391 12.2107 16.5304 12 16 12C15.4696 12 14.9609 12.2107 14.5858 12.5858C14.2107 12.9609 14 13.4696 14 14V16Z" fill="black"/>
</svg>
