<svg width="24" height="24" viewBox="0 0 24 24" fill="none" xmlns="http://www.w3.org/2000/svg">
<path fill-rule="evenodd" clip-rule="evenodd" d="M5.47492 1.66797L5.90349 2.57148C7.15814 5.21651 7.87082 8.08223 8.00358 11H15.9964C16.1291 8.08223 16.8418 5.21651 18.0965 2.57148L18.5251 1.66797L20.3321 2.52511L19.9035 3.42862C18.7759 5.80572 18.1299 8.37888 17.9987 11H20V13H17.9987C18.1299 15.6212 18.7759 18.1944 19.9035 20.5715L20.3321 21.475L18.5251 22.3321L18.0965 21.4286C16.8418 18.7836 16.1291 15.9179 15.9964 13H8.00358C7.87082 15.9179 7.15814 18.7836 5.90349 21.4286L5.47492 22.3321L3.66791 21.475L4.09648 20.5715C5.22403 18.1944 5.87009 15.6212 6.00131 13H3.99999V11H6.00131C5.87009 8.37888 5.22403 5.80572 4.09648 3.42862L3.66791 2.52511L5.47492 1.66797Z" fill="black"/>
</svg>
