<svg width="24" height="24" viewBox="0 0 24 24" fill="none" xmlns="http://www.w3.org/2000/svg">
<path fill-rule="evenodd" clip-rule="evenodd" d="M16.7244 6.46103C15.2525 6.03896 13.6253 5.8706 12.0083 5.97859C10.3906 6.08663 8.86173 6.46593 7.57247 7.06452C6.97688 7.34104 6.44893 7.65652 5.99347 7.99977C5.99564 7.99977 5.99782 7.99977 5.99999 7.99977C8.20913 7.99977 9.99999 9.79063 9.99999 11.9998C9.99999 14.2089 8.20913 15.9998 5.99999 15.9998C3.81308 15.9998 2.03607 14.2448 2.00054 12.0663C1.83617 10.6859 2.22618 9.32976 3.07014 8.14204C3.92009 6.94589 5.19741 5.96218 6.73025 5.2505C8.26614 4.53741 10.0391 4.10565 11.875 3.98304C13.7117 3.86038 15.5711 4.04972 17.2756 4.53851L18.2369 4.81415L17.6856 6.73667L16.7244 6.46103ZM5.99999 9.99977C4.89542 9.99977 3.99999 10.8952 3.99999 11.9998C3.99999 13.1043 4.89542 13.9998 5.99999 13.9998C7.10456 13.9998 7.99999 13.1043 7.99999 11.9998C7.99999 10.8952 7.10456 9.99977 5.99999 9.99977ZM18 9.99977C16.8954 9.99977 16 10.8952 16 11.9998C16 13.1043 16.8954 13.9998 18 13.9998C19.1046 13.9998 20 13.1043 20 11.9998C20 10.8952 19.1046 9.99977 18 9.99977ZM14 11.9998C14 9.79063 15.7909 7.99977 18 7.99977C20.1869 7.99977 21.9639 9.75478 21.9995 11.9332C22.1638 13.3137 21.7738 14.6698 20.9298 15.8575C20.0799 17.0537 18.8026 18.0374 17.2697 18.749C15.7339 19.4621 13.9609 19.8939 12.125 20.0165C10.2883 20.1392 8.42892 19.9498 6.72435 19.461L5.76309 19.1854L6.31438 17.2629L7.27564 17.5385C8.74754 17.9606 10.3747 18.1289 11.9917 18.0209C13.6094 17.9129 15.1383 17.5336 16.4275 16.935C17.0231 16.6585 17.5511 16.343 18.0065 15.9998C18.0043 15.9998 18.0022 15.9998 18 15.9998C15.7909 15.9998 14 14.2089 14 11.9998Z" fill="black"/>
</svg>
