<svg width="24" height="24" viewBox="0 0 24 24" fill="none" xmlns="http://www.w3.org/2000/svg">
<path fill-rule="evenodd" clip-rule="evenodd" d="M7 2V3C7 4.32608 7.52678 5.59785 8.46447 6.53553C9.40215 7.47322 10.6739 8 12 8C13.3261 8 14.5979 7.47322 15.5355 6.53553C16.4732 5.59785 17 4.32608 17 3V2H19V3C19 4.85652 18.2625 6.63699 16.9497 7.94975C16.543 8.35646 16.0914 8.70795 15.6066 8.9994C17.64 10.2242 19 12.4533 19 15C19 18.866 15.866 22 12 22C8.13401 22 5 18.866 5 15C5 12.4533 6.36003 10.2242 8.39341 8.9994C7.90856 8.70795 7.45696 8.35646 7.05025 7.94975C5.7375 6.63699 5 4.85652 5 3V2H7ZM12 10C9.23858 10 7 12.2386 7 15C7 17.7614 9.23858 20 12 20C14.7614 20 17 17.7614 17 15C17 12.2386 14.7614 10 12 10Z" fill="black"/>
</svg>
