<svg width="24" height="24" viewBox="0 0 24 24" fill="none" xmlns="http://www.w3.org/2000/svg">
<path fill-rule="evenodd" clip-rule="evenodd" d="M5.29289 6.29289C5.68342 5.90237 6.31658 5.90237 6.70711 6.29289L9 8.58579L11.2929 6.29289C11.6834 5.90237 12.3166 5.90237 12.7071 6.29289L15 8.58579L17.2929 6.29289C17.6834 5.90237 18.3166 5.90237 18.7071 6.29289L22.4142 10L21 11.4142L18 8.41421L15.7071 10.7071C15.3166 11.0976 14.6834 11.0976 14.2929 10.7071L12 8.41421L9.7071 10.7071C9.31658 11.0976 8.68342 11.0976 8.29289 10.7071L6 8.41421L3 11.4142L1.58578 10L5.29289 6.29289ZM6 15.4142L3 18.4142L1.58578 17L5.29289 13.2929C5.68342 12.9024 6.31658 12.9024 6.70711 13.2929L9 15.5858L11.2929 13.2929C11.6834 12.9024 12.3166 12.9024 12.7071 13.2929L15 15.5858L17.2929 13.2929C17.6834 12.9024 18.3166 12.9024 18.7071 13.2929L22.4142 17L21 18.4142L18 15.4142L15.7071 17.7071C15.3166 18.0976 14.6834 18.0976 14.2929 17.7071L12 15.4142L9.7071 17.7071C9.31658 18.0976 8.68342 18.0976 8.29289 17.7071L6 15.4142Z" fill="black"/>
</svg>
