<svg width="24" height="24" viewBox="0 0 24 24" fill="none" xmlns="http://www.w3.org/2000/svg">
<path fill-rule="evenodd" clip-rule="evenodd" d="M7.46117 2.02425C8.47977 1.9324 9.50495 2.10245 10.4394 2.51825C11.0111 2.77266 11.5372 3.11389 12 3.52787C12.4628 3.11389 12.9889 2.77266 13.5606 2.51825C14.495 2.10245 15.5202 1.9324 16.5388 2.02425C17.5574 2.11609 18.5357 2.46679 19.3806 3.04304C20.2256 3.61929 20.9092 4.40196 21.3666 5.31672C21.8239 6.23149 22.0399 7.24798 21.9939 8.26969C21.948 9.2914 21.6416 10.2844 21.1039 11.1544C20.5662 12.0244 19.8151 12.7425 18.9218 13.2405C18.0285 13.7386 17.0227 14 16 14H15V12H16C16.6818 12 17.3523 11.8257 17.9479 11.4937C18.5434 11.1617 19.0441 10.6829 19.4026 10.1029C19.7611 9.52293 19.9653 8.86093 19.996 8.17979C20.0266 7.49866 19.8826 6.82099 19.5777 6.21115C19.2728 5.6013 18.817 5.07952 18.2537 4.69536C17.6904 4.3112 17.0383 4.0774 16.3592 4.01616C15.6802 3.95493 14.9967 4.0683 14.3738 4.3455C13.8476 4.57966 13.3793 4.92414 13 5.35425V22H11V5.35425C10.6207 4.92414 10.1524 4.57966 9.62624 4.3455C9.0033 4.0683 8.31985 3.95493 7.64078 4.01616C6.96171 4.0774 6.30956 4.3112 5.74626 4.69536C5.18296 5.07953 4.72721 5.6013 4.42229 6.21115C4.11737 6.82099 3.9734 7.49866 4.00404 8.17979C4.03469 8.86093 4.23894 9.52293 4.5974 10.1029C4.95586 10.6829 5.45662 11.1617 6.05214 11.4937C6.64767 11.8257 7.31817 12 8 12H9V14H8C6.97726 14 5.9715 13.7386 5.07821 13.2405C4.18493 12.7425 3.43378 12.0244 2.8961 11.1544C2.35841 10.2844 2.05204 9.2914 2.00606 8.26969C1.96009 7.24798 2.17605 6.23149 2.63344 5.31672C3.09082 4.40195 3.77444 3.61929 4.61939 3.04304C5.46434 2.46679 6.44256 2.11609 7.46117 2.02425Z" fill="black"/>
</svg>
