<svg width="24" height="24" viewBox="0 0 24 24" fill="none" xmlns="http://www.w3.org/2000/svg">
<path d="M3 4C3.53043 4 4.03914 4.21071 4.41421 4.58579C4.78929 4.96086 5 5.46957 5 6M5 6V15M5 6C5 5.46957 5.21071 4.96086 5.58579 4.58579C5.96086 4.21071 6.46957 4 7 4C7.53043 4 8.03914 4.21071 8.41421 4.58579C8.78929 4.96086 9 5.46957 9 6M9 6V15M9 6C9 5.46957 9.21071 4.96086 9.58579 4.58579C9.96086 4.21071 10.4696 4 11 4C11.5304 4 12.0391 4.21071 12.4142 4.58579C12.7893 4.96086 13 5.46957 13 6V14M13 14V16C13 17.3261 13.7375 18.5979 15.0503 19.5355C15.3448 19.7459 15.6628 19.9356 16 20.1033M13 14C13 13.2044 13.3161 12.4413 13.8787 11.8787C14.4413 11.3161 15.2044 11 16 11C16.7956 11 17.5587 11.3161 18.1213 11.8787C18.6839 12.4413 19 13.2044 19 14V16C19 17.3261 18.2625 18.5979 16.9497 19.5355C16.6552 19.7459 16.3372 19.9356 16 20.1033M16 20.1033C17.1657 20.6831 18.56 21 20 21M16 20.1033C14.8343 20.6831 13.44 21 12 21" stroke="black" stroke-width="2" stroke-linecap="round" stroke-linejoin="round"/>
</svg>
