<svg width="24" height="24" viewBox="0 0 24 24" fill="none" xmlns="http://www.w3.org/2000/svg">
<path d="M3 11.9998C3 13.6566 4.34315 14.9998 6 14.9998C7.65686 14.9998 9 13.6566 9 11.9998C9 10.3429 7.65686 8.99977 6 8.99977C4.34315 8.99977 3 10.3429 3 11.9998ZM3 11.9998C2.85232 10.8755 3.15743 9.74563 3.88531 8.72127C4.6132 7.69691 5.73879 6.81335 7.15137 6.15751C8.56394 5.50167 10.2148 5.09615 11.9417 4.98082C13.6685 4.86549 15.4118 5.04434 17 5.49977M21 11.9998C21 13.6566 19.6569 14.9998 18 14.9998C16.3431 14.9998 15 13.6566 15 11.9998C15 10.3429 16.3431 8.99977 18 8.99977C19.6569 8.99977 21 10.3429 21 11.9998ZM21 11.9998C21.1477 13.124 20.8426 14.2539 20.1147 15.2783C19.3868 16.3026 18.2612 17.1862 16.8486 17.842C15.4361 18.4979 13.7852 18.9034 12.0583 19.0187C10.3315 19.134 8.58824 18.9552 7 18.4998" stroke="black" stroke-width="2" stroke-linecap="round" stroke-linejoin="round"/>
</svg>
