<svg width="24" height="24" viewBox="0 0 24 24" fill="none" xmlns="http://www.w3.org/2000/svg">
<path fill-rule="evenodd" clip-rule="evenodd" d="M3 3H4C5.06087 3 6.07828 3.42143 6.82843 4.17157C6.88768 4.23083 6.94489 4.29176 7 4.35424C7.05511 4.29176 7.11232 4.23083 7.17157 4.17157C7.92172 3.42143 8.93913 3 10 3C11.0609 3 12.0783 3.42143 12.8284 4.17157C13.5786 4.92172 14 5.93913 14 7V13.5351C14.5883 13.1948 15.2714 13 16 13C18.2091 13 20 14.7909 20 17C20 19.2091 18.2091 21 16 21C15.0201 21 14.1226 20.6477 13.4271 20.0628C13.2608 20.3391 13.0603 20.5966 12.8284 20.8284C12.0783 21.5786 11.0609 22 10 22H9V20H10C10.5304 20 11.0391 19.7893 11.4142 19.4142C11.7893 19.0391 12 18.5304 12 18V7C12 6.46957 11.7893 5.96086 11.4142 5.58579C11.0391 5.21071 10.5304 5 10 5C9.46957 5 8.96086 5.21071 8.58579 5.58579C8.21071 5.96086 8 6.46957 8 7V17H6V7C6 6.46957 5.78929 5.96086 5.41421 5.58579C5.03914 5.21071 4.53043 5 4 5H3V3ZM14 17C14 18.1046 14.8954 19 16 19C17.1046 19 18 18.1046 18 17C18 15.8954 17.1046 15 16 15C14.8954 15 14 15.8954 14 17Z" fill="black"/>
</svg>
