<svg width="24" height="24" viewBox="0 0 24 24" fill="none" xmlns="http://www.w3.org/2000/svg">
<path d="M21 17C21 18.0609 20.5786 19.0783 19.8284 19.8284C19.0783 20.5786 18.0609 21 17 21C15.9391 21 14.9217 20.5786 14.1716 19.8284C13.4214 19.0783 13 18.0609 13 17C13 13 15 11 15 7C15 4.79086 13.2091 3 11 3C8.79086 3 7 4.79086 7 7C7 10 9 12 9 16M9 16C9 17.6569 7.65685 19 6 19C4.34315 19 3 17.6569 3 16C3 14.3431 4.34315 13 6 13C7.65685 13 9 14.3431 9 16Z" stroke="black" stroke-width="2" stroke-linecap="round" stroke-linejoin="round"/>
</svg>
