<svg width="24" height="24" viewBox="0 0 24 24" fill="none" xmlns="http://www.w3.org/2000/svg">
<path d="M19.8333 17L17.5 11H16.5L14.1667 17M19.8333 17L21 20M19.8333 17H14.1667M13 20L14.1667 17" stroke="#1E293B" stroke-width="2" stroke-linecap="round" stroke-linejoin="round"/>
<path d="M9 20H7C5.34315 20 4 18.6569 4 17V16" stroke="#1E293B" stroke-width="2" stroke-linecap="round" stroke-linejoin="round"/>
<path d="M15 4H17C18.6569 4 20 5.34315 20 7V8" stroke="#1E293B" stroke-width="2" stroke-linecap="round" stroke-linejoin="round"/>
<path d="M9 8C10.1046 8 11 7.10457 11 6C11 4.89543 10.1046 4 9 4H4V8M9 8C10.1046 8 11 8.89543 11 10C11 11.1046 10.1046 12 9 12H4V8M9 8H4" stroke="#1E293B" stroke-width="2" stroke-linecap="round" stroke-linejoin="round"/>
</svg>
