<svg width="24" height="24" viewBox="0 0 24 24" fill="none" xmlns="http://www.w3.org/2000/svg">
<path d="M16 9C16.6403 9.79573 17 10.8748 17 12C17 13.1252 16.6403 14.2043 16 15" stroke="#1E293B" stroke-width="2" stroke-linecap="round" stroke-linejoin="round"/>
<path d="M19 6C19.6341 6.78792 20.1371 7.72332 20.4802 8.75281C20.8234 9.78229 21 10.8857 21 12C21 13.1143 20.8234 14.2177 20.4802 15.2472C20.1371 16.2767 19.6341 17.2121 19 18" stroke="#1E293B" stroke-width="2" stroke-linecap="round" stroke-linejoin="round"/>
<path d="M8 15C7.3597 14.2043 7 13.1252 7 12C7 10.8748 7.3597 9.79573 8 9" stroke="#1E293B" stroke-width="2" stroke-linecap="round" stroke-linejoin="round"/>
<path d="M5 18C4.36592 17.2121 3.86295 16.2767 3.51978 15.2472C3.17662 14.2177 3 13.1143 3 12C3 10.8857 3.17662 9.78229 3.51978 8.75281C3.86295 7.72332 4.36592 6.78792 5 6" stroke="#1E293B" stroke-width="2" stroke-linecap="round" stroke-linejoin="round"/>
<circle cx="12" cy="12" r="1" stroke="#1E293B" stroke-width="2" stroke-linecap="round" stroke-linejoin="round"/>
</svg>
