<svg
  width="24"
  height="24"
  viewBox="0 0 24 24"
  xmlns="http://www.w3.org/2000/svg"
  fill="none"
  stroke="currentColor"
  stroke-width="2"
  stroke-linecap="round"
  stroke-linejoin="round"
>
  <path d="M11 12a1 1 0 0 0 1.707.707l-1.414-1.414A.997.997 0 0 0 11 12z" />
  <path d="M5 18a8.851 8.851 0 0 1-1.48-2.753A10.3 10.3 0 0 1 3 12a10.3 10.3 0 0 1 .52-3.247A8.853 8.853 0 0 1 5 6" />
  <path d="M8 15c-.64-.796-1-1.875-1-3s.36-2.204 1-3" />
  <path d="M12.707 12.707L23 23M1 1l10.293 10.293L1 1z" />
  <path d="M19 6a8.85 8.85 0 0 1 1.48 2.753c.343 1.03.52 2.133.52 3.247a10.3 10.3 0 0 1-.58 3.42" />
  <path d="M16 9c.64.796 1 1.875 1 3" />
</svg>
