<svg width="24" height="24" viewBox="0 0 24 24" fill="none" xmlns="http://www.w3.org/2000/svg">
<circle cx="12" cy="11.5" r="3.5" stroke="#1E293B" stroke-width="2" stroke-linecap="round" stroke-linejoin="round"/>
<path d="M20.9451 11C20.9814 11.3283 21 11.662 21 12C21 14.439 20.0298 16.6514 18.4543 18.2723C16.819 19.9548 14.5316 21 12 21C9.46844 21 7.18101 19.9548 5.54571 18.2723C3.97019 16.6514 3 14.439 3 12C3 7.02944 7.02944 3 12 3C12.338 3 12.6717 3.01863 13 3.05493" stroke="#1E293B" stroke-width="2" stroke-linecap="round" stroke-linejoin="round"/>
<path d="M5.54572 18.2723C7.00157 16.2881 9.35036 15 12 15C14.6497 15 16.9984 16.2881 18.4543 18.2723" stroke="#1E293B" stroke-width="2" stroke-linecap="round" stroke-linejoin="round"/>
<path d="M16.5 5.25H21" stroke="#1E293B" stroke-width="2" stroke-linecap="round" stroke-linejoin="round"/>
<path d="M18.75 3V7.5" stroke="#1E293B" stroke-width="2" stroke-linecap="round" stroke-linejoin="round"/>
</svg>
