<svg
  width="24"
  height="24"
  viewBox="0 0 24 24"
  xmlns="http://www.w3.org/2000/svg"
  fill="none"
  stroke="currentColor"
  stroke-width="2"
  stroke-linecap="round"
  stroke-linejoin="round"
>
  <circle cx="12" cy="11.5" r="3.5" />
  <path d="M18.75 6.75a1.5 1.5 0 1 0 0-3 1.5 1.5 0 0 0 0 3z" />
  <path d="M18.75 3.75V2.625" />
  <path d="M17.451 4.5l-.974-.563" />
  <path d="M17.451 6l-.974.563" />
  <path d="M18.75 6.75v1.125" />
  <path d="M20.05 6l.973.563" />
  <path d="M20.05 4.5l.973-.563" />
  <path d="M20.945 11a8.97 8.97 0 0 1-2.49 7.272A8.973 8.973 0 0 1 12 21a8.973 8.973 0 0 1-6.454-2.728A9 9 0 0 1 13 3.055" />
  <path d="M5.546 18.272A7.989 7.989 0 0 1 12 15a7.989 7.989 0 0 1 6.454 3.272" />
</svg>
