<svg
  width="24"
  height="24"
  viewBox="0 0 24 24"
  xmlns="http://www.w3.org/2000/svg"
>
  <path d="M21.692 14.75c-.592-.62-1.805-.975-3.52-.975-.917 0-1.981.088-3.135.295a16.201 16.201 0 0 1-1.922-2.217c-.443-.592-.828-1.242-1.183-1.864.68-2.07 1.005-3.756 1.005-4.968 0-1.36-.502-2.78-1.951-2.78-.444 0-.888.267-1.124.65-.65 1.154-.355 3.667.769 6.152a50.237 50.237 0 0 1-1.42 3.756c-.473 1.124-1.005 2.277-1.597 3.341-3.252 1.302-5.352 2.81-5.589 3.992-.088.444.06.858.385 1.183.118.09.532.444 1.242.444 2.158 0 4.435-3.49 5.589-5.589.887-.296 1.775-.592 2.662-.828a29.149 29.149 0 0 1 2.839-.621c2.276 2.04 4.287 2.366 5.293 2.366 1.242 0 1.686-.503 1.833-.917a1.32 1.32 0 0 0-.177-1.42zm-1.184.858c-.089.444-.533.74-1.153.74-.178 0-.325-.03-.503-.06-1.124-.266-2.189-.828-3.253-1.715.82-.14 1.651-.208 2.483-.207.622 0 1.155.03 1.509.118.414.089 1.065.355.916 1.124h.001zm-6.27-1.39c-.825.155-1.644.342-2.454.562-.707.184-1.407.39-2.1.621.36-.698.696-1.408 1.006-2.13.355-.828.65-1.685.947-2.483.295.502.62 1.005.945 1.449a41.815 41.815 0 0 0 1.656 1.982zM10.365 3.218a.639.639 0 0 1 .562-.354c.62 0 .739.709.739 1.271 0 .946-.296 2.395-.799 4.051-.858-2.307-.916-4.228-.502-4.968zm-3.253 13.78c-1.509 2.485-2.958 4.022-3.845 4.022a.727.727 0 0 1-.443-.147c-.177-.178-.267-.384-.207-.621.177-.888 1.892-2.13 4.495-3.253z" />
</svg>
