<svg
  width="24"
  height="24"
  viewBox="0 0 24 24"
  xmlns="http://www.w3.org/2000/svg"
  fill="none"
  stroke="currentColor"
  stroke-width="2"
  stroke-linecap="round"
  stroke-linejoin="round"
>
  <path d="M5.5 5.5l1.706 5.685" />
  <path d="M12.813 16.794L18.5 18.5" />
  <path d="M11.683 12.317L18.5 5.5" />
  <path d="M5.5 7a1.5 1.5 0 1 0 0-3 1.5 1.5 0 0 0 0 3z" />
  <path d="M18.5 7a1.5 1.5 0 1 0 0-3 1.5 1.5 0 0 0 0 3z" />
  <path d="M18.5 20a1.5 1.5 0 1 0 0-3 1.5 1.5 0 0 0 0 3z" />
  <path d="M8.5 20a4.5 4.5 0 1 0 0-9 4.5 4.5 0 0 0 0 9z" />
</svg>
