<svg
  width="24"
  height="24"
  viewBox="0 0 24 24"
  xmlns="http://www.w3.org/2000/svg"
>
  <path
    fill-rule="evenodd"
    clip-rule="evenodd"
    d="M3.003 10.114a9.843 9.843 0 0 0-.003.234c0 .063.006.124.017.183.268 5.647 3.746 10.437 8.61 12.397a1 1 0 0 0 .747 0c4.863-1.96 8.34-6.75 8.61-12.397.01-.059.016-.12.016-.183 0-.078 0-.156-.003-.234.002-.095.003-.191.003-.287 0-.084-.01-.166-.03-.244C20.596 4.812 16.758 1 12 1 7.242 1 3.404 4.812 3.03 9.583c-.02.078-.03.16-.03.244 0 .096 0 .192.003.287zm2 .005c.111 4.87 2.978 9.003 6.997 10.795 4.019-1.792 6.886-5.925 6.997-10.795C18.88 6.13 15.755 3 12 3s-6.881 3.129-6.997 7.12zm1.302.554a1 1 0 0 1 1.158-.168l2 1.044a1 1 0 0 1 .439.454l1 2.087a1 1 0 0 1-1.365 1.32l-2-1.044a1 1 0 0 1-.439-.455l-1-2.087a1 1 0 0 1 .207-1.151zm11.39 0a1 1 0 0 1 .207 1.151l-1 2.087a1 1 0 0 1-.44.455l-2 1.043a1 1 0 0 1-1.364-1.319l1-2.087a1 1 0 0 1 .44-.454l2-1.044a1 1 0 0 1 1.157.168z"
  />
</svg>
