<svg width="24" height="24" viewBox="0 0 24 24" fill="none" xmlns="http://www.w3.org/2000/svg">
<path d="M12 3C7.85786 3 4.5 6.35786 4.5 10.5C5.16667 14 7.6 21.2 12 22C16.4 21.2 18.8333 14 19.5 10.5C19.5 6.35786 16.1421 3 12 3Z" stroke="#1E293B" stroke-width="2" stroke-linecap="round" stroke-linejoin="round"/>
<path d="M9.50149 13.0607C10.0873 13.6465 10.4039 14.2796 10.2086 14.4749C10.0133 14.6702 9.38017 14.3536 8.79439 13.7678C8.2086 13.182 7.89202 12.5488 8.08728 12.3536C8.28254 12.1583 8.91571 12.4749 9.50149 13.0607Z" stroke="#1E293B" stroke-width="2" stroke-linecap="round" stroke-linejoin="round"/>
<path d="M14.4985 13.0607C13.9127 13.6465 13.5961 14.2796 13.7914 14.4749C13.9867 14.6702 14.6198 14.3536 15.2056 13.7678C15.7914 13.182 16.108 12.5488 15.9127 12.3536C15.7175 12.1583 15.0843 12.4749 14.4985 13.0607Z" stroke="#1E293B" stroke-width="2" stroke-linecap="round" stroke-linejoin="round"/>
</svg>
