<svg
  width="24"
  height="24"
  viewBox="0 0 24 24"
  xmlns="http://www.w3.org/2000/svg"
  fill="none"
  stroke="currentColor"
  stroke-width="2"
  stroke-linecap="round"
  stroke-linejoin="round"
>
  <path d="M12 3a7.5 7.5 0 0 0-7.5 7.5C5.167 14 7.6 21.2 12 22c4.4-.8 6.833-8 7.5-11.5A7.5 7.5 0 0 0 12 3z" />
  <path d="M9.501 13.06c.586.586.903 1.22.708 1.415-.196.195-.829-.121-1.415-.707-.585-.586-.902-1.22-.707-1.414.196-.196.829.12 1.414.707v-.001z" />
  <path d="M14.498 13.06c-.585.586-.902 1.22-.707 1.415.196.195.829-.121 1.415-.707.585-.586.902-1.22.707-1.414-.196-.196-.829.12-1.415.707v-.001z" />
</svg>
