<svg
  width="24"
  height="24"
  viewBox="0 0 24 24"
  xmlns="http://www.w3.org/2000/svg"
>
  <path d="M2.038 17.017c.06-.097.155-.104.29-.018 3.03 1.758 6.328 2.638 9.891 2.638 2.377 0 4.723-.444 7.04-1.33l.262-.116c.115-.05.195-.083.244-.108.188-.074.325-.039.438.108.1.145.075.28-.1.4-.214.158-.5.342-.839.545-1.037.62-2.2 1.097-3.487 1.438a14.681 14.681 0 0 1-9.126-.48 14.902 14.902 0 0 1-4.525-2.792C2.043 17.24 2 17.177 2 17.119c0-.04.018-.075.042-.109l-.004.007zm5.47-5.182c0-.837.206-1.552.62-2.147.412-.592.974-1.042 1.7-1.346.663-.28 1.463-.48 2.426-.6.325-.039.861-.086 1.6-.145v-.309c0-.775-.087-1.298-.25-1.562-.252-.358-.65-.542-1.2-.542h-.152c-.4.039-.746.164-1.038.384-.292.225-.479.525-.562.913-.05.25-.172.387-.363.425l-2.1-.263c-.207-.05-.31-.15-.31-.325 0-.038.006-.075.019-.125.205-1.075.712-1.875 1.516-2.4.813-.513 1.75-.812 2.825-.875h.45c1.375 0 2.464.362 3.24 1.075.113.125.225.25.338.4.1.138.186.262.236.375.062.112.125.275.162.475.05.212.088.35.113.425.024.087.051.25.063.513.008.26.017.41.017.46v4.4c0 .314.05.6.137.864.087.261.175.45.262.562l.425.561a.568.568 0 0 1 .114.3c0 .1-.05.189-.15.262-1 .875-1.55 1.35-1.636 1.425-.138.113-.313.125-.525.038a5.034 5.034 0 0 1-.438-.414l-.259-.289a7.798 7.798 0 0 1-.264-.35l-.25-.362c-.675.738-1.336 1.2-2 1.387-.411.125-.91.19-1.525.19-.925 0-1.7-.287-2.3-.862-.6-.575-.9-1.388-.9-2.45l-.042-.064.001-.004zm3.128-.365c0 .472.117.85.354 1.137.237.283.563.427.963.427.037 0 .088-.006.162-.017a.927.927 0 0 1 .138-.02c.512-.133.9-.46 1.187-.981.138-.233.238-.483.3-.758.075-.267.1-.492.112-.667.013-.162.013-.45.013-.838v-.45c-.7 0-1.237.05-1.6.15-1.063.3-1.6.976-1.6 2.026l-.03-.017v.008zm7.635 5.856a.605.605 0 0 1 .11-.142 2.97 2.97 0 0 1 .875-.416c.44-.112.89-.18 1.343-.2.117-.01.233 0 .342.025.542.05.875.14.977.275.052.075.082.19.082.325v.125c0 .425-.124.925-.353 1.5-.232.575-.554 1.04-.964 1.4-.06.05-.116.075-.164.075-.025 0-.05 0-.075-.01-.075-.037-.089-.1-.053-.2.45-1.05.672-1.786.672-2.2a.477.477 0 0 0-.073-.287c-.12-.138-.458-.214-1.02-.214a8.38 8.38 0 0 0-.725.038c-.303.038-.583.075-.833.113-.075 0-.124-.012-.15-.037-.025-.025-.03-.04-.017-.064 0-.014.005-.025.017-.053v-.05l.009-.003z" />
</svg>
