<svg width="24" height="24" viewBox="0 0 24 24" fill="none" xmlns="http://www.w3.org/2000/svg">
<path d="M12 6.8C13.004 6.8 13.818 5.95 13.818 4.9C13.818 3.85 13.004 3 12 3C10.996 3 10.182 3.85 10.182 4.9C10.182 5.95 10.996 6.8 12 6.8V6.8Z" stroke="white" stroke-width="2" stroke-linecap="round" stroke-linejoin="round"/>
<path d="M12 21.9998V6.7998" stroke="white" stroke-width="2" stroke-linecap="round" stroke-linejoin="round"/>
<path d="M8.36401 10.6001H15.636" stroke="white" stroke-width="2" stroke-linecap="round" stroke-linejoin="round"/>
<path d="M12 22.0001C12 20.9921 12.383 20.0261 13.065 19.3131C13.396 18.9633 13.7945 18.6843 14.2364 18.493C14.6783 18.3017 15.1544 18.2021 15.636 18.2001C16.214 18.198 16.7855 18.0786 17.3159 17.8492C17.8464 17.6197 18.3247 17.2849 18.722 16.8651C19.5466 15.9943 20.0043 14.8394 20 13.6401" stroke="white" stroke-width="2" stroke-linecap="round" stroke-linejoin="round"/>
<path d="M12 22.0001C12.0035 21.0009 11.6221 20.0387 10.935 19.3131C10.604 18.9633 10.2055 18.6843 9.76362 18.493C9.3217 18.3017 8.84555 18.2021 8.364 18.2001C7.78604 18.198 7.21452 18.0786 6.68406 17.8492C6.15361 17.6197 5.67526 17.2849 5.278 16.8651C4.45337 15.9943 3.99571 14.8394 4 13.6401" stroke="white" stroke-width="2" stroke-linecap="round" stroke-linejoin="round"/>
</svg>
