<svg
  width="24"
  height="24"
  viewBox="0 0 24 24"
  xmlns="http://www.w3.org/2000/svg"
  fill="none"
  stroke="currentColor"
  stroke-width="2"
  stroke-linecap="round"
  stroke-linejoin="round"
>
  <path d="M12 6.8c1.004 0 1.818-.85 1.818-1.9 0-1.05-.814-1.9-1.818-1.9s-1.818.85-1.818 1.9c0 1.05.814 1.9 1.818 1.9z" />
  <path d="M12 22V6.8" />
  <path d="M8.364 10.6h7.272" />
  <path d="M12 22c0-1.008.383-1.974 1.065-2.687a3.56 3.56 0 0 1 2.571-1.113 4.27 4.27 0 0 0 3.086-1.335A4.666 4.666 0 0 0 20 13.64" />
  <path d="M12 22c.004-1-.378-1.961-1.065-2.687A3.56 3.56 0 0 0 8.364 18.2a4.272 4.272 0 0 1-3.086-1.335A4.666 4.666 0 0 1 4 13.64" />
</svg>
