<svg
  width="24"
  height="24"
  viewBox="0 0 24 24"
  xmlns="http://www.w3.org/2000/svg"
>
  <path d="M16.543 7.567a1.08 1.08 0 0 0 0-1.531l-1.561-1.561.002.002-2.128-2.126a1.22 1.22 0 0 0-1.708.012l-8.793 8.786a1.204 1.204 0 0 0 0 1.706l8.79 8.784a1.209 1.209 0 0 0 1.709 0l3.686-3.684a1.081 1.081 0 0 0-.767-1.849c-.287 0-.563.114-.767.317l-2.79 2.795a.288.288 0 0 1-.414 0L4.78 12.203a.288.288 0 0 1 0-.413l7.02-7.016c.009-.009.02-.016.03-.024a.285.285 0 0 1 .383.024l2.796 2.793a1.084 1.084 0 0 0 1.534 0zm-6.87 4.48a2.37 2.37 0 0 0 2.373 2.37 2.374 2.374 0 0 0 2.373-2.37 2.37 2.37 0 0 0-2.373-2.372 2.375 2.375 0 0 0-2.374 2.371zm11.972-.862L18.9 8.454a1.086 1.086 0 0 0-1.534 1.534l1.853 1.85a.288.288 0 0 1 0 .414l-1.827 1.824a1.08 1.08 0 0 0 0 1.532 1.087 1.087 0 0 0 1.534 0l2.72-2.718a1.204 1.204 0 0 0-.002-1.705z" />
</svg>
