<svg
  width="24"
  height="24"
  viewBox="0 0 24 24"
  xmlns="http://www.w3.org/2000/svg"
>
  <path d="M16.855 2a.646.646 0 0 0-.337.095c-.313.185-.835.71-1.456 1.47l-.13.16c-.165.204-.336.426-.512.66a32.33 32.33 0 0 0-1.68 2.476l-.018.03-.037.06a34.112 34.112 0 0 0-1.424 2.567 19.576 19.576 0 0 0-1.125 2.736c-.052.166-.102.332-.148.497-.111.389-.207.778-.285 1.165v.002l-.01.05c-.094.466-.159.937-.195 1.41l-.004.05c-.233-.375-.857-.739-.856-.736.447.649.786 1.292.836 1.924-.239.049-.567-.022-.946-.162.395.363.691.463.807.49-.363.023-.74.273-1.122.56.557-.228 1.007-.317 1.33-.245A109.91 109.91 0 0 0 8.007 22a.446.446 0 0 0 .303-.295c.092-.307.698-2.322 1.648-4.97l.081-.227.024-.064c.1-.277.204-.56.311-.85l.074-.197.002-.004-.503-.994.503.993c.1-.264.2-.532.304-.803l.044-.113.044-.114.034-.087-.034.088-.044.113-.044.113c-.104.271-.205.539-.304.803l.088.173.079-.008.008-.023c.128-.348.253-.687.378-1.017l.005-.012c-.13.342-.257.685-.382 1.029l-.008.023-.056.152c-.099.271-.198.546-.297.828l-.004.012-.043.12c-.066.19-.125.36-.257.749.22.1.395.363.562.661a1.2 1.2 0 0 0-.389-.824c1.08.048 2.011-.224 2.493-1.014.043-.07.082-.144.117-.223-.218.277-.49.395-1 .366.752-.337 1.129-.66 1.462-1.195.084-.136.162-.276.234-.419-.657.675-1.418.867-2.22.721h-.002l-.035-.006c.72-.089 1.675-.627 2.294-1.29.285-.306.543-.667.782-1.088.178-.314.345-.663.504-1.049.14-.336.273-.701.402-1.097-.212.108-.44.182-.675.217a3.988 3.988 0 0 1-.115.019l.002-.001h.002l.111-.018.112-.022-.111.02-.11.02c.668-.26 1.09-.757 1.396-1.365a2.395 2.395 0 0 1-.806.353c-.047.01-.095.019-.143.026l-.035.005.008-.002.027-.004a2.41 2.41 0 0 0 .13-.024l.012-.002-.013.002-.162.028c.232-.098.428-.206.598-.335.124-.096.239-.206.342-.325.067-.08.13-.165.188-.259l.053-.086.064-.127c.114-.231.217-.468.307-.71l.025-.072c.024-.071.044-.135.059-.19.022-.082.037-.148.044-.196a.6.6 0 0 1-.078.053c-.203.12-.55.23-.83.283l-.083.009-1.89.208-.01.02-.064.132-.196.406-.037.078.037-.078c.066-.138.131-.274.196-.406l.064-.132c.004-.008.008-.014.01-.022l-.07.008-.056-.11c-.106.21-.211.423-.315.636l-.17.353a59.884 59.884 0 0 0-.91 2.005c-.31.719-.61 1.442-.9 2.17l.071-.18c.268-.667.544-1.33.83-1.99.29-.674.594-1.343.91-2.006l.17-.353c.098-.204.197-.404.298-.604l.016-.031c.16-.315.32-.625.483-.93a33.513 33.513 0 0 1 1.087-1.883l.034-.054c.186-.295.375-.579.564-.85.384-.558.808-1.087 1.268-1.583l-.048.051c-.134.147-.537.618-1.146 1.553.587-.03 1.488-.15 2.223-.275.218-1.225-.215-1.785-.215-1.785s-.37-.6-.86-.604L16.855 2zm-1.373 6.256c.55-.254.796-.483 1.035-.814a11.697 11.697 0 0 0 1.165-2.178c.064-.163.12-.33.166-.5.035-.13.062-.256.083-.374-.736.125-1.637.246-2.224.274-.2.308-.393.62-.58.935a41.895 41.895 0 0 0-1.536 2.863l1.89-.207zm3.023-4.424v.055h.13v.366h.06v-.366h.13v-.055h-.32zm.386 0v.421h.055V3.92l.143.29h.039l.143-.29v.334h.055v-.421h-.073l-.145.294-.146-.294h-.072zm-3.34 4.417l-.085.013.084-.014v.001zm-.075.01l-.004.002.004-.002zm-2.284 1.035l-.088.19-.11.239c-.265.575-.52 1.154-.768 1.737a77.977 77.977 0 0 0-1.207 3.007l-.004.012a64.711 64.711 0 0 1 1.978-4.757l.111-.24.089-.188z" />
</svg>
