<svg
  width="24"
  height="24"
  viewBox="0 0 24 24"
  xmlns="http://www.w3.org/2000/svg"
>
  <path
    fill-rule="evenodd"
    clip-rule="evenodd"
    d="M4.36 5.548A9.964 9.964 0 0 0 2 12c0 4.9 3.522 8.975 8.172 9.834.595.11 1.206.166 1.828.166a9.98 9.98 0 0 0 7.642-3.55A9.964 9.964 0 0 0 22 12c0-4.9-3.522-8.975-8.172-9.834A10.055 10.055 0 0 0 12 2a9.98 9.98 0 0 0-7.64 3.548zm14.571 10.45A7.96 7.96 0 0 0 20 12c0-.689-.087-1.358-.25-1.996h-4.278l3.46 5.993zm-5.769-5.994h-2.32L9.692 12l1.154 2h2.31l1.157-2.004-1.15-1.992zm2.304 3.992L12 20a7.972 7.972 0 0 0 5.608-2.295l-2.142-3.71zM9.857 19.71L12 16H5.07a8.017 8.017 0 0 0 4.787 3.711zM4.252 14A8.016 8.016 0 0 1 4 12a7.96 7.96 0 0 1 1.07-4.002L8.537 14H4.252zm4.284-4L12 4c-2.183 0-4.16.873-5.605 2.292L8.535 10zm5.607-5.711l-2.146 3.715h6.936a8.017 8.017 0 0 0-4.79-3.715z"
  />
</svg>
