<svg
  width="24"
  height="24"
  viewBox="0 0 24 24"
  xmlns="http://www.w3.org/2000/svg"
>
  <path d="M9.34 14.433l5.093-9.198c.07-.126.14-.251.203-.382.057-.118.105-.237.137-.366a1.327 1.327 0 0 0-.055-.814 1.26 1.26 0 0 0-.517-.613 1.181 1.181 0 0 0-1.47.197 1.804 1.804 0 0 0-.237.307c-.076.122-.146.248-.216.375l-.322.581-.322-.581c-.07-.127-.139-.253-.215-.375a1.811 1.811 0 0 0-.237-.307 1.182 1.182 0 0 0-1.47-.197 1.26 1.26 0 0 0-.517.613c-.104.259-.122.542-.055.814.031.129.08.248.137.366.063.13.133.256.203.382l1.04 1.879-4.052 7.319H3.691c-.14 0-.279 0-.419.008-.126.007-.25.023-.373.059a1.224 1.224 0 0 0-.648.457 1.311 1.311 0 0 0 0 1.546c.163.224.39.381.648.457.123.035.247.052.373.06.14.008.28.007.42.007h10.914c.014-.03.049-.108.083-.225.346-1.18-.513-2.37-1.696-2.37H9.341zM4.595 17.45l-.66 1.251c-.068.13-.137.258-.199.392a1.968 1.968 0 0 0-.134.377c-.065.279-.048.57.054.836.1.264.279.485.506.629.227.143.49.201.75.164.262-.036.501-.165.69-.367.089-.095.162-.202.23-.315.075-.125.143-.255.212-.384L7 18.22c-.075-.125-.79-1.226-2.406-.769zm17.155-2.504a1.225 1.225 0 0 0-.649-.45 1.693 1.693 0 0 0-.373-.06c-.14-.008-.28-.007-.42-.007H17.54l-3.658-6.514a3.386 3.386 0 0 0-.897 1.831 3.87 3.87 0 0 0 .455 2.5l4.395 7.828c.07.125.139.25.216.37.07.109.145.211.236.303a1.195 1.195 0 0 0 1.472.194 1.25 1.25 0 0 0 .518-.604c.104-.256.121-.536.054-.804a1.818 1.818 0 0 0-.137-.362c-.063-.128-.133-.252-.203-.377l-1.014-1.805h1.33c.14 0 .28 0 .42-.008.126-.007.25-.023.373-.058.26-.075.489-.233.65-.45a1.282 1.282 0 0 0 0-1.527z" />
</svg>
