<svg
  width="24"
  height="24"
  viewBox="0 0 24 24"
  xmlns="http://www.w3.org/2000/svg"
>
  <path d="M7.898 21.625a4.48 4.48 0 0 1-1.036-.958c-.32-.386-.615-.792-.887-1.212a11.72 11.72 0 0 1-1.483-3.03c-.417-1.252-.62-2.45-.62-3.622 0-1.309.284-2.45.836-3.409a4.817 4.817 0 0 1 1.75-1.818 4.666 4.666 0 0 1 2.366-.7c.292 0 .609.042.942.125.242.067.533.175.892.308.458.175.708.284.791.309.267.1.492.141.667.141.133 0 .325-.041.537-.108.121-.042.35-.117.675-.258.322-.117.577-.217.78-.292.308-.092.606-.175.874-.217a4.13 4.13 0 0 1 .957-.041 5.676 5.676 0 0 1 1.617.35c.85.341 1.536.875 2.047 1.633a5.103 5.103 0 0 0-1.63 1.712 4.25 4.25 0 0 0-.535 2.1c.012.903.241 1.696.7 2.384.322.5.753.928 1.278 1.28.258.175.485.296.7.375-.1.312-.21.616-.338.916-.289.673-.633 1.317-1.041 1.925-.36.525-.644.917-.859 1.175-.335.4-.658.7-.983.915-.358.237-.78.363-1.21.363a2.683 2.683 0 0 1-.862-.106 8.346 8.346 0 0 1-.713-.27 5.793 5.793 0 0 0-.754-.282 3.892 3.892 0 0 0-1.937-.002 6.018 6.018 0 0 0-.756.27c-.35.147-.579.242-.712.284-.27.08-.547.128-.825.146-.433 0-.837-.125-1.238-.375l.01-.01zM13.61 6.242c-.567.283-1.105.403-1.644.363-.083-.538 0-1.092.225-1.697.2-.517.466-.984.833-1.4a4.508 4.508 0 0 1 1.359-1.05c.55-.284 1.075-.434 1.575-.459.066.567 0 1.125-.209 1.725a4.948 4.948 0 0 1-.833 1.467 4.203 4.203 0 0 1-1.322 1.05h.016z" />
</svg>
