<svg
  width="24"
  height="24"
  viewBox="0 0 24 24"
  xmlns="http://www.w3.org/2000/svg"
>
  <path d="M21.998 7.103c0-.615-.054-1.225-.2-1.825-.264-1.091-.885-1.925-1.817-2.535a4.185 4.185 0 0 0-1.564-.606 8.748 8.748 0 0 0-1.303-.125c-.034-.003-.07-.009-.104-.011H6.99l-.379.022c-.622.035-1.242.102-1.827.334-1.114.441-1.917 1.21-2.388 2.316-.16.374-.243.771-.302 1.174a8.84 8.84 0 0 0-.084.983c0 .027-.006.052-.008.078v10.185l.022.354c.042.679.129 1.353.415 1.977.541 1.184 1.448 1.961 2.695 2.335.35.106.713.156 1.077.19.463.044.925.05 1.39.05h9.191c.438 0 .873-.028 1.308-.083.686-.088 1.331-.292 1.914-.675a4.205 4.205 0 0 0 1.566-1.84c.155-.35.245-.725.309-1.103.094-.563.115-1.132.114-1.7-.002-3.167 0-6.33-.003-9.495h-.002zm-5.353 3.325v4.76c0 .348-.048.69-.203 1.005-.242.492-.633.802-1.157.95-.291.084-.588.131-.891.145a1.555 1.555 0 0 1-1.62-1.28 1.566 1.566 0 0 1 .866-1.685c.269-.134.558-.209.848-.27.315-.069.632-.128.945-.2.228-.053.38-.192.425-.43a.75.75 0 0 0 .016-.161l-.001-4.536a.6.6 0 0 0-.022-.154c-.033-.125-.125-.203-.253-.195-.134.008-.265.029-.396.055-.633.125-1.267.252-1.9.38l-1.938.391-1.145.232-.04.011c-.231.064-.315.17-.325.408-.002.035 0 .072 0 .109-.002 2.168 0 4.336-.003 6.504 0 .35-.04.697-.18 1.022-.23.534-.64.867-1.194 1.028a3.704 3.704 0 0 1-.896.143c-.8.03-1.462-.5-1.6-1.287a1.555 1.555 0 0 1 .962-1.729c.297-.125.608-.193.923-.258.24-.05.48-.097.717-.147.319-.07.486-.27.5-.596v-.125l.001-7.401c0-.103.011-.209.035-.309.059-.237.228-.373.455-.431.213-.055.43-.094.645-.138.611-.125 1.222-.246 1.834-.37l1.891-.383 1.675-.336c.184-.036.37-.073.554-.088.258-.021.436.141.462.401.006.061.01.124.01.186v4.779z" />
</svg>
