<svg
  width="24"
  height="24"
  viewBox="0 0 24 24"
  xmlns="http://www.w3.org/2000/svg"
>
  <path
    fill-rule="evenodd"
    clip-rule="evenodd"
    d="M6.5 4a2.5 2.5 0 0 0 0 5H9V6.5A2.5 2.5 0 0 0 6.5 4zM2 6.5a4.5 4.5 0 0 1 9 0V10a1 1 0 0 1-1 1H6.5A4.5 4.5 0 0 1 2 6.5zM17.5 4A2.5 2.5 0 0 0 15 6.5V9h2.5a2.5 2.5 0 0 0 0-5zM13 6.5a4.5 4.5 0 1 1 4.5 4.5H14a1 1 0 0 1-1-1V6.5zM6.5 15A2.5 2.5 0 1 0 9 17.5V15H6.5zM2 17.5A4.5 4.5 0 0 1 6.5 13H10a1 1 0 0 1 1 1v3.5a4.5 4.5 0 1 1-9 0zM13 14a1 1 0 0 1 1-1h3.5a4.5 4.5 0 1 1-4.5 4.5V14zm2 1v2.5a2.5 2.5 0 1 0 2.5-2.5H15z"
  />
</svg>
