<svg
  width="24"
  height="24"
  viewBox="0 0 24 24"
  xmlns="http://www.w3.org/2000/svg"
>
  <path
    fill-rule="evenodd"
    clip-rule="evenodd"
    d="M12 4a1 1 0 1 0 0 2 1 1 0 0 0 0-2zM9 5a3 3 0 1 1 4 2.83v1.016l7.4 3.238A1 1 0 0 1 21 13v5a1 1 0 0 1-.6.916l-8 3.5a1 1 0 0 1-.8 0l-8-3.5A1 1 0 0 1 3 18v-5a1 1 0 0 1 .6-.916L11 8.846V7.829A3.001 3.001 0 0 1 9 5zm2 6.029L6.495 13 12 15.409 17.505 13 13 11.029V14h-2v-2.971zm8 3.5l-6.6 2.887a1 1 0 0 1-.8 0L5 14.53v2.817l7 3.063 7-3.063V14.53z"
  />
</svg>
