<svg
  width="24"
  height="24"
  viewBox="0 0 24 24"
  xmlns="http://www.w3.org/2000/svg"
>
  <path
    fill-rule="evenodd"
    clip-rule="evenodd"
    d="M9.592 2.449a1 1 0 0 1 .874-.178l2.897.777a1 1 0 0 1 .709.711l1.904 7.236 4.269 1.144a3 3 0 1 1-1.553 5.795L4.203 14.052a1 1 0 0 1-.72-.765L2.137 6.715a1 1 0 0 1 1.238-1.167l2.898.777a1 1 0 0 1 .607.465l1.207 2.091 1.217.326-.098-5.953a1 1 0 0 1 .385-.805zm1.637 2.097l.098 5.954a1 1 0 0 1-1.259.982l-2.898-.776a1 1 0 0 1-.607-.466L5.356 8.15l-.935-.251.897 4.381 13.892 3.722a1 1 0 0 0 .517-1.931l-4.83-1.294a1 1 0 0 1-.707-.712L12.285 4.83l-1.056-.284zM2 21a1 1 0 0 1 1-1h18a1 1 0 1 1 0 2H3a1 1 0 0 1-1-1z"
  />
</svg>
