<svg width="24" height="24" viewBox="0 0 24 24" fill="none" xmlns="http://www.w3.org/2000/svg">
<path fill-rule="evenodd" clip-rule="evenodd" d="M6.29289 6.29289C6.68342 5.90237 7.31658 5.90237 7.70711 6.29289L16 14.5858L16 8C16 7.44772 16.4477 7 17 7C17.5523 7 18 7.44772 18 8L18 17C18 17.2652 17.8946 17.5196 17.7071 17.7071C17.5196 17.8946 17.2652 18 17 18L8 18C7.44771 18 7 17.5523 7 17C7 16.4477 7.44771 16 8 16L14.5858 16L6.29289 7.70711C5.90237 7.31658 5.90237 6.68342 6.29289 6.29289Z" fill="black"/>
</svg>
