<svg width="24" height="24" viewBox="0 0 24 24" fill="none" xmlns="http://www.w3.org/2000/svg">
<path fill-rule="evenodd" clip-rule="evenodd" d="M16.2929 6.29289C16.6834 5.90237 17.3166 5.90237 17.7071 6.29289C18.0976 6.68342 18.0976 7.31658 17.7071 7.70711L9.41421 16H16C16.5523 16 17 16.4477 17 17C17 17.5523 16.5523 18 16 18H7C6.73478 18 6.48043 17.8946 6.29289 17.7071C6.10536 17.5196 6 17.2652 6 17L6 8C6 7.44772 6.44772 7 7 7C7.55228 7 8 7.44772 8 8V14.5858L16.2929 6.29289Z" fill="black"/>
</svg>
