<svg width="24" height="24" viewBox="0 0 24 24" fill="none" xmlns="http://www.w3.org/2000/svg">
<path fill-rule="evenodd" clip-rule="evenodd" d="M12 3.92896C12.5523 3.92896 13 4.37667 13 4.92896V16.6569L17.6569 12C18.0474 11.6095 18.6806 11.6095 19.0711 12C19.4616 12.3905 19.4616 13.0237 19.0711 13.4142L12.7071 19.7782C12.5196 19.9657 12.2652 20.0711 12 20.0711C11.7348 20.0711 11.4804 19.9657 11.2929 19.7782L4.92894 13.4142C4.53842 13.0237 4.53842 12.3905 4.92894 12C5.31946 11.6095 5.95263 11.6095 6.34315 12L11 16.6569V4.92896C11 4.37667 11.4477 3.92896 12 3.92896Z" fill="black"/>
</svg>
