<svg width="24" height="24" viewBox="0 0 24 24" fill="none" xmlns="http://www.w3.org/2000/svg">
<path fill-rule="evenodd" clip-rule="evenodd" d="M12 4.92888C12.3905 4.53836 13.0237 4.53836 13.4142 4.92888L19.7782 11.2928C19.9657 11.4804 20.0711 11.7347 20.0711 11.9999C20.0711 12.2652 19.9657 12.5195 19.7782 12.7071L13.4142 19.071C13.0237 19.4615 12.3905 19.4615 12 19.071C11.6095 18.6805 11.6095 18.0473 12 17.6568L16.6569 12.9999H4.92896C4.37667 12.9999 3.92896 12.5522 3.92896 11.9999C3.92896 11.4477 4.37667 10.9999 4.92896 10.9999H16.6569L12 6.34309C11.6095 5.95257 11.6095 5.3194 12 4.92888Z" fill="black"/>
</svg>
