<svg width="24" height="24" viewBox="0 0 24 24" fill="none" xmlns="http://www.w3.org/2000/svg">
<path fill-rule="evenodd" clip-rule="evenodd" d="M12 2C12.5523 2 13 2.44772 13 3V10.2902L19.5097 6.62842C19.9911 6.35766 20.6008 6.52838 20.8716 7.00974C21.1423 7.4911 20.9716 8.10081 20.4903 8.37158L14.0397 12L20.4903 15.6284C20.9716 15.8992 21.1423 16.5089 20.8716 16.9903C20.6008 17.4716 19.9911 17.6423 19.5097 17.3716L13 13.7098V21C13 21.5523 12.5523 22 12 22C11.4477 22 11 21.5523 11 21V13.7098L4.49026 17.3716C4.0089 17.6423 3.39918 17.4716 3.12842 16.9903C2.85765 16.5089 3.02838 15.8992 3.50973 15.6284L9.96027 12L3.50973 8.37158C3.02838 8.10081 2.85765 7.4911 3.12842 7.00974C3.39918 6.52838 4.0089 6.35766 4.49026 6.62842L11 10.2902V3C11 2.44772 11.4477 2 12 2Z" fill="black"/>
</svg>
