<svg width="24" height="24" viewBox="0 0 24 24" fill="none" xmlns="http://www.w3.org/2000/svg">
<path d="M12 16C14.2091 16 16 14.2091 16 12C16 9.79086 14.2091 8 12 8C9.79086 8 8 9.79086 8 12C8 14.2091 9.79086 16 12 16Z" stroke="white" stroke-width="2" stroke-linecap="round" stroke-linejoin="round"/>
<path d="M16 9.00003V12C16 14.21 17.12 16 18.5 16C19.88 16 21 14.21 21 12C20.9996 10.0432 20.3615 8.13976 19.1822 6.57814C18.003 5.01652 16.3469 3.8818 14.4648 3.34587C12.5828 2.80995 10.5774 2.90202 8.75237 3.60815C6.92736 4.31428 5.38221 5.59599 4.35102 7.2591C3.31983 8.9222 2.85878 10.8761 3.03772 12.8247C3.21665 14.7734 4.02583 16.6106 5.34266 18.0581C6.65948 19.5056 8.41221 20.4845 10.3353 20.8465C12.2584 21.2084 14.247 20.9337 16 20.064" stroke="white" stroke-width="2" stroke-linecap="round" stroke-linejoin="round"/>
</svg>
