<svg
  width="24"
  height="24"
  viewBox="0 0 24 24"
  xmlns="http://www.w3.org/2000/svg"
>
  <path d="M18.092 21.964h-3a1.05 1.05 0 0 1-1.094-.66c-1.11-2.22-2.316-4.406-3.322-6.705a12.708 12.708 0 0 1 .737-12.058c.139-.234.434-.521.66-.521.225 0 .494.313.616.555 3.025 6.05 6.052 12.102 9.082 18.157.451.867.243 1.223-.754 1.232h-2.925zm-12.145 0h-3.08c-.868 0-1.059-.347-.677-1.11a1765.43 1765.43 0 0 0 4.624-9.213c.417-.868.746-.868 1.327-.148a10.184 10.184 0 0 1 2.091 9.309c-.286 1.101-.443 1.17-1.553 1.17l-2.732-.008z" />
</svg>
