<svg
  width="24"
  height="24"
  viewBox="0 0 24 24"
  xmlns="http://www.w3.org/2000/svg"
>
  <path d="M19.08 9.522c-1.82-.775-4.263-1.275-6.875-1.413a20.171 20.171 0 0 0-1.208-.033c1.931-2.358 4.001-3.942 5.364-3.992.268-.01.496.046.677.164.589.381.754 1.473.454 2.991-.033.209.1.411.3.45a.38.38 0 0 0 .45-.3c.375-1.9.1-3.205-.783-3.781a1.898 1.898 0 0 0-1.125-.289c-1.708.064-4.117 1.917-6.325 4.767-.962.03-1.867.108-2.693.24-.539-2.415-.325-4.148.495-4.565a.955.955 0 0 1 .38-.103c.581-.045 1.384.329 2.259 1.058a.381.381 0 1 0 .488-.588c-1.05-.87-2.018-1.295-2.81-1.236a1.87 1.87 0 0 0-.669.183c-.992.506-1.392 1.94-1.142 4.032.059.433.134.885.242 1.35-2.734.546-4.476 1.641-4.55 3.02-.05.975.72 1.903 2.233 2.685a.383.383 0 1 0 .35-.68c-1.209-.622-1.859-1.324-1.82-1.965.042-.9 1.477-1.825 3.967-2.317.225.828.517 1.693.875 2.575-.848 1.573-1.463 3.123-1.78 4.5-.467 2.054-.217 3.517.716 4.123.3.195.65.292 1.04.292.778 0 1.722-.383 2.788-1.143a.382.382 0 1 0-.441-.622c-1.287.92-2.37 1.227-2.969.836-.633-.413-.771-1.62-.383-3.313.267-1.155.756-2.442 1.423-3.767.167.365.342.73.525 1.094 1.188 2.33 2.642 4.356 4.092 5.704 1.155 1.075 2.228 1.636 3.112 1.636.292 0 .567-.062.814-.186.954-.487 1.366-1.841 1.165-3.812-.187-1.844-.884-4.092-1.962-6.334a.383.383 0 1 0-.692.33c2.242 4.669 2.4 8.492 1.142 9.134-1.325.677-4.52-1.963-6.992-6.817a21.269 21.269 0 0 1-.75-1.608 27.35 27.35 0 0 1 .913-1.525c.33-.504.672-.99 1.02-1.454h.328c.45 0 .939.008 1.445.04 5.442.285 9.146 2.133 9.07 3.611-.033.638-.77 1.282-2.02 1.767a.386.386 0 0 0-.217.497.38.38 0 0 0 .494.218c1.587-.617 2.458-1.463 2.508-2.442.059-1.108-.975-2.175-2.916-3v-.008l-.007-.004zm-10.347.353c-.225.346-.433.69-.636 1.037a19.72 19.72 0 0 1-.603-1.846 21.014 21.014 0 0 1 1.925-.2c-.233.325-.462.662-.683 1.008v-.008l-.003.01zm3.271.98a1.146 1.146 0 1 0 0 2.29 1.146 1.146 0 0 0 0-2.29z" />
</svg>
