<svg width="24" height="24" viewBox="0 0 24 24" fill="none" xmlns="http://www.w3.org/2000/svg">
<path d="M12 12V12.01" stroke="white" stroke-width="2" stroke-linecap="round" stroke-linejoin="round"/>
<path d="M19.071 4.92909C18.321 4.17909 16.856 4.20409 15 5.00009C13.143 5.79609 11.047 7.29609 9.172 9.17209C7.296 11.0471 5.796 13.1441 5 15.0001C4.204 16.8571 4.179 18.3211 4.929 19.0711C5.679 19.8211 7.143 19.7961 9 19.0011C10.857 18.2041 12.953 16.7041 14.828 14.8281C15.7362 13.924 16.5693 12.9474 17.319 11.9081C18.035 10.9081 18.606 9.91909 19 9.00009C19.394 8.08009 19.603 7.24809 19.615 6.55009C19.627 5.85109 19.443 5.30009 19.071 4.92909" stroke="white" stroke-width="2" stroke-linecap="round" stroke-linejoin="round"/>
<path d="M4.929 4.92883C4.179 5.67883 4.204 7.14283 5 8.99983C5.796 10.8568 7.296 12.9528 9.172 14.8278C11.047 16.7038 13.143 18.2038 15 18.9998C16.857 19.7958 18.32 19.8208 19.071 19.0708C19.821 18.3208 19.796 16.8558 19 14.9998C18.204 13.1428 16.704 11.0468 14.828 9.17183C13.9239 8.26362 12.9473 7.43054 11.908 6.68083C10.907 5.96483 9.918 5.39383 9 4.99983C8.08 4.60583 7.248 4.39683 6.55 4.38483C5.851 4.37283 5.3 4.55683 4.929 4.92883Z" stroke="white" stroke-width="2" stroke-linecap="round" stroke-linejoin="round"/>
</svg>
