<svg
  width="24"
  height="24"
  viewBox="0 0 24 24"
  xmlns="http://www.w3.org/2000/svg"
  fill="none"
  stroke="currentColor"
  stroke-width="2"
  stroke-linecap="round"
  stroke-linejoin="round"
>
  <path d="M12 12v.01" />
  <path d="M19.071 4.93c-.75-.75-2.215-.726-4.071.07-1.857.796-3.953 2.296-5.828 4.172C7.296 11.047 5.796 13.144 5 15c-.796 1.857-.821 3.321-.071 4.071.75.75 2.214.725 4.071-.07 1.857-.797 3.953-2.297 5.828-4.173a23.61 23.61 0 0 0 2.491-2.92c.716-1 1.287-1.989 1.681-2.908.394-.92.603-1.752.615-2.45.012-.699-.172-1.25-.544-1.62" />
  <path d="M4.929 4.929c-.75.75-.725 2.214.071 4.07.796 1.858 2.296 3.954 4.172 5.829C11.047 16.704 13.143 18.204 15 19c1.857.796 3.32.82 4.071.07.75-.75.725-2.214-.071-4.07-.796-1.857-2.296-3.953-4.172-5.828a23.61 23.61 0 0 0-2.92-2.491C10.907 5.965 9.918 5.394 9 5c-.92-.394-1.752-.603-2.45-.615-.699-.012-1.25.172-1.621.544z" />
</svg>
