<svg
  width="24"
  height="24"
  viewBox="0 0 24 24"
  xmlns="http://www.w3.org/2000/svg"
>
  <path
    fill-rule="evenodd"
    clip-rule="evenodd"
    d="M18.424 2c.992-.017 1.945.243 2.64.937.687.687.953 1.636.935 2.64-.017.997-.311 2.114-.808 3.272-.435 1.016-1.034 2.081-1.762 3.151.726 1.066 1.325 2.131 1.762 3.151.502 1.17.79 2.283.808 3.273.018.992-.242 1.945-.936 2.64-.694.693-1.647.953-2.64.935-.989-.017-2.102-.306-3.272-.808-1.02-.437-2.085-1.036-3.151-1.762-1.066.726-2.131 1.325-3.151 1.762-1.17.502-2.283.79-3.273.808-.992.018-1.946-.242-2.64-.936-.693-.694-.953-1.647-.935-2.64.017-.989.306-2.102.808-3.272.437-1.02 1.036-2.085 1.762-3.151-.726-1.066-1.325-2.131-1.762-3.151-.502-1.17-.79-2.283-.808-3.273-.018-.992.242-1.946.936-2.64.687-.687 1.636-.953 2.64-.935.997.017 2.114.311 3.272.808C9.865 3.244 10.93 3.843 12 4.57c1.066-.726 2.131-1.325 3.151-1.762 1.17-.502 2.283-.79 3.273-.808zm-8.132 3.842a15.997 15.997 0 0 0-2.231-1.195C7.046 4.212 6.194 4.012 5.54 4c-.647-.012-1 .16-1.19.35-.193.192-.362.548-.35 1.19.01.647.207 1.496.646 2.52.305.712.708 1.463 1.195 2.231.646-.8 1.354-1.587 2.108-2.342a29.809 29.809 0 0 1 2.342-2.108zM7.042 12c.686-.89 1.468-1.78 2.323-2.635A27.477 27.477 0 0 1 12 7.04a27.5 27.5 0 0 1 2.635 2.324A27.487 27.487 0 0 1 16.96 12c-.695.9-1.478 1.79-2.324 2.635A27.483 27.483 0 0 1 12 16.96a27.473 27.473 0 0 1-2.635-2.324A27.484 27.484 0 0 1 7.04 12zm-1.2 1.708c-.487.768-.89 1.52-1.195 2.231-.439 1.024-.635 1.873-.646 2.52-.012.642.157.998.35 1.19.192.193.548.362 1.19.35.647-.01 1.496-.207 2.52-.646a15.99 15.99 0 0 0 2.231-1.195A29.82 29.82 0 0 1 7.95 16.05a29.81 29.81 0 0 1-2.108-2.342zm7.866 4.45c.768.487 1.52.89 2.231 1.195 1.024.439 1.873.635 2.52.646.642.012.998-.157 1.19-.35.193-.192.362-.548.35-1.19-.01-.647-.207-1.496-.646-2.52a15.987 15.987 0 0 0-1.195-2.231 29.83 29.83 0 0 1-2.108 2.342 29.817 29.817 0 0 1-2.342 2.108zm4.45-7.866A29.818 29.818 0 0 0 16.05 7.95a29.802 29.802 0 0 0-2.342-2.108 16 16 0 0 1 2.231-1.195c1.024-.439 1.873-.635 2.52-.647.642-.01.998.158 1.19.35.19.19.362.544.35 1.191-.01.653-.211 1.505-.646 2.52a15.997 15.997 0 0 1-1.195 2.231zM12 11a1 1 0 0 1 1 1v.012a1 1 0 1 1-2 0V12a1 1 0 0 1 1-1z"
  />
</svg>
