<svg width="24" height="24" viewBox="0 0 24 24" fill="none" xmlns="http://www.w3.org/2000/svg">
<path fill-rule="evenodd" clip-rule="evenodd" d="M10 3C7.79086 3 6 4.79086 6 7V14.5C6 18.0899 8.91015 21 12.5 21C16.0899 21 19 18.0899 19 14.5V5C19 4.44772 19.4477 4 20 4C20.5523 4 21 4.44772 21 5V14.5C21 19.1944 17.1944 23 12.5 23C7.80558 23 4 19.1944 4 14.5V7C4 3.68629 6.68629 1 10 1C13.3137 1 16 3.68629 16 7V13.5C16 15.433 14.433 17 12.5 17C10.567 17 9 15.433 9 13.5V9C9 8.44772 9.44772 8 10 8C10.5523 8 11 8.44772 11 9V13.5C11 14.3284 11.6716 15 12.5 15C13.3284 15 14 14.3284 14 13.5V7C14 4.79086 12.2091 3 10 3Z" fill="black"/>
</svg>
