<svg width="24" height="24" viewBox="0 0 24 24" fill="none" xmlns="http://www.w3.org/2000/svg">
<path d="M10 9V13.5C10 14.163 10.2634 14.7989 10.7322 15.2678C11.2011 15.7366 11.837 16 12.5 16C13.163 16 13.7989 15.7366 14.2678 15.2678C14.7366 14.7989 15 14.163 15 13.5V8C15 6.67392 14.4732 5.40215 13.5355 4.46447C12.5979 3.52678 11.3261 3 10 3C8.67392 3 7.40215 3.52678 6.46447 4.46447C5.52678 5.40215 5 6.67392 5 8V13.5C5 15.4891 5.79018 17.3968 7.1967 18.8033C8.60322 20.2098 10.5109 21 12.5 21C14.4891 21 16.3968 20.2098 17.8033 18.8033C19.2098 17.3968 20 15.4891 20 13.5V5" stroke="white" stroke-width="2" stroke-linecap="round" stroke-linejoin="round"/>
</svg>
