<svg width="24" height="24" viewBox="0 0 24 24" fill="none" xmlns="http://www.w3.org/2000/svg">
<path d="M19 8.99999C19.0007 10.1286 18.7283 11.2406 18.2058 12.2411C17.6834 13.2415 16.9266 14.1006 16 14.745C14.8271 15.564 13.4306 16.0022 12 16C10.5695 16.0022 9.1729 15.564 8 14.745C7.01224 14.0572 6.21851 13.1263 5.69547 12.0423C5.17243 10.9582 4.93775 9.75765 5.0141 8.55644C5.09044 7.35523 5.47522 6.194 6.13129 5.1849C6.78736 4.17579 7.69255 3.3529 8.75944 2.79569C9.82632 2.23849 11.0189 1.96579 12.2219 2.00395C13.4249 2.0421 14.5978 2.38981 15.6272 3.0135C16.6566 3.63719 17.5079 4.51578 18.0987 5.56443C18.6895 6.61308 18.9999 7.79636 19 8.99999V8.99999Z" stroke="white" stroke-width="2" stroke-linecap="round" stroke-linejoin="round"/>
<path d="M8 14.745V22L12 19L16 22V14.745" stroke="white" stroke-width="2" stroke-linecap="round" stroke-linejoin="round"/>
</svg>
