<svg
  width="24"
  height="24"
  viewBox="0 0 24 24"
  xmlns="http://www.w3.org/2000/svg"
>
  <path d="M15.133 2c-1.336.123-3.099.594-5.264 1.433-.65.47-1.329.899-2.033 1.282l.008.132c.053 0 .113-.036.2-.08.088-.009.14.026.14.114l.14-.079.07-.009.01.062c.008.06-.472.436-1.423 1.108l.077.122-.07.01-.147-.053c0 .043-.061.07-.2.079l.008.07.158.175a.56.56 0 0 1-.21-.044c-.306.026-.612.252-.909.671l.079.123c.261-.236.41-.358.453-.358l.018.191c-.043 0-.113.035-.2.079l.166.245a4.883 4.883 0 0 1 1.038-.864c.191.053.288.104.288.174l.14-.008c1.02-.76 2.033-1.302 3.037-1.642l.01.132c-.184.28-.315.417-.385.426a.527.527 0 0 0 .096.254c.018.175-.436 1.32-1.362 3.45-2.113 4.94-3.876 8.588-5.3 10.962 0 .044.035.114.079.192.35-.087.576-.164.672-.252l.08-.01.008.132.132-.009.138-.078c0 .043.052.06.14.051l.01.133c.008.13-.063.33-.228.602-.149.166-.296.505-.462 1.02l.008.062.132-.008c.567-.637 1.003-1.267 1.3-1.879 1.667-.488 2.933-.968 3.815-1.44.882-.078 1.563-.304 2.017-.688l-.01-.07-.332.096-.078.008-.009-.07c.647-.097 1.1-.244 1.345-.437 1.266-.977 2.217-1.666 2.863-2.076 2-1.467 2.942-2.881 2.829-4.225-.008-.14-.454-.69-1.318-1.65-.018-.184.287-.446.898-.795l1.738-1.529c.384-.497.62-1.3.699-2.408l-.026-.262c-.07-.777-.63-1.406-1.695-1.887-.628-.428-1.754-.654-3.378-.68zm2.104.864c1.292.053 1.956.28 1.991.681l-.052.132-1.939-.813zm-1.235 1.098c.886-.014 1.348.222 1.394.719l.13-.01-.026-.332.14-.008c.34.183.522.41.54.68.017.183-.078.412-.296.682-.087.009-.14-.053-.148-.184l-.14.01-.034.392c-.585.873-1.005 1.318-1.267 1.345-.236.322-.385.489-.446.497-.183.219-.68.594-1.5 1.117-.27.027-1.276.41-3.013 1.17a.496.496 0 0 0-.279-.043l-.01-.123c-.016-.253.09-.567.342-.952.132-.716.28-1.126.445-1.222l1.448-3.255c-.016-.2.29-.358.926-.463l.21-.018.017.184c.386-.06.774-.116 1.162-.166a6.02 6.02 0 0 1 .405-.02zm3.016.325h.023c.116.01.24.219.371.62l.009.122c-.071.008-.2-.202-.393-.62l-.01-.122zm-8.196 2.069h.06l.018.192c-.062.008-.148.096-.253.28l-.01-.13c.123-.149.184-.264.184-.342zm-4.155.106l.008.06c-.044 0-.113.035-.2.079l-.07.008-.01-.122.272-.025zm3.57 1.255l.026.262-.07.008-.026-.26.07-.01zm-.166.472c-.017.219-.07.331-.184.34l-.07.008c.079-.148.123-.252.115-.33l.14-.018h-.001zm-.288.68l.009.062-.123.208-.132.01-.008-.061c.13-.009.193-.078.183-.209l.071-.01zm-.298.613l-.033.321-.071.009-.025-.323.129-.008zm7.08.233l.288.177c.009.086-.035.139-.121.147-.123-.078-.219-.113-.289-.113l-.017-.192.14-.018v-.001zm-5.543.742l.01.123-.272.027-.008-.123.27-.027zm4.469.455c.191.087.289.175.298.244l.008.062c-.183.017-.35-.079-.506-.288l.2-.018zm2.166.21c.149.061.218.123.227.184l.043.514c-.06.14-.121.21-.191.21l-.079-.908zm-3.495.054c.7-.012 1.235.153 1.601.504l.025.263c-.313.908-.662 1.432-1.037 1.598l-1.747 1.388c-1.3.855-2 1.282-2.104 1.29-2.07 1.144-3.36 1.73-3.858 1.773l-.08.008c.07-.244.988-2.13 2.769-5.673.786-.07 2.025-.438 3.71-1.1l.41-.035c.106-.009.21-.014.31-.017zm-2.546.408l.008.062-.278.026-.01-.062.28-.026zM7.26 15.81c-.088.446-.184.674-.28.683l-.009-.063c-.017-.226.079-.427.289-.62zm5.917.28l.009.123c.008.052-.192.217-.585.506-1.161.567-1.841.96-2.043 1.16-1.257.436-1.877.708-1.868.812-1.117.446-1.85.77-2.199.97-.079.008-.2-.026-.358-.096-.017-.227.078-.412.304-.56.192-.017.386.01.56.088.21-.104.567-.228 1.083-.35l-.01-.13-.41.034c.052-.07.446-.253 1.196-.559l.21-.016.008.06c-.35.027-.55.14-.594.323.008.078.053.123.14.114.253-.175.384-.27.384-.296.507-.096 1.895-.83 4.173-2.183zm-6.32.603l.009.06c.008.087-.035.141-.123.15l-.008-.062c-.009-.08.035-.13.122-.148zm3.142.78c.074-.001.116.041.123.11-.166.017-.471.148-.934.41L9.12 18l-.008-.13c.323-.021.627-.16.855-.392l.033-.006zm-3.053 1.036l.008.069c-.053 0-.115.035-.203.079l-.13.008c-.008-.06.027-.113.115-.14l.21-.017v.001zm-1.599.794l.148.06c-.053.393-.165.595-.367.612a.896.896 0 0 0-.427-.087l-.018-.192c-.008-.08.036-.122.132-.148.087-.009.139.05.148.181.235-.287.367-.426.383-.426h.001z" />
</svg>
