<svg
  width="24"
  height="24"
  viewBox="0 0 24 24"
  xmlns="http://www.w3.org/2000/svg"
>
  <path d="M5.593 12.542c2.175-.469 1.875-3.07 1.814-3.639C7.3 8.028 6.268 6.497 4.87 6.62c-1.758.155-2.015 2.7-2.015 2.7-.24 1.175.568 3.688 2.738 3.22v.002zm4.038-4.368c1.2 0 2.17-1.383 2.17-3.091 0-1.7-.967-3.084-2.167-3.084-1.2 0-2.176 1.376-2.176 3.084 0 1.709.975 3.092 2.175 3.092h-.002zm5.175.205c1.608.217 2.635-1.5 2.843-2.8.209-1.291-.833-2.8-1.967-3.058-1.141-.263-2.55 1.562-2.691 2.75-.15 1.458.208 2.908 1.808 3.114l.007-.006zm6.36 2.191c0-.622-.51-2.494-2.424-2.494-1.913 0-2.175 1.767-2.175 3.017 0 1.191.098 2.85 2.487 2.8 2.38-.059 2.12-2.7 2.12-3.325l-.007.002zm-2.416 5.447s-2.488-1.925-3.938-4c-1.967-3.064-4.763-1.817-5.695-.264-.934 1.57-2.384 2.552-2.588 2.815-.208.258-3 1.766-2.378 4.516.625 2.75 2.8 2.7 2.8 2.7s1.6.159 3.467-.258c1.866-.417 3.466.1 3.466.1s4.34 1.458 5.54-1.342c1.187-2.808-.675-4.258-.675-4.258" />
</svg>
