<svg
  width="24"
  height="24"
  viewBox="0 0 24 24"
  xmlns="http://www.w3.org/2000/svg"
>
  <path
    fill-rule="evenodd"
    clip-rule="evenodd"
    d="M16.02 4.01a3.97 3.97 0 0 0-2.807 1.163l-8.04 8.04a3.97 3.97 0 0 0 5.614 5.614l8.04-8.04A3.97 3.97 0 0 0 16.02 4.01zm-4.228-.259a5.98 5.98 0 0 1 8.457 8.457l-8.04 8.04a5.98 5.98 0 0 1-8.458-8.456l8.04-8.04zM12 8.985c.555 0 1.005.45 1.005 1.005V10a1.005 1.005 0 0 1-2.01 0v-.01c0-.555.45-1.005 1.005-1.005zm-2.01 2.01c.555 0 1.005.45 1.005 1.005v.01a1.005 1.005 0 1 1-2.01 0V12c0-.555.45-1.005 1.005-1.005zm4.02 0c.555 0 1.005.45 1.005 1.005v.01a1.005 1.005 0 0 1-2.01 0V12c0-.555.45-1.005 1.005-1.005zM12 13.005c.555 0 1.005.45 1.005 1.005v.01a1.005 1.005 0 0 1-2.01 0v-.01c0-.555.45-1.005 1.005-1.005z"
  />
</svg>
