<svg
  width="24"
  height="24"
  viewBox="0 0 24 24"
  xmlns="http://www.w3.org/2000/svg"
  fill="none"
  stroke="currentColor"
  stroke-width="2"
  stroke-linecap="round"
  stroke-linejoin="round"
>
  <path d="M12 14l-5 7h10l-5-7z" />
  <path d="M15.742 7c.479.715.758 1.575.758 2.5s-.28 1.785-.758 2.5" />
  <path d="M8.258 7A4.48 4.48 0 0 0 7.5 9.5c0 .925.28 1.785.758 2.5" />
  <path d="M19.069 4A9.336 9.336 0 0 1 20.5 9c0 1.85-.527 3.57-1.431 5" />
  <path d="M4.931 4A9.336 9.336 0 0 0 3.5 9c0 1.85.527 3.57 1.431 5" />
</svg>
