<svg
  width="24"
  height="24"
  viewBox="0 0 24 24"
  xmlns="http://www.w3.org/2000/svg"
>
  <path d="M10.714 2c-.43.017-.716.262-.877.436-.673.725-.947 1.915-.974 3.293-.253-.435-.6-.884-.999-.998a.753.753 0 0 0-.143-.025c-.798-.115-1.473 1.16-1.383 3.176-1.5.054-2.775.224-3.636.438-.152.037-.26.083-.35.128-.063.03-.107.059-.15.087-.135.088-.195.166-.195.166.391-.148 1.965-.413 4.361-.323l-.003-.037h.005c.105 1.075.418 2.324 1.03 3.674v.002l-.02-.036c-.38.6-1.494 2.435-1.848 3.816-.231.901-.169 1.477.011 1.849.219.491.637.646.9.706.978.224 2.167-.146 3.39-.831-.263.447-.502 1.003-.396 1.424a.738.738 0 0 0 .048.135c.303.747 1.742.693 3.443-.392.79 1.259 1.568 2.267 2.18 2.9.108.113.202.186.287.241.23.162.39.17.39.17-.323-.262-1.332-1.482-2.446-3.585l-.029.023-.003-.005c.886-.633 1.821-1.539 2.691-2.758h.003l-.024.032-.001.003c.746.028 2.841.067 4.191-.31.892-.25 1.359-.59 1.592-.93.32-.436.244-.878.164-1.137-.295-.959-1.206-1.8-2.41-2.519.519.004 1.119-.067 1.429-.367a.739.739 0 0 0 .096-.116c.49-.637-.279-1.856-2.066-2.783.695-1.314 1.181-2.491 1.425-3.337.042-.15.056-.266.061-.367.027-.282-.045-.424-.045-.424-.066.41-.619 1.893-1.883 3.908l.034.017-.002.003c-.991-.45-2.244-.807-3.735-.95l-.001-.003.041.003c-.348-.66-1.36-2.493-2.361-3.473-.66-.646-1.188-.882-1.6-.914a1.277 1.277 0 0 0-.192-.01zm.977 2.202c.384.007.78.304 1.106.615.41.392.926 1.145 1.177 1.525-.069-.002-.134-.011-.205-.013-1.552-.04-2.68.305-3.496.817.05-1.286.35-2.334 1.032-2.812a.706.706 0 0 1 .386-.132zM8.26 5.925c.026 0 .05.006.076.01.213.058.392.282.535.535.019.469.062.953.125 1.444a28.924 28.924 0 0 0-1.657-.05c.034-1.147.357-1.925.922-1.94zm4.566 1.008c.203-.006.411-.002.626.011 1.744.104 3.371.598 4.542 1.203-.275.405-.58.827-.908 1.261-.501-.908-1.223-1.45-1.557-1.591-.29-.125-.352-.117-.352-.117s.028-.008.475.344c.483.38.872.922 1.147 1.504a28.1 28.1 0 0 0-4.504-1.24 25.313 25.313 0 0 0-1.54-.236c0 .009-.001.027-.003.037l-.02-.003a5.991 5.991 0 0 0-.061.76c.13.025.263.048.396.075 1.895.375 4.353 1.15 6.135 2.163.029.92-.27 2.014-.991 3.105-.962 1.458-2.204 2.622-3.314 3.333a29.887 29.887 0 0 1-.639-1.42c1.055.03 1.902-.33 2.195-.55.25-.187.275-.245.275-.248 0 .003-.025.037-.533.24-.58.23-1.258.296-1.911.237a28.118 28.118 0 0 0 3.323-3.276c.34-.399.665-.806.974-1.217l-.03-.02.014-.017a5.99 5.99 0 0 0-.628-.431l-.263.305c-1.268 1.45-3.162 3.182-4.925 4.222-.803-.438-1.594-1.242-2.175-2.4-.78-1.562-1.167-3.22-1.228-4.535.477.035.986.088 1.513.154-.537.888-.646 1.786-.602 2.146.038.31.075.359.077.36-.002-.001-.018-.038.06-.58.088-.607.36-1.217.728-1.745.266 1.536.66 3.047 1.178 4.518.175.494.364.977.565 1.45l.032-.013.01.02a7.247 7.247 0 0 0 .688-.33c-.046-.125-.091-.252-.134-.38-.624-1.829-1.179-4.344-1.194-6.393.654-.405 1.528-.673 2.559-.705zm5.66 1.49c.977.604 1.49 1.272 1.221 1.768-.151.22-.504.269-.854.255-.41-.21-.828-.405-1.253-.583.319-.485.615-.968.887-1.44zm-.86 2.932c1.089.686 1.846 1.466 1.919 2.297a.708.708 0 0 1-.08.405.828.828 0 0 1-.092.128c-.227.252-.619.408-.991.517-.545.159-1.456.231-1.91.259.037-.059.075-.11.112-.17.81-1.325 1.078-2.474 1.042-3.436zM7.775 12.78c.038.073.07.144.11.217.737 1.355 1.59 2.159 2.435 2.611-1.145.606-2.206.876-2.965.523a.71.71 0 0 1-.377-.417c-.103-.323-.044-.74.048-1.117.138-.566.552-1.425.75-1.817zm3.833 3.56c.261.521.531 1.02.804 1.491-1.01.544-1.844.655-2.139.173-.014-.023-.021-.05-.03-.073-.063-.234.066-.528.235-.796.378-.242.756-.51 1.13-.794z" />
</svg>
