<svg width="24" height="24" viewBox="0 0 24 24" fill="none" xmlns="http://www.w3.org/2000/svg">
<g clip-path="url(#clip0)">
<path fill-rule="evenodd" clip-rule="evenodd" d="M0.292893 0.292893C0.683417 -0.0976311 1.31658 -0.0976311 1.70711 0.292893L23.7071 22.2929C24.0976 22.6834 24.0976 23.3166 23.7071 23.7071C23.3166 24.0976 22.6834 24.0976 22.2929 23.7071L17.5858 19H2C1.44772 19 1 18.5523 1 18V6C1 5.44772 1.44772 5 2 5H3.58579L0.292893 1.70711C-0.0976311 1.31658 -0.0976311 0.683417 0.292893 0.292893ZM5.58579 7H3V17H15.5858L5.58579 7ZM11 5H19C19.5523 5 20 5.44772 20 6V14C20 14.5523 19.5523 15 19 15C18.4477 15 18 14.5523 18 14V7H11C10.4477 7 10 6.55228 10 6C10 5.44772 10.4477 5 11 5ZM22 9C22.5523 9 23 9.44771 23 10V14C23 14.5523 22.5523 15 22 15C21.4477 15 21 14.5523 21 14V10C21 9.44771 21.4477 9 22 9Z" fill="black"/>
</g>
<defs>
<clipPath id="clip0">
<rect width="24" height="24" fill="white"/>
</clipPath>
</defs>
</svg>
