<svg
  width="24"
  height="24"
  viewBox="0 0 24 24"
  xmlns="http://www.w3.org/2000/svg"
>
  <path
    fill-rule="evenodd"
    clip-rule="evenodd"
    d="M11.555 5.168a1 1 0 0 1 .277 1.387L8.87 11H13a1 1 0 0 1 .832 1.555l-4 6a1 1 0 0 1-1.664-1.11L11.132 13H7a1 1 0 0 1-.832-1.555l4-6a1 1 0 0 1 1.387-.277zM1 6a1 1 0 0 1 1-1h5a1 1 0 0 1 0 2H3v10h2a1 1 0 1 1 0 2H2a1 1 0 0 1-1-1V6zm13 0a1 1 0 0 1 1-1h4a1 1 0 0 1 1 1v12a1 1 0 0 1-1 1h-6a1 1 0 1 1 0-2h5V7h-3a1 1 0 0 1-1-1zm8 3a1 1 0 0 1 1 1v4a1 1 0 1 1-2 0v-4a1 1 0 0 1 1-1z"
  />
</svg>
