<svg width="24" height="24" viewBox="0 0 24 24" fill="none" xmlns="http://www.w3.org/2000/svg">
<path d="M12 20.9999C13.3518 21.0002 14.6816 20.6581 15.8654 20.0053C17.0491 19.3525 18.0481 18.4104 18.7691 17.2669C19.4902 16.1235 19.9097 14.816 19.9885 13.4665C20.0674 12.117 19.803 10.7695 19.22 9.54988C19.7115 9.27251 20.1286 8.88041 20.4358 8.407C20.743 7.9336 20.9312 7.39293 20.9843 6.83108C21.0374 6.26924 20.9538 5.70289 20.7407 5.18032C20.5277 4.65774 20.1914 4.19444 19.7606 3.82991C19.3298 3.46538 18.8172 3.21043 18.2665 3.0868C17.7159 2.96317 17.1435 2.97452 16.5982 3.11989C16.0529 3.26526 15.5509 3.54033 15.1349 3.92166C14.7188 4.30299 14.4012 4.77926 14.209 5.30988C13.4907 5.10396 12.7472 4.99961 12 4.99988C11.234 4.99988 10.493 5.10788 9.792 5.30888C9.60001 4.77788 9.28244 4.30119 8.86636 3.91948C8.45029 3.53777 7.94807 3.26235 7.40252 3.11673C6.85698 2.9711 6.28432 2.95959 5.73336 3.08317C5.18241 3.20675 4.66952 3.46175 4.23844 3.82643C3.80736 4.19111 3.47088 4.65465 3.2577 5.1775C3.04452 5.70036 2.96097 6.26701 3.01417 6.82914C3.06737 7.39128 3.25574 7.9322 3.56322 8.40578C3.8707 8.87936 4.28816 9.27154 4.78 9.54888C4.19681 10.7686 3.93223 12.1161 4.01096 13.4658C4.08969 14.8154 4.50917 16.1231 5.23021 17.2667C5.95126 18.4103 6.95037 19.3525 8.13422 20.0053C9.31808 20.6581 10.6481 21.0003 12 20.9999V20.9999Z" stroke="white" stroke-width="2" stroke-linecap="round" stroke-linejoin="round"/>
<path d="M15 13C15 13.7956 14.6839 14.5587 14.1213 15.1213C13.5587 15.6839 12.7956 16 12 16C11.2044 16 10.4413 15.6839 9.87868 15.1213C9.31607 14.5587 9 13.7956 9 13" stroke="white" stroke-width="2" stroke-linecap="round" stroke-linejoin="round"/>
</svg>
