<svg width="24" height="24" viewBox="0 0 24 24" fill="none" xmlns="http://www.w3.org/2000/svg">
<path d="M12 21C16.4183 21 20 17.4183 20 13C20 11.7643 19.7198 10.594 19.2195 9.54919C20.2825 8.94848 21 7.80803 21 6.5C21 4.567 19.433 3 17.5 3C15.9853 3 14.6954 3.96214 14.208 5.30859C13.5067 5.10763 12.7659 5 12 5C11.2341 5 10.4933 5.10763 9.79199 5.30859C9.3046 3.96214 8.01466 3 6.5 3C4.567 3 3 4.567 3 6.5C3 7.80803 3.71754 8.94848 4.78047 9.54919C4.28018 10.594 4 11.7643 4 13C4 17.4183 7.58172 21 12 21Z" stroke="#1E293B" stroke-width="2" stroke-linecap="round" stroke-linejoin="round"/>
<path d="M15 13C15 14.6569 13.6569 16 12 16C10.3431 16 9 14.6569 9 13" stroke="#1E293B" stroke-width="2" stroke-linecap="round" stroke-linejoin="round"/>
</svg>
