<svg
  width="24"
  height="24"
  viewBox="0 0 24 24"
  xmlns="http://www.w3.org/2000/svg"
>
  <path
    fill-rule="evenodd"
    clip-rule="evenodd"
    d="M11.5 8.5c0 .896-.337 1.714-.891 2.334A4.5 4.5 0 0 1 8 19H3.5A1.5 1.5 0 0 1 2 17.5v-12A1.5 1.5 0 0 1 3.5 4h4a4 4 0 0 1 4 4v.5zM4 10V6h3.5a2 2 0 0 1 2 2v.5A1.5 1.5 0 0 1 8 10H4zm0 2h4a2.5 2.5 0 0 1 0 5H4v-5z"
  />
  <path d="M15 6a1 1 0 0 1 1-1h3.5a1 1 0 1 1 0 2H16a1 1 0 0 1-1-1z" />
  <path
    fill-rule="evenodd"
    clip-rule="evenodd"
    d="M12.5 13c0-2.818 2.409-5 5.25-5S23 10.182 23 13a1 1 0 0 1-1 1h-7.5c0 1.6 1.397 3 3.25 3 1.109 0 1.834-.314 2.265-.59.212-.13.401-.293.56-.485a1 1 0 0 1 1.645 1.137c-.334.398-.681.744-1.123 1.028-.735.474-1.832.91-3.347.91-2.841 0-5.25-2.181-5.25-5v-1zm5.25-3c1.451 0 2.623.86 3.063 2h-6.126c.44-1.14 1.612-2 3.063-2z"
  />
</svg>
