<svg
  width="24"
  height="24"
  viewBox="0 0 24 24"
  xmlns="http://www.w3.org/2000/svg"
>
  <path d="M7.782 5.752c.585 0 1.116.05 1.6.157a3.6 3.6 0 0 1 1.237.508c.342.234.611.542.8.934.188.391.284.875.284 1.441 0 .617-.142 1.134-.423 1.55-.282.417-.697.75-1.252 1.017.755.217 1.314.6 1.685 1.142.374.55.555 1.208.555 1.966 0 .625-.109 1.159-.342 1.609a3.084 3.084 0 0 1-.967 1.125c-.4.29-.875.5-1.391.639a6.096 6.096 0 0 1-1.592.212H2V5.758h5.782v-.006zm8.335 10.135c.366.357.894.536 1.578.536.492 0 .917-.123 1.275-.372.353-.242.567-.509.65-.784h2.157c-.336 1.067-.874 1.834-1.584 2.292-.708.467-1.57.692-2.566.692-.698 0-1.32-.109-1.894-.334a4.122 4.122 0 0 1-1.433-.95 4.25 4.25 0 0 1-.898-1.475 5.468 5.468 0 0 1-.31-1.891c0-.67.112-1.284.335-1.859a4.54 4.54 0 0 1 .934-1.491 4.532 4.532 0 0 1 1.446-.995c.561-.25 1.167-.361 1.85-.361.759 0 1.409.137 1.984.436a4 4 0 0 1 1.383 1.166c.367.489.625 1.05.784 1.684.158.625.208 1.283.175 1.983h-6.409c0 .7.233 1.36.592 1.72l-.067.026.018-.023zm-8.534.042c.264 0 .517-.025.755-.077.242-.05.457-.138.636-.25.175-.113.325-.274.434-.486.108-.2.158-.475.158-.8 0-.625-.184-1.075-.534-1.35-.358-.267-.825-.4-1.408-.4H4.7v3.375h2.883v-.025.013zm11.34-4.708c-.294-.321-.784-.494-1.381-.494-.39 0-.713.062-.972.199a1.796 1.796 0 0 0-.617.491c-.158.2-.264.4-.326.625-.063.217-.1.417-.113.592h3.969c-.059-.625-.276-1.083-.567-1.408v.008l.006-.013zm-11.49-.513c.479 0 .875-.111 1.188-.343.311-.225.461-.6.461-1.115 0-.287-.058-.52-.15-.705a1.218 1.218 0 0 0-.416-.427 1.764 1.764 0 0 0-.6-.214 3.688 3.688 0 0 0-.7-.062H4.692v2.867h2.741zm7.582-4.131h4.973v1.211h-4.973V6.567v.01z" />
</svg>
