<svg width="24" height="24" viewBox="0 0 24 24" fill="none" xmlns="http://www.w3.org/2000/svg">
<g clip-path="url(#clip0)">
<path fill-rule="evenodd" clip-rule="evenodd" d="M0.292893 0.292893C0.683417 -0.0976311 1.31658 -0.0976311 1.70711 0.292893L23.7071 22.2929C24.0976 22.6834 24.0976 23.3166 23.7071 23.7071C23.3166 24.0976 22.6834 24.0976 22.2929 23.7071L17.5858 19H3C2.44772 19 2 18.5523 2 18C2 17.4477 2.44772 17 3 17H4V10C4 8.67156 4.32451 7.41688 4.8987 6.31292L0.292893 1.70711C-0.0976311 1.31658 -0.0976311 0.683417 0.292893 0.292893ZM6.40739 7.82161C6.14435 8.49636 6 9.23072 6 10V17H15.5858L6.40739 7.82161ZM12 4C11.0037 4 10.0669 4.24204 9.2423 4.66966C8.75202 4.92391 8.14845 4.73258 7.8942 4.2423C7.63995 3.75202 7.83129 3.14846 8.32157 2.8942C9.42392 2.32254 10.6758 2 12 2C16.4183 2 20 5.58172 20 10V14C20 14.5523 19.5523 15 19 15C18.4477 15 18 14.5523 18 14V10C18 6.68629 15.3137 4 12 4ZM9 22C9 21.4477 9.44771 21 10 21H14C14.5523 21 15 21.4477 15 22C15 22.5523 14.5523 23 14 23H10C9.44771 23 9 22.5523 9 22Z" fill="black"/>
</g>
<defs>
<clipPath id="clip0">
<rect width="24" height="24" fill="white"/>
</clipPath>
</defs>
</svg>
