<svg
  width="24"
  height="24"
  viewBox="0 0 24 24"
  xmlns="http://www.w3.org/2000/svg"
>
  <g clip-path="url(#a)">
    <path
      fill-rule="evenodd"
      clip-rule="evenodd"
      d="M.293.293a1 1 0 0 1 1.414 0l22 22a1 1 0 0 1-1.414 1.414L17.586 19H3a1 1 0 1 1 0-2h1v-7a7.97 7.97 0 0 1 .899-3.687L.293 1.707a1 1 0 0 1 0-1.414zm6.114 7.529A5.983 5.983 0 0 0 6 10v7h9.586L6.407 7.822zM12 4a5.97 5.97 0 0 0-2.758.67 1 1 0 1 1-.92-1.776A8 8 0 0 1 20 10v4a1 1 0 1 1-2 0v-4a6 6 0 0 0-6-6zM9 22a1 1 0 0 1 1-1h4a1 1 0 1 1 0 2h-4a1 1 0 0 1-1-1z"
    />
  </g>
  <defs>
    <clipPath id="a">
      <rect width="24" height="24" />
    </clipPath>
  </defs>
</svg>
