<svg
  width="24"
  height="24"
  viewBox="0 0 24 24"
  xmlns="http://www.w3.org/2000/svg"
>
  <path
    fill-rule="evenodd"
    clip-rule="evenodd"
    d="M15 5a2 2 0 1 1 4 0 2 2 0 0 1-4 0zm-.847 2.012a1 1 0 0 1 .68.433L16.534 10H19a1 1 0 1 1 0 2h-3a1 1 0 0 1-.832-.445l-1.395-2.093-3.276 2.62 2.21 2.21A1 1 0 0 1 13 15v4a1 1 0 1 1-2 0v-3.586l-2.707-2.707a1 1 0 0 1 .082-1.488l5-4a1 1 0 0 1 .778-.207zM5 16a2 2 0 1 0 0 4 2 2 0 0 0 0-4zm-4 2a4 4 0 1 1 8 0 4 4 0 0 1-8 0zm18-2a2 2 0 1 0 0 4 2 2 0 0 0 0-4zm-4 2a4 4 0 1 1 8 0 4 4 0 0 1-8 0z"
  />
</svg>
