<svg
  width="24"
  height="24"
  viewBox="0 0 24 24"
  xmlns="http://www.w3.org/2000/svg"
>
  <path
    fill-rule="evenodd"
    clip-rule="evenodd"
    d="M15.524 2l.712.702c.71.7 1.231 1.564 1.516 2.516a5.873 5.873 0 0 1-.382 4.334 6.056 6.056 0 0 1 2.091.509 5.986 5.986 0 0 1 2.503 2.074A5.891 5.891 0 0 1 23 15.25v1.226h-2v-1.201a3.892 3.892 0 0 0-.683-2.006 3.986 3.986 0 0 0-1.667-1.38 4.063 4.063 0 0 0-3.593.149 3.08 3.08 0 0 1-2.054 3.505 3.877 3.877 0 0 0 .951 2.483c.375.434.841.784 1.368 1.024.527.24 1.1.364 1.682.364h1v2h-1a6.058 6.058 0 0 1-2.51-.544 5.995 5.995 0 0 1-2.49-2.108c-.196.293-.42.57-.668.827a6.032 6.032 0 0 1-4.106 1.825H6v-2h1.205a4.03 4.03 0 0 0 2.693-1.216 3.901 3.901 0 0 0 1.103-2.658 3.08 3.08 0 0 1-2.045-3.494 4.06 4.06 0 0 0-3.684-.116 3.98 3.98 0 0 0-1.66 1.455A3.887 3.887 0 0 0 3 15.479v1H1v-1c0-1.124.323-2.223.929-3.171A5.98 5.98 0 0 1 4.42 10.12a6.055 6.055 0 0 1 2.207-.565 5.872 5.872 0 0 1-.445-4.123 5.915 5.915 0 0 1 1.386-2.535L8.436 2l1.439 1.39-.858.888a3.915 3.915 0 0 0-.898 1.655 3.872 3.872 0 0 0-.014 1.885c.15.62.453 1.196.881 1.678.284.319.619.59.99.804a3.115 3.115 0 0 1 2.032-.751c.77 0 1.48.28 2.025.745.38-.22.72-.502 1.009-.834a3.91 3.91 0 0 0 .87-1.736 3.87 3.87 0 0 0-.075-1.932 3.923 3.923 0 0 0-1.005-1.666l-.712-.702L15.524 2zm-2.827 9.784a1.115 1.115 0 0 0-.69-.235c-.27 0-.515.094-.705.248l-.241.302-.151.401a1.089 1.089 0 0 0 .96 1.196h.196l.063.003a1.09 1.09 0 0 0 .984-1.12l-.196-.52-.22-.275z"
  />
</svg>
