<svg
  width="24"
  height="24"
  viewBox="0 0 24 24"
  xmlns="http://www.w3.org/2000/svg"
>
  <path
    fill-rule="evenodd"
    clip-rule="evenodd"
    d="M8.072 2.804a1 1 0 0 1 .366 1.366 4 4 0 0 0 1.464 5.464l.149.086A2.988 2.988 0 0 1 12 9c.744 0 1.425.271 1.95.72l.148-.086a4 4 0 0 0 1.464-5.464 1 1 0 1 1 1.732-1 5.994 5.994 0 0 1 .177 5.671 5.995 5.995 0 0 1 4.823 2.99 1 1 0 1 1-1.732 1 4 4 0 0 0-5.464-1.465l-.148.085A3.001 3.001 0 0 1 13 14.83V15a4 4 0 0 0 4 4 1 1 0 1 1 0 2 5.994 5.994 0 0 1-5-2.682A5.994 5.994 0 0 1 7 21a1 1 0 1 1 0-2 4 4 0 0 0 4-4v-.17a3.001 3.001 0 0 1-1.95-3.379l-.148-.085a4 4 0 0 0-5.464 1.464 1 1 0 1 1-1.732-1 5.994 5.994 0 0 1 4.823-2.989 5.994 5.994 0 0 1 .177-5.671 1 1 0 0 1 1.366-.366zm3.055 8.708a1 1 0 1 0 1.746.001l-.007-.013-.007-.012a1 1 0 0 0-1.719.001l-.006.011-.007.012z"
  />
</svg>
