<svg
  width="24"
  height="24"
  viewBox="0 0 24 24"
  xmlns="http://www.w3.org/2000/svg"
>
  <path d="M21.699 14.42c-1.335 5.358-6.761 8.617-12.119 7.28C4.225 20.375.964 14.938 2.302 9.587 3.635 4.225 9.062.964 14.417 2.298a10 10 0 0 1 7.282 12.124v-.002zm-5.292-3.844c.2-1.325-.812-2.042-2.2-2.525l.45-1.794-1.096-.275-.437 1.755c-.288-.072-.588-.139-.887-.208l.438-1.772-1.1-.275-.45 1.804c-.237-.056-.47-.11-.7-.167l-1.512-.375-.292 1.173s.813.187.796.196c.446.114.525.405.512.639L8.7 13.685c-.063.138-.2.338-.512.262.012.016-.8-.2-.8-.2l-.55 1.258 1.425.355.775.202-.45 1.825 1.1.272.45-1.808c.3.083.588.158.875.227l-.425 1.795 1.1.275.454-1.825c1.867.356 3.275.215 3.867-1.478.475-1.364-.025-2.15-1.014-2.663.711-.161 1.25-.634 1.4-1.609h.008l.005.003zm-2.508 3.516c-.337 1.367-2.631.625-3.375.442l.6-2.417c.746.192 3.13.559 2.775 1.975zm.341-3.533c-.308 1.242-2.218.613-2.837.459l.545-2.2c.62.15 2.614.436 2.291 1.736v.005h.001z" />
</svg>
