<svg
  width="24"
  height="24"
  viewBox="0 0 24 24"
  xmlns="http://www.w3.org/2000/svg"
>
  <g clip-path="url(#a)">
    <path
      fill-rule="evenodd"
      clip-rule="evenodd"
      d="M.293.293a1 1 0 0 1 1.414 0l22 22a1 1 0 0 1-1.414 1.414l-6.624-6.624-3.356 5.442A1 1 0 0 1 10.46 22v-6.778H5a1 1 0 0 1-.884-1.467l2.844-5.38L.293 1.707a1 1 0 0 1 0-1.414zM8.44 9.854l-1.78 3.368h4.801c.165 0 .32.04.457.11L8.44 9.854zm3.912 3.912c.07.137.11.292.11.456v4.252l1.754-2.844-1.864-1.864zm-.65-12.737a1 1 0 0 1 .76.971v4.462a1 1 0 1 1-2 0v-.703A1 1 0 0 1 9.034 4.45l1.543-2.918a1 1 0 0 1 1.124-.504zm2.076 8.749a1 1 0 0 1 1-1H19a1 1 0 0 1 .851 1.525l-1.61 2.611a1 1 0 1 1-1.703-1.05l.67-1.086h-2.43a1 1 0 0 1-1-1z"
    />
  </g>
  <defs>
    <clipPath id="a">
      <rect width="24" height="24" />
    </clipPath>
  </defs>
</svg>
