<svg width="24" height="24" viewBox="0 0 24 24" fill="none" xmlns="http://www.w3.org/2000/svg">
<path d="M15 3C15.7957 3 16.5587 3.31607 17.1213 3.87868C17.6839 4.44129 18 5.20435 18 6C18.4934 5.99989 18.9791 6.12146 19.4142 6.35392C19.8494 6.58638 20.2205 6.92256 20.4947 7.33269C20.7688 7.74282 20.9377 8.21424 20.9861 8.70519C21.0346 9.19614 20.9613 9.69147 20.7726 10.1473C20.5839 10.6031 20.2858 11.0054 19.9045 11.3185C19.5232 11.6316 19.0706 11.8458 18.5868 11.9422C18.103 12.0386 17.6028 12.0142 17.1307 11.8711C16.6585 11.728 16.229 11.4707 15.88 11.122L11.122 15.88C11.4654 16.2237 11.7202 16.6456 11.8645 17.1095C12.0087 17.5734 12.0382 18.0654 11.9503 18.5433C11.8624 19.0211 11.6598 19.4704 11.3598 19.8526C11.0599 20.2347 10.6716 20.5384 10.2284 20.7373C9.78517 20.9363 9.30026 21.0246 8.81535 20.9948C8.33044 20.9649 7.86004 20.8177 7.44459 20.5658C7.02915 20.314 6.68108 19.965 6.43032 19.5489C6.17956 19.1328 6.03361 18.662 6.00501 18.177L6.00001 18L5.82401 17.995C5.33885 17.9666 4.86785 17.8207 4.45155 17.5699C4.03525 17.3192 3.6861 16.971 3.43415 16.5554C3.18219 16.1398 3.03498 15.6693 3.00516 15.1842C2.97535 14.6991 3.06383 14.214 3.263 13.7707C3.46216 13.3274 3.76605 12.9391 4.14851 12.6392C4.53097 12.3394 4.98056 12.1369 5.45859 12.0493C5.93662 11.9617 6.42879 11.9915 6.89274 12.1362C7.3567 12.2809 7.77855 12.5362 8.12201 12.88L12.88 8.122C12.4603 7.70256 12.1744 7.16807 12.0585 6.58613C11.9425 6.0042 12.0018 5.40095 12.2287 4.85269C12.4556 4.30443 12.8401 3.83577 13.3333 3.50599C13.8266 3.17621 14.4066 3.00013 15 3V3Z" stroke="#1E293B" stroke-width="2" stroke-linecap="round" stroke-linejoin="round"/>
</svg>
