<svg
  width="24"
  height="24"
  viewBox="0 0 24 24"
  xmlns="http://www.w3.org/2000/svg"
>
  <path d="M18.667 2H5.333A3.342 3.342 0 0 0 2 5.333v13.334C2 20.5 3.5 22 5.333 22h13.334C20.5 22 22 20.5 22 18.667V5.333C22 3.5 20.5 2 18.667 2zm-1.823 14.046a2.6 2.6 0 0 1-.769 1.028c-.35.284-.793.517-1.34.683-.544.17-1.192.255-1.943.255h-5.36V6.345H13.1c1.048 0 1.888.236 2.517.717.633.483.948 1.203.948 2.175 0 .587-.143 1.091-.432 1.508-.286.414-.7.738-1.233.963v.039c.712.15 1.263.487 1.625 1.012.363.525.548 1.188.548 1.99 0 .448-.086.874-.25 1.273l.021.022v.002zm-2.313-2.875c-.342-.313-.822-.465-1.442-.465H9.488v3.64h3.611c.617 0 1.1-.16 1.442-.483.341-.321.516-.779.516-1.367-.005-.575-.175-1.02-.516-1.325h-.014.004zm-.5-2.353c.33-.28.492-.68.492-1.203 0-.587-.146-1.003-.442-1.242-.293-.237-.717-.36-1.274-.36H9.474v3.219h3.333c.486 0 .9-.142 1.22-.414h.004z" />
</svg>
