<svg width="24" height="24" viewBox="0 0 24 24" fill="none" xmlns="http://www.w3.org/2000/svg">
<path fill-rule="evenodd" clip-rule="evenodd" d="M4 4C4 3.44772 4.44772 3 5 3H8C8.55228 3 9 3.44772 9 4C9 4.55228 8.55228 5 8 5H6V19H8C8.55228 19 9 19.4477 9 20C9 20.5523 8.55228 21 8 21H5C4.44772 21 4 20.5523 4 20V4ZM15 4C15 3.44772 15.4477 3 16 3H19C19.5523 3 20 3.44772 20 4V20C20 20.5523 19.5523 21 19 21H16C15.4477 21 15 20.5523 15 20C15 19.4477 15.4477 19 16 19H18V5H16C15.4477 5 15 4.55228 15 4Z" fill="black"/>
</svg>
