<svg
  width="24"
  height="24"
  viewBox="0 0 24 24"
  xmlns="http://www.w3.org/2000/svg"
>
  <path
    fill-rule="evenodd"
    clip-rule="evenodd"
    d="M4.879 3.879A3 3 0 0 1 7 3a1 1 0 0 1 0 2 1 1 0 0 0-1 1v3c0 .957-.25 1.922-.754 2.676a3.527 3.527 0 0 1-.243.324c.087.103.168.211.243.324C5.75 13.078 6 14.043 6 15v3a1 1 0 0 0 1 1 1 1 0 1 1 0 2 3 3 0 0 1-3-3v-3c0-.634-.17-1.196-.418-1.567C3.335 13.063 3.104 13 3 13a1 1 0 1 1 0-2c.104 0 .335-.063.582-.433C3.83 10.196 4 9.634 4 9V6a3 3 0 0 1 .879-2.121zM16 4a1 1 0 0 1 1-1 3 3 0 0 1 3 3v3c0 .634.17 1.196.418 1.567.247.37.478.433.582.433a1 1 0 1 1 0 2c-.104 0-.335.063-.582.433-.247.371-.418.933-.418 1.567v3a3 3 0 0 1-3 3 1 1 0 1 1 0-2 1 1 0 0 0 1-1v-3c0-.957.25-1.922.754-2.676.075-.113.156-.221.243-.324a3.533 3.533 0 0 1-.243-.324C18.25 10.922 18 9.957 18 9V6a1 1 0 0 0-1-1 1 1 0 0 1-1-1z"
  />
</svg>
