<svg
  width="24"
  height="24"
  viewBox="0 0 24 24"
  xmlns="http://www.w3.org/2000/svg"
>
  <path
    fill-rule="evenodd"
    clip-rule="evenodd"
    d="M11 4.062a8.001 8.001 0 0 0 0 15.876V4.062zm2 0v2.524l2.003-2.003A7.939 7.939 0 0 0 13 4.062zm3.808 1.544L13 9.414v2.472l5.082-5.083a8.053 8.053 0 0 0-1.274-1.197zm2.394 2.906L13 14.714v2.472l6.83-6.831a7.935 7.935 0 0 0-.628-1.843zm-6.115 11.415l6.84-6.84a8.005 8.005 0 0 1-6.84 6.84zM2 12C2 6.477 6.477 2 12 2c1.906 0 3.69.534 5.207 1.461a10.048 10.048 0 0 1 3.026 2.86A9.948 9.948 0 0 1 22 12c0 5.523-4.477 10-10 10S2 17.523 2 12z"
  />
</svg>
