<svg width="24" height="24" viewBox="0 0 24 24" fill="none" xmlns="http://www.w3.org/2000/svg">
<path d="M12 15V21" stroke="white" stroke-width="2" stroke-linecap="round" stroke-linejoin="round"/>
<circle cx="12" cy="10" r="1" stroke="white" stroke-width="2" stroke-linecap="round" stroke-linejoin="round"/>
<path d="M7.83333 7.23486C7.30679 8.02679 7 8.97741 7 9.99969C7 11.022 7.30679 11.9726 7.83333 12.7645" stroke="white" stroke-width="2" stroke-linecap="round" stroke-linejoin="round"/>
<path d="M16.1667 7.23486C16.6932 8.02679 17 8.97741 17 9.99969C17 11.022 16.6932 11.9726 16.1667 12.7645" stroke="white" stroke-width="2" stroke-linecap="round" stroke-linejoin="round"/>
<path d="M4.5 5.02295C3.55223 6.44841 3 8.15954 3 9.99965C3 11.8398 3.55223 13.5509 4.5 14.9763" stroke="white" stroke-width="2" stroke-linecap="round" stroke-linejoin="round"/>
<path d="M19.5 5.02295C20.4478 6.44841 21 8.15954 21 9.99965C21 11.8398 20.4478 13.5509 19.5 14.9763" stroke="white" stroke-width="2" stroke-linecap="round" stroke-linejoin="round"/>
</svg>
