<svg
  width="24"
  height="24"
  viewBox="0 0 24 24"
  xmlns="http://www.w3.org/2000/svg"
  fill="none"
  stroke="currentColor"
  stroke-width="2"
  stroke-linecap="round"
  stroke-linejoin="round"
>
  <path d="M12 15v6" />
  <circle cx="12" cy="10" r="1" />
  <path d="M7.833 7.235A4.977 4.977 0 0 0 7 10c0 1.022.307 1.973.833 2.764" />
  <path d="M16.167 7.235A4.98 4.98 0 0 1 17 10a4.977 4.977 0 0 1-.833 2.764" />
  <path d="M4.5 5.023A8.958 8.958 0 0 0 3 10c0 1.84.552 3.55 1.5 4.976" />
  <path d="M19.5 5.023A8.958 8.958 0 0 1 21 10c0 1.84-.552 3.55-1.5 4.976" />
</svg>
