<svg
  width="24"
  height="24"
  viewBox="0 0 24 24"
  xmlns="http://www.w3.org/2000/svg"
>
  <path d="M13.34 2.003c-.006 0-.145.017-.312.026-.533.042-1.062.119-1.585.232-.335.075-1.246.335-1.283.36-.615.217-1.227.506-1.808.798-.505.277-1.287.782-1.408.912-.082.07-.167.137-.253.202-.323.257-.977.918-1.274 1.285a7.88 7.88 0 0 0-1.728 4.22c-.055.55 0 2.089.072 2.089a7.6 7.6 0 0 0 .57-.254c.159-.071.348-.16.426-.195.078-.036.501-.228.935-.43l.966-.443.407-.188c.13-.059.247-.109.263-.109.017 0-.006-.067-.048-.152a3.552 3.552 0 0 1-.4-1.663c0-.96.335-1.872 1.025-2.787a6.766 6.766 0 0 1 1.1-1.1c.058-.045.143-.108.189-.147.283-.217 1.197-.709 1.325-.709.03 0 .038.02.03.055-.01.033-.076.352-.15.703-.07.362-.134.68-.144.717-.007.032-.036.175-.062.315-.029.14-.055.283-.061.317-.01.035-.079.386-.16.79-.078.4-.159.791-.175.872-.017.079-.037.17-.04.205l-.13.668c-.009.036-.095.462-.192.95-.098.489-.183.915-.192.95l-.127.639a7.068 7.068 0 0 1-.062.313 10.08 10.08 0 0 0-.095.498c-.012.04-.022.082-.03.123-.007.042-.05.25-.093.47-.046.217-.088.448-.098.507-.01.058-.039.195-.061.302a358.259 358.259 0 0 1-.512 2.533l-.058.316c-.01.035-.079.39-.163.791l-.172.872a2.915 2.915 0 0 0-.04.208l-.13.665c-.01.035-.098.465-.195.95l-.185.945a74.735 74.735 0 0 0-.25 1.274L6.955 22l2.955-.01c2.614 0 3.486-.016 3.936-.058l.38-.036c.14-.01.274-.026.303-.03.03-.006.127-.02.222-.028a6.29 6.29 0 0 0 .439-.072c.15-.027.306-.052.345-.058.039-.01.169-.037.287-.066l.256-.058c.079-.017.608-.173.681-.202.036-.017.198-.082.36-.15 1.05-.417 1.915-1.093 2.527-1.976.114-.163.426-.687.426-.712 0-.01.059-.134.125-.277a6.514 6.514 0 0 0 .534-1.882c.041-.319.016-1.514-.042-1.605a1.012 1.012 0 0 1-.03-.159 5.039 5.039 0 0 0-2.643-3.525 5.595 5.595 0 0 0-1.025-.414l-.157-.036.257-.17c.11-.073.219-.15.325-.228.21-.166.414-.34.611-.52a5.96 5.96 0 0 0 .975-1.253c.221-.375.455-.964.52-1.3a.536.536 0 0 1 .027-.117c.078-.22.078-1.341 0-1.467-.007-.01-.017-.063-.027-.114a3.44 3.44 0 0 0-.083-.287c-.346-1.058-1.14-1.94-2.233-2.48-.372-.183-1.014-.423-1.226-.46a1.799 1.799 0 0 1-.221-.049 7.373 7.373 0 0 0-.775-.14 8.817 8.817 0 0 0-1.083-.06c-.307.002-.558-.002-.561.002zm1.371 1.51c.81.212 1.452.743 1.736 1.436.172.42.211.659.211 1.286 0 .511-.017.742-.095 1.064a3.571 3.571 0 0 1-1.9 2.432 3.778 3.778 0 0 1-.427.196c-.01 0-.039.016-.065.026-.228.094-1.182.309-1.217.273-.01-.01.035-.248.092-.537.058-.286.116-.573.122-.635.009-.054.02-.107.034-.16a.877.877 0 0 0 .028-.159c.01-.065.027-.133.033-.159a.934.934 0 0 0 .03-.157c.009-.058.061-.325.113-.586.055-.263.108-.51.114-.553.007-.046.075-.4.16-.792.077-.393.15-.758.158-.81.011-.051.037-.195.063-.315.026-.124.05-.257.058-.3.143-.759.313-1.579.32-1.611.02-.045.045-.04.432.061zm-.969 8.34c.16.024.424.072.684.134.143.03.553.196.771.309 1.221.632 1.895 1.963 1.749 3.444-.023.186-.053.37-.092.554-.01.02-.02.075-.032.127-.082.27-.18.533-.294.79-.901 1.81-2.828 2.918-5.166 2.96l-.396.01.019-.088.036-.17c.01-.045.025-.153.045-.237l.049-.254c.01-.055.02-.123.03-.16l.14-.745c.075-.371.152-.772.178-.885l.067-.333c.008-.071.018-.15.028-.175.01-.026.02-.082.03-.125.01-.045.033-.165.048-.269.02-.104.088-.44.146-.746l.128-.647c.006-.056.036-.196.058-.317.046-.217.065-.321.094-.507l.079-.394.237-1.22c.098-.509.186-.95.192-.99.01-.046.046-.072.105-.078.156-.02.875-.007 1.066.013h.001z" />
</svg>
