<svg
  width="24"
  height="24"
  viewBox="0 0 24 24"
  xmlns="http://www.w3.org/2000/svg"
>
  <path d="M21.82 17.2c.24.118.24.223 0 .312l-9.464 4.352a.743.743 0 0 1-.712 0l-9.466-4.352c-.237-.09-.237-.194 0-.313l2.268-1.025a.764.764 0 0 1 .71 0l6.489 2.978a.767.767 0 0 0 .712 0l6.489-2.979a.764.764 0 0 1 .71 0l2.264 1.025v.002zm0-5.378c.24.119.24.237 0 .355l-9.464 4.356c-.24.087-.475.087-.712 0l-9.466-4.358c-.237-.12-.237-.237 0-.355l2.268-1.022a.745.745 0 0 1 .71 0l6.489 2.975c.238.12.475.12.712 0l6.489-2.975a.745.745 0 0 1 .71 0l2.264 1.021v.003zM2.178 6.8c-.237-.12-.237-.222 0-.312l9.467-4.355a.764.764 0 0 1 .71 0l9.465 4.359c.24.089.24.193 0 .312l-9.464 4.353a.753.753 0 0 1-.712 0L2.178 6.8z" />
</svg>
