<svg
  width="24"
  height="24"
  viewBox="0 0 24 24"
  xmlns="http://www.w3.org/2000/svg"
>
  <path
    fill-rule="evenodd"
    clip-rule="evenodd"
    d="M7.293 2.293a1 1 0 0 1 1.414 0l1.855 1.855a7.026 7.026 0 0 1 2.876 0l1.855-1.855a1 1 0 1 1 1.414 1.414l-1.221 1.221A7.027 7.027 0 0 1 18.326 8H20a1 1 0 1 1 0 2h-1.071c.047.327.071.66.071 1v1h1a1 1 0 1 1 0 2h-1v1c0 .34-.024.673-.071 1H20a1 1 0 1 1 0 2h-1.674A7 7 0 0 1 12 22a7 7 0 0 1-6.326-4H4a1 1 0 1 1 0-2h1.071A7.05 7.05 0 0 1 5 15v-1H4a1 1 0 1 1 0-2h1v-1c0-.34.024-.673.071-1H4a1 1 0 0 1 0-2h1.674a7.026 7.026 0 0 1 2.84-3.072l-1.221-1.22a1 1 0 0 1 0-1.415zM12 6a5 5 0 0 0-1.453.214A4.99 4.99 0 0 0 7 11v4c0 .586.1 1.147.284 1.667a5.002 5.002 0 0 0 9.432 0A4.99 4.99 0 0 0 17 15v-4a4.99 4.99 0 0 0-3.547-4.786A5 5 0 0 0 12 6zm-3 5a1 1 0 0 1 1-1h4a1 1 0 1 1 0 2h-4a1 1 0 0 1-1-1zm0 4a1 1 0 0 1 1-1h4a1 1 0 1 1 0 2h-4a1 1 0 0 1-1-1z"
  />
</svg>
