<svg
  width="24"
  height="24"
  viewBox="0 0 24 24"
  xmlns="http://www.w3.org/2000/svg"
>
  <g clip-path="url(#a)">
    <path
      fill-rule="evenodd"
      clip-rule="evenodd"
      d="M.293.293a1 1 0 0 1 1.414 0l22 22a1 1 0 0 1-1.414 1.414L17 18.414V19a1 1 0 0 1-1 1H2a1 1 0 0 1-1-1V5a1 1 0 0 1 1-1h.586L.293 1.707a1 1 0 0 1 0-1.414zM4.586 6H3v12h12v-1.586L4.586 6zM15 6h-5a1 1 0 1 1 0-2h6a1 1 0 0 1 1 1v4.131l4.445-2.963A1 1 0 0 1 23 7v10a1 1 0 1 1-2 0V8.869l-4.445 2.963A1 1 0 0 1 15 11V6zM5 9a1 1 0 0 1 1-1h.01a1 1 0 1 1 0 2H6a1 1 0 0 1-1-1z"
    />
  </g>
  <defs>
    <clipPath id="a">
      <rect width="24" height="24" />
    </clipPath>
  </defs>
</svg>
