<svg width="24" height="24" viewBox="0 0 24 24" fill="none" xmlns="http://www.w3.org/2000/svg">
<path fill-rule="evenodd" clip-rule="evenodd" d="M16.0225 4C14.9676 4 13.9558 4.41906 13.2099 5.16499L9.89456 8.48035L15.5197 14.1054L18.835 10.7901C19.5809 10.0442 20 9.03245 20 7.97754C20 6.92263 19.5809 5.91093 18.835 5.16499C18.0891 4.41906 17.0774 4 16.0225 4ZM14.1054 15.5197L8.48035 9.89456L5.16499 13.2099C4.41906 13.9558 4 14.9676 4 16.0225C4 17.0774 4.41906 18.0891 5.16499 18.835C5.91093 19.5809 6.92263 20 7.97754 20C9.03245 20 10.0442 19.5809 10.7901 18.835L14.1054 15.5197ZM11.7957 3.75078C12.9167 2.62978 14.4371 2 16.0225 2C17.6078 2 19.1282 2.62978 20.2492 3.75078C21.3702 4.87179 22 6.3922 22 7.97754C22 9.56288 21.3702 11.0833 20.2492 12.2043L12.2043 20.2492C11.0833 21.3702 9.56288 22 7.97754 22C6.3922 22 4.87179 21.3702 3.75078 20.2492C2.62978 19.1282 2 17.6078 2 16.0225C2 14.4371 2.62977 12.9167 3.75078 11.7957L11.7957 3.75078Z" fill="black"/>
</svg>
