<svg
  width="24"
  height="24"
  viewBox="0 0 24 24"
  xmlns="http://www.w3.org/2000/svg"
  fill="none"
  stroke="currentColor"
  stroke-width="2"
  stroke-linecap="round"
  stroke-linejoin="round"
>
  <path d="M12 2s9 6.154 9 11.154c0 .951-.254 1.883-.732 2.685a4.792 4.792 0 0 1-1.968 1.845 4.414 4.414 0 0 1-2.587.428 4.54 4.54 0 0 1-2.397-1.124L14.88 22H9.12l1.564-5.012a4.54 4.54 0 0 1-2.398 1.124 4.414 4.414 0 0 1-2.587-.428 4.792 4.792 0 0 1-1.967-1.845A5.253 5.253 0 0 1 3 13.154C3 8.154 12 2 12 2z" />
</svg>
