<svg
  width="24"
  height="24"
  viewBox="0 0 24 24"
  xmlns="http://www.w3.org/2000/svg"
  fill="none"
  stroke="currentColor"
  stroke-width="2"
  stroke-linecap="round"
  stroke-linejoin="round"
>
  <path d="M10.525 16.578a4.564 4.564 0 0 1-1.973 1.319 4.647 4.647 0 0 1-2.383.16 4.596 4.596 0 0 1-2.138-1.043 4.462 4.462 0 0 1-1.308-1.959 4.384 4.384 0 0 1-.117-2.338 4.44 4.44 0 0 1 1.104-2.075 4.573 4.573 0 0 1 2.023-1.244 4.648 4.648 0 0 1 2.387-.07 4.4 4.4 0 0 1-.11-4.531 4.514 4.514 0 0 1 1.674-1.68 4.632 4.632 0 0 1 4.625 0c.7.404 1.278.984 1.673 1.68a4.4 4.4 0 0 1-.11 4.531 4.65 4.65 0 0 1 2.389.068c.776.23 1.476.66 2.026 1.244.551.583.933 1.3 1.107 2.077a4.387 4.387 0 0 1-.117 2.34 4.465 4.465 0 0 1-1.31 1.961 4.598 4.598 0 0 1-2.14 1.043c-.796.155-1.619.1-2.385-.161a4.566 4.566 0 0 1-1.974-1.322l1.57 4.922H8.954l1.57-4.922z" />
</svg>
