<svg width="24" height="24" viewBox="0 0 24 24" fill="none" xmlns="http://www.w3.org/2000/svg">
<path fill-rule="evenodd" clip-rule="evenodd" d="M2 4C2 3.44772 2.44772 3 3 3H21C21.5523 3 22 3.44772 22 4V20C22 20.5523 21.5523 21 21 21H15C14.4477 21 14 20.5523 14 20C14 19.4477 14.4477 19 15 19H20V5H4V8C4 8.55228 3.55228 9 3 9C2.44772 9 2 8.55228 2 8V4ZM2 12C2 11.4477 2.44772 11 3 11C7.97056 11 12 15.0294 12 20C12 20.5523 11.5523 21 11 21C10.4477 21 10 20.5523 10 20C10 16.134 6.86599 13 3 13C2.44772 13 2 12.5523 2 12ZM2 16C2 15.4477 2.44772 15 3 15C5.76142 15 8 17.2386 8 20C8 20.5523 7.55228 21 7 21C6.44772 21 6 20.5523 6 20C6 18.3431 4.65685 17 3 17C2.44772 17 2 16.5523 2 16ZM2 20C2 19.4477 2.44772 19 3 19H3.01C3.56228 19 4.01 19.4477 4.01 20C4.01 20.5523 3.56228 21 3.01 21H3C2.44772 21 2 20.5523 2 20Z" fill="black"/>
</svg>
