<svg width="24" height="24" viewBox="0 0 24 24" fill="none" xmlns="http://www.w3.org/2000/svg">
<path fill-rule="evenodd" clip-rule="evenodd" d="M5.5 6C4.67157 6 4 6.67157 4 7.5C4 8.32843 4.67157 9 5.5 9C6.32843 9 7 8.32843 7 7.5C7 6.67157 6.32843 6 5.5 6ZM2 7.5C2 5.567 3.567 4 5.5 4C7.433 4 9 5.567 9 7.5C9 9.433 7.433 11 5.5 11C3.567 11 2 9.433 2 7.5ZM17 6C15.3431 6 14 7.34315 14 9V15C14 16.6569 15.3431 18 17 18C18.6569 18 20 16.6569 20 15C20 14.4477 20.4477 14 21 14C21.5523 14 22 14.4477 22 15C22 17.7614 19.7614 20 17 20C14.2386 20 12 17.7614 12 15V9C12 6.23858 14.2386 4 17 4C19.7614 4 22 6.23858 22 9C22 9.55228 21.5523 10 21 10C20.4477 10 20 9.55228 20 9C20 7.34315 18.6569 6 17 6Z" fill="black"/>
</svg>
