<svg width="24" height="24" viewBox="0 0 24 24" fill="none" xmlns="http://www.w3.org/2000/svg">
<path d="M7.99999 3.93597C6.72097 4.57123 5.61148 5.50174 4.7632 6.6506C3.91493 7.79946 3.35222 9.13369 3.12159 10.543C2.89096 11.9524 2.99902 13.3964 3.43684 14.7557C3.87466 16.115 4.62967 17.3507 5.63949 18.3605C6.6493 19.3703 7.88493 20.1253 9.24425 20.5631C10.6036 21.0009 12.0476 21.109 13.4569 20.8784C14.8663 20.6477 16.2005 20.085 17.3494 19.2368C18.4982 18.3885 19.4287 17.279 20.064 16" stroke="white" stroke-width="2" stroke-linecap="round" stroke-linejoin="round"/>
<path d="M21 12C21 9.61305 20.0518 7.32387 18.364 5.63604C16.6761 3.94821 14.3869 3 12 3V12H21Z" stroke="white" stroke-width="2" stroke-linecap="round" stroke-linejoin="round"/>
</svg>
