<svg width="24" height="24" viewBox="0 0 24 24" fill="none" xmlns="http://www.w3.org/2000/svg">
<path fill-rule="evenodd" clip-rule="evenodd" d="M15.5 4C13.567 4 12 5.567 12 7.5C12 9.433 13.567 11 15.5 11C17.433 11 19 9.433 19 7.5C19 5.567 17.433 4 15.5 4ZM10 7.5C10 4.46243 12.4624 2 15.5 2C18.5376 2 21 4.46243 21 7.5C21 10.5376 18.5376 13 15.5 13C12.4624 13 10 10.5376 10 7.5ZM7 14C5.89543 14 5 14.8954 5 16C5 17.1046 5.89543 18 7 18C8.10457 18 9 17.1046 9 16C9 14.8954 8.10457 14 7 14ZM3 16C3 13.7909 4.79086 12 7 12C9.20914 12 11 13.7909 11 16C11 18.2091 9.20914 20 7 20C4.79086 20 3 18.2091 3 16ZM17 18C16.4477 18 16 18.4477 16 19C16 19.5523 16.4477 20 17 20C17.5523 20 18 19.5523 18 19C18 18.4477 17.5523 18 17 18ZM14 19C14 17.3431 15.3431 16 17 16C18.6569 16 20 17.3431 20 19C20 20.6569 18.6569 22 17 22C15.3431 22 14 20.6569 14 19Z" fill="black"/>
</svg>
