<svg
  width="24"
  height="24"
  viewBox="0 0 24 24"
  xmlns="http://www.w3.org/2000/svg"
>
  <path
    fill-rule="evenodd"
    clip-rule="evenodd"
    d="M11.087 3.113a1 1 0 0 1-.754 1.197 8.003 8.003 0 0 0 0 15.603 1 1 0 0 1-.443 1.95c-4.453-1.01-7.778-4.991-7.778-9.752 0-4.76 3.325-8.741 7.778-9.752a1 1 0 0 1 1.197.754zm2.05 0a1 1 0 0 1 1.196-.754c3.74.849 6.682 3.791 7.53 7.531a1 1 0 1 1-1.95.443A8.013 8.013 0 0 0 13.89 4.31a1 1 0 0 1-.754-1.197zm7.973 10.023a1 1 0 0 1 .754 1.197 10.013 10.013 0 0 1-7.531 7.53 1 1 0 1 1-.443-1.95 8.013 8.013 0 0 0 6.023-6.023 1 1 0 0 1 1.197-.754z"
  />
</svg>
