<svg width="24" height="24" viewBox="0 0 24 24" fill="none" xmlns="http://www.w3.org/2000/svg">
<path d="M9.5 16C10.9133 15.9997 12.288 15.5388 13.4158 14.6871C14.5436 13.8354 15.3631 12.6394 15.7502 11.2801C16.1372 9.92084 16.0707 8.47247 15.5607 7.15441C15.0507 5.83635 14.125 4.72043 12.9239 3.97569C11.7227 3.23096 10.3116 2.89799 8.90422 3.02725C7.49686 3.1565 6.16996 3.74093 5.12456 4.69199C4.07916 5.64305 3.37222 6.90892 3.11083 8.29783C2.84944 9.68673 3.04785 11.123 3.676 12.389L3 16L6.611 15.324C7.5084 15.7707 8.49756 16.0022 9.5 16V16Z" stroke="white" stroke-width="2" stroke-linecap="round" stroke-linejoin="round"/>
<path d="M8.142 15.858C8.34909 16.8268 8.77484 17.7355 9.38674 18.5147C9.99864 19.2939 10.7805 19.9229 11.6726 20.3538C12.5648 20.7846 13.5436 21.0059 14.5343 21.0008C15.525 20.9956 16.5014 20.7641 17.389 20.324L21 21L20.324 17.389C20.7641 16.5014 20.9956 15.525 21.0008 14.5342C21.006 13.5435 20.7847 12.5647 20.3538 11.6726C19.9229 10.7805 19.2939 9.99861 18.5147 9.38671C17.7355 8.77481 16.8268 8.34906 15.858 8.14197" stroke="white" stroke-width="2" stroke-linecap="round" stroke-linejoin="round"/>
</svg>
