<svg width="24" height="24" viewBox="0 0 24 24" fill="none" xmlns="http://www.w3.org/2000/svg">
<path fill-rule="evenodd" clip-rule="evenodd" d="M2 4C2 3.44772 2.44772 3 3 3H21C21.5523 3 22 3.44772 22 4V18C22 18.5523 21.5523 19 21 19H6.41421L3.70711 21.7071C3.42111 21.9931 2.99099 22.0787 2.61732 21.9239C2.24364 21.7691 2 21.4045 2 21V4ZM4 5V18.5858L5.29289 17.2929C5.48043 17.1054 5.73478 17 6 17H20V5H4ZM12 7C12.5523 7 13 7.44772 13 8V11C13 11.5523 12.5523 12 12 12C11.4477 12 11 11.5523 11 11V8C11 7.44772 11.4477 7 12 7ZM11 14C11 13.4477 11.4477 13 12 13H12.01C12.5623 13 13.01 13.4477 13.01 14C13.01 14.5523 12.5623 15 12.01 15H12C11.4477 15 11 14.5523 11 14Z" fill="black"/>
</svg>
