<svg width="24" height="24" viewBox="0 0 24 24" fill="none" xmlns="http://www.w3.org/2000/svg">
<path fill-rule="evenodd" clip-rule="evenodd" d="M1 3C1 2.44772 1.44772 2 2 2H17C17.5523 2 18 2.44772 18 3V14C18 14.5523 17.5523 15 17 15H5.41421L2.70711 17.7071C2.42111 17.9931 1.99099 18.0787 1.61732 17.9239C1.24364 17.7691 1 17.4045 1 17V3ZM3 4V14.5858L4.29289 13.2929C4.48043 13.1054 4.73478 13 5 13H16V4H3ZM22 8C22.5523 8 23 8.44772 23 9V22C23 22.4045 22.7564 22.7691 22.3827 22.9239C22.009 23.0787 21.5789 22.9931 21.2929 22.7071L17.5858 19H9C8.44772 19 8 18.5523 8 18C8 17.4477 8.44772 17 9 17H18C18.2652 17 18.5196 17.1054 18.7071 17.2929L21 19.5858V9C21 8.44772 21.4477 8 22 8Z" fill="black"/>
</svg>
