<svg
  width="24"
  height="24"
  viewBox="0 0 24 24"
  xmlns="http://www.w3.org/2000/svg"
>
  <g clip-path="url(#a)">
    <path
      fill-rule="evenodd"
      clip-rule="evenodd"
      d="M.293.293a1 1 0 0 1 1.414 0l22 22a1 1 0 0 1-1.414 1.414L17.586 19H6.414l-2.707 2.707A1 1 0 0 1 2 21V4c0-.17.042-.33.117-.47L.293 1.708a1 1 0 0 1 0-1.414zM4 5.414v13.172l1.293-1.293A1 1 0 0 1 6 17h9.586L4 5.414zM8 4a1 1 0 0 1 1-1h12a1 1 0 0 1 1 1v12a1 1 0 1 1-2 0V5H9a1 1 0 0 1-1-1z"
    />
  </g>
  <defs>
    <clipPath id="a">
      <rect width="24" height="24" />
    </clipPath>
  </defs>
</svg>
