<svg
  width="24"
  height="24"
  viewBox="0 0 24 24"
  xmlns="http://www.w3.org/2000/svg"
>
  <path
    fill-rule="evenodd"
    clip-rule="evenodd"
    d="M12 .586L6.793 5.793a1 1 0 0 0 0 1.414L7.586 8l-2.793 2.793a1 1 0 0 0 0 1.414L6.586 14l-3.293 3.293A1 1 0 0 0 4 19h4v3a1 1 0 0 0 1 1h6a1 1 0 0 0 1-1v-3h4a1 1 0 0 0 .707-1.707L17.414 14l1.793-1.793a1 1 0 0 0 0-1.414L16.414 8l.793-.793a1 1 0 0 0 0-1.414L12 .586zM10 21v-2h4v2h-4zm7.586-4l-2.293-2.293a1 1 0 0 1 0-1.414l1.793-1.793-2.793-2.793a1 1 0 0 1 0-1.414l.793-.793L12 3.414 8.914 6.5l.793.793a1 1 0 0 1 0 1.414L6.914 11.5l1.793 1.793a1 1 0 0 1 0 1.414L6.414 17h11.172z"
  />
</svg>
