<svg
  width="24"
  height="24"
  viewBox="0 0 24 24"
  xmlns="http://www.w3.org/2000/svg"
>
  <path
    fill-rule="evenodd"
    clip-rule="evenodd"
    d="M11 21.002a1 1 0 0 0 1.002.998 9.998 9.998 0 0 0 3.822-.767 1 1 0 1 0-.768-1.846 8.002 8.002 0 0 1-3.058.613A1 1 0 0 0 11 21.002zm-1.516-.31a1 1 0 0 0-.542-1.306 7.998 7.998 0 0 1-2.595-1.733 1 1 0 0 0-1.414 1.414 10 10 0 0 0 3.245 2.167 1 1 0 0 0 1.306-.542zm8.17-1.625a1 1 0 0 0 1.413 0 10 10 0 0 0 2.167-3.245 1 1 0 0 0-1.848-.764 7.999 7.999 0 0 1-1.733 2.595 1 1 0 0 0 0 1.414zm-13.58-2.704a1 1 0 0 0 .54-1.307A8 8 0 0 1 4 11.998a1 1 0 1 0-2 .004 10 10 0 0 0 .767 3.822 1 1 0 0 0 1.307.54zM21.002 13A1 1 0 0 0 22 11.998a9.998 9.998 0 0 0-.767-3.822 1 1 0 1 0-1.846.768c.403.97.611 2.008.613 3.058a1 1 0 0 0 1.002.998zM3.308 9.484a1 1 0 0 0 1.306-.542 8 8 0 0 1 1.733-2.595 1 1 0 1 0-1.414-1.414 10 10 0 0 0-2.167 3.245 1 1 0 0 0 .542 1.306zm15.76-3.137a1 1 0 0 0-.001-1.414 10 10 0 0 0-3.245-2.167 1 1 0 0 0-.764 1.848 8 8 0 0 1 2.595 1.733 1 1 0 0 0 1.414 0zM7.636 4.074a1 1 0 0 0 1.307.54A8 8 0 0 1 12.002 4a1 1 0 1 0-.004-2 10 10 0 0 0-3.822.767 1 1 0 0 0-.54 1.307z"
  />
</svg>
