<svg
  width="24"
  height="24"
  viewBox="0 0 24 24"
  xmlns="http://www.w3.org/2000/svg"
>
  <path d="M9.47 12a2.378 2.378 0 1 1 4.756-.002A2.378 2.378 0 0 1 9.469 12zm2.378-10c-4.669 0-8.58 3.2-9.69 7.52-.008.03-.008.06-.008.1 0 .262.21.48.48.48h4.028a.46.46 0 0 0 .431-.277c.831-1.8 2.65-3.06 4.76-3.06a5.245 5.245 0 0 1 5.238 5.24 5.246 5.246 0 0 1-5.241 5.241 5.233 5.233 0 0 1-4.758-3.06.495.495 0 0 0-.431-.28H2.629a.48.48 0 0 0-.479.48c0 .03.012.06.012.1C3.262 18.8 7.178 22 11.848 22c5.52 0 10-4.48 10-10s-4.48-10-10-10z" />
</svg>
