<svg
  width="24"
  height="24"
  viewBox="0 0 24 24"
  xmlns="http://www.w3.org/2000/svg"
>
  <path d="M11.586 12.18c-.1.216-.21.457-.323.715-.401.91-.846 2.017-1.008 2.726-.065.3-.097.606-.093.913 0 .137.007.281.018.428a5.32 5.32 0 0 0 1.822.326 5.325 5.325 0 0 0 1.667-.272 3.177 3.177 0 0 1-.348-.368c-.712-.907-1.108-2.235-1.735-4.468zM8.963 7.678A5.29 5.29 0 0 0 6.714 12a5.289 5.289 0 0 0 2.188 4.278c.325-1.351 1.138-2.589 2.358-5.07-.072-.199-.155-.416-.248-.646-.338-.848-.825-1.831-1.26-2.277a3.56 3.56 0 0 0-.79-.607zm7.643 10.386c-.7-.087-1.278-.193-1.784-.372a6.354 6.354 0 0 1-8.61-8.314 6.333 6.333 0 0 1 1.601-2.153A4.652 4.652 0 0 0 6.71 7.09c-1.863.017-3.83 1.048-4.65 3.835-.077.405-.058.712-.058 1.075 0 5.523 4.477 10 10 10 3.382 0 6.369-1.68 8.179-4.25-.979.243-1.921.36-2.726.363a7.16 7.16 0 0 1-.85-.049zm-1.879-1.937c.062.03.202.08.396.136A5.294 5.294 0 0 0 17.29 12h-.002a5.295 5.295 0 0 0-5.287-5.287c-.564 0-1.125.091-1.66.27 1.074 1.223 1.59 2.971 2.089 4.885v.002c.002.002.16.53.433 1.233.271.702.657 1.571 1.077 2.204.277.425.58.73.787.82zM12.002 2a9.983 9.983 0 0 0-8.127 4.178 5.074 5.074 0 0 1 2.751-.798c1.162.003 2.076.363 2.514.61.106.06.207.127.305.194a6.354 6.354 0 0 1 7.02 10.337c.287.031.591.052.904.05 1.106 0 2.305-.244 3.201-.998.586-.493 1.076-1.215 1.348-2.297.054-.418.083-.844.083-1.276 0-5.522-4.476-10-10-10z" />
</svg>
