<svg
  width="24"
  height="24"
  viewBox="0 0 24 24"
  xmlns="http://www.w3.org/2000/svg"
  fill="none"
  stroke="currentColor"
  stroke-width="2"
  stroke-linecap="round"
  stroke-linejoin="round"
>
  <path d="M8.854 14.308c0-1.323.385-2.617 1.108-3.718a6.6 6.6 0 0 1 2.95-2.464 6.465 6.465 0 0 1 3.797-.381c1.28.26 2.452.898 3.366 1.831a6.73 6.73 0 0 1 1.799 3.427 6.806 6.806 0 0 1-.374 3.866 6.667 6.667 0 0 1-2.421 3.003A6.49 6.49 0 0 1 15.427 21H7.694a4.189 4.189 0 0 1-1.788-.403 4.262 4.262 0 0 1-1.455-1.13 4.356 4.356 0 0 1-.854-1.649 4.406 4.406 0 0 1 .589-3.59c.348-.52.804-.956 1.334-1.277a4.18 4.18 0 0 1 3.557-.377" />
  <path d="M5.34 13.063a4.75 4.75 0 0 1-.943-1.768 4.807 4.807 0 0 1 .564-3.89c.361-.567.84-1.05 1.404-1.415a4.561 4.561 0 0 1 3.826-.536c.64.197 1.23.53 1.728.978.5.448.9 1 1.172 1.62" />
  <path d="M11.514 6.109l1.33-1.935" />
  <path d="M8.048 5.326L7.645 3" />
  <path d="M5.054 7.268l-1.9-1.355" />
  <path d="M4.285 10.796L2 11.206" />
</svg>
