<svg
  width="24"
  height="24"
  viewBox="0 0 24 24"
  xmlns="http://www.w3.org/2000/svg"
>
  <path
    fill-rule="evenodd"
    clip-rule="evenodd"
    d="M12 4C9.292 4 7 6.342 7 9.353v.059a1 1 0 0 1 0 2c-.244 0-.482.023-.713.068C4.457 11.833 3 13.556 3 15.706 3 18.132 4.844 20 7 20h10c2.156 0 4-1.868 4-4.294 0-2.15-1.457-3.873-3.287-4.226a3.754 3.754 0 0 0-.713-.068c-1.284 0-2.443.65-3.184 1.696a1 1 0 1 1-1.632-1.158c1.083-1.526 2.828-2.538 4.816-2.538v-.06C17 6.343 14.708 4 12 4zm6.99 5.766c.006-.137.01-.275.01-.413C19 5.347 15.92 2 12 2S5 5.347 5 9.353c0 .138.004.276.01.413C2.65 10.634 1 12.992 1 15.706 1 19.127 3.633 22 7 22h10c3.367 0 6-2.873 6-6.294 0-2.714-1.649-5.072-4.01-5.94z"
  />
</svg>
