<svg
  width="24"
  height="24"
  viewBox="0 0 24 24"
  xmlns="http://www.w3.org/2000/svg"
  fill="none"
  stroke="currentColor"
  stroke-width="2"
  stroke-linecap="round"
  stroke-linejoin="round"
>
  <path d="M7 10a5.002 5.002 0 0 0 0 10h10c.866 0 1.681-.22 2.392-.608" />
  <path d="M12 15c0-.866.22-1.681.608-2.392" />
  <path d="M6.097 10.08a6.034 6.034 0 0 1 .433-3.55" />
  <path d="M1 1l5.53 5.53 6.078 6.078 6.784 6.784L23 23" />
  <path d="M15.297 10.297a5.002 5.002 0 0 1 6.406 6.406" />
  <path d="M17.903 10.081a6 6 0 0 0-9.027-6.205" />
</svg>
