<svg
  width="24"
  height="24"
  viewBox="0 0 24 24"
  xmlns="http://www.w3.org/2000/svg"
>
  <path
    fill-rule="evenodd"
    clip-rule="evenodd"
    d="M17.5 3a3.496 3.496 0 0 0-2.824 1.431c.474.166.93.377 1.357.632a6.806 6.806 0 0 1 1.969 1.759 6.097 6.097 0 0 1 1.159 2.76A3.5 3.5 0 0 0 17.5 3zm3.419 7.808a5.5 5.5 0 1 0-8.326-6.794 7.875 7.875 0 0 0-1.827.102 7.563 7.563 0 0 0-2.541.926c-1.335.786-2.35 1.963-2.86 3.348a6.25 6.25 0 0 0-3.55 1.641C.66 11.119 0 12.607 0 14.172c0 1.566.66 3.054 1.815 4.142A6.286 6.286 0 0 0 6.123 20h13.066a4.84 4.84 0 0 0 3.397-1.387A4.727 4.727 0 0 0 24 15.245c0-1.266-.51-2.477-1.414-3.367a4.816 4.816 0 0 0-1.667-1.07zm-7.856-4.73a5.878 5.878 0 0 0-1.955.008 5.563 5.563 0 0 0-1.869.68c-1.135.668-1.887 1.685-2.141 2.801a1 1 0 0 1-.975.778 4.286 4.286 0 0 0-2.937 1.141C2.42 12.21 2 13.178 2 14.172c0 .996.419 1.963 1.186 2.686A4.286 4.286 0 0 0 6.123 18h13.066a2.84 2.84 0 0 0 1.993-.812A2.727 2.727 0 0 0 22 15.245c0-.726-.293-1.425-.818-1.942a2.84 2.84 0 0 0-1.993-.813H18.1a1 1 0 0 1-.975-1.222 3.854 3.854 0 0 0 .006-1.676 4.098 4.098 0 0 0-.73-1.571 4.808 4.808 0 0 0-1.392-1.24 5.554 5.554 0 0 0-1.946-.703z"
  />
</svg>
