<svg width="24" height="24" viewBox="0 0 24 24" fill="none" xmlns="http://www.w3.org/2000/svg">
<path d="M12 15C12 12.2386 14.2386 10 17 10C17.3083 10 17.61 10.0279 17.9028 10.0813C20.2333 10.5063 22 12.5468 22 15C22 17.7614 19.7614 20 17 20H7C4.23858 20 2 17.7614 2 15C2 12.5468 3.7667 10.5063 6.09718 10.0813C6.39001 10.0279 6.69175 10 7 10" stroke="#1E293B" stroke-width="2" stroke-linecap="round" stroke-linejoin="round"/>
<path d="M6.09718 10.0813C6.03334 9.73055 6 9.36917 6 9C6 5.68629 8.68629 3 12 3C15.3137 3 18 5.68629 18 9C18 9.36917 17.9667 9.73055 17.9028 10.0813" stroke="#1E293B" stroke-width="2" stroke-linecap="round" stroke-linejoin="round"/>
</svg>
