<svg
  width="24"
  height="24"
  viewBox="0 0 24 24"
  xmlns="http://www.w3.org/2000/svg"
  fill="none"
  stroke="currentColor"
  stroke-width="2"
  stroke-linecap="round"
  stroke-linejoin="round"
>
  <path d="M7.71 12a6.9 6.9 0 0 1 1.205-3.889 7.115 7.115 0 0 1 3.206-2.578 7.282 7.282 0 0 1 4.128-.398 7.19 7.19 0 0 1 3.658 1.915c1 .98 1.68 2.227 1.956 3.584a6.868 6.868 0 0 1-.407 4.045 7.033 7.033 0 0 1-2.631 3.141 7.25 7.25 0 0 1-3.97 1.18H6.996c-.709 0-1.41-.15-2.056-.436a4.997 4.997 0 0 1-1.692-1.225 4.875 4.875 0 0 1-1.027-1.799 4.806 4.806 0 0 1 .515-3.999 4.943 4.943 0 0 1 1.452-1.492 5.06 5.06 0 0 1 1.949-.775 5.102 5.102 0 0 1 2.102.08" />
</svg>
