<svg
  width="24"
  height="24"
  viewBox="0 0 24 24"
  xmlns="http://www.w3.org/2000/svg"
>
  <g clip-path="url(#a)">
    <path
      fill-rule="evenodd"
      clip-rule="evenodd"
      d="M.293.293a1 1 0 0 1 1.414 0l22 22a1 1 0 0 1-1.414 1.414l-2.455-2.454A5.758 5.758 0 0 1 17 22H7c-3.367 0-6-2.873-6-6.294 0-2.714 1.649-5.072 4.01-5.94a7.674 7.674 0 0 1 .41-2.93L.294 1.706a1 1 0 0 1 0-1.414zM7.066 8.48A5.767 5.767 0 0 0 7 9.412a1 1 0 0 1 0 2c-.244 0-.482.023-.713.068C4.457 11.833 3 13.556 3 15.706 3 18.132 4.844 20 7 20h10c.469 0 .92-.086 1.34-.247L7.065 8.48zM12 4c-.932 0-1.805.272-2.554.75A1 1 0 1 1 8.37 3.066 6.725 6.725 0 0 1 12 2c3.92 0 7 3.347 7 7.353 0 .138-.004.276-.01.413 2.361.868 4.01 3.226 4.01 5.94 0 .473-.05.935-.145 1.38a1 1 0 0 1-1.956-.417c.066-.309.101-.631.101-.963 0-2.15-1.457-3.873-3.287-4.226a3.754 3.754 0 0 0-1.805.094 1 1 0 1 1-.582-1.914A5.744 5.744 0 0 1 17 9.412v-.06C17 6.343 14.708 4 12 4z"
    />
  </g>
  <defs>
    <clipPath id="a">
      <rect width="24" height="24" />
    </clipPath>
  </defs>
</svg>
