<svg
  width="24"
  height="24"
  viewBox="0 0 24 24"
  xmlns="http://www.w3.org/2000/svg"
>
  <g clip-path="url(#a)">
    <path
      fill-rule="evenodd"
      clip-rule="evenodd"
      d="M18.343.404a1 1 0 0 1 .046 1.125 2.819 2.819 0 0 0 .475 3.55 2.747 2.747 0 0 0 3.53.17 1 1 0 0 1 1.597.928A5.572 5.572 0 0 1 22.842 8.9a5.521 5.521 0 0 1-2.403 1.754 4.824 4.824 0 0 1 2.147 1.224A4.727 4.727 0 0 1 24 15.245c0 1.266-.51 2.477-1.414 3.368A4.84 4.84 0 0 1 19.189 20H6.123c-1.606 0-3.156-.6-4.308-1.686C.66 17.226 0 15.738 0 14.172c0-1.565.66-3.053 1.815-4.14a6.25 6.25 0 0 1 3.55-1.642c.51-1.385 1.525-2.562 2.86-3.348a7.563 7.563 0 0 1 2.541-.926 7.878 7.878 0 0 1 2.406-.044 5.562 5.562 0 0 1 1.378-2.485A5.512 5.512 0 0 1 17.088.082a.989.989 0 0 1 .088-.02l.104-.027a1 1 0 0 1 1.063.369zm-2.378 2.598a3.564 3.564 0 0 0-.863 1.593 7.357 7.357 0 0 1 1.529.867 4.816 4.816 0 0 1-.666-2.46zm2.21 4.062c.395.583.687 1.224.861 1.898a3.52 3.52 0 0 0 2.128-1.17 4.739 4.739 0 0 1-2.99-.728zm-5.03-.972a5.876 5.876 0 0 0-2.037-.006 5.563 5.563 0 0 0-1.869.68c-1.135.668-1.887 1.685-2.141 2.801a1 1 0 0 1-.975.778 4.286 4.286 0 0 0-2.937 1.142C2.42 12.21 2 13.177 2 14.172c0 .996.419 1.963 1.186 2.686A4.286 4.286 0 0 0 6.123 18h13.066a2.84 2.84 0 0 0 1.993-.812A2.727 2.727 0 0 0 22 15.245c0-.725-.293-1.425-.818-1.942a2.84 2.84 0 0 0-1.993-.813H18.1a1 1 0 0 1-.975-1.222 3.817 3.817 0 0 0 .006-1.676 4.098 4.098 0 0 0-.73-1.571 4.808 4.808 0 0 0-1.392-1.24 5.464 5.464 0 0 0-1.283-.554c-.19-.055-.384-.1-.581-.135z"
    />
  </g>
  <defs>
    <clipPath id="a">
      <rect width="24" height="24" />
    </clipPath>
  </defs>
</svg>
