<svg
  width="24"
  height="24"
  viewBox="0 0 24 24"
  xmlns="http://www.w3.org/2000/svg"
  fill="none"
  stroke="currentColor"
  stroke-width="2"
  stroke-linecap="round"
  stroke-linejoin="round"
>
  <path d="M8.854 14.308c0-1.323.385-2.617 1.108-3.718a6.6 6.6 0 0 1 2.95-2.464 6.465 6.465 0 0 1 3.797-.381 6.538 6.538 0 0 1 3.366 1.831 6.73 6.73 0 0 1 1.799 3.427 6.806 6.806 0 0 1-.374 3.866 6.667 6.667 0 0 1-2.421 3.003A6.49 6.49 0 0 1 15.427 21H7.694a4.19 4.19 0 0 1-1.788-.403 4.263 4.263 0 0 1-1.455-1.13 4.356 4.356 0 0 1-.854-1.649 4.406 4.406 0 0 1 .589-3.59c.348-.52.804-.956 1.334-1.277a4.181 4.181 0 0 1 3.557-.377" />
  <path d="M5.34 13.063a4.75 4.75 0 0 1-.943-1.768 4.807 4.807 0 0 1 .564-3.89A4.682 4.682 0 0 1 6.365 5.99a4.561 4.561 0 0 1 3.826-.536 4.619 4.619 0 0 1 1.728.978c.5.448.9 1 1.172 1.62" />
  <path d="M11.514 6.109l1.33-1.935" />
  <path d="M8.048 5.326L7.645 3" />
  <path d="M5.054 7.268l-1.9-1.355" />
  <path d="M4.285 10.796L2 11.206" />
</svg>
