<svg width="24" height="24" viewBox="0 0 24 24" fill="none" xmlns="http://www.w3.org/2000/svg">
<path d="M7 10C6.69175 10 6.39001 10.0279 6.09718 10.0813C3.7667 10.5063 2 12.5468 2 15C2 17.7614 4.23858 20 7 20H17C17.8664 20 18.6814 19.7796 19.3919 19.3919" stroke="#1E293B" stroke-width="2" stroke-linecap="round" stroke-linejoin="round"/>
<path d="M12 15C12 14.1336 12.2204 13.3186 12.6081 12.6082" stroke="#1E293B" stroke-width="2" stroke-linecap="round" stroke-linejoin="round"/>
<path d="M6.09718 10.0813C6.03334 9.73057 6 9.36918 6 9.00002C6 8.11961 6.18962 7.28349 6.53026 6.53027" stroke="#1E293B" stroke-width="2" stroke-linecap="round" stroke-linejoin="round"/>
<path d="M1 1L6.53026 6.53026L12.6081 12.6081L19.3919 19.3919L23 23" stroke="#1E293B" stroke-width="2" stroke-linecap="round" stroke-linejoin="round"/>
<path d="M15.2974 10.2974C15.8288 10.1049 16.4021 10 17 10C17.3082 10 17.61 10.0279 17.9028 10.0813C20.2333 10.5063 22 12.5468 22 15C22 15.5979 21.8951 16.1712 21.7026 16.7026" stroke="#1E293B" stroke-width="2" stroke-linecap="round" stroke-linejoin="round"/>
<path d="M17.9028 10.0813C17.9667 9.73055 18 9.36917 18 9C18 5.68629 15.3137 3 12 3C10.8557 3 9.78618 3.32035 8.87628 3.87627" stroke="#1E293B" stroke-width="2" stroke-linecap="round" stroke-linejoin="round"/>
</svg>
