<svg
  width="24"
  height="24"
  viewBox="0 0 24 24"
  xmlns="http://www.w3.org/2000/svg"
>
  <path d="M15.757 16.037c.123-.422.076-.809-.13-1.096-.186-.264-.503-.416-.884-.434l-7.216-.093a.129.129 0 0 1-.11-.06.162.162 0 0 1-.018-.13.2.2 0 0 1 .17-.13l7.28-.093c.862-.04 1.8-.739 2.127-1.595l.416-1.084a.225.225 0 0 0 .012-.14 4.74 4.74 0 1 0-9.115-.487 2.153 2.153 0 0 0-1.494-.415 2.134 2.134 0 0 0-1.852 2.65A3.028 3.028 0 0 0 2 15.96c0 .146.012.293.03.44.011.069.07.122.14.122h13.318a.181.181 0 0 0 .17-.13l.1-.355zm2.298-4.636c-.065 0-.135 0-.199.01-.047 0-.088.034-.106.08l-.281.98c-.123.422-.077.808.128 1.096.188.264.505.415.886.433l1.536.095c.047 0 .088.022.11.058a.17.17 0 0 1 .019.13.2.2 0 0 1-.17.13l-1.601.094c-.868.04-1.799.738-2.127 1.595l-.117.298c-.024.06.017.118.082.118h5.498c.064 0 .123-.04.14-.105.094-.34.147-.697.147-1.067a3.95 3.95 0 0 0-3.945-3.939" />
</svg>
