<svg width="24" height="24" viewBox="0 0 24 24" fill="none" xmlns="http://www.w3.org/2000/svg">
<path d="M7 18H7.01" stroke="white" stroke-width="2" stroke-linecap="round" stroke-linejoin="round"/>
<path d="M11 20H11.01" stroke="white" stroke-width="2" stroke-linecap="round" stroke-linejoin="round"/>
<path d="M15 18H15.01" stroke="white" stroke-width="2" stroke-linecap="round" stroke-linejoin="round"/>
<path d="M15 22H15.01" stroke="white" stroke-width="2" stroke-linecap="round" stroke-linejoin="round"/>
<path d="M6 22H6.01" stroke="white" stroke-width="2" stroke-linecap="round" stroke-linejoin="round"/>
<path d="M8.248 8.49981C8.24699 7.21728 8.62024 5.96232 9.322 4.88881C10.0173 3.82446 11.0136 2.99109 12.184 2.49481C13.3466 2.00302 14.6308 1.87405 15.868 2.12481C17.1093 2.37836 18.2462 2.998 19.132 3.90381C20.0267 4.81855 20.6334 5.97566 20.877 7.23181C21.1232 8.49209 20.9975 9.79679 20.515 10.9868C20.0366 12.1697 19.2194 13.1848 18.166 13.9048C17.1222 14.6174 15.8879 14.999 14.624 14.9998H7.122C6.523 14.9998 5.932 14.8658 5.388 14.6088C4.84288 14.3502 4.36094 13.9754 3.976 13.5108C3.58816 13.0425 3.30576 12.4961 3.148 11.9088C2.98964 11.3203 2.95865 10.7047 3.05712 10.1032C3.15559 9.50171 3.38123 8.92815 3.719 8.42081C4.05512 7.91837 4.49669 7.49522 5.013 7.18081C5.52509 6.86819 6.10022 6.67319 6.69685 6.6099C7.29347 6.5466 7.89671 6.61659 8.463 6.81481" stroke="white" stroke-width="2" stroke-linecap="round" stroke-linejoin="round"/>
</svg>
