<svg
  width="24"
  height="24"
  viewBox="0 0 24 24"
  xmlns="http://www.w3.org/2000/svg"
>
  <path d="M16.998 21H7.002a5.996 5.996 0 0 1-5.916-4.99A6.004 6.004 0 0 1 5.01 9.335a7.006 7.006 0 0 1 4.235-6.77 6.994 6.994 0 0 1 9.312 3.99c.33.888.478 1.834.433 2.78a5.999 5.999 0 0 1 3.924 6.673A6.001 6.001 0 0 1 16.998 21zm0-12.003a5.003 5.003 0 0 0-5.12-5.001A4.996 4.996 0 0 0 7.306 7.28a5.004 5.004 0 0 0-.297 1.96l.07 1.488-1.404.494a4.001 4.001 0 0 0-2.61 4.448A4.004 4.004 0 0 0 7.003 19h9.996a3.997 3.997 0 0 0 3.986-4.305 4.003 4.003 0 0 0-4.59-3.652 3.997 3.997 0 0 0-3.19 2.69l-1.898-.633a6.004 6.004 0 0 1 5.692-4.103z" />
</svg>
