<svg width="24" height="24" viewBox="0 0 24 24" fill="none" xmlns="http://www.w3.org/2000/svg">
<path d="M12 15C12 14.0111 12.2932 13.0444 12.8427 12.2222C13.3921 11.3999 14.173 10.759 15.0866 10.3806C16.0002 10.0022 17.0055 9.90315 17.9755 10.0961C18.9454 10.289 19.8363 10.7652 20.5355 11.4645C21.2348 12.1637 21.711 13.0546 21.9039 14.0246C22.0969 14.9945 21.9978 15.9998 21.6194 16.9134C21.241 17.8271 20.6001 18.6079 19.7779 19.1574C18.9556 19.7068 17.9889 20 17 20H7C5.67392 20 4.40215 19.4732 3.46447 18.5355C2.52678 17.5979 2 16.3261 2 15C2 13.6739 2.52678 12.4022 3.46447 11.4645C4.40215 10.5268 5.67392 10 7 10" stroke="white" stroke-width="2" stroke-linecap="round" stroke-linejoin="round"/>
<path d="M6.097 10.0809C5.93959 9.21614 5.97409 8.32739 6.19806 7.47746C6.42203 6.62754 6.82999 5.8372 7.3931 5.16233C7.95621 4.48747 8.66071 3.94456 9.45678 3.57201C10.2529 3.19945 11.1211 3.00635 12 3.00635C12.8789 3.00635 13.7471 3.19945 14.5432 3.57201C15.3393 3.94456 16.0438 4.48747 16.6069 5.16233C17.17 5.8372 17.578 6.62754 17.8019 7.47746C18.0259 8.32739 18.0604 9.21614 17.903 10.0809" stroke="white" stroke-width="2" stroke-linecap="round" stroke-linejoin="round"/>
</svg>
