<svg
  width="24"
  height="24"
  viewBox="0 0 24 24"
  xmlns="http://www.w3.org/2000/svg"
>
  <path
    fill-rule="evenodd"
    clip-rule="evenodd"
    d="M13.145 5.092a5.876 5.876 0 0 0-2.037-.006 5.563 5.563 0 0 0-1.869.68c-1.135.668-1.887 1.685-2.141 2.801a1 1 0 0 1-.975.778 4.286 4.286 0 0 0-2.937 1.141C2.42 11.21 2 12.178 2 13.172c0 .996.419 1.963 1.186 2.686A4.286 4.286 0 0 0 6.123 17H7a1 1 0 1 1 0 2h-.877c-1.606 0-3.156-.6-4.308-1.686C.66 16.226 0 14.738 0 13.172c0-1.565.66-3.053 1.815-4.141a6.25 6.25 0 0 1 3.55-1.641c.51-1.385 1.525-2.562 2.86-3.348a7.563 7.563 0 0 1 2.541-.926 7.876 7.876 0 0 1 2.732.007c.9.161 1.763.48 2.535.94a6.806 6.806 0 0 1 1.969 1.759 6.097 6.097 0 0 1 1.082 2.339c.097.439.142.884.137 1.33a4.84 4.84 0 0 1 3.365 1.387A4.727 4.727 0 0 1 24 14.245c0 1.266-.51 2.477-1.414 3.368A4.84 4.84 0 0 1 19.189 19H18a1 1 0 1 1 0-2h1.189a2.84 2.84 0 0 0 1.993-.812A2.727 2.727 0 0 0 22 14.245c0-.726-.293-1.425-.818-1.942a2.84 2.84 0 0 0-1.993-.813H18.1a1 1 0 0 1-.975-1.222 3.816 3.816 0 0 0 .006-1.676 4.098 4.098 0 0 0-.73-1.571 4.808 4.808 0 0 0-1.392-1.24 5.554 5.554 0 0 0-1.864-.69zm.302 7.014a1 1 0 0 1 .447 1.341L12.618 16H14a1 1 0 0 1 .894 1.447l-2 4a1 1 0 1 1-1.788-.894L12.382 18H11a1 1 0 0 1-.894-1.447l2-4a1 1 0 0 1 1.341-.447z"
  />
</svg>
