<svg
  width="24"
  height="24"
  viewBox="0 0 24 24"
  xmlns="http://www.w3.org/2000/svg"
>
  <path
    fill-rule="evenodd"
    clip-rule="evenodd"
    d="M19.177 20.591l3.116 3.116 1.414-1.414-22-22L.293 1.707 5.364 6.78a7.005 7.005 0 0 0-.354 2.557 5.999 5.999 0 0 0-3.924 6.673A6.002 6.002 0 0 0 7.002 21h9.996c.751 0 1.49-.14 2.18-.409zm-1.63-1.63L7.032 8.447a5.003 5.003 0 0 0-.024.794l.07 1.489-1.404.494a4.001 4.001 0 0 0-2.61 4.448A4.004 4.004 0 0 0 7.003 19h9.996c.185 0 .368-.013.55-.038z"
  />
  <path d="M22.914 16.01a6.003 6.003 0 0 1-1.024 2.466l-1.447-1.447a4.003 4.003 0 0 0-1.898-5.72 3.996 3.996 0 0 0-3.579.243l-1.444-1.444a5.999 5.999 0 0 1 3.476-1.11 5.003 5.003 0 0 0-5.12-5.002A4.996 4.996 0 0 0 8.676 5.26L7.263 3.848A6.997 6.997 0 0 1 18.99 9.336a5.999 5.999 0 0 1 3.924 6.673z" />
</svg>
