<svg
  width="24"
  height="24"
  viewBox="0 0 24 24"
  xmlns="http://www.w3.org/2000/svg"
  fill="none"
  stroke="currentColor"
  stroke-width="2"
  stroke-linecap="round"
  stroke-linejoin="round"
>
  <path d="M12 23l2-4" />
  <path d="M9 20l3-5" />
  <path d="M8.248 8.5a6.59 6.59 0 0 1 1.074-3.611 6.405 6.405 0 0 1 2.862-2.394 6.263 6.263 0 0 1 3.684-.37 6.34 6.34 0 0 1 3.264 1.779 6.54 6.54 0 0 1 1.745 3.328 6.617 6.617 0 0 1-.362 3.755 6.475 6.475 0 0 1-2.349 2.918A6.29 6.29 0 0 1 14.624 15H7.122c-.599 0-1.19-.134-1.734-.391a4.136 4.136 0 0 1-1.412-1.098 4.234 4.234 0 0 1-.828-1.602 4.285 4.285 0 0 1 .571-3.488 4.16 4.16 0 0 1 1.294-1.24 4.052 4.052 0 0 1 3.45-.366" />
</svg>
