<svg
  width="24"
  height="24"
  viewBox="0 0 24 24"
  xmlns="http://www.w3.org/2000/svg"
>
  <path d="M12.005 2.4c-5.513.005-10 4.46-10.005 9.932v.025l1.702.992.023-.015a4.85 4.85 0 0 1 2.757-.85c.308 0 .61.028.904.084l-.03-.005c.896.159 1.727.572 2.395 1.191l-.003-.002.291.272.165-.361c.16-.35.345-.679.55-.978.084-.12.174-.242.277-.372l.17-.214-.21-.176a6.942 6.942 0 0 0-3.196-1.505l-.043-.007a7.138 7.138 0 0 0-3.4.209l.05-.013c.81-3.547 3.928-6.02 7.61-6.022a7.758 7.758 0 0 1 5.5 2.26 7.664 7.664 0 0 1 2.09 3.75 6.987 6.987 0 0 0-2.081-.317h-.129a7.427 7.427 0 0 0-.863.065l.038-.004-.035.005c-.11.014-.217.03-.325.05-.048.008-.095.018-.142.028-.11.022-.218.047-.327.075l-.115.028c-.135.036-.27.076-.402.12l-.025.008c-.295.1-.59.224-.875.367l-.023.01a7.008 7.008 0 0 0-.391.214l-.03.018a6.847 6.847 0 0 0-1.756 1.5l-.01.012-.062.077c-.11.135-.215.275-.315.419a8.64 8.64 0 0 0-.24.377l-.05.086a7.481 7.481 0 0 0-.195.36l-.013.024a6.952 6.952 0 0 0-.367.886l-.014.044a6.712 6.712 0 0 0-.342 2.264v-.006.093c.005.12.011.24.02.36l-.002-.031c.01.114.021.229.035.343l.004.035.01.086c.016.106.033.21.053.315.2 1.055.704 2.11 1.454 3.05l.034.042.035-.041c.299-.354 1.04-1.475 1.104-2.148v-.012l-.005-.011a4.633 4.633 0 0 1-.533-2.163c0-2.513 1.975-4.6 4.496-4.751l.167-.006a4.942 4.942 0 0 1 2.892.854l.022.016 1.701-.99v-.024a9.809 9.809 0 0 0-2.925-7.02 9.97 9.97 0 0 0-7.07-2.902z" />
</svg>
