<svg
  width="24"
  height="24"
  viewBox="0 0 24 24"
  xmlns="http://www.w3.org/2000/svg"
>
  <path
    fill-rule="evenodd"
    clip-rule="evenodd"
    d="M11.445 2.168a1 1 0 0 1 1.11 0l9 6A1 1 0 0 1 22 9v6a1 1 0 0 1-.445.832l-9 6a1 1 0 0 1-1.11 0l-9-6A1 1 0 0 1 2 15V9a1 1 0 0 1 .445-.832l9-6zM4 10.868v2.264L5.697 12 4 10.868zm3.5 2.334L4.803 15 11 19.131v-3.596l-3.5-2.333zm5.5 2.333v3.596L19.197 15 16.5 13.202 13 15.535zM18.303 12L20 13.132v-2.264L18.303 12zm.894-3L16.5 10.798 13 8.465V4.869L19.197 9zM11 4.869v3.596l-3.5 2.333L4.803 9 11 4.869zm1 5.333L9.303 12 12 13.798 14.697 12 12 10.202z"
  />
</svg>
