<svg
  width="24"
  height="24"
  viewBox="0 0 24 24"
  xmlns="http://www.w3.org/2000/svg"
>
  <path d="M17.12 12.89v-1.78l-1.328.89 1.328.89zm1.063.994a.516.516 0 0 1-.005.07l-.004.023-.009.044-.008.026a.384.384 0 0 1-.015.039l-.011.025a.595.595 0 0 1-.018.036l-.015.025a.473.473 0 0 1-.067.083l-.022.02a.473.473 0 0 1-.03.026l-.024.018-.008.007-5.652 3.768a.531.531 0 0 1-.59 0l-5.652-3.769-.008-.007a.488.488 0 0 1-.054-.043l-.022-.02-.027-.03-.017-.022a.49.49 0 0 1-.056-.092l-.011-.026a.534.534 0 0 1-.015-.04l-.008-.024c-.003-.015-.007-.03-.008-.045l-.005-.024a.52.52 0 0 1-.005-.069v-3.767a.48.48 0 0 1 .005-.07l.004-.022.009-.045.008-.025a.478.478 0 0 1 .1-.18l.026-.029.022-.02a.517.517 0 0 1 .054-.044l.008-.007 5.652-3.767a.532.532 0 0 1 .59 0l5.652 3.767.008.007.025.018.03.025.02.021a.452.452 0 0 1 .067.083l.016.025a.486.486 0 0 1 .018.036l.011.025.015.04.008.025c.003.015.007.03.008.045l.005.023a.516.516 0 0 1 .005.069v3.768zM12 2C6.478 2 2 6.477 2 12s4.478 10 10 10c5.523 0 10-4.477 10-10 0-5.522-4.477-10-10-10zm0 8.743L10.12 12 12 13.258 13.88 12 12 10.743zm.532 3.437v2.48l4.163-2.776-1.86-1.244-2.303 1.54zm-5.227-.297l4.163 2.775V14.18l-2.303-1.54-1.86 1.243zm9.39-3.766l-4.163-2.775V9.82l2.303 1.542 1.86-1.245zm-5.227-.297V7.342l-4.163 2.775 1.86 1.244 2.303-1.541zM6.88 11.11v1.78L8.208 12l-1.328-.89z" />
</svg>
