<svg
  width="24"
  height="24"
  viewBox="0 0 24 24"
  xmlns="http://www.w3.org/2000/svg"
>
  <path d="M16.5 13.202L13 15.535v3.596l6.197-4.13-2.697-1.799zM14.697 12L12 10.202 9.303 12 12 13.798 14.697 12zM20 10.87L18.303 12 20 13.131V10.87zM19.197 9L13 4.87v3.595l3.5 2.333L19.197 9zM7.5 10.798L11 8.465V4.87L4.803 9 7.5 10.798zM4.803 15L11 19.131v-3.596l-3.5-2.333L4.803 15zM4 13.131l1.697-1.13L4 10.868v2.262zm-2-4.13a1 1 0 0 1 .445-.833l9-6a1 1 0 0 1 1.11 0l9 6A1 1 0 0 1 22 9v6a1 1 0 0 1-.445.832l-9 6a1 1 0 0 1-1.11 0l-9-6A.999.999 0 0 1 2 15V9z" />
</svg>
