<svg
  width="24"
  height="24"
  viewBox="0 0 24 24"
  xmlns="http://www.w3.org/2000/svg"
>
  <path d="M5.867 8.225c1.75.442 3.983.667 6.675.667 2.75 0 4.933-.225 6.675-.667 1.858-.433 2.75-1.017 2.75-1.567 0-.391-.4-.775-1.125-1.066.166.108.291.291.291.491 0 .559-.841 1.017-2.533 1.4-1.567.342-3.567.584-6 .584-2.35 0-4.442-.242-5.95-.567-1.625-.4-2.475-.833-2.475-1.4 0-.233.108-.433.433-.667-1.016.392-1.566.725-1.566 1.225.058.567.966 1.134 2.825 1.567zm3.908-1.8c1.892-.167 2.442-1.383 4.658-1.583 1.092-.084 1.784.133 1.859.516.066.359-.475.6-1.134.65-.908.092-1.283-.233-1.358-.541-.675.075-.783.358-.75.558.075.383.892.767 2.292.633 1.583-.125 2.116-.75 1.983-1.375-.167-.816-1.383-1.5-3.567-1.291-2.8.25-2.783 1.55-4.691 1.708-.784.075-1.217-.108-1.292-.417-.05-.308.333-.458.783-.491.417-.042.925.033 1.167.166.175-.091.233-.183.217-.291-.084-.292-.659-.417-1.384-.367-1.416.125-1.416.758-1.366 1.042.141.725 1.233 1.208 2.583 1.083zm9.517 3.2c-1.75.408-3.984.675-6.675.675-2.75 0-4.992-.283-6.734-.667-1.566-.4-2.4-.841-2.691-1.3a15.69 15.69 0 0 0 .741 2.959c-.4.25-.758.558-1.083.975A3.767 3.767 0 0 0 2 14.85a3 3 0 0 0 1.183 2.183c.725.567 1.509.734 2.4.567.342-.058.725-.233 1.075-.35-.733 0-1.35-.233-1.966-.725a2.958 2.958 0 0 1-1.242-2.017c-.167-.783 0-1.508.442-2.15.1-.125.208-.233.325-.333.25.608.516 1.208.816 1.767.675 1.025 1.35 1.916 2.025 2.883a7.37 7.37 0 0 1 .617 1.683 3.25 3.25 0 0 0 1.858 1.25 7.693 7.693 0 0 0 2.984.425h.108A8.499 8.499 0 0 0 15.7 19.6a3.483 3.483 0 0 0 1.8-1.242h.058a7.127 7.127 0 0 1 .559-1.683c.666-.975 1.35-1.858 2.016-2.883A17.501 17.501 0 0 0 22 8.342c-.358.5-1.2.941-2.708 1.283z" />
</svg>
