<svg
  width="24"
  height="24"
  viewBox="0 0 24 24"
  xmlns="http://www.w3.org/2000/svg"
>
  <path
    fill-rule="evenodd"
    clip-rule="evenodd"
    d="M3 8.99v1.52a14.96 14.96 0 0 0 9 2.99 14.96 14.96 0 0 0 9-2.99V8.99A14.96 14.96 0 0 0 12 6a14.96 14.96 0 0 0-9 2.99zm18 3.94a16.956 16.956 0 0 1-9 2.57c-3.304 0-6.389-.941-9-2.57v2.08A14.96 14.96 0 0 0 12 18a14.96 14.96 0 0 0 9-2.99v-2.08zM1.376 7.72A16.962 16.962 0 0 1 12 4c4.018 0 7.713 1.392 10.624 3.719A1 1 0 0 1 23 8.5v7a1 1 0 0 1-.376.781A16.963 16.963 0 0 1 12 20a16.963 16.963 0 0 1-10.624-3.719A1 1 0 0 1 1 15.5v-7a1 1 0 0 1 .376-.781z"
  />
</svg>
