<svg
  width="24"
  height="24"
  viewBox="0 0 24 24"
  xmlns="http://www.w3.org/2000/svg"
>
  <path
    fill-rule="evenodd"
    clip-rule="evenodd"
    d="M2 5a1 1 0 0 1 1-1h6.188a1 1 0 0 1 0 2H3a1 1 0 0 1-1-1zm11.813 0a1 1 0 0 1 1-1H21a1 1 0 1 1 0 2h-6.188a1 1 0 0 1-1-1zM2 9.667a1 1 0 0 1 1-1h6.188a1 1 0 1 1 0 2H3a1 1 0 0 1-1-1zm11.813 0a1 1 0 0 1 1-1H21a1 1 0 1 1 0 2h-6.188a1 1 0 0 1-1-1zM2 14.333a1 1 0 0 1 1-1h6.188a1 1 0 1 1 0 2H3a1 1 0 0 1-1-1zm11.813 0a1 1 0 0 1 1-1H21a1 1 0 1 1 0 2h-6.188a1 1 0 0 1-1-1zM2 19a1 1 0 0 1 1-1h6.188a1 1 0 1 1 0 2H3a1 1 0 0 1-1-1zm11.813 0a1 1 0 0 1 1-1H21a1 1 0 1 1 0 2h-6.188a1 1 0 0 1-1-1z"
  />
</svg>
