<svg
  width="24"
  height="24"
  viewBox="0 0 24 24"
  xmlns="http://www.w3.org/2000/svg"
  fill="none"
  stroke="currentColor"
  stroke-width="2"
  stroke-linecap="round"
  stroke-linejoin="round"
>
  <path d="M4 6.5A2.5 2.5 0 0 0 6.5 9H9V6.5a2.5 2.5 0 0 0-5 0z" />
  <path d="M4 17.5A2.5 2.5 0 0 1 6.5 15H9v2.5a2.5 2.5 0 0 1-5 0z" />
  <path d="M20 6.5A2.5 2.5 0 0 1 17.5 9H15V6.5a2.5 2.5 0 0 1 5 0z" />
  <path d="M20 17.5a2.5 2.5 0 0 0-2.5-2.5H15v2.5a2.5 2.5 0 0 0 5 0z" />
  <rect x="9" y="9" width="6" height="6" />
</svg>
