<svg
  width="24"
  height="24"
  viewBox="0 0 24 24"
  xmlns="http://www.w3.org/2000/svg"
>
  <path
    fill-rule="evenodd"
    clip-rule="evenodd"
    d="M4.062 11H5a1 1 0 1 1 0 2h-.938A8.004 8.004 0 0 0 11 19.938V19a1 1 0 1 1 2 0v.938A8.004 8.004 0 0 0 19.938 13H19a1 1 0 1 1 0-2h.938A8.004 8.004 0 0 0 13 4.062V5a1 1 0 1 1-2 0v-.938A8.004 8.004 0 0 0 4.062 11zM2 12C2 6.477 6.477 2 12 2s10 4.477 10 10-4.477 10-10 10S2 17.523 2 12zm14.707-4.707a1 1 0 0 1 .242 1.023l-2 6a1 1 0 0 1-.633.633l-6 2a1 1 0 0 1-1.265-1.265l2-6a1 1 0 0 1 .633-.633l6-2a1 1 0 0 1 1.023.242zm-5.916 3.498l-1.21 3.628 3.628-1.21 1.21-3.628-3.628 1.21z"
  />
</svg>
