<svg width="24" height="24" viewBox="0 0 24 24" fill="none" xmlns="http://www.w3.org/2000/svg">
<path fill-rule="evenodd" clip-rule="evenodd" d="M12 2C12.5523 2 13 2.44772 13 3V4.12602C14.7252 4.57006 16 6.13616 16 8C16 9.05335 15.5924 10.0112 14.9283 10.7248L20.3739 20.5139C20.6424 20.9965 20.4688 21.6054 19.9861 21.8739C19.5035 22.1424 18.8946 21.9688 18.6261 21.4861L13.2399 11.8038C12.8491 11.9312 12.4322 12 12 12C11.5678 12 11.1509 11.9312 10.7601 11.8038L5.37388 21.4861C5.1054 21.9688 4.49649 22.1424 4.01386 21.8739C3.53123 21.6054 3.35763 20.9965 3.62612 20.5139L9.07173 10.7248C8.40763 10.0112 8 9.05335 8 8C8 6.13616 9.27477 4.57006 11 4.12602V3C11 2.44772 11.4477 2 12 2ZM12 6C10.8954 6 10 6.89543 10 8C10 8.69469 10.3533 9.30728 10.8948 9.66727C11.211 9.8775 11.5897 10 12 10C12.4103 10 12.789 9.8775 13.1052 9.66727C13.6467 9.30728 14 8.69469 14 8C14 6.89543 13.1046 6 12 6Z" fill="black"/>
</svg>
