<svg width="24" height="24" viewBox="0 0 24 24" fill="none" xmlns="http://www.w3.org/2000/svg">
<path d="M12 21C16.9706 21 21 16.9706 21 12C21 7.02944 16.9706 3 12 3C7.02944 3 3 7.02944 3 12C3 16.9706 7.02944 21 12 21Z" stroke="white" stroke-width="2" stroke-linecap="round" stroke-linejoin="round"/>
<path d="M14.646 9C14.0687 8.49083 13.3567 8.15907 12.5954 8.04453C11.8342 7.92999 11.0561 8.03753 10.3545 8.35425C9.65288 8.67097 9.05755 9.18342 8.63996 9.83009C8.22237 10.4768 8.00024 11.2302 8.00024 12C8.00024 12.7698 8.22237 13.5232 8.63996 14.1699C9.05755 14.8166 9.65288 15.329 10.3545 15.6458C11.0561 15.9625 11.8342 16.07 12.5954 15.9555C13.3567 15.8409 14.0687 15.5092 14.646 15" stroke="white" stroke-width="2" stroke-linecap="round" stroke-linejoin="round"/>
</svg>
