<svg width="24" height="24" viewBox="0 0 24 24" fill="none" xmlns="http://www.w3.org/2000/svg">
<path fill-rule="evenodd" clip-rule="evenodd" d="M2 12C2 6.47715 6.47715 2 12 2C17.5228 2 22 6.47715 22 12C22 17.5228 17.5228 22 12 22C6.47715 22 2 17.5228 2 12ZM12 4C7.58172 4 4 7.58172 4 12C4 16.4183 7.58172 20 12 20C16.4183 20 20 16.4183 20 12C20 7.58172 16.4183 4 12 4ZM7 12C7 9.23858 9.23858 7 12 7C13.2674 7 14.4267 7.47284 15.3076 8.25026C15.7216 8.61573 15.761 9.24766 15.3956 9.66173C15.0301 10.0758 14.3982 10.1152 13.9841 9.74974C13.4546 9.28243 12.7615 9 12 9C10.3431 9 9 10.3431 9 12C9 13.6569 10.3431 15 12 15C12.7615 15 13.4546 14.7176 13.9841 14.2503C14.3982 13.8848 15.0301 13.9242 15.3956 14.3383C15.761 14.7523 15.7216 15.3843 15.3076 15.7497C14.4267 16.5272 13.2674 17 12 17C9.23858 17 7 14.7614 7 12Z" fill="black"/>
</svg>
