<svg width="24" height="24" viewBox="0 0 24 24" fill="none" xmlns="http://www.w3.org/2000/svg">
<path fill-rule="evenodd" clip-rule="evenodd" d="M12 4C7.58172 4 4 7.58172 4 12C4 16.4183 7.58172 20 12 20C16.4183 20 20 16.4183 20 12C20 7.58172 16.4183 4 12 4ZM2 12C2 6.47715 6.47715 2 12 2C17.5228 2 22 6.47715 22 12C22 17.5228 17.5228 22 12 22C6.47715 22 2 17.5228 2 12ZM12 9C11.2385 9 10.5454 9.28243 10.0159 9.74974C9.60184 10.1152 8.9699 10.0758 8.60444 9.66173C8.23897 9.24766 8.27837 8.61573 8.69244 8.25026C9.57325 7.47284 10.7326 7 12 7C14.7614 7 17 9.23858 17 12C17 14.7614 14.7614 17 12 17C10.7326 17 9.57325 16.5272 8.69244 15.7497C8.27837 15.3843 8.23897 14.7523 8.60444 14.3383C8.9699 13.9242 9.60184 13.8848 10.0159 14.2503C10.5454 14.7176 11.2385 15 12 15C13.6569 15 15 13.6569 15 12C15 10.3431 13.6569 9 12 9Z" fill="black"/>
</svg>
