<svg
  width="24"
  height="24"
  viewBox="0 0 24 24"
  xmlns="http://www.w3.org/2000/svg"
>
  <path d="M9 8a1 1 0 0 0-1 1v6a1 1 0 0 0 1 1h6a1 1 0 0 0 1-1V9a1 1 0 0 0-1-1H9z" />
  <path
    fill-rule="evenodd"
    clip-rule="evenodd"
    d="M10 3a1 1 0 0 0-2 0v1H5a1 1 0 0 0-1 1v3H3a1 1 0 0 0 0 2h1v4H3a1 1 0 1 0 0 2h1v3a1 1 0 0 0 1 1h3v1a1 1 0 1 0 2 0v-1h4v1a1 1 0 1 0 2 0v-1h3a1 1 0 0 0 1-1v-3h1a1 1 0 1 0 0-2h-1v-4h1a1 1 0 1 0 0-2h-1V5a1 1 0 0 0-1-1h-3V3a1 1 0 1 0-2 0v1h-4V3zM6 18V6h12v12H6z"
  />
</svg>
