<svg
  width="24"
  height="24"
  viewBox="0 0 24 24"
  xmlns="http://www.w3.org/2000/svg"
>
  <path d="M14.318 4.627c-.192.017-.393.034-.585.059a7.045 7.045 0 0 0-2.36.695 7.46 7.46 0 0 0-2.05 1.48.123.123 0 0 1-.118.042 6.2 6.2 0 0 0-1.247-.058 6.187 6.187 0 0 0-2.443.636c-1.473.736-2.51 1.883-3.113 3.423-.22.57-.35 1.172-.385 1.783 0 .041-.009.075-.017.108v.644c.017.168.042.327.058.494.084.678.277 1.33.586 1.942A6.223 6.223 0 0 0 5.8 18.87a5.937 5.937 0 0 0 2.042.494c.026 0 .05.003.071.008h7.147c.153-.014.302-.029.456-.05a6.95 6.95 0 0 0 2.343-.695 7.363 7.363 0 0 0 3.038-2.753c.5-.783.837-1.66.986-2.577.042-.284.067-.577.101-.862 0-.042.009-.075.017-.108v-.662c-.017-.192-.042-.377-.042-.552a6.954 6.954 0 0 0-.695-2.343 7.46 7.46 0 0 0-2.77-3.038 6.87 6.87 0 0 0-2.56-.979c-.301-.05-.594-.075-.896-.108-.041 0-.075-.008-.116-.017h-.603zm.308 1.411c1.772.004 3.275.689 4.496 2.046a5.775 5.775 0 0 1 1.346 2.77c.125.636.151 1.288.059 1.933a5.901 5.901 0 0 1-1.314 3.004 5.901 5.901 0 0 1-3.33 2.041c-.701.154-1.423.182-2.134.084-.912-.117-1.749-.418-2.502-.962a4.329 4.329 0 0 1-.56-.477c-1.022-1.005-2.034-2.017-3.055-3.021-.251-.25-.268-.527-.15-.779a.685.685 0 0 1 .719-.393c.175.017.31.118.435.243.92.929 1.833 1.841 2.753 2.77a4.385 4.385 0 0 0 2.578 1.28c1.623.218 3.004-.284 4.1-1.498.594-.66.954-1.456 1.105-2.342.216-1.323-.092-2.511-.913-3.557a4.532 4.532 0 0 0-2.837-1.716 4.518 4.518 0 0 0-3.305.662c-.025.016-.083.025-.109.008a7.535 7.535 0 0 0-1.171-.712s-.009-.008-.017-.025a5.503 5.503 0 0 1 1.046-.685c.68-.37 1.43-.592 2.2-.654a7.04 7.04 0 0 1 .559-.02zm-6.338 2.22c1.213-.02 2.326.437 3.319 1.358.711.668 1.364 1.363 2.05 2.058.192.192.234.435.142.694-.091.26-.301.385-.569.427a.601.601 0 0 1-.527-.192c-.653-.653-1.305-1.297-1.95-1.958-.527-.544-1.155-.854-1.891-.988-1.632-.293-3.28.653-3.866 2.2-.754 1.967.435 4.193 2.485 4.662.402.092.829.092 1.247.083.117-.008.184.034.267.109.403.394.83.787 1.248 1.18.024.025.058.05.083.075-.05 0-.084.008-.117.008H8.293a4.86 4.86 0 0 1-4.745-3.807c-.544-2.451.862-4.937 3.272-5.665.475-.15.97-.233 1.468-.245z" />
</svg>
