<svg
  width="24"
  height="24"
  viewBox="0 0 24 24"
  xmlns="http://www.w3.org/2000/svg"
>
  <path
    fill-rule="evenodd"
    clip-rule="evenodd"
    d="M12 2a1 1 0 0 1 1 1v1.062A8.004 8.004 0 0 1 19.938 11H21a1 1 0 1 1 0 2h-1.062A8.004 8.004 0 0 1 13 19.938V21a1 1 0 1 1-2 0v-1.062A8.004 8.004 0 0 1 4.062 13H3a1 1 0 1 1 0-2h1.062A8.004 8.004 0 0 1 11 4.062V3a1 1 0 0 1 1-1zm-1 4.083A6.005 6.005 0 0 0 6.083 11H7a1 1 0 1 1 0 2h-.917a6.005 6.005 0 0 0 4.922 4.918l.005-.923a1 1 0 0 1 2 .01l-.005.911A6.005 6.005 0 0 0 17.917 13H17a1 1 0 1 1 0-2h.917A6.005 6.005 0 0 0 13 6.083V7a1 1 0 1 1-2 0v-.917z"
  />
</svg>
