<svg width="24" height="24" viewBox="0 0 24 24" fill="none" xmlns="http://www.w3.org/2000/svg">
<path fill-rule="evenodd" clip-rule="evenodd" d="M12 2C12.323 2 12.626 2.15597 12.8137 2.41876L17.2188 8.58588L20.4 6.2C20.703 5.97274 21.1084 5.93618 21.4472 6.10557C21.786 6.27496 22 6.62123 22 7V17C22 17.5523 21.5523 18 21 18H3C2.44772 18 2 17.5523 2 17V7C2 6.62123 2.214 6.27496 2.55279 6.10557C2.89157 5.93618 3.29698 5.97274 3.6 6.2L6.78118 8.58588L11.1863 2.41876C11.374 2.15597 11.677 2 12 2ZM12 4.72046L7.81373 10.5812C7.65724 10.8003 7.419 10.9471 7.15292 10.9882C6.88684 11.0294 6.6154 10.9615 6.4 10.8L4 9V16H20V9L17.6 10.8C17.3846 10.9615 17.1132 11.0294 16.8471 10.9882C16.581 10.9471 16.3428 10.8003 16.1863 10.5812L12 4.72046ZM2 21C2 20.4477 2.44772 20 3 20H21C21.5523 20 22 20.4477 22 21C22 21.5523 21.5523 22 21 22H3C2.44772 22 2 21.5523 2 21Z" fill="black"/>
</svg>
