<svg width="24" height="24" viewBox="0 0 24 24" fill="none" xmlns="http://www.w3.org/2000/svg">
<path fill-rule="evenodd" clip-rule="evenodd" d="M4 4C4 3.44772 4.44772 3 5 3H20.5C21.3284 3 22 3.67157 22 4.5V8.5C22 9.32843 21.3284 10 20.5 10H18V13.5C18 15.433 16.433 17 14.5 17H7.5C5.567 17 4 15.433 4 13.5V4ZM18 8H20V5H18V8ZM16 5H6V13.5C6 14.3284 6.67157 15 7.5 15H14.5C15.3284 15 16 14.3284 16 13.5V5ZM2 20C2 19.4477 2.44772 19 3 19H19C19.5523 19 20 19.4477 20 20C20 20.5523 19.5523 21 19 21H3C2.44772 21 2 20.5523 2 20Z" fill="black"/>
</svg>
