<svg
  width="24"
  height="24"
  viewBox="0 0 24 24"
  xmlns="http://www.w3.org/2000/svg"
  fill="none"
  stroke="currentColor"
  stroke-width="2"
  stroke-linecap="round"
  stroke-linejoin="round"
>
  <path d="M17.2 7c-.844-.965-1.913-1.617-3.074-1.876a5.212 5.212 0 0 0-3.45.423c-1.089.534-2.019 1.43-2.672 2.579A7.857 7.857 0 0 0 7 12c0 1.378.349 2.726 1.003 3.874.653 1.148 1.583 2.045 2.673 2.58 1.089.533 2.289.68 3.45.422 1.16-.259 2.23-.911 3.073-1.876" />
  <path d="M13 10H5" />
  <path d="M5 14h8" />
</svg>
