<svg width="24" height="24" viewBox="0 0 24 24" fill="none" xmlns="http://www.w3.org/2000/svg">
<path d="M17 18.4552C16.2156 18.8142 15.3629 19 14.5 19C13.6371 19 12.7844 18.8142 12 18.4552C11.18 18.1726 10.3083 18.0708 9.44514 18.157C8.58194 18.2432 7.74773 18.5153 7 18.9544C7.53542 18.7694 8.00742 18.4367 8.36137 17.995C8.71531 17.5532 8.93673 17.0204 9 16.4583V8.96979C9.00528 8.09506 9.29803 7.24626 9.83329 6.55376C10.3685 5.86127 11.1167 5.36338 11.9628 5.13658C12.809 4.90978 13.7063 4.96661 14.5169 5.29835C15.3275 5.63009 16.0067 6.21838 16.45 6.97286" stroke="#1E293B" stroke-width="2" stroke-linecap="round" stroke-linejoin="round"/>
<path d="M13.9 13H6.90002" stroke="#1E293B" stroke-width="2" stroke-linecap="round" stroke-linejoin="round"/>
</svg>
