<svg
  width="24"
  height="24"
  viewBox="0 0 24 24"
  xmlns="http://www.w3.org/2000/svg"
>
  <path d="M13.093 12a9.479 9.479 0 0 0-9.479-9.48H2v4.167h1.615a5.312 5.312 0 1 1 0 10.625H2v4.167h1.615c5.234 0 9.478-4.244 9.478-9.479zM22 8.302a5.782 5.782 0 0 0-5.782-5.781H9.552a11.18 11.18 0 0 1 3.905 4.166h2.761a1.616 1.616 0 0 1 0 3.23h-1.615c.261 1.377.261 2.79 0 4.167h1.615a1.616 1.616 0 0 1 0 3.23h-2.761a11.179 11.179 0 0 1-3.905 4.167h6.666A5.782 5.782 0 0 0 20.662 12 5.788 5.788 0 0 0 22 8.303z" />
</svg>
