<svg
  width="24"
  height="24"
  viewBox="0 0 24 24"
  xmlns="http://www.w3.org/2000/svg"
>
  <path d="M13.723 11.428a2.586 2.586 0 0 0-2.586 2.591c0 1.461 1.125 2.571 2.712 2.571l-.013.002c1.325 0 2.437-1.092 2.437-2.534 0-1.5-1.113-2.63-2.551-2.63h.001zM2 2v20h20V2H2zm17.244 17.34h-2.98v-1.176c-.916.9-1.852 1.225-3.096 1.225-1.268 0-2.36-.412-3.275-1.237-1.206-1.063-1.831-2.475-1.831-4.114 0-1.5.583-2.845 1.675-3.895.975-.955 2.162-1.441 3.487-1.441 1.267 0 2.242.427 2.942 1.325V5.464l3.077-.637v-.002l.002.002h-.002V19.34h.001z" />
</svg>
