<svg
  width="24"
  height="24"
  viewBox="0 0 24 24"
  xmlns="http://www.w3.org/2000/svg"
>
  <path
    fill-rule="evenodd"
    clip-rule="evenodd"
    d="M5.292 5.58C5.01 5.83 5 5.975 5 6c0 .026.01.17.292.42.28.248.744.518 1.402.765C8.004 7.675 9.88 8 12 8s3.997-.324 5.306-.815c.658-.247 1.121-.517 1.402-.766C18.99 6.17 19 6.026 19 6c0-.026-.01-.17-.292-.42-.28-.248-.744-.518-1.402-.765C15.996 4.325 14.12 4 12 4s-3.997.324-5.306.815c-.658.247-1.121.517-1.402.766zM19 8.617a8.52 8.52 0 0 1-.992.442C16.422 9.653 14.298 10 12 10c-2.297 0-4.422-.347-6.008-.942A8.52 8.52 0 0 1 5 8.616V12c0 .019.007.16.28.407.273.247.734.523 1.414.778C8.052 13.695 9.962 14 12 14c2.039 0 3.948-.306 5.306-.815.68-.255 1.141-.531 1.414-.778.273-.248.28-.388.28-.407V8.616zm0 6c-.306.162-.64.31-.992.442-1.642.616-3.803.942-6.008.942s-4.366-.326-6.008-.942A8.468 8.468 0 0 1 5 14.616V18c0 .019.007.16.28.407.273.247.734.523 1.414.778C8.052 19.695 9.962 20 12 20c2.039 0 3.948-.306 5.306-.815.68-.255 1.141-.531 1.414-.778.273-.248.28-.388.28-.407v-3.384zM3 6c0-.803.437-1.448.965-1.916.53-.469 1.238-.846 2.027-1.142C7.578 2.347 9.702 2 12 2c2.297 0 4.422.347 6.008.942.79.296 1.498.673 2.027 1.142C20.562 4.552 21 5.197 21 6v12c0 .777-.415 1.416-.938 1.89-.524.473-1.234.86-2.054 1.168-1.642.616-3.803.942-6.008.942s-4.366-.326-6.008-.942c-.82-.308-1.53-.695-2.054-1.169C3.415 19.416 3 18.777 3 18V6z"
  />
</svg>
