<svg width="24" height="24" viewBox="0 0 24 24" fill="none" xmlns="http://www.w3.org/2000/svg">
<path d="M12 9C16.418 9 20 7.657 20 6C20 4.343 16.418 3 12 3C7.582 3 4 4.343 4 6C4 7.657 7.582 9 12 9Z" stroke="white" stroke-width="2" stroke-linecap="round" stroke-linejoin="round"/>
<path d="M4 6V12C4 12.796 4.843 13.559 6.343 14.121C7.843 14.684 9.878 15 12 15C14.122 15 16.157 14.684 17.657 14.121C19.157 13.56 20 12.796 20 12V6" stroke="white" stroke-width="2" stroke-linecap="round" stroke-linejoin="round"/>
<path d="M4 12V18C4 18.796 4.843 19.559 6.343 20.121C7.843 20.684 9.878 21 12 21C14.122 21 16.157 20.684 17.657 20.121C19.157 19.56 20 18.796 20 18V12" stroke="white" stroke-width="2" stroke-linecap="round" stroke-linejoin="round"/>
</svg>
