<svg
  width="24"
  height="24"
  viewBox="0 0 24 24"
  xmlns="http://www.w3.org/2000/svg"
>
  <path d="M13.567 12.567c-.334 0 .066.166.5.233.116-.083.225-.183.325-.275-.271.06-.55.074-.825.042zm1.783-.442c.192-.275.333-.575.392-.883-.05.225-.167.416-.275.608-.625.392-.059-.225 0-.467-.667.842-.092.5-.117.742zm.65-1.708c.042-.6-.117-.417-.167-.184.059.034.109.417.167.184zm-3.683-8.159c.166.034.375.059.35.1.191-.041.233-.083-.359-.1h.009zm.35.1l-.125.025.116-.008v-.017h.009zm5.516 8.284c.017.533-.166.791-.316 1.25l-.292.15c-.233.45.025.291-.142.65-.366.325-1.116 1.016-1.35 1.083-.166 0 .117-.208.159-.283-.492.333-.4.5-1.142.708l-.025-.05c-1.85.867-4.417-.85-4.375-3.2-.025.142-.058.108-.1.167A2.958 2.958 0 0 1 12.267 8.2a2.8 2.8 0 0 1 3.108.4 2.784 2.784 0 0 0-2.267-1.083c-.983.008-1.9.633-2.208 1.308-.5.317-.558 1.225-.775 1.383-.3 2.167.55 3.1 1.983 4.2.225.159.067.175.1.292a3.917 3.917 0 0 1-1.275-.967c.192.275.392.55.667.759-.458-.15-1.058-1.084-1.233-1.125.775 1.383 3.15 2.433 4.383 1.916a5.165 5.165 0 0 1-1.942-.233c-.275-.133-.641-.425-.583-.475a4.834 4.834 0 0 0 4.917-.7c.366-.292.775-.783.891-.792-.166.267.034.134-.1.367.367-.6-.166-.25.384-1.033l.2.275c-.075-.5.616-1.1.55-1.884.158-.25.166.25 0 .809.241-.617.066-.709.125-1.217.066.167.15.35.191.525-.15-.583.167-1 .234-1.333-.075-.042-.234.25-.267-.442 0-.308.083-.167.117-.233-.067-.042-.217-.267-.317-.717.067-.108.183.275.283.283-.066-.35-.166-.625-.166-.9-.284-.566-.1.084-.334-.25-.283-.908.25-.208.284-.616.45.641.7 1.633.816 2.05-.083-.5-.233-1-.408-1.467.133.058-.217-1.033.175-.308a6.517 6.517 0 0 0-3.05-3.659c.15.142.35.325.275.35-.625-.375-.517-.4-.608-.558-.509-.208-.542.017-.884 0-.966-.517-1.15-.458-2.033-.792l.042.192c-.642-.208-.75.083-1.442 0-.042-.033.225-.117.442-.15-.617.083-.584-.117-1.192.025.142-.108.3-.175.458-.267-.5.034-1.2.292-.983.059-.825.375-2.283.891-3.1 1.658L7.7 3.667c-.375.45-1.633 1.341-1.733 1.925l-.109.025c-.191.333-.316.708-.475 1.05-.25.433-.375.166-.333.233-.5 1.017-.75 1.875-.967 2.583.15.225 0 1.375.059 2.3-.25 4.55 3.2 8.975 6.966 10 .559.192 1.375.192 2.075.209-.825-.234-.933-.125-1.733-.409-.583-.266-.708-.583-1.117-.941l.167.291c-.808-.283-.475-.35-1.133-.558l.175-.225c-.259-.025-.692-.442-.809-.675l-.283.008c-.342-.416-.525-.725-.508-.966l-.092.166c-.108-.175-1.267-1.583-.667-1.258-.108-.1-.258-.167-.416-.458l.116-.142c-.291-.367-.533-.85-.516-1 .166.2.266.25.375.275-.734-1.808-.775-.1-1.334-1.833l.125-.017c-.083-.133-.15-.283-.216-.425l.05-.5c-.525-.617-.15-2.583-.075-3.667.058-.45.441-.916.733-1.65l-.175-.033c.333-.592 1.95-2.392 2.7-2.3.358-.458-.075 0-.15-.117.8-.825 1.05-.583 1.583-.733.584-.333-.5.133-.225-.125 1-.25.709-.583 2.017-.708.133.083-.325.116-.433.216.833-.408 2.625-.308 3.8.225 1.358.642 2.883 2.509 2.941 4.275l.067.017c-.033.708.108 1.517-.142 2.258l.167-.35.008.009zM9.95 13.025l-.042.233c.217.292.392.609.667.842-.2-.392-.35-.55-.625-1.083v.008zm.517-.025c-.117-.125-.184-.283-.259-.433.067.266.217.5.359.733l-.1-.3zm9.116-1.983l-.058.125a5.842 5.842 0 0 1-.575 1.841 5.488 5.488 0 0 0 .625-1.966h.008zM12.375 2.1c.225-.083.55-.042.792-.1-.309.025-.617.042-.917.083l.125.017zM4.508 6.283c.059.475-.358.667.092.35.25-.55-.092-.15-.083-.35h-.009zM3.983 8.5c.1-.325.125-.517.167-.7-.292.367-.142.442-.167.692" />
</svg>
