<svg
  width="24"
  height="24"
  viewBox="0 0 24 24"
  xmlns="http://www.w3.org/2000/svg"
>
  <path
    fill-rule="evenodd"
    clip-rule="evenodd"
    d="M5.676 3.433A1 1 0 0 1 6.5 3H21a1 1 0 0 1 1 1v16a1 1 0 0 1-1 1H6.5a1 1 0 0 1-.824-.433l-5.5-8a1 1 0 0 1 0-1.133l5.5-8zM7.026 5l-4.812 7 4.812 7H20V5H7.026zm2.267 3.293a1 1 0 0 1 1.414 0L13 10.586l2.293-2.293a1 1 0 1 1 1.414 1.414L14.414 12l2.293 2.293a1 1 0 0 1-1.414 1.414L13 13.414l-2.293 2.293a1 1 0 0 1-1.414-1.414L11.586 12 9.293 9.707a1 1 0 0 1 0-1.414z"
  />
</svg>
