<svg
  width="24"
  height="24"
  viewBox="0 0 24 24"
  xmlns="http://www.w3.org/2000/svg"
>
  <path
    fill-rule="evenodd"
    clip-rule="evenodd"
    d="M8.705 3.566a1 1 0 0 1 .969.262l5.267 5.314 4.269-1.144a3 3 0 0 1 1.553 5.795l-14.49 3.883a1 1 0 0 1-1.006-.303l-4.45-5.019a1 1 0 0 1 .488-1.63l2.898-.776a1 1 0 0 1 .759.1l2.09 1.207 1.218-.326-3.062-5.107a1 1 0 0 1 .599-1.48l2.898-.776zm-1.1 2.365l3.062 5.107a1 1 0 0 1-.599 1.48l-2.898.776a1 1 0 0 1-.758-.1L4.32 11.987l-.935.25 2.967 3.347 13.892-3.723a1 1 0 1 0-.518-1.931l-4.83 1.294a1 1 0 0 1-.968-.262L8.662 5.648l-1.057.283zM2 21a1 1 0 0 1 1-1h18a1 1 0 1 1 0 2H3a1 1 0 0 1-1-1z"
  />
</svg>
