<svg
  width="24"
  height="24"
  viewBox="0 0 24 24"
  xmlns="http://www.w3.org/2000/svg"
>
  <path d="M11.124 2.262a1.598 1.598 0 0 1 1.752 0l7.777 5.098c.451.295.722.798.722 1.337v6.606c0 .54-.272 1.042-.722 1.337l-7.777 5.098a1.598 1.598 0 0 1-1.752 0L3.347 16.64a1.596 1.596 0 0 1-.722-1.337V8.697c0-.54.272-1.042.722-1.337l7.777-5.098zm1.501 5.988v.625h-5A.625.625 0 0 0 7 9.5V12h-.417a.209.209 0 0 0-.208.208v2.084c0 .115.093.208.208.208H7v1.25c0 .346.28.625.625.625h8.75A.625.625 0 0 0 17 15.75V14.5h.417a.208.208 0 0 0 .208-.208v-2.084a.208.208 0 0 0-.208-.208H17V9.5a.625.625 0 0 0-.625-.625H13.25V6.583a.208.208 0 0 0-.208-.208h-1.459a.208.208 0 0 0-.208.208v1.459c0 .115.093.208.208.208h1.042zm2.738 4.24l-1.31 1.31a.252.252 0 0 1-.356 0l-.79-.788a.253.253 0 0 1 0-.357l.269-.268a.253.253 0 0 1 .357 0l.341.342.864-.863a.252.252 0 0 1 .357 0l.268.268a.252.252 0 0 1 0 .357zM9.887 13.8a.253.253 0 0 1-.357 0l-.79-.788a.252.252 0 0 1 0-.357l.27-.268a.252.252 0 0 1 .355 0l.343.342.864-.864a.253.253 0 0 1 .356 0l.269.268a.252.252 0 0 1 0 .357l-1.31 1.31z" />
</svg>
