<svg
  width="24"
  height="24"
  viewBox="0 0 24 24"
  xmlns="http://www.w3.org/2000/svg"
>
  <path d="M8.183 10.375c-.15-.133-.383-.192-.7-.192H7l.017 2.034.033 2.041.467-.016c.341 0 .525-.059.691-.217.2-.2.217-.3.217-1.833 0-1.592-.017-1.634-.242-1.817zM2 6.117v11.766h20V6.117H2zm7.133 8.633c-.366.483-.883.642-2.108.642h-1.1V9.108h1.167c1.391 0 1.8.15 2.166.75.225.359.242.5.267 2.142.042 1.858-.017 2.275-.392 2.75zm4.242-4.558h-2.058v1.475h1.266v1.066l-.6.034-.625.025v1.475l1.017.025 1 .033v1.067h-1.333c-1.275 0-1.334-.009-1.559-.25l-.25-.234v-2.633c0-2.517.009-2.65.209-2.9.191-.258.208-.258 1.566-.258h1.367V10.2v-.008zm3.9 4.541c-.142.359-.533.659-.833.659-.15 0-.375-.125-.559-.325-.266-.267-.375-.525-.683-1.734l-.75-2.825-.375-1.391h.633c.334 0 .625.016.625.041 0 .05.967 3.784 1.05 4.025.034.125.267-.583.609-1.916l.55-2.1.616-.034c.334-.016.609 0 .609.034 0 .116-1.392 5.316-1.5 5.566h.008z" />
</svg>
