<svg
  width="24"
  height="24"
  viewBox="0 0 24 24"
  xmlns="http://www.w3.org/2000/svg"
>
  <path d="M14.717 20.247l-1.944-2.714c-.518-.725-.939-1.289-.961-1.289-.023 0-.839 1.095-1.93 2.594-1.04 1.429-1.9 2.595-1.913 2.595-.027 0-3.748-2.62-3.758-2.647-.005-.014.837-1.248 1.868-2.744 1.033-1.496 1.878-2.742 1.878-2.772 0-.046-.34-.16-2.964-1.037l-2.993-1c-.025-.015.13-.533.66-2.208.384-1.205.704-2.2.713-2.212.012-.014 1.425.436 3.144 1.004 1.719.566 3.137 1.028 3.156 1.028.019 0 .039-.025.044-.058.009-.025.025-1.489.034-3.25.016-1.75.033-3.2.041-3.225.017-.025.5-.025 2.276-.025 1.236 0 2.26.012 2.277.025.02.013.054.988.113 3.15.092 3.562.092 3.612.15 3.612.021 0 1.384-.45 3.025-1.016 1.645-.55 2.994-1 3.005-.989.024.037 1.374 4.425 1.362 4.438-.014.013-1.39.487-3.05 1.05-2.3.775-3.04 1.037-3.04 1.075-.01.025.776 1.212 1.79 2.675a190.57 190.57 0 0 1 1.785 2.65c-.012.038-3.7 2.751-3.736 2.751-.012 0-.487-.638-1.037-1.412l.004-.056v.007z" />
</svg>
