<svg
  width="24"
  height="24"
  viewBox="0 0 24 24"
  xmlns="http://www.w3.org/2000/svg"
>
  <path d="M18.852 2c1.171 0 2.116.947 2.172 2.063V22l-2.23-1.894-1.226-1.115-1.337-1.165.559 1.837H5.092c-1.169 0-2.117-.887-2.117-2.063V4.067c0-1.115.95-2.065 2.12-2.065h13.75L18.853 2zm-5.099 4.736h-.025l-.168.167c1.727.5 2.563 1.28 2.563 1.28-1.113-.556-2.117-.835-3.12-.947-.725-.113-1.45-.053-2.062 0h-.167c-.392 0-1.225.167-2.342.612-.389.17-.612.28-.612.28s.835-.835 2.675-1.28l-.113-.113S8.99 6.682 7.485 7.793c0 0-1.504 2.62-1.504 5.85 0 0 .833 1.45 3.119 1.505 0 0 .333-.444.67-.835-1.283-.39-1.783-1.17-1.783-1.17s.112.055.28.167h.05c.025 0 .036.012.05.025v.005c.013.013.025.025.05.025.275.113.55.225.775.333.388.169.887.336 1.5.447.774.113 1.663.167 2.675 0 .5-.112 1-.223 1.5-.446.324-.166.724-.333 1.164-.614 0 0-.5.78-1.838 1.17.275.388.663.833.663.833 2.286-.05 3.175-1.5 3.225-1.438 0-3.225-1.513-5.85-1.513-5.85-1.362-1.012-2.637-1.05-2.862-1.05l.046-.017.001.003zm.14 3.677c.586 0 1.058.5 1.058 1.113 0 .617-.475 1.117-1.058 1.117-.583 0-1.058-.5-1.058-1.112.001-.617.477-1.115 1.058-1.115v-.003zm-3.786 0c.584 0 1.055.5 1.055 1.113 0 .617-.475 1.117-1.058 1.117-.583 0-1.058-.5-1.058-1.112 0-.617.475-1.115 1.058-1.115l.003-.003z" />
</svg>
