<svg
  width="24"
  height="24"
  viewBox="0 0 24 24"
  xmlns="http://www.w3.org/2000/svg"
  fill="none"
  stroke="currentColor"
  stroke-width="2"
  stroke-linecap="round"
  stroke-linejoin="round"
>
  <path d="M9 15l6-6" />
  <path d="M8.5 9a.5.5 0 1 0 0-1 .5.5 0 0 0 0 1z" />
  <path d="M15.5 16a.5.5 0 1 0 0-1 .5.5 0 0 0 0 1z" />
  <path d="M4.21 6.655A2.445 2.445 0 0 1 6.655 4.21h1.111c.646 0 1.265-.256 1.723-.711l.777-.778a2.445 2.445 0 0 1 3.468 0l.777.778c.458.455 1.077.71 1.723.711h1.111a2.445 2.445 0 0 1 2.445 2.445v1.111c0 .646.256 1.265.711 1.723l.778.777a2.445 2.445 0 0 1 0 3.468l-.778.777a2.444 2.444 0 0 0-.711 1.723v1.111a2.445 2.445 0 0 1-2.445 2.445h-1.111c-.646 0-1.265.256-1.723.711l-.777.778a2.445 2.445 0 0 1-3.468 0l-.777-.778a2.444 2.444 0 0 0-1.723-.711H6.655a2.445 2.445 0 0 1-2.445-2.445v-1.111c0-.646-.256-1.265-.711-1.723l-.778-.777a2.443 2.443 0 0 1 0-3.468l.778-.777c.455-.458.71-1.077.711-1.723V6.655" />
  <path d="M8.5 8.5h.01" />
  <path d="M15.5 15.5h.01" />
</svg>
