<svg
  width="24"
  height="24"
  viewBox="0 0 24 24"
  xmlns="http://www.w3.org/2000/svg"
>
  <path d="M8.879 10c-1.086 0-1.966.895-1.966 2 0 1.104.88 2 1.966 2 1.085 0 1.965-.896 1.965-2 0-1.105-.88-2-1.965-2z" />
  <path d="M14.775 10c-1.085 0-1.965.895-1.965 2 0 1.104.88 2 1.965 2s1.965-.896 1.965-2c0-1.105-.88-2-1.965-2z" />
  <path
    fill-rule="evenodd"
    clip-rule="evenodd"
    d="M13.863 3.63a.98.98 0 0 1 1.016-.624c1.542.167 3.25.518 4.88 1.674.169.12.296.29.365.487 1.004 2.895 1.556 5.43 1.77 7.477.21 2.01.108 3.664-.31 4.728-.01.025-.022.05-.034.076-.365.742-.918 1.592-1.609 2.271-.677.665-1.606 1.281-2.71 1.281-.348 0-.621-.159-.753-.245a2.914 2.914 0 0 1-.442-.363 6.55 6.55 0 0 1-.776-.944 7.326 7.326 0 0 1-.651-1.145 5.032 5.032 0 0 1-.111-.27c-1.8.288-3.53.29-5.328.002a7.346 7.346 0 0 1-.679 1.378c-.22.35-.468.687-.715.95a2.69 2.69 0 0 1-.422.374c-.223.164-.49.256-.767.263-1.086 0-1.987-.635-2.63-1.298-.66-.68-1.186-1.53-1.532-2.272a1.004 1.004 0 0 1-.031-.074c-.395-1.054-.493-2.7-.294-4.707.204-2.043.729-4.575 1.684-7.467a1 1 0 0 1 .351-.49c1.559-1.159 3.12-1.516 4.636-1.686a.98.98 0 0 1 1.02.623l.857 2.18a12.212 12.212 0 0 1 2.358 0l.857-2.18zM8.66 6.14l-.41-1.044c-.956.162-1.836.447-2.706 1.034-.85 2.641-1.31 4.918-1.49 6.72-.186 1.876-.06 3.133.162 3.76.277.581.68 1.213 1.14 1.688.381.394.724.601 1.008.673.133-.144.301-.366.47-.634a5.81 5.81 0 0 0 .382-.717c-.192-.05-.383-.103-.573-.159a1.003 1.003 0 0 1-.675-1.236.981.981 0 0 1 1.214-.687c3.263.95 6.024.95 9.287 0a.981.981 0 0 1 1.215.687 1.003 1.003 0 0 1-.675 1.236c-.183.054-.366.104-.547.152.11.224.251.462.407.69.165.243.352.47.56.678.332-.064.722-.284 1.146-.7.485-.477.907-1.11 1.197-1.689.229-.617.362-1.865.167-3.736-.188-1.798-.67-4.07-1.562-6.709-.941-.602-1.933-.892-2.973-1.056l-.412 1.048c.486.11.991.244 1.526.4.522.151.824.705.675 1.236a.98.98 0 0 1-1.215.687c-1.673-.487-2.927-.712-4.152-.712s-2.479.225-4.152.712a.98.98 0 0 1-1.215-.687 1.003 1.003 0 0 1 .675-1.237c.535-.155 1.04-.288 1.526-.399zm8.873 12.93l-.004-.004.004.003z"
  />
</svg>
