<svg
  width="24"
  height="24"
  viewBox="0 0 24 24"
  xmlns="http://www.w3.org/2000/svg"
>
  <path
    fill-rule="evenodd"
    clip-rule="evenodd"
    d="M16.032 17.446l6.26 6.261 1.415-1.414-22-22L.293 1.707 3.555 4.97a6.002 6.002 0 0 0-.034 8.024l8.478 8.492 4.033-4.039zm-1.414-1.414L4.972 6.387a4 4 0 0 0 .008 5.236L12 18.654l2.618-2.622z"
  />
  <path d="M20.479 12.993l-2.034 2.037-1.415-1.414 1.99-1.992a4 4 0 0 0-5.683-5.607l-1.335 1.198-1.336-1.197a3.974 3.974 0 0 0-2.228-.994L6.583 3.169A5.998 5.998 0 0 1 12 4.529a5.998 5.998 0 0 1 8.242.228 6 6 0 0 1 .236 8.236z" />
</svg>
