<svg
  width="24"
  height="24"
  viewBox="0 0 24 24"
  xmlns="http://www.w3.org/2000/svg"
>
  <g clip-path="url(#a)">
    <path
      fill-rule="evenodd"
      clip-rule="evenodd"
      d="M.293.293a1 1 0 0 1 1.414 0l22 22a1 1 0 0 1-1.414 1.414L16.5 17.914l-3.783 3.792a1 1 0 0 1-1.416 0L2.975 13.36a6.625 6.625 0 0 1-1.494-2.247 6.682 6.682 0 0 1 1.246-6.97L.293 1.707a1 1 0 0 1 0-1.414zm3.85 5.265a4.678 4.678 0 0 0 .238 6.379l.007.006 7.621 7.641 3.076-3.084L4.144 5.558zm2.88-2.623a1 1 0 0 1 1.082-.911l.144.013a6.505 6.505 0 0 1 3.764 1.734 6.505 6.505 0 0 1 6.425-1.433c.86.277 1.654.731 2.332 1.332a6.615 6.615 0 0 1 1.608 2.161 6.679 6.679 0 0 1-1.335 7.534.983.983 0 0 1-.07.063l-1.27 1.274a1 1 0 0 1-1.415-1.413l1.342-1.346a1 1 0 0 1 .069-.062c.416-.432.746-.943.97-1.504a4.68 4.68 0 0 0-.104-3.703 4.617 4.617 0 0 0-1.122-1.507 4.536 4.536 0 0 0-1.618-.925 4.489 4.489 0 0 0-3.614.38 4.574 4.574 0 0 0-1.399 1.242 1 1 0 0 1-1.609-.004 4.575 4.575 0 0 0-1.397-1.254 4.506 4.506 0 0 0-1.871-.59 1 1 0 0 1-.911-1.081z"
    />
  </g>
  <defs>
    <clipPath id="a">
      <rect width="24" height="24" />
    </clipPath>
  </defs>
</svg>
