<svg
  width="24"
  height="24"
  viewBox="0 0 24 24"
  xmlns="http://www.w3.org/2000/svg"
  fill="none"
  stroke="currentColor"
  stroke-width="2"
  stroke-linecap="round"
  stroke-linejoin="round"
>
  <path d="M4.55 4.55a5.65 5.65 0 0 0-1.076 1.682 6.204 6.204 0 0 0-.472 2.241 6.245 6.245 0 0 0 .366 2.266c.26.719.65 1.37 1.144 1.91L12.008 21l4.254-4.738" />
  <path d="M1 1l22 22" />
  <path d="M8.527 3.032a4.62 4.62 0 0 1 1.949.708c.6.385 1.12.905 1.532 1.528a5.234 5.234 0 0 1 1.535-1.515 4.618 4.618 0 0 1 1.945-.698c.684-.08 1.375 0 2.03.235.656.235 1.26.619 1.778 1.129a5.61 5.61 0 0 1 1.228 1.834 6.249 6.249 0 0 1 .114 4.494 5.713 5.713 0 0 1-1.134 1.91m0-.008l-.877.978" />
</svg>
