<svg
  width="24"
  height="24"
  viewBox="0 0 24 24"
  xmlns="http://www.w3.org/2000/svg"
>
  <path d="M13.652 11.232h1.766a.155.155 0 0 0 .155-.154V9.505a.155.155 0 0 0-.155-.155h-1.765a.154.154 0 0 0-.155.154v1.574c0 .085.07.154.155.154zm-2.461-4.525h1.765a.155.155 0 0 0 .155-.155V4.978a.155.155 0 0 0-.155-.154H11.19a.154.154 0 0 0-.154.154v1.574c0 .085.068.154.154.154zm0 2.262h1.765a.156.156 0 0 0 .155-.155V7.242a.155.155 0 0 0-.155-.155H11.19a.154.154 0 0 0-.154.155v1.572c0 .085.068.154.154.155zm-2.442 0h1.767a.155.155 0 0 0 .153-.155V7.242a.154.154 0 0 0-.154-.155H8.75a.154.154 0 0 0-.154.155v1.572c0 .085.069.154.154.155zm-2.469 0h1.766a.155.155 0 0 0 .154-.155V7.242a.154.154 0 0 0-.154-.155H6.28a.155.155 0 0 0-.155.155v1.572c0 .085.07.154.155.155zm4.91 2.263h1.766a.155.155 0 0 0 .155-.154V9.505a.155.155 0 0 0-.155-.155H11.19a.154.154 0 0 0-.154.154v1.574c0 .085.068.154.154.154zm-2.44 0h1.766a.154.154 0 0 0 .153-.154V9.505a.155.155 0 0 0-.094-.143.154.154 0 0 0-.06-.012H8.75a.154.154 0 0 0-.153.154v1.574c0 .085.069.154.154.154zm-2.47 0h1.766a.154.154 0 0 0 .154-.154V9.505a.154.154 0 0 0-.153-.155H6.28a.155.155 0 0 0-.155.155v1.572c0 .085.07.155.155.155zm-2.433 0h1.766a.154.154 0 0 0 .154-.154V9.505a.154.154 0 0 0-.154-.155H3.847a.154.154 0 0 0-.154.154v1.574c0 .085.069.154.155.154h-.001zm17.956-.99c-.055-.043-.56-.425-1.629-.425-.282 0-.563.025-.841.072-.207-1.417-1.378-2.108-1.43-2.138l-.287-.166-.189.272a3.836 3.836 0 0 0-.51 1.192c-.191.808-.075 1.569.336 2.218-.495.276-1.291.344-1.453.35H2.626A.626.626 0 0 0 2 12.24a9.48 9.48 0 0 0 .577 3.385c.454 1.19 1.129 2.067 2.008 2.603.983.603 2.583.948 4.396.948.819.002 1.636-.072 2.441-.222a10.208 10.208 0 0 0 3.186-1.157 8.76 8.76 0 0 0 2.175-1.78c1.044-1.182 1.665-2.498 2.128-3.667h.184c1.143 0 1.846-.457 2.233-.84a2.44 2.44 0 0 0 .59-.873l.081-.24-.198-.155z" />
</svg>
