<svg
  width="24"
  height="24"
  viewBox="0 0 24 24"
  xmlns="http://www.w3.org/2000/svg"
>
  <path
    fill-rule="evenodd"
    clip-rule="evenodd"
    d="M2 3a1 1 0 0 1 1-1h.01a1 1 0 0 1 0 2H3a1 1 0 0 1-1-1zm4 0a1 1 0 0 1 1-1h.01a1 1 0 0 1 0 2H7a1 1 0 0 1-1-1zm4 0a1 1 0 0 1 1-1h.01a1 1 0 1 1 0 2H11a1 1 0 0 1-1-1zm4 0a1 1 0 0 1 1-1h.01a1 1 0 1 1 0 2H15a1 1 0 0 1-1-1zM2 7a1 1 0 0 1 1-1h.01a1 1 0 0 1 0 2H3a1 1 0 0 1-1-1zm13-1a1 1 0 0 1 1 1v1h5a1 1 0 0 1 1 1v12a1 1 0 0 1-1 1H9a1 1 0 0 1-1-1v-5H7a1 1 0 1 1 0-2h1V9a1 1 0 0 1 1-1h5V7a1 1 0 0 1 1-1zm-5 4v10h10V10H10zm-8 1a1 1 0 0 1 1-1h.01a1 1 0 1 1 0 2H3a1 1 0 0 1-1-1zm0 4a1 1 0 0 1 1-1h.01a1 1 0 1 1 0 2H3a1 1 0 0 1-1-1z"
  />
</svg>
