<svg
  width="24"
  height="24"
  viewBox="0 0 24 24"
  xmlns="http://www.w3.org/2000/svg"
>
  <path
    fill-rule="evenodd"
    clip-rule="evenodd"
    d="M11.293 2.293a1 1 0 0 1 1.414 0l3 3a1 1 0 0 1-1.414 1.414L12 4.414 9.707 6.707a1 1 0 0 1-1.414-1.414l3-3zm-4.586 6a1 1 0 0 1 0 1.414L4.414 12l2.293 2.293a1 1 0 1 1-1.414 1.414l-3-3a1 1 0 0 1 0-1.414l3-3a1 1 0 0 1 1.414 0zm10.586 0a1 1 0 0 1 1.414 0l3 3a1 1 0 0 1 0 1.414l-3 3a1 1 0 0 1-1.414-1.414L19.586 12l-2.293-2.293a1 1 0 0 1 0-1.414zM10 12a2 2 0 1 1 4 0 2 2 0 0 1-4 0zm-1.707 5.293a1 1 0 0 1 1.414 0L12 19.586l2.293-2.293a1 1 0 0 1 1.414 1.414l-3 3a1 1 0 0 1-1.414 0l-3-3a1 1 0 0 1 0-1.414z"
  />
</svg>
