<svg
  width="24"
  height="24"
  viewBox="0 0 24 24"
  xmlns="http://www.w3.org/2000/svg"
>
  <path d="M12 22C6.487 22 2 17.512 2 12 2 6.487 6.487 2 12 2c5.512 0 10 4.487 10 10 0 5.512-4.488 10-10 10zm8.433-8.632c-.291-.091-2.641-.794-5.32-.365 1.117 3.07 1.573 5.57 1.66 6.09a8.567 8.567 0 0 0 3.663-5.725h-.003zm-5.095 6.507c-.128-.75-.625-3.36-1.825-6.475l-.056.017c-4.825 1.679-6.55 5.02-6.7 5.333A8.468 8.468 0 0 0 12 20.555a8.48 8.48 0 0 0 3.333-.678l.005-.002zm-9.684-2.15c.194-.333 2.538-4.213 6.944-5.638.112-.037.224-.07.337-.1-.217-.487-.45-.972-.693-1.45-4.267 1.275-8.404 1.221-8.779 1.213l-.003.26c0 2.194.832 4.197 2.195 5.713v.002zm-2.016-7.463c.383.007 3.902.022 7.897-1.04a54.56 54.56 0 0 0-3.167-4.94 8.563 8.563 0 0 0-4.73 5.976v.005zM10 3.71a45.577 45.577 0 0 1 3.185 5c3.037-1.138 4.325-2.867 4.478-3.085A8.491 8.491 0 0 0 12 3.47a8.56 8.56 0 0 0-2 .237v.003zm8.613 2.902C18.43 6.854 17 8.69 13.843 9.98c.2.409.391.821.566 1.239.067.15.125.3.183.441 2.842-.358 5.667.217 5.95.275a8.453 8.453 0 0 0-1.925-5.316l-.005-.006z" />
</svg>
