<svg
  width="24"
  height="24"
  viewBox="0 0 24 24"
  xmlns="http://www.w3.org/2000/svg"
  fill="none"
  stroke="currentColor"
  stroke-width="2"
  stroke-linecap="round"
  stroke-linejoin="round"
>
  <path d="M10 10h4v4h-4v-4z" />
  <path d="M10 10L6.5 6.5" />
  <path d="M9.96 6A3.5 3.5 0 1 0 6 9.96" />
  <path d="M14 10l3.5-3.5" />
  <path d="M18 9.96A3.5 3.5 0 1 0 14.04 6" />
  <path d="M14 14l3.5 3.5" />
  <path d="M14.04 18A3.5 3.5 0 1 0 18 14.04" />
  <path d="M10 14l-3.5 3.5" />
  <path d="M6 14.04A3.5 3.5 0 1 0 9.96 18" />
</svg>
