<svg
  width="24"
  height="24"
  viewBox="0 0 24 24"
  xmlns="http://www.w3.org/2000/svg"
>
  <path
    fill-rule="evenodd"
    clip-rule="evenodd"
    d="M6.5 4a2.5 2.5 0 0 0 0 5H7v2h-.5A4.5 4.5 0 1 1 11 6.5V7H9v-.5A2.5 2.5 0 0 0 6.5 4zM13 6.5a4.5 4.5 0 1 1 4.5 4.5H17V9h.5A2.5 2.5 0 1 0 15 6.5V7h-2v-.5zM10.414 9L7.207 5.793 5.793 7.207 9 10.414v3.172l-3.207 3.207 1.414 1.414L10.414 15h3.172l3.207 3.207 1.414-1.414L15 13.586v-3.172l3.207-3.207-1.414-1.414L13.586 9h-3.172zM11 11v2h2v-2h-2zm-9 6.5A4.5 4.5 0 0 1 6.5 13H7v2h-.5A2.5 2.5 0 1 0 9 17.5V17h2v.5a4.5 4.5 0 1 1-9 0zM17 13h.5a4.5 4.5 0 1 1-4.5 4.5V17h2v.5a2.5 2.5 0 1 0 2.5-2.5H17v-2z"
  />
</svg>
