<svg
  width="24"
  height="24"
  viewBox="0 0 24 24"
  xmlns="http://www.w3.org/2000/svg"
  fill="none"
  stroke="currentColor"
  stroke-width="2"
  stroke-linecap="round"
  stroke-linejoin="round"
>
  <path d="M1 1l22 22" />
  <path d="M7.642 7.642L7 8.326a7.628 7.628 0 0 0-1.876 3.82 7.907 7.907 0 0 0 .423 4.286 7.37 7.37 0 0 0 2.579 3.322A6.699 6.699 0 0 0 12 21a6.699 6.699 0 0 0 3.874-1.246 7.236 7.236 0 0 0 1.894-1.986" />
  <path d="M10.063 5.063L12 3l5 5.326a7.628 7.628 0 0 1 1.876 3.82c.11.61.146 1.228.112 1.842" />
</svg>
