<svg
  width="24"
  height="24"
  viewBox="0 0 24 24"
  xmlns="http://www.w3.org/2000/svg"
>
  <g clip-path="url(#a)">
    <path
      fill-rule="evenodd"
      clip-rule="evenodd"
      d="M.293.293a1 1 0 0 1 1.414 0l22 22a1 1 0 0 1-1.414 1.414l-4.42-4.42a8.135 8.135 0 0 1-1.421 1.283A7.699 7.699 0 0 1 12 22c-1.59 0-3.139-.5-4.452-1.43a8.37 8.37 0 0 1-2.932-3.77 8.907 8.907 0 0 1-.476-4.831 8.63 8.63 0 0 1 2.11-4.305L.293 1.707a1 1 0 0 1 0-1.414zM7.666 9.08a6.638 6.638 0 0 0-1.557 3.242 6.907 6.907 0 0 0 .368 3.743 6.37 6.37 0 0 0 2.227 2.873A5.698 5.698 0 0 0 12 20a5.698 5.698 0 0 0 3.296-1.062 6.148 6.148 0 0 0 1.158-1.07L7.666 9.08zM12 2a1 1 0 0 1 .73.316l5.006 5.333a8.628 8.628 0 0 1 2.124 4.32c.123.687.165 1.384.126 2.075a1 1 0 1 1-1.997-.112 6.928 6.928 0 0 0-.098-1.61 6.628 6.628 0 0 0-1.624-3.316L12 4.461l-1.208 1.287a1 1 0 0 1-1.458-1.37l1.937-2.062A1 1 0 0 1 12 2z"
    />
  </g>
  <defs>
    <clipPath id="a">
      <rect width="24" height="24" />
    </clipPath>
  </defs>
</svg>
