<svg
  width="24"
  height="24"
  viewBox="0 0 24 24"
  xmlns="http://www.w3.org/2000/svg"
>
  <path
    fill-rule="evenodd"
    clip-rule="evenodd"
    d="M12 2a1 1 0 0 1 .73.316l5.006 5.333a8.627 8.627 0 0 1 2.124 4.32 8.906 8.906 0 0 1-.476 4.83 8.37 8.37 0 0 1-2.932 3.771A7.698 7.698 0 0 1 12 22c-1.59 0-3.139-.5-4.452-1.43a8.37 8.37 0 0 1-2.932-3.77 8.906 8.906 0 0 1-.476-4.831 8.628 8.628 0 0 1 2.124-4.32l.007-.008 5-5.325A1 1 0 0 1 12 2zM7.733 9.006a6.629 6.629 0 0 0-1.624 3.316 6.907 6.907 0 0 0 .368 3.743 6.37 6.37 0 0 0 2.227 2.873A5.698 5.698 0 0 0 12 20a5.698 5.698 0 0 0 3.296-1.062 6.37 6.37 0 0 0 2.227-2.873 6.907 6.907 0 0 0 .368-3.743 6.628 6.628 0 0 0-1.624-3.316L12 4.461 7.733 9.006z"
  />
</svg>
