<svg
  width="24"
  height="24"
  viewBox="0 0 24 24"
  xmlns="http://www.w3.org/2000/svg"
  fill="none"
  stroke="currentColor"
  stroke-width="2"
  stroke-linecap="round"
  stroke-linejoin="round"
>
  <path d="M5 9.784a7.6 7.6 0 0 1 .83-3.457A7.83 7.83 0 0 1 8.154 3.59a8.112 8.112 0 0 1 3.333-1.449 8.222 8.222 0 0 1 3.648.142 8.07 8.07 0 0 1 3.204 1.703 7.78 7.78 0 0 1 2.091 2.91 7.58 7.58 0 0 1-.573 6.888 11.307 11.307 0 0 1-2.286 2.223 8.877 8.877 0 0 0-2.285 3.333 5.039 5.039 0 0 1-1.46 1.66c-.61.444-1.31.75-2.049.898a5.286 5.286 0 0 1-2.247-.037 5.202 5.202 0 0 1-2.016-.966" />
  <path d="M9 10.059a4.02 4.02 0 0 1 1.794-3.394 3.993 3.993 0 0 1 5.373.896 4.017 4.017 0 0 1-.5 5.439" />
</svg>
