<svg width="24" height="24" viewBox="0 0 24 24" fill="none" xmlns="http://www.w3.org/2000/svg">
<path d="M5 9.78359C4.99903 8.58462 5.2832 7.40167 5.83031 6.32714C6.37743 5.25261 7.17268 4.31561 8.15394 3.58932C9.1352 2.86304 10.2759 2.36714 11.4869 2.14038C12.6979 1.91361 13.9465 1.96211 15.135 2.28209C16.3236 2.60207 17.4199 3.18486 18.3385 3.98494C19.257 4.78502 19.9728 5.78073 20.43 6.89427C20.8872 8.00781 21.0734 9.20903 20.974 10.4041C20.8746 11.5992 20.4924 12.7557 19.8571 13.7834C19.2074 14.6257 18.4378 15.3738 17.5714 16.0055C16.5586 16.933 15.7768 18.073 15.2857 19.3387C14.9311 19.9903 14.4326 20.5575 13.826 20.9998C13.2195 21.4422 12.5198 21.7486 11.7771 21.8973C11.0345 22.0459 10.2672 22.0331 9.53021 21.8597C8.79324 21.6863 8.10483 21.3566 7.51429 20.8942" stroke="#1E293B" stroke-width="2" stroke-linecap="round" stroke-linejoin="round"/>
<path d="M9.00029 10.0588C8.99228 9.38776 9.15231 8.72548 9.4657 8.13257C9.7791 7.53966 10.2359 7.03507 10.7941 6.66501C11.3524 6.29495 11.9943 6.07126 12.6612 6.01442C13.328 5.95757 13.9984 6.0694 14.611 6.33965C15.2235 6.60991 15.7587 7.02995 16.1674 7.56131C16.5761 8.09266 16.8453 8.71836 16.9504 9.38107C17.0555 10.0438 16.993 10.7223 16.7688 11.3546C16.5446 11.9869 16.1657 12.5526 15.667 13" stroke="#1E293B" stroke-width="2" stroke-linecap="round" stroke-linejoin="round"/>
</svg>
