<svg
  width="24"
  height="24"
  viewBox="0 0 24 24"
  xmlns="http://www.w3.org/2000/svg"
>
  <path
    fill-rule="evenodd"
    clip-rule="evenodd"
    d="M13.574 3.238a5.323 5.323 0 0 0-2.689-.12 5.686 5.686 0 0 0-2.48 1.235A6.658 6.658 0 0 0 6.64 6.734 7.494 7.494 0 0 0 6 9.783v1l-2 .001v-1a9.494 9.494 0 0 1 .813-3.864 8.657 8.657 0 0 1 2.3-3.094 7.685 7.685 0 0 1 3.354-1.663 7.323 7.323 0 0 1 3.695.163c1.202.37 2.3 1.04 3.215 1.95a8.838 8.838 0 0 1 2.065 3.28 9.566 9.566 0 0 1 .533 3.92 9.395 9.395 0 0 1-1.095 3.783.978.978 0 0 1-.051.084 11.632 11.632 0 0 1-2.143 2.392 8.021 8.021 0 0 0-1.74 2.925.99.99 0 0 1-.043.109 5.896 5.896 0 0 1-1.54 1.999 5.3 5.3 0 0 1-2.21 1.104 5.063 5.063 0 0 1-2.449-.047 5.338 5.338 0 0 1-2.17-1.186l-.746-.666 1.334-1.49.745.666c.405.362.869.614 1.357.745.487.131.993.14 1.483.029.49-.113.961-.346 1.376-.691.402-.335.742-.768.99-1.275a10.003 10.003 0 0 1 2.204-3.642.993.993 0 0 1 .083-.078 9.62 9.62 0 0 0 1.783-1.972c.473-.89.761-1.893.837-2.934a7.567 7.567 0 0 0-.42-3.099 6.836 6.836 0 0 0-1.594-2.538 5.827 5.827 0 0 0-2.392-1.456zM12.77 7.59a1.735 1.735 0 0 0-.93-.173 1.81 1.81 0 0 0-.902.351 2.236 2.236 0 0 0-.685.844A2.635 2.635 0 0 0 10 9.773l.01 1-2 .021-.01-1a4.635 4.635 0 0 1 .447-2.042 4.235 4.235 0 0 1 1.306-1.595 3.81 3.81 0 0 1 1.899-.73 3.735 3.735 0 0 1 1.995.367 4.07 4.07 0 0 1 1.55 1.344 4.53 4.53 0 0 1 .756 1.94c.1.7.04 1.417-.174 2.087a4.376 4.376 0 0 1-1.074 1.772l-.71.705-1.41-1.418.71-.705c.255-.254.457-.583.579-.963.122-.38.156-.792.099-1.194a2.532 2.532 0 0 0-.42-1.084 2.07 2.07 0 0 0-.784-.687z"
  />
</svg>
