<svg
  width="24"
  height="24"
  viewBox="0 0 24 24"
  xmlns="http://www.w3.org/2000/svg"
  fill="none"
  stroke="currentColor"
  stroke-width="2"
  stroke-linecap="round"
  stroke-linejoin="round"
>
  <path d="M12 21a9 9 0 1 0 0-18 9 9 0 0 0 0 18z" />
  <path d="M4.649 17.193l1.066-.644a.659.659 0 0 0 .308-.68l-.606-3.351a.658.658 0 0 1 .069-.43l1.002-1.853a.66.66 0 0 1 .166-.2L8.187 8.8a.659.659 0 0 1 .73-.064l.675.37c.14.077.247.202.301.351l.13.351a.66.66 0 0 0 1.19.1l.443-.78a.659.659 0 0 1 .93-.227l1.35.872a.66.66 0 0 0 .995-.722.658.658 0 0 1 .353-.763l1.862-.889a.66.66 0 0 0 .364-.714l-.384-2.082" />
  <path d="M17.947 18.755l-1.366-1.368a.66.66 0 0 0-.466-.194h-1.072a.657.657 0 0 1-.652-.754l.223-1.516a.656.656 0 0 1 .347-.488l2.237-1.167a.657.657 0 0 1 .743.092l2.366 2.108" />
</svg>
