<svg width="24" height="24" viewBox="0 0 24 24" fill="none" xmlns="http://www.w3.org/2000/svg">
<path d="M12 21C13.1819 21 14.3522 20.7672 15.4442 20.3149C16.5361 19.8626 17.5282 19.1997 18.364 18.364C19.1997 17.5282 19.8626 16.5361 20.3149 15.4442C20.7672 14.3522 21 13.1819 21 12C21 10.8181 20.7672 9.64778 20.3149 8.55585C19.8626 7.46392 19.1997 6.47177 18.364 5.63604C17.5282 4.80031 16.5361 4.13738 15.4442 3.68508C14.3522 3.23279 13.1819 3 12 3C9.61305 3 7.32387 3.94821 5.63604 5.63604C3.94821 7.32387 3 9.61305 3 12C3 14.3869 3.94821 16.6761 5.63604 18.364C7.32387 20.0518 9.61305 21 12 21V21Z" stroke="white" stroke-width="2" stroke-linecap="round" stroke-linejoin="round"/>
<path d="M4.649 17.193L5.715 16.549C5.82908 16.4801 5.91958 16.3782 5.97457 16.2568C6.02956 16.1354 6.04644 16.0002 6.023 15.869L5.417 12.518C5.39053 12.371 5.41486 12.2194 5.486 12.088L6.488 10.235C6.52951 10.158 6.58594 10.09 6.654 10.035L8.187 8.80003C8.28868 8.7183 8.41233 8.6686 8.54229 8.6572C8.67224 8.64581 8.80265 8.67324 8.917 8.73603L9.592 9.10603C9.732 9.18303 9.839 9.30803 9.893 9.45703L10.023 9.80803C10.0664 9.92567 10.1424 10.0285 10.2421 10.1045C10.3419 10.1804 10.4612 10.2263 10.5862 10.2368C10.7111 10.2473 10.8364 10.222 10.9475 10.1637C11.0585 10.1055 11.1506 10.0168 11.213 9.90803L11.656 9.12803C11.7004 9.0502 11.7602 8.98225 11.8318 8.92831C11.9033 8.87438 11.9851 8.83561 12.0721 8.81436C12.1592 8.79312 12.2497 8.78985 12.338 8.80475C12.4264 8.81965 12.5107 8.85241 12.586 8.90103L13.936 9.77303C14.0477 9.84528 14.1786 9.88204 14.3116 9.87849C14.4446 9.87493 14.5733 9.83122 14.681 9.7531C14.7886 9.67497 14.8701 9.5661 14.9148 9.4408C14.9594 9.31549 14.9651 9.17961 14.931 9.05103C14.8916 8.90264 14.9053 8.74514 14.9698 8.6058C15.0342 8.46646 15.1454 8.35405 15.284 8.28803L17.146 7.39903C17.2767 7.33657 17.3832 7.23279 17.449 7.10372C17.5148 6.97465 17.5362 6.8275 17.51 6.68503L17.126 4.60303" stroke="white" stroke-width="2" stroke-linecap="round" stroke-linejoin="round"/>
<path d="M17.947 18.7548L16.581 17.3868C16.5199 17.3255 16.4473 17.2767 16.3673 17.2434C16.2873 17.2102 16.2016 17.193 16.115 17.1928H15.043C14.9484 17.193 14.8549 17.1727 14.7688 17.1334C14.6827 17.0942 14.6061 17.0368 14.5442 16.9652C14.4824 16.8937 14.4366 16.8096 14.4102 16.7187C14.3837 16.6279 14.3772 16.5324 14.391 16.4388L14.614 14.9228C14.6291 14.8198 14.6684 14.7219 14.7288 14.6371C14.7891 14.5522 14.8687 14.4829 14.961 14.4348L17.198 13.2678C17.3165 13.2058 17.4511 13.1814 17.5839 13.1979C17.7166 13.2143 17.8412 13.2708 17.941 13.3598L20.307 15.4678" stroke="white" stroke-width="2" stroke-linecap="round" stroke-linejoin="round"/>
</svg>
