<svg width="24" height="24" viewBox="0 0 24 24" fill="none" xmlns="http://www.w3.org/2000/svg">
<path d="M12 21C16.9706 21 21 16.9706 21 12C21 7.02944 16.9706 3 12 3C7.02944 3 3 7.02944 3 12C3 16.9706 7.02944 21 12 21Z" stroke="#1E293B" stroke-width="2" stroke-miterlimit="10"/>
<path d="M20.0779 15.9723L14.9886 12.8422C14.8994 12.7873 14.7997 12.7517 14.6959 12.7377L12.5566 12.4494C12.396 12.4277 12.2327 12.4587 12.0911 12.5376C11.9495 12.6166 11.8374 12.7393 11.7714 12.8873L10.4871 15.769C10.4274 15.9031 10.4083 16.0516 10.4322 16.1964C10.4561 16.3412 10.5219 16.4758 10.6215 16.5835L12.384 18.4899C12.4639 18.5763 12.5223 18.6803 12.5546 18.7935C12.5868 18.9067 12.592 19.0259 12.5696 19.1414L12.2106 20.9974" stroke="#1E293B" stroke-width="2" stroke-linecap="round" stroke-linejoin="round"/>
<path d="M6.08928 5.21313L5.25076 7.19592C5.17599 7.37272 5.17186 7.57145 5.23921 7.7512L6.31648 10.6263C6.36059 10.7441 6.4336 10.8488 6.52878 10.931C6.62397 11.0131 6.73827 11.07 6.8612 11.0964L8.87025 11.5283C8.98173 11.5522 9.08628 11.6013 9.17595 11.6717C9.26562 11.7421 9.33805 11.8321 9.38773 11.9347L9.74451 12.6718C9.8059 12.7986 9.9018 12.9056 10.0212 12.9805C10.1406 13.0553 10.2787 13.095 10.4196 13.095H11.6789" stroke="#1E293B" stroke-width="2" stroke-linecap="round" stroke-linejoin="round"/>
<path d="M14.2929 3.29517L15.168 4.86252C15.2507 5.01068 15.2807 5.18253 15.2531 5.34997C15.2256 5.51741 15.142 5.67055 15.0162 5.78437L12.4933 8.06602C12.4505 8.10474 12.4033 8.13839 12.3528 8.1663L11.2051 8.80008C11.0941 8.86139 10.9694 8.89354 10.8426 8.89354H8.84142C8.69385 8.89354 8.54956 8.93708 8.42661 9.0187C8.30367 9.10031 8.20753 9.21639 8.15024 9.35239L7.36957 11.2057" stroke="#1E293B" stroke-width="2" stroke-linecap="round" stroke-linejoin="round"/>
</svg>
