<svg
  width="24"
  height="24"
  viewBox="0 0 24 24"
  xmlns="http://www.w3.org/2000/svg"
>
  <path d="M20.217 16.883c.077 0 .147.034.208.1a.345.345 0 0 1 .083.209c0 .066-.03.158-.091.275l-.267.383-.358.442-.367.416a5.542 5.542 0 0 1-.317.35l-.183.192a10.455 10.455 0 0 1-2.45 1.625c-.478.222-.961.4-1.45.533-.489.134-.953.2-1.392.2-.5 0-.97-.077-1.408-.233a4.68 4.68 0 0 1-1.233-.65 5.439 5.439 0 0 1-1.017-.975 6.68 6.68 0 0 1-.767-1.2 6.384 6.384 0 0 1-.483-1.333 5.92 5.92 0 0 1-.167-1.392c0-.555.09-1.1.267-1.633a6.687 6.687 0 0 1 .725-1.5c.078.527.23 1.02.458 1.475.228.455.511.872.85 1.25.334.377.717.714 1.15 1.008.434.3.89.55 1.367.75.478.2.97.356 1.475.467a7.05 7.05 0 0 0 1.5.166c.622 0 1.228-.066 1.817-.2a7.509 7.509 0 0 0 1.716-.6l.167-.083.167-.042zM7.3 15.825c0 .611.075 1.208.225 1.792.15.589.367 1.152.65 1.691a7.338 7.338 0 0 0 1.033 1.475c.411.456.873.845 1.384 1.167a9.63 9.63 0 0 1-2.334-.617 10.377 10.377 0 0 1-2.066-1.141 10.192 10.192 0 0 1-1.734-1.584 10.296 10.296 0 0 1-1.316-1.941A9.97 9.97 0 0 1 2.3 14.45c-.2-.778-.3-1.578-.3-2.4 0-.45.089-.864.267-1.242.172-.377.402-.72.691-1.025a5.021 5.021 0 0 1 1-.8 6.786 6.786 0 0 1 1.125-.55c.411-.15.828-.258 1.25-.325a8.485 8.485 0 0 1 2.475-.016 7.465 7.465 0 0 1 2.267.766c.35.195.672.425.967.692-.195 0-.39.02-.584.058a2.254 2.254 0 0 0-.541.192v-.017a4.5 4.5 0 0 0-1 .617 6.137 6.137 0 0 0-.875.867 7.473 7.473 0 0 0-.725 1.05 8.131 8.131 0 0 0-.542 1.158c-.15.395-.267.795-.35 1.2a5.64 5.64 0 0 0-.125 1.15zM11.967 2.05c.944 0 1.87.108 2.775.325.905.211 1.758.53 2.558.958a9.716 9.716 0 0 1 2.183 1.609 8.846 8.846 0 0 1 1.65 2.25c.273.522.484 1.066.634 1.633A6.4 6.4 0 0 1 22 10.558c0 .495-.064.967-.192 1.417a4.633 4.633 0 0 1-.575 1.233c-.25.378-.555.717-.916 1.017a4.977 4.977 0 0 1-1.209.733c-.3.134-.608.234-.925.3a4.408 4.408 0 0 1-.966.109c-.234 0-.503-.009-.809-.025-.3-.017-.605-.05-.916-.1a5.455 5.455 0 0 1-.875-.234 2.17 2.17 0 0 1-.7-.416.947.947 0 0 1-.192-.2.512.512 0 0 1-.083-.275c0-.084.044-.18.133-.292.089-.111.186-.25.292-.417a2.7 2.7 0 0 0 .3-.566c.089-.223.133-.486.133-.792 0-.589-.111-1.133-.333-1.633a5.061 5.061 0 0 0-.884-1.367 5.868 5.868 0 0 0-1.266-1.067 7.618 7.618 0 0 0-1.492-.741 7.981 7.981 0 0 0-1.433-.367 9.217 9.217 0 0 0-1.467-.117c-.861 0-1.711.125-2.55.375a7.134 7.134 0 0 0-2.292 1.159c.395-.967.898-1.836 1.509-2.609a9.602 9.602 0 0 1 2.1-1.958 9.41 9.41 0 0 1 2.583-1.242 10.143 10.143 0 0 1 2.983-.433h.009z" />
</svg>
