<svg width="24" height="24" viewBox="0 0 24 24" fill="none" xmlns="http://www.w3.org/2000/svg">
<path d="M5.014 14.265C5.014 17.985 8.142 21 12 21C15.858 21 18.986 17.985 18.986 14.265C19.0642 12.5225 18.7957 10.7818 18.1961 9.14384C17.5965 7.50587 16.6777 6.00322 15.493 4.72301C15.0865 4.18545 14.5598 3.75052 13.955 3.45301C13.347 3.15333 12.6779 2.9983 12 3.00001C11.3221 2.9983 10.653 3.15333 10.045 3.45301C9.44006 3.75024 8.91328 4.18522 8.507 4.72301C7.32234 6.00325 6.40358 7.5059 5.80398 9.14386C5.20437 10.7818 4.93586 12.5225 5.014 14.265" stroke="white" stroke-width="2" stroke-linecap="round" stroke-linejoin="round"/>
</svg>
