<svg
  width="24"
  height="24"
  viewBox="0 0 24 24"
  xmlns="http://www.w3.org/2000/svg"
>
  <path
    fill-rule="evenodd"
    clip-rule="evenodd"
    d="M12 2a5.397 5.397 0 0 1 2.398.556A5.32 5.32 0 0 1 16.26 4.08a14.18 14.18 0 0 1 3.725 10.208C19.973 18.583 16.368 22 12 22s-7.973-3.417-7.986-7.712A14.179 14.179 0 0 1 7.74 4.08a5.319 5.319 0 0 1 1.862-1.524A5.397 5.397 0 0 1 12 2zm-.002 2a3.397 3.397 0 0 0-1.51.35c-.469.23-.873.565-1.183.975-.02.026-.04.051-.063.075a12.18 12.18 0 0 0-3.228 8.865C6.014 17.398 8.659 20 12 20c3.34 0 5.986-2.602 5.986-5.735l.001-.046a12.18 12.18 0 0 0-3.23-8.819.992.992 0 0 1-.062-.075 3.318 3.318 0 0 0-1.182-.976A3.397 3.397 0 0 0 12.003 4h-.005z"
  />
</svg>
