<svg width="24" height="24" viewBox="0 0 24 24" fill="none" xmlns="http://www.w3.org/2000/svg">
<path fill-rule="evenodd" clip-rule="evenodd" d="M12 3C12.3263 3 12.6321 3.15921 12.8192 3.42654L19.8192 13.4265C20.0331 13.732 20.0592 14.1311 19.887 14.4618C19.7148 14.7925 19.3729 15 19 15H5C4.62713 15 4.28522 14.7925 4.11302 14.4618C3.94083 14.1311 3.96694 13.732 4.18077 13.4265L11.1808 3.42654C11.3679 3.15921 11.6737 3 12 3ZM6.92066 13H17.0793L12 5.74379L6.92066 13ZM4 18C4 17.4477 4.44772 17 5 17H19C19.5523 17 20 17.4477 20 18C20 18.5523 19.5523 19 19 19H5C4.44772 19 4 18.5523 4 18Z" fill="black"/>
</svg>
