<svg
  width="24"
  height="24"
  viewBox="0 0 24 24"
  xmlns="http://www.w3.org/2000/svg"
>
  <path d="M4.207 11.732c-.865-1.509-1.041-2.92-.426-3.984.823-1.427 2.89-1.925 5.503-1.45a.268.268 0 1 1-.096.528c-2.416-.44-4.259.004-4.943 1.19-.504.872-.353 2.09.427 3.45a.268.268 0 1 1-.465.267v-.001zM16.64 6.674c1.53.02 2.63.497 3.126 1.355.683 1.183.15 2.996-1.432 4.864a.27.27 0 0 0 .224.453.27.27 0 0 0 .184-.106c1.712-2.022 2.31-4.055 1.488-5.48-.605-1.047-1.883-1.6-3.582-1.622a.268.268 0 1 0-.007.536h-.001zm-1.545 12.7a.267.267 0 0 0-.368.091c-.779 1.294-1.734 2-2.717 2-1.368 0-2.673-1.373-3.5-3.683a.268.268 0 1 0-.505.181C8.899 20.462 10.363 22 12.008 22c1.2 0 2.311-.818 3.178-2.258a.27.27 0 0 0-.092-.369h.001zm6.13-2.162a1.284 1.284 0 0 1-2.03 1.041c-2.046 1.204-5.955.592-9.633-1.533-1.567-.904-2.94-1.993-3.996-3.154a.27.27 0 0 1 .103-.442.269.269 0 0 1 .293.081c1.019 1.12 2.348 2.174 3.867 3.05 3.473 2.006 7.128 2.6 8.998 1.59a1.285 1.285 0 0 1 .787-1.877 1.284 1.284 0 0 1 1.611 1.244zm-15.885 0a1.283 1.283 0 1 1-1.904-1.121c-.194-2.398 2.325-5.612 6.133-7.81 1.582-.913 3.228-1.562 4.776-1.893a.268.268 0 0 1 .112.524c-1.491.32-3.085.947-4.62 1.833-3.587 2.07-5.957 5.056-5.874 7.19.032-.003.063-.006.094-.006.709 0 1.284.575 1.284 1.283H5.34zm5.387-13.929a1.283 1.283 0 0 1 2.565 0c0 .02-.002.038-.003.056 2.124 1.098 3.6 4.842 3.6 9.17 0 1.778-.248 3.486-.712 4.966a.268.268 0 0 1-.433.136.269.269 0 0 1-.078-.296c.447-1.427.687-3.08.687-4.807 0-4.075-1.355-7.579-3.206-8.635a1.282 1.282 0 0 1-2.42-.59zm1.086 8.318a.928.928 0 1 0 .391 1.814.928.928 0 0 0-.39-1.814z" />
</svg>
