<svg
  width="24"
  height="24"
  viewBox="0 0 24 24"
  xmlns="http://www.w3.org/2000/svg"
  fill="none"
  stroke="currentColor"
  stroke-width="2"
  stroke-linecap="round"
  stroke-linejoin="round"
>
  <path d="M9 7a2 2 0 1 0 0-4 2 2 0 0 0 0 4z" />
  <path d="M15 14a2 2 0 1 0 0-4 2 2 0 0 0 0 4z" />
  <path d="M9 21a2 2 0 1 0 0-4 2 2 0 0 0 0 4z" />
  <path d="M7 5H3" />
  <path d="M21 12h-4" />
  <path d="M7 19H3" />
  <path d="M11 5h10" />
  <path d="M3 12h10" />
  <path d="M11 19h10" />
</svg>
