<svg
  width="24"
  height="24"
  viewBox="0 0 24 24"
  xmlns="http://www.w3.org/2000/svg"
>
  <path
    fill-rule="evenodd"
    clip-rule="evenodd"
    d="M9 4a1 1 0 1 0 0 2 1 1 0 0 0 0-2zM6.17 4a3.001 3.001 0 0 1 5.66 0H21a1 1 0 1 1 0 2h-9.17a3.001 3.001 0 0 1-5.66 0H3a1 1 0 0 1 0-2h3.17zM15 11a1 1 0 1 0 0 2 1 1 0 0 0 0-2zm-2.83 0a3.001 3.001 0 0 1 5.66 0H21a1 1 0 1 1 0 2h-3.17a3.001 3.001 0 0 1-5.66 0H3a1 1 0 1 1 0-2h9.17zM9 18a1 1 0 1 0 0 2 1 1 0 0 0 0-2zm-2.83 0a3.001 3.001 0 0 1 5.66 0H21a1 1 0 1 1 0 2h-9.17a3.001 3.001 0 0 1-5.66 0H3a1 1 0 1 1 0-2h3.17z"
  />
</svg>
