<svg
  width="24"
  height="24"
  viewBox="0 0 24 24"
  xmlns="http://www.w3.org/2000/svg"
>
  <path d="M8.047 9.61l3.8-2.193a.307.307 0 0 1 .306 0l3.8 2.193a.308.308 0 0 1 .153.267v4.385a.308.308 0 0 1-.154.266l-3.799 2.194a.308.308 0 0 1-.306 0l-3.8-2.194a.308.308 0 0 1-.153-.266V9.877a.308.308 0 0 1 .153-.267zm13.83 1.998l-4.539-7.896c-.165-.285-.47-.496-.8-.496H7.463c-.33 0-.636.21-.8.496l-4.539 7.879a.94.94 0 0 0 0 .93l4.54 7.832c.163.285.469.431.799.431h9.077c.33 0 .633-.142.8-.426l4.538-7.845a.891.891 0 0 0 0-.905h-.001zm-3.758 3.797a.334.334 0 0 1-.17.282l-5.782 3.335a.33.33 0 0 1-.327 0l-5.786-3.335a.333.333 0 0 1-.17-.282V8.733a.33.33 0 0 1 .17-.281l5.78-3.335a.327.327 0 0 1 .326 0l5.786 3.335a.333.333 0 0 1 .171.282l.002 6.671z" />
</svg>
