<svg width="24" height="24" viewBox="0 0 24 24" fill="none" xmlns="http://www.w3.org/2000/svg">
<path d="M5.948 5.94824C3.952 7.39024 2.512 9.53024 2 12.0002C2.945 16.5642 7.063 20.0002 12 20.0002C14.266 20.0002 16.359 19.2762 18.052 18.0522" stroke="white" stroke-width="2" stroke-linecap="round" stroke-linejoin="round"/>
<path d="M9.52499 9.5249C9.19997 9.84992 8.94215 10.2358 8.76625 10.6604C8.59035 11.0851 8.49982 11.5403 8.49982 11.9999C8.49982 12.4596 8.59035 12.9147 8.76625 13.3394C8.94215 13.764 9.19997 14.1499 9.52499 14.4749C9.85002 14.7999 10.2359 15.0577 10.6605 15.2336C11.0852 15.4095 11.5403 15.5001 12 15.5001C12.4596 15.5001 12.9148 15.4095 13.3395 15.2336C13.7641 15.0577 14.15 14.7999 14.475 14.4749" stroke="white" stroke-width="2" stroke-linecap="round" stroke-linejoin="round"/>
<path d="M1 1L23 23" stroke="white" stroke-width="2" stroke-linecap="round" stroke-linejoin="round"/>
<path d="M9.343 4.343C10.2102 4.11474 11.1033 3.99945 12 4C16.937 4 21.055 7.436 22 12C21.7388 13.2571 21.2339 14.4509 20.514 15.514" stroke="white" stroke-width="2" stroke-linecap="round" stroke-linejoin="round"/>
</svg>
