<svg
  width="24"
  height="24"
  viewBox="0 0 24 24"
  xmlns="http://www.w3.org/2000/svg"
>
  <path
    fill-rule="evenodd"
    clip-rule="evenodd"
    d="M17.882 19.297l4.41 4.41 1.415-1.414-22-22L.293 1.707 4.52 5.934A10.98 10.98 0 0 0 1.181 12c.941 5.12 5.427 9 10.819 9 2.163 0 4.181-.625 5.882-1.703zm-1.459-1.46l-2.028-2.027A4.5 4.5 0 0 1 8.19 9.605L5.94 7.353A9.005 9.005 0 0 0 3.222 12a9.005 9.005 0 0 0 13.2 5.838zm-6.75-6.75a2.499 2.499 0 0 0 3.24 3.24l-3.24-3.24z"
  />
  <path d="M22.819 12a10.953 10.953 0 0 1-2.366 5.04l-1.421-1.422A9.005 9.005 0 0 0 20.777 12 9.005 9.005 0 0 0 8.954 5.54l-1.54-1.541A10.96 10.96 0 0 1 12 3c5.392 0 9.878 3.88 10.819 9z" />
  <path d="M16.5 12c0 .332-.037.66-.108.978l-2.226-2.226a2.5 2.5 0 0 0-.918-.918l-2.226-2.226A4.5 4.5 0 0 1 16.5 12z" />
</svg>
