<svg width="24" height="24" viewBox="0 0 24 24" fill="none" xmlns="http://www.w3.org/2000/svg">
<path fill-rule="evenodd" clip-rule="evenodd" d="M3.22277 12C4.1318 16.0081 7.71757 19 12 19C16.2824 19 19.8682 16.0081 20.7772 12C19.8682 7.99191 16.2824 5 12 5C7.71757 5 4.1318 7.99192 3.22277 12ZM1.22 11.8011C2.23928 6.77972 6.67711 3 12 3C17.3228 3 21.7607 6.77972 22.78 11.8011C22.8066 11.9324 22.8066 12.0676 22.78 12.1989C21.7607 17.2203 17.3228 21 12 21C6.67711 21 2.23928 17.2203 1.22 12.1989C1.19335 12.0676 1.19335 11.9324 1.22 11.8011ZM12 10C10.8954 10 9.99998 10.8954 9.99998 12C9.99998 13.1046 10.8954 14 12 14C13.1045 14 14 13.1046 14 12C14 10.8954 13.1045 10 12 10ZM7.99998 12C7.99998 9.79086 9.79084 8 12 8C14.2091 8 16 9.79086 16 12C16 14.2091 14.2091 16 12 16C9.79084 16 7.99998 14.2091 7.99998 12Z" fill="black"/>
</svg>
