<svg
  width="24"
  height="24"
  viewBox="0 0 24 24"
  xmlns="http://www.w3.org/2000/svg"
>
  <path
    fill-rule="evenodd"
    clip-rule="evenodd"
    d="M16.122 2.06C15.056 2.01 14.717 2 12 2c-2.717 0-3.056.013-4.122.06-1.066.05-1.79.217-2.428.465a4.897 4.897 0 0 0-1.772 1.153A4.88 4.88 0 0 0 2.525 5.45c-.248.638-.415 1.362-.465 2.428C2.01 8.944 2 9.283 2 12c0 2.717.013 3.056.06 4.122.05 1.065.217 1.791.465 2.428.25.668.644 1.272 1.153 1.772a4.89 4.89 0 0 0 1.772 1.153c.638.247 1.363.415 2.428.465 1.066.05 1.405.06 4.122.06 2.717 0 3.056-.013 4.122-.06 1.065-.05 1.791-.218 2.428-.465a4.914 4.914 0 0 0 1.772-1.153c.51-.5.903-1.104 1.153-1.772.247-.638.415-1.363.465-2.428.05-1.066.06-1.405.06-4.122 0-2.717-.013-3.056-.06-4.122-.05-1.065-.218-1.791-.465-2.428a4.907 4.907 0 0 0-1.153-1.772 4.876 4.876 0 0 0-1.772-1.153c-.638-.248-1.363-.415-2.428-.465zM7.971 4.058C9.122 4.007 9.526 4 12 4c2.539 0 2.925.006 4.029.058.782.036 1.308.141 1.798.331.408.15.778.39 1.08.704.312.303.552.672.703 1.08.19.488.295 1.016.332 1.798C19.993 9.122 20 9.526 20 12c0 2.539-.006 2.925-.058 4.029-.036.78-.142 1.307-.332 1.8-.166.43-.367.743-.704 1.08a2.92 2.92 0 0 1-1.08.702c-.488.189-1.015.294-1.797.331a46.28 46.28 0 0 1-2.029.053V13h2.1a1 1 0 0 0 0-2H14V9.5A1.5 1.5 0 0 1 15.5 8h.6a1 1 0 1 0 0-2h-.6A3.5 3.5 0 0 0 12 9.5V11h-1a1 1 0 0 0 0 2h1v7c-2.539 0-2.925-.006-4.029-.058-.78-.036-1.306-.142-1.8-.333a2.901 2.901 0 0 1-1.08-.703 2.917 2.917 0 0 1-.702-1.08c-.189-.487-.294-1.014-.331-1.797C4.007 14.878 4 14.474 4 12c0-2.539.006-2.925.058-4.029.036-.783.141-1.308.331-1.798a2.89 2.89 0 0 1 .704-1.08 2.886 2.886 0 0 1 1.08-.703c.488-.19 1.014-.295 1.798-.332z"
  />
</svg>
