<svg
  width="24"
  height="24"
  viewBox="0 0 24 24"
  xmlns="http://www.w3.org/2000/svg"
>
  <path
    fill-rule="evenodd"
    clip-rule="evenodd"
    d="M9.031 4.569A8.003 8.003 0 0 0 12 20a8 8 0 1 0 0-16 1 1 0 1 0 0 2 1 1 0 1 1 0 2 3 3 0 0 1-2.969-3.431zM12 2C6.477 2 2 6.477 2 12s4.477 10 10 10 10-4.477 10-10S17.523 2 12 2zm-4 8a1 1 0 0 1 1-1h.01a1 1 0 0 1 0 2H9a1 1 0 0 1-1-1zm6 0a1 1 0 0 1 1-1h.01a1 1 0 1 1 0 2H15a1 1 0 0 1-1-1zm1.2 4.286a1 1 0 0 1 .014 1.414 4.5 4.5 0 0 1-6.428 0 1 1 0 0 1 1.428-1.4 2.5 2.5 0 0 0 3.572 0 1 1 0 0 1 1.414-.014z"
  />
</svg>
