<svg
  width="24"
  height="24"
  viewBox="0 0 24 24"
  xmlns="http://www.w3.org/2000/svg"
>
  <path d="M3 4a1 1 0 0 1 1-1h5v2H5v4H3V4z" />
  <path d="M9.514 13.586l.7.714a2.501 2.501 0 0 0 3.572 0l.7-.714 1.428 1.4-.7.714a4.499 4.499 0 0 1-6.428 0l-.7-.714 1.428-1.4z" />
  <path d="M4 21a1 1 0 0 1-1-1v-5h2v4h4v2H4z" />
  <path d="M21 20a1 1 0 0 1-1 1h-5v-2h4v-4h2v5z" />
  <path d="M20 3a1 1 0 0 1 1 1v5h-2V5h-4V3h5z" />
  <path d="M10 10a1 1 0 1 1-2 0 1 1 0 0 1 2 0z" />
  <path d="M15 11a1 1 0 1 0 0-2 1 1 0 0 0 0 2z" />
</svg>
