<svg width="24" height="24" viewBox="0 0 24 24" fill="none" xmlns="http://www.w3.org/2000/svg">
<path fill-rule="evenodd" clip-rule="evenodd" d="M5.5 6C4.67157 6 4 6.67157 4 7.5C4 8.32843 4.67157 9 5.5 9C6.32843 9 7 8.32843 7 7.5C7 6.67157 6.32843 6 5.5 6ZM2 7.5C2 5.567 3.567 4 5.5 4C7.433 4 9 5.567 9 7.5C9 9.433 7.433 11 5.5 11C3.567 11 2 9.433 2 7.5ZM12 5C12 4.44772 12.4477 4 13 4H21C21.5523 4 22 4.44772 22 5C22 5.55228 21.5523 6 21 6H14V11H19C19.5523 11 20 11.4477 20 12C20 12.5523 19.5523 13 19 13H14V19C14 19.5523 13.5523 20 13 20C12.4477 20 12 19.5523 12 19V5Z" fill="black"/>
</svg>
