<svg
  width="24"
  height="24"
  viewBox="0 0 24 24"
  xmlns="http://www.w3.org/2000/svg"
>
  <path
    fill-rule="evenodd"
    clip-rule="evenodd"
    d="M5.067 4C5.023 4 5 4.033 5 4.059c0 .025.023.059.067.059a.064.064 0 0 0 .066-.06c0-.025-.023-.058-.066-.058zM3 4.059C3 2.915 3.932 2 5.067 2c1.134 0 2.066.915 2.066 2.059a2.063 2.063 0 0 1-2.066 2.059A2.063 2.063 0 0 1 3 4.058zm13.08.005l-3.909 3.881a1 1 0 0 1-.704.29H9.209l1.989 2.633a1 1 0 0 1 .172.358l1.066 4.236c.037.144.04.295.011.441l-1.264 6.275-1.96-.395 1.219-6.053-.962-3.818L7.2 8.894l-2.113 2.797 1.194 4.74-1.94.489-1.31-5.205a1 1 0 0 1 .171-.847l3.2-4.236a1 1 0 0 1 .798-.397h3.855l3.617-3.59 1.409 1.419zm-4.013 6.407h3.666a1 1 0 0 1 .445.104l5.162 2.562-.889 1.792L15.5 12.47h-3.432v-2z"
  />
</svg>
