<svg
  width="24"
  height="24"
  viewBox="0 0 24 24"
  xmlns="http://www.w3.org/2000/svg"
>
  <path
    fill-rule="evenodd"
    clip-rule="evenodd"
    d="M5.067 4C5.023 4 5 4.033 5 4.059c0 .025.023.059.067.059.043 0 .066-.034.066-.06 0-.025-.023-.058-.066-.058zM3 4.059C3 2.915 3.932 2 5.067 2c1.134 0 2.066.915 2.066 2.059a2.063 2.063 0 0 1-2.066 2.059A2.063 2.063 0 0 1 3 4.058zm12.376-.705a1 1 0 0 1-.005 1.415l-3.2 3.176a1 1 0 0 1-.704.29H9.209l1.989 2.633a1 1 0 0 1 .172.358l1.066 4.236c.037.144.04.295.011.441l-1.067 5.295a1 1 0 1 1-1.96-.396l1.022-5.072-.962-3.818L7.2 8.894l-2.113 2.797.95 3.77a1 1 0 0 1-1.94.49L3.03 11.714a1 1 0 0 1 .172-.847l3.2-4.236a1 1 0 0 1 .798-.397h3.855l2.907-2.886a1 1 0 0 1 1.414.005zm-3.31 8.117a1 1 0 0 1 1-1h2.667a1 1 0 0 1 .445.104l4.267 2.118a1 1 0 1 1-.89 1.791L15.5 12.471h-2.432a1 1 0 0 1-1-1z"
  />
</svg>
