<svg width="24" height="24" viewBox="0 0 24 24" fill="none" xmlns="http://www.w3.org/2000/svg">
<path fill-rule="evenodd" clip-rule="evenodd" d="M12 3C8.96243 3 6.5 5.46243 6.5 8.5C6.5 11.5376 8.96243 14 12 14C15.0376 14 17.5 11.5376 17.5 8.5C17.5 5.46243 15.0376 3 12 3ZM4.5 8.5C4.5 4.35786 7.85786 1 12 1C16.1421 1 19.5 4.35786 19.5 8.5C19.5 12.3031 16.6694 15.445 13 15.9339V18H17C17.5523 18 18 18.4477 18 19C18 19.5523 17.5523 20 17 20H13V23C13 23.5523 12.5523 24 12 24C11.4477 24 11 23.5523 11 23V20H7C6.44772 20 6 19.5523 6 19C6 18.4477 6.44772 18 7 18H11V15.9339C7.33064 15.445 4.5 12.3031 4.5 8.5Z" fill="black"/>
</svg>
