<svg
  width="24"
  height="24"
  viewBox="0 0 24 24"
  xmlns="http://www.w3.org/2000/svg"
>
  <path
    fill-rule="evenodd"
    clip-rule="evenodd"
    d="M16 4a2 2 0 1 1 4 0 2 2 0 0 1-4 0zm-8.447-.842l4.796 2.398 3.893.974a1 1 0 0 1 .416.217l4 3.5a1 1 0 0 1 .21 1.25l-2.496 4.367-1.736-.992 2.09-3.658-2.445-2.14L14 13.255V22h-2v-9a1 1 0 0 1 .122-.479l2.38-4.365-2.745-.686a.998.998 0 0 1-.204-.076L6.658 4.947l.895-1.789zM2.24 7.807l5.476 1.217a1 1 0 0 1 .423.208l3.768 3.14-1.28 1.536-3.582-2.984-5.24-1.165.435-1.952z"
  />
</svg>
