<svg
  width="24"
  height="24"
  viewBox="0 0 24 24"
  xmlns="http://www.w3.org/2000/svg"
>
  <path
    fill-rule="evenodd"
    clip-rule="evenodd"
    d="M16 4a2 2 0 1 1 4 0 2 2 0 0 1-4 0zm-8.894.053a1 1 0 0 1 1.341-.447l3.902 1.95 3.893.974a1 1 0 0 1 .416.217l4 3.5a1 1 0 0 1 .21 1.25l-2 3.5a1 1 0 1 1-1.736-.993l1.594-2.79-2.445-2.14L14 13.255V21a1 1 0 1 1-2 0v-8a1 1 0 0 1 .122-.479l2.38-4.365-2.745-.686a.998.998 0 0 1-.204-.076l-4-2a1 1 0 0 1-.447-1.341zm-5.082 4.73a1 1 0 0 1 1.193-.76l4.5 1a1 1 0 0 1 .423.209l3 2.5a1 1 0 1 1-1.28 1.536l-2.814-2.344-4.263-.948a1 1 0 0 1-.76-1.193z"
  />
</svg>
