<svg
  width="24"
  height="24"
  viewBox="0 0 24 24"
  xmlns="http://www.w3.org/2000/svg"
>
  <path d="M22.001 3.55v-.883a.675.675 0 0 1-.473-.197.675.675 0 0 1-.195-.472h-.884a.672.672 0 0 1-1.34 0h-.885a.67.67 0 0 1-1.34 0h-.882a.673.673 0 0 1-1.342 0h-.883a.672.672 0 0 1-1.34 0h-.883a.67.67 0 0 1-1.34 0H9.33c-.009.37-.319.66-.688.645a.67.67 0 0 1-.647-.645h-.883a.672.672 0 0 1-1.34 0h-.883a.669.669 0 0 1-1.34 0h-.883a.672.672 0 0 1-.669.67v.882a.67.67 0 0 1 0 1.339v.884a.67.67 0 0 1 0 1.34v.882a.67.67 0 0 1 0 1.34v.883a.67.67 0 1 1 0 1.34v.883a.67.67 0 0 1 0 1.34v.884a.67.67 0 1 1 0 1.34v.884a.668.668 0 0 1 0 1.337v.884a.67.67 0 1 1 0 1.34v.885c.368.001.668.299.67.669h.882a.672.672 0 0 1 1.34 0h.885a.671.671 0 0 1 1.34 0h.882a.672.672 0 1 1 1.34 0h.884a.67.67 0 1 1 1.34 0h.884a.671.671 0 0 1 1.34 0h.882a.673.673 0 0 1 1.342 0h.882a.673.673 0 0 1 1.342 0h.883a.67.67 0 0 1 1.339 0h.879c0-.176.071-.349.196-.474a.673.673 0 0 1 .472-.195v-.884a.671.671 0 0 1 0-1.338v-.884a.671.671 0 0 1 0-1.34v-.884a.672.672 0 1 1 0-1.34v-.884a.67.67 0 0 1 0-1.34v-.882a.672.672 0 1 1 0-1.34v-.884a.67.67 0 0 1 0-1.34v-.883a.671.671 0 0 1 0-1.339V4.89a.672.672 0 1 1 0-1.34zm-3.39 8.198l-5.337 5.188c.484.075.95.188 1.452.188 1.22 0 2.623-.371 3.573-.764l-.487 2.289c-1.397.67-2.25.726-3.086.726-.912 0-1.787-.298-2.68-.298-.502 0-1.227.038-1.673.333l-.968-1.71 5.506-5.451H8.575l-1.209 5.673H4.724L7.48 4.94h8.741l-.558 2.621H9.579l-.52 2.438h9.98l-.428 1.75z" />
</svg>
