<svg width="24" height="24" viewBox="0 0 24 24" fill="none" xmlns="http://www.w3.org/2000/svg">
<path d="M13 9C13 8.44772 12.5523 8 12 8C11.4477 8 11 8.44772 11 9V11H9C8.44772 11 8 11.4477 8 12C8 12.5523 8.44772 13 9 13H11V15C11 15.5523 11.4477 16 12 16C12.5523 16 13 15.5523 13 15V13H15C15.5523 13 16 12.5523 16 12C16 11.4477 15.5523 11 15 11H13V9Z" fill="black"/>
<path fill-rule="evenodd" clip-rule="evenodd" d="M4 2C3.44772 2 3 2.44772 3 3V21C3 21.5523 3.44772 22 4 22H20C20.5523 22 21 21.5523 21 21V8C21 7.73478 20.8946 7.48043 20.7071 7.29289L15.7071 2.29289C15.5196 2.10536 15.2652 2 15 2H4ZM5 20V4H14V8C14 8.55228 14.4477 9 15 9H19V20H5Z" fill="black"/>
</svg>
