<svg
  width="24"
  height="24"
  viewBox="0 0 24 24"
  xmlns="http://www.w3.org/2000/svg"
>
  <path
    fill-rule="evenodd"
    clip-rule="evenodd"
    d="M14.914 4.926A6.34 6.34 0 0 0 11.62 4a6.34 6.34 0 0 0-3.292.93A6.815 6.815 0 0 0 5.9 7.49a7.298 7.298 0 0 0-.89 3.52v1.033c-.072 2.26.205 4.52.82 6.687a1 1 0 0 1-1.925.545 23.996 23.996 0 0 1-.894-7.28v-.982A9.298 9.298 0 0 1 4.147 6.53 8.814 8.814 0 0 1 7.29 3.221 8.34 8.34 0 0 1 11.62 2a8.34 8.34 0 0 1 4.33 1.215 1 1 0 0 1-1.036 1.71zm2.78 1.224a1 1 0 0 1 1.365.37 9.313 9.313 0 0 1 1.18 5.542v.948c-.001.886.22 1.753.638 2.515a1 1 0 0 1-1.754.962 7.224 7.224 0 0 1-.884-3.477v-.999c0-.035.002-.07.005-.104a7.314 7.314 0 0 0-.92-4.392 1 1 0 0 1 .37-1.365zm-6.069 1.867c-.728 0-1.437.303-1.968.86a3.098 3.098 0 0 0-.839 2.135 1 1 0 1 1-2 0c0-1.31.496-2.575 1.391-3.515a4.718 4.718 0 0 1 3.416-1.48c1.29 0 2.519.539 3.416 1.48a5.098 5.098 0 0 1 1.39 3.515v.999c0 1.956.606 3.855 1.718 5.411a1 1 0 0 1-1.627 1.163 11.317 11.317 0 0 1-2.09-6.574v-.999c0-.81-.307-1.577-.84-2.135a2.718 2.718 0 0 0-1.967-.86zm0 1.995a1 1 0 0 1 1 1v1.999a13.47 13.47 0 0 0 2.213 7.437 1 1 0 1 1-1.668 1.104 15.469 15.469 0 0 1-2.545-8.543m-2.918 1.004a1 1 0 0 1 1.105.883c.22 1.977.77 3.896 1.621 5.671a1 1 0 1 1-1.803.866 19.642 19.642 0 0 1-1.806-6.315 1 1 0 0 1 .883-1.105z"
  />
</svg>
