<svg
  width="24"
  height="24"
  viewBox="0 0 24 24"
  xmlns="http://www.w3.org/2000/svg"
  fill="none"
  stroke="currentColor"
  stroke-width="2"
  stroke-linecap="round"
  stroke-linejoin="round"
>
  <path d="M19 7a7.676 7.676 0 0 1 1.158 5v1A5.77 5.77 0 0 0 21 16" />
  <path d="M8 11a4 4 0 0 1 8 0v1a10 10 0 0 0 2 6" />
  <path d="M12 11v2c-.004 2.86 1.043 5.651 3 8" />
  <path d="M8 15c.272 2.09.949 4.12 2 6" />
  <path d="M4.911 19a21.963 21.963 0 0 1-.899-6.99v-1A7.987 7.987 0 0 1 12 3 7.994 7.994 0 0 1 16 4.07" />
</svg>
