<svg
  width="24"
  height="24"
  viewBox="0 0 24 24"
  xmlns="http://www.w3.org/2000/svg"
>
  <path d="M21.98 11.414a2.415 2.415 0 0 1-.01-.188v-.005l-.013-.188v-.005a9.923 9.923 0 0 0-.295-1.66c0-.005 0-.005-.005-.01l-.044-.16c-.005-.009-.005-.019-.01-.024-.015-.048-.029-.102-.043-.15-.005-.009-.005-.024-.01-.033l-.043-.141-.015-.038a1.623 1.623 0 0 0-.049-.141l-.014-.044-.048-.135a.34.34 0 0 0-.015-.039c-.02-.043-.034-.091-.053-.135l-.015-.034-.058-.14c0-.005-.004-.01-.004-.015a7.837 7.837 0 0 0-.204-.459l-.015-.03c-.019-.038-.033-.072-.052-.106l-.03-.062c-.014-.035-.033-.064-.048-.098-.015-.024-.025-.048-.039-.072-.014-.029-.033-.059-.048-.092l-.043-.078c-.015-.029-.034-.058-.049-.086a.73.73 0 0 0-.048-.083c-.015-.029-.033-.053-.048-.082-.015-.03-.035-.054-.049-.082l-.048-.077c-.02-.03-.034-.059-.053-.088-.015-.024-.03-.048-.049-.072l-.106-.16-.064-.092c-.014-.02-.028-.043-.043-.063l-.073-.101-.038-.054c-.04-.053-.072-.101-.112-.15-.29-.38-.607-.739-.948-1.074a7.483 7.483 0 0 0-.74-.672 6.72 6.72 0 0 0-.503-.397 6.552 6.552 0 0 0-.992-.61 10.237 10.237 0 0 0-2.525-.938c-.078-.014-.156-.034-.228-.049h-.005c-.039-.005-.073-.015-.111-.019a9.604 9.604 0 0 0-1.533-.16h-.427a9.48 9.48 0 0 0-1.833.204c-1.355.285-2.55.856-3.344 1.572-.043.038-.077.068-.096.087l-.02.02h.005l-.005.004.005-.004s.005 0 .005-.005l-.005.005s.005-.005.01-.005c.59-.354 1.408-.644 1.993-.79.077-.019.16-.038.237-.058.015-.004.034-.004.049-.008.067-.015.135-.03.208-.044.01 0 .023-.005.033-.005 2.589-.474 5.347.3 7.267 2.133.415.394.779.838 1.084 1.322 1.224 1.983 1.109 4.48.155 5.95-1.388 2.139-4.49 2.875-6.41 1.002a3.394 3.394 0 0 1-1.031-2.38c-.007-.43.079-.856.251-1.249.069-.155.528-1.035.736-.992-.527-.111-1.515.107-2.207 1.137-.619.925-.585 2.347-.203 3.358a5.357 5.357 0 0 1-.488-1.582c-.494-3.328 1.746-6.168 3.802-6.875-1.108-.968-3.89-.9-5.956.62-1.204.885-2.065 2.143-2.52 3.643.068-.841.387-2.1 1.04-3.381-.691.358-1.572 1.49-2.008 2.535-.63 1.508-.847 3.313-.648 5.03l.043.388c.803 4.722 4.92 8.322 9.87 8.322 5.53 0 10.016-4.485 10.016-10.015-.005-.184-.01-.369-.02-.548z" />
</svg>
