<svg
  width="24"
  height="24"
  viewBox="0 0 24 24"
  xmlns="http://www.w3.org/2000/svg"
>
  <path
    fill-rule="evenodd"
    clip-rule="evenodd"
    d="M10.467 1.07a1 1 0 0 1 1.097.248c.733.785 1.673 2.534 2.14 4.537.409 1.762.489 3.882-.399 5.828a.754.754 0 0 0 .584.009c.459-.177 1.21-.829 2.237-2.678a1 1 0 0 1 1.643-.153C18.963 10.297 20 12.276 20 14.5c0 2.233-.827 4.387-2.32 5.986C16.188 22.086 14.146 23 12 23c-2.145 0-4.187-.913-5.68-2.514C4.826 18.887 4 16.733 4 14.5c0-2.529 1.072-4.43 2.606-6.12.175-.193.354-.382.532-.57C8.486 6.38 9.833 4.95 9.833 2a1 1 0 0 1 .634-.93zm.9 3.946c-.645 1.933-1.84 3.189-2.793 4.19-.172.18-.336.353-.488.52C6.76 11.185 6 12.628 6 14.5c0 1.745.648 3.407 1.781 4.621C8.913 20.333 10.431 21 12 21c1.568 0 3.087-.667 4.219-1.879C17.352 17.907 18 16.245 18 14.5c0-1.123-.372-2.214-.94-3.184-.787 1.148-1.586 1.91-2.454 2.242-1.325.51-2.447-.08-3.27-.81a1 1 0 0 1-.182-1.281c.97-1.539 1.006-3.42.601-5.16-.106-.457-.24-.891-.387-1.29z"
  />
</svg>
