<svg width="24" height="24" viewBox="0 0 24 24" fill="none" xmlns="http://www.w3.org/2000/svg">
<path d="M20 14C20 6.8 12 2 12 2C12 2 4 6.8 4 14C4 16.1217 4.84285 18.1566 6.34315 19.6569C7.84344 21.1571 9.87827 22 12 22C14.1217 22 16.1566 21.1571 17.6569 19.6569C19.1571 18.1566 20 16.1217 20 14Z" stroke="white" stroke-width="2" stroke-linecap="round" stroke-linejoin="round"/>
<path d="M8 18.1538C8 19.1739 8.42143 20.1522 9.17157 20.8735C9.92172 21.5948 10.9391 22 12 22C13.0609 22 14.0783 21.5948 14.8284 20.8735C15.5786 20.1522 16 19.1739 16 18.1538C16 14.3077 12 12 12 12C12 12 8 14.3077 8 18.1538Z" stroke="white" stroke-width="2" stroke-linecap="round" stroke-linejoin="round"/>
</svg>
