<svg width="24" height="24" viewBox="0 0 24 24" fill="none" xmlns="http://www.w3.org/2000/svg">
<path fill-rule="evenodd" clip-rule="evenodd" d="M8 3C8 2.44772 8.44772 2 9 2H15C15.5523 2 16 2.44772 16 3C16 3.55228 15.5523 4 15 4V8.8L19.9231 20.6154C20.0517 20.924 20.0175 21.2765 19.8321 21.5547C19.6466 21.8329 19.3344 22 19 22H5C4.66565 22 4.35342 21.8329 4.16795 21.5547C3.98249 21.2765 3.94833 20.924 4.07693 20.6154L9 8.8V4C8.44772 4 8 3.55228 8 3ZM11 4V8H13V4H11ZM13.3333 10H10.6667L6.5 20H17.5L13.3333 10Z" fill="black"/>
</svg>
