<svg width="24" height="24" viewBox="0 0 24 24" fill="none" xmlns="http://www.w3.org/2000/svg">
<path fill-rule="evenodd" clip-rule="evenodd" d="M5 3C5 2.44772 5.44772 2 6 2H13C13.2652 2 13.5196 2.10536 13.7071 2.29289L15.4142 4H22C22.5523 4 23 4.44772 23 5V17C23 17.5523 22.5523 18 22 18H19V21C19 21.5523 18.5523 22 18 22H2C1.44772 22 1 21.5523 1 21V7C1 6.44772 1.44772 6 2 6H5V3ZM5 8H3V20H17V18H6C5.44772 18 5 17.5523 5 17V8ZM7 4V16H21V6H15C14.7348 6 14.4804 5.89464 14.2929 5.70711L12.5858 4H7Z" fill="black"/>
</svg>
