<svg
  width="24"
  height="24"
  viewBox="0 0 24 24"
  xmlns="http://www.w3.org/2000/svg"
>
  <path d="M16.772 4.888l-.445 2.332c-.054.253-.371.52-.668.52h-4.15c-.47 0-.803.325-.803.787v.511c0 .474.337.8.805.8h3.525c.329 0 .654.364.58.713l-.445 2.3c-.043.2-.262.525-.654.525h-2.881c-.525 0-.682.076-1.033.5-.35.437-3.505 4.225-3.505 4.225-.03.037-.061.024-.061-.013V4.85c0-.3.259-.65.646-.65h8.562c.312 0 .608.297.527.684v.003zm.376 9.15c.121-.482 1.455-7.32 1.901-9.488l-1.9 9.488zM17.405 2H6.735c-1.47 0-1.902 1.107-1.902 1.803v16.95c0 .784.42 1.076.658 1.171.236.098.89.178 1.284-.273 0 0 5.037-5.845 5.122-5.931.137-.13.137-.13.262-.13h3.262c1.375 0 1.588-.976 1.738-1.55.125-.475 1.462-7.312 1.9-9.488C19.395 2.9 18.97 2 17.408 2h-.004z" />
</svg>
