<svg
  width="24"
  height="24"
  viewBox="0 0 24 24"
  xmlns="http://www.w3.org/2000/svg"
>
  <path d="M18.57 5.255a.517.517 0 0 0-.294.1c-.067.067-.134.163-.134.26 0 .168.196.396.56.77 1.519 1.462 2.282 3.252 2.277 5.412-.006 2.389-.808 4.308-2.37 5.795-.328.294-.463.525-.464.722 0 .097.067.198.133.294a.482.482 0 0 0 .295.135c.361 0 .866-.426 1.527-1.257 1.285-1.575 1.867-3.315 1.9-5.687.03-2.372-.715-3.98-2.17-5.641-.525-.594-.96-.902-1.26-.903zm-13.14.002c-.298 0-.735.308-1.258.902C2.715 7.82 1.97 9.43 2 11.801c.033 2.371.614 4.11 1.9 5.687.659.83 1.165 1.258 1.527 1.257a.478.478 0 0 0 .293-.135c.067-.097.133-.197.133-.294 0-.198-.135-.428-.463-.722-1.561-1.487-2.364-3.406-2.37-5.796-.005-2.159.758-3.95 2.277-5.411.364-.374.561-.602.56-.77 0-.097-.066-.194-.134-.26a.518.518 0 0 0-.295-.1h.001zm5.88.746s.546 1.734-2.207 5.605c-2.63 3.694.87 5.959 1.193 6.155-.234-.15-1.668-1.25.335-4.519.388-.642.896-1.225 1.528-2.534 0 0 .558.788.267 2.498-.436 2.585 1.892 1.845 1.928 1.881.814.958-.673 2.642-.764 2.694-.09.051 4.247-2.608 1.166-6.612-.211.21-.485 1.202-1.056 1.055-.57-.145 1.77-2.912-2.39-6.224zm-1.014 11.76a.33.33 0 0 0 .032.02l-.032-.02z" />
</svg>
