<svg
  width="24"
  height="24"
  viewBox="0 0 24 24"
  xmlns="http://www.w3.org/2000/svg"
>
  <path
    fill-rule="evenodd"
    clip-rule="evenodd"
    d="M12.5 3a.5.5 0 0 0-.5.5V12a1 1 0 0 1-2 0V9.5a.5.5 0 1 0-1 0v4a1 1 0 0 1-1.02 1 1 1 0 0 1-.92-.543l-.856-1.666a.7.7 0 0 0-1.095.87c.03.042.057.086.08.132l2.676 5.202a5.457 5.457 0 0 0 1.748 1.64A6.68 6.68 0 0 0 12.07 21H14a5 5 0 0 0 5-5v-5.5a.5.5 0 0 0-1 0V12a1 1 0 0 1-2 0V9.5a.5.5 0 0 0-1 0V12a1 1 0 0 1-2 0V3.5a.5.5 0 0 0-.5-.5zM15 7.05V3.5a2.5 2.5 0 0 0-5 0v3.55A2.5 2.5 0 0 0 7 9.5v.897a2.697 2.697 0 0 0-2.913.17 2.7 2.7 0 0 0-.645 3.701l2.669 5.19a.95.95 0 0 0 .05.088 7.442 7.442 0 0 0 2.423 2.303c.987.592 2.108.98 3.28 1.142.045.006.09.009.136.009h2a7.001 7.001 0 0 0 7-7v-5.5a2.5 2.5 0 0 0-3.388-2.337A2.503 2.503 0 0 0 15 7.05z"
  />
</svg>
