<svg
  width="24"
  height="24"
  viewBox="0 0 24 24"
  xmlns="http://www.w3.org/2000/svg"
  fill="none"
  stroke="currentColor"
  stroke-width="2"
  stroke-linecap="round"
  stroke-linejoin="round"
>
  <path d="M8.5 8.5v3" />
  <path d="M10 10H7" />
  <path d="M17 10h-3" />
  <path d="M5.087 6.152a4.515 4.515 0 0 1 2.984-1.14L12 5l3.929.012c1.091 0 2.148.404 2.984 1.14a4.93 4.93 0 0 1 1.589 2.885l1.46 7.885c.092.549.015 1.115-.22 1.615s-.616.909-1.088 1.167c-.471.257-1.009.35-1.534.265a2.46 2.46 0 0 1-1.388-.737l-3.86-4.228L12 14.996l-1.872.008-3.86 4.228a2.46 2.46 0 0 1-1.388.738 2.398 2.398 0 0 1-1.534-.266 2.569 2.569 0 0 1-1.088-1.167 2.739 2.739 0 0 1-.22-1.615l1.46-7.885a4.93 4.93 0 0 1 1.589-2.885z" />
</svg>
