<svg width="24" height="24" viewBox="0 0 24 24" fill="none" xmlns="http://www.w3.org/2000/svg">
<path d="M8.5 8.5V11.5" stroke="#1E293B" stroke-width="2" stroke-linecap="round" stroke-linejoin="round"/>
<path d="M10 10L7 10" stroke="#1E293B" stroke-width="2" stroke-linecap="round" stroke-linejoin="round"/>
<path d="M17 10L14 10" stroke="#1E293B" stroke-width="2" stroke-linecap="round" stroke-linejoin="round"/>
<path d="M5.08667 6.15184C5.9229 5.41577 6.97951 5.01227 8.07104 5.01219L12 5L15.929 5.01219C17.0205 5.01227 18.0771 5.41577 18.9133 6.15184C19.7496 6.88792 20.3119 7.90953 20.5018 9.03734L21.962 16.9216C22.0543 17.4709 21.9773 18.0368 21.7421 18.5371C21.507 19.0374 21.126 19.446 20.6544 19.7036C20.1828 19.9612 19.6453 20.0543 19.1198 19.9695C18.5943 19.8847 18.1083 19.6263 17.7324 19.2319L13.8724 15.0038L12 14.9959L10.1276 15.0038L6.26764 19.2319C5.89168 19.6263 5.40567 19.8847 4.88021 19.9695C4.35474 20.0543 3.81719 19.9612 3.34562 19.7036C2.87404 19.446 2.49301 19.0374 2.25786 18.5371C2.0227 18.0368 1.94567 17.4709 2.03795 16.9216L3.49822 9.03734C3.68805 7.90953 4.25044 6.88792 5.08667 6.15184Z" stroke="#1E293B" stroke-width="2" stroke-linecap="round" stroke-linejoin="round"/>
</svg>
