<svg
  width="24"
  height="24"
  viewBox="0 0 24 24"
  xmlns="http://www.w3.org/2000/svg"
>
  <path d="M9 9a1 1 0 0 1 1 1v1h1a1 1 0 1 1 0 2h-1v1a1 1 0 1 1-2 0v-1H7a1 1 0 1 1 0-2h1v-1a1 1 0 0 1 1-1z" />
  <path d="M16 10a1 1 0 1 1-2 0 1 1 0 0 1 2 0z" />
  <path d="M17 15a1 1 0 1 0 0-2 1 1 0 0 0 0 2z" />
  <path
    fill-rule="evenodd"
    clip-rule="evenodd"
    d="M1 14c0-.025 0-.05.003-.075L1 10a6 6 0 0 1 6-6h10a6 6 0 0 1 6 6v4a6 6 0 0 1-6 6H7a6 6 0 0 1-6-6zm2.003.154L3 10a4 4 0 0 1 4-4h10a4 4 0 0 1 4 4v4a4 4 0 0 1-4 4H7a4 4 0 0 1-3.997-3.846z"
  />
</svg>
