<svg
  width="24"
  height="24"
  viewBox="0 0 24 24"
  xmlns="http://www.w3.org/2000/svg"
>
  <path d="M12 4a8.004 8.004 0 0 0-7.466 5.12L14.88 19.466A8.02 8.02 0 0 0 19.748 14H16a1 1 0 1 1 0-2h4.945a1 1 0 0 1 .994 1.11 10.009 10.009 0 0 1-7.034 8.461 1 1 0 0 1-.998-.25L2.678 10.094a1 1 0 0 1-.25-.997C3.674 4.99 7.487 2 12 2c2.56 0 4.898.964 6.667 2.547a1 1 0 1 1-1.334 1.49A7.966 7.966 0 0 0 12 4z" />
  <path d="M12 22a9.981 9.981 0 0 1-3.433-.605 10.03 10.03 0 0 1-5.962-5.962A9.98 9.98 0 0 1 2 12l10 10z" />
</svg>
