<svg
  width="24"
  height="24"
  viewBox="0 0 24 24"
  xmlns="http://www.w3.org/2000/svg"
>
  <path d="M12 2.006A9.941 9.941 0 0 0 2.007 12 9.942 9.942 0 0 0 12 21.996 9.942 9.942 0 0 0 21.995 12a9.94 9.94 0 0 0-9.994-9.995zM4.179 12.088l7.736 7.735c-4.259 0-7.736-3.476-7.736-7.736zm9.561 7.561l-9.386-9.387c.78-3.476 3.91-6.084 7.647-6.084a7.897 7.897 0 0 1 6.345 3.217l-1.13.955a6.381 6.381 0 0 0-5.3-2.78 6.296 6.296 0 0 0-5.998 4.258l8.17 8.17c2-.696 3.563-2.433 3.998-4.52h-3.39v-1.477h5.128c0 3.737-2.607 6.867-6.084 7.648z" />
</svg>
