<svg
  width="24"
  height="24"
  viewBox="0 0 24 24"
  xmlns="http://www.w3.org/2000/svg"
>
  <path
    fill-rule="evenodd"
    clip-rule="evenodd"
    d="M12 3c-3.81 0-7 3.3-7 7.5v9a1.5 1.5 0 0 0 2.97.301A1 1 0 0 1 8.95 19h.6a1 1 0 0 1 .98.801 1.5 1.5 0 0 0 2.94 0 1 1 0 0 1 .98-.801h.6a1 1 0 0 1 .98.801A1.5 1.5 0 0 0 19 19.5v-9C19 6.3 15.81 3 12 3zm-9 7.5C3 5.311 6.973 1 12 1s9 4.311 9 9.5v9a3.5 3.5 0 0 1-6.25 2.165A3.492 3.492 0 0 1 12 23a3.492 3.492 0 0 1-2.75-1.335A3.5 3.5 0 0 1 3 19.5v-9zM7 9a2 2 0 1 1 4 0 2 2 0 0 1-4 0zm6 0a2 2 0 1 1 4 0 2 2 0 0 1-4 0z"
  />
</svg>
