<svg
  width="24"
  height="24"
  viewBox="0 0 24 24"
  xmlns="http://www.w3.org/2000/svg"
  fill="none"
  stroke="currentColor"
  stroke-width="2"
  stroke-linecap="round"
  stroke-linejoin="round"
>
  <path d="M5.014 10.422c0-1.969.736-3.856 2.046-5.248C8.37 3.782 10.147 3 12 3c1.853 0 3.63.782 4.94 2.174 1.31 1.392 2.046 3.28 2.046 5.248v7.422c.047.4-.027.805-.213 1.157a1.822 1.822 0 0 1-.818.797c-.346.166-.733.21-1.104.125a1.758 1.758 0 0 1-.959-.595 1.671 1.671 0 0 0-.575-.495 1.568 1.568 0 0 0-1.444 0 1.671 1.671 0 0 0-.576.495c-.154.21-.35.379-.575.495a1.567 1.567 0 0 1-1.444 0 1.669 1.669 0 0 1-.575-.495 1.671 1.671 0 0 0-.576-.495 1.568 1.568 0 0 0-1.444 0 1.671 1.671 0 0 0-.575.495c-.252.302-.588.51-.959.595a1.68 1.68 0 0 1-1.104-.125 1.822 1.822 0 0 1-.818-.797 1.987 1.987 0 0 1-.213-1.157v-7.422" />
  <path d="M10 9h.01" />
  <path d="M14 9h.01" />
  <ellipse cx="12" cy="14" rx=".5" ry="1" />
</svg>
