<svg width="24" height="24" viewBox="0 0 24 24" fill="none" xmlns="http://www.w3.org/2000/svg">
<path fill-rule="evenodd" clip-rule="evenodd" d="M9.46944 5.01208C8.80934 4.27863 8.12408 3.98923 7.51742 3.9998L7.5 3.99996C7.10218 3.99996 6.72064 4.15799 6.43934 4.4393C6.15804 4.7206 6 5.10213 6 5.49996C6 5.89778 6.15804 6.27931 6.43934 6.56062C6.72064 6.84192 7.10218 6.99996 7.5 6.99996H10.6419C10.3251 6.18852 9.92148 5.51434 9.46944 5.01208ZM11 8.99996V11H4V8.99996H11ZM4.33772 6.99996C4.11743 6.53553 4 6.0238 4 5.49996C4 4.5717 4.36875 3.68146 5.02513 3.02508C5.67943 2.37078 6.56612 2.00229 7.4912 1.99997C8.81053 1.97987 10.0128 2.62608 10.956 3.67415C11.3497 4.11155 11.6987 4.61777 12 5.17652C12.3013 4.61777 12.6503 4.11155 13.044 3.67415C13.9872 2.62608 15.1895 1.97987 16.5088 1.99997C17.4339 2.00229 18.3206 2.37078 18.9749 3.02508C19.6312 3.68146 20 4.5717 20 5.49996C20 6.0238 19.8826 6.53553 19.6623 6.99996H21C21.5523 6.99996 22 7.44767 22 7.99996V12C22 12.5522 21.5523 13 21 13H20V21C20 21.5522 19.5523 22 19 22H5C4.44772 22 4 21.5522 4 21V13H3C2.44772 13 2 12.5522 2 12V7.99996C2 7.44767 2.44772 6.99996 3 6.99996H4.33772ZM6 13V20H11V13H6ZM13 13V20H18V13H13ZM20 11V8.99996H13V11H20ZM16.5 6.99996C16.8978 6.99996 17.2794 6.84192 17.5607 6.56062C17.842 6.27931 18 5.89778 18 5.49996C18 5.10213 17.842 4.7206 17.5607 4.4393C17.2794 4.15799 16.8978 3.99996 16.5 3.99996L16.4826 3.9998C15.8759 3.98923 15.1907 4.27863 14.5306 5.01208C14.0785 5.51434 13.6749 6.18852 13.3581 6.99996H16.5Z" fill="black"/>
</svg>
