<svg
  width="24"
  height="24"
  viewBox="0 0 24 24"
  xmlns="http://www.w3.org/2000/svg"
>
  <path
    fill-rule="evenodd"
    clip-rule="evenodd"
    d="M9.47 5.012C8.81 4.28 8.123 3.99 7.516 4H7.5a1.5 1.5 0 1 0 0 3h3.142c-.317-.811-.72-1.486-1.173-1.988zM11 9v2H4V9h7zM4.338 7A3.5 3.5 0 0 1 7.49 2c1.32-.02 2.522.626 3.465 1.674.394.438.743.944 1.044 1.503a7.712 7.712 0 0 1 1.044-1.503C13.987 2.626 15.19 1.98 16.509 2a3.5 3.5 0 0 1 3.153 5H21a1 1 0 0 1 1 1v4a1 1 0 0 1-1 1h-1v8a1 1 0 0 1-1 1H5a1 1 0 0 1-1-1v-8H3a1 1 0 0 1-1-1V8a1 1 0 0 1 1-1h1.338zM6 13v7h5v-7H6zm7 0v7h5v-7h-5zm7-2V9h-7v2h7zm-3.5-4a1.5 1.5 0 0 0 0-3h-.017c-.607-.01-1.292.279-1.952 1.012-.453.502-.856 1.177-1.173 1.988H16.5z"
  />
</svg>
