<svg width="24" height="24" viewBox="0 0 24 24" fill="none" xmlns="http://www.w3.org/2000/svg">
<path fill-rule="evenodd" clip-rule="evenodd" d="M12 9C10.3431 9 8.99999 10.3431 8.99999 12C8.99999 13.6569 10.3431 15 12 15C13.6568 15 15 13.6569 15 12C15 10.3431 13.6568 9 12 9ZM7.10001 11C7.56328 8.71776 9.58103 7 12 7C14.4189 7 16.4367 8.71776 16.9 11H22.96C23.5123 11 23.96 11.4477 23.96 12C23.96 12.5523 23.5123 13 22.96 13H16.9C16.4367 15.2822 14.4189 17 12 17C9.58103 17 7.56328 15.2822 7.10001 13H1.04999C0.497703 13 0.0499878 12.5523 0.0499878 12C0.0499878 11.4477 0.497703 11 1.04999 11H7.10001Z" fill="black"/>
</svg>
