<svg
  width="24"
  height="24"
  viewBox="0 0 24 24"
  xmlns="http://www.w3.org/2000/svg"
>
  <path
    fill-rule="evenodd"
    clip-rule="evenodd"
    d="M2.606 3.884A4 4 0 0 0 5 9.874V22h2V9.874a4 4 0 1 0-4.394-5.99zm1.98.702a2 2 0 1 1 2.828 2.828 2 2 0 0 1-2.828-2.828z"
  />
  <path
    fill-rule="evenodd"
    clip-rule="evenodd"
    d="M12 5h4a3 3 0 0 1 3 3v6.126A4.002 4.002 0 0 1 18 22a4 4 0 0 1-1-7.874V8a1 1 0 0 0-1-1h-4V5zm4.586 11.586a2 2 0 1 1 2.828 2.829 2 2 0 0 1-2.828-2.83z"
  />
</svg>
