<svg width="24" height="24" viewBox="0 0 24 24" fill="none" xmlns="http://www.w3.org/2000/svg">
<path fill-rule="evenodd" clip-rule="evenodd" d="M6 4C4.89543 4 4 4.89543 4 6C4 7.10457 4.89543 8 6 8C7.10457 8 8 7.10457 8 6C8 4.89543 7.10457 4 6 4ZM2 6C2 3.79086 3.79086 2 6 2C8.20914 2 10 3.79086 10 6C10 7.51226 9.16079 8.82852 7.92268 9.50846L12 13.5858L16.0773 9.50846C14.8392 8.82852 14 7.51226 14 6C14 3.79086 15.7909 2 18 2C20.2091 2 22 3.79086 22 6C22 8.06115 20.441 9.75819 18.4379 9.9763L13.9227 14.4915C15.1608 15.1715 16 16.4877 16 18C16 20.2091 14.2091 22 12 22C9.79086 22 8 20.2091 8 18C8 16.4877 8.83921 15.1715 10.0773 14.4915L5.56209 9.9763C3.55897 9.75819 2 8.06115 2 6ZM18 4C16.8954 4 16 4.89543 16 6C16 7.10457 16.8954 8 18 8C19.1046 8 20 7.10457 20 6C20 4.89543 19.1046 4 18 4ZM12 16C10.8954 16 10 16.8954 10 18C10 19.1046 10.8954 20 12 20C13.1046 20 14 19.1046 14 18C14 16.8954 13.1046 16 12 16Z" fill="black"/>
</svg>
