<svg
  width="24"
  height="24"
  viewBox="0 0 24 24"
  xmlns="http://www.w3.org/2000/svg"
>
  <path d="M21.622 11.108l-8.733-8.731a1.291 1.291 0 0 0-1.823 0l-1.81 1.812 2.3 2.3a1.532 1.532 0 0 1 1.94 1.951l2.215 2.217a1.532 1.532 0 0 1 1.583 2.533c-.599.598-1.567.598-2.167 0a1.538 1.538 0 0 1-.336-1.664l-2.074-2.064V14.9c.146.072.285.17.406.29.595.6.595 1.57 0 2.167-.599.6-1.574.6-2.174 0-.599-.6-.599-1.566 0-2.165a1.57 1.57 0 0 1 .504-.339v-5.49a1.528 1.528 0 0 1-.83-2.008l-2.26-2.272-5.988 5.985c-.5.504-.5 1.32 0 1.824l8.733 8.73a1.288 1.288 0 0 0 1.822 0l8.692-8.691a1.287 1.287 0 0 0 0-1.823z" />
</svg>
