<svg
  width="24"
  height="24"
  viewBox="0 0 24 24"
  xmlns="http://www.w3.org/2000/svg"
>
  <path d="M16.269 22a1.003 1.003 0 0 1-1.002-1v-2.603a2.15 2.15 0 0 0-.541-1.662 1 1 0 0 1 .611-1.671c2.445-.29 4.7-1.07 4.7-5.305a4 4 0 0 0-.672-2.221 2.75 2.75 0 0 1-.41-2.062 3.71 3.71 0 0 0 0-1.411 7.668 7.668 0 0 0-2.095 1.09 1.002 1.002 0 0 1-.841.15 10.18 10.18 0 0 0-5.531 0 1.003 1.003 0 0 1-.842-.15 7.417 7.417 0 0 0-2.114-1.09 3.52 3.52 0 0 0 0 1.41 2.84 2.84 0 0 1-.43 2.083A4.07 4.07 0 0 0 6.43 9.79c0 3.893 1.884 4.934 4.71 5.294a1.002 1.002 0 0 1 .82.66 1 1 0 0 1-.21 1.002 2.061 2.061 0 0 0-.55 1.56V21a1 1 0 0 1-1.711.708 1 1 0 0 1-.294-.708v-.57a6.016 6.016 0 0 1-5.28-2.092 3.907 3.907 0 0 0-1.162-.88 1.004 1.004 0 0 1-.26-1.835 1.004 1.004 0 0 1 .761-.108c.77.28 1.46.749 2.004 1.362 1.002 1 2.004 1.881 3.907 1.52a3.89 3.89 0 0 1 .23-1.58c-2.063-.52-5.009-2.002-5.009-7.006a6 6 0 0 1 1.002-3.333.85.85 0 0 0 .13-.62 5.69 5.69 0 0 1 .331-3.214 1 1 0 0 1 .631-.57c.34-.1 1.563-.3 3.878 1.2 1.873-.45 3.827-.45 5.7 0 2.315-1.5 3.537-1.31 3.868-1.2a1.002 1.002 0 0 1 .631.57 5.71 5.71 0 0 1 .33 3.223.75.75 0 0 0 .111.57A6 6 0 0 1 22 9.78c0 5.074-2.926 6.545-5.01 7.005a4.28 4.28 0 0 1 .22 1.672v2.542A1 1 0 0 1 16.27 22z" />
</svg>
