<svg
  width="24"
  height="24"
  viewBox="0 0 24 24"
  xmlns="http://www.w3.org/2000/svg"
>
  <path d="M21.354 7.21a.398.398 0 0 0-.77.143c0 .043.012.098.023.142 1.79 4.758-.627 10.064-5.384 11.855a9.083 9.083 0 0 1-2.022.506V15.56c.275-.055.539-.132.803-.22v3.615c4.537-1.11 7.328-5.68 6.218-10.218a8.456 8.456 0 0 0-4.13-5.406.393.393 0 0 0-.54.154.393.393 0 0 0 .155.538c3.702 2.044 5.043 6.713 2.999 10.416a7.608 7.608 0 0 1-3.9 3.417V14.66c.505-.165.857-.626.857-1.165 0-.44-.22-.835-.605-1.054.286-2.758 1.55-2.033 1.55-2.912v-.516c0-1.319-3.055-5.615-4.483-5.714h-.264c-1.428.1-4.483 4.395-4.483 5.714v.516c0 .879 1.253.154 1.55 2.912-.374.22-.605.615-.605 1.054 0 .539.352 1 .857 1.165v3.197c-3.922-1.549-5.856-5.999-4.307-9.932a7.7 7.7 0 0 1 3.417-3.9.4.4 0 0 0 .154-.55.406.406 0 0 0-.351-.198.37.37 0 0 0-.187.055 8.452 8.452 0 0 0-3.318 11.493 8.456 8.456 0 0 0 5.405 4.13v-3.603c.264.088.528.165.802.22v4.296a9.2 9.2 0 0 1-7.91-10.339 9.083 9.083 0 0 1 .505-2.022.407.407 0 0 0-.23-.516.412.412 0 0 0-.517.23c-1.945 5.176.67 10.944 5.845 12.878 1 .373 2.044.582 3.11.626v-5.076c.142.01.406.01.406.01s.264 0 .406-.01v5.065a10.001 10.001 0 0 0 9.581-10.416 10.382 10.382 0 0 0-.637-3.087zm-7.515 5.702a.83.83 0 0 1 1.164 0 .829.829 0 0 1 0 1.165.823.823 0 1 1-1.165-1.165zm-3.692 1.165a.816.816 0 0 1-1.154 0 .829.829 0 0 1 0-1.165.829.829 0 0 1 1.165 0 .819.819 0 0 1-.01 1.165z" />
</svg>
