<svg width="24" height="24" viewBox="0 0 24 24" fill="none" xmlns="http://www.w3.org/2000/svg">
<path fill-rule="evenodd" clip-rule="evenodd" d="M6.0482 2.00117C6.46046 2.02107 6.81814 2.29222 6.94867 2.68378L8.72074 8.00001H15.2792L17.0513 2.68378C17.1818 2.29222 17.5395 2.02107 17.9518 2.00117C18.364 1.98127 18.7462 2.2167 18.9138 2.59387L22.9138 11.5939C23.0897 11.9896 22.9908 12.4536 22.6689 12.7433L12.6689 21.7433C12.2886 22.0856 11.7113 22.0856 11.331 21.7433L1.33102 12.7433C1.00912 12.4536 0.910285 11.9896 1.08617 11.5939L5.08617 2.59387C5.2538 2.2167 5.63594 1.98127 6.0482 2.00117ZM14.6126 10H9.38741L12 17.8377L14.6126 10ZM9.85349 17.7228L7.27922 10H3.98319L3.20874 11.7425L9.85349 17.7228ZM4.87208 8.00001H6.61256L5.86664 5.76225L4.87208 8.00001ZM14.1465 17.7228L16.7207 10H20.0168L20.7912 11.7425L14.1465 17.7228ZM19.1279 8.00001H17.3874L18.1333 5.76225L19.1279 8.00001Z" fill="black"/>
</svg>
