<svg
  width="24"
  height="24"
  viewBox="0 0 24 24"
  xmlns="http://www.w3.org/2000/svg"
>
  <path d="M6.037 2.753a.838.838 0 0 0-.795.577c-1.043 3.21-2.204 6.777-3.184 9.783a1.198 1.198 0 0 0 .435 1.339l9.226 6.704c.167.12.394.12.559-.003l9.227-6.7a1.196 1.196 0 0 0 .435-1.342c-1.07-3.285-2.236-6.88-3.18-9.788a.837.837 0 0 0-.798-.57.823.823 0 0 0-.791.575L15.167 9.5H8.836L6.827 3.328a.822.822 0 0 0-.784-.575h-.006zm-.005 1.184l1.811 5.565H4.23l1.803-5.565zm11.939 0l1.806 5.565H16.16l1.81-5.565zm-8.828 6.508h5.719c-.952 2.934-1.907 5.867-2.862 8.8l-2.857-8.8zm-4.595.004H8.15l2.572 7.917-6.173-7.917zm11.306 0h3.604c-2.055 2.642-4.125 5.274-6.175 7.919.856-2.64 1.715-5.279 2.571-7.919zm-12.104.52l5.814 7.455L3.05 13.69a.254.254 0 0 1-.093-.284l.793-2.437zm16.498 0l.794 2.434a.255.255 0 0 1-.092.285v.001l-6.517 4.734.022-.03 5.793-7.425z" />
</svg>
