<svg
  width="24"
  height="24"
  viewBox="0 0 24 24"
  xmlns="http://www.w3.org/2000/svg"
>
  <path
    fill-rule="evenodd"
    clip-rule="evenodd"
    d="M6.048 2.001a1 1 0 0 1 .9.683L8.722 8h6.558l1.772-5.316a1 1 0 0 1 1.863-.09l4 9a1 1 0 0 1-.245 1.15l-10 9a1 1 0 0 1-1.338 0l-10-9a1 1 0 0 1-.245-1.15l4-9A1 1 0 0 1 6.048 2zM14.613 10H9.387L12 17.838 14.613 10zm-4.76 7.723L7.28 10H3.983l-.774 1.742 6.644 5.98zM4.873 8h1.74l-.746-2.238L4.872 8zm9.273 9.723L16.721 10h3.296l.774 1.742-6.645 5.98zM19.128 8h-1.74l.745-2.238L19.128 8z"
  />
</svg>
