<svg
  width="24"
  height="24"
  viewBox="0 0 24 24"
  xmlns="http://www.w3.org/2000/svg"
>
  <path
    fill-rule="evenodd"
    clip-rule="evenodd"
    d="M7.011 2.849A1 1 0 0 1 8 2h8a1 1 0 0 1 .988.849l1 6.545c.008.05.012.1.012.151 0 1.686-.613 3.317-1.727 4.533A5.872 5.872 0 0 1 13 15.91V20h4v2H7v-2h4v-4.09a5.872 5.872 0 0 1-3.273-1.832C6.613 12.862 6 11.231 6 9.545a1 1 0 0 1 .011-.15l1-6.546zM8.86 4L8 9.618c.017 1.181.455 2.295 1.2 3.109C9.96 13.554 10.97 14 12 14s2.04-.446 2.798-1.273c.746-.814 1.184-1.928 1.201-3.11L15.141 4H8.86z"
  />
</svg>
