<svg width="24" height="24" viewBox="0 0 24 24" fill="none" xmlns="http://www.w3.org/2000/svg">
<path d="M8 21H16" stroke="white" stroke-width="2" stroke-linecap="round" stroke-linejoin="round"/>
<path d="M12 15V21" stroke="white" stroke-width="2" stroke-linecap="round" stroke-linejoin="round"/>
<path d="M16 3L17 9.545C17 10.992 16.473 12.38 15.536 13.402C14.598 14.425 13.326 15 12 15C10.674 15 9.402 14.425 8.464 13.402C7.527 12.38 7 10.992 7 9.545L8 3H16Z" stroke="white" stroke-width="2" stroke-linecap="round" stroke-linejoin="round"/>
<path d="M7 10C7.71 9.353 8.591 9 9.5 9C10.409 9 11.29 9.353 12 10C12.71 10.647 13.591 11 14.5 11C15.409 11 16.29 10.647 17 10" stroke="white" stroke-width="2" stroke-linecap="round" stroke-linejoin="round"/>
</svg>
