<svg width="24" height="24" viewBox="0 0 24 24" fill="none" xmlns="http://www.w3.org/2000/svg">
<path fill-rule="evenodd" clip-rule="evenodd" d="M3 4C3 3.44772 3.44772 3 4 3H20C20.5523 3 21 3.44772 21 4V5C21 5.26522 20.8946 5.51957 20.7071 5.70711L13 13.4142V19H17C17.5523 19 18 19.4477 18 20C18 20.5523 17.5523 21 17 21H7C6.44772 21 6 20.5523 6 20C6 19.4477 6.44772 19 7 19H11V13.4142L3.29289 5.70711C3.10536 5.51957 3 5.26522 3 5V4ZM12 11.5858L14.5858 9H9.41421L12 11.5858ZM7.41421 7H16.5858L18.5858 5H5.41421L7.41421 7Z" fill="black"/>
</svg>
