<svg width="24" height="24" viewBox="0 0 24 24" fill="none" xmlns="http://www.w3.org/2000/svg">
<path d="M8 15C7.44287 14.2572 7.1036 13.3738 7.02021 12.449C6.93682 11.5242 7.1126 10.5945 7.52787 9.76393C7.94313 8.9334 8.58147 8.23492 9.37135 7.74675C10.1612 7.25857 11.0714 7 12 7C12.9286 7 13.8388 7.25857 14.6287 7.74675C15.4185 8.23492 16.0569 8.9334 16.4721 9.76393C16.8874 10.5945 17.0632 11.5242 16.9798 12.449C16.8964 13.3738 16.5571 14.2572 16 15" stroke="white" stroke-width="2" stroke-linecap="round" stroke-linejoin="round"/>
<path d="M4.79999 18C3.623 16.3608 2.99311 14.392 2.99999 12.374C2.99999 7.197 7.03 3 12 3C16.97 3 21 7.197 21 12.374C21.0069 14.392 20.377 16.3608 19.2 18" stroke="white" stroke-width="2" stroke-linecap="round" stroke-linejoin="round"/>
<path d="M15 21H9L12 16L15 21Z" stroke="white" stroke-width="2" stroke-linecap="round" stroke-linejoin="round"/>
</svg>
