<svg width="24" height="24" viewBox="0 0 24 24" fill="none" xmlns="http://www.w3.org/2000/svg">
<path d="M8 15.0005C7.37209 14.1647 7 13.1258 7 12C7 9.23858 9.23858 7 12 7C14.7614 7 17 9.23858 17 12C17 13.1258 16.6279 14.1647 16 15.0005" stroke="#1E293B" stroke-width="2" stroke-linecap="round" stroke-linejoin="round"/>
<path d="M4.8 18C3.66976 16.4331 3 14.4852 3 12.3744C3 7.19707 7.02944 3 12 3C16.9706 3 21 7.19707 21 12.3744C21 14.4852 20.3302 16.4331 19.2 18" stroke="#1E293B" stroke-width="2" stroke-linecap="round" stroke-linejoin="round"/>
<path d="M15 21H9L12 16L15 21Z" stroke="#1E293B" stroke-width="2" stroke-linecap="round" stroke-linejoin="round"/>
</svg>
