<svg
  width="24"
  height="24"
  viewBox="0 0 24 24"
  xmlns="http://www.w3.org/2000/svg"
  fill="none"
  stroke="currentColor"
  stroke-width="2"
  stroke-linecap="round"
  stroke-linejoin="round"
>
  <path d="M5 10a1 1 0 1 0 0-2 1 1 0 0 0 0 2z" />
  <path d="M5 16a1 1 0 1 0 0-2 1 1 0 0 0 0 2z" />
  <path d="M12 10a1 1 0 1 0 0-2 1 1 0 0 0 0 2z" />
  <path d="M12 16a1 1 0 1 0 0-2 1 1 0 0 0 0 2z" />
  <path d="M19 10a1 1 0 1 0 0-2 1 1 0 0 0 0 2z" />
  <path d="M19 16a1 1 0 1 0 0-2 1 1 0 0 0 0 2z" />
</svg>
