<svg
  width="24"
  height="24"
  viewBox="0 0 24 24"
  xmlns="http://www.w3.org/2000/svg"
>
  <path
    fill-rule="evenodd"
    clip-rule="evenodd"
    d="M7 5a2 2 0 1 1 4 0 2 2 0 0 1-4 0z"
  />
  <path
    fill-rule="evenodd"
    clip-rule="evenodd"
    d="M7 12a2 2 0 1 1 4 0 2 2 0 0 1-4 0z"
  />
  <path
    fill-rule="evenodd"
    clip-rule="evenodd"
    d="M7 19a2 2 0 1 1 4 0 2 2 0 0 1-4 0z"
  />
  <path
    fill-rule="evenodd"
    clip-rule="evenodd"
    d="M13 5a2 2 0 1 1 4 0 2 2 0 0 1-4 0z"
  />
  <path
    fill-rule="evenodd"
    clip-rule="evenodd"
    d="M13 12a2 2 0 1 1 4 0 2 2 0 0 1-4 0z"
  />
  <path
    fill-rule="evenodd"
    clip-rule="evenodd"
    d="M13 19a2 2 0 1 1 4 0 2 2 0 0 1-4 0z"
  />
</svg>
