<svg
  width="24"
  height="24"
  viewBox="0 0 24 24"
  xmlns="http://www.w3.org/2000/svg"
>
  <path
    fill-rule="evenodd"
    clip-rule="evenodd"
    d="M19 7a2 2 0 1 1 0 4 2 2 0 0 1 0-4z"
  />
  <path
    fill-rule="evenodd"
    clip-rule="evenodd"
    d="M12 7a2 2 0 1 1 0 4 2 2 0 0 1 0-4z"
  />
  <path
    fill-rule="evenodd"
    clip-rule="evenodd"
    d="M5 7a2 2 0 1 1 0 4 2 2 0 0 1 0-4z"
  />
  <path
    fill-rule="evenodd"
    clip-rule="evenodd"
    d="M19 13a2 2 0 1 1 0 4 2 2 0 0 1 0-4z"
  />
  <path
    fill-rule="evenodd"
    clip-rule="evenodd"
    d="M12 13a2 2 0 1 1 0 4 2 2 0 0 1 0-4z"
  />
  <path
    fill-rule="evenodd"
    clip-rule="evenodd"
    d="M5 13a2 2 0 1 1 0 4 2 2 0 0 1 0-4z"
  />
</svg>
