<svg
  width="24"
  height="24"
  viewBox="0 0 24 24"
  xmlns="http://www.w3.org/2000/svg"
  fill="none"
  stroke="currentColor"
  stroke-width="2"
  stroke-linecap="round"
  stroke-linejoin="round"
>
  <path d="M14 5a1 1 0 1 0 2 0 1 1 0 0 0-2 0z" />
  <path d="M8 5a1 1 0 1 0 2 0 1 1 0 0 0-2 0z" />
  <path d="M14 12a1 1 0 1 0 2 0 1 1 0 0 0-2 0z" />
  <path d="M8 12a1 1 0 1 0 2 0 1 1 0 0 0-2 0z" />
  <path d="M14 19a1 1 0 1 0 2 0 1 1 0 0 0-2 0z" />
  <path d="M8 19a1 1 0 1 0 2 0 1 1 0 0 0-2 0z" />
</svg>
