<svg width="24" height="24" viewBox="0 0 24 24" fill="none" xmlns="http://www.w3.org/2000/svg">
<path d="M12 5V19M3 5V19V5ZM3 12H12H3Z" stroke="white" stroke-width="2" stroke-linecap="round" stroke-linejoin="round"/>
<path d="M21 18.9999H16L20.47 13.0399C20.7158 12.7261 20.883 12.3581 20.9577 11.9666C21.0324 11.5751 21.0124 11.1714 20.8995 10.7891C20.7865 10.4069 20.5839 10.0572 20.3084 9.76912C20.0329 9.48108 19.6925 9.26306 19.3156 9.13322C18.9388 9.00339 18.5364 8.96551 18.1419 9.02274C17.7475 9.07996 17.3724 9.23064 17.048 9.46221C16.7236 9.69377 16.4592 9.99953 16.2769 10.354C16.0946 10.7084 15.9997 11.1013 16 11.4999" stroke="white" stroke-width="2" stroke-linecap="round" stroke-linejoin="round"/>
</svg>
