<svg width="24" height="24" viewBox="0 0 24 24" fill="none" xmlns="http://www.w3.org/2000/svg">
<path d="M12 5V19M3 5V19V5ZM3 12H12H3Z" stroke="white" stroke-width="2" stroke-linecap="round" stroke-linejoin="round"/>
<path d="M16 11.5C16 11.0055 16.1466 10.5222 16.4213 10.1111C16.696 9.69995 17.0865 9.37952 17.5433 9.1903C18.0001 9.00108 18.5028 8.95157 18.9877 9.04804C19.4727 9.1445 19.9181 9.3826 20.2678 9.73223C20.6174 10.0819 20.8555 10.5273 20.952 11.0123C21.0484 11.4972 20.9989 11.9999 20.8097 12.4567C20.6205 12.9135 20.3 13.304 19.8889 13.5787C19.4778 13.8534 18.9945 14 18.5 14C18.9945 14 19.4778 14.1466 19.8889 14.4213C20.3 14.696 20.6205 15.0865 20.8097 15.5433C20.9989 16.0001 21.0484 16.5028 20.952 16.9877C20.8555 17.4727 20.6174 17.9181 20.2678 18.2678C19.9181 18.6174 19.4727 18.8555 18.9877 18.952C18.5028 19.0484 18.0001 18.9989 17.5433 18.8097C17.0865 18.6205 16.696 18.3 16.4213 17.8889C16.1466 17.4778 16 16.9945 16 16.5" stroke="white" stroke-width="2" stroke-linecap="round" stroke-linejoin="round"/>
</svg>
