<svg width="24" height="24" viewBox="0 0 24 24" fill="none" xmlns="http://www.w3.org/2000/svg">
<path d="M12 5V19M3 5V19V5ZM3 12H12H3Z" stroke="white" stroke-width="2" stroke-linecap="round" stroke-linejoin="round"/>
<path d="M20 9L16.5 15L20 9ZM21 16.5C21 17.163 20.7366 17.7989 20.2678 18.2678C19.7989 18.7366 19.163 19 18.5 19C17.837 19 17.2011 18.7366 16.7322 18.2678C16.2634 17.7989 16 17.163 16 16.5C16 15.837 16.2634 15.2011 16.7322 14.7322C17.2011 14.2634 17.837 14 18.5 14C19.163 14 19.7989 14.2634 20.2678 14.7322C20.7366 15.2011 21 15.837 21 16.5V16.5Z" stroke="white" stroke-width="2" stroke-linecap="round" stroke-linejoin="round"/>
</svg>
