<svg
  width="24"
  height="24"
  viewBox="0 0 24 24"
  xmlns="http://www.w3.org/2000/svg"
  fill="none"
  stroke="currentColor"
  stroke-width="2"
  stroke-linecap="round"
  stroke-linejoin="round"
>
  <path d="M9.29 15.08l-1.958-3.516a1.832 1.832 0 0 0-.46-.544 1.758 1.758 0 0 0-.624-.32 1.724 1.724 0 0 0-1.355.184 1.806 1.806 0 0 0-.524.477 1.919 1.919 0 0 0-.129 2.054C7.147 19.78 8.916 22 12.86 22c.937 0 1.866-.192 2.732-.564a7.13 7.13 0 0 0 2.317-1.605 7.435 7.435 0 0 0 1.547-2.404A7.65 7.65 0 0 0 20 14.593V10.89a1.89 1.89 0 0 0-.523-1.31 1.754 1.754 0 0 0-1.262-.542c-.474 0-.928.195-1.262.542" />
  <path d="M12.86 10.148v-.37c0-.492.188-.963.522-1.31a1.752 1.752 0 0 1 1.263-.542c.473 0 .927.195 1.262.542.335.347.523.818.523 1.31v1.11" />
  <path d="M12.86 10.148V3.852a1.89 1.89 0 0 0-.524-1.31A1.752 1.752 0 0 0 11.074 2c-.473 0-.927.195-1.262.542a1.888 1.888 0 0 0-.523 1.31V15.08" />
</svg>
