<svg
  width="24"
  height="24"
  viewBox="0 0 24 24"
  xmlns="http://www.w3.org/2000/svg"
>
  <path
    fill-rule="evenodd"
    clip-rule="evenodd"
    d="M19.235 20.65l3.058 3.057 1.414-1.414-22-22L.293 1.707l6.726 6.726v1.963a2.695 2.695 0 0 0-3.986 1.933c-.107.678.048 1.37.433 1.938l2.665 5.19c.015.03.032.06.051.088a7.435 7.435 0 0 0 2.419 2.304c.985.592 2.105.98 3.275 1.142.045.006.09.009.137.009h1.996a6.986 6.986 0 0 0 5.226-2.35zm-1.418-1.418l-6.343-6.344a1 1 0 0 1-1.46-.888v-.572l-.995-.995V13.5a1 1 0 0 1-1.02 1 1 1 0 0 1-.92-.543l-.855-1.667a.697.697 0 0 0-1.09.872c.03.042.057.086.08.131l2.672 5.203a5.45 5.45 0 0 0 1.745 1.639c.753.447 1.586.74 2.453.865h1.925a4.986 4.986 0 0 0 3.808-1.768z"
  />
  <path d="M21 16a7 7 0 0 1-.149 1.437L19 15.586V7.5a.501.501 0 0 0-.689-.462.497.497 0 0 0-.306.462V12a1 1 0 0 1-2 0V5.5a.501.501 0 0 0-.69-.462.496.496 0 0 0-.306.462v6.095l-2-2V3.5a.501.501 0 0 0-.688-.462.496.496 0 0 0-.307.462v5.1l-2-2V5.5a.501.501 0 0 0-.688-.462.496.496 0 0 0-.307.462v.105L7.475 4.06a2.501 2.501 0 0 1 2.578-1.003 2.497 2.497 0 0 1 4.917 0 2.5 2.5 0 0 1 2.995 2A2.501 2.501 0 0 1 21 7.5V16z" />
</svg>
