<svg
  width="24"
  height="24"
  viewBox="0 0 24 24"
  xmlns="http://www.w3.org/2000/svg"
>
  <path
    fill-rule="evenodd"
    clip-rule="evenodd"
    d="M12.512 3a.496.496 0 0 0-.498.5V12a1 1 0 0 1-2 0V5.5a.501.501 0 0 0-.497-.5.496.496 0 0 0-.498.5v8a1 1 0 0 1-1.02 1 1 1 0 0 1-.92-.543l-.855-1.667a.697.697 0 0 0-1.215.35.702.702 0 0 0 .125.522c.03.042.057.086.08.131l2.672 5.203a5.45 5.45 0 0 0 1.745 1.639 6.66 6.66 0 0 0 2.453.865h1.925a4.986 4.986 0 0 0 3.529-1.464A5.005 5.005 0 0 0 19 16V7.5a.501.501 0 0 0-.498-.5.497.497 0 0 0-.497.5V12a1 1 0 1 1-2 0V5.5a.501.501 0 0 0-.498-.5.497.497 0 0 0-.498.5V12a1 1 0 1 1-2 0V3.5a.501.501 0 0 0-.497-.5zm2.458.058A2.501 2.501 0 0 0 12.512 1a2.497 2.497 0 0 0-2.459 2.058 2.494 2.494 0 0 0-2.303.675A2.501 2.501 0 0 0 7.019 5.5v4.896a2.695 2.695 0 0 0-3.986 1.933 2.703 2.703 0 0 0 .433 1.938l2.665 5.19c.015.03.032.06.051.088a7.435 7.435 0 0 0 2.419 2.304c.985.592 2.105.98 3.275 1.142.045.006.09.009.137.009h1.996a6.986 6.986 0 0 0 4.944-2.05A7.005 7.005 0 0 0 21 16V7.5a2.501 2.501 0 0 0-3.035-2.442 2.5 2.5 0 0 0-2.995-2z"
  />
</svg>
