<svg
  width="24"
  height="24"
  viewBox="0 0 24 24"
  xmlns="http://www.w3.org/2000/svg"
  fill="none"
  stroke="currentColor"
  stroke-width="2"
  stroke-linecap="round"
  stroke-linejoin="round"
>
  <path d="M20.264 12.448l-1.503 1.796-4.132-3.07-1.202.92a2.963 2.963 0 0 1-1.803.614c-.65 0-1.283-.215-1.803-.614l-.509-.39a.762.762 0 0 1-.298-.56.782.782 0 0 1 .218-.596l3.675-3.755a.751.751 0 0 1 .531-.225h3.82" />
  <path d="M10.498 20l-2.83-.723a.746.746 0 0 1-.311-.165L5.239 17.23" />
  <path d="M3.736 12.345l5.133 4.1a.746.746 0 0 0 .28.14l5.443 1.39a.736.736 0 0 0 .714-.201l3.455-3.53" />
  <path d="M6.795 6.466l4.82-1.435a.736.736 0 0 1 .52.037l3.246 1.5" />
  <path d="M22.585 11.262l-2.321 1.186-3.005-5.88 2.344-1.197a.737.737 0 0 1 .568-.044.756.756 0 0 1 .434.375l2.31 4.519a.778.778 0 0 1-.33 1.041z" />
  <path d="M3.736 12.345l-1.16-.593-1.16-.593a.754.754 0 0 1-.38-.45.783.783 0 0 1 .05-.591l2.309-4.519a.756.756 0 0 1 .434-.375.737.737 0 0 1 .568.044L6.74 6.466l-3.005 5.88z" />
</svg>
