<svg
  width="24"
  height="24"
  viewBox="0 0 24 24"
  xmlns="http://www.w3.org/2000/svg"
  fill="none"
  stroke="currentColor"
  stroke-width="2"
  stroke-linecap="round"
  stroke-linejoin="round"
>
  <path d="M14.806 7.966a1.927 1.927 0 0 1 .693-2.615 1.882 1.882 0 0 1 2.59.702l1.895 3.314a7.706 7.706 0 0 1 .758 5.81 7.687 7.687 0 0 1-1.308 2.68 7.606 7.606 0 0 1-2.224 1.97 7.509 7.509 0 0 1-8.406-.558 7.633 7.633 0 0 1-1.95-2.246l-3.6-6.298a1.93 1.93 0 0 1-.19-1.452c.131-.49.449-.908.884-1.161a1.879 1.879 0 0 1 1.437-.192c.485.131.899.452 1.15.89l1.706 2.984" />
  <path d="M8.681 4.908a1.93 1.93 0 0 1-.188-1.452c.13-.49.447-.907.882-1.161a1.88 1.88 0 0 1 1.438-.191c.485.13.899.45 1.15.89l3.79 6.63-.947-1.658" />
  <path d="M8.681 4.908l2.464 4.31-3.222-5.636a1.908 1.908 0 0 0-1.15-.893 1.877 1.877 0 0 0-1.44.19 1.9 1.9 0 0 0-.883 1.164 1.93 1.93 0 0 0 .19 1.453l3.601 6.298" />
  <path d="M15.754 9.624a3.823 3.823 0 0 0-1.766 2.324 3.86 3.86 0 0 0 .378 2.905" />
  <path d="M16.451 2c.865 0 1.715.23 2.464.667a4.95 4.95 0 0 1 1.803 1.821" />
  <path d="M7.459 22a10.637 10.637 0 0 1-3.136-3.446" />
</svg>
