<svg
  width="24"
  height="24"
  viewBox="0 0 24 24"
  xmlns="http://www.w3.org/2000/svg"
  fill="none"
  stroke="currentColor"
  stroke-width="2"
  stroke-linecap="round"
  stroke-linejoin="round"
>
  <path d="M15.75 12.39h-1.5a2.205 2.205 0 0 1-1.591-.687 2.4 2.4 0 0 1-.659-1.66V8.478a.8.8 0 0 1 .22-.553.734.734 0 0 1 .53-.23h6c.597 0 1.169.248 1.591.688a2.4 2.4 0 0 1 .659 1.66v1.566c0 2.49-.948 4.879-2.636 6.64-1.688 1.76-3.977 2.75-6.364 2.75s-4.676-.988-6.364-2.75C3.948 16.489 3 14.1 3 11.61V9.26" />
  <path d="M3 9.26V7.695a2.4 2.4 0 0 1 .659-1.66c.422-.44.994-.687 1.591-.687s1.169.247 1.591.687a2.4 2.4 0 0 1 .659 1.66v1.566a2.4 2.4 0 0 1-.659 1.66c-.422.44-.994.688-1.591.688a2.202 2.202 0 0 1-1.591-.688A2.4 2.4 0 0 1 3 9.261z" />
  <path d="M12 5.348a2.4 2.4 0 0 1 .659-1.66c.422-.44.994-.688 1.591-.688a2.2 2.2 0 0 1 1.591.688 2.4 2.4 0 0 1 .659 1.66v2.348" />
  <path d="M12 9.26a2.4 2.4 0 0 1-.659 1.661c-.422.44-.994.688-1.591.688a2.205 2.205 0 0 1-1.591-.688 2.4 2.4 0 0 1-.659-1.66V5.348a2.4 2.4 0 0 1 .659-1.66C8.581 3.248 9.153 3 9.75 3a2.2 2.2 0 0 1 1.591.688A2.4 2.4 0 0 1 12 5.348V9.26z" />
  <path d="M12 16.304c0-1.038.395-2.033 1.098-2.767a3.673 3.673 0 0 1 2.652-1.146" />
</svg>
