<svg width="24" height="24" viewBox="0 0 24 24" fill="none" xmlns="http://www.w3.org/2000/svg">
<path d="M16 12.7401V10.8901C16 10.3991 16.21 9.92814 16.586 9.58014C16.9725 9.2282 17.4772 9.03439 18 9.03714C18.53 9.03714 19.04 9.23214 19.414 9.57914C19.789 9.92714 20 10.3981 20 10.8891V14.5931C20 16.5571 19.157 18.4411 17.657 19.8301C16.157 21.2201 14.122 22.0001 12 22.0001C9.878 22.0001 7.843 21.2201 6.343 19.8301C4.843 18.4411 4 16.5571 4 14.5931V7.55414C4 7.06414 4.21 6.59214 4.586 6.24514C4.97285 5.89393 5.47751 5.70084 6 5.70414C6.53 5.70414 7.04 5.89914 7.414 6.24614C7.789 6.59314 8 7.06414 8 7.55614V10.8891" stroke="white" stroke-width="2" stroke-linecap="round" stroke-linejoin="round"/>
<path d="M16 12.7402C14.94 12.7402 13.922 13.1302 13.172 13.8252C12.422 14.5202 12 15.4632 12 16.4452" stroke="white" stroke-width="2" stroke-linecap="round" stroke-linejoin="round"/>
<path d="M12 10.148V5.33298C12 4.84298 12.21 4.37097 12.586 4.02297C12.9728 3.67176 13.4775 3.47867 14 3.48198C14.53 3.48198 15.04 3.67798 15.414 4.02498C15.789 4.37198 16 4.84298 16 5.33498V12.742" stroke="white" stroke-width="2" stroke-linecap="round" stroke-linejoin="round"/>
<path d="M12 10.148V3.85204C12 3.36104 11.79 2.89004 11.414 2.54204C11.0273 2.19046 10.5226 1.99701 10 2.00004C9.47 2.00004 8.96 2.19504 8.586 2.54204C8.403 2.70796 8.25642 2.91006 8.15555 3.13555C8.05468 3.36104 8.00172 3.60502 8 3.85204V10.889" stroke="white" stroke-width="2" stroke-linecap="round" stroke-linejoin="round"/>
</svg>
