<svg
  width="24"
  height="24"
  viewBox="0 0 24 24"
  xmlns="http://www.w3.org/2000/svg"
>
  <g clip-path="url(#a)">
    <path
      fill-rule="evenodd"
      clip-rule="evenodd"
      d="M.293.293a1 1 0 0 1 1.414 0l22 22a1 1 0 0 1-1.414 1.414l-3.058-3.058A6.986 6.986 0 0 1 14.01 23h-1.996a.994.994 0 0 1-.137-.008A8.671 8.671 0 0 1 8.6 21.849a7.435 7.435 0 0 1-2.419-2.304 1.005 1.005 0 0 1-.051-.088l-2.665-5.19a2.703 2.703 0 0 1 .644-3.7 2.695 2.695 0 0 1 2.909-.171V8.433L.293 1.707a1 1 0 0 1 0-1.414zm8.726 10.14V13.5a1 1 0 0 1-1.02 1 1 1 0 0 1-.92-.543l-.855-1.667a.697.697 0 0 0-1.215.35.702.702 0 0 0 .125.522c.03.042.057.086.08.131l2.672 5.203a5.45 5.45 0 0 0 1.745 1.639 6.66 6.66 0 0 0 2.453.865h1.925a4.986 4.986 0 0 0 3.808-1.768l-6.343-6.344a1 1 0 0 1-1.46-.888v-.572l-.995-.995zM12.512 3a.496.496 0 0 0-.498.5v2.514a1 1 0 1 1-2 0V5.5a.501.501 0 0 0-.497-.5c-.051 0-.101.008-.149.023a1 1 0 0 1-.599-1.908 2.495 2.495 0 0 1 1.284-.057A2.501 2.501 0 0 1 12.512 1a2.496 2.496 0 0 1 2.458 2.058 2.494 2.494 0 0 1 2.304.675 2.5 2.5 0 0 1 .691 1.325 2.494 2.494 0 0 1 2.304.675c.468.469.731 1.104.731 1.767V15a1 1 0 1 1-2 0V7.5a.501.501 0 0 0-.498-.5.497.497 0 0 0-.497.5V12a1 1 0 1 1-2 0V5.5a.501.501 0 0 0-.498-.5.497.497 0 0 0-.498.5v3.25a1 1 0 1 1-2 0V3.5a.501.501 0 0 0-.497-.5z"
    />
  </g>
  <defs>
    <clipPath id="a">
      <rect width="24" height="24" />
    </clipPath>
  </defs>
</svg>
