<svg width="24" height="24" viewBox="0 0 24 24" fill="none" xmlns="http://www.w3.org/2000/svg">
<path d="M9.28909 15.0803L7.33189 11.5636C7.21478 11.3528 7.05877 11.168 6.87277 11.0198C6.68678 10.8715 6.47444 10.7627 6.2479 10.6997C6.02137 10.6366 5.78507 10.6205 5.55251 10.6522C5.31996 10.6839 5.09571 10.7628 4.89258 10.8845C4.68945 11.0061 4.51142 11.1681 4.36867 11.3612C4.22592 11.5543 4.12125 11.7746 4.06063 12.0097C4.00002 12.2447 3.98466 12.4899 4.01542 12.7311C4.04618 12.9723 4.12246 13.2049 4.23991 13.4155C7.1469 19.7779 8.91574 22.0001 12.8594 22.0001C13.7971 22.0001 14.7256 21.8085 15.592 21.4362C16.4583 21.064 17.2455 20.5183 17.9086 19.8305C18.5716 19.1427 19.0976 18.3261 19.4565 17.4274C19.8153 16.5286 20 15.5654 20 14.5927V10.889C20 10.3978 19.8119 9.92679 19.4771 9.5795C19.1424 9.23221 18.6883 9.03711 18.2148 9.03711C17.7414 9.03711 17.2873 9.23221 16.9526 9.5795" stroke="#1E293B" stroke-width="2" stroke-linecap="round" stroke-linejoin="round"/>
<path d="M12.8594 10.148L12.8594 9.77763C12.8594 9.28649 13.0475 8.81547 13.3822 8.46818C13.717 8.12089 14.1711 7.92578 14.6445 7.92578C15.118 7.92578 15.572 8.12089 15.9068 8.46818C16.2416 8.81547 16.4297 9.28649 16.4297 9.77763L16.4297 10.8887" stroke="#1E293B" stroke-width="2" stroke-linecap="round" stroke-linejoin="round"/>
<path d="M12.8594 10.1481V3.85185C12.8594 3.36071 12.6713 2.88968 12.3365 2.54239C12.0017 2.19511 11.5477 2 11.0742 2C10.6008 2 10.1467 2.19511 9.81192 2.54239C9.47714 2.88968 9.28906 3.36071 9.28906 3.85185V15.0802" stroke="#1E293B" stroke-width="2" stroke-linecap="round" stroke-linejoin="round"/>
</svg>
