<svg
  width="24"
  height="24"
  viewBox="0 0 24 24"
  xmlns="http://www.w3.org/2000/svg"
  fill="none"
  stroke="currentColor"
  stroke-width="2"
  stroke-linecap="round"
  stroke-linejoin="round"
>
  <path d="M16 12.74v-1.85c0-.491.21-.962.586-1.31A2.084 2.084 0 0 1 18 9.037c.53 0 1.04.195 1.414.542.375.348.586.819.586 1.31v3.704c0 1.964-.843 3.848-2.343 5.237C16.157 21.22 14.122 22 12 22s-4.157-.78-5.657-2.17C4.843 18.441 4 16.557 4 14.593V7.554c0-.49.21-.962.586-1.309A2.084 2.084 0 0 1 6 5.704c.53 0 1.04.195 1.414.542.375.347.586.818.586 1.31v3.333" />
  <path d="M16 12.74c-1.06 0-2.078.39-2.828 1.085S12 15.463 12 16.445" />
  <path d="M12 10.148V5.333c0-.49.21-.962.586-1.31A2.084 2.084 0 0 1 14 3.482c.53 0 1.04.196 1.414.543.375.347.586.818.586 1.31v7.407" />
  <path d="M12 10.148V3.852c0-.491-.21-.962-.586-1.31A2.084 2.084 0 0 0 10 2c-.53 0-1.04.195-1.414.542A1.785 1.785 0 0 0 8 3.852v7.037" />
</svg>
