<svg width="24" height="24" viewBox="0 0 24 24" fill="none" xmlns="http://www.w3.org/2000/svg">
<path d="M17 8C17.5304 8 18.0391 7.78929 18.4142 7.41421C18.7893 7.03914 19 6.53043 19 6C19 5.46957 18.7893 4.96086 18.4142 4.58579C18.0391 4.21071 17.5304 4 17 4C16.4696 4 15.9609 4.21071 15.5858 4.58579C15.2107 4.96086 15 5.46957 15 6C15 6.53043 15.2107 7.03914 15.5858 7.41421C15.9609 7.78929 16.4696 8 17 8V8Z" stroke="white" stroke-width="2" stroke-linecap="round" stroke-linejoin="round"/>
<path d="M9.00001 10.9998C8.1416 10.9849 7.29383 11.1914 6.53834 11.5992C5.78286 12.007 5.14512 12.6026 4.68654 13.3284C4.22797 14.0542 3.96401 14.8858 3.92009 15.7433C3.87617 16.6007 4.05377 17.455 4.43579 18.2238C4.81781 18.9927 5.39136 19.6502 6.10123 20.1331C6.81109 20.616 7.63333 20.908 8.48877 20.9809C9.34421 21.0539 10.204 20.9053 10.9854 20.5496C11.7667 20.1938 12.4433 19.6429 12.95 18.9498" stroke="white" stroke-width="2" stroke-linecap="round" stroke-linejoin="round"/>
<path d="M19 20L15 15H11L14 10L10 7L6 8" stroke="white" stroke-width="2" stroke-linecap="round" stroke-linejoin="round"/>
</svg>
