<svg
  width="24"
  height="24"
  viewBox="0 0 24 24"
  xmlns="http://www.w3.org/2000/svg"
  fill="none"
  stroke="currentColor"
  stroke-width="2"
  stroke-linecap="round"
  stroke-linejoin="round"
>
  <path d="M16.983 6.815c0-.491.212-.962.589-1.31a2.098 2.098 0 0 1 1.42-.542c.532 0 1.043.195 1.42.542.376.348.588.819.588 1.31v7.777a6.91 6.91 0 0 1-.611 2.835 7.397 7.397 0 0 1-1.742 2.403 8.109 8.109 0 0 1-2.606 1.606 8.627 8.627 0 0 1-3.074.564C8.53 22 6.54 19.778 3.27 13.415a1.756 1.756 0 0 1-.253-.684 1.712 1.712 0 0 1 .051-.722c.068-.235.186-.455.347-.648.16-.193.36-.355.59-.477A2.175 2.175 0 0 1 5.53 10.7c.254.064.493.172.702.32.21.149.385.334.516.544L8.95 15.08" />
  <path d="M8.95 15.08V5.333c0-.49.212-.962.588-1.31a2.098 2.098 0 0 1 1.42-.542c.533 0 1.044.196 1.42.543.377.347.589.818.589 1.31" />
  <path d="M16.983 11.63V3.846a1.782 1.782 0 0 0-.588-1.304A2.098 2.098 0 0 0 14.975 2c-.532 0-1.043.195-1.42.542a1.782 1.782 0 0 0-.588 1.31v7.778" />
</svg>
