<svg
  width="24"
  height="24"
  viewBox="0 0 24 24"
  xmlns="http://www.w3.org/2000/svg"
>
  <path
    fill-rule="evenodd"
    clip-rule="evenodd"
    d="M19.586 21l2.707 2.707 1.414-1.414-22-22L.293 1.707l3.964 3.964A9.959 9.959 0 0 0 2 12v7a2 2 0 0 0 2 2h3a2 2 0 0 0 2-2v-5a2 2 0 0 0-2-2H4a8 8 0 0 1 1.68-4.905l9.32 9.32V19a2 2 0 0 0 2 2h2.586zm-2-2L17 18.414V19h.586zM4 14v5h3v-5H4z"
  />
  <path d="M22 12v6.586l-2-2V14h-2.586l-1.606-1.606A2 2 0 0 1 17 12h3A8 8 0 0 0 8.314 4.9l-1.47-1.47A9.954 9.954 0 0 1 12 2c5.523 0 10 4.477 10 10z" />
</svg>
