<svg
  width="24"
  height="24"
  viewBox="0 0 24 24"
  xmlns="http://www.w3.org/2000/svg"
>
  <g clip-path="url(#a)">
    <path
      fill-rule="evenodd"
      clip-rule="evenodd"
      d="M.293.293a1 1 0 0 1 1.414 0l22 22a1 1 0 0 1-1.414 1.414L19.586 21H17a2 2 0 0 1-2-2v-2.586l-9.32-9.32A7.962 7.962 0 0 0 4 12h3a2 2 0 0 1 2 2v5a2 2 0 0 1-2 2H4a2 2 0 0 1-2-2v-7c0-2.4.847-4.605 2.257-6.329L.293 1.707a1 1 0 0 1 0-1.414zM4 14v5h3v-5H4zm13 4.414V19h.586L17 18.414zM12 4a7.975 7.975 0 0 0-2.981.574 1 1 0 0 1-.746-1.856A9.975 9.975 0 0 1 12 2c5.523 0 10 4.477 10 10v4a1 1 0 1 1-2 0v-2h-2a1 1 0 1 1 0-2h2a8 8 0 0 0-8-8z"
    />
  </g>
  <defs>
    <clipPath id="a">
      <rect width="24" height="24" />
    </clipPath>
  </defs>
</svg>
