<svg width="24" height="24" viewBox="0 0 24 24" fill="none" xmlns="http://www.w3.org/2000/svg">
<g clip-path="url(#clip0)">
<path fill-rule="evenodd" clip-rule="evenodd" d="M0.292893 0.292893C0.683417 -0.0976311 1.31658 -0.0976311 1.70711 0.292893L23.7071 22.2929C24.0976 22.6834 24.0976 23.3166 23.7071 23.7071C23.3166 24.0976 22.6834 24.0976 22.2929 23.7071L19.5858 21H17C15.8954 21 15 20.1046 15 19V16.4142L5.68009 7.0943C4.62644 8.44939 4 10.1509 4 12H7C8.10457 12 9 12.8954 9 14V19C9 20.1046 8.10457 21 7 21H4C2.89543 21 2 20.1046 2 19V12C2 9.59913 2.84708 7.39467 4.25709 5.67131L0.292893 1.70711C-0.0976311 1.31658 -0.0976311 0.683417 0.292893 0.292893ZM4 14V19H7V14H4ZM17 18.4142V19H17.5858L17 18.4142ZM12 4C10.9443 4 9.93873 4.20396 9.0187 4.57369C8.50625 4.77963 7.92388 4.53115 7.71794 4.0187C7.512 3.50625 7.76047 2.92388 8.27293 2.71794C9.42606 2.25452 10.6845 2 12 2C17.5228 2 22 6.47715 22 12V16C22 16.5523 21.5523 17 21 17C20.4477 17 20 16.5523 20 16V14H18C17.4477 14 17 13.5523 17 13C17 12.4477 17.4477 12 18 12H20C20 7.58172 16.4183 4 12 4Z" fill="black"/>
</g>
<defs>
<clipPath id="clip0">
<rect width="24" height="24" fill="white"/>
</clipPath>
</defs>
</svg>
