<svg width="24" height="24" viewBox="0 0 24 24" fill="none" xmlns="http://www.w3.org/2000/svg">
<path d="M14.7778 11C13.2437 11 12 12.2592 12 13.8125C12 14.4453 12.2064 15.0293 12.5547 15.4992L17 20L21.4453 15.4992C21.7936 15.0293 22 14.4453 22 13.8125C22 12.3799 20.9421 11.1975 19.5741 11.0224C19.4589 11.0076 19.3414 11 19.2222 11C18.3136 11 17.5068 11.4418 17 12.1247C16.4932 11.4418 15.6864 11 14.7778 11Z" stroke="white" stroke-width="2" stroke-linecap="round" stroke-linejoin="round"/>
<path d="M14.0186 16.9814L11 20L2.99853 11.9985C2.37151 11.1631 2 10.1249 2 9C2 6.23858 4.23858 4 7 4C8.6356 4 10.0878 4.78534 11 5.99951C11.9122 4.78534 13.3644 4 15 4C17.7614 4 20 6.23858 20 9C20 9.71977 19.8479 10.404 19.5741 11.0224" stroke="white" stroke-width="2" stroke-linecap="round" stroke-linejoin="round"/>
</svg>
