<svg
  width="24"
  height="24"
  viewBox="0 0 24 24"
  xmlns="http://www.w3.org/2000/svg"
>
  <path
    fill-rule="evenodd"
    clip-rule="evenodd"
    d="M20.243 4.757a5.998 5.998 0 0 0-8.242-.228 6 6 0 0 0-8.48 8.464l8.478 8.492 8.48-8.492a6 6 0 0 0-.236-8.236zm-6.906 1.26a4 4 0 1 1 5.683 5.607l-5.436 5.443 1.31-2.62A1 1 0 0 0 14.6 13.2l-3.332-2.5 1.626-3.253A1 1 0 0 0 13 7v-.68l.337-.303zm-2.337.3l-.334-.299a3.999 3.999 0 0 0-5.494.154 4 4 0 0 0-.192 5.451l6.066 6.076a.974.974 0 0 1 .06-.146l1.626-3.254L9.4 11.8a1 1 0 0 1-.294-1.247L11 6.763v-.446z"
  />
</svg>
