<svg
  width="24"
  height="24"
  viewBox="0 0 24 24"
  xmlns="http://www.w3.org/2000/svg"
  fill="none"
  stroke="currentColor"
  stroke-width="2"
  stroke-linecap="round"
  stroke-linejoin="round"
>
  <path d="M14.778 11C13.244 11 12 12.26 12 13.813c0 .632.206 1.216.555 1.686L17 20l4.445-4.5c.349-.47.555-1.055.555-1.688 0-1.432-1.058-2.614-2.426-2.79A2.761 2.761 0 0 0 17 12.125 2.763 2.763 0 0 0 14.778 11z" />
  <path d="M14.019 16.981L11 20l-8.001-8.002A5 5 0 0 1 11 6a5 5 0 0 1 8.574 5.023" />
</svg>
