<svg
  width="24"
  height="24"
  viewBox="0 0 24 24"
  xmlns="http://www.w3.org/2000/svg"
  fill="none"
  stroke="currentColor"
  stroke-width="2"
  stroke-linecap="round"
  stroke-linejoin="round"
>
  <path d="M19.504 12.65L12.008 21l-7.496-8.35a5.707 5.707 0 0 1-1.144-1.911 6.245 6.245 0 0 1-.366-2.266 6.204 6.204 0 0 1 .472-2.241 5.612 5.612 0 0 1 1.232-1.84 4.88 4.88 0 0 1 1.784-1.13 4.473 4.473 0 0 1 2.037-.23 4.62 4.62 0 0 1 1.949.708c.6.385 1.12.905 1.532 1.528a5.234 5.234 0 0 1 1.535-1.515 4.617 4.617 0 0 1 1.945-.698c.684-.08 1.375 0 2.03.235.656.234 1.26.619 1.778 1.128a5.61 5.61 0 0 1 1.228 1.835 6.249 6.249 0 0 1 .114 4.494 5.713 5.713 0 0 1-1.134 1.91" />
  <path d="M12.008 21v-4L14 13l-4-3 2.008-4.732" />
</svg>
