<svg
  width="24"
  height="24"
  viewBox="0 0 24 24"
  xmlns="http://www.w3.org/2000/svg"
>
  <path
    fill-rule="evenodd"
    clip-rule="evenodd"
    d="M8.034 4.026a4.489 4.489 0 0 0-1.851.188 4.535 4.535 0 0 0-1.625.926c-.473.42-.856.934-1.124 1.513a4.678 4.678 0 0 0 .948 5.284l.006.006 7.621 7.641 7.621-7.64a1 1 0 0 1 .069-.063c.416-.432.746-.943.97-1.504a4.68 4.68 0 0 0-.104-3.703l.906-.421-.906.421a4.617 4.617 0 0 0-1.122-1.507 4.536 4.536 0 0 0-1.618-.925 4.489 4.489 0 0 0-3.614.38 4.574 4.574 0 0 0-1.399 1.242 1 1 0 0 1-1.609-.004 4.575 4.575 0 0 0-1.397-1.254 4.506 4.506 0 0 0-1.772-.58zm12.94 9.402l-8.257 8.278a1 1 0 0 1-1.416 0L2.975 13.36a6.625 6.625 0 0 1-1.494-2.247A6.682 6.682 0 0 1 1.62 5.81a6.615 6.615 0 0 1 1.613-2.168 6.535 6.535 0 0 1 2.34-1.334 6.489 6.489 0 0 1 5.235.565c.436.252.84.554 1.206.897a6.505 6.505 0 0 1 6.425-1.433c.86.277 1.654.731 2.332 1.332a6.615 6.615 0 0 1 1.608 2.161 6.679 6.679 0 0 1-1.335 7.534.983.983 0 0 1-.07.063z"
  />
</svg>
