<svg width="24" height="24" viewBox="0 0 24 24" fill="none" xmlns="http://www.w3.org/2000/svg">
<path fill-rule="evenodd" clip-rule="evenodd" d="M11.3415 2.24742C11.7185 1.91753 12.2815 1.91753 12.6585 2.24742L20.6585 9.24742C20.8755 9.43731 21 9.71164 21 10V21C21 21.5523 20.5523 22 20 22H4C3.44772 22 3 21.5523 3 21V10C3 9.71164 3.12448 9.43731 3.3415 9.24742L11.3415 2.24742ZM5 10.4538V20H11V14C11 13.4477 11.4477 13 12 13C12.5523 13 13 13.4477 13 14V20H19V10.4538L12 4.32877L5 10.4538Z" fill="black"/>
</svg>
