<svg width="24" height="24" viewBox="0 0 24 24" fill="none" xmlns="http://www.w3.org/2000/svg">
<path fill-rule="evenodd" clip-rule="evenodd" d="M1 2C1 1.44772 1.44772 1 2 1H22C22.5523 1 23 1.44772 23 2C23 2.55228 22.5523 3 22 3H21V18C21 18.3788 20.786 18.725 20.4472 18.8944L12.4472 22.8944C12.1657 23.0352 11.8343 23.0352 11.5528 22.8944L3.55279 18.8944C3.214 18.725 3 18.3788 3 18V3H2C1.44772 3 1 2.55228 1 2ZM5 3V17.382L12 20.882L19 17.382V3H5ZM8 9C8 8.44772 8.44772 8 9 8H15C15.5523 8 16 8.44772 16 9C16 9.55228 15.5523 10 15 10H9C8.44772 10 8 9.55228 8 9ZM8 13C8 12.4477 8.44772 12 9 12H15C15.5523 12 16 12.4477 16 13C16 13.5523 15.5523 14 15 14H9C8.44772 14 8 13.5523 8 13Z" fill="black"/>
</svg>
