<svg
  width="24"
  height="24"
  viewBox="0 0 24 24"
  xmlns="http://www.w3.org/2000/svg"
>
  <path d="M8 6a1 1 0 0 0-.992 1.13l.572 4.363a1 1 0 0 0 .991.87h5.697l-.305 2.035L12 14.96l-2.003-.574a1 1 0 0 0-1.947.455l.114.546a1 1 0 0 0 .704.756l2.857.818a1 1 0 0 0 .55 0l2.857-.818a1 1 0 0 0 .714-.813l.572-3.818a1 1 0 0 0-.99-1.148H9.45L9.139 8H16a1 1 0 1 0 0-2H8z" />
  <path
    fill-rule="evenodd"
    clip-rule="evenodd"
    d="M4 2a1 1 0 0 0-.992 1.125l2 15.819a1 1 0 0 0 .65.814l6 2.182a1 1 0 0 0 .684 0l6-2.182a1 1 0 0 0 .65-.814l2-15.819A1 1 0 0 0 20 2H4zm2.916 16.087L5.134 4h13.732l-1.782 14.087L12 19.936l-5.084-1.849z"
  />
</svg>
