<svg
  width="24"
  height="24"
  viewBox="0 0 24 24"
  xmlns="http://www.w3.org/2000/svg"
>
  <path d="M11.795 2a3.331 3.331 0 0 0-1.707.497l-5.313 3.28a3.543 3.543 0 0 0-1.68 3.012v6.692c0 1.227.658 2.365 1.722 2.978l5.405 3.111a3.233 3.233 0 0 0 3.196.015l5.869-3.305a3.18 3.18 0 0 0 1.619-2.77V8.46a2.975 2.975 0 0 0-1.478-2.57l-5.914-3.44A3.331 3.331 0 0 0 11.795 2zm.018 1.395c.345-.005.69.083 1 .263l5.913 3.439c.487.283.784.8.783 1.362v7.052c0 .645-.345 1.236-.907 1.553l-5.869 3.305a1.832 1.832 0 0 1-1.815-.008l-5.405-3.112A2.04 2.04 0 0 1 4.49 15.48V8.788c0-.744.384-1.433 1.018-1.825l5.313-3.279c.298-.184.64-.284.992-.289zM7.897 6.598v10.71h2.241v-4.683h3.717v4.683h2.247V6.598h-2.247V10.5h-3.717V6.6H7.897z" />
</svg>
