<svg
  width="24"
  height="24"
  viewBox="0 0 24 24"
  xmlns="http://www.w3.org/2000/svg"
>
  <path d="M21 8.15c.938-2.25 1-4.124-.125-5.25-1.25-1.248-4.25-.874-7.437.626h-.375c-2.25 0-4.436.813-6.061 2.25-1.375 1.25-2.375 2.875-2.813 4.687.313-.375 2.063-2.437 4.063-3.562.062 0 .562-.313.562-.313-.062 0-1 .938-1.187 1.125C3.252 12.213.69 19.025 2.69 21.024c1.312 1.313 3.687 1 6.437-.5 1.187.563 2.5.813 3.936.813 1.875 0 3.625-.5 5.125-1.5 1.562-1 2.687-2.562 3.375-4.374h-4.875c-.625 1.187-2.062 2-3.562 2-2.125 0-3.875-1.75-3.937-3.75v-.188h12.748v-.188c0-.312.063-.687.063-.936 0-1.5-.375-2.938-1-4.25zM4.064 20.65c-1-1-.686-2.937.5-5.25.563 1.563 1.5 2.938 2.688 3.938.375.313.812.625 1.25.875-2 1.062-3.625 1.25-4.438.437zm12.812-9.498H9.252v-.063c.125-1.937 1.936-3.625 4.061-3.625 2 0 3.625 1.563 3.75 3.625v.063h-.187zm3.811-3.5a7.666 7.666 0 0 0-1.437-1.75 9.345 9.345 0 0 0-3-1.875c2-.937 3.688-1.062 4.563-.187.687.812.625 2.187-.125 3.812 0 .062 0 .062 0 0 0 .062 0 .062 0 0z" />
</svg>
