<svg
  width="24"
  height="24"
  viewBox="0 0 24 24"
  xmlns="http://www.w3.org/2000/svg"
>
  <path d="M14.352 10.59a2.515 2.515 0 1 1 1.1-3.365 2.505 2.505 0 0 1-1.1 3.37v-.005zm-2.685-8.113c2.058-.751 4.411-.71 6.173.818.372.306.664.698.852 1.142.178.575-.624-.059-.733-.14a7.84 7.84 0 0 0-1.792-.913c-3.47-1.062-6.753.872-8.781 3.88a16.254 16.254 0 0 0-1.874 4.271 2.433 2.433 0 0 1-.177.535c-.09.17-.04-.456-.04-.477.074-.63.193-1.253.357-1.865.94-3.278 3.023-6.007 6.015-7.257v.006zm.03 17.494v-7.303c.208.021.405.031.614.031a5.14 5.14 0 0 0 2.682-.746v8.017c0 .685-.125 1.192-.433 1.522a1.56 1.56 0 0 1-1.21.508 1.522 1.522 0 0 1-1.19-.507c-.306-.337-.466-.845-.466-1.521l.003-.001z" />
</svg>
