<svg width="24" height="24" viewBox="0 0 24 24" fill="none" xmlns="http://www.w3.org/2000/svg">
<path d="M9.828 9.172C9.26864 8.61247 8.55591 8.23139 7.77995 8.07695C7.00399 7.92251 6.19967 8.00165 5.46869 8.30437C4.73772 8.60708 4.11293 9.11977 3.67335 9.7776C3.23377 10.4354 2.99915 11.2088 2.99915 12C2.99915 12.7912 3.23377 13.5646 3.67335 14.2224C4.11293 14.8802 4.73772 15.3929 5.46869 15.6956C6.19967 15.9984 7.00399 16.0775 7.77995 15.9231C8.55591 15.7686 9.26864 15.3875 9.828 14.828C10.7156 14.0231 11.4513 13.0652 12 12C12.5487 10.9348 13.2844 9.97693 14.172 9.172C14.7314 8.61247 15.4441 8.23139 16.22 8.07695C16.996 7.92251 17.8003 8.00165 18.5313 8.30437C19.2623 8.60708 19.8871 9.11977 20.3266 9.7776C20.7662 10.4354 21.0009 11.2088 21.0009 12C21.0009 12.7912 20.7662 13.5646 20.3266 14.2224C19.8871 14.8802 19.2623 15.3929 18.5313 15.6956C17.8003 15.9984 16.996 16.0775 16.22 15.9231C15.4441 15.7686 14.7314 15.3875 14.172 14.828C13.2844 14.0231 12.5487 13.0652 12 12C11.4513 10.9348 10.7156 9.97693 9.828 9.172" stroke="#1E293B" stroke-width="2" stroke-linecap="round" stroke-linejoin="round"/>
</svg>
