<svg
  width="24"
  height="24"
  viewBox="0 0 24 24"
  xmlns="http://www.w3.org/2000/svg"
>
  <path
    fill-rule="evenodd"
    clip-rule="evenodd"
    d="M4.321 7.474A4.987 4.987 0 0 1 7.53 7.12a5.313 5.313 0 0 1 2.788 1.662A13.144 13.144 0 0 1 12 10.91c.49-.77 1.054-1.484 1.682-2.128A5.312 5.312 0 0 1 16.47 7.12a4.987 4.987 0 0 1 3.209.354c1.007.47 1.848 1.254 2.432 2.237.583.983.889 2.127.889 3.289a6.455 6.455 0 0 1-.89 3.289c-.583.983-1.424 1.768-2.431 2.237a4.987 4.987 0 0 1-3.209.354 5.313 5.313 0 0 1-2.788-1.662A13.152 13.152 0 0 1 12 15.09c-.49.77-1.054 1.484-1.682 2.128A5.313 5.313 0 0 1 7.53 18.88c-1.08.242-2.2.116-3.209-.354-1.007-.47-1.848-1.254-2.432-2.237A6.455 6.455 0 0 1 1 13c0-1.162.306-2.306.89-3.289.583-.983 1.424-1.768 2.431-2.237zM10.891 13a11.364 11.364 0 0 0-2.056-2.876 3.316 3.316 0 0 0-1.742-1.052 2.987 2.987 0 0 0-1.927.215c-.617.288-1.164.784-1.557 1.446A4.455 4.455 0 0 0 3 13c0 .816.215 1.605.609 2.267.393.662.94 1.159 1.557 1.446a2.987 2.987 0 0 0 1.927.215c.645-.144 1.255-.505 1.746-1.057A11.365 11.365 0 0 0 10.89 13zm2.219 0a11.366 11.366 0 0 0 2.05 2.87c.492.553 1.102.914 1.747 1.058a2.987 2.987 0 0 0 1.927-.215c.617-.288 1.164-.784 1.557-1.446A4.456 4.456 0 0 0 21 13c0-.816-.215-1.605-.609-2.267-.393-.662-.94-1.158-1.557-1.446a2.987 2.987 0 0 0-1.927-.215c-.645.144-1.255.505-1.746 1.057l-.034.036A11.363 11.363 0 0 0 13.11 13z"
  />
</svg>
