<svg width="24" height="24" viewBox="0 0 24 24" fill="none" xmlns="http://www.w3.org/2000/svg">
<path fill-rule="evenodd" clip-rule="evenodd" d="M3 3C3 2.44772 3.44772 2 4 2H8C8.55228 2 9 2.44772 9 3C9 3.55228 8.55228 4 8 4H5V14H19V4H16C15.4477 4 15 3.55228 15 3C15 2.44772 15.4477 2 16 2H20C20.5523 2 21 2.44772 21 3V21C21 21.5523 20.5523 22 20 22H4C3.44772 22 3 21.5523 3 21V3ZM19 16H5V20H19V16ZM12 2C12.5523 2 13 2.44772 13 3V7H14C14.4045 7 14.7691 7.24364 14.9239 7.61732C15.0787 7.99099 14.9931 8.42111 14.7071 8.70711L12.7071 10.7071C12.3166 11.0976 11.6834 11.0976 11.2929 10.7071L9.29289 8.70711C9.0069 8.42111 8.92134 7.99099 9.07612 7.61732C9.2309 7.24364 9.59554 7 10 7H11V3C11 2.44772 11.4477 2 12 2ZM15 18C15 17.4477 15.4477 17 16 17H16.01C16.5623 17 17.01 17.4477 17.01 18C17.01 18.5523 16.5623 19 16.01 19H16C15.4477 19 15 18.5523 15 18Z" fill="black"/>
</svg>
