<svg
  width="24"
  height="24"
  viewBox="0 0 24 24"
  xmlns="http://www.w3.org/2000/svg"
>
  <path d="M12 2c-2.717 0-3.056.013-4.122.06-1.066.05-1.79.217-2.428.465a4.897 4.897 0 0 0-1.772 1.153A4.88 4.88 0 0 0 2.525 5.45c-.248.638-.416 1.362-.465 2.428C2.01 8.944 2 9.283 2 12c0 2.717.013 3.056.06 4.122.05 1.065.217 1.79.465 2.428a4.905 4.905 0 0 0 1.153 1.772 4.89 4.89 0 0 0 1.772 1.153c.638.247 1.363.416 2.428.465 1.066.05 1.405.06 4.122.06 2.717 0 3.056-.012 4.122-.06 1.065-.05 1.79-.218 2.428-.465a4.915 4.915 0 0 0 1.772-1.153c.555-.556.899-1.113 1.153-1.772.247-.637.416-1.363.465-2.428.05-1.066.06-1.405.06-4.122 0-2.717-.012-3.056-.06-4.122-.05-1.065-.218-1.791-.465-2.428a4.908 4.908 0 0 0-1.153-1.772 4.873 4.873 0 0 0-1.772-1.153c-.637-.248-1.363-.416-2.428-.465C15.056 2.01 14.717 2 12 2zm0 1.8c2.67 0 2.988.013 4.042.06.975.045 1.504.207 1.855.345.469.18.8.397 1.152.747.35.35.566.682.747 1.15.137.352.3.881.344 1.856.047 1.055.058 1.372.058 4.042s-.012 2.988-.061 4.042c-.051.975-.214 1.504-.351 1.855-.187.469-.4.8-.75 1.152a3.12 3.12 0 0 1-1.15.747c-.35.137-.887.3-1.862.344-1.062.047-1.374.058-4.049.058-2.676 0-2.988-.012-4.05-.061-.975-.051-1.513-.214-1.862-.351-.475-.187-.8-.4-1.15-.75a3.037 3.037 0 0 1-.75-1.15c-.137-.35-.299-.887-.35-1.862-.037-1.05-.05-1.374-.05-4.037s.013-2.988.05-4.05c.051-.975.213-1.512.35-1.862.175-.475.4-.8.75-1.15.35-.35.675-.575 1.15-.75.35-.138.875-.3 1.85-.35 1.063-.038 1.375-.05 4.05-.05L12 3.8zm0 3.065a5.135 5.135 0 1 0 0 10.27 5.135 5.135 0 0 0 0-10.27zm0 8.468A3.332 3.332 0 0 1 8.667 12 3.332 3.332 0 0 1 12 8.667 3.332 3.332 0 0 1 15.333 12 3.332 3.332 0 0 1 12 15.333zm6.538-8.67a1.2 1.2 0 0 1-2.4 0 1.2 1.2 0 0 1 2.4 0z" />
</svg>
