<svg
  width="24"
  height="24"
  viewBox="0 0 24 24"
  xmlns="http://www.w3.org/2000/svg"
>
  <path d="M20.188 2H3.813C2.813 2 2 2.813 2 3.813v16.375c0 1 .813 1.812 1.813 1.812h16.375c1 0 1.812-.813 1.812-1.813V3.813c0-1-.813-1.812-1.813-1.812zM8.682 5.89c.665 0 1.224.524 1.224 1.2 0 .683-.559 1.203-1.224 1.203v.022a1.211 1.211 0 1 1 .001-2.425zm8.18 11.512c-1.236 0-1.836-.738-1.836-1.742 0-.288.036-.594.125-.9l.591-2.12c.074-.234.092-.45.092-.647 0-.683-.417-1.095-1.08-1.095-.844 0-1.4.605-1.688 1.774l-1.15 4.613H9.907l.36-1.45c-.59.972-1.413 1.57-2.425 1.57-1.223 0-1.798-.7-1.798-1.76.004-.304.04-.608.109-.904v.002L7.068 11H5.646l.431-1.588h3.417l-1.35 5.338a3.5 3.5 0 0 0-.125.822c0 .341.168.441.431.503.163.033 1.438.01 2.133-1.534l.884-3.541H10.03l.433-1.563h3.1l-.4 1.8c.54-1 1.614-1.962 2.677-1.962 1.125 0 2.062.812 2.062 2.35 0 .445-.066.887-.2 1.312l-.575 2.064c-.05.211-.086.387-.086.55 0 .361.15.537.411.537.262 0 .613-.2 1-1.3l.786.3c-.462 1.637-1.313 2.312-2.375 2.312z" />
</svg>
