<svg
  width="24"
  height="24"
  viewBox="0 0 24 24"
  xmlns="http://www.w3.org/2000/svg"
>
  <path d="M21.102 7.856l-.086-.192-.14.157c-.34.387-.774.683-1.255.863l-.133.051.056.13c.413.992.626 2.057.625 3.132 0 4.504-3.665 8.172-8.172 8.172-4.508 0-8.169-3.665-8.169-8.169C3.828 7.496 7.497 3.83 12 3.83c1.223 0 2.403.265 3.5.789l.13.062.054-.129a3.14 3.14 0 0 1 .922-1.21l.164-.133-.187-.098A9.92 9.92 0 0 0 12 2.001c-5.516 0-10 4.484-10 10s4.484 10 10 10 10-4.484 10-10c0-1.442-.3-2.836-.898-4.144l-.001-.001zM12 7.442A4.563 4.563 0 0 0 7.442 12 4.563 4.563 0 0 0 12 16.558 4.563 4.563 0 0 0 16.558 12 4.566 4.566 0 0 0 12 7.442zm8.621-1.673a2.08 2.08 0 1 1-4.158 0 2.08 2.08 0 0 1 4.158 0z" />
</svg>
