<svg
  width="24"
  height="24"
  viewBox="0 0 24 24"
  xmlns="http://www.w3.org/2000/svg"
>
  <path d="M11.983 22a9.86 9.86 0 0 1-5.795-1.885 9.94 9.94 0 0 1-4.012-6.506 9.963 9.963 0 0 1 1.742-7.447 9.875 9.875 0 0 1 6.484-4.03 9.859 9.859 0 0 1 7.413 1.754 9.945 9.945 0 0 1 4.013 6.506 9.966 9.966 0 0 1-1.743 7.448 9.88 9.88 0 0 1-6.483 4.03c-.541.087-1.083.13-1.62.13zm-5.395-2.438a9.184 9.184 0 0 0 6.903 1.633 9.203 9.203 0 0 0 6.038-3.753c2.986-4.17 2.038-10.004-2.115-13.004a9.185 9.185 0 0 0-6.903-1.633 9.205 9.205 0 0 0-6.038 3.753c-2.986 4.17-2.037 10.004 2.115 13.004zm8.838-2.96a1.733 1.733 0 0 0 1.215-1.224l.052-.18.006-4.822c.005-3.612 0-4.845-.02-4.913a.446.446 0 0 0-.098-.178.429.429 0 0 0-.23-.06c-.06 0-.27.028-.467.064-.867.159-5.98 1.176-6.067 1.209a.655.655 0 0 0-.333.295l-.054.106s-.026 7.56-.065 7.644a.583.583 0 0 1-.313.292c-.058.018-.286.07-.508.114-1.026.204-1.406.351-1.729.668-.183.18-.318.425-.377.682-.056.246-.038.614.042.838.083.235.218.435.394.592.16.123.35.215.562.27.47.12 1.348-.013 1.798-.273.189-.11.43-.337.556-.524.05-.075.125-.224.167-.333.146-.38.15-7.151.17-7.236a.368.368 0 0 1 .266-.287 570.72 570.72 0 0 1 5.185-1.025c.122-.017.237.022.3.1.038.02.07.047.091.08.04.059.043.177.049 2.32.006 2.468.01 2.41-.125 2.566-.097.114-.219.158-.72.26-.761.155-1.021.229-1.313.371-.364.178-.566.373-.722.697-.111.23-.152.4-.152.628 0 .408.14.726.458 1.038.03.028.058.055.087.08.16.124.322.199.527.246.309.068.937.02 1.368-.105z" />
</svg>
