<svg
  width="24"
  height="24"
  viewBox="0 0 24 24"
  xmlns="http://www.w3.org/2000/svg"
>
  <path d="M2 2h20v20H2V2zm18.362 15.23c-.146-.913-.74-1.68-2.503-2.394-.613-.288-1.295-.488-1.497-.95-.076-.275-.088-.425-.039-.588.125-.538.763-.7 1.263-.55.325.1.625.35.813.75.862-.563.862-.563 1.463-.937-.225-.35-.337-.501-.489-.65-.525-.588-1.224-.888-2.361-.862l-.588.074c-.563.138-1.1.438-1.425.838-.95 1.076-.676 2.95.474 3.726 1.138.85 2.801 1.036 3.014 1.837.2.975-.725 1.288-1.639 1.175-.675-.15-1.05-.488-1.462-1.113l-1.525.876c.175.4.375.574.675.924 1.45 1.463 5.075 1.388 5.726-.837.024-.075.2-.587.061-1.375l.039.056zm-7.486-6.037h-1.873c0 1.614-.008 3.22-.008 4.837 0 1.027.053 1.97-.115 2.26-.275.573-.983.5-1.305.4-.33-.164-.497-.39-.692-.713-.052-.088-.091-.164-.105-.164l-1.521.938c.254.525.625.976 1.103 1.264.713.425 1.67.563 2.673.337.652-.188 1.215-.575 1.509-1.175.425-.775.335-1.725.33-2.789.01-1.711 0-3.424 0-5.149l.004-.046z" />
</svg>
