<svg
  width="24"
  height="24"
  viewBox="0 0 24 24"
  xmlns="http://www.w3.org/2000/svg"
>
  <path d="M9.376 17.467s-.764.445.544.595c1.585.181 2.395.155 4.14-.176 0 0 .46.288 1.102.538-3.916 1.678-8.861-.098-5.786-.957zm-.48-2.19s-.856.635.452.77c1.694.175 3.03.19 5.345-.256 0 0 .32.324.822.502-4.732 1.384-10.006.108-6.618-1.015zm4.034-3.714c.965 1.11-.253 2.11-.253 2.11s2.449-1.265 1.324-2.848c-1.051-1.477-1.857-2.21 2.506-4.74 0 0-6.847 1.71-3.577 5.478zm5.178 7.524s.566.465-.622.826c-2.26.684-9.407.89-11.391.027-.713-.31.625-.742 1.045-.832.44-.095.69-.077.69-.077-.794-.56-5.13 1.097-2.203 1.572 7.984 1.294 14.552-.583 12.481-1.516zm-8.365-6.079s-3.635.864-1.286 1.177c.99.133 2.967.102 4.808-.052a37.319 37.319 0 0 0 3.015-.397s-.53.226-.915.489c-3.69.97-10.822.52-8.768-.473 1.735-.839 3.146-.744 3.146-.744zm6.52 3.645c3.753-1.95 2.018-3.824.807-3.57-.296.061-.43.114-.43.114s.11-.172.322-.247c2.396-.842 4.238 2.484-.774 3.802 0-.001.059-.052.075-.099zM14.001 2s2.078 2.078-1.971 5.275c-3.247 2.564-.74 4.027 0 5.697-1.896-1.711-3.287-3.215-2.354-4.616C11.046 6.298 14.84 5.302 14 2zm-3.89 19.937c3.602.23 9.133-.128 9.264-1.832 0 0-.252.646-2.977 1.16-3.073.578-6.866.51-9.114.14 0-.002.461.38 2.828.532z" />
</svg>
