<svg
  width="24"
  height="24"
  viewBox="0 0 24 24"
  xmlns="http://www.w3.org/2000/svg"
>
  <path d="M8.727 22c-.29 0-.574-.052-.85-.157a2.377 2.377 0 0 1-1.438-2.835l-.012-.005.075-.189 5.83-15.139c.088-.225.048-.758.005-1.056a.404.404 0 0 1 .007-.2l.007-.019.005-.012v-.006l.007-.016c.09-.244.375-.366.84-.366.561 0 1.335.175 2.126.478.664.255 1.27.574 1.694.895.502.375.702.712.59 1l-.026.038-.014.012a.635.635 0 0 1-.125.138c-.261.226-.636.612-.7.787L10.862 20.7l-.013-.005a2.394 2.394 0 0 1-2.119 1.301h-.005l.002.005zm-1.822-3.098l-.017.041c-.372 1.001.135 2.131 1.137 2.515a1.947 1.947 0 0 0 2.52-1.122l.023-.05 5.8-15.075c.121-.325.7-.85.815-.95l.014-.014c.01-.012.016-.012.016-.024 0-.05-.05-.225-.464-.538-.399-.3-.961-.6-1.586-.837-.724-.274-1.474-.45-1.974-.45-.325 0-.437.069-.454.105v.034c.013.086.123.862-.028 1.262L6.905 18.9v.003zm7.458-9.59s-.803.925-1.535 1.258c-.734.332-1.275.244-1.934.63-.657.384-.99.92-.99.92l-2.679 6.967c-.29.787.14 1.709.937 2.017.8.308 1.7-.1 2.01-.88l4.191-10.912zm-4.109 8.321c.087-.034.188 0 .222.088.035.087 0 .185-.088.22-.086.036-.187 0-.221-.087a.17.17 0 0 1 .087-.22zm-.845-1.501a.248.248 0 0 1-.33-.13.247.247 0 0 1 .128-.33c.128-.059.279 0 .331.127.062.125.007.262-.129.325v.008zm.238-.914c-.102-.24 0-.519.24-.631a.478.478 0 0 1 .625.237c.1.241 0 .52-.238.631a.488.488 0 0 1-.637-.238l.01.001zm2.022-1.881c.128-.062.28 0 .332.125.058.128 0 .28-.128.332-.129.058-.28 0-.332-.129a.244.244 0 0 1 .128-.33v.002zm-1.077-1.15c.087-.034.188 0 .221.088.036.087 0 .188-.086.222-.087.035-.189 0-.221-.087a.17.17 0 0 1 .086-.223zM13.4 2.95c.083-.218.827-.135 1.662.188.833.32 1.441.758 1.359.975-.087.22-.831.137-1.664-.184-.837-.32-1.445-.758-1.36-.98h.003v.001z" />
</svg>
