<svg
  width="24"
  height="24"
  viewBox="0 0 24 24"
  xmlns="http://www.w3.org/2000/svg"
>
  <path d="M15.932 14.3l-2.082 2.083-1.975 1.975-.385.389a4.438 4.438 0 0 1-4.206 1.164 2.675 2.675 0 1 1-3.227-3.203 4.43 4.43 0 0 1 1.164-4.234l.149-.15L7.345 14.3l-.153.151c-.641.65-.641 1.687 0 2.324.642.65 1.685.65 2.322 0l.388-.387 1.972-1.976 2.085-2.088 1.973 1.976zm.77 5.543c-1.518.469-3.237.1-4.44-1.099l-.15-.154 1.971-1.974.15.153c.643.64 1.682.64 2.323 0a1.637 1.637 0 0 0-.004-2.317l-.388-.388-1.97-1.975-2.086-2.086 1.975-1.974 2.083 2.088 1.972 1.975.387.386a4.4 4.4 0 0 1 1.176 4.185c1.3.186 2.299 1.3 2.299 2.65a2.67 2.67 0 0 1-2.674 2.675 2.657 2.657 0 0 1-2.613-2.138l-.01-.008zm-8.89-9.959l2.09-2.087 1.976-1.975.384-.384a4.412 4.412 0 0 1 4.388-1.113 2.676 2.676 0 1 1 3 3.017c.432 1.499.057 3.18-1.125 4.361l-.152.154L16.4 9.882l.153-.153a1.64 1.64 0 1 0-2.317-2.317l-.385.385-1.975 1.974-2.088 2.085-1.975-1.972zm-2.21 2.206l-.385-.385a4.428 4.428 0 0 1-1.11-4.407 2.683 2.683 0 0 1-2.082-2.611 2.677 2.677 0 0 1 5.317-.432 4.434 4.434 0 0 1 4.149 1.18l.153.153L9.67 7.563l-.152-.15a1.647 1.647 0 0 0-2.321 0 1.648 1.648 0 0 0-.004 2.324l.387.389L9.554 12.1l2.088 2.088-1.973 1.975-2.092-2.088L5.602 12.1v-.01z" />
</svg>
