<svg
  width="24"
  height="24"
  viewBox="0 0 24 24"
  xmlns="http://www.w3.org/2000/svg"
>
  <path d="M3.278 6.895c-1.769 2.542-1.55 5.847-.197 8.547.03.065.065.128.098.19.02.044.041.084.064.125.011.023.026.047.04.069.021.043.045.085.067.126l.13.221c.025.041.048.081.076.122.046.078.1.156.147.234.022.033.042.065.066.098.081.127.167.25.259.37.065.089.13.175.2.262.022.032.047.063.07.095l.185.224c.022.026.045.056.069.083.081.098.168.194.255.29a2.606 2.606 0 0 0 .357.373c.067.068.134.137.204.203l.085.081c.092.087.185.174.282.257l.004.002.048.042c.085.074.17.148.258.217l.104.087c.071.057.144.111.217.167l.113.087c.078.058.16.115.24.172.029.02.058.042.088.06l.024.02.234.154.1.067c.123.078.244.152.365.226.035.017.07.036.103.056.09.052.183.105.274.153.05.028.101.052.153.078.063.035.128.07.194.104a.28.28 0 0 1 .047.02 6.851 6.851 0 0 0 .393.184c.02.008.041.016.063.028.12.053.24.103.364.152.028.008.058.022.087.033.113.043.229.086.343.127l.042.015c.127.043.253.085.382.125.03.008.06.019.093.027.132.04.26.088.394.114 8.55 1.558 11.035-5.141 11.035-5.141-2.088 2.718-5.792 3.435-9.3 2.637-.13-.03-.26-.071-.391-.11a11.178 11.178 0 0 1-.473-.15l-.051-.02c-.114-.039-.223-.081-.334-.124a10.685 10.685 0 0 1-.452-.187c-.025-.008-.047-.02-.073-.03a18.71 18.71 0 0 1-.389-.185c-.078-.036-.156-.078-.233-.118a3.258 3.258 0 0 1-.156-.08c-.094-.05-.188-.104-.282-.156-.029-.02-.061-.036-.094-.055a13.357 13.357 0 0 1-.723-.461c-.03-.02-.056-.04-.086-.061a8.126 8.126 0 0 1-.245-.177c-.035-.028-.072-.055-.11-.083-.073-.058-.147-.113-.22-.174l-.1-.078a8.722 8.722 0 0 1-.308-.26l-.29-.262-.083-.079c-.068-.069-.138-.136-.208-.204l-.08-.083a7.588 7.588 0 0 1-.258-.27l-.013-.013a15.039 15.039 0 0 1-.26-.295l-.067-.08-.189-.231c-.096-.124-.19-.248-.283-.374-1.946-2.656-2.65-6.323-1.093-9.33L3.278 6.894zm5.49-2.14c-1.283 1.84-1.21 4.302-.212 6.248.165.328.353.643.564.944.192.275.403.6.66.821.09.102.186.2.287.3l.075.074c.095.092.192.182.291.271l.013.011c.112.098.227.193.345.285.028.02.052.042.08.06.117.09.234.178.356.263l.012.008c.052.037.107.072.165.108.024.015.05.035.075.05.089.057.175.11.264.164.015.006.027.014.04.02.075.045.157.09.235.13.028.017.055.03.083.045l.164.085.027.012c.112.055.227.107.34.158.028.011.052.02.076.032.093.04.187.078.28.114.041.014.08.031.12.044.085.031.174.06.258.09l.117.037c.121.038.245.087.373.108 6.6 1.094 8.128-3.99 8.128-3.99-1.376 1.98-4.038 2.924-6.876 2.187a6.741 6.741 0 0 1-.373-.108c-.04-.011-.075-.024-.113-.035-.087-.03-.176-.06-.26-.091l-.12-.045c-.094-.038-.189-.073-.28-.113-.028-.012-.054-.02-.075-.033-.117-.052-.234-.104-.348-.16l-.171-.09-.1-.05a4.682 4.682 0 0 1-.22-.124.508.508 0 0 1-.052-.028c-.088-.055-.18-.109-.264-.165-.029-.016-.054-.035-.081-.052l-.173-.113c-.12-.084-.238-.174-.356-.26-.027-.025-.053-.045-.079-.066-1.247-.981-2.231-2.322-2.698-3.84-.492-1.579-.383-3.349.466-4.785L8.768 4.754zm4.615-1.602c-.756 1.11-.829 2.489-.308 3.713.553 1.3 1.685 2.32 3.003 2.804l.163.058.073.023c.077.024.154.052.234.07 3.646.703 4.633-1.873 4.899-2.251-.869 1.247-2.324 1.546-4.11 1.112a4.033 4.033 0 0 1-.43-.134 5.28 5.28 0 0 1-.514-.211 5.433 5.433 0 0 1-.9-.55c-1.6-1.212-2.591-3.525-1.548-5.41" />
</svg>
