<svg width="24" height="24" viewBox="0 0 24 24" fill="none" xmlns="http://www.w3.org/2000/svg">
<path fill-rule="evenodd" clip-rule="evenodd" d="M19.7071 4.29289C20.0976 4.68342 20.0976 5.31658 19.7071 5.70711L18.9142 6.5L20.7071 8.29289C21.0976 8.68342 21.0976 9.31658 20.7071 9.70711C20.3166 10.0976 19.6834 10.0976 19.2929 9.70711L17.5 7.91421L15.9142 9.5L17.7071 11.2929C18.0976 11.6834 18.0976 12.3166 17.7071 12.7071C17.3166 13.0976 16.6834 13.0976 16.2929 12.7071L14.5 10.9142L12.1715 13.2427C12.6947 14.033 13 14.9814 13 16C13 18.7614 10.7614 21 8 21C5.23858 21 3 18.7614 3 16C3 13.2386 5.23858 11 8 11C9.01865 11 9.96702 11.3053 10.7573 11.8285L18.2929 4.29289C18.6834 3.90237 19.3166 3.90237 19.7071 4.29289ZM8 13C6.34315 13 5 14.3431 5 16C5 17.6569 6.34315 19 8 19C9.65685 19 11 17.6569 11 16C11 15.1713 10.6653 14.4227 10.1213 13.8787C9.57733 13.3347 8.8287 13 8 13Z" fill="black"/>
</svg>
