<svg width="24" height="24" viewBox="0 0 24 24" fill="none" xmlns="http://www.w3.org/2000/svg">
<path d="M21 12C21 13.84 20.448 15.551 19.5 16.977C18.6793 18.2148 17.5648 19.23 16.2561 19.932C14.9474 20.634 13.4851 21.0009 12 21C10.5149 21.0009 9.05264 20.634 7.7439 19.932C6.43516 19.23 5.32068 18.2148 4.5 16.977C3.51907 15.5027 2.99709 13.7708 3 12C3 10.16 3.552 8.449 4.5 7.023C5.32068 5.78523 6.43516 4.77 7.7439 4.06799C9.05264 3.36599 10.5149 2.99907 12 3C13.4851 2.99907 14.9474 3.36599 16.2561 4.06799C17.5648 4.77 18.6793 5.78523 19.5 7.023C20.4809 8.49728 21.0029 10.2292 21 12V12Z" stroke="white" stroke-width="2" stroke-linecap="round" stroke-linejoin="round"/>
<path d="M4.5 16.9771H19.5" stroke="white" stroke-width="2" stroke-linecap="round" stroke-linejoin="round"/>
<path d="M21 12H3" stroke="white" stroke-width="2" stroke-linecap="round" stroke-linejoin="round"/>
<path d="M4.5 7.02295H19.5" stroke="white" stroke-width="2" stroke-linecap="round" stroke-linejoin="round"/>
</svg>
