<svg
  width="24"
  height="24"
  viewBox="0 0 24 24"
  xmlns="http://www.w3.org/2000/svg"
>
  <path
    fill-rule="evenodd"
    clip-rule="evenodd"
    d="M5.314 5.101C7.67 3.128 11.304 2 16.488 2H21a1 1 0 0 1 1 1v2.294c0 .02 0 .04-.002.06-.29 4.77-1.692 8.225-4.084 10.48C15.52 18.089 12.288 19 8.636 19H5.559a12.66 12.66 0 0 0-.426 2.117 1 1 0 0 1-1.986-.234c.13-1.101.345-2.023.652-2.96C2.004 15.784 2 13.716 2 12.706v-.003c.009-2.866.93-5.604 3.314-7.602zM6.304 17c1.12-2.39 3.042-4.39 6.09-5.666a1 1 0 0 0-.772-1.845c-3.35 1.403-5.575 3.607-6.923 6.244C4 14.504 4 13.413 4 12.713v-.006c.008-2.427.772-4.542 2.599-6.073C8.455 5.078 11.555 4 16.489 4H20v1.263c-.275 4.439-1.56 7.327-3.458 9.116C14.641 16.17 11.972 17 8.636 17H6.304z"
  />
</svg>
