<svg
  width="24"
  height="24"
  viewBox="0 0 24 24"
  xmlns="http://www.w3.org/2000/svg"
>
  <path
    fill-rule="evenodd"
    clip-rule="evenodd"
    d="M6.5 2a1 1 0 0 1 1-1h9a1 1 0 0 1 1 1v1.222h.125c1.156 0 2.268.454 3.09 1.265A4.313 4.313 0 0 1 22 7.556v10a4.313 4.313 0 0 1-1.286 3.068 4.386 4.386 0 0 1-2.089 1.15V22a1 1 0 0 1-1 1H6.375a1 1 0 0 1-1-1v-.226a4.386 4.386 0 0 1-2.09-1.15A4.313 4.313 0 0 1 2 17.556v-10c0-1.154.464-2.257 1.286-3.069a4.397 4.397 0 0 1 3.089-1.265H6.5V2zm.875 19h9.25v-.111a1 1 0 0 1 1-1c.634 0 1.24-.249 1.684-.688.444-.439.691-1.03.691-1.645v-10c0-.615-.247-1.207-.691-1.646a2.397 2.397 0 0 0-1.684-.688H16.5a1 1 0 0 1-1-1V3h-7v1.222a1 1 0 0 1-1 1H6.375c-.634 0-1.24.249-1.684.688A2.313 2.313 0 0 0 4 7.556v10c0 .614.247 1.206.691 1.645.445.44 1.05.688 1.684.688a1 1 0 0 1 1 1V21zm.813-10.111a1 1 0 0 1 1-1h.01a1 1 0 1 1 0 2h-.01a1 1 0 0 1-1-1zm5.624 0a1 1 0 0 1 1-1h.012a1 1 0 0 1 0 2h-.011a1 1 0 0 1-1-1zm-5.329 3.734a1 1 0 0 1 1.414.006 2.98 2.98 0 0 0 4.205 0 1 1 0 1 1 1.42 1.409 4.939 4.939 0 0 1-1.613 1.082 4.98 4.98 0 0 1-5.431-1.082 1 1 0 0 1 .005-1.415z"
  />
</svg>
