<svg
  width="24"
  height="24"
  viewBox="0 0 24 24"
  xmlns="http://www.w3.org/2000/svg"
  fill="none"
  stroke="currentColor"
  stroke-width="2"
  stroke-linecap="round"
  stroke-linejoin="round"
>
  <path d="M21 12a8.972 8.972 0 0 1-2.636 6.364A8.972 8.972 0 0 1 12 21a8.972 8.972 0 0 1-6.364-2.636A8.972 8.972 0 0 1 3 12a8.972 8.972 0 0 1 2.636-6.364A8.972 8.972 0 0 1 12 3a8.972 8.972 0 0 1 6.364 2.636A8.972 8.972 0 0 1 21 12z" />
  <path d="M9 15l-3.364 3.364" />
  <path d="M15 15l3.364 3.364" />
  <path d="M15 9l3.364-3.364" />
  <path d="M9 9L5.636 5.636" />
  <circle cx="12" cy="12" r="4" />
</svg>
