<svg
  width="24"
  height="24"
  viewBox="0 0 24 24"
  xmlns="http://www.w3.org/2000/svg"
>
  <path
    fill-rule="evenodd"
    clip-rule="evenodd"
    d="M7.094 5.68l2.148 2.148a5.006 5.006 0 0 1 5.516 0l2.148-2.148a8.004 8.004 0 0 0-9.812 0zM18.32 7.094l-2.148 2.148a5.006 5.006 0 0 1 0 5.516l2.148 2.148a8.004 8.004 0 0 0 0-9.812zM16.906 18.32l-2.148-2.148a5.006 5.006 0 0 1-5.516 0L7.094 18.32a8.004 8.004 0 0 0 9.812 0zM5.68 16.906l2.148-2.148a5.006 5.006 0 0 1 0-5.516L5.68 7.094a8.004 8.004 0 0 0 0 9.812zM4.929 4.929c3.905-3.905 10.237-3.905 14.142 0 3.905 3.905 3.905 10.237 0 14.142-3.905 3.905-10.237 3.905-14.142 0-3.905-3.905-3.905-10.237 0-14.142zm9.192 4.95A3 3 0 1 0 9.88 14.12 3 3 0 0 0 14.12 9.88z"
  />
</svg>
