<svg width="24" height="24" viewBox="0 0 24 24" fill="none" xmlns="http://www.w3.org/2000/svg">
<path d="M21 12C21.0015 13.1821 20.7695 14.3529 20.3171 15.4451C19.8647 16.5372 19.201 17.5292 18.364 18.364C17.5292 19.201 16.5372 19.8647 15.4451 20.3171C14.3529 20.7695 13.1821 21.0015 12 21C10.8179 21.0015 9.6471 20.7695 8.55495 20.3171C7.46281 19.8647 6.47082 19.201 5.63601 18.364C4.79904 17.5292 4.1353 16.5372 3.68293 15.4451C3.23055 14.3529 2.99847 13.1821 3.00001 12C2.99847 10.8179 3.23055 9.6471 3.68293 8.55495C4.1353 7.46281 4.79904 6.47082 5.63601 5.63601C6.47082 4.79904 7.46281 4.1353 8.55495 3.68293C9.6471 3.23055 10.8179 2.99847 12 3.00001C13.1821 2.99847 14.3529 3.23055 15.4451 3.68293C16.5372 4.1353 17.5292 4.79904 18.364 5.63601C19.201 6.47082 19.8647 7.46281 20.3171 8.55495C20.7695 9.6471 21.0015 10.8179 21 12V12Z" stroke="white" stroke-width="2" stroke-linecap="round" stroke-linejoin="round"/>
<path d="M8.99999 15L5.63599 18.364" stroke="white" stroke-width="2" stroke-linecap="round" stroke-linejoin="round"/>
<path d="M15 15L18.364 18.364" stroke="white" stroke-width="2" stroke-linecap="round" stroke-linejoin="round"/>
<path d="M15 9.00023L18.364 5.63623" stroke="white" stroke-width="2" stroke-linecap="round" stroke-linejoin="round"/>
<path d="M8.99999 9.00023L5.63599 5.63623" stroke="white" stroke-width="2" stroke-linecap="round" stroke-linejoin="round"/>
<path d="M12 16C14.2091 16 16 14.2091 16 12C16 9.79086 14.2091 8 12 8C9.79086 8 8 9.79086 8 12C8 14.2091 9.79086 16 12 16Z" stroke="white" stroke-width="2" stroke-linecap="round" stroke-linejoin="round"/>
</svg>
