<svg width="24" height="24" viewBox="0 0 24 24" fill="none" xmlns="http://www.w3.org/2000/svg">
<path d="M21 12C21 14.4853 19.9926 16.7353 18.364 18.364C16.7353 19.9926 14.4853 21 12 21C9.51472 21 7.26472 19.9926 5.63604 18.364C4.00736 16.7353 3 14.4853 3 12C3 9.51472 4.00736 7.26472 5.63604 5.63604C7.26472 4.00736 9.51472 3 12 3C14.4853 3 16.7353 4.00736 18.364 5.63604C19.9926 7.26472 21 9.51472 21 12Z" stroke="#1E293B" stroke-width="2" stroke-linecap="round" stroke-linejoin="round"/>
<path d="M9.00001 15L5.63605 18.364" stroke="#1E293B" stroke-width="2" stroke-linecap="round" stroke-linejoin="round"/>
<path d="M15 15L18.364 18.364" stroke="#1E293B" stroke-width="2" stroke-linecap="round" stroke-linejoin="round"/>
<path d="M15 8.99995L18.364 5.63599" stroke="#1E293B" stroke-width="2" stroke-linecap="round" stroke-linejoin="round"/>
<path d="M9.00001 8.99995L5.63605 5.63599" stroke="#1E293B" stroke-width="2" stroke-linecap="round" stroke-linejoin="round"/>
<circle cx="12" cy="12" r="4" stroke="#1E293B" stroke-width="2" stroke-linecap="round" stroke-linejoin="round"/>
</svg>
