<svg width="24" height="24" viewBox="0 0 24 24" fill="none" xmlns="http://www.w3.org/2000/svg">
<path d="M20 6C20 7.10457 19.1046 8 18 8C17.4928 8 17.0297 7.81118 16.6771 7.5C16.2619 7.13353 16 6.59735 16 6C16 4.89543 16.8954 4 18 4C19.1046 4 20 4.89543 20 6Z" stroke="#1E293B" stroke-width="2" stroke-linecap="round" stroke-linejoin="round"/>
<path d="M8 18C8 19.1046 7.10457 20 6 20C4.89543 20 4 19.1046 4 18C4 16.8954 4.89543 16 6 16C6.59735 16 7.13353 16.2619 7.5 16.6771C7.81118 17.0297 8 17.4928 8 18Z" stroke="#1E293B" stroke-width="2" stroke-linecap="round" stroke-linejoin="round"/>
<path d="M7.5 16.6771L16.6771 7.5" stroke="#1E293B" stroke-width="2" stroke-linecap="round" stroke-linejoin="round"/>
</svg>
