<svg
  width="24"
  height="24"
  viewBox="0 0 24 24"
  xmlns="http://www.w3.org/2000/svg"
  fill="none"
  stroke="currentColor"
  stroke-width="2"
  stroke-linecap="round"
  stroke-linejoin="round"
>
  <path d="M14 10.042A3.487 3.487 0 0 0 11.509 9a3.5 3.5 0 0 0-2.491 1.042l-3.986 3.97a3.5 3.5 0 0 0 0 4.96 3.53 3.53 0 0 0 4.982 0l.498-.496" />
  <path d="M10 13.958A3.487 3.487 0 0 0 12.491 15a3.5 3.5 0 0 0 2.491-1.042l3.986-3.97a3.5 3.5 0 0 0 0-4.96 3.53 3.53 0 0 0-4.982 0l-.498.496" />
</svg>
