<svg width="24" height="24" viewBox="0 0 24 24" fill="none" xmlns="http://www.w3.org/2000/svg">
<path d="M9 15L15 9" stroke="white" stroke-width="2" stroke-linecap="round" stroke-linejoin="round"/>
<path d="M13.472 19.0001C12.9281 19.6086 12.2657 20.0997 11.5254 20.4434C10.7851 20.7871 9.98244 20.9762 9.16657 20.999C8.3507 21.0218 7.53875 20.878 6.78039 20.5762C6.02203 20.2745 5.33321 19.8211 4.75608 19.244C4.17894 18.6669 3.72563 17.9781 3.42386 17.2197C3.1221 16.4613 2.97823 15.6494 3.00107 14.8335C3.0239 14.0176 3.21295 13.215 3.55666 12.4747C3.90036 11.7344 4.39149 11.072 5 10.5281" stroke="white" stroke-width="2" stroke-linecap="round" stroke-linejoin="round"/>
<path d="M10.528 5.00006C11.072 4.39155 11.7343 3.90042 12.4746 3.55672C13.2149 3.21301 14.0176 3.02396 14.8334 3.00113C15.6493 2.97829 16.4613 3.12216 17.2196 3.42392C17.978 3.72569 18.6668 4.179 19.2439 4.75614C19.8211 5.33327 20.2744 6.02209 20.5761 6.78045C20.8779 7.53881 21.0218 8.35076 20.9989 9.16663C20.9761 9.9825 20.7871 10.7851 20.4433 11.5254C20.0996 12.2657 19.6085 12.9281 19 13.4721" stroke="white" stroke-width="2" stroke-linecap="round" stroke-linejoin="round"/>
</svg>
