<svg
  width="24"
  height="24"
  viewBox="0 0 24 24"
  xmlns="http://www.w3.org/2000/svg"
>
  <path d="M13.078 8.042l1.44 1.44a7.122 7.122 0 0 1 0 10.073l-.36.359A7.121 7.121 0 1 1 4.086 9.84l1.44 1.44a5.087 5.087 0 1 0 7.193 7.194l.36-.36a5.088 5.088 0 0 0 0-7.193l-1.44-1.44 1.44-1.439zm6.835 6.116l-1.439-1.439a5.088 5.088 0 1 0-7.193-7.194l-.36.36a5.088 5.088 0 0 0 0 7.194l1.44 1.44-1.44 1.438-1.439-1.439a7.121 7.121 0 0 1 0-10.073l.36-.359A7.122 7.122 0 1 1 19.914 14.16l-.001-.001z" />
</svg>
