<svg
  width="24"
  height="24"
  viewBox="0 0 24 24"
  xmlns="http://www.w3.org/2000/svg"
>
  <path
    fill-rule="evenodd"
    clip-rule="evenodd"
    d="M9 11a1 1 0 1 0-2 0v6a1 1 0 1 0 2 0v-6zm.5-3.5a1.5 1.5 0 1 1-3 0 1.5 1.5 0 0 1 3 0zM12 10c.34 0 .64.17.82.428A3.51 3.51 0 0 1 14.5 10c2.16 0 3.5 1.926 3.5 3.571V17a1 1 0 0 1-2 0v-3.43c0-.768-.66-1.571-1.5-1.571-.524 0-1.103.285-1.5.963V17a1 1 0 0 1-2 0v-6a1 1 0 0 1 1-1z"
  />
  <path d="M12 4c-2.474 0-2.878.007-4.029.058-.784.037-1.31.142-1.798.332a2.886 2.886 0 0 0-1.08.703 2.89 2.89 0 0 0-.704 1.08c-.19.49-.295 1.015-.331 1.798C4.006 9.075 4 9.461 4 12c0 2.474.007 2.878.058 4.029.037.783.142 1.31.331 1.797.17.435.37.748.702 1.08.337.336.65.537 1.08.703.494.191 1.02.297 1.8.333C9.075 19.994 9.461 20 12 20c2.474 0 2.878-.007 4.029-.058.782-.037 1.309-.142 1.797-.331a2.92 2.92 0 0 0 1.08-.702c.337-.337.538-.65.704-1.08.19-.493.296-1.02.332-1.8.052-1.104.058-1.49.058-4.029 0-2.474-.007-2.878-.058-4.029-.037-.782-.142-1.31-.332-1.798a2.91 2.91 0 0 0-.703-1.08 2.884 2.884 0 0 0-1.08-.704c-.49-.19-1.016-.295-1.798-.331C14.925 4.006 14.539 4 12 4zm0-2c2.717 0 3.056.01 4.122.06 1.065.05 1.79.217 2.428.465.66.254 1.216.598 1.772 1.153.509.5.902 1.105 1.153 1.772.247.637.415 1.363.465 2.428.047 1.066.06 1.405.06 4.122 0 2.717-.01 3.056-.06 4.122-.05 1.065-.218 1.79-.465 2.428a4.883 4.883 0 0 1-1.153 1.772c-.5.508-1.105.902-1.772 1.153-.637.247-1.363.415-2.428.465-1.066.047-1.405.06-4.122.06-2.717 0-3.056-.01-4.122-.06-1.065-.05-1.79-.218-2.428-.465a4.89 4.89 0 0 1-1.772-1.153 4.904 4.904 0 0 1-1.153-1.772c-.248-.637-.415-1.363-.465-2.428C2.013 15.056 2 14.717 2 12c0-2.717.01-3.056.06-4.122.05-1.066.217-1.79.465-2.428a4.88 4.88 0 0 1 1.153-1.772A4.897 4.897 0 0 1 5.45 2.525c.638-.248 1.362-.415 2.428-.465C8.944 2.013 9.283 2 12 2z" />
</svg>
