<svg width="24" height="24" viewBox="0 0 24 24" fill="none" xmlns="http://www.w3.org/2000/svg">
<path d="M14 10.0424C13.6753 9.71234 13.2877 9.45016 12.8599 9.27118C12.4322 9.09219 11.9728 9 11.5089 9C11.0449 9 10.5855 9.09219 10.1578 9.27118C9.73002 9.45016 9.34243 9.71234 9.0177 10.0424L5.03187 14.0113C4.37117 14.6692 4 15.5615 4 16.4919C4 17.4223 4.37117 18.3146 5.03187 18.9725C5.69256 19.6304 6.58865 20 7.52302 20C8.45738 20 9.35347 19.6304 10.0142 18.9725L10.5124 18.4764" stroke="#1E293B" stroke-width="2" stroke-linecap="round" stroke-linejoin="round"/>
<path d="M10 13.9576C10.3247 14.2877 10.7123 14.5498 11.1401 14.7288C11.5678 14.9078 12.0272 15 12.4911 15C12.9551 15 13.4145 14.9078 13.8422 14.7288C14.27 14.5498 14.6576 14.2877 14.9823 13.9576L18.9681 9.98869C19.6288 9.33079 20 8.4385 20 7.50809C20 6.57769 19.6288 5.68539 18.9681 5.0275C18.3074 4.3696 17.4113 4 16.477 4C15.5426 4 14.6465 4.3696 13.9858 5.0275L13.4876 5.52362" stroke="#1E293B" stroke-width="2" stroke-linecap="round" stroke-linejoin="round"/>
</svg>
