<svg
  width="24"
  height="24"
  viewBox="0 0 24 24"
  xmlns="http://www.w3.org/2000/svg"
>
  <path
    fill-rule="evenodd"
    clip-rule="evenodd"
    d="M13.083 3.5a5.27 5.27 0 0 1 3.69-1.5 5.27 5.27 0 0 1 3.689 1.5l-.692.705.692-.705A5.106 5.106 0 0 1 22 7.146a5.106 5.106 0 0 1-1.538 3.645l-4.78 4.688a5.19 5.19 0 0 1-1.69 1.125 5.256 5.256 0 0 1-4.005 0 5.19 5.19 0 0 1-1.694-1.13 1 1 0 1 1 1.414-1.413c.296.296.65.532 1.042.694a3.256 3.256 0 0 0 2.48 0 3.189 3.189 0 0 0 1.042-.694l.007-.007 4.784-4.69c.603-.592.938-1.39.938-2.218 0-.828-.335-1.626-.938-2.218A3.27 3.27 0 0 0 16.772 4a3.27 3.27 0 0 0-2.289.928l-.598.587a1 1 0 1 1-1.4-1.428l.598-.587zm-3.075 3.896a5.257 5.257 0 0 1 4.005 0 5.19 5.19 0 0 1 1.694 1.13 1 1 0 1 1-1.414 1.413 3.19 3.19 0 0 0-1.042-.694 3.256 3.256 0 0 0-2.48 0 3.19 3.19 0 0 0-1.042.694l-.008.007-4.783 4.69A3.106 3.106 0 0 0 4 16.854c0 .828.335 1.626.938 2.218a3.27 3.27 0 0 0 2.29.928 3.27 3.27 0 0 0 2.289-.928l.598-.587a1 1 0 1 1 1.4 1.428l-.598.587a5.27 5.27 0 0 1-3.69 1.5 5.27 5.27 0 0 1-3.689-1.5A5.106 5.106 0 0 1 2 16.854c0-1.371.556-2.682 1.538-3.645l4.78-4.688a5.19 5.19 0 0 1 1.69-1.125z"
  />
</svg>
