<svg
  width="24"
  height="24"
  viewBox="0 0 24 24"
  xmlns="http://www.w3.org/2000/svg"
>
  <path
    fill-rule="evenodd"
    clip-rule="evenodd"
    d="M12 2a1 1 0 0 1 1 1v.01a1 1 0 1 1-2 0V3a1 1 0 0 1 1-1zm-3.9.89a1 1 0 0 1 1 1v.01a1 1 0 1 1-2 0v-.01a1 1 0 0 1 1-1zm7.8 0a1 1 0 0 1 1 1v.01a1 1 0 1 1-2 0v-.01a1 1 0 0 1 1-1zM4.96 5.39a1 1 0 0 1 1 1v.01a1 1 0 1 1-2 0v-.01a1 1 0 0 1 1-1zm14.08 0a1 1 0 0 1 1 1v.01a1 1 0 1 1-2 0v-.01a1 1 0 0 1 1-1zM12 8a4 4 0 1 0 0 8 4 4 0 0 0 0-8zm-6 4a6 6 0 1 1 12 0 6 6 0 0 1-12 0zM3.23 9a1 1 0 0 1 1 1v.01a1 1 0 1 1-2 0V10a1 1 0 0 1 1-1zm17.54 0a1 1 0 0 1 1 1v.01a1 1 0 1 1-2 0V10a1 1 0 0 1 1-1zM10 12a2 2 0 1 1 4 0 2 2 0 0 1-4 0zm-6.77 1a1 1 0 0 1 1 1v.01a1 1 0 1 1-2 0V14a1 1 0 0 1 1-1zm17.54 0a1 1 0 0 1 1 1v.01a1 1 0 1 1-2 0V14a1 1 0 0 1 1-1zM4.96 16.61a1 1 0 0 1 1 1v.01a1 1 0 1 1-2 0v-.01a1 1 0 0 1 1-1zm14.08 0a1 1 0 0 1 1 1v.01a1 1 0 1 1-2 0v-.01a1 1 0 0 1 1-1zM8.1 19.11a1 1 0 0 1 1 1v.01a1 1 0 1 1-2 0v-.01a1 1 0 0 1 1-1zm7.8 0a1 1 0 0 1 1 1v.01a1 1 0 1 1-2 0v-.01a1 1 0 0 1 1-1zM12 20a1 1 0 0 1 1 1v.01a1 1 0 1 1-2 0V21a1 1 0 0 1 1-1z"
  />
</svg>
