<svg
  width="24"
  height="24"
  viewBox="0 0 24 24"
  xmlns="http://www.w3.org/2000/svg"
  fill="none"
  stroke="currentColor"
  stroke-width="2"
  stroke-linecap="round"
  stroke-linejoin="round"
>
  <path d="M12 13a1 1 0 1 0 0-2 1 1 0 0 0 0 2z" />
  <path d="M12 17a5 5 0 1 0 0-10 5 5 0 0 0 0 10z" />
  <path d="M15.9 20.11v.01" />
  <path d="M19.04 17.61v.01" />
  <path d="M20.77 14v.01" />
  <path d="M20.77 10v.01" />
  <path d="M19.04 6.39v.01" />
  <path d="M15.9 3.89v.01" />
  <path d="M12 3v.01" />
  <path d="M8.1 3.89v.01" />
  <path d="M4.96 6.39v.01" />
  <path d="M3.23 10v.01" />
  <path d="M3.23 14v.01" />
  <path d="M4.96 17.61v.01" />
  <path d="M8.1 20.11v.01" />
  <path d="M12 21v.01" />
</svg>
