<svg
  width="24"
  height="24"
  viewBox="0 0 24 24"
  xmlns="http://www.w3.org/2000/svg"
>
  <path
    fill-rule="evenodd"
    clip-rule="evenodd"
    d="M12 2a1 1 0 0 1 1 1v.01a1 1 0 1 1-2 0V3a1 1 0 0 1 1-1zm-4.002.89a1 1 0 0 1 1 1v.01a1 1 0 1 1-2 0v-.01a1 1 0 0 1 1-1zm8.004 0a1 1 0 0 1 1 1v.01a1 1 0 1 1-2 0v-.01a1 1 0 0 1 1-1zM4.775 5.388a1 1 0 0 1 1 1v.01a1 1 0 1 1-2 0v-.01a1 1 0 0 1 1-1zm14.45 0a1 1 0 0 1 1 1v.01a1 1 0 1 1-2 0v-.01a1 1 0 0 1 1-1zM12 7.998c-2.307 0-4.131 1.814-4.131 3.997S9.693 15.992 12 15.992c2.307 0 4.131-1.814 4.131-3.997S14.307 7.998 12 7.998zm-6.131 3.997c0-3.337 2.77-5.997 6.131-5.997s6.131 2.66 6.131 5.997c0 3.337-2.77 5.997-6.131 5.997s-6.131-2.66-6.131-5.997zM3 8.996a1 1 0 0 1 1 1v.01a1 1 0 1 1-2 0v-.01a1 1 0 0 1 1-1zm18 0a1 1 0 0 1 1 1v.01a1 1 0 1 1-2 0v-.01a1 1 0 0 1 1-1zM9.974 11.995c0-1.129.932-2 2.026-2 1.094 0 2.026.871 2.026 2s-.932 2-2.026 2c-1.094 0-2.026-.871-2.026-2zM3 12.994a1 1 0 0 1 1 1v.01a1 1 0 1 1-2 0v-.01a1 1 0 0 1 1-1zm18 0a1 1 0 0 1 1 1v.01a1 1 0 1 1-2 0v-.01a1 1 0 0 1 1-1zM4.775 16.602a1 1 0 0 1 1 1v.01a1 1 0 1 1-2 0v-.01a1 1 0 0 1 1-1zm14.45 0a1 1 0 0 1 1 1v.01a1 1 0 1 1-2 0v-.01a1 1 0 0 1 1-1zM7.998 19.1a1 1 0 0 1 1 1v.01a1 1 0 1 1-2 0v-.01a1 1 0 0 1 1-1zm8.004 0a1 1 0 0 1 1 1v.01a1 1 0 1 1-2 0v-.01a1 1 0 0 1 1-1zM12 19.99a1 1 0 0 1 1 1V21a1 1 0 1 1-2 0v-.01a1 1 0 0 1 1-1z"
  />
</svg>
