<svg
  width="24"
  height="24"
  viewBox="0 0 24 24"
  xmlns="http://www.w3.org/2000/svg"
>
  <path d="M4 3a1 1 0 0 0-1 1v5h2V5h4V3H4z" />
  <path d="M20 3h-5v2h4v4h2V4a1 1 0 0 0-1-1z" />
  <path d="M5 19v-4H3v5a1 1 0 0 0 1 1h5v-2H5z" />
  <path d="M21 20v-5h-2v4h-4v2h5a1 1 0 0 0 1-1z" />
  <path d="M12 10a1 1 0 0 1 1 1v.01a1 1 0 1 1-2 0V11a1 1 0 0 1 1-1z" />
  <path
    fill-rule="evenodd"
    clip-rule="evenodd"
    d="M9.52 6.722a5 5 0 0 1 6.855 6.762.98.98 0 0 1-.056.09l-3.5 5a1 1 0 0 1-1.638 0l-3.5-5a.993.993 0 0 1-.056-.09A5 5 0 0 1 9.52 6.722zM12 8.063a3 3 0 0 0-2.648 4.41L12 16.256l2.648-3.783A3.001 3.001 0 0 0 12 8.063z"
  />
</svg>
