<svg
  width="24"
  height="24"
  viewBox="0 0 24 24"
  xmlns="http://www.w3.org/2000/svg"
>
  <path
    fill-rule="evenodd"
    clip-rule="evenodd"
    d="M12 2a1 1 0 0 1 1 1v3a1 1 0 0 1-2 0V3a1 1 0 0 1 1-1zM3.34 7a1 1 0 0 1 1.366-.366l2.598 1.5a1 1 0 0 1-1 1.732l-2.598-1.5A1 1 0 0 1 3.34 7zm17.32 0a1 1 0 0 1-.366 1.366l-2.598 1.5a1 1 0 0 1-1-1.732l2.598-1.5A1 1 0 0 1 20.66 7zM7.67 14.5a1 1 0 0 1-.366 1.366l-2.598 1.5a1 1 0 1 1-1-1.732l2.598-1.5a1 1 0 0 1 1.366.366zm8.66 0a1 1 0 0 1 1.366-.366l2.598 1.5a1.001 1.001 0 1 1-1 1.732l-2.598-1.5a1 1 0 0 1-.366-1.366zM12 17a1 1 0 0 1 1 1v3a1 1 0 0 1-2 0v-3a1 1 0 0 1 1-1z"
  />
</svg>
