<svg
  width="24"
  height="24"
  viewBox="0 0 24 24"
  xmlns="http://www.w3.org/2000/svg"
  fill="none"
  stroke="currentColor"
  stroke-width="2"
  stroke-linecap="round"
  stroke-linejoin="round"
>
  <path d="M12 9.75V12H5.25a2.25 2.25 0 0 1 0-4.5h4.5A2.25 2.25 0 0 1 12 9.75z" />
  <path d="M12 7.5H9.75a2.25 2.25 0 1 1 0-4.5A2.25 2.25 0 0 1 12 5.25V7.5z" />
  <path d="M14.25 12H12V5.25a2.25 2.25 0 0 1 4.5 0v4.5A2.25 2.25 0 0 1 14.25 12z" />
  <path d="M16.5 12V9.75a2.25 2.25 0 0 1 2.25-2.25A2.25 2.25 0 0 1 21 9.75 2.25 2.25 0 0 1 18.75 12H16.5z" />
  <path d="M12 14.25V12h6.75A2.25 2.25 0 0 1 21 14.25a2.25 2.25 0 0 1-2.25 2.25h-4.5A2.25 2.25 0 0 1 12 14.25z" />
  <path d="M12 16.5h2.25a2.25 2.25 0 0 1 2.25 2.25A2.25 2.25 0 0 1 14.25 21 2.25 2.25 0 0 1 12 18.75V16.5z" />
  <path d="M9.75 12H12v6.75A2.25 2.25 0 0 1 9.75 21a2.25 2.25 0 0 1-2.25-2.25v-4.5A2.25 2.25 0 0 1 9.75 12z" />
  <path d="M7.5 12v2.25a2.25 2.25 0 0 1-4.5 0A2.25 2.25 0 0 1 5.25 12H7.5z" />
</svg>
