<svg
  width="24"
  height="24"
  viewBox="0 0 24 24"
  xmlns="http://www.w3.org/2000/svg"
  fill="none"
  stroke="currentColor"
  stroke-width="2"
  stroke-linecap="round"
  stroke-linejoin="round"
>
  <path d="M9.615 12a4.7 4.7 0 0 0-2.564.758 4.527 4.527 0 0 0-1.7 2.02 4.396 4.396 0 0 0-.262 2.6 4.467 4.467 0 0 0 1.263 2.304 4.653 4.653 0 0 0 2.363 1.232 4.725 4.725 0 0 0 2.667-.257A4.592 4.592 0 0 0 13.452 19a4.42 4.42 0 0 0 .779-2.5V3c0 1.492.608 2.923 1.69 3.977A5.845 5.845 0 0 0 20 8.625" />
</svg>
