<svg
  width="24"
  height="24"
  viewBox="0 0 24 24"
  xmlns="http://www.w3.org/2000/svg"
  fill="none"
  stroke="currentColor"
  stroke-width="2"
  stroke-linecap="round"
  stroke-linejoin="round"
>
  <path d="M13 4a3.14 3.14 0 0 1 1.18-1.452A3.282 3.282 0 0 1 16 2" />
  <path d="M21 16.025C19.812 18.905 17.655 21 15.85 21H9.047C6.4 21 3 16.5 3 11.625c0-1.086.317-2.149.912-3.06A5.657 5.657 0 0 1 6.355 6.49a5.71 5.71 0 0 1 6.093.942 5.71 5.71 0 0 1 6.477-.755c.682.366 1.28.867 1.76 1.471a4.517 4.517 0 0 0-1.648 1.72 4.474 4.474 0 0 0 .183 4.573A4.525 4.525 0 0 0 21 16.025z" />
</svg>
