<svg
  width="24"
  height="24"
  viewBox="0 0 24 24"
  xmlns="http://www.w3.org/2000/svg"
  fill="none"
  stroke="currentColor"
  stroke-width="2"
  stroke-linecap="round"
  stroke-linejoin="round"
>
  <path d="M12 10c-1.91 0-2.866 1-2.866 3 0 1.5 1.427 3.535 2.866 5.5.955 1 1.433 1.5 2.388 2 .955.5 2.388 1 4.299-.5 1.91-1.5 1.432-3.5.477-6s-2.228-5.5-4.776-9.5c-.797-1-1.433-1.5-2.39-1.5-.956 0-1.551.45-2.386 1.5-2.548 4-3.821 7-4.776 9.5-.955 2.5-1.433 4.5.477 6 1.91 1.5 3.344 1 4.299.5.955-.5 1.433-1 2.388-2 1.439-1.965 2.866-4 2.866-5.5 0-2-.956-3-2.866-3z" />
</svg>
