<svg width="24" height="24" viewBox="0 0 24 24" fill="none" xmlns="http://www.w3.org/2000/svg">
<circle cx="15" cy="12" r="3" stroke="#1E293B" stroke-width="2" stroke-linecap="round" stroke-linejoin="round"/>
<path d="M9 21C10.6569 21 12 19.6569 12 18V15H9C7.34315 15 6 16.3431 6 18C6 19.6569 7.34315 21 9 21Z" stroke="#1E293B" stroke-width="2" stroke-linecap="round" stroke-linejoin="round"/>
<path d="M15 9C16.6569 9 18 7.65685 18 6C18 4.34315 16.6569 3 15 3H9C7.34315 3 6 4.34315 6 6C6 7.65685 7.34315 9 9 9H15Z" stroke="#1E293B" stroke-width="2" stroke-linecap="round" stroke-linejoin="round"/>
<path d="M9 15C7.34315 15 6 13.6569 6 12C6 10.3431 7.34315 9 9 9H12V15H9Z" stroke="#1E293B" stroke-width="2" stroke-linecap="round" stroke-linejoin="round"/>
<path d="M12 9V3" stroke="#1E293B" stroke-width="2" stroke-linecap="round" stroke-linejoin="round"/>
</svg>
