<svg width="24" height="24" viewBox="0 0 24 24" fill="none" xmlns="http://www.w3.org/2000/svg">
<path d="M14 13C14 10.7909 15.567 9 17.5 9C19.433 9 21 10.7909 21 13H14ZM14 13V14C14 16.2091 15.567 18 17.5 18C18.7955 18 19.9266 17.1956 20.5318 16" stroke="#1E293B" stroke-width="2" stroke-linecap="round" stroke-linejoin="round"/>
<path d="M15 6L20 6" stroke="#1E293B" stroke-width="2" stroke-linecap="round" stroke-linejoin="round"/>
<path d="M7 12C8.65685 12 10 10.6569 10 9C10 7.34315 8.65685 6 7 6H3V12M7 12H8C9.65685 12 11 13.3431 11 15C11 16.6569 9.65685 18 8 18H3V12M7 12H3" stroke="#1E293B" stroke-width="2" stroke-linecap="round" stroke-linejoin="round"/>
</svg>
