<svg
  width="24"
  height="24"
  viewBox="0 0 24 24"
  xmlns="http://www.w3.org/2000/svg"
  fill="none"
  stroke="currentColor"
  stroke-width="2"
  stroke-linecap="round"
  stroke-linejoin="round"
>
  <path d="M12 22a7 7 0 0 1-7-7V9c0-1.933.784-3.683 2.05-4.95A6.978 6.978 0 0 1 12 2c1.933 0 3.683.784 4.95 2.05A6.978 6.978 0 0 1 19 9v6a7 7 0 0 1-7 7z" />
  <path d="M19 2l-2.05 2.05" />
  <path d="M5 2l2.05 2.05" />
  <path d="M19 11H5" />
  <path d="M9.375 7.875h.01" />
  <path d="M14.615 7.875h.01" />
</svg>
