<svg
  width="24"
  height="24"
  viewBox="0 0 24 24"
  xmlns="http://www.w3.org/2000/svg"
  fill="none"
  stroke="currentColor"
  stroke-width="2"
  stroke-linecap="round"
  stroke-linejoin="round"
>
  <path d="M15 21v-3.515c0-1.005.1-1.406-.5-2.009 2.8-.301 5.5-1.406 5.5-6.026a4.63 4.63 0 0 0-1.3-3.214 4.235 4.235 0 0 0-.1-3.214s-1.1-.3-3.5 1.306a12.249 12.249 0 0 0-6.2 0C6.5 2.721 5.4 3.022 5.4 3.022a4.235 4.235 0 0 0-.1 3.214A4.63 4.63 0 0 0 4 9.45c0 4.62 2.7 5.725 5.5 6.026-.6.603-.6 1.205-.5 2.009V21" />
  <path d="M9 19c-4.3 1.4-4.3-2.5-6-3" />
</svg>
