<svg width="24" height="24" viewBox="0 0 24 24" fill="none" xmlns="http://www.w3.org/2000/svg">
<path d="M12.0004 4.00284C13.4089 4.00253 14.7978 4.33286 16.0552 4.96725C17.3127 5.60164 18.4037 6.52236 19.2404 7.65532C20.0771 8.78828 20.6361 10.1018 20.8724 11.4903C21.1088 12.8787 21.0158 14.3032 20.6011 15.6491C20.9771 16.482 21.0906 17.4096 20.9264 18.3085C20.7622 19.2074 20.3281 20.035 19.6819 20.6811C19.0358 21.3272 18.2081 21.7613 17.3092 21.9255C16.4102 22.0897 15.4826 21.9762 14.6497 21.6003C13.0859 22.0826 11.4202 22.1294 9.83179 21.7355C8.24339 21.3416 6.79252 20.5219 5.63533 19.3648C4.47814 18.2077 3.65847 16.7569 3.26455 15.1685C2.87063 13.5802 2.91738 11.9146 3.39976 10.3508C3.02343 9.51794 2.90973 8.5902 3.07379 7.6911C3.23785 6.79199 3.67188 5.96418 4.31812 5.31787C4.96435 4.67156 5.79213 4.2374 6.69125 4.0732C7.59036 3.909 8.51817 4.02254 9.35116 4.39871C10.2095 4.13512 11.1025 4.00168 12.0004 4.00284V4.00284Z" stroke="#1E293B" stroke-width="2" stroke-linecap="round" stroke-linejoin="round"/>
<path d="M8 15.5C8.5 17.5 10.358 18 12 18C14.905 18 16 16.813 16 15.5C16 13.997 14.073 13 12 13C9.927 13 8 12.003 8 10.5C8 9.187 9.095 8 12 8C13.642 8 15.5 8.5 16 10.5" stroke="#1E293B" stroke-width="2" stroke-linecap="round" stroke-linejoin="round"/>
</svg>
