<svg
  width="24"
  height="24"
  viewBox="0 0 24 24"
  xmlns="http://www.w3.org/2000/svg"
  fill="none"
  stroke="currentColor"
  stroke-width="2"
  stroke-linecap="round"
  stroke-linejoin="round"
>
  <path d="M12 4.003a8.998 8.998 0 0 1 8.601 11.646A4.499 4.499 0 0 1 14.65 21.6 8.998 8.998 0 0 1 3.4 10.35 4.498 4.498 0 0 1 9.35 4.4a8.985 8.985 0 0 1 2.65-.396z" />
  <path d="M8 15.5c.5 2 2.358 2.5 4 2.5 2.905 0 4-1.187 4-2.5 0-1.503-1.927-2.5-4-2.5s-4-.997-4-2.5C8 9.187 9.095 8 12 8c1.642 0 3.5.5 4 2.5" />
</svg>
