<svg
  width="24"
  height="24"
  viewBox="0 0 24 24"
  xmlns="http://www.w3.org/2000/svg"
  fill="none"
  stroke="currentColor"
  stroke-width="2"
  stroke-linecap="round"
  stroke-linejoin="round"
>
  <path d="M9 13a1 1 0 1 0 0-2 1 1 0 0 0 0 2z" />
  <path d="M15 13a1 1 0 1 0 0-2 1 1 0 0 0 0 2z" />
  <path d="M6.904 7.5c3.814-1 5.994-1 9.808 0" />
  <path d="M6.36 16.5c3.814 1 7.083 1 10.897 0" />
  <path d="M15.623 17c0 1 1.634 3 2.18 3 1.634 0 3.087-1.667 3.813-3 .727-1.667.545-5.833-1.634-11.5-1.588-1.015-3.27-1.34-4.904-1.5l-1.09 2.5" />
  <path d="M7.994 17c0 1-1.478 3-1.997 3-1.557 0-2.94-1.667-3.632-3-.692-1.667-.519-5.833 1.556-11.5C5.434 4.485 6.953 4.16 8.54 4l1.09 2.5" />
</svg>
