<svg width="24" height="24" viewBox="0 0 24 24" fill="none" xmlns="http://www.w3.org/2000/svg">
<path d="M16.5032 5C17.1216 5.00059 17.7331 5.12854 18.2998 5.37587C18.8665 5.6232 19.3761 5.98459 19.7969 6.43752C20.2177 6.89045 20.5406 7.4252 20.7455 8.00842C20.9505 8.59164 21.0331 9.21082 20.9881 9.82734C20.9431 10.4439 20.7715 11.0445 20.4841 11.5918C20.1967 12.1391 19.7996 12.6214 19.3175 13.0085C18.8354 13.3956 18.2787 13.6792 17.6822 13.8417C17.0856 14.0042 16.4619 14.0421 15.8501 13.953L11.502 16.962V17C11.5021 17.7652 11.2096 18.5015 10.6846 19.0583C10.1595 19.615 9.44144 19.9501 8.67737 19.995L8.50132 20C7.80933 19.9999 7.13865 19.7607 6.60277 19.323C6.06689 18.8853 5.69874 18.2759 5.56062 17.598L3 16.5V13L6.51084 14.755C6.89038 14.417 7.34986 14.1813 7.84586 14.0702C8.34186 13.9591 8.858 13.9762 9.34553 14.12L12.0732 10.302C11.9557 9.65359 11.9821 8.9873 12.1505 8.35022C12.3189 7.71313 12.6252 7.1208 13.0478 6.61507C13.4704 6.10935 13.9988 5.70257 14.5959 5.4235C15.193 5.14442 15.8441 4.99985 16.5032 5V5Z" stroke="#1E293B" stroke-width="2" stroke-linecap="round" stroke-linejoin="round"/>
<path d="M16.5 10.5C17.0523 10.5 17.5 10.0523 17.5 9.5C17.5 8.94772 17.0523 8.5 16.5 8.5C15.9477 8.5 15.5 8.94772 15.5 9.5C15.5 10.0523 15.9477 10.5 16.5 10.5Z" stroke="#1E293B" stroke-width="2" stroke-linecap="round" stroke-linejoin="round"/>
</svg>
