<svg width="24" height="24" viewBox="0 0 24 24" fill="none" xmlns="http://www.w3.org/2000/svg">
<path d="M9 13C9.55228 13 10 12.5523 10 12C10 11.4477 9.55228 11 9 11C8.44772 11 8 11.4477 8 12C8 12.5523 8.44772 13 9 13Z" stroke="#1E293B" stroke-width="2" stroke-linecap="round" stroke-linejoin="round"/>
<path d="M15 13C15.5523 13 16 12.5523 16 12C16 11.4477 15.5523 11 15 11C14.4477 11 14 11.4477 14 12C14 12.5523 14.4477 13 15 13Z" stroke="#1E293B" stroke-width="2" stroke-linecap="round" stroke-linejoin="round"/>
<path d="M6.90417 7.5C10.7184 6.5 12.898 6.5 16.7123 7.5" stroke="#1E293B" stroke-width="2" stroke-linecap="round" stroke-linejoin="round"/>
<path d="M6.35931 16.5C10.1736 17.5 13.443 17.5 17.2572 16.5" stroke="#1E293B" stroke-width="2" stroke-linecap="round" stroke-linejoin="round"/>
<path d="M15.6225 17C15.6225 18 17.2572 20 17.8021 20C19.4368 20 20.8895 18.333 21.6164 17C22.3433 15.333 22.1613 11.167 19.9817 5.5C18.3939 4.485 16.7123 4.16 15.0776 4L13.9879 6.5" stroke="#1E293B" stroke-width="2" stroke-linecap="round" stroke-linejoin="round"/>
<path d="M7.99398 17C7.99398 18 6.51622 20 5.99748 20C4.44017 20 3.05722 18.333 2.3652 17C1.67318 15.333 1.84646 11.167 3.92142 5.5C5.43406 4.485 6.95323 4.16 8.53887 4L9.62867 6.5" stroke="#1E293B" stroke-width="2" stroke-linecap="round" stroke-linejoin="round"/>
</svg>
