<svg
  width="24"
  height="24"
  viewBox="0 0 24 24"
  xmlns="http://www.w3.org/2000/svg"
  fill="none"
  stroke="currentColor"
  stroke-width="2"
  stroke-linecap="round"
  stroke-linejoin="round"
>
  <path d="M16.503 5a4.502 4.502 0 0 1 3.981 6.592 4.5 4.5 0 0 1-4.634 2.361l-4.348 3.009V17a3 3 0 0 1-2.825 2.995L8.501 20a3.002 3.002 0 0 1-2.94-2.402L3 16.5V13l3.51 1.755a2.99 2.99 0 0 1 2.836-.635l2.727-3.818A4.499 4.499 0 0 1 16.503 5z" />
  <path d="M16.5 10.5a1 1 0 1 0 0-2 1 1 0 0 0 0 2z" />
</svg>
