<svg width="24" height="24" viewBox="0 0 24 24" fill="none" xmlns="http://www.w3.org/2000/svg">
<path d="M13 4C13.2335 3.4113 13.6451 2.9051 14.1806 2.54808C14.7161 2.19106 15.3504 1.99998 16 2" stroke="#1E293B" stroke-width="2" stroke-linecap="round" stroke-linejoin="round"/>
<path d="M21 16.025C19.8117 18.9048 17.6547 21 15.8495 21H9.04685C6.40135 21 3 16.5 3 11.625C3.00001 10.5391 3.31678 9.47646 3.91206 8.56528C4.50734 7.65411 5.35569 6.93337 6.3547 6.49008C7.35371 6.04678 8.46068 5.89988 9.54199 6.0671C10.6233 6.23433 11.6327 6.70853 12.4484 7.43246L12.4482 7.43229C13.0257 6.91984 13.7029 6.53026 14.438 6.28761C15.1731 6.04496 15.9505 5.95438 16.7223 6.02146C17.4941 6.08855 18.2438 6.31187 18.9252 6.67764C19.6066 7.04341 20.2052 7.54388 20.6841 8.14815L20.6841 8.14816C19.9898 8.56475 19.4209 9.15843 19.0365 9.86735C18.6522 10.5763 18.4664 11.3745 18.4986 12.1789C18.5308 12.9833 18.7799 13.7644 19.2197 14.4408C19.6596 15.1172 20.2742 15.6642 20.9996 16.0248L21 16.025Z" stroke="#1E293B" stroke-width="2" stroke-linecap="round" stroke-linejoin="round"/>
</svg>
