<svg
  width="24"
  height="24"
  viewBox="0 0 24 24"
  xmlns="http://www.w3.org/2000/svg"
  fill="none"
  stroke="currentColor"
  stroke-width="2"
  stroke-linecap="round"
  stroke-linejoin="round"
>
  <path d="M10 15H8.364c-.579 0-1.134.246-1.543.683a2.418 2.418 0 0 0-.64 1.65v.778c0 .619-.229 1.768-.638 2.206-.41.437-.964.683-1.543.683" />
  <path d="M8 22c.579 0 1.134-.246 1.543-.683.409-.438.457-1.032.457-1.65V15" />
  <path d="M14 15h1.636c.579 0 1.134.246 1.543.683.41.438.64 1.032.64 1.65v.778c0 .619.23 1.768.638 2.206.41.437.964.683 1.543.683" />
  <path d="M16 22a2.112 2.112 0 0 1-1.543-.683c-.409-.438-.457-1.032-.457-1.65V15" />
  <path d="M5.504 5.058a4.707 4.707 0 0 0 .324 2.133A4.369 4.369 0 0 0 5 9.75v.75a4.42 4.42 0 0 0 1.367 3.182A4.756 4.756 0 0 0 9.667 15h4.666a4.756 4.756 0 0 0 3.3-1.318A4.42 4.42 0 0 0 19 10.5v-.75a4.37 4.37 0 0 0-.828-2.559A4.707 4.707 0 0 0 17.834 3a5.2 5.2 0 0 0-2.429.599 4.983 4.983 0 0 0-1.831 1.65h-3.146A4.983 4.983 0 0 0 8.596 3.6 5.2 5.2 0 0 0 6.166 3a4.742 4.742 0 0 0-.662 2.058z" />
</svg>
