<svg
  width="24"
  height="24"
  viewBox="0 0 24 24"
  xmlns="http://www.w3.org/2000/svg"
  fill="none"
  stroke="currentColor"
  stroke-width="2"
  stroke-linecap="round"
  stroke-linejoin="round"
>
  <path d="M22 4.11c-1 .49-1.98.688-3 .989-1.121-1.263-2.783-1.333-4.38-.736S11.977 6.419 12 8.093v.998c-3.245.083-6.135-1.392-8-3.992 0 0-4.182 7.418 4 10.979-1.872 1.244-3.739 2.084-6 1.996 3.308 1.8 6.913 2.418 10.034 1.514 3.58-1.038 6.522-3.716 7.651-7.727.337-1.22.504-2.48.497-3.746-.002-.249 1.51-2.767 1.818-4.006v.001z" />
</svg>
