<svg width="24" height="24" viewBox="0 0 24 24" fill="none" xmlns="http://www.w3.org/2000/svg">
<path d="M12 21C16.9706 21 21 16.9706 21 12C21 7.02944 16.9706 3 12 3C7.02944 3 3 7.02944 3 12C3 16.9706 7.02944 21 12 21Z" stroke="#1E293B" stroke-width="2" stroke-miterlimit="10"/>
<path d="M6.65857 19.2444C7.99357 17.0327 9.87741 15.2036 12.1274 13.9343C14.3774 12.6651 16.9172 11.9987 19.5006 12C20.0065 12 20.5062 12.0247 20.9997 12.074" stroke="#1E293B" stroke-width="2" stroke-linecap="round" stroke-linejoin="round"/>
<path d="M17.6278 4.97705C16.2224 6.70437 14.4494 8.09642 12.438 9.05179C10.4266 10.0072 8.22734 10.5018 6.00055 10.4996C5.05205 10.5001 4.10563 10.411 3.17386 10.2337" stroke="#1E293B" stroke-width="2" stroke-linecap="round" stroke-linejoin="round"/>
<path d="M8.05598 3.9082C10.3115 5.23165 12.1816 7.12202 13.4807 9.39166C14.7798 11.6613 15.4627 14.2313 15.4615 16.8464C15.4624 18.0717 15.3135 19.2925 15.018 20.4817" stroke="#1E293B" stroke-width="2" stroke-linecap="round" stroke-linejoin="round"/>
</svg>
