<svg
  width="24"
  height="24"
  viewBox="0 0 24 24"
  xmlns="http://www.w3.org/2000/svg"
  fill="none"
  stroke="currentColor"
  stroke-width="2"
  stroke-linecap="round"
  stroke-linejoin="round"
>
  <path d="M12 3c1.55 1.042 2.811 2.398 3.68 3.961A10.358 10.358 0 0 1 17 12c0 1.75-.452 3.476-1.32 5.039-.869 1.563-2.13 2.92-3.68 3.961" />
  <path d="M12 3c-1.55 1.042-2.811 2.398-3.68 3.961A10.358 10.358 0 0 0 7 12c0 1.75.452 3.476 1.32 5.039.869 1.563 2.13 2.92 3.68 3.961" />
  <path d="M21 12a9 9 0 1 1-18 0 9 9 0 0 1 18 0z" />
  <path d="M12 21V3" />
</svg>
