<svg
  width="24"
  height="24"
  viewBox="0 0 24 24"
  xmlns="http://www.w3.org/2000/svg"
>
  <path
    fill-rule="evenodd"
    clip-rule="evenodd"
    d="M11.31 3.277a1 1 0 0 1 1.38 0 10.699 10.699 0 0 1 3.245 6.546A11 11 0 0 1 22 8a1 1 0 0 1 1 1A11 11 0 1 1 1 9a1 1 0 0 1 1-1 11 11 0 0 1 6.065 1.823 10.7 10.7 0 0 1 3.245-6.546zm-1.3 8.183c.82.871 1.492 1.87 1.99 2.957a10.998 10.998 0 0 1 1.99-2.957l.001-.01A8.698 8.698 0 0 0 12 5.464a8.697 8.697 0 0 0-1.991 5.986v.01zm.927 6.477a8.997 8.997 0 0 0-7.874-7.874 9 9 0 0 0 7.874 7.874zm2.126 0a9 9 0 0 0 7.874-7.874 9 9 0 0 0-7.874 7.874z"
  />
</svg>
