<svg width="24" height="24" viewBox="0 0 24 24" fill="none" xmlns="http://www.w3.org/2000/svg">
<path d="M12 16C12.7956 16 13.5587 15.6839 14.1213 15.1213C14.6839 14.5587 15 13.7956 15 13V3H20V13C20 15.1217 19.1571 17.1566 17.6569 18.6569C16.1566 20.1571 14.1217 21 12 21C9.87827 21 7.84344 20.1571 6.34315 18.6569C4.84285 17.1566 4 15.1217 4 13V3H9V13C9 13.7956 9.31607 14.5587 9.87868 15.1213C10.4413 15.6839 11.2044 16 12 16Z" stroke="white" stroke-width="2" stroke-linecap="round" stroke-linejoin="round"/>
<path d="M20 8H15" stroke="white" stroke-width="2" stroke-linecap="round" stroke-linejoin="round"/>
<path d="M9 8H4" stroke="white" stroke-width="2" stroke-linecap="round" stroke-linejoin="round"/>
</svg>
