<svg width="24" height="24" viewBox="0 0 24 24" fill="none" xmlns="http://www.w3.org/2000/svg">
<path fill-rule="evenodd" clip-rule="evenodd" d="M2 4C2 3.44772 2.44772 3 3 3H21C21.5523 3 22 3.44772 22 4V20C22 20.5523 21.5523 21 21 21H3C2.44772 21 2 20.5523 2 20C2 19.4477 2.44772 19 3 19H20V7.22684L12.6644 13.7474C12.2855 14.0842 11.7145 14.0842 11.3356 13.7474L2.33564 5.74741C2.12215 5.55764 2 5.28564 2 5V4ZM19.4948 5H4.5052L12 11.662L19.4948 5ZM0 11C0 10.4477 0.447715 10 1 10H4C4.55228 10 5 10.4477 5 11C5 11.5523 4.55228 12 4 12H1C0.447715 12 0 11.5523 0 11ZM0 16C0 15.4477 0.447715 15 1 15H7C7.55228 15 8 15.4477 8 16C8 16.5523 7.55228 17 7 17H1C0.447715 17 0 16.5523 0 16Z" fill="black"/>
</svg>
