<svg width="24" height="24" viewBox="0 0 24 24" fill="none" xmlns="http://www.w3.org/2000/svg">
<path fill-rule="evenodd" clip-rule="evenodd" d="M14 4C14 3.44772 14.4477 3 15 3H21C21.5523 3 22 3.44772 22 4V10C22 10.5523 21.5523 11 21 11C20.4477 11 20 10.5523 20 10V6.41421L16.4633 9.95094C17.4267 11.2124 18 12.7899 18 14.5C18 18.6421 14.6421 22 10.5 22C6.35786 22 3 18.6421 3 14.5C3 10.3579 6.35786 7 10.5 7C12.2101 7 13.7876 7.57325 15.0491 8.53673L18.5858 5H15C14.4477 5 14 4.55228 14 4ZM10.5 9C7.46243 9 5 11.4624 5 14.5C5 17.5376 7.46243 20 10.5 20C13.5376 20 16 17.5376 16 14.5C16 12.9809 15.3855 11.6073 14.3891 10.6109C13.3927 9.61451 12.0191 9 10.5 9Z" fill="black"/>
</svg>
