<svg
  width="24"
  height="24"
  viewBox="0 0 24 24"
  xmlns="http://www.w3.org/2000/svg"
  fill="none"
  stroke="currentColor"
  stroke-width="2"
  stroke-linecap="round"
  stroke-linejoin="round"
>
  <path d="M5 8a2 2 0 1 0 0-4 2 2 0 0 0 0 4z" />
  <path d="M12 8a2 2 0 1 0 0-4 2 2 0 0 0 0 4z" />
  <path d="M12 20a2 2 0 1 0 0-4 2 2 0 0 0 0 4z" />
  <path d="M5 20a2 2 0 1 0 0-4 2 2 0 0 0 0 4z" />
  <path d="M5 12h14V8M5 8v4-4zm0 8v-4 4zm7-8v8-8z" />
  <path d="M19 8a2 2 0 1 0 0-4 2 2 0 0 0 0 4z" />
</svg>
