<svg
  width="24"
  height="24"
  viewBox="0 0 24 24"
  xmlns="http://www.w3.org/2000/svg"
>
  <path
    fill-rule="evenodd"
    clip-rule="evenodd"
    d="M12 4c-1.39 0-2.747.402-3.9 1.151a6.839 6.839 0 0 0-2.57 3.05 6.6 6.6 0 0 0-.397 3.909 6.73 6.73 0 0 0 1.908 3.472l4.243 4.132c.186.18.443.286.716.286.274 0 .531-.106.717-.286l4.242-4.132a6.729 6.729 0 0 0 1.907-3.472 6.6 6.6 0 0 0-.395-3.91 6.838 6.838 0 0 0-2.572-3.049A7.154 7.154 0 0 0 12 4.001zm-4.99-.525A9.154 9.154 0 0 1 12 2c1.774 0 3.51.512 4.99 1.475a8.839 8.839 0 0 1 3.321 3.943 8.601 8.601 0 0 1 .515 5.092 8.73 8.73 0 0 1-2.471 4.505l-4.243 4.132A3.03 3.03 0 0 1 12 22a3.027 3.027 0 0 1-2.111-.853l-4.245-4.132a8.73 8.73 0 0 1-2.471-4.505 8.6 8.6 0 0 1 .515-5.092A8.839 8.839 0 0 1 7.01 3.475zM12 9a2 2 0 1 0 0 4 2 2 0 0 0 0-4zm-4 2a4 4 0 1 1 8 0 4 4 0 0 1-8 0z"
  />
</svg>
