<svg
  width="24"
  height="24"
  viewBox="0 0 24 24"
  xmlns="http://www.w3.org/2000/svg"
  fill="none"
  stroke="currentColor"
  stroke-width="2"
  stroke-linecap="round"
  stroke-linejoin="round"
>
  <path d="M9 9.75a3 3 0 0 0 3.674 2.924" />
  <path d="M5.377 5.377A7.486 7.486 0 0 0 4 9.692C4 16.615 12 22 12 22s2.82-1.898 5.111-4.889" />
  <path d="M1 1l4.377 4.377 3.649 3.649 1.824 1.824 1.824 1.824 4.437 4.437L23 23" />
  <path d="M11.76 6.76A3 3 0 0 1 14.99 9.99" />
  <path d="M20 9.692c0-2.04-.843-3.996-2.343-5.439S14.122 2 12 2c-1.409 0-2.78.357-3.98 1.02" />
</svg>
