<svg
  width="24"
  height="24"
  viewBox="0 0 24 24"
  xmlns="http://www.w3.org/2000/svg"
>
  <path
    fill-rule="evenodd"
    clip-rule="evenodd"
    d="M1.293 1.293a1 1 0 0 1 1.414 0l21 21a1 1 0 0 1-1.414 1.414l-5.334-5.333-2.847 2.773A3.029 3.029 0 0 1 12 22a3.027 3.027 0 0 1-2.111-.853l-4.245-4.132a8.73 8.73 0 0 1-2.471-4.505 8.6 8.6 0 0 1 .515-5.092 8.723 8.723 0 0 1 .818-1.497L1.293 2.707a1 1 0 0 1 0-1.414zm4.661 6.075a6.6 6.6 0 0 0-.82 4.742 6.73 6.73 0 0 0 1.907 3.472l4.243 4.132c.186.18.443.286.716.286.274 0 .531-.106.717-.286l2.828-2.755-2.608-2.608A1 1 0 0 1 12 15a4 4 0 0 1-3.766-5.351l-2.28-2.28zm5.576 5.576a2.003 2.003 0 0 1-1.474-1.474l1.474 1.474zM12 4c-1.006 0-1.994.21-2.9.61a1 1 0 1 1-.808-1.829 9.183 9.183 0 0 1 8.698.694 8.839 8.839 0 0 1 3.321 3.943 8.601 8.601 0 0 1-.114 7.003 1 1 0 0 1-1.814-.842A6.6 6.6 0 0 0 18.47 8.2a6.838 6.838 0 0 0-2.572-3.05A7.154 7.154 0 0 0 12 4.001z"
  />
</svg>
