<svg
  width="24"
  height="24"
  viewBox="0 0 24 24"
  xmlns="http://www.w3.org/2000/svg"
>
  <path
    fill-rule="evenodd"
    clip-rule="evenodd"
    d="M17.157 18.571l5.136 5.136 1.414-1.414-22-22L.293 1.707 4.544 5.96a8.999 8.999 0 0 0 1.092 11.405L12 23.728l5.157-5.157zm-1.414-1.414l-2.392-2.392a4 4 0 0 1-5.116-5.116L5.993 7.407A6.998 6.998 0 0 0 7.05 15.95L12 20.9l3.743-3.743zm-5.687-5.687a2 2 0 0 0 1.474 1.474l-1.474-1.474z"
  />
  <path d="M20.827 12.756a9.002 9.002 0 0 1-1.372 3.285l-1.447-1.448a7 7 0 0 0-9.601-9.6L6.959 3.544l.04-.027a9 9 0 0 1 13.828 9.239z" />
  <path d="M16 11c0 .465-.08.921-.235 1.35l-1.821-1.82a2 2 0 0 0-1.474-1.474l-1.82-1.821A3.999 3.999 0 0 1 16 11z" />
</svg>
