<svg width="24" height="24" viewBox="0 0 24 24" fill="none" xmlns="http://www.w3.org/2000/svg">
<path d="M9 9.75C8.9999 10.2013 9.10162 10.6468 9.29758 11.0534C9.49355 11.4599 9.77872 11.817 10.1318 12.098C10.485 12.3791 10.8969 12.5768 11.3371 12.6765C11.7772 12.7763 12.2342 12.7754 12.674 12.674" stroke="white" stroke-width="2" stroke-linecap="round" stroke-linejoin="round"/>
<path d="M5.377 5.37695C4.48344 6.63859 4.00242 8.14594 4 9.69195C4 16.615 12 22 12 22C12 22 14.82 20.102 17.111 17.111" stroke="white" stroke-width="2" stroke-linecap="round" stroke-linejoin="round"/>
<path d="M1 1L5.377 5.377L9.026 9.026L10.85 10.85L12.674 12.674L17.111 17.111L23 23" stroke="white" stroke-width="2" stroke-linecap="round" stroke-linejoin="round"/>
<path d="M11.76 6.76007C12.193 6.72538 12.6283 6.78513 13.036 6.93519C13.4436 7.08524 13.8138 7.32202 14.1209 7.62917C14.428 7.93631 14.6648 8.30649 14.8149 8.71412C14.9649 9.12174 15.0247 9.55709 14.99 9.99007" stroke="white" stroke-width="2" stroke-linecap="round" stroke-linejoin="round"/>
<path d="M20 9.692C20 7.652 19.157 5.696 17.657 4.253C16.157 2.81 14.122 2 12 2C10.591 2 9.22 2.357 8.02 3.02" stroke="white" stroke-width="2" stroke-linecap="round" stroke-linejoin="round"/>
</svg>
