<svg
  width="24"
  height="24"
  viewBox="0 0 24 24"
  xmlns="http://www.w3.org/2000/svg"
>
  <path
    fill-rule="evenodd"
    clip-rule="evenodd"
    d="M11.758 3.03a1 1 0 0 1 .485 0l8 2A1 1 0 0 1 21 6v1h2a1 1 0 0 1 1 1v4.5a2.5 2.5 0 0 1-2.5 2.5h-1.174a7.03 7.03 0 0 1-2.517 2.871l-5.318 3a1 1 0 0 1-.982 0l-5.318-3A7.03 7.03 0 0 1 3.674 15H2.5A2.5 2.5 0 0 1 0 12.5V8a1 1 0 0 1 1-1h2V6a1 1 0 0 1 .757-.97l8-2zM3 9H2v3.5a.5.5 0 0 0 .5.5H3V9zm2 3c0 1.726.873 3.248 2.207 4.148L12 18.852l4.793-2.704A4.994 4.994 0 0 0 19 12V6.78l-7-1.75-7 1.75V12zm16 1V9h1v3.5a.5.5 0 0 1-.5.5H21z"
  />
</svg>
