<svg
  width="24"
  height="24"
  viewBox="0 0 24 24"
  xmlns="http://www.w3.org/2000/svg"
>
  <g clip-path="url(#a)">
    <path
      fill-rule="evenodd"
      clip-rule="evenodd"
      d="M.293.293a1 1 0 0 1 1.414 0l22 22a1 1 0 0 1-1.414 1.414l-5.348-5.348-4.454 2.512a1 1 0 0 1-.982 0l-5.318-3A7.03 7.03 0 0 1 3.674 15H2.5A2.5 2.5 0 0 1 0 12.5V8a1 1 0 0 1 1-1h2V6a1 1 0 0 1 .65-.937L.292 1.707a1 1 0 0 1 0-1.414zM5 6.78l.293-.074 10.183 10.184L12 18.85l-4.793-2.703A4.994 4.994 0 0 1 5 12V6.78zM3 9H2v3.5a.5.5 0 0 0 .5.5H3V9zm8.758-5.97a1 1 0 0 1 .485 0l8 2A1 1 0 0 1 21 6v1h2a1 1 0 0 1 1 1v4.5a2.5 2.5 0 0 1-2.5 2.5h-1.182a1 1 0 0 1-1.76-.942A4.98 4.98 0 0 0 19 12V6.78l-7-1.75-2.157.54a1 1 0 0 1-.486-1.94l2.4-.6zM21 13V9h1v3.5a.5.5 0 0 1-.5.5H21z"
    />
  </g>
  <defs>
    <clipPath id="a">
      <rect width="24" height="24" />
    </clipPath>
  </defs>
</svg>
