<svg
  width="24"
  height="24"
  viewBox="0 0 24 24"
  xmlns="http://www.w3.org/2000/svg"
>
  <path d="M21.328 8.566c0-4.339-2.843-5.61-2.843-5.61-1.433-.659-3.895-.935-6.45-.956h-.064c-2.557.02-5.017.297-6.45.956 0 0-2.843 1.272-2.843 5.61 0 .993-.019 2.181.013 3.44.103 4.244.778 8.425 4.7 9.463 1.809.479 3.362.58 4.613.51 2.269-.125 3.542-.81 3.542-.81l-.075-1.646s-1.621.511-3.441.45c-1.804-.062-3.707-.195-4-2.41a4.58 4.58 0 0 1-.04-.62s1.772.433 4.015.535c1.372.063 2.658-.08 3.965-.236 2.506-.299 4.687-1.843 4.962-3.254.43-2.22.396-5.422.396-5.422zm-3.354 5.59h-2.08V9.058c0-1.075-.453-1.62-1.357-1.62-1 0-1.502.647-1.502 1.927v2.791h-2.07V9.363c0-1.28-.5-1.926-1.5-1.926-.905 0-1.357.545-1.357 1.62v5.099H6.027V8.903c0-1.074.273-1.927.822-2.558.567-.632 1.308-.955 2.229-.955 1.065 0 1.871.41 2.405 1.228l.517.87.518-.87c.534-.819 1.34-1.228 2.405-1.228.92 0 1.662.323 2.229.955.548.63.821 1.484.821 2.558v5.254h.001z" />
</svg>
