<svg
  width="24"
  height="24"
  viewBox="0 0 24 24"
  xmlns="http://www.w3.org/2000/svg"
>
  <path d="M11.453 17.026l.15.121a6.16 6.16 0 0 1-3.422 1.032A6.18 6.18 0 1 1 11.6 6.852c-.05.042-.1.081-.138.125A6.636 6.636 0 0 0 9.163 12c0 1.926.834 3.758 2.29 5.026zM15.82 5.82c-1.267 0-2.443.38-3.42 1.032.05.042.1.081.137.125a6.636 6.636 0 0 1 2.3 5.023 6.669 6.669 0 0 1-2.29 5.026l-.15.121a6.155 6.155 0 0 0 3.422 1.032 6.18 6.18 0 0 0 0-12.36zM12 7.145A6.156 6.156 0 0 0 9.64 12 6.155 6.155 0 0 0 12 16.856 6.158 6.158 0 0 0 14.36 12 6.156 6.156 0 0 0 12 7.145z" />
</svg>
