<svg
  width="24"
  height="24"
  viewBox="0 0 24 24"
  xmlns="http://www.w3.org/2000/svg"
>
  <path
    fill-rule="evenodd"
    clip-rule="evenodd"
    d="M12.162 3.73a1 1 0 0 1 .963-.73H21a1 1 0 1 1 0 2h-7.117L9.588 20.27a1 1 0 0 1-1.86.172l-3.1-6.3H3a1 1 0 0 1 0-2h2.25a1 1 0 0 1 .897.56l2.222 4.514 3.793-13.487zm3.636 8.7a1 1 0 0 1 1.415.011l1.537 1.562 1.537-1.562a1 1 0 0 1 1.426 1.403l-1.56 1.585 1.56 1.584a1 1 0 1 1-1.426 1.403l-1.537-1.562-1.537 1.562a1 1 0 0 1-1.426-1.403l1.56-1.584-1.56-1.585a1 1 0 0 1 .011-1.414z"
  />
</svg>
