<svg width="24" height="24" viewBox="0 0 24 24" fill="none" xmlns="http://www.w3.org/2000/svg">
<path fill-rule="evenodd" clip-rule="evenodd" d="M2 4C2 3.44772 2.44772 3 3 3H7C7.55228 3 8 3.44772 8 4C8 4.55228 7.55228 5 7 5H4V8C4 8.55228 3.55228 9 3 9C2.44772 9 2 8.55228 2 8V4ZM16 4C16 3.44772 16.4477 3 17 3H21C21.5523 3 22 3.44772 22 4V8C22 8.55228 21.5523 9 21 9C20.4477 9 20 8.55228 20 8V5H17C16.4477 5 16 4.55228 16 4ZM3 15C3.55228 15 4 15.4477 4 16V19H7C7.55228 19 8 19.4477 8 20C8 20.5523 7.55228 21 7 21H3C2.44772 21 2 20.5523 2 20V16C2 15.4477 2.44772 15 3 15ZM21 15C21.5523 15 22 15.4477 22 16V20C22 20.5523 21.5523 21 21 21H17C16.4477 21 16 20.5523 16 20C16 19.4477 16.4477 19 17 19H20V16C20 15.4477 20.4477 15 21 15Z" fill="black"/>
</svg>
