<svg
  width="24"
  height="24"
  viewBox="0 0 24 24"
  xmlns="http://www.w3.org/2000/svg"
>
  <path d="M2 11.7C2 6.125 6.367 2 12 2s10 4.125 10 9.7c0 5.575-4.367 9.7-10 9.7-1.008 0-1.983-.133-2.892-.383a.8.8 0 0 0-.533.041l-1.992.875a.8.8 0 0 1-1.125-.708L5.4 19.442a.808.808 0 0 0-.267-.567A9.492 9.492 0 0 1 2 11.7zm6.933-1.825L6 14.542c-.292.441.267.95.683.625l3.159-2.392a.588.588 0 0 1 .724 0l2.334 1.75c.7.525 1.7.333 2.166-.4L18 9.458c.291-.441-.267-.941-.683-.625l-3.159 2.392a.576.576 0 0 1-.716 0l-2.334-1.75a1.5 1.5 0 0 0-2.175.4z" />
</svg>
