<svg width="24" height="24" viewBox="0 0 24 24" fill="none" xmlns="http://www.w3.org/2000/svg">
<path fill-rule="evenodd" clip-rule="evenodd" d="M20.5257 1.64935C20.8205 1.83156 21 2.15342 21 2.5V13C21 17.9706 16.9706 22 12 22C7.02944 22 3 17.9706 3 13C3 9.61842 4.86539 6.67389 7.61856 5.13686L12.476 2.14829C12.7845 1.95846 13.1716 1.95034 13.4878 2.12707C13.8041 2.3038 14 2.63774 14 3V4.38197L19.5528 1.60557C19.8628 1.45058 20.2309 1.46714 20.5257 1.64935ZM19 4.11804L13.4472 6.89443C13.1372 7.04942 12.7691 7.03286 12.4743 6.85065C12.1795 6.66845 12 6.34658 12 6V4.78937L8.64801 6.85171C8.63524 6.85956 8.6223 6.86713 8.6092 6.8744C6.45462 8.06997 5 10.3658 5 13C5 16.866 8.13401 20 12 20C15.866 20 19 16.866 19 13V4.11804ZM12 10C10.3431 10 9 11.3431 9 13C9 14.6569 10.3431 16 12 16C13.6569 16 15 14.6569 15 13C15 11.3431 13.6569 10 12 10ZM7 13C7 10.2386 9.23858 8 12 8C14.7614 8 17 10.2386 17 13C17 15.7614 14.7614 18 12 18C9.23858 18 7 15.7614 7 13Z" fill="black"/>
</svg>
