<svg
  width="24"
  height="24"
  viewBox="0 0 24 24"
  xmlns="http://www.w3.org/2000/svg"
>
  <path
    fill-rule="evenodd"
    clip-rule="evenodd"
    d="M16.423 17.837l5.87 5.87 1.414-1.414-22-22L.293 1.707 7 8.414V10a5 5 0 0 0 6.389 4.803l1.545 1.546A7.001 7.001 0 0 1 5.07 11H3.055A9.004 9.004 0 0 0 11 18.945V23h2v-4.055a9.003 9.003 0 0 0 3.423-1.108zm-4.87-4.87l-2.52-2.52a3 3 0 0 0 2.52 2.52z"
  />
  <path d="M20.944 11a9.004 9.004 0 0 1-1.913 4.617l-1.428-1.428A7.002 7.002 0 0 0 18.928 11h2.016z" />
  <path d="M17 10a5 5 0 0 1-.829 2.757l-1.464-1.464A3 3 0 0 0 15 10V6a3 3 0 0 0-5.975-.389L7.416 4.002A4.999 4.999 0 0 1 17 6v4z" />
</svg>
