<svg
  width="24"
  height="24"
  viewBox="0 0 24 24"
  xmlns="http://www.w3.org/2000/svg"
>
  <g clip-path="url(#a)">
    <path
      fill-rule="evenodd"
      clip-rule="evenodd"
      d="M.293.293a1 1 0 0 1 1.414 0l22 22a1 1 0 0 1-1.414 1.414l-5.868-5.868A8.948 8.948 0 0 1 13 18.945V22a1 1 0 1 1-2 0v-3.055C6.5 18.448 3 14.633 3 10a1 1 0 1 1 2 0 7 7 0 0 0 9.94 6.355l-1.55-1.551A5 5 0 0 1 7 10V8.414L.293 1.707a1 1 0 0 1 0-1.414zm11.26 12.674a3.002 3.002 0 0 1-2.52-2.52l2.52 2.52zM12 3c-1.02 0-1.92.507-2.464 1.288a1 1 0 1 1-1.64-1.144A5 5 0 0 1 17 6v4c-.001.385-.045.76-.128 1.122a1 1 0 1 1-1.949-.447c.05-.216.076-.442.076-.675V6a3 3 0 0 0-3-3zm8 6a1 1 0 0 1 1 1 8.964 8.964 0 0 1-1.176 4.45 1 1 0 0 1-1.737-.99c.58-1.02.913-2.2.913-3.46a1 1 0 0 1 1-1z"
    />
  </g>
  <defs>
    <clipPath id="a">
      <rect width="24" height="24" />
    </clipPath>
  </defs>
</svg>
