<svg width="24" height="24" viewBox="0 0 24 24" fill="none" xmlns="http://www.w3.org/2000/svg">
<path fill-rule="evenodd" clip-rule="evenodd" d="M12 3C10.3431 3 9 4.34315 9 6V10C9 11.6569 10.3431 13 12 13C13.6569 13 15 11.6569 15 10V6C15 4.34315 13.6569 3 12 3ZM7 6C7 3.23858 9.23858 1 12 1C14.7614 1 17 3.23858 17 6V10C17 12.7614 14.7614 15 12 15C9.23858 15 7 12.7614 7 10V6ZM4 9C4.55228 9 5 9.44772 5 10C5 13.866 8.13401 17 12 17C15.866 17 19 13.866 19 10C19 9.44772 19.4477 9 20 9C20.5523 9 21 9.44772 21 10C21 14.6326 17.5 18.4476 13 18.9451V22C13 22.5523 12.5523 23 12 23C11.4477 23 11 22.5523 11 22V18.9451C6.50005 18.4476 3 14.6326 3 10C3 9.44772 3.44772 9 4 9Z" fill="black"/>
</svg>
