<svg
  width="24"
  height="24"
  viewBox="0 0 24 24"
  xmlns="http://www.w3.org/2000/svg"
>
  <path
    fill-rule="evenodd"
    clip-rule="evenodd"
    d="M5.5 4a2.5 2.5 0 1 0 .266 4.986c.6-.745 1.33-1.38 2.158-1.871A2.5 2.5 0 0 0 5.5 4zm4.493 2.254a4.5 4.5 0 1 0-5.376 4.66 8 8 0 1 0 14.765 0A4.502 4.502 0 0 0 18.5 2a4.5 4.5 0 0 0-4.493 4.254A8.012 8.012 0 0 0 12 6c-.692 0-1.365.088-2.007.254zm6.083.86a8.034 8.034 0 0 1 2.158 1.872 2.5 2.5 0 1 0-2.158-1.871zM12 8a5.97 5.97 0 0 0-2.784.683 6.032 6.032 0 0 0-2.082 1.806A6 6 0 1 0 12 8z"
  />
</svg>
