<svg
  width="24"
  height="24"
  viewBox="0 0 24 24"
  xmlns="http://www.w3.org/2000/svg"
>
  <path
    fill-rule="evenodd"
    clip-rule="evenodd"
    d="M4 5a1 1 0 0 1 1-1h2a1 1 0 0 1 0 2H5a1 1 0 0 1-1-1zm6 0a1 1 0 0 1 1-1h10a1 1 0 1 1 0 2H11a1 1 0 0 1-1-1zm-8 5a1 1 0 0 1 1-1h3a1 1 0 0 1 0 2H3a1 1 0 0 1-1-1zm7 0a1 1 0 0 1 1-1h1a1 1 0 1 1 0 2h-1a1 1 0 0 1-1-1zm5 0a1 1 0 0 1 1-1h4a1 1 0 1 1 0 2h-4a1 1 0 0 1-1-1zM4 15a1 1 0 0 1 1-1h4a1 1 0 1 1 0 2H5a1 1 0 0 1-1-1zm8 0a1 1 0 0 1 1-1h1a1 1 0 1 1 0 2h-1a1 1 0 0 1-1-1zm5 0a1 1 0 0 1 1-1h3a1 1 0 1 1 0 2h-3a1 1 0 0 1-1-1zM2 20a1 1 0 0 1 1-1h10a1 1 0 1 1 0 2H3a1 1 0 0 1-1-1zm14 0a1 1 0 0 1 1-1h2a1 1 0 1 1 0 2h-2a1 1 0 0 1-1-1z"
  />
</svg>
