<svg
  width="24"
  height="24"
  viewBox="0 0 24 24"
  xmlns="http://www.w3.org/2000/svg"
>
  <path d="M13.104 2c-.756.93-2.035 1.918-.64 4.012.465.523.698 1.627.64 1.976 0 0 2.094-1.22.814-3.43-.755-1.162-1.105-2.151-.814-2.558zM10.78 4.152c-.523.639-1.337 1.279-.407 2.732.291.291.407 1.047.407 1.28 0 0 1.394-.816.523-2.327-.524-.756-.755-1.453-.523-1.685zm-4.245 5a.583.583 0 0 0-.58.581c0 1.977.29 8.78 3.197 12.094a.53.53 0 0 0 .407.173h4.884a.528.528 0 0 0 .407-.173c2.907-3.257 3.198-10.059 3.198-12.094a.583.583 0 0 0-.582-.582H6.534zm1.686 1.802h7.675c.29 0 .58.232.58.581 0 1.627-.29 6.22-2.266 8.605-.175.117-.291.173-.466.173h-3.43a.527.527 0 0 1-.406-.173c-1.977-2.325-2.21-6.978-2.269-8.605 0-.292.234-.58.582-.58zm7.327 3.954s-.06.522-1.455 1.045c-1.919.698-5.29.234-5.29.234.291 1.22.756 2.383 1.453 3.255.058.117.233.175.35.175h2.907c.116 0 .232-.059.348-.175.988-1.162 1.454-2.965 1.687-4.534z" />
</svg>
