<svg
  width="24"
  height="24"
  viewBox="0 0 24 24"
  xmlns="http://www.w3.org/2000/svg"
>
  <path
    fill-rule="evenodd"
    clip-rule="evenodd"
    d="M10.158 4.652a6.02 6.02 0 0 1 4.05-.503c1.367.31 2.598 1.088 3.552 2.2a1 1 0 1 1-1.518 1.302c-.701-.817-1.567-1.345-2.476-1.552a4.02 4.02 0 0 0-2.714.342c-.87.435-1.641 1.181-2.195 2.172-.07.126-.137.255-.199.387H13a1 1 0 1 1 0 2H8.07a7.3 7.3 0 0 0 0 2H13a1 1 0 1 1 0 2H8.658c.062.132.129.26.2.387.553.99 1.324 1.737 2.194 2.172a4.02 4.02 0 0 0 2.714.342c.91-.207 1.775-.735 2.476-1.552a1 1 0 1 1 1.518 1.302c-.954 1.112-2.185 1.89-3.551 2.2a6.02 6.02 0 0 1-4.051-.503c-1.266-.633-2.318-1.681-3.047-2.986A8.527 8.527 0 0 1 6.5 15H5a1 1 0 1 1 0-2h1.055a9.31 9.31 0 0 1 0-2H5a1 1 0 1 1 0-2h1.502c.164-.473.367-.929.609-1.362.729-1.304 1.78-2.353 3.047-2.986z"
  />
</svg>
