<svg
  width="24"
  height="24"
  viewBox="0 0 24 24"
  xmlns="http://www.w3.org/2000/svg"
>
  <path
    fill-rule="evenodd"
    clip-rule="evenodd"
    d="M14.138 6.248A3 3 0 0 0 10 9.003V12h4.9v2H10v2.5a.997.997 0 0 1-.006.112 4 4 0 0 1-.104.561 7.002 7.002 0 0 1 2.436.382c.031.01.061.023.09.036a5 5 0 0 0 4.167 0l.91-.417.833 1.819-.91.416a7 7 0 0 1-5.784.022 4.999 4.999 0 0 0-3.454.101c-.265.17-.55.309-.85.413a1 1 0 0 1-.835-1.807 7.33 7.33 0 0 1 .722-.37A2.003 2.003 0 0 0 8 16.438V14H5.9v-2H8V8.994a5 5 0 0 1 9.313-2.5l.506.863-1.726 1.012-.505-.863a3 3 0 0 0-1.45-1.258z"
  />
</svg>
