<svg
  width="24"
  height="24"
  viewBox="0 0 24 24"
  xmlns="http://www.w3.org/2000/svg"
>
  <path
    fill-rule="evenodd"
    clip-rule="evenodd"
    d="M10.236 4.649a6.212 6.212 0 0 1 4.108-.5c1.385.308 2.636 1.081 3.609 2.193l.658.752-1.505 1.317-.659-.753c-.715-.817-1.602-1.349-2.538-1.558a4.212 4.212 0 0 0-2.792.345c-.893.437-1.68 1.186-2.244 2.176a6.81 6.81 0 0 0-.2.379H14v2H8.071a7.142 7.142 0 0 0 0 2H14v2H8.673c.063.13.13.256.2.38.563.99 1.35 1.738 2.244 2.175.89.437 1.858.553 2.792.345.936-.209 1.823-.74 2.538-1.558l.659-.753 1.505 1.317-.658.752c-.973 1.112-2.224 1.885-3.61 2.194a6.211 6.211 0 0 1-4.107-.5c-1.285-.63-2.357-1.677-3.101-2.983A8.46 8.46 0 0 1 6.51 15H4v-2h2.056a9.151 9.151 0 0 1 0-2H4V9h2.51c.168-.475.377-.934.625-1.369.744-1.306 1.816-2.352 3.101-2.982z"
  />
</svg>
