<svg
  width="24"
  height="24"
  viewBox="0 0 24 24"
  xmlns="http://www.w3.org/2000/svg"
>
  <path
    fill-rule="evenodd"
    clip-rule="evenodd"
    d="M14.16 6.223a2.93 2.93 0 0 0-1.886-.121c-.625.169-1.178.54-1.576 1.06a3.015 3.015 0 0 0-.619 1.811v2.99h3.852a1 1 0 0 1 0 2h-3.852v2.495a.999.999 0 0 1-.006.111c-.021.19-.056.377-.103.56a6.896 6.896 0 0 1 2.408.382c.031.01.061.023.091.037a4.898 4.898 0 0 0 4.111 0 1 1 0 1 1 .84 1.815 6.899 6.899 0 0 1-5.742.022 4.893 4.893 0 0 0-3.405.1 3.96 3.96 0 0 1-.844.414 1 1 0 0 1-.84-1.805c.231-.137.47-.26.714-.37a2.009 2.009 0 0 0 .776-1.328v-2.432H7a1 1 0 1 1 0-2h1.08v-3a5.016 5.016 0 0 1 1.03-3.018 4.959 4.959 0 0 1 2.641-1.775 4.93 4.93 0 0 1 3.173.203A4.97 4.97 0 0 1 17.32 6.47a1 1 0 0 1-1.729 1.006 2.97 2.97 0 0 0-1.431-1.253z"
  />
</svg>
