<svg
  width="24"
  height="24"
  viewBox="0 0 24 24"
  xmlns="http://www.w3.org/2000/svg"
>
  <path
    fill-rule="evenodd"
    clip-rule="evenodd"
    d="M16 0a1 1 0 0 1 1 1v1h1a1 1 0 1 1 0 2h-1v1a1 1 0 1 1-2 0V4h-1a1 1 0 1 1 0-2h1V1a1 1 0 0 1 1-1zm-5.116 2.404a1 1 0 0 1 .046 1.125 6.636 6.636 0 0 0 1.119 8.363 6.494 6.494 0 0 0 8.346.403 1 1 0 0 1 1.596.927 10.144 10.144 0 0 1-2.092 4.959 10.043 10.043 0 0 1-4.329 3.173 9.976 9.976 0 0 1-5.336.481 10.011 10.011 0 0 1-4.82-2.349 10.114 10.114 0 0 1-2.934-4.507 10.174 10.174 0 0 1-.218-5.382 10.128 10.128 0 0 1 2.56-4.731A10.025 10.025 0 0 1 9.437 2.13c.041-.011.083-.02.125-.026l.258-.07a1 1 0 0 1 1.064.37zM8.237 4.749c-.727.393-1.393.899-1.972 1.502A8.128 8.128 0 0 0 4.21 10.05a8.174 8.174 0 0 0 .174 4.323 8.114 8.114 0 0 0 2.354 3.616 8.012 8.012 0 0 0 3.857 1.88c1.43.264 2.905.13 4.267-.384a8.043 8.043 0 0 0 3.466-2.542 8.12 8.12 0 0 0 1.099-1.854c-1.07.4-2.217.581-3.375.526a8.504 8.504 0 0 1-5.362-2.253 8.609 8.609 0 0 1-2.685-5.18 8.645 8.645 0 0 1 .23-3.432zM21 5a1 1 0 0 1 1 1v1h1a1 1 0 1 1 0 2h-1v1a1 1 0 1 1-2 0V9h-1a1 1 0 1 1 0-2h1V6a1 1 0 0 1 1-1z"
  />
</svg>
