<svg
  width="24"
  height="24"
  viewBox="0 0 24 24"
  xmlns="http://www.w3.org/2000/svg"
>
  <path
    fill-rule="evenodd"
    clip-rule="evenodd"
    d="M11.49 2.404a1 1 0 0 1 .047 1.125 6.212 6.212 0 0 0 1.047 7.829 6.077 6.077 0 0 0 7.81.377 1 1 0 0 1 1.597.927 9.636 9.636 0 0 1-1.987 4.71 9.559 9.559 0 0 1-2.478 2.21 1 1 0 1 1-1.052-1.702 7.559 7.559 0 0 0 2.939-3.367 8.065 8.065 0 0 1-3.087.455 8.087 8.087 0 0 1-5.1-2.142 8.186 8.186 0 0 1-2.553-4.925 8.22 8.22 0 0 1 .186-3.138A7.545 7.545 0 0 0 7.123 6.11 7.617 7.617 0 0 0 5.3 9.277a1 1 0 1 1-1.921-.554 9.617 9.617 0 0 1 2.303-4 9.524 9.524 0 0 1 4.384-2.598c.04-.011.08-.02.121-.025l.241-.065a1 1 0 0 1 1.064.369zM4 13a1 1 0 0 1 1-1h4a1 1 0 1 1 0 2H5a1 1 0 0 1-1-1zm-2 4a1 1 0 0 1 1-1h8a1 1 0 1 1 0 2H3a1 1 0 0 1-1-1zm5 4a1 1 0 0 1 1-1h5a1 1 0 1 1 0 2H8a1 1 0 0 1-1-1z"
  />
</svg>
