<svg
  width="24"
  height="24"
  viewBox="0 0 24 24"
  xmlns="http://www.w3.org/2000/svg"
  fill="none"
  stroke="currentColor"
  stroke-width="2"
  stroke-linecap="round"
  stroke-linejoin="round"
>
  <path d="M22 17.5a3.5 3.5 0 1 1-7 0 3.5 3.5 0 0 1 7 0z" />
  <path d="M9 17.5a3.5 3.5 0 1 1-7 0 3.5 3.5 0 0 1 7 0z" />
  <path d="M5 14.035V11m-2 0h6l2.5-2H16" />
  <path d="M13.5 9L12 15l-3.205 1.317" />
  <path d="M18 14.035L15.594 8l-.398-1L14 4h-2" />
  <path d="M15.594 8H19V7h-3.804" />
</svg>
