<svg width="24" height="24" viewBox="0 0 24 24" fill="none" xmlns="http://www.w3.org/2000/svg">
<path fill-rule="evenodd" clip-rule="evenodd" d="M12 4C8.68629 4 6 6.68629 6 10V14C6 17.3137 8.68629 20 12 20C15.3137 20 18 17.3137 18 14V10C18 6.68629 15.3137 4 12 4ZM4 10C4 5.58172 7.58172 2 12 2C16.4183 2 20 5.58172 20 10V14C20 18.4183 16.4183 22 12 22C7.58172 22 4 18.4183 4 14V10ZM12 6C12.5523 6 13 6.44772 13 7V10C13 10.5523 12.5523 11 12 11C11.4477 11 11 10.5523 11 10V7C11 6.44772 11.4477 6 12 6Z" fill="black"/>
</svg>
