<svg
  width="24"
  height="24"
  viewBox="0 0 24 24"
  xmlns="http://www.w3.org/2000/svg"
>
  <path d="M2 22V2h20v20H2zM15.658 7.633l-.191.025-.184.034-.175.05-.166.058-.167.058-.158.075-.15.084-.142.091-.142.1-.133.109-.125.116-.117.125-.108.134-.108.141-.092.142-.092.158-.083.159-.075.175-.067-.184-.083-.175-.083-.166-.1-.159-.109-.141-.116-.134-.125-.125-.125-.116-.142-.109-.142-.091L12 7.975l-.15-.075-.167-.067-.166-.058-.167-.05-.175-.042-.183-.033-.184-.017-.183-.016h-.358l-.175.016-.167.017-.167.025-.158.042-.15.041-.15.05-.15.059-.133.066L8.875 8l-.125.083-.125.084-.117.091-.116.1-.109.109-.1.108-.1.117-.091.125-.084.133-.075.133V7.792H4.208v1.85H5.35v4.883H4.208v1.883h5.275v-1.883h-1.65V11.35l.009-.175.025-.167.025-.158.033-.15.042-.15.05-.133.058-.134.067-.116.075-.117.091-.1.092-.092.1-.083.117-.075.125-.067.125-.05.141-.041.159-.034.158-.016.175-.009h.142l.133.017.133.025.117.033.117.042.108.05.1.058.092.075.083.084.083.091.067.1.067.117.05.133.05.134.041.158.034.158.025.175.025.192.008.208v5.075h3.583v-1.883h-1.141v-3l.008-.175.008-.175.017-.167.033-.158.034-.15.041-.15.05-.133.059-.134.066-.116.075-.117.084-.1.1-.092.1-.083.116-.075.117-.067.133-.05.142-.041.158-.034.159-.016.175-.009h.141l.134.017.133.025.117.033.116.042.109.05.1.058.091.075.084.084.075.091.075.1.066.117.05.133.05.134.042.158.033.158.025.175.025.192.009.208v5.075h3.583v-1.883h-1.142v-3.933l-.008-.3-.033-.275-.05-.267-.067-.25-.083-.233-.1-.217-.117-.2-.133-.192-.15-.166-.15-.159-.175-.133-.175-.125-.192-.108-.2-.1-.208-.075-.209-.067-.225-.05-.216-.033-.234-.025h-.433l-.192.016z" />
</svg>
