<svg width="24" height="24" viewBox="0 0 24 24" fill="none" xmlns="http://www.w3.org/2000/svg">
<g clip-path="url(#clip0)">
<path fill-rule="evenodd" clip-rule="evenodd" d="M0.292893 0.292893C0.683417 -0.0976311 1.31658 -0.0976311 1.70711 0.292893L23.7071 22.2929C24.0976 22.6834 24.0976 23.3166 23.7071 23.7071C23.3166 24.0976 22.6834 24.0976 22.2929 23.7071L14 15.4142V17C14 19.2091 12.2091 21 10 21C7.79086 21 6 19.2091 6 17C6 14.7909 7.79086 13 10 13C10.7286 13 11.4117 13.1948 12 13.5351V13.4142L0.292893 1.70711C-0.0976311 1.31658 -0.0976311 0.683417 0.292893 0.292893ZM12 17C12 15.8954 11.1046 15 10 15C8.89543 15 8 15.8954 8 17C8 18.1046 8.89543 19 10 19C11.1046 19 12 18.1046 12 17ZM12 4C12 3.44772 12.4477 3 13 3H19C19.5523 3 20 3.44772 20 4C20 4.55228 19.5523 5 19 5H14V8C14 8.55228 13.5523 9 13 9C12.4477 9 12 8.55228 12 8V4Z" fill="black"/>
</g>
<defs>
<clipPath id="clip0">
<rect width="24" height="24" fill="white"/>
</clipPath>
</defs>
</svg>
