<svg
  width="24"
  height="24"
  viewBox="0 0 24 24"
  xmlns="http://www.w3.org/2000/svg"
>
  <path d="M3.475 3.467A4.733 4.733 0 0 1 6.833 2h10.5c1.142 0 2.209.5 3.192 1.467A4.525 4.525 0 0 1 22 6.75v10.642c0 1.116-.467 2.15-1.4 3.108a4.807 4.807 0 0 1-3.392 1.5H6.892a5.25 5.25 0 0 1-3.417-1.308c-.9-.817-1.392-2-1.475-3.584V6.775a4.342 4.342 0 0 1 1.475-3.308zm5.208 6.916l6.609 8.384h1.766c.409-.05.734-.167.975-.359.25-.191.417-.466.534-.833v-4.117c.066-.791.558-1.283 1.475-1.458-.917-.333-1.409-.85-1.475-1.55V6.517c-.1-.367-.275-.667-.534-.892a1.525 1.525 0 0 0-.908-.392h-1.792v8.5l-6.65-8.508H6.825c-.467.083-.808.25-1.042.5-.233.25-.383.65-.45 1.192v4.041c-.291.575-.75.917-1.375 1.042.709.133 1.167.508 1.375 1.133v3.975c.017.459.167.834.45 1.142.275.3.584.442.917.417h1.967l.016-8.284z" />
</svg>
