<svg width="24" height="24" viewBox="0 0 24 24" fill="none" xmlns="http://www.w3.org/2000/svg">
<path d="M2.99867 3L9.38467 20.685C9.4276 20.7793 9.49677 20.8593 9.58392 20.9154C9.67107 20.9715 9.77253 21.0013 9.87617 21.0013C9.97981 21.0013 10.0813 20.9715 10.1684 20.9154C10.2556 20.8593 10.3247 20.7793 10.3677 20.685L13.8057 13.807L20.6837 10.369C20.778 10.3261 20.858 10.2569 20.9141 10.1697C20.9702 10.0826 21 9.98114 21 9.8775C21 9.77386 20.9702 9.6724 20.9141 9.58525C20.858 9.4981 20.778 9.42893 20.6837 9.386L2.99867 3Z" stroke="white" stroke-width="2" stroke-linecap="round" stroke-linejoin="round"/>
</svg>
