<svg width="24" height="24" viewBox="0 0 24 24" fill="none" xmlns="http://www.w3.org/2000/svg">
<path d="M21 3L14.614 20.685C14.5711 20.7793 14.5019 20.8593 14.4147 20.9154C14.3276 20.9715 14.2261 21.0013 14.1225 21.0013C14.0188 21.0013 13.9174 20.9715 13.8302 20.9154C13.7431 20.8593 13.6739 20.7793 13.631 20.685L10.193 13.807L3.31499 10.369C3.22065 10.3261 3.14067 10.2569 3.08457 10.1697C3.02848 10.0826 2.99866 9.98114 2.99866 9.8775C2.99866 9.77386 3.02848 9.6724 3.08457 9.58525C3.14067 9.4981 3.22065 9.42893 3.31499 9.386L21 3Z" stroke="white" stroke-width="2" stroke-linecap="round" stroke-linejoin="round"/>
</svg>
