<svg
  width="24"
  height="24"
  viewBox="0 0 24 24"
  xmlns="http://www.w3.org/2000/svg"
>
  <path d="M13.776 2.04c-.144 0-.278.03-.403.072.264.175.409.408.48.671.006.036.016.062.021.098.006.03.01.062.011.093.02.454-.12.512-.217.78-.15.346-.108.718.072 1.017.017.04.037.078.062.114-.196-1.307.894-1.502 1.095-1.91.015-.357-.279-.595-.511-.76a1.142 1.142 0 0 0-.61-.175zm1.642.293c-.02.12-.005.089-.01.15-.005.042-.005.094-.01.135-.01.041-.02.083-.036.124a.865.865 0 0 1-.042.124l-.056.118c-.016.021-.026.042-.041.063l-.031.046c-.025.035-.05.07-.078.103-.03.032-.057.067-.093.093v.005c-.031.026-.062.057-.099.084-.108.082-.231.144-.345.221-.036.025-.073.047-.104.078a.755.755 0 0 0-.098.082c-.036.031-.062.062-.092.099-.026.03-.057.066-.078.103-.026.035-.05.07-.072.108-.021.042-.036.078-.057.119-.016.041-.031.077-.042.119a1.65 1.65 0 0 0-.036.129c-.005.02-.005.047-.01.067-.005.02-.005.041-.01.062 0 .042-.005.088-.005.13 0 .03 0 .06.004.092 0 .041.005.083.016.129.005.042.015.083.025.125.017.04.027.082.042.123.01.025.026.052.037.073l-1.189-.46c-.2-.057-.397-.109-.599-.155l-.325-.078a9.644 9.644 0 0 0-.94-.139c-.01 0-.016-.005-.026-.005a9.236 9.236 0 0 0-1.601-.02 9.87 9.87 0 0 0-1.643.258l-.232.061c-.077.031-.15.067-.222.099l-.17.077c-.01.005-.02.005-.026.01-.052.026-.098.047-.145.073-.067.03-.133.062-.196.098-.036.015-.072.036-.104.052a.466.466 0 0 1-.046.025c-.046.026-.093.052-.135.078a1.3 1.3 0 0 0-.123.077c-.037.025-.072.046-.103.072-.005.006-.011.006-.016.01-.031.022-.067.048-.098.073l-.01.01-.078.062c-.01.006-.02.016-.03.02-.027.022-.052.048-.078.068-.005.01-.016.016-.021.02-.031.032-.062.058-.093.089-.005 0-.005.005-.01.01a1.453 1.453 0 0 0-.093.088c-.006.005-.006.01-.01.01a1.209 1.209 0 0 0-.078.083c-.01.01-.025.02-.036.03a1.144 1.144 0 0 1-.088.094c-.005.01-.015.016-.02.025-.042.041-.078.083-.12.125l-.015.015c-.083.088-.17.176-.264.253-.092.083-.19.16-.289.228-.197.14-.41.258-.635.35a3.596 3.596 0 0 1-.336.125c-.216.046-.439.134-.63.15-.041 0-.087.01-.129.015l-.13.03-.123.047c-.042.016-.083.037-.124.057-.036.026-.077.046-.114.072a.843.843 0 0 0-.103.089.836.836 0 0 0-.103.092c-.031.036-.062.067-.088.103-.026.042-.057.078-.077.12a.91.91 0 0 0-.073.118c-.02.047-.042.088-.057.134l-.046.134c-.01.042-.021.084-.025.125 0 .004-.006.01-.006.015-.01.047-.01.109-.016.14-.005.036-.01.066-.01.103 0 .09.02.178.062.258v.005a.94.94 0 0 0 .057.093c.02.031.042.062.067.093.026.026.057.057.088.083.03.03.063.058.098.083.124.108.155.144.315.226.026.016.051.026.083.042.005 0 .01.005.015.005 0 .01 0 .016.005.026.012.085.034.168.067.248.016.031.026.062.041.093.006.01.011.02.017.026.02.041.04.077.06.114l.078.108c.026.03.058.067.089.098.03.031.061.057.098.088 0 0 .005.005.01.005a1.046 1.046 0 0 0 .207.139.864.864 0 0 0 .221.093c.006.005.011.005.021.01l.067.016c-.015.28-.02.542.022.635.045.104.273-.211.5-.573-.03.357-.051.775 0 .899.057.13.366-.274.635-.718 3.663-.847 7.005 1.683 7.355 5.258-.066-.558-.754-.867-1.069-.79-.155.382-.418.872-.841 1.177.035-.341.02-.691-.052-1.033a3.34 3.34 0 0 1-.641 1.302c-.49.036-.98-.202-1.24-.558-.02-.015-.025-.046-.04-.067-.016-.036-.032-.073-.042-.108a.429.429 0 0 1-.031-.109c-.005-.037-.005-.072-.005-.114v-.078a.827.827 0 0 1 .026-.108c.01-.036.02-.072.036-.108.02-.036.036-.073.062-.108.087-.249.087-.45-.073-.569a.589.589 0 0 0-.098-.052c-.02-.004-.046-.014-.067-.02l-.041-.015a.695.695 0 0 0-.109-.026.39.39 0 0 0-.108-.016.844.844 0 0 0-.113-.01c-.026 0-.052.005-.078.005a.4.4 0 0 0-.114.016.88.88 0 0 0-.217.057c-.035.014-.066.03-.103.046-.03.015-.062.036-.098.052-1.204.785-.485 2.623.336 3.156-.31.056-.625.123-.713.19l-.01.01c.222.135.454.249.697.347.33.108.681.206.836.248v.005c.428.088.866.119 1.302.093 2.288-.16 4.163-1.9 4.504-4.194l.031.134c.016.093.036.192.047.29v.004c.01.047.015.093.02.135v.02c.005.047.01.094.01.135.005.057.01.114.01.17v.084c0 .024.006.055.006.081 0 .032-.005.063-.005.093v.073c0 .036-.005.067-.005.103 0 .021 0 .042-.005.067 0 .037-.005.072-.005.114-.005.015-.005.031-.005.046l-.017.12c0 .015 0 .03-.004.046-.006.051-.016.098-.021.15v.01l-.031.145v.015l-.03.139c0 .006-.007.017-.007.02-.01.048-.021.095-.036.14v.016c-.015.052-.03.098-.041.145-.005.005-.005.01-.005.01l-.047.155c-.02.052-.036.098-.057.15-.02.052-.035.103-.056.15-.021.052-.042.097-.062.15h-.006c-.02.046-.041.097-.066.144a.25.25 0 0 1-.016.036c-.005.005-.005.01-.01.016a4.89 4.89 0 0 1-1.452 1.735c-.041.026-.082.057-.124.088-.01.01-.025.015-.036.025a2.15 2.15 0 0 1-.113.078l.015.031h.006l.216-.03h.005a11.148 11.148 0 0 0 .517-.099l.072-.016c.036-.005.072-.015.109-.02.03-.01.061-.017.092-.026a9.982 9.982 0 0 0 1.499-.495 8.271 8.271 0 0 1-3.209 2.618 8.467 8.467 0 0 0 1.762-.305 8.252 8.252 0 0 0 4.88-3.9 8.245 8.245 0 0 1-1.388 3.322c.5-.33.963-.715 1.379-1.147a8.188 8.188 0 0 0 2.175-4.39c.175.817.226 1.658.15 2.489 3.728-5.2.309-10.593-1.122-12.013-.005-.011-.01-.016-.01-.026-.005.005-.005.005-.005.01 0-.005 0-.005-.006-.01 0 .062-.005.123-.01.186a7.07 7.07 0 0 1-.051.346c-.025.113-.057.227-.088.341a4.11 4.11 0 0 1-.125.33 4.392 4.392 0 0 1-.154.315 3.942 3.942 0 0 1-.398.574c-.077.092-.16.175-.243.258a3.31 3.31 0 0 1-.15.129l-.118.103a2.88 2.88 0 0 1-.29.201c-.098.064-.2.122-.304.176-.109.052-.217.098-.325.145-.221.084-.45.146-.682.186-.12.02-.237.03-.352.042a4.1 4.1 0 0 1-.247.01 3.879 3.879 0 0 1-.352-.021 2.613 2.613 0 0 1-.35-.052 2.614 2.614 0 0 1-.346-.087h-.006c.114-.011.227-.021.341-.042.233-.04.461-.103.682-.186.113-.042.222-.093.325-.145.108-.052.207-.108.31-.17.098-.067.196-.134.29-.207.092-.072.18-.15.262-.232a2.79 2.79 0 0 0 .243-.253c.078-.093.15-.186.217-.279l.031-.051c.052-.084.104-.166.15-.249a3.562 3.562 0 0 0 .367-.981c.02-.119.042-.232.052-.346.01-.119.02-.238.02-.351 0-.083-.005-.166-.01-.248a3.748 3.748 0 0 0-.118-.692c-.037-.108-.073-.223-.115-.331a3.677 3.677 0 0 0-.144-.32c-.058-.103-.114-.207-.176-.305a5.713 5.713 0 0 0-.207-.283c-.077-.089-.154-.177-.237-.264a3.217 3.217 0 0 0-.134-.13 9.579 9.579 0 0 0-.719-.505.959.959 0 0 0-.103-.052 2.013 2.013 0 0 0-.49-.217z" />
</svg>
