<svg
  width="24"
  height="24"
  viewBox="0 0 24 24"
  xmlns="http://www.w3.org/2000/svg"
>
  <path d="M16.112 9.1c.095.047.18.112.252.19l1.958-.87-1.827-1.81-.41 2.463.027.026zM12.05 7.454c.095.143.155.307.174.478l2.914 1.235a.87.87 0 0 1 .296-.147l.479-2.958L14.136 4.2 12.05 7.41v.044zm9.944 4.576l-3.123-3.123-2.123.87 5.22 2.218s.044.035.026.035zm-.522.505l-5.011-2.141a.87.87 0 0 1-.583.34l-.54 3.297a.87.87 0 0 1 .253.609l3.027.635 2.775-2.758v-.052l.079.07zm-6.639-2.828L12.11 8.55a1 1 0 0 1-.87.453h-.166l-2.253 3.48 6.02-2.61v.009a.735.735 0 0 1 0-.14.044.044 0 0 0-.008-.034zm3.306 6.09l-2.662-.548a.915.915 0 0 1-.384.287l-.634 3.933 3.698-3.663s-.009.016-.018.016v-.025zm-3.724-.27a.87.87 0 0 1-.513-.591l-4.959-1.019-.07.114 4.499 6.508.269-.27.766-4.725s.025.018.008.01v-.027zm-5.367-2.21l4.898 1.01a.87.87 0 0 1 .687-.435l.53-3.245-.112-.096-6.09 2.61c.032.05.06.102.086.156zm-2.054.818l-.104-.104-2.114.87 1.027 1.018 1.165-1.81.026.026zm1.392.33a1.14 1.14 0 0 1-.844.044l-1.287 1.87 5.638 5.586.991-.983-4.498-6.516zm-.792-2.2a1.43 1.43 0 0 1 .262 0c.095-.012.191-.012.287 0l2.279-3.542a.991.991 0 0 1-.279-.686 1.04 1.04 0 0 1 0-.226l-2.766-1.28L5.15 8.7l2.444 3.567zm.253-6.168l2.697 1.148c.196-.16.443-.245.696-.235.112 0 .224.019.33.052l2.106-3.289-1.74-1.74-4.09 4.011s-.008.043 0 .053zM6.838 12.9c.054-.101.122-.195.2-.278L4.732 9.178 2 11.83l4.837 1.07h.001zm-.218.583l-4.176-.871 1.836 1.862 2.314-.983.026-.008z" />
</svg>
