<svg width="24" height="24" viewBox="0 0 24 24" fill="none" xmlns="http://www.w3.org/2000/svg">
<path fill-rule="evenodd" clip-rule="evenodd" d="M12 4C7.58172 4 4 7.58172 4 12C4 16.4183 7.58172 20 12 20C13.0721 20 14.0935 19.7896 15.0263 19.4081L9 11.086V16.5C9 17.0523 8.55228 17.5 8 17.5C7.44772 17.5 7 17.0523 7 16.5V8C7 7.56648 7.27933 7.18234 7.69173 7.0487C8.10414 6.91506 8.55568 7.06237 8.80994 7.41349L16.7781 18.4171C18.7352 16.9575 20 14.626 20 12C20 7.58172 16.4183 4 12 4ZM2 12C2 6.47715 6.47715 2 12 2C17.5228 2 22 6.47715 22 12C22 15.6891 20.0018 18.9104 17.0335 20.6425C15.5543 21.5057 13.8333 22 12 22C6.47715 22 2 17.5228 2 12ZM16 7C16.5523 7 17 7.44772 17 8V14C17 14.5523 16.5523 15 16 15C15.4477 15 15 14.5523 15 14V8C15 7.44772 15.4477 7 16 7Z" fill="black"/>
</svg>
