<svg
  width="24"
  height="24"
  viewBox="0 0 24 24"
  xmlns="http://www.w3.org/2000/svg"
>
  <path d="M11.998 22c-.267 0-.534-.07-.768-.206l-2.447-1.447c-.365-.205-.186-.277-.066-.32.487-.169.585-.208 1.106-.503.054-.03.126-.019.182.014l1.88 1.116a.242.242 0 0 0 .227 0l7.329-4.23a.23.23 0 0 0 .111-.198V7.767a.236.236 0 0 0-.114-.201l-7.326-4.227a.232.232 0 0 0-.225 0L4.562 7.567a.237.237 0 0 0-.115.2v8.459c0 .08.045.157.115.196l2.008 1.16c1.09.545 1.757-.097 1.757-.742V8.49a.21.21 0 0 1 .213-.212h.93c.115 0 .212.094.212.211v8.351c0 1.454-.792 2.288-2.17 2.288-.424 0-.758 0-1.689-.46L3.9 17.563a1.547 1.547 0 0 1-.768-1.337V7.767c0-.549.294-1.062.768-1.335l7.33-4.235a1.604 1.604 0 0 1 1.54 0l7.327 4.235c.475.274.77.786.77 1.335v8.459c0 .549-.295 1.06-.77 1.337l-7.328 4.231A1.53 1.53 0 0 1 12 22zm5.918-8.34c0-1.582-1.07-2.004-3.323-2.302-2.276-.3-2.507-.456-2.507-.989 0-.44.196-1.027 1.881-1.027 1.506 0 2.061.324 2.29 1.339.02.096.107.166.205.166h.951a.214.214 0 0 0 .21-.23c-.146-1.75-1.308-2.565-3.656-2.565-2.09 0-3.336.882-3.336 2.361 0 1.604 1.24 2.048 3.246 2.246 2.4.235 2.585.586 2.585 1.058 0 .819-.657 1.168-2.201 1.168-1.94 0-2.366-.487-2.51-1.452a.213.213 0 0 0-.21-.179h-.948a.21.21 0 0 0-.211.211c0 1.235.671 2.707 3.879 2.707 2.323 0 3.655-.914 3.655-2.511z" />
</svg>
