<svg width="24" height="24" viewBox="0 0 24 24" fill="none" xmlns="http://www.w3.org/2000/svg">
<path fill-rule="evenodd" clip-rule="evenodd" d="M19 4C17.8954 4 17 4.89543 17 6C17 7.10457 17.8954 8 19 8C20.1046 8 21 7.10457 21 6C21 4.89543 20.1046 4 19 4ZM15 6C15 3.79086 16.7909 2 19 2C21.2091 2 23 3.79086 23 6C23 8.20914 21.2091 10 19 10C16.7909 10 15 8.20914 15 6ZM3 5C3 4.44772 3.44772 4 4 4H12C12.5523 4 13 4.44772 13 5C13 5.55228 12.5523 6 12 6H5V20H19V13C19 12.4477 19.4477 12 20 12C20.5523 12 21 12.4477 21 13V21C21 21.5523 20.5523 22 20 22H4C3.44772 22 3 21.5523 3 21V5Z" fill="black"/>
</svg>
