<svg
  width="24"
  height="24"
  viewBox="0 0 24 24"
  xmlns="http://www.w3.org/2000/svg"
>
  <path d="M13.5 12a1.5 1.5 0 1 1-3 0 1.5 1.5 0 0 1 3 0zm1.227 2.719c-.867.88-1.79 1.704-2.76 2.468a36.751 36.751 0 0 1-2.761-2.469 29.344 29.344 0 0 1-2.468-2.76 29.342 29.342 0 0 1 2.468-2.76c.878-.869 1.8-1.693 2.76-2.468a36.599 36.599 0 0 1 2.761 2.468c.88.867 1.704 1.789 2.468 2.76a24.384 24.384 0 0 1-2.468 2.76zm.837-6.318a34.111 34.111 0 0 0-2.635-2.384c2.467-1.8 4.768-2.886 6.357-2.886a1.574 1.574 0 0 1 1.171.377c.92.92.21 3.555-1.965 6.734h1.38c.428-.66.82-1.345 1.17-2.05 1.172-2.51 1.256-4.433.25-5.479a3.049 3.049 0 0 0-2.048-.71c-2.677 0-6.944 2.51-10.833 6.398a34.092 34.092 0 0 0-2.384 2.635C3.434 7.483 2.556 4.471 3.517 3.51a1.64 1.64 0 0 1 1.172-.377c1.422 0 3.43.878 5.563 2.342V4.137C8.16 2.757 6.195 2.004 4.689 2.004a2.691 2.691 0 0 0-1.966.71c-1.046 1.047-.92 2.97.251 5.48 1.087 2.342 3.053 4.935 5.437 7.361a34.08 34.08 0 0 0 2.635 2.384c-2.425 1.8-4.768 2.886-6.357 2.886a1.576 1.576 0 0 1-1.171-.378c-.92-.92-.21-3.555 1.965-6.734H4.145c-.428.66-.82 1.345-1.17 2.05-1.171 2.51-1.256 4.434-.252 5.48a2.694 2.694 0 0 0 1.966.711c2.677 0 6.943-2.51 10.833-6.397a34.018 34.018 0 0 0 2.384-2.635c2.59 3.553 3.472 6.565 2.51 7.525a1.576 1.576 0 0 1-1.172.376c-1.422 0-3.43-.878-5.563-2.342v1.38c2.134 1.34 4.1 2.135 5.563 2.135a2.691 2.691 0 0 0 1.966-.71c1.046-1.047.92-2.97-.25-5.48-1.047-2.384-3.012-4.977-5.396-7.405z" />
</svg>
