<svg
  width="24"
  height="24"
  viewBox="0 0 24 24"
  xmlns="http://www.w3.org/2000/svg"
>
  <path d="M18.436 18.894l.02-.037a.614.614 0 0 0 .044-.098l.001-.004a.967.967 0 0 0 .045-.506l.001.006a1.496 1.496 0 0 0-.196-.52l.005.007-4.432-7.795-.676-1.183-.673 1.183-4.429 7.795a1.543 1.543 0 0 0-.17.504v.009c-.037.2-.014.407.066.594l-.003-.006c.012.029.026.057.042.084l-.002-.003c.134.23.417.502 1.042.502h8.25c.13 0 .77-.027 1.066-.531zm-5.19-7.764l4.05 7.124H9.2l4.048-7.124zm8.542 6.612L15.941 7.441c-.06-.108-.397-.656-.985-.656-.264 0-.643.113-.952.654l-.756 1.326.673 1.183 1.042-1.844 5.785 10.152h-2.2a.99.99 0 0 1-.05.506l.003-.006a.652.652 0 0 1-.047.105l.002-.004-.02.038c-.295.504-.935.53-1.06.53h3.442c.126 0 .764-.026 1.06-.53.13-.23.225-.614-.09-1.152zM8.085 18.924a.81.81 0 0 1-.037-.076l-.002-.005a1.024 1.024 0 0 1-.07-.594v.006H3.248l7.025-12.361 2.306 4.053.668-1.183-2.01-3.541c-.056-.102-.396-.648-.98-.648-.265 0-.644.114-.953.656L2.19 17.741c-.06.109-.354.677-.062 1.181.133.23.417.502 1.042.502h5.96c-.621 0-.909-.268-1.042-.501h-.002z" />
</svg>
