<svg
  width="24"
  height="24"
  viewBox="0 0 24 24"
  xmlns="http://www.w3.org/2000/svg"
>
  <path d="M12 22C6.486 22 2 17.514 2 12S6.486 2 12 2s10 4.486 10 10-4.486 10-10 10zm0-19.076c-5.004 0-9.075 4.072-9.075 9.076 0 5.004 4.07 9.075 9.075 9.075 5.004 0 9.075-4.07 9.075-9.075 0-5.004-4.07-9.076-9.075-9.076zM7.152 6.992c.293-1.415 1.252-2.691 2.541-3.33-.224.227-.495.402-.703.65a4.058 4.058 0 0 0-1 3.463c.297 1.862 2.047 3.383 3.944 3.357 1.471.066 2.904-.781 3.623-2.057 1.54.053 3.038.848 3.917 2.123.45.666.802 1.447.826 2.26-.285-1.08-1.002-2.039-1.98-2.58a4.077 4.077 0 0 0-3.143-.354c-1.3.374-2.374 1.436-2.744 2.744-.314 1.042-.18 2.19.315 3.144-.688 1.19-1.93 2.04-3.277 2.296-1.037.218-2.126.05-3.091-.386.863.251 1.8.296 2.66-.01a4.095 4.095 0 0 0 2.52-2.445c.463-1.242.287-2.718-.493-3.784a4.098 4.098 0 0 0-2.502-1.64c-.317-.057-.637-.082-.957-.112C7.1 9.305 6.913 8.114 7.168 7l-.016-.01z" />
</svg>
