<svg width="24" height="24" viewBox="0 0 24 24" fill="none" xmlns="http://www.w3.org/2000/svg">
<path fill-rule="evenodd" clip-rule="evenodd" d="M7.29289 2.29289C7.48043 2.10536 7.73478 2 8 2H16C16.2652 2 16.5196 2.10536 16.7071 2.29289L21.7071 7.29289C21.8946 7.48043 22 7.73478 22 8V16C22 16.2652 21.8946 16.5196 21.7071 16.7071L16.7071 21.7071C16.5196 21.8946 16.2652 22 16 22H8C7.73478 22 7.48043 21.8946 7.29289 21.7071L2.29289 16.7071C2.10536 16.5196 2 16.2652 2 16V8C2 7.73478 2.10536 7.48043 2.29289 7.29289L7.29289 2.29289ZM8.41421 4L4 8.41421V15.5858L8.41421 20H15.5858L20 15.5858V8.41421L15.5858 4H8.41421ZM11 12V8C11 7.44772 11.4477 7 12 7C12.5523 7 13 7.44772 13 8V12C13 12.5523 12.5523 13 12 13C11.4477 13 11 12.5523 11 12ZM11 16C11 15.4477 11.4477 15 12 15H12.0095C12.5617 15 13.0095 15.4477 13.0095 16C13.0095 16.5523 12.5617 17 12.0095 17H12C11.4477 17 11 16.5523 11 16Z" fill="black"/>
</svg>
