<svg
  width="24"
  height="24"
  viewBox="0 0 24 24"
  xmlns="http://www.w3.org/2000/svg"
>
  <path
    fill-rule="evenodd"
    clip-rule="evenodd"
    d="M7.293 2.293A1 1 0 0 1 8 2h8a1 1 0 0 1 .707.293l5 5A1 1 0 0 1 22 8v8a1 1 0 0 1-.293.707l-5 5A1 1 0 0 1 16 22H8a1 1 0 0 1-.707-.293l-5-5A1 1 0 0 1 2 16V8a1 1 0 0 1 .293-.707l5-5zM8.414 4L4 8.414v7.172L8.414 20h7.172L20 15.586V8.414L15.586 4H8.414zM11 12V8a1 1 0 1 1 2 0v4a1 1 0 1 1-2 0zm0 4a1 1 0 0 1 1-1h.01a1 1 0 0 1 0 2H12a1 1 0 0 1-1-1z"
  />
</svg>
