<svg
  width="24"
  height="24"
  viewBox="0 0 24 24"
  xmlns="http://www.w3.org/2000/svg"
>
  <path
    fill-rule="evenodd"
    clip-rule="evenodd"
    d="M12 5c-1.437 0-2.84.524-3.971 1.497-1.134.974-1.928 2.341-2.237 3.88a7.246 7.246 0 0 0 .557 4.537c.668 1.396 1.76 2.493 3.08 3.12a1 1 0 0 1 .571.904V20a1 1 0 0 1-1 1H4a1 1 0 1 1 0-2h3.177a8.693 8.693 0 0 1-2.632-3.223 9.246 9.246 0 0 1-.714-5.795c.394-1.959 1.41-3.727 2.894-5.002A8.087 8.087 0 0 1 12 3c1.929 0 3.79.704 5.275 1.98 1.484 1.275 2.5 3.043 2.894 5.002a9.246 9.246 0 0 1-.714 5.795A8.693 8.693 0 0 1 16.823 19H20a1 1 0 1 1 0 2h-5a1 1 0 0 1-1-1v-1.062a1 1 0 0 1 .57-.904c1.322-.627 2.413-1.724 3.08-3.12.669-1.396.867-3 .558-4.538-.31-1.538-1.103-2.905-2.237-3.88A6.087 6.087 0 0 0 12 5z"
  />
</svg>
