<svg
  width="24"
  height="24"
  viewBox="0 0 24 24"
  xmlns="http://www.w3.org/2000/svg"
>
  <path
    fill-rule="evenodd"
    clip-rule="evenodd"
    d="M11.9 3.965a8 8 0 0 0-5.067 1.809 1 1 0 1 1-1.266-1.548 10 10 0 0 1 12.666 0 1 1 0 1 1-1.266 1.548 8 8 0 0 0-5.067-1.81zM3 8a1 1 0 0 1 1 1v.01a1 1 0 0 1-2 0V9a1 1 0 0 1 1-1zm9 2a2 2 0 1 0 0 4 2 2 0 0 0 0-4zm-4 2a4 4 0 1 1 8 0 4 4 0 0 1-8 0zm13-4a1 1 0 0 1 1 1v.01a1 1 0 1 1-2 0V9a1 1 0 0 1 1-1zM2.89 12.006a1 1 0 0 1 1.104.884 8 8 0 0 0 4.444 6.311A1 1 0 0 1 7.562 21a10 10 0 0 1-5.556-7.89 1 1 0 0 1 .884-1.103zm18.22 0a1 1 0 0 1 .884 1.104 10 10 0 0 1-5.556 7.889 1 1 0 0 1-.876-1.798 8 8 0 0 0 4.444-6.311 1 1 0 0 1 1.104-.884zM12 20a1 1 0 0 1 1 1v.01a1 1 0 1 1-2 0V21a1 1 0 0 1 1-1z"
  />
</svg>
