<svg
  width="24"
  height="24"
  viewBox="0 0 24 24"
  xmlns="http://www.w3.org/2000/svg"
>
  <path
    fill-rule="evenodd"
    clip-rule="evenodd"
    d="M11.9 4a8.014 8.014 0 0 0-5.068 1.805 1 1 0 0 1-1.264-1.55 10.014 10.014 0 0 1 12.664 0 1 1 0 0 1-1.264 1.55A8.014 8.014 0 0 0 11.9 4zM3 8.02a1 1 0 0 1 1 1v.01a1 1 0 1 1-2 0v-.01a1 1 0 0 1 1-1zm9 2c-1.107 0-2 .894-2 1.992 0 1.099.893 1.993 2 1.993s2-.894 2-1.993a1.996 1.996 0 0 0-2-1.992zm-4 1.992a3.996 3.996 0 0 1 4-3.992c2.207 0 4 1.785 4 3.992a3.996 3.996 0 0 1-4 3.993c-2.207 0-4-1.785-4-3.992zM21 8.02a1 1 0 0 1 1 1v.01a1 1 0 1 1-2 0v-.01a1 1 0 0 1 1-1zM2.89 12.016a1 1 0 0 1 1.104.884 7.964 7.964 0 0 0 1.41 3.716 7.994 7.994 0 0 0 3.034 2.577 1 1 0 1 1-.875 1.798A9.995 9.995 0 0 1 3.77 17.77a9.964 9.964 0 0 1-1.764-4.649 1 1 0 0 1 .884-1.104zm18.22 0a1 1 0 0 1 .884 1.104 9.964 9.964 0 0 1-1.764 4.65 9.995 9.995 0 0 1-3.793 3.221 1 1 0 0 1-.875-1.798 7.995 7.995 0 0 0 3.034-2.577 7.964 7.964 0 0 0 1.41-3.716 1 1 0 0 1 1.104-.884zM12 19.99a1 1 0 0 1 1 1V21a1 1 0 1 1-2 0v-.01a1 1 0 0 1 1-1z"
  />
</svg>
