<svg
  width="24"
  height="24"
  viewBox="0 0 24 24"
  xmlns="http://www.w3.org/2000/svg"
>
  <path d="M12.49 4.592c.99.059 1.96.32 2.848.766a7.313 7.313 0 0 1 2.255 1.745 7.594 7.594 0 0 1 1.429 2.469c.326.924.456 1.898.386 2.918a6.851 6.851 0 0 1-.255 1.54c-.139.49-.327.966-.561 1.42a16.617 16.617 0 0 1-1.225 2.01 14.67 14.67 0 0 1-1.469 1.764 15.517 15.517 0 0 1-3.571 2.734l-.031.022a.163.163 0 0 1-.091.02.244.244 0 0 1-.133-.082.222.222 0 0 1-.051-.144c0-.024.003-.049.01-.07a.156.156 0 0 1 .03-.052c.232-.328.422-.672.572-1.03a4.52 4.52 0 0 0 .307-1.132.098.098 0 0 0-.032-.07.093.093 0 0 0-.07-.032c-.22.026-.44.044-.663.051a4.109 4.109 0 0 1-.663-.03 7.348 7.348 0 0 1-5.103-2.511 7.574 7.574 0 0 1-1.429-2.47 7.219 7.219 0 0 1-.388-2.918c.028-.53.113-1.043.255-1.54.143-.498.33-.962.563-1.4a16.25 16.25 0 0 1 1.224-2.03c.45-.63.938-1.22 1.468-1.765a15.668 15.668 0 0 1 3.571-2.732l.032-.021a.156.156 0 0 1 .09-.021c.055.013.1.042.133.082a.212.212 0 0 1 .051.145.202.202 0 0 1-.01.07.136.136 0 0 1-.03.05c-.227.322-.42.668-.572 1.031-.151.361-.25.738-.305 1.132 0 .027.01.052.03.072.018.02.045.03.07.03.219-.027.44-.044.663-.05.227-.008.447.002.665.029zm-.672 10.306a2.767 2.767 0 0 0 2.1-.713c.6-.533.925-1.198.98-2a2.798 2.798 0 0 0-.713-2.113 2.745 2.745 0 0 0-2-.968 2.8 2.8 0 0 0-2.112.713 2.75 2.75 0 0 0-.97 2c-.065.771.19 1.535.705 2.112.524.604 1.194.93 2.01.969z" />
</svg>
