<svg width="24" height="24" viewBox="0 0 24 24" fill="none" xmlns="http://www.w3.org/2000/svg">
<path fill-rule="evenodd" clip-rule="evenodd" d="M3 3C3 2.44772 3.44772 2 4 2H20C20.5523 2 21 2.44772 21 3V8C21 8.55228 20.5523 9 20 9H4C3.44772 9 3 8.55228 3 8V3ZM5 4V7H19V4H5ZM5 11C5.55228 11 6 11.4477 6 12H12C12.5523 12 13 12.4477 13 13V16C13.5523 16 14 16.4477 14 17V21C14 21.5523 13.5523 22 13 22H11C10.4477 22 10 21.5523 10 21V17C10 16.4477 10.4477 16 11 16V14H5C4.44772 14 4 13.5523 4 13V12C4 11.4477 4.44772 11 5 11Z" fill="black"/>
</svg>
