<svg
  width="24"
  height="24"
  viewBox="0 0 24 24"
  xmlns="http://www.w3.org/2000/svg"
>
  <path
    fill-rule="evenodd"
    clip-rule="evenodd"
    d="M17.879 4a1.12 1.12 0 0 0-1.121 1.118c0 .616.5 1.118 1.12 1.118A1.12 1.12 0 0 0 19 5.118C19 4.502 18.5 4 17.879 4zm-3.121 1.118A3.12 3.12 0 0 1 17.878 2 3.12 3.12 0 0 1 21 5.118a3.12 3.12 0 0 1-3.121 3.118 3.12 3.12 0 0 1-3.121-3.118zm-4.545.088a1 1 0 0 1 .841.17l4.243 3.177a1 1 0 0 1 .257 1.315l-2.27 3.78h2.474a1 1 0 0 1 .78.374l4.868 6.075-1.561 1.25-4.567-5.7h-3.762a1 1 0 0 1-.858-1.514l2.717-4.52-3.139-2.351-4.751 1.186L5 6.508l5.213-1.302zm-3.904 4.96a6.31 6.31 0 0 1 3.103-.754l1 .017-.035 2-1-.017a4.309 4.309 0 0 0-3.712 2 4.289 4.289 0 0 0 1.217 5.844 4.308 4.308 0 0 0 5.895-1.017l.59-.806 1.614 1.181-.59.807a6.3 6.3 0 0 1-5.624 2.556 6.309 6.309 0 0 1-5.108-3.47 6.287 6.287 0 0 1 2.65-8.34z"
  />
</svg>
