<svg
  width="24"
  height="24"
  viewBox="0 0 24 24"
  xmlns="http://www.w3.org/2000/svg"
>
  <path
    fill-rule="evenodd"
    clip-rule="evenodd"
    d="M17 5a1 1 0 1 0 0 2 1 1 0 0 0 0-2zm-3 1a3 3 0 1 1 6 0 3 3 0 0 1-6 0zm-4.243.03a1 1 0 0 1 .843.17l4 3a1 1 0 0 1 .258 1.315L12.765 14H15a1 1 0 0 1 .78.375l4 5a1 1 0 1 1-1.56 1.25L14.52 16H11a1 1 0 0 1-.857-1.514l2.535-4.227-2.897-2.173-3.538.884a1 1 0 0 1-.486-1.94l4-1zM9 12a4 4 0 1 0 3.2 6.4 1 1 0 1 1 1.6 1.2A6 6 0 1 1 9 10a1 1 0 1 1 0 2z"
  />
</svg>
