<svg
  width="24"
  height="24"
  viewBox="0 0 24 24"
  xmlns="http://www.w3.org/2000/svg"
>
  <path
    fill-rule="evenodd"
    clip-rule="evenodd"
    d="M4.222 4.222A11 11 0 0 1 23 12a1 1 0 0 1-.293.707L12 23.414 1.293 12.707A1 1 0 0 1 1 12a11 11 0 0 1 3.222-7.778zM3.04 11.626C3.232 10.745 4.087 10 5.25 10c1.316 0 2.25.968 2.25 2a1 1 0 0 0 .056.33l2.053 5.864-6.569-6.568zm11.352 6.568l6.567-6.567C20.766 10.745 19.906 10 18.75 10c-1.324 0-2.25.966-2.25 2a.999.999 0 0 1-.056.33l-2.052 5.864zm1.08-8.746C16.264 8.552 17.458 8 18.75 8c.494 0 .974.081 1.424.232A8.997 8.997 0 0 0 12 3a9 9 0 0 0-8.173 5.23A4.49 4.49 0 0 1 5.25 8c1.286 0 2.483.553 3.276 1.45C9.378 8.543 10.662 8 12 8c1.337 0 2.62.542 3.472 1.448zm-5.964 2.404C9.6 10.93 10.548 10 12 10c1.451 0 2.4.93 2.492 1.852L12 18.972l-2.492-7.12z"
  />
</svg>
