<svg width="24" height="24" viewBox="0 0 24 24" fill="none" xmlns="http://www.w3.org/2000/svg">
<path fill-rule="evenodd" clip-rule="evenodd" d="M7.65305 3.24271C8.0713 3.60339 8.11797 4.23483 7.7573 4.65308C5.99593 6.6956 5.02698 9.30293 5.02698 12C5.02698 14.6971 5.99593 17.3044 7.7573 19.347C8.11797 19.7652 8.0713 20.3966 7.65305 20.7573C7.2348 21.118 6.60336 21.0713 6.24268 20.6531C4.16819 18.2474 3.02698 15.1766 3.02698 12C3.02698 8.82345 4.16819 5.75259 6.24268 3.34696C6.60336 2.92871 7.2348 2.88204 7.65305 3.24271ZM16.3469 3.24271C16.7652 2.88204 17.3966 2.92871 17.7573 3.34696C19.8318 5.75259 20.973 8.82345 20.973 12C20.973 15.1766 19.8318 18.2474 17.7573 20.6531C17.3966 21.0713 16.7652 21.118 16.3469 20.7573C15.9287 20.3966 15.882 19.7652 16.2427 19.347C18.004 17.3044 18.973 14.6971 18.973 12C18.973 9.30293 18.004 6.6956 16.2427 4.65308C15.882 4.23483 15.9287 3.60339 16.3469 3.24271Z" fill="black"/>
</svg>
