<svg
  width="24"
  height="24"
  viewBox="0 0 24 24"
  xmlns="http://www.w3.org/2000/svg"
  fill="none"
  stroke="currentColor"
  stroke-width="2"
  stroke-linecap="round"
  stroke-linejoin="round"
>
  <path d="M7 9a2.5 2.5 0 1 0 0-5 2.5 2.5 0 0 0 0 5zm0 2a4.5 4.5 0 1 1 0-9.002A4.5 4.5 0 0 1 7 11zm10.5 2a2 2 0 1 0 0-4 2 2 0 0 0 0 4zm0 2a4 4 0 1 1 0-8 4 4 0 0 1 0 8zm2.5 6v-.5a2.5 2.5 0 0 0-5 0v.5h-2v-.5a4.501 4.501 0 0 1 8.657-1.722c.227.546.343 1.131.343 1.722v.5h-2zm-10 0v-4a3 3 0 0 0-6 0v4H2v-4a5 5 0 1 1 10 0v4h-2z" />
  <circle cx="17.5" cy="11" r="3" />
  <path d="M14 21v-.5a3.5 3.5 0 1 1 7 0v.5" />
  <circle cx="7" cy="6.5" r="3.5" />
  <path d="M11 21v-4a4 4 0 0 0-8 0v4" />
</svg>
