<svg
  width="24"
  height="24"
  viewBox="0 0 24 24"
  xmlns="http://www.w3.org/2000/svg"
>
  <path
    fill-rule="evenodd"
    clip-rule="evenodd"
    d="M5.603 2.61C5.931 2.28 6.423 2 7 2h5.5c1.772 0 3.296.58 4.377 1.683.766.781 1.263 1.778 1.486 2.906C20.19 7.848 21 9.911 21 12.05c0 1.602-.796 2.993-1.905 3.96-1.107.963-2.586 1.565-4.095 1.565h-1.752l-.461 2.784A2.007 2.007 0 0 1 10.791 22H8.107a1.497 1.497 0 0 1-1.472-1.137 1.506 1.506 0 0 1-.022-.629l.02-.145H5c-.577 0-1.07-.28-1.397-.609-.327-.33-.603-.822-.603-1.396a1 1 0 0 1 .01-.141L5.002 3.921c.025-.538.29-.999.601-1.312zM8.666 20l.086-.606a.99.99 0 0 0 .02-.073l1.2-5.028a.994.994 0 0 0 .015-.068.93.93 0 0 1 .042-.17H12.5c1.577 0 3.07-.782 4.147-1.865.763-.768 1.374-1.742 1.666-2.807.455.738.687 1.65.687 2.667 0 .912-.454 1.784-1.22 2.452-.768.67-1.789 1.073-2.78 1.073h-2.6a1 1 0 0 0-.986.837L10.819 20H8.665zm-1.655-1.91l1.009-4.23c.07-.4.225-.846.558-1.206.372-.403.874-.598 1.422-.598h2.5c.923 0 1.93-.474 2.728-1.277.798-.801 1.272-1.817 1.272-2.751 0-1.297-.405-2.285-1.052-2.945C14.804 4.426 13.828 4 12.5 4H7.044A.182.182 0 0 0 7 4.047a1.001 1.001 0 0 1-.009.1L5.013 18.06a.177.177 0 0 0 .03.028h1.968z"
  />
</svg>
