<svg
  width="24"
  height="24"
  viewBox="0 0 24 24"
  xmlns="http://www.w3.org/2000/svg"
  fill="none"
  stroke="currentColor"
  stroke-width="2"
  stroke-linecap="round"
  stroke-linejoin="round"
>
  <path d="M12 7a3 3 0 1 0 0-6 3 3 0 0 0 0 6z" />
  <path d="M14.562 12.629l3.421 2.678a1.178 1.178 0 0 0 1.671 0 1.193 1.193 0 0 0 0-1.682L15.755 8.58A1.962 1.962 0 0 0 14.363 8H9.637a1.952 1.952 0 0 0-1.392.58l-3.899 5.045a1.19 1.19 0 0 0-.256 1.296 1.19 1.19 0 0 0 .64.644 1.174 1.174 0 0 0 1.287-.258l3.42-2.678-2.73 8.68a1.196 1.196 0 0 0 .572 1.58 1.175 1.175 0 0 0 1.57-.575L12 17.322l3.151 4.992a1.174 1.174 0 0 0 1.569.573 1.196 1.196 0 0 0 .573-1.578l-2.73-8.68z" />
</svg>
