<svg width="24" height="24" viewBox="0 0 24 24" fill="none" xmlns="http://www.w3.org/2000/svg">
<path d="M12 7C13.6569 7 15 5.65685 15 4C15 2.34315 13.6569 1 12 1C10.3431 1 9 2.34315 9 4C9 5.65685 10.3431 7 12 7Z" stroke="#1E293B" stroke-width="2" stroke-linecap="round" stroke-linejoin="round"/>
<path d="M14.5621 12.6289L17.9831 15.3068C18.2047 15.5298 18.5052 15.655 18.8185 15.655C19.1319 15.655 19.4324 15.5298 19.654 15.3068C19.8755 15.0838 20 14.7813 20 14.466C20 14.1506 19.8755 13.8482 19.654 13.6252L15.7553 8.58045C15.5727 8.39615 15.3556 8.24999 15.1167 8.15038C14.8777 8.05077 14.6216 7.99966 14.3629 8H9.63706C9.37843 7.99966 9.12227 8.05077 8.88332 8.15038C8.64437 8.24999 8.42734 8.39615 8.24469 8.58045L4.34604 13.6252C4.23633 13.7356 4.14931 13.8667 4.08993 14.0109C4.03056 14.1552 4 14.3098 4 14.466C4 14.6221 4.03056 14.7768 4.08993 14.921C4.14931 15.0653 4.23633 15.1964 4.34604 15.3068C4.45575 15.4172 4.586 15.5048 4.72934 15.5645C4.87268 15.6243 5.02632 15.655 5.18147 15.655C5.33662 15.655 5.49025 15.6243 5.6336 15.5645C5.77694 15.5048 5.90718 15.4172 6.01689 15.3068L9.43789 12.6289L6.70736 21.3084C6.57494 21.5942 6.56075 21.9213 6.66792 22.2176C6.77509 22.514 6.99484 22.7553 7.27882 22.8886C7.56281 23.0219 7.88777 23.0361 8.18222 22.9283C8.47667 22.8204 8.71648 22.5993 8.84891 22.3135L12 17.3223L15.1511 22.3135C15.2839 22.5986 15.5237 22.8191 15.8179 22.9265C16.1121 23.0339 16.4365 23.0195 16.7201 22.8864C17.0038 22.7533 17.2233 22.5124 17.3306 22.2166C17.438 21.9207 17.4243 21.5941 17.2926 21.3084L14.5621 12.6289Z" stroke="#1E293B" stroke-width="2" stroke-linecap="round" stroke-linejoin="round"/>
</svg>
