<svg
  width="24"
  height="24"
  viewBox="0 0 24 24"
  xmlns="http://www.w3.org/2000/svg"
  fill="none"
  stroke="currentColor"
  stroke-width="2"
  stroke-linecap="round"
  stroke-linejoin="round"
>
  <g clip-path="url(#a)">
    <path d="M12 7a3 3 0 1 0 0-6 3 3 0 0 0 0 6z" />
    <path d="M14.562 12.629l3.421 2.678a1.177 1.177 0 0 0 1.671 0 1.193 1.193 0 0 0 0-1.682L15.755 8.58A1.962 1.962 0 0 0 14.363 8H9.637a1.952 1.952 0 0 0-1.392.58l-3.899 5.045a1.19 1.19 0 0 0 1.067 2.008c.23-.046.44-.16.604-.326l3.42-2.678-2.73 8.68a1.196 1.196 0 0 0 .572 1.58 1.174 1.174 0 0 0 1.57-.575L12 17.322l3.151 4.992a1.174 1.174 0 0 0 1.569.573 1.196 1.196 0 0 0 .573-1.578l-2.73-8.68h-.001z" />
  </g>
  <defs>
    <clipPath id="a">
      <rect width="24" height="24" />
    </clipPath>
  </defs>
</svg>
