<svg width="24" height="24" viewBox="0 0 24 24" fill="none" xmlns="http://www.w3.org/2000/svg">
<path fill-rule="evenodd" clip-rule="evenodd" d="M16.9179 2.29289C17.3084 1.90237 17.9416 1.90237 18.3321 2.29289L21.7071 5.66789C21.8946 5.85543 22 6.10978 22 6.375C22 6.64022 21.8946 6.89457 21.7071 7.08211L7.08211 21.7071C6.89457 21.8946 6.64022 22 6.375 22H3C2.44772 22 2 21.5523 2 21V17.625C2 17.3598 2.10536 17.1054 2.29289 16.9179L16.9179 2.29289ZM15.903 6.13623L17.8638 8.09702L19.5858 6.375L17.625 4.41421L15.903 6.13623ZM16.4496 9.51123L14.4888 7.55045L4 18.0392V20H5.96079L16.4496 9.51123Z" fill="black"/>
</svg>
