<svg
  width="24"
  height="24"
  viewBox="0 0 24 24"
  xmlns="http://www.w3.org/2000/svg"
  fill="none"
  stroke="currentColor"
  stroke-width="2"
  stroke-linecap="round"
  stroke-linejoin="round"
>
  <path d="M10.5 17.5a1.5 1.5 0 1 1 3 0" />
  <path d="M13.5 17.5a1.5 1.5 0 0 1 2.535-1.086" />
  <path d="M10.5 17.5a1.5 1.5 0 0 0-2.534-1.086" />
  <path d="M13.5 17.5v3.376" />
  <path d="M10.5 17.5v3.376" />
  <path d="M7.5 19.796V17.5l.466-1.086L12 7l4.035 9.414.465 1.086v2.296" />
  <path d="M21 12a8.996 8.996 0 0 1-10.5 8.876A8.997 8.997 0 0 1 3 12a9 9 0 1 1 18 0z" />
</svg>
