<svg
  width="24"
  height="24"
  viewBox="0 0 24 24"
  xmlns="http://www.w3.org/2000/svg"
  fill="none"
  stroke="currentColor"
  stroke-width="2"
  stroke-linecap="round"
  stroke-linejoin="round"
>
  <path d="M10.5 17.5a1.5 1.5 0 0 0-2.534-1.086M10.5 17.5a1.5 1.5 0 0 1 3 0m-3 0v3.376m3-3.376a1.5 1.5 0 0 1 2.535-1.086M13.5 17.5v3.376m-6-1.08V17.5l.466-1.086m8.534 3.382V17.5l-.465-1.086m0 0L12 7l-4.034 9.414" />
  <path d="M21 12a8.997 8.997 0 0 1-10.5 8.876A8.997 8.997 0 0 1 3 12a9 9 0 0 1 18 0z" />
</svg>
