<svg
  width="24"
  height="24"
  viewBox="0 0 24 24"
  xmlns="http://www.w3.org/2000/svg"
>
  <g clip-path="url(#a)">
    <path
      fill-rule="evenodd"
      clip-rule="evenodd"
      d="M23.707.293a1 1 0 0 1 0 1.414L12.481 12.933c.4.332.826.634 1.273.905l1.094-1.823a1 1 0 0 1 1.23-.414l5.293 2.118a1 1 0 0 1 .629.928v4.235a3.118 3.118 0 0 1-3.178 3.116A17.941 17.941 0 0 1 7.95 17.464l-6.243 6.243a1 1 0 0 1-1.414-1.414l22-22a1 1 0 0 1 1.414 0zM9.367 16.047A15.941 15.941 0 0 0 18.908 20 1.117 1.117 0 0 0 20 18.882v-3.558l-3.875-1.55-1.15 1.917a1 1 0 0 1-1.3.382 12.643 12.643 0 0 1-2.613-1.72l-1.695 1.694zM5.117 4A1.118 1.118 0 0 0 4 5.092a15.94 15.94 0 0 0 2.534 7.67 1 1 0 1 1-1.679 1.087A17.941 17.941 0 0 1 2 5.118 3.118 3.118 0 0 1 5.118 2h4.235a1 1 0 0 1 .928.629l1.9 4.748a1 1 0 0 1-.222 1.078l-1.693 1.693a1.002 1.002 0 0 1-.193.15l-.735.442a1 1 0 1 1-1.029-1.715l.63-.378 1.14-1.14L8.676 4H5.118z"
    />
  </g>
  <defs>
    <clipPath id="a">
      <rect width="24" height="24" />
    </clipPath>
  </defs>
</svg>
