<svg
  width="24"
  height="24"
  viewBox="0 0 24 24"
  xmlns="http://www.w3.org/2000/svg"
>
  <path
    fill-rule="evenodd"
    clip-rule="evenodd"
    d="M5.118 4A1.118 1.118 0 0 0 4 5.092 15.94 15.94 0 0 0 18.908 20 1.117 1.117 0 0 0 20 18.882v-3.558l-3.875-1.55-1.15 1.917a1 1 0 0 1-1.3.382 12.648 12.648 0 0 1-5.748-5.748 1 1 0 0 1 .382-1.3l1.917-1.15L8.676 4H5.118zM2.913 2.913A3.118 3.118 0 0 1 5.118 2h4.235a1 1 0 0 1 .928.629L12.4 7.923a1 1 0 0 1-.414 1.229l-1.823 1.094a10.648 10.648 0 0 0 3.592 3.592l1.094-1.823a1 1 0 0 1 1.23-.414l5.293 2.118a1 1 0 0 1 .629.928v4.235a3.118 3.118 0 0 1-3.178 3.116A17.942 17.942 0 0 1 2 5.118c0-.827.328-1.62.913-2.205z"
  />
</svg>
