<svg
  width="24"
  height="24"
  viewBox="0 0 24 24"
  xmlns="http://www.w3.org/2000/svg"
>
  <path d="M7.842 10.506h-.787l-.43 2.207h.7c.462 0 .808-.088 1.034-.262.227-.175.38-.466.459-.874.076-.392.041-.669-.104-.83-.146-.16-.436-.241-.872-.241zM12 6.74C6.478 6.74 2 9.095 2 12s4.478 5.26 10 5.26c5.523 0 10-2.355 10-5.26s-4.477-5.26-10-5.26zm-2.717 6.21c-.217.208-.479.364-.764.458-.28.09-.637.137-1.07.137h-.985l-.272 1.4H5.043l1.025-5.27h2.209c.664 0 1.148.173 1.453.522.305.349.397.836.275 1.46a2.363 2.363 0 0 1-.254.706 2.38 2.38 0 0 1-.468.586zm3.354.595l.452-2.332c.053-.265.033-.447-.056-.543-.09-.097-.28-.145-.573-.145h-.91l-.587 3.02h-1.14l1.025-5.272h1.14l-.273 1.402h1.015c.64 0 1.08.112 1.322.334.242.223.315.583.219 1.083l-.477 2.453h-1.157zm6.33-1.887a2.317 2.317 0 0 1-.721 1.291 2.033 2.033 0 0 1-.764.46c-.28.09-.638.136-1.072.136h-.983l-.273 1.402h-1.148l1.025-5.272h2.207c.665 0 1.149.174 1.454.523.305.348.397.835.276 1.46zm-2.162-1.152h-.786l-.43 2.207h.699c.464 0 .809-.088 1.035-.262.226-.175.379-.466.459-.874.076-.392.04-.669-.105-.83-.145-.16-.436-.241-.872-.241z" />
</svg>
