<svg
  width="24"
  height="24"
  viewBox="0 0 24 24"
  xmlns="http://www.w3.org/2000/svg"
  fill="none"
  stroke="currentColor"
  stroke-width="2"
  stroke-linecap="round"
  stroke-linejoin="round"
>
  <path d="M12 6.23C12 10.04 7.5 13 7.5 13S3 10.039 3 6.23c0-1.121.474-2.197 1.318-2.99A4.65 4.65 0 0 1 7.5 2a4.65 4.65 0 0 1 3.182 1.24A4.107 4.107 0 0 1 12 6.23z" />
  <path d="M21 15.23c0 3.808-4.5 6.77-4.5 6.77S12 19.038 12 15.23c0-1.121.474-2.197 1.318-2.99A4.65 4.65 0 0 1 16.5 11a4.65 4.65 0 0 1 3.182 1.24A4.106 4.106 0 0 1 21 15.23z" />
  <circle cx="7.5" cy="6.5" r=".5" />
  <circle cx="16.5" cy="15.5" r=".5" />
</svg>
