<svg
  width="24"
  height="24"
  viewBox="0 0 24 24"
  xmlns="http://www.w3.org/2000/svg"
>
  <path d="M12.014 2c-5.517 0-9.99 4.473-9.99 9.99a9.986 9.986 0 0 0 6.349 9.3c-.088-.79-.166-2.002.034-2.865.182-.78 1.171-4.964 1.171-4.964s-.299-.6-.299-1.484c0-1.386.806-2.426 1.807-2.426.853 0 1.265.64 1.265 1.406 0 .858-.544 2.14-.827 3.327-.237.994.5 1.804 1.48 1.804 1.773 0 3.14-1.87 3.14-4.572 0-2.384-1.72-4.058-4.174-4.058-2.842 0-4.508 2.135-4.508 4.333 0 .86.329 1.786.741 2.284.083.1.094.188.071.288-.075.312-.244.999-.278 1.135-.044.188-.144.226-.334.138-1.246-.575-2.028-2.398-2.028-3.872 0-3.146 2.29-6.043 6.6-6.043 3.465 0 6.16 2.472 6.16 5.769 0 3.446-2.172 6.218-5.194 6.218-1.012 0-1.962-.524-2.298-1.149l-.624 2.373c-.225.871-.837 1.96-1.249 2.622.936.288 1.922.446 2.959.446 5.505 0 9.987-4.47 9.987-9.99 0-5.518-4.482-9.988-9.988-9.988L12.014 2z" />
</svg>
