<svg width="24" height="24" viewBox="0 0 24 24" fill="none" xmlns="http://www.w3.org/2000/svg">
<path d="M14.51 11.7249L19.34 13.0189C19.5937 13.0869 19.8315 13.2042 20.0399 13.3642C20.2483 13.5241 20.4231 13.7235 20.5544 13.951C20.6857 14.1785 20.7709 14.4296 20.8052 14.6901C20.8394 14.9505 20.822 15.2151 20.754 15.4689C20.686 15.7226 20.5686 15.9604 20.4087 16.1688C20.2488 16.3771 20.0494 16.552 19.8219 16.6833C19.5943 16.8146 19.3432 16.8998 19.0828 16.934C18.8223 16.9683 18.5577 16.9509 18.304 16.8829L3.815 13.0009L2.47 6.42886L5.368 7.20486L6.782 9.65486L9.68 10.4309L9.56 3.15186L12.458 3.92786L14.51 11.7249V11.7249Z" stroke="white" stroke-width="2" stroke-linecap="round" stroke-linejoin="round"/>
<path d="M3 21H21" stroke="white" stroke-width="2" stroke-linecap="round" stroke-linejoin="round"/>
</svg>
