<svg
  width="24"
  height="24"
  viewBox="0 0 24 24"
  xmlns="http://www.w3.org/2000/svg"
>
  <path
    fill-rule="evenodd"
    clip-rule="evenodd"
    d="M11.2 13.805c-1.875-1.227-3.546-2.51-4.89-3.713l4.89 3.713zm-4.89-3.713a6 6 0 1 1 9.652 6.414c-1.46-.692-3.086-1.605-4.761-2.7m5.002 5.002c1.358.578 2.599.974 3.614 1.124.567.084 1.13.102 1.63-.012.513-.117 1.054-.402 1.352-.986l.002-.004c.265-.524.229-1.085.104-1.552-.126-.471-.37-.953-.67-1.423-.536-.832-1.34-1.76-2.33-2.72A8 8 0 0 0 7.792 5.195c-1.297-.531-2.53-.914-3.55-1.07-.57-.088-1.138-.116-1.638-.021-.495.094-1.088.347-1.402.962m4.837 1.6A8.014 8.014 0 0 0 4.76 8.59c-.566-.605-1.007-1.155-1.311-1.63-.241-.375-.37-.662-.422-.859a1.187 1.187 0 0 1-.01-.04c.187-.028.489-.027.92.04.581.089 1.297.28 2.1.564zm-3.163-.57l.005-.002a.028.028 0 0 1-.005.003zm16.363 9.314a8.012 8.012 0 0 1-1.292 1.942c.853.316 1.584.517 2.163.603.434.064.719.053.88.018a.994.994 0 0 0-.017-.078c-.053-.197-.181-.483-.422-.858-.304-.473-.745-1.023-1.312-1.627zM21 18.073v-.002.002zm.085-.128a.013.013 0 0 1 .003-.002l-.003.002zm-7.207-.244a6 6 0 0 1-7.858-5.221c1.208 1 2.59 2.02 4.086 2.999a45.135 45.135 0 0 0 3.772 2.222zm2.326 1.107a8 8 0 0 1-12.108-8.045c-.99-.96-1.794-1.89-2.329-2.723-.302-.47-.544-.952-.67-1.422-.125-.465-.162-1.028.106-1.553"
  />
</svg>
