<svg
  width="24"
  height="24"
  viewBox="0 0 24 24"
  xmlns="http://www.w3.org/2000/svg"
>
  <path
    fill-rule="evenodd"
    clip-rule="evenodd"
    d="M4.095 10.763a8 8 0 0 0 12.108 8.045c.534.228 1.045.425 1.527.59 1.06.36 2.044.587 2.857.601.745.014 1.748-.156 2.212-1.064l.002-.005c.265-.524.229-1.086.104-1.553-.126-.472-.37-.953-.672-1.423-.535-.833-1.34-1.759-2.328-2.718A8 8 0 0 0 7.792 5.195c-1.297-.532-2.53-.915-3.55-1.072-.57-.087-1.138-.115-1.638-.02-.495.094-1.088.347-1.402.962m4.837 1.6c-.804-.284-1.52-.475-2.101-.565-.432-.066-.733-.067-.92-.04.022.102.077.272.214.53.28.53.79 1.21 1.53 2a8.012 8.012 0 0 1 1.277-1.925zm5.161 7.14c-1.879-1.23-3.549-2.512-4.89-3.713l4.89 3.713zm-4.89-3.713a6 6 0 1 1 11.556 3.175.987.987 0 0 0-.04.176 6 6 0 0 1-1.864 3.063c-1.456-.69-3.082-1.602-4.761-2.7m6.746 3.545c.146.055.29.105.429.153.977.333 1.734.487 2.246.496.183.003.299-.011.369-.026a.99.99 0 0 0-.018-.08c-.053-.198-.181-.484-.422-.86-.305-.472-.745-1.021-1.312-1.625a8.014 8.014 0 0 1-1.292 1.942zm3.052.722v-.002.002zm.077-.125c.005-.005.009-.007.01-.007l-.01.007zm-7.2-.247a45.152 45.152 0 0 1-3.77-2.222 45.676 45.676 0 0 1-4.087-3 6 6 0 0 0 7.858 5.222zm-9.78-6.938a23.868 23.868 0 0 1-.782-.793c-.804-.857-1.451-1.69-1.85-2.446-.362-.683-.689-1.622-.262-2.46m1.674 1.032l.005-.003a.028.028 0 0 1-.005.003z"
  />
</svg>
