<svg
  width="24"
  height="24"
  viewBox="0 0 24 24"
  xmlns="http://www.w3.org/2000/svg"
>
  <path d="M17.677 10.55l-4.704 4.515a1.374 1.374 0 0 1-1.902 0l-4.705-4.516a1.37 1.37 0 0 1 1.896-1.98l3.76 3.602 3.764-3.602a1.37 1.37 0 0 1 1.938.041 1.366 1.366 0 0 1-.037 1.938l-.01.001zm4.236-6.29a1.802 1.802 0 0 0-1.7-1.196H3.816c-.75 0-1.431.47-1.698 1.171A1.83 1.83 0 0 0 2 4.88v6.038l.07 1.2c.29 2.731 1.706 5.119 3.902 6.783.037.03.078.058.119.087l.025.02a9.915 9.915 0 0 0 3.912 1.726 9.966 9.966 0 0 0 3.832.03c.072-.024.146-.037.22-.05.018 0 .04-.012.06-.024a10 10 0 0 0 3.758-1.688l.024-.025.112-.088c2.19-1.662 3.604-4.051 3.905-6.79L22 10.9V4.87c0-.21-.026-.417-.1-.618l.013.008z" />
</svg>
