<svg
  width="24"
  height="24"
  viewBox="0 0 24 24"
  xmlns="http://www.w3.org/2000/svg"
  fill="none"
  stroke="currentColor"
  stroke-width="2"
  stroke-linecap="round"
  stroke-linejoin="round"
>
  <path d="M6.5 15.5h.01" />
  <path d="M17.5 15.5h.01" />
  <circle cx="6.5" cy="15.5" r=".5" />
  <circle cx="17.5" cy="15.5" r=".5" />
  <path d="M1 12h22" />
  <path d="M3 19v2h1v-2" />
  <path d="M20 19v2h1v-2" />
  <path d="M6 6a.5.5 0 0 0-.5.5L3 12v7h18v-7l-2.5-5.5A.5.5 0 0 0 18 6H6z" />
  <path d="M9 6V4h1v2" />
  <path d="M14 6V4h1v2" />
</svg>
