<svg
  width="24"
  height="24"
  viewBox="0 0 24 24"
  xmlns="http://www.w3.org/2000/svg"
>
  <path d="M11.689 2.007a5.765 5.765 0 0 0-.588.054c-.189.02-.378.054-.56.082-.222.027-.445.04-.668.067-.21.028-.425.068-.634.102-.075.013-.15.04-.224.054-.161.034-.33.047-.492.101-.29.089-.58.19-.864.298-.264.108-.52.223-.77.358-.257.142-.5.31-.743.474-.23.155-.459.317-.682.493-.216.17-.419.358-.615.548-.107.108-.195.236-.297.358-.168.196-.337.385-.5.588-.134.17-.256.345-.384.521-.23.31-.425.642-.607.973-.075.136-.142.271-.21.406-.1.203-.209.399-.303.609a2.571 2.571 0 0 0-.162.452c-.095.332-.19.67-.277 1.001A3.778 3.778 0 0 0 2 10.46c-.007.27.02.534.047.805.007.067-.033.148.047.202-.027.075-.006.116.034.129-.047.074.02.122-.006.19-.007.013.02.04.033.06 0 .02-.006.047 0 .068.007.06.034.121.034.19 0 .046.04.1.054.148.007.02 0 .054-.014.067-.04.048-.033.088.027.115.035.088.02.129.014.17.014.06-.007.08 0 .094.054.108.074.23.08.351 0 .028.014.055.028.088.007 0 0 .129 0 .129.033-.02.061-.027.095-.04.02.087.04.169.067.243.034.054.034.08.02.087.028.122.04.237.088.352 0-.128-.013-.257-.033-.379.094.034.175.068.229.068.007-.02.014-.047.02-.06-.04-.04-.074-.102-.114-.142.013.054 0 .074 0 .095-.027-.014-.061-.028-.095-.041.027-.034.054-.068.095-.108 0-.061-.034-.116-.128-.109.04-.013.08-.033.128-.047.074-.04-.007-.114-.007-.21.007-.114-.06-.229-.081-.35-.034-.19-.027-.474-.047-.663-.04-.034-.074.054-.081.06.02.163.04.325.054.487-.04-.135-.068-.284-.101-.446-.007.047-.014.067-.014.095-.033.033-.007.074.014.121-.048-.02-.102-.013-.102-.013v.19c-.067-.068-.087-.122-.121-.17-.013-.054-.02-.108-.034-.162.013-.034 0-.054 0-.074a4.116 4.116 0 0 1-.02-.163c.007-.006-.007-.108-.007-.108.054.007.088.013.122.013-.068-.087-.02-.141.007-.195.013-.028.06-.034.074-.062.054-.101.142-.182.142-.31 0-.061.02-.129.027-.19.014-.115.027-.23.033-.345.014-.148 0-.297.035-.44a7.617 7.617 0 0 1 .378-1.21c.101-.263.196-.527.324-.777.182-.365.391-.717.594-1.075.128-.223.263-.433.406-.649.134-.21.269-.426.425-.622.216-.277.452-.534.716-.764.27-.243.526-.493.816-.717.378-.291.78-.55 1.202-.77a9.204 9.204 0 0 1 1.06-.46c.23-.089.48-.13.716-.204.27-.088.54-.128.823-.135.183-.006.358-.027.54-.047.167-.013.334-.028.5-.047a.287.287 0 0 0-.034.054c-.074.108-.155.216-.23.324-.06.088-.127.183-.188.27-.108.143-.223.285-.324.434-.156.223-.298.453-.46.676-.161.216-.337.42-.506.628-.223.291-.432.589-.655.88-.202.276-.418.54-.614.818-.175.243-.331.5-.5.75-.25.372-.5.737-.749 1.109-.196.283-.394.565-.594.845-.014.02-.034.026-.054.04-.054.088-.054.135-.074.176-.054.101-.108.203-.17.298-.033.053-.08.1-.12.155-.007-.081.107-.122.053-.224-.033.055-.068.102-.101.156l-.081.162c.026.02.072.034.028.073-.004-.016-.027-.027-.044-.04-.057.079-.111.16-.162.244.04.033.06.02.088-.028.024-.048.06-.086.09-.128l-.034.062a.245.245 0 0 0 .074-.068c0 .074-.04.135-.074.196-.027.054-.094.095-.142.135.007.006.054.027.061.034.061-.02.081-.054.088-.034.02-.027.04-.047.047-.068a.244.244 0 0 1 .135-.149c.027-.013.047-.033.068-.053.202-.21.412-.413.594-.636.283-.345.54-.703.81-1.055.115-.148.25-.297.372-.44.02.156.006.305 0 .447-.02.25-.034.5-.054.757-.007.101 0 .203-.007.304 0 .027-.02.048-.02.075 0 .067.02.142.02.21-.02.25-.048.493-.068.743-.007.054.02.108.033.156-.033.364.041.75-.02 1.136.047-.075.061-.122.061-.17.006-.04 0-.08 0-.128v-.067c.006-.122.033-.25.02-.372a1.262 1.262 0 0 1 .013-.392c.014-.054-.006-.122.028-.19v.102c-.007.384.007.77-.047 1.155-.007.034.02.095-.054.088-.061.122.013.21-.054.278-.014.013.013.074.02.115-.027.08-.027.08.013.088.007.148.02.283.027.425.108-.256.054-.52.102-.784.006.108.013.216.006.33 0 .177-.006.346-.013.521 0 .034-.007.068-.014.102-.02.095-.026.19-.06.277-.027.068-.013.17-.013.25v.258c.026.115-.007.175.013.243-.02.068-.027.088-.02.109l.02.1c.135-.013.074.089.128.143-.04.054-.027.074-.027.102 0 .06-.006.115-.013.175 0 .156-.007.311-.007.46 0 .02.007.04.007.06l-.007.19c.014.02 0 .04-.02.061-.007 0-.027-.859-.027-.859h-.102c-.013.406.021.77-.053 1.15-.081.006-.108.02-.197.02-.209 0-.418 0-.627.006-.25 0-.493.007-.743.007-.121 0-.25.014-.371.014-.162 0-.331-.02-.493-.02-.25 0-.493.02-.743.027-.182.006-.364.006-.546.013-.122.007-.244.013-.365.027-.054.007-.101.027-.169.047-.02 0-.068-.007-.108 0-.068.013-.128.054-.196.068-.101.02-.128.047-.115.148v.068c-.007.013.149-.02.149-.02-.014 0-.02.04-.041.074l.122-.047c.101.047.189.02.27.04.263.068.533.096.803.122.175.014.344.02.52.027.25.013.5.027.749.027.21 0 .412-.02.62-.02.29 0 .582.013.872.02.06 0 .128-.007.196-.007h.492c.44-.013.878-.02 1.317-.033.25-.007.507-.02.756-.027l.77-.021c.297-.007.594-.007.885-.013.222 0 .438-.007.662-.014.249-.007.506-.027.755-.04.136-.007.27-.02.406-.034.162-.014.33-.034.492-.04.244-.014.494-.02.737-.034.304-.02.607-.048.918-.055.284-.013.574-.006.858-.013.25-.007.5-.02.756-.027l.426-.02s.283-.007.425-.021c.243-.014.486-.04.73-.047.154-.007.31 0 .465-.007.25-.006.506-.02.756-.02.094 0 .195.014.317.02-.054.048-.088.074-.128.108.027.007.054.02.08.034a.182.182 0 0 1-.107.034c-.014.034-.027.047-.04.115h.12c-.047 0-.087.06-.134.101-.054-.014-.102 0-.129.075.048.026.041.047.034.074-.08.027-.141.054-.107.142-.028.013-.062.027-.095.047-.034.054-.095.067-.081.142.027.006.053.02.074.027-.034.013-.067.033-.101.047-.122.074-.068.108-.04.142-.021.013-.041.027-.061.034.013.06.033.074.04.074a2.538 2.538 0 0 0-.071.057.158.158 0 0 1 .008-.022h-.027c0 .012.003.023.005.033l-.017.013c-.02.061-.047.088-.074.128-.027.04-.04.095-.074.136-.142.155-.243.338-.426.46-.067.047-.128.108-.189.169-.121.115-.23.243-.357.352-.17.141-.344.27-.527.398-.222.156-.445.311-.668.46-.122.081-.257.142-.385.216-.128.075-.25.142-.378.216-.081.054-.156.129-.243.17-.223.095-.46.175-.689.263-.223.096-.385.176-.554.237a3.797 3.797 0 0 1-.479.128c-.054.014-.115 0-.176.008-.115.02-.23.047-.344.06-.297.041-.594.068-.891.109-.176.02-.345.054-.52.074-.122.007-.25-.006-.372-.006-.087 0-.182.02-.27.007-.141-.02-.283-.054-.425-.08-.034-.008-.081-.021-.108-.008-.054.028-.102-.013-.156 0-.033.007-.067-.02-.1-.02-.028-.007-.062.008-.096 0-.074-.02-.141-.047-.223-.04-.08.006-.162-.034-.249-.054l-.358-.081a.61.61 0 0 1-.135-.061c-.175 0-.29-.007-.398-.048-.095-.033-.182-.08-.284-.067-.026.007-.047-.007-.074-.007-.02-.027-.04-.08-.06-.08-.135.006-.216-.108-.331-.143-.061-.02-.108-.088-.17-.108-.148-.06-.269-.189-.438-.21-.054-.006-.108-.033-.169-.053.02.026.034.047.054.067-.195-.095-.378-.203-.56-.304-.027-.007-.047-.034-.067-.048l-.183-.122c-.101.02-.141-.02-.169-.034-.182-.128-.391-.21-.567-.352-.074-.06-.162-.101-.215-.176a1.068 1.068 0 0 0-.338-.263c-.101-.054-.196-.115-.29-.176-.048-.034-.095-.074-.095-.149 0-.047-.02-.094-.08-.067-.028-.04-.055-.088-.089-.102-.08-.033-.135-.095-.195-.148-.061-.054-.108-.129-.183-.156-.135-.054-.216-.169-.297-.263-.19-.223-.358-.467-.533-.703-.014-.02-.041-.034-.061-.054.027.074.06.135.094.202a.404.404 0 0 1-.155-.121c-.006.006.466.784.466.784.04.06.074.122.115.183a.209.209 0 0 1-.203-.109c-.06-.108-.128-.175-.263-.161a1.163 1.163 0 0 1-.033-.15.506.506 0 0 1-.095-.007c.095.15.175.278.263.426-.034-.02-.054-.034-.068-.04.122.128.21.29.365.372.033.155.209.23.25.378-.034-.006-.062-.013-.096-.02-.053-.068-.114-.135-.175-.21a.34.34 0 0 0 .06.122c.082.101.156.203.25.29.035.035.082.049.082.11.054.026.074.033.094.033.014.04-.006.102.075.088.054.101.107.101.182.068.088.088.135.095.196.04 0 .034.006.068.006.095.027-.013.021-.034.021-.067.033.027.054.04.067.053.068.095.129.183.223.257.128.109.243.224.364.325.237.196.5.358.764.507.324.183.635.379.965.554.398.21.824.352 1.263.454.162.034.317.067.48.107.14.041.282.102.424.136.216.047.44.088.655.128.047.007.095.014.149.02.06.014.134-.013.148.008.034.053.06.026.101.02.048-.014.102-.014.156-.014.189.007.37.047.56.034.04 0 .101-.034.135.033.061-.027.095-.027.122-.033.007.06 0 .06-.013.067-.014.007-.034.014-.061.034.243.047.472.054.675 0 .351.027.655-.014.945-.115.027.034.048.081.088.013.013-.02.047-.027.074-.034.06-.013.135-.04.19-.02.06.02.08-.034.128-.034.081 0 .155-.006.23-.02.04-.007.08-.027.128-.04a.329.329 0 0 0-.15-.035c.077-.037.153-.073.23-.107-.013.02-.026.046-.053.046h.094c-.02 0-.047.061-.081.102l.682-.17c-.075-.141.08-.094.135-.175-.068.02-.135.04-.203.054.23-.115.466-.216.695-.318-.033.04-.074.061-.134.095.04.007.067.007.087.013.108.034.081-.067.115-.128.128 0 .182-.02.243-.04.067-.021.135-.041.203-.068.107-.048.209-.108.317-.162.02-.008.054 0 .08 0 .075-.048.102-.088.122-.081.095.013.162-.02.189-.108l.02-.014c.026.06.08.066.168.006-.054 0-.108-.007-.155-.014-.005 0-.007.004-.01.005.034-.024.065-.048.092-.065.148-.08.29-.162.438-.243.054 0 .082 0 .095-.007.088-.04.17-.087.25-.135-.02-.007-.068-.033-.068-.033a.872.872 0 0 0 .129-.034c.161-.19.385-.319.553-.467.075-.007.075-.027.075-.04.026-.034.054-.075.087-.102.149-.135.31-.25.445-.392.196-.197.385-.4.56-.61.162-.189.325-.378.46-.587.19-.291.351-.589.52-.893.122-.216.23-.432.352-.649.012-.02.04-.047.06-.047.182-.02.365-.034.54-.054.04-.007.088-.034.129-.054-.02-.034-.034-.074-.054-.108-.027-.041-.068-.075-.095-.116-.027-.033-.047-.074-.067-.114-.02-.034-.041-.061-.061-.096a2.444 2.444 0 0 1-.116-.229c-.006-.02-.02-.054-.013-.074.121-.264.169-.548.284-.811.114-.27.148-.575.202-.866.047-.277.074-.554.108-.831.02-.196.047-.386.054-.582.04-.31.027-.601.02-.892-.006-.257-.02-.52-.033-.778-.014-.264-.02-.528-.048-.792-.047-.358-.094-.723-.176-1.075a6.081 6.081 0 0 0-.263-.845c-.128-.324-.256-.656-.419-.966-.263-.5-.607-.947-.924-1.414-.21-.297-.48-.54-.683-.845-.115-.176-.284-.324-.452-.459-.27-.217-.554-.413-.837-.602a8.337 8.337 0 0 0-.662-.42c-.183-.101-.378-.182-.567-.27-.216-.102-.426-.224-.669-.27-.06-.014-.115-.034-.176-.055-.155-.054-.303-.114-.459-.162-.236-.074-.465-.162-.709-.223a6.49 6.49 0 0 0-.722-.135c-.27-.04-.546-.054-.817-.08-.175-.02-.35-.04-.52-.048-.256-.013-.52-.013-.776-.02-.128-.006-.263-.02-.391-.013zm.578.784c.088.014.17.027.25.034l.325.02c.243.02.486.034.728.067.203.028.406.068.615.102.446.074.885.196 1.31.338.25.081.493.19.737.29.546.224 1.066.494 1.58.778.16.088.256.23.377.358.176.183.351.366.52.555.195.223.378.453.567.683.169.202.344.405.513.608.054.061.095.136.142.203.107.162.23.318.324.493.067.13.108.278.155.42.067.21.135.412.203.622.046.155.087.318.12.48.028.108.021.223.055.33.04.143 0 .298.04.44.007.014.013.035.02.048.028.027.048.054.007.095-.006.006-.006.033 0 .053.014-.013.02-.027.034-.047 0 .014.007.021.007.027 0 .027-.007.054 0 .081 0 .013.013.033.02.047.013-.014.027-.02.053-.04.061.23.068.46.068.696 0 .223.04.446-.054.662.02-.074-.027-.142-.006-.21l.002.002c-.007 0-.047-.04-.053-.048-.007.02 0 .04-.014.068-.007-.02-.054-.013-.054-.033-.007.094.04.189.033.284.02-.014.102-.02.122-.04.007.006.02.013.027.013-.135.101-.101.202-.04.318.013.026.054.08.013.134-.013.014.007.054.014.088h.02v.014l-.061.02c-.014-.02-.095-.06-.095-.095v.345c.068.021.068.115.095.163a.198.198 0 0 0 .027-.054l.007.007c-.007.04-.013.08-.027.121-.013.06-.027.115-.033.176 0 .007.013.02.013.027-.074.17-.034.358-.06.533-.021.129 0 .265-.014.4a3.398 3.398 0 0 1-.068.351c-.007.02-.02.027-.054.04a.547.547 0 0 0-.007-.209c-.007 0-.095-.047-.102-.047 0 .095.054.223.075.331-.02-.007-.102-.054-.108-.054-.014.081-.014.19-.02.277-.008.068-.068.128-.075.203 0 .04.047.068.04.135h.054c0-.135.062-.256.062-.398h.02c.006.013.027.027.02.034-.013.074-.041.155-.034.23 0 .04.034.08.02.128a.661.661 0 0 0-.027.142c-.007-.034-.013-.047-.013-.068l-.075-.006c-.006.04.048.08.04.115-.006.006-.012.006-.026.013l-.223-.324a68.373 68.373 0 0 1-.527-.778 1.632 1.632 0 0 1-.122-.203 9.46 9.46 0 0 0-.695-1.034c-.195-.25-.351-.521-.534-.784-.168-.25-.337-.494-.505-.744-.061-.081-.136-.155-.19-.243-.175-.278-.33-.562-.505-.839-.15-.23-.311-.453-.466-.676-.054-.074-.108-.156-.163-.237a.093.093 0 0 1-.013-.046 10.034 10.034 0 0 1-.034-.44c0-.135.014-.27.014-.413v-.122c0-.034.006-.06.006-.095.006-.006.013-.02.02-.027-.196 0-.398-.007-.594 0-.128.007-.196-.047-.283-.142-.257-.29-.446-.622-.669-.933-.21-.297-.425-.588-.641-.879-.176-.237-.352-.466-.527-.703-.196-.27-.385-.54-.588-.811a97.64 97.64 0 0 0-.742-.974c-.116-.149-.244-.29-.373-.446zm-.626.355c.014.002.028.014.041.031.182.23.364.467.547.697.135.169.27.33.399.507.155.216.303.432.459.649.175.25.35.5.52.757.256.379.5.757.756 1.136.189.277.378.547.56.825h-.345c-.317-.007-.641-.034-.958-.02-.432.02-.871.067-1.303.101-.547.047-1.1.054-1.647.054-.197 0-.392.027-.588.04-.236.014-.466.028-.702.034-.277.014-.547.02-.824.028-.155.006-.317 0-.486 0v-.002c.216-.298.439-.595.655-.9.067-.088.121-.182.189-.27.02-.027.047-.04.08-.068l-.006-.013c.027-.034.054-.061.068-.088.034-.054.054-.115.081-.176.007-.013.027-.026.027-.026.095.047.095-.054.128-.088.061-.068.12-.138.176-.21.04-.054.081-.101.115-.162.006-.02-.014-.054-.02-.081h-.02c.02-.013.04-.033.06-.047.007 0 .007 0 .014-.007A2.915 2.915 0 0 1 10 5.361c-.013.033-.027.067-.04.094.007 0 .007.007.013.007.081-.109.169-.21.25-.319-.007-.006-.014-.013-.02-.013-.034.034-.061.068-.095.102-.007-.007-.013-.014-.02-.014.067-.088.135-.176.202-.277.014.02.027.047.054.101.027-.067.054-.114.074-.162-.02.02-.046.04-.067.061l-.02-.02.121-.182c.129-.183.257-.372.385-.555.048-.068.108-.121.149-.19.128-.256.331-.459.486-.696.034-.047.08-.087.121-.128.017-.02.032-.027.047-.025zM9.737 5.78l-.115.074c-.007.007-.014.007-.007.007.007.033.007.06.013.108.048-.068.081-.122.122-.176l-.013-.013zm5.698 2.784c.06 0 .095.02.128.075.06.101.122.202.19.304.006.013.02.033.02.054 0 .149 0 .304.006.453.007.155.021.304.027.46 0 .155-.013.317-.007.48.007.23.014.466.014.702l.001.001v.061c-.007 0-.013.007-.027.007-.027-.095-.054-.197-.088-.291a2.27 2.27 0 0 0-.263-.568c-.136-.19-.257-.385-.392-.582-.034-.047-.081-.087-.122-.128-.142-.156-.284-.318-.466-.433a5.518 5.518 0 0 0-.844-.433 1.9 1.9 0 0 1-.236-.121h.162l1.154-.02c.25-.008.493-.008.743-.02zm-5.07.177c.049-.001.098 0 .148.006-.107.055-.216.109-.31.176-.122.081-.236.19-.358.277-.122.088-.23.197-.33.312-.13.155-.271.29-.406.439-.095.108-.203.21-.284.324-.114.15-.216.31-.324.48.034-.643.075-1.278.047-1.927h.001c.317-.013.62-.033.932-.047.242-.013.492-.02.735-.034.05-.003.1-.006.15-.006zm1.694.345c.202.007.404.007.607.02.088.007.169.027.25.054.1.034.209.081.304.128.114.062.222.13.33.204.196.128.379.27.574.385.19.115.338.27.46.446.148.21.317.4.384.656l.101.446c.02.081.068.162.048.257-.034.17-.061.345-.088.514-.013.068-.027.136-.02.203.013.21-.068.392-.149.582-.027.06-.068.121-.101.189a.202.202 0 0 0 .054.027l.06-.121c.007 0 .007 0 .014.006-.034.095-.06.196-.095.291-.08.21-.162.426-.263.629-.054.114-.149.21-.216.318-.067.094-.121.196-.189.284-.06.074-.121.148-.202.202-.183.136-.372.27-.567.38a1.414 1.414 0 0 1-.399.148l.002-.001c-.216.054-.439.115-.662.142-.189.027-.385.02-.58.02-.176 0-.345-.006-.52-.02-.197-.02-.392-.04-.581-.128-.163-.075-.331-.142-.493-.224a1.305 1.305 0 0 1-.446-.324c-.088-.109-.21-.196-.317-.29a.32.32 0 0 0 .141.195c-.033.04-.08.02-.149-.088-.02.014-.04.02-.053.027.02-.047.04-.095.06-.135-.026-.054-.06-.115-.087-.17a5.657 5.657 0 0 1-.156-.27c-.013-.02-.013-.04-.027-.06-.033-.04-.067-.081-.094-.122-.054-.08-.101-.169-.169-.25 0 .02.007.04.007.068-.007 0-.014.006-.014.006l-.142-.344c-.006 0-.006 0-.013.006l.121.447c-.006 0-.013.006-.02.006-.02-.026-.04-.053-.054-.087-.013-.054-.054-.054-.088-.034-.02.013-.034.06-.027.081.048.115.102.23.156.345.013.04.028.078.047.115.007.013.027.027.027.047.027.054.048.108.081.156.061.08.129.162.19.243.06.08.114.17.168.25.006.013.027.013.033.02.034.102.149.176.23.135.02.156.189.21.256.359a3.048 3.048 0 0 1-.195-.088c-.007.006-.007.013-.014.027.081.04.162.08.236.128.068.041.136.082.196.128a.616.616 0 0 0 .29.143c-.006-.021-.013-.028-.013-.028.19.088.385.183.534.257-.703.014-1.452.027-2.229.04 0-.128-.006-.25-.006-.378 0-.054.013-.101.006-.155-.02-.311-.02-.623-.06-.927a6.618 6.618 0 0 1-.034-.967c.006-.175-.007-.358-.014-.534 0-.236 0-.467.007-.703 0-.034.014-.06.027-.095h.021c.007.014 0 .034.013.041.02.02.054.054.068.048.04-.028.1-.054.114-.095a.664.664 0 0 0 .048-.25c0-.06.027-.101.053-.142.014-.02.021-.04.035-.067-.027-.02-.054-.034-.088-.061.027-.075.02-.163.122-.203.013-.007.013-.041.02-.061l.02-.17c.014.021.02.027.034.04l.013-.02c0-.026-.006-.08 0-.08.082-.014.048-.102.088-.142.007-.008-.007-.028-.007-.041 0-.014 0-.034.007-.034.094-.02.08-.122.141-.169.02-.014.028-.034.055-.068.053.095-.041.142-.048.21.115-.068.148-.23.08-.277a.399.399 0 0 0 .075-.075c.075-.08.155-.155.223-.236.048-.06.075-.135.122-.196.027-.034.08-.06.121-.081a.82.82 0 0 0 .31-.257c.014-.013.035-.027.055-.04.02-.014.06-.014.067-.034.007-.014-.013-.048-.027-.068.027-.013.054-.04.108-.068-.02.041-.027.068-.04.095l.033.034c.061-.048.155-.101.216-.142 0-.007-.033-.033-.033-.033-.04.02-.102.054-.162.081.013-.02.013-.034.02-.04.094-.062.189-.122.29-.17.236-.108.473-.216.71-.317.04-.02.094-.007.141-.007.02 0 .034 0 .054-.007.108-.034.216-.067.324-.095a.564.564 0 0 1 .149-.02zm-.263.1c-.074.035-.135.062-.195.089 0 .006-.034.06-.028.06.034-.006.108-.06.149-.067.02 0 .047.007.068.014 0-.027 0-.055.006-.095zm4.882 1.152c.067.088.142.169.189.256.155.285.358.528.547.785.162.223.31.466.46.696.181.277.357.554.539.832.135.21.277.419.418.622.129.182.264.358.4.534.113.156.235.311.35.467.135.189.27.378.405.56.067.095.142.19.216.284.04.054.101.096.142.129a.052.052 0 0 1-.027-.007c.02.027.034.047.047.061.075.04.081.081.04.142l.001-.002c-.006.014-.02.028-.027.042-.006-.014-.006-.035-.013-.062-.04.109-.128.054-.19.054-.363.007-.735.007-1.1.007-.35 0-.708 0-1.06.007-.114 0-.236.027-.351.034-.277.013-.554.02-.83.027-.02 0-.04-.034-.075-.06a.482.482 0 0 1-.04.06c-.008-.013-.02-.027-.034-.047a.368.368 0 0 1-.02.054h-.02c-.014-.095-.041-.183-.041-.277 0-.203.02-.406.027-.609.007-.094 0-.182 0-.27l.074.054a.596.596 0 0 1 .04-.067s-.013-.007-.026-.02c.012-.007.027-.021.027-.028.006-.02.02-.04.02-.054 0-.047-.014-.088-.02-.128.006 0 .013 0 .02-.007l.04.203h.02c-.026-.047.061-.088-.013-.142-.006-.007.007-.047.007-.068-.02-.04-.034-.08-.054-.135.007-.006.027-.013.047-.02-.027-.013-.047-.027-.067-.033.067-.062.067-.095.006-.163.014-.007.027-.007.027-.013 0-.06 0-.121-.013-.182-.013-.068.02-.149-.08-.19.005.02.014.038.026.054 0 0-.02.007-.04.02-.088-.08-.034-.19-.055-.31.048.013.081.027.115.04-.013-.047-.047-.101-.067-.162h-.028v-.446c0 .006.048.006.075.013 0-.006.006-.013.006-.02-.02-.027-.047-.054-.074-.088l.013-.014c-.053-.067-.026-.161-.026-.182v-.473c.067.068-.034.155.067.196v-.067h-.007c-.006-.102-.006-.203-.013-.305h-.014c-.007.014-.007.02-.013.034h-.014l.04-1.616zm-11.376.553c-.081.094-.155.19-.23.283.013.007.033.055.047.068.074-.101.175-.23.25-.324-.007-.007-.061-.02-.067-.027zm-.453.331c-.04.06-.141.17-.182.23.007.007.08-.027.088-.02.04-.06.08-.129.121-.19-.013-.006-.02-.013-.027-.02zm.027.02zm.114.081c-.04.028-.08.062-.12.089.013.013.013.02.013.034-.054-.007-.075.02-.102.094-.006.02-.04.027-.074.054-.007.014-.013.048-.027.081l.007.007a.102.102 0 0 1-.034.02c-.04.04-.088.075-.128.115-.007.02-.014.04-.014.061.048-.047.129-.135.19-.19l.006.007c.027-.04.048-.08.075-.121.006.007.006.013.013.02l-.06.17c-.015.006-.035.02-.035.013-.027.02-.047.047-.075.067l-.12.08c-.068.062-.136.116-.21.177-.047.074-.094.142-.149.23.082-.02.102.013.095.081.094.013.101-.06.128-.115.007-.014.014-.041.027-.048.061-.054.129-.1.196-.155.014-.013.014-.041.014-.061 0-.007-.035-.007-.055-.013.061-.068.149-.183.21-.257.033-.02.067-.048.067-.068-.005-.062.027-.087.07-.109-.032.146-.12.271-.21.297.026.014.053.027.074.02.02-.006.033-.04.047-.06l.182-.264.06-.102-.026-.027v.001c-.027.047-.054.088-.081.135l-.023-.011.002-.002c-.027-.02-.034-.04-.034-.047.007-.021.02-.041.034-.062.013 0 .034-.006.034-.006.027-.047.027-.081.054-.122-.007-.007-.014-.007-.02-.014v.001zm11.716.832l-.001.005v-.005zm-.001.005zm-.006.123v.006c.007.007.007.007.013 0-.006 0-.006.001-.013-.006zm0 .013c-.02.007-.04.007-.068.014.034.012.066.02.068.032v-.046zm0 .046v.001zm-.993 1.185c-.013.771.074 1.528.176 2.292l-2.323.081a2.72 2.72 0 0 0 .783-.52.762.762 0 0 1 .108-.095c.284-.176.493-.42.682-.69.216-.31.358-.662.534-.994a.699.699 0 0 1 .04-.074zm.945.062c.011.021.02.044.027.067.034-.007.048-.007.061-.013 0-.007 0-.014.007-.02v-.001c-.02-.007-.047-.02-.095-.033zm.02.06l-.006.006c.007 0 .013.007.013.007l-.006-.007-.001-.005zm-13.78.027a.168.168 0 0 0-.06.027c.027.068.06.142.088.21a.204.204 0 0 1 .053-.027c-.027-.067-.053-.142-.08-.21zm-.189.278c-.02.034-.04.067-.033.094 0 .02.033.04.054.06 0-.006.006-.013.013-.02-.013-.046-.02-.087-.034-.134zm18.048.006c0 .014.006.033 0 .047v-.047zm-17.697.149a.234.234 0 0 0-.06.027c.053.115.107.237.161.352.007 0 .061-.027.061-.027-.054-.116-.087-.244-.162-.352zm-.135.27c0 .027-.034.02-.034.047-.04 0-.073-.006-.107-.006-.007.006.02.047.027.054h.142c0-.034-.007-.06-.007-.095h-.02zm6.211.264c.075.115.15.223.23.33l-.006.007c-.014-.006-.035-.013-.048-.026l-.162-.244c-.013-.02-.02-.04-.014-.068zm7.536.365c-.007.081-.014.142-.014.203 0 .014.014.04.021.04.013.008.04-.006.054-.012a.052.052 0 0 0 .013-.028c-.02-.014-.04-.02-.06-.034.128-.068 0-.101-.014-.169zM4.904 18.834c.073.082.148.163.222.251-.04-.02-.088-.034-.108-.061-.047-.054-.087-.115-.135-.169l.02-.02zm.283.237c.02.034.034.075.054.115-.094-.006-.142-.047-.115-.101.02-.007.041-.007.061-.014zm12.862 1.036c-.054.012-.095.02-.128.033-.014.027-.027.047-.04.074.006 0 .013.007.02.014.04-.04.087-.075.148-.122zm-.345.188c-.074.047-.155.095-.23.142.007.006.007.014.014.02a.638.638 0 0 0 .244-.121c-.007-.014-.021-.028-.028-.041zm-3.307 1.285c-.31.088-.412.101-.446.054.155-.02.298-.034.446-.054zm-.46.06c.007.014.007.028.014.041-.04 0-.068.014-.102.02-.094.02-.195.034-.29.048-.034.007-.074.04-.088-.02-.013.006-.027.006-.04.014.033.1.115.02.182.06-.149.02-.29.034-.432.054v-.014l.129-.02v-.02c-.068-.007-.135-.014-.203-.014-.02 0-.047.028-.068.034-.027.007-.053.014-.087.014-.115.006-.23.006-.338.013-.007 0-.02-.007-.027-.007v-.02l1.35-.182zm-1.41.176v.02a3.63 3.63 0 0 1-.379.04v-.02l.378-.04z" />
</svg>
