<svg
  width="24"
  height="24"
  viewBox="0 0 24 24"
  xmlns="http://www.w3.org/2000/svg"
>
  <path d="M9.142 21.524a.476.476 0 0 1-.475.476H3.905a.476.476 0 0 1 0-.953h4.762c.263 0 .475.214.475.477zm-.475-2.382h-.953a.476.476 0 1 0 0 .952h.953a.476.476 0 0 0 0-.952zm-4.762.952h1.903a.476.476 0 0 0 0-.952H3.905a.476.476 0 1 0 0 .952zm4.762-2.856H3.905a.476.476 0 0 0 0 .953h4.762a.476.476 0 1 0 0-.953zm6.666-1.905H6.762a.476.476 0 0 0 0 .953h8.571a.476.476 0 1 0 0-.953zm-11.428.953h.952a.476.476 0 1 0 0-.953h-.952a.476.476 0 0 0 0 .953zm14.286-2.858h-2.858a.476.476 0 0 0 0 .953h2.858a.476.476 0 1 0 0-.953zm-8.572.953h3.81a.476.476 0 1 0 0-.953h-3.81a.476.476 0 0 0 0 .953zm-5.714 0h3.81a.476.476 0 1 0 0-.953h-3.81a.476.476 0 0 0 0 .953zm15.237-2.856h-7.617a.476.476 0 1 0 0 .952h7.618a.476.476 0 0 0 0-.952h-.001zM10.095 12a.476.476 0 0 0-.476-.476H6.762a.476.476 0 1 0 0 .952h2.857a.476.476 0 0 0 .476-.476zm-6.19.476h.952a.476.476 0 1 0 0-.952h-.952a.476.476 0 1 0 0 .952zm16.19-2.857h-4.762a.476.476 0 1 0 0 .953h4.762a.476.476 0 0 0 0-.953zm-16.19.953h4.762a.476.476 0 0 0 0-.953H3.905a.476.476 0 1 0 0 .953zM14.858 8.19c0 .262.212.476.475.476h4.762a.476.476 0 0 0 0-.953h-4.762a.476.476 0 0 0-.476.477zm-7.144-.477a.476.476 0 1 0 0 .953h.953a.476.476 0 0 0 0-.953h-.953zm-3.809.953h1.903a.476.476 0 0 0 0-.953H3.905a.476.476 0 1 0 0 .953zm13.81-2.381c0 .262.212.476.476.476h.951a.476.476 0 0 0 0-.953h-.95a.476.476 0 0 0-.477.477zm-.953 0a.475.475 0 0 0-.476-.477h-3.811a.476.476 0 1 0 0 .953h3.81a.476.476 0 0 0 .476-.476zm-12.857.476h6.667a.476.476 0 0 0 0-.953H3.905a.476.476 0 1 0 0 .953zM8.191 4.38c0 .263.212.476.476.476h9.524a.477.477 0 0 0 0-.952H8.667a.476.476 0 0 0-.476.476zm-4.286.476h2.857a.476.476 0 0 0 0-.952H3.905a.476.476 0 0 0 0 .953zm0-1.905h11.428a.477.477 0 0 0 0-.952H3.905a.476.476 0 0 0 0 .953z" />
</svg>
