<svg
  width="24"
  height="24"
  viewBox="0 0 24 24"
  xmlns="http://www.w3.org/2000/svg"
>
  <path d="M20.282 6.392a10.163 10.163 0 0 0-2.629-2.611c-2.105-1.442-4.543-1.953-6.7-1.73-2.249.242-4.175 1.09-5.758 2.503-1.467 1.31-2.435 2.912-2.862 4.44-.431 1.527-.374 2.941-.22 4.006.163 1.081.701 2.441.701 2.441.11.26.263.367.342.41.393.216 1.039.027 1.535-.53.025-.034.038-.082.025-.122-.139-.532-.189-.933-.238-1.243-.112-.613-.162-1.64-.087-2.59a7.55 7.55 0 0 1 .312-1.642c.339-1.139 1.052-2.328 2.167-3.316a7.844 7.844 0 0 1 4.205-1.892 7.476 7.476 0 0 1 2.666.17 8 8 0 0 1 2.479 1.122 7.417 7.417 0 0 1 1.978 1.97c.474.664.988 1.784 1.139 2.604.213.933.213 1.922.061 2.886-.187.965-.526 1.903-1.052 2.729-.362.64-1.114 1.486-2.002 2.12-.8.564-1.715.97-2.653 1.196a7.236 7.236 0 0 1-1.44.2c-.434.013-1.01 0-1.415-.069-.6-.095-.725-.249-.863-.457 0 0-.096-.15-.122-.552.009-3.67.007-2.69.007-4.596 0-.539-.017-1.027-.012-1.47.025-.728.086-1.228.606-1.77.376-.399.902-.64 1.481-.64.176 0 .782.009 1.314.451.571.477.667 1.129.69 1.303.13 1.019-.544 1.778-.802 1.97-.32.24-.608.357-.802.425a3.4 3.4 0 0 1-1.276.152.124.124 0 0 0-.131.1l-.138.713c-.134.541.167.74.342.81.559.172 1.055.244 1.642.2.901-.064 1.79-.419 2.544-1.122a3.726 3.726 0 0 0 1.132-2.204 4.898 4.898 0 0 0-.463-2.792 4.472 4.472 0 0 0-2.342-2.152c-1.076-.424-1.932-.439-3.035-.157l-.012.004c-.717.247-1.33.551-1.969 1.21a4.522 4.522 0 0 0-1.014 1.628c-.216.626-.275 1.094-.285 1.82-.013.539.013 1.039.013 1.507v3.084c0 .987-.034 1.158 0 1.665.018.337.065.718.212 1.127.152.45.47.913.689 1.127.305.326.695.587 1.077.75.876.389 2.065.45 3.03.413a9.92 9.92 0 0 0 1.908-.262 10.18 10.18 0 0 0 3.53-1.598c1.139-.803 2.129-1.898 2.675-2.828.701-1.105 1.154-2.345 1.39-3.619.213-1.276.203-2.585-.082-3.843-.225-1.167-.826-2.447-1.52-3.48l.032.03z" />
</svg>
