<svg
  width="24"
  height="24"
  viewBox="0 0 24 24"
  xmlns="http://www.w3.org/2000/svg"
>
  <path
    fill-rule="evenodd"
    clip-rule="evenodd"
    d="M13.906 2.293a1 1 0 0 1 1.414 0l6.387 6.387a1 1 0 0 1-1.276 1.53l-3.797 3.796-1.665 4.442a1 1 0 0 1-.23.356l-1.742 1.742a1 1 0 0 1-1.414 0l-3.357-3.358-4.519 4.52a1 1 0 0 1-1.414-1.415l4.519-4.519-3.358-3.357a1 1 0 0 1 0-1.414L5.196 9.26a1 1 0 0 1 .356-.23l4.442-1.665 3.797-3.797a1 1 0 0 1 .115-1.276zm1.287 2.702l-3.938 3.938a1 1 0 0 1-.356.23l-4.442 1.665-.881.882 6.714 6.714.882-.881 1.666-4.442a.998.998 0 0 1 .23-.357l3.937-3.938-3.811-3.811z"
  />
</svg>
