<svg
  width="24"
  height="24"
  viewBox="0 0 24 24"
  xmlns="http://www.w3.org/2000/svg"
>
  <g clip-path="url(#a)">
    <path
      fill-rule="evenodd"
      clip-rule="evenodd"
      d="M.293.293a1 1 0 0 1 1.414 0l22 22a1 1 0 0 1-1.414 1.414l-6.761-6.761-.563 1.502a1 1 0 0 1-.23.356l-1.742 1.742a1 1 0 0 1-1.414 0l-3.357-3.358-4.519 4.52a1 1 0 0 1-1.414-1.415l4.519-4.519-3.358-3.357a1 1 0 0 1 0-1.414L5.196 9.26a1 1 0 0 1 .356-.23l1.502-.563-6.761-6.76a1 1 0 0 1 0-1.415zm8.314 9.729l-2.15.806-.881.882 6.714 6.714.882-.881.806-2.15-5.37-5.371zm5.299-7.73a1 1 0 0 1 1.414 0l6.387 6.388a1 1 0 0 1-1.276 1.53l-2.611 2.61a1 1 0 0 1-1.414-1.414l2.6-2.6-3.813-3.811-2.599 2.6A1 1 0 1 1 11.18 6.18l2.61-2.61a1 1 0 0 1 .116-1.277z"
    />
  </g>
  <defs>
    <clipPath id="a">
      <rect width="24" height="24" />
    </clipPath>
  </defs>
</svg>
