<svg
  width="24"
  height="24"
  viewBox="0 0 24 24"
  xmlns="http://www.w3.org/2000/svg"
>
  <path
    fill-rule="evenodd"
    clip-rule="evenodd"
    d="M10 4a1 1 0 0 0-1 1v2a1 1 0 0 1-1 1H4v3h1a3 3 0 0 1 0 6H4v3h3v-1a3 3 0 1 1 6 0v1h3v-4a1 1 0 0 1 1-1h2a1 1 0 0 0 0-2h-2a1 1 0 0 1-1-1V8h-4a1 1 0 0 1-1-1V5a1 1 0 0 0-1-1zm3 2V5a3 3 0 0 0-6 0v1H3a1 1 0 0 0-1 1v5a1 1 0 0 0 1 1h2a1 1 0 0 1 0 2H3a1 1 0 0 0-1 1v5a1 1 0 0 0 1 1h5a1 1 0 0 0 1-1v-2a1 1 0 1 1 2 0v2a1 1 0 0 0 1 1h5a1 1 0 0 0 1-1v-4h1a3 3 0 0 0 0-6h-1V7a1 1 0 0 0-1-1h-4z"
  />
</svg>
