<svg
  width="24"
  height="24"
  viewBox="0 0 24 24"
  xmlns="http://www.w3.org/2000/svg"
>
  <path d="M13.925 2.15l.75.167.608.216.492.25.375.267.283.283.209.284.133.275.083.25.034.216.016.167-.008.108v4.45l-.042.525-.108.459-.175.383-.217.317-.25.258-.275.208-.291.159-.292.116-.275.084-.25.058-.217.033-.175.017H9.358l-.575.042-.491.116-.417.184-.342.225-.275.266-.225.292-.166.3-.125.308-.084.292-.058.267-.033.225-.017.175v2.55H4.692l-.175-.025-.234-.059-.266-.1-.292-.15-.3-.216-.3-.3-.292-.384-.266-.491-.234-.609-.175-.733L2.042 13 2 11.975l.05-1.017.133-.866.2-.725.267-.592.3-.475.333-.367.35-.275.35-.2.334-.133.3-.083.266-.042.2-.008h.134l.05.008h6.8v-.692H7.2l-.008-2.291-.017-.309.042-.283.091-.258.142-.234.208-.216.259-.192.316-.167.367-.15.425-.125.483-.1.534-.083.591-.05.642-.033.7-.017 1.058.042.892.108zM8.675 3.8l-.192.275-.066.342.066.341.192.284.275.183.342.075.341-.075.275-.183.192-.284.067-.341-.067-.342-.192-.275-.275-.183-.341-.075-.342.075-.275.183zm10.908 3.292l.234.05.266.1.292.15.3.225.3.291.292.392.266.492.234.608.175.733.116.867.042 1.025-.05 1.025-.133.867-.2.716-.267.592-.3.475-.333.375-.35.275-.35.2-.334.133-.3.075-.266.042-.2.017-.134-.009h-6.85v.684H16.9l.008 2.3.017.3-.042.283-.091.258-.142.242-.208.208-.259.2-.316.167-.367.142-.425.125-.483.108-.534.075-.591.058-.642.034-.7.008-1.058-.033-.892-.117-.75-.167-.608-.208-.492-.25-.375-.275-.283-.283-.209-.284-.133-.275-.083-.25-.034-.208-.016-.167.008-.108v-4.45l.042-.533.108-.45.175-.384.217-.316.25-.267.275-.2.291-.167.292-.116.275-.084.25-.05.217-.033.175-.017.108-.008h4.867l.575-.042.491-.116.417-.175.342-.234.275-.266.225-.292.166-.3.125-.3.084-.292.058-.266.033-.234.017-.175v-2.55h1.742l.116.009.175.025zm-5.391 11.875l-.192.275-.067.341.067.342.192.275.275.192.341.066.342-.066.275-.192.192-.275.066-.342-.066-.341-.192-.275-.275-.192-.342-.067-.341.067-.275.192z" />
</svg>
