<svg
  width="24"
  height="24"
  viewBox="0 0 24 24"
  xmlns="http://www.w3.org/2000/svg"
>
  <path d="M15.812 2a1.27 1.27 0 1 0 0 2.541 1.27 1.27 0 0 0 0-2.541zm-3.969 2.38a6.356 6.356 0 0 0-.008 12.706c.248 0 .247.244.247.244v2.208s0 2.303 2.215 2.462c.246.008.246-.246.246-.246v-16.6s0-.244-.246-.345a6.39 6.39 0 0 0-2.454-.428zm4.074 1.387c-.104-.017-.103.139-.103.321v9.29c0 .245-.001.44.244.247l.028-.023a6.356 6.356 0 0 0-.025-9.758.341.341 0 0 0-.144-.077zm-3.971 1.155c.137 0 .137.136.137.136v7.35s0 .138-.137.138a3.814 3.814 0 0 1 0-7.623v-.001z" />
</svg>
