<svg
  width="24"
  height="24"
  viewBox="0 0 24 24"
  xmlns="http://www.w3.org/2000/svg"
>
  <path
    fill-rule="evenodd"
    clip-rule="evenodd"
    d="M3 4a1 1 0 0 1 1-1h6a1 1 0 0 1 1 1v6a1 1 0 0 1-1 1H4a1 1 0 0 1-1-1V4zm2 1v4h4V5H5zm8-1a1 1 0 0 1 1-1h6a1 1 0 0 1 1 1v6a1 1 0 0 1-1 1h-6a1 1 0 0 1-1-1V4zm2 1v4h4V5h-4zM7 6a1 1 0 0 1 1 1v.01a1 1 0 0 1-2 0V7a1 1 0 0 1 1-1zm10 0a1 1 0 0 1 1 1v.01a1 1 0 1 1-2 0V7a1 1 0 0 1 1-1zM3 14a1 1 0 0 1 1-1h6a1 1 0 0 1 1 1v6a1 1 0 0 1-1 1H4a1 1 0 0 1-1-1v-6zm2 1v4h4v-4H5zm8-1a1 1 0 0 1 1-1h3a1 1 0 1 1 0 2h-2v2a1 1 0 1 1-2 0v-3zm7-1a1 1 0 0 1 1 1v.01a1 1 0 1 1-2 0V14a1 1 0 0 1 1-1zM7 16a1 1 0 0 1 1 1v.01a1 1 0 1 1-2 0V17a1 1 0 0 1 1-1zm9 1a1 1 0 0 1 1-1h3a1 1 0 0 1 1 1v3a1 1 0 1 1-2 0v-2h-2a1 1 0 0 1-1-1zm-3 3a1 1 0 0 1 1-1h3a1 1 0 1 1 0 2h-3a1 1 0 0 1-1-1z"
  />
</svg>
