<svg width="24" height="24" viewBox="0 0 24 24" fill="none" xmlns="http://www.w3.org/2000/svg">
<path d="M14 14.67L16.8 20C18.076 19.19 19.136 18.023 19.874 16.619C20.6165 15.1927 21.0028 13.608 21 12H15.4C15.4 12.541 15.271 13.073 15.025 13.542C14.78 14.01 14.425 14.399 14 14.67Z" stroke="white" stroke-width="2" stroke-linecap="round" stroke-linejoin="round"/>
<path d="M13.667 9.00006L17 4.13106C15.4402 3.38108 13.7307 2.9944 12 3.00006C10.245 3.00006 8.52 3.39006 7 4.13106L10.333 9.00006C10.853 8.75004 11.423 8.62115 12 8.62306C12.585 8.62306 13.16 8.75306 13.667 9.00006Z" stroke="white" stroke-width="2" stroke-linecap="round" stroke-linejoin="round"/>
<path d="M10 14.67L7.2 20C5.924 19.19 4.864 18.023 4.126 16.619C3.3835 15.1927 2.99717 13.608 3 12H8.6C8.6 12.541 8.729 13.073 8.975 13.542C9.22 14.01 9.575 14.399 10 14.67Z" stroke="white" stroke-width="2" stroke-linecap="round" stroke-linejoin="round"/>
</svg>
