<svg
  width="24"
  height="24"
  viewBox="0 0 24 24"
  xmlns="http://www.w3.org/2000/svg"
>
  <path
    fill-rule="evenodd"
    clip-rule="evenodd"
    d="M7 3.344a10 10 0 0 1 10 0 1 1 0 0 1 .366 1.366l-3 5.19a1 1 0 0 1-1.366.366 2 2 0 0 0-2 0A1 1 0 0 1 9.634 9.9l-3-5.19A1 1 0 0 1 7 3.344zM8.898 4.63l2.031 3.514a4 4 0 0 1 2.142 0l2.031-3.514a8 8 0 0 0-6.204 0zm-6.605 6.663A1 1 0 0 1 3 11h6a1 1 0 0 1 1 1 2 2 0 0 0 1 1.734 1 1 0 0 1 .366 1.366l-3 5.19A1 1 0 0 1 7 20.656 10 10 0 0 1 2 12a1 1 0 0 1 .293-.707zM4.063 13a8 8 0 0 0 3.103 5.37l2.031-3.514A3.998 3.998 0 0 1 8.127 13H4.063zm10.23-1.707A1 1 0 0 1 15 11h6a1 1 0 0 1 1 1 10 10 0 0 1-5 8.656 1 1 0 0 1-1.366-.366l-3-5.19A1 1 0 0 1 13 13.734 1.999 1.999 0 0 0 14 12a1 1 0 0 1 .293-.708v.001zM15.873 13a4 4 0 0 1-1.07 1.856l2.031 3.514A8 8 0 0 0 19.937 13h-4.064z"
  />
</svg>
