<svg width="24" height="24" viewBox="0 0 24 24" fill="none" xmlns="http://www.w3.org/2000/svg">
<path d="M14 14.6701L16.8 20C18.0764 19.1892 19.1364 18.0231 19.8736 16.6188C20.6108 15.2146 20.9993 13.6217 21 12H15.4C15.4003 12.5411 15.2711 13.0728 15.0253 13.5416C14.7796 14.0103 14.4259 14.3995 14 14.6701" stroke="#1E293B" stroke-width="2" stroke-linecap="round" stroke-linejoin="round"/>
<path d="M13.6667 9L17 4.13116C15.4798 3.39012 13.7554 3 12 3C10.2446 3 8.52019 3.39012 7 4.13116L10.3333 9C10.8401 8.75299 11.4149 8.62295 12 8.62295C12.5851 8.62295 13.1599 8.75299 13.6667 9Z" stroke="#1E293B" stroke-width="2" stroke-linecap="round" stroke-linejoin="round"/>
<path d="M10 14.6701L7.2 20C5.92362 19.1892 4.86359 18.0231 4.12637 16.6188C3.38915 15.2146 3.00069 13.6217 3 12H8.6C8.59968 12.5411 8.72891 13.0728 8.97468 13.5416C9.22045 14.0103 9.57408 14.3995 10 14.6701" stroke="#1E293B" stroke-width="2" stroke-linecap="round" stroke-linejoin="round"/>
</svg>
