<svg
  width="24"
  height="24"
  viewBox="0 0 24 24"
  xmlns="http://www.w3.org/2000/svg"
  fill="none"
  stroke="currentColor"
  stroke-width="2"
  stroke-linecap="round"
  stroke-linejoin="round"
>
  <path d="M14 14.67L16.8 20c1.276-.81 2.336-1.977 3.074-3.381A9.965 9.965 0 0 0 21 12h-5.6c0 .541-.129 1.073-.375 1.542-.245.468-.6.857-1.025 1.128z" />
  <path d="M13.667 9L17 4.131a11.452 11.452 0 0 0-5-1.13c-1.755 0-3.48.39-5 1.13l3.333 4.87c.52-.251 1.09-.38 1.667-.378.585 0 1.16.13 1.667.377z" />
  <path d="M10 14.67L7.2 20c-1.276-.81-2.336-1.977-3.074-3.381A9.965 9.965 0 0 1 3 12h5.6c0 .541.129 1.073.375 1.542.245.468.6.857 1.025 1.128z" />
</svg>
