<svg
  width="24"
  height="24"
  viewBox="0 0 24 24"
  xmlns="http://www.w3.org/2000/svg"
>
  <path d="M12 13.52c-.398 0-.78-.16-1.06-.445a1.531 1.531 0 0 1 0-2.15 1.49 1.49 0 0 1 1.06-.446c.398 0 .78.16 1.06.446a1.531 1.531 0 0 1 0 2.15 1.49 1.49 0 0 1-1.06.446zm-.528 3.036c.175.213.351.42.528.618.177-.198.353-.404.528-.618-.352.008-.704.008-1.056 0zm-1.995-.127a20.418 20.418 0 0 1-2.285-.373c-.075.355-.132.7-.17 1.03-.19 1.605.075 2.58.478 2.816.403.236 1.368-.02 2.645-.988.263-.2.528-.421.794-.664a20.906 20.906 0 0 1-1.462-1.82zm7.331-.373c-.717.163-1.483.288-2.285.373a20.906 20.906 0 0 1-1.462 1.821c.266.244.531.465.794.664 1.277.969 2.242 1.224 2.645.988.403-.235.667-1.21.479-2.816-.041-.345-.099-.689-.171-1.03zm1.45-.392c.577 2.676.274 4.806-1.008 5.556s-3.253-.049-5.25-1.893c-1.997 1.844-3.968 2.642-5.25 1.892s-1.585-2.88-1.009-5.556C3.167 14.833 1.5 13.501 1.5 12c0-1.5 1.667-2.832 4.241-3.664C5.165 5.66 5.468 3.53 6.75 2.78s3.253.049 5.25 1.893c1.997-1.844 3.968-2.642 5.25-1.892s1.585 2.88 1.009 5.556c2.574.83 4.241 2.162 4.241 3.663 0 1.5-1.667 2.832-4.241 3.664h-.001zm-7.32-9.914a11.392 11.392 0 0 0-.793-.664C8.868 4.117 7.903 3.862 7.5 4.098c-.403.235-.667 1.21-.479 2.816.04.331.096.675.17 1.03a20.417 20.417 0 0 1 2.286-.373c.475-.663.965-1.272 1.462-1.821h-.001zm3.585 1.82c.802.086 1.568.212 2.285.374.075-.355.132-.7.17-1.03.19-1.605-.075-2.58-.478-2.816-.403-.236-1.368.02-2.645.988-.274.209-.54.43-.794.664.497.55.987 1.158 1.462 1.82zm-1.995-.126A19.29 19.29 0 0 0 12 6.826a18.24 18.24 0 0 0-.528.618c.352-.008.704-.008 1.056 0zM8.372 14.74a25.298 25.298 0 0 1-.528-.926c-.095.26-.183.517-.263.771.257.057.522.109.791.155zm1.932.238c1.13.085 2.263.085 3.392 0A23.298 23.298 0 0 0 15.392 12a23.299 23.299 0 0 0-1.696-2.979 22.584 22.584 0 0 0-3.392 0A23.3 23.3 0 0 0 8.608 12a23.3 23.3 0 0 0 1.696 2.979zm5.852-4.794c.095-.26.183-.517.263-.771a17.77 17.77 0 0 0-.79-.155c.182.305.358.614.527.926zM6.13 9.807c-.34.112-.662.233-.964.365C3.701 10.809 3 11.529 3 12c0 .471.7 1.191 2.166 1.828.302.132.624.253.964.365.222-.71.497-1.446.825-2.193a21.142 21.142 0 0 1-.825-2.193zm1.45-.393c.081.253.169.51.264.77.17-.312.346-.62.528-.925-.27.046-.535.098-.792.155zm10.29 4.779c.34-.112.662-.233.964-.365C20.299 13.191 21 12.471 21 12c0-.471-.7-1.191-2.166-1.828a11.278 11.278 0 0 0-.964-.365c-.222.71-.497 1.446-.825 2.193.328.747.603 1.482.825 2.193zm-1.45.393a19.626 19.626 0 0 0-.264-.77c-.17.312-.346.62-.528.925.27-.046.535-.098.792-.155z" />
</svg>
