<svg
  width="24"
  height="24"
  viewBox="0 0 24 24"
  xmlns="http://www.w3.org/2000/svg"
>
  <path d="M12 10.218a1.783 1.783 0 1 0 0 3.566 1.783 1.783 0 0 0 0-3.566zm-4.993 5.328l-.394-.1C3.682 14.706 2 13.448 2 11.996c0-1.45 1.682-2.708 4.613-3.448l.394-.1.11.39a19.61 19.61 0 0 0 1.136 2.982l.085.178-.085.177c-.46.961-.84 1.958-1.136 2.982l-.11.389zM6.43 9.458c-2.229.626-3.596 1.584-3.596 2.539 0 .954 1.367 1.911 3.596 2.538a20.79 20.79 0 0 1 .985-2.538 20.625 20.625 0 0 1-.985-2.539zm10.562 6.088l-.11-.39a19.468 19.468 0 0 0-1.137-2.982l-.084-.177.084-.178c.46-.961.84-1.958 1.136-2.981l.111-.39.395.099c2.93.74 4.612 1.998 4.612 3.45 0 1.451-1.682 2.708-4.613 3.449l-.394.1zm-.409-3.55c.4.867.731 1.717.985 2.54 2.23-.628 3.596-1.585 3.596-2.54 0-.954-1.367-1.91-3.596-2.538a20.665 20.665 0 0 1-.985 2.539zM6.425 9.455l-.11-.389C5.49 6.16 5.74 4.078 7 3.352c1.236-.714 3.22.129 5.3 2.263l.282.29-.283.292a19.632 19.632 0 0 0-2.018 2.472l-.113.161-.195.017a19.714 19.714 0 0 0-3.155.508l-.393.1zm1.58-5.525c-.223 0-.42.049-.588.144-.828.478-.974 2.138-.404 4.378a20.934 20.934 0 0 1 2.694-.418 20.7 20.7 0 0 1 1.71-2.12c-1.3-1.265-2.53-1.984-3.412-1.984zm7.99 16.969c-1.187 0-2.712-.895-4.294-2.52l-.284-.29.284-.291a19.598 19.598 0 0 0 2.017-2.474l.113-.16.195-.017a19.697 19.697 0 0 0 3.156-.508l.393-.099.112.39c.822 2.904.573 4.986-.687 5.712a1.985 1.985 0 0 1-1.004.257zm-3.412-2.818c1.3 1.266 2.53 1.984 3.412 1.984.223 0 .422-.048.588-.144.828-.477.975-2.138.404-4.378a20.84 20.84 0 0 1-2.695.417 20.565 20.565 0 0 1-1.71 2.121zm4.992-8.626l-.393-.099a19.568 19.568 0 0 0-3.156-.508l-.195-.017-.113-.16a19.505 19.505 0 0 0-2.017-2.473l-.284-.291.284-.29C13.779 3.481 15.762 2.638 17 3.351c1.26.726 1.51 2.808.687 5.712l-.112.39zm-3.283-1.42c.951.086 1.856.227 2.695.417.571-2.24.424-3.9-.404-4.378-.824-.475-2.371.254-4 1.84a20.711 20.711 0 0 1 1.709 2.12zM8.005 20.897A1.983 1.983 0 0 1 7 20.64c-1.26-.726-1.51-2.808-.686-5.712l.11-.39.393.1c.963.242 2.025.413 3.155.507l.196.017.111.16a19.66 19.66 0 0 0 2.018 2.474l.284.29-.284.291c-1.581 1.625-3.106 2.52-4.292 2.52zm-.992-5.356c-.571 2.24-.424 3.9.405 4.378.822.47 2.369-.254 4-1.84a20.829 20.829 0 0 1-1.71-2.12c-.907-.08-1.807-.22-2.695-.418zm4.987.523c-.686 0-1.39-.03-2.097-.088l-.196-.017-.112-.16a25.286 25.286 0 0 1-2.097-3.625l-.083-.178.083-.178a25.24 25.24 0 0 1 .972-1.856c.345-.597.724-1.192 1.125-1.769l.112-.16.196-.017a24.821 24.821 0 0 1 4.194 0l.196.016.111.161c.8 1.148 1.501 2.36 2.098 3.625l.084.178-.084.177a24.68 24.68 0 0 1-2.098 3.625l-.111.161-.195.017c-.706.058-1.412.088-2.098.088zm-1.83-.903c1.232.092 2.428.092 3.662 0a24.182 24.182 0 0 0 1.83-3.165 23.822 23.822 0 0 0-1.831-3.165 24.192 24.192 0 0 0-3.662 0 23.73 23.73 0 0 0-1.83 3.165c.53 1.1 1.141 2.157 1.83 3.165z" />
</svg>
