<svg
  width="24"
  height="24"
  viewBox="0 0 24 24"
  xmlns="http://www.w3.org/2000/svg"
>
  <path d="M12.098 6.555c-.175-.002-.35.02-.519.067-.232.056-.585.276-.794.486-.342.352-.408.507-.552 1.224-.066.352.342 1.191.706 1.445.375.264.904.418 1.721.506 1.19.134 1.533.53 1.533 1.831 0 1.148-.32 1.456-1.633 1.588-1.423.144-2.15.696-2.304 1.765-.088.65.341 1.466.937 1.742 1.356.64 2.625-.165 2.89-1.83.175-1.07.518-1.368 1.665-1.456 1.323-.11 2.007-.562 2.26-1.489.232-.85-.253-1.797-1.08-2.128-.22-.088-.728-.198-1.126-.243-1.245-.133-1.565-.353-1.698-1.158-.187-1.114-.264-1.302-.661-1.742a1.812 1.812 0 0 0-1.345-.608zm-3.987 3.633a1.79 1.79 0 0 0-.414.04c-1.225.265-1.809 1.71-1.125 2.746.981 1.479 3.286.794 3.308-.98.01-.995-.817-1.787-1.77-1.806zm-4.37 3.637c-.12.003-.24.017-.356.043-1.798.397-1.864 3.022-.088 3.485.441.121.485.121.925.011.993-.265 1.555-1.213 1.291-2.172-.231-.85-.953-1.387-1.772-1.367zm16.52.007c-.194.001-.398.048-.653.135-1.159.397-1.556 1.743-.817 2.78.464.661 1.633.881 2.35.43 1.18-.729 1.136-2.548-.078-3.122-.316-.155-.552-.226-.802-.223z" />
</svg>
