<svg
  width="24"
  height="24"
  viewBox="0 0 24 24"
  xmlns="http://www.w3.org/2000/svg"
>
  <path
    fill-rule="evenodd"
    clip-rule="evenodd"
    d="M10.762 2.276a3.037 3.037 0 0 1 3.798 1.09c.01.014.018.03.027.044l3.038 5.214.889-.51a1 1 0 0 1 1.462 1.13l-.74 2.736a1 1 0 0 1-1.222.705l-2.76-.733a1 1 0 0 1-.24-1.834l.875-.501-3.015-5.174a1.015 1.015 0 0 0-.803-.442 1.037 1.037 0 0 0-.476.093l-.416-.909.416.91a1.02 1.02 0 0 0-.345.258l-.562.919a1 1 0 1 1-1.706-1.043l.597-.978a.998.998 0 0 1 .067-.096c.296-.378.68-.679 1.116-.88zm-3.25 5.007a1 1 0 0 1 1.222.706l.74 2.736a1 1 0 0 1-1.462 1.129l-.89-.509L4.1 16.532a.988.988 0 0 0 .33 1.251c.12.084.257.141.402.168l1.085.023a1 1 0 0 1-.04 2l-1.154-.024a.993.993 0 0 1-.116-.01 3.032 3.032 0 0 1-1.323-.517A3.009 3.009 0 0 1 2 16.979a2.988 2.988 0 0 1 .357-1.427l3.03-5.2-.876-.501a1 1 0 0 1 .24-1.835l2.76-.733zm12.298 7.084a1 1 0 0 1 1.36.39l.556 1c.019.035.036.07.05.107a2.986 2.986 0 0 1-.25 2.749 3.015 3.015 0 0 1-2.443 1.384h-6.074V21a1 1 0 0 1-1.704.71l-2.021-2.003a1 1 0 0 1 0-1.42l2.021-2.003a1 1 0 0 1 1.704.71v1.003h6.044a1.035 1.035 0 0 0 .79-.465.99.99 0 0 0 .1-.864l-.522-.94a1 1 0 0 1 .39-1.36z"
  />
</svg>
