<svg
  width="24"
  height="24"
  viewBox="0 0 24 24"
  xmlns="http://www.w3.org/2000/svg"
>
  <path d="M15.34 13.155c1.315 0 3.218-.272 3.218-1.835a1.47 1.47 0 0 0-.034-.36l-.783-3.4c-.18-.747-.338-1.087-1.652-1.743-1.019-.521-3.24-1.382-3.896-1.382-.611 0-.79.788-1.519.788-.701 0-1.222-.588-1.879-.588-.63 0-1.042.43-1.358 1.313 0 0-.884 2.492-.998 2.854a.675.675 0 0 0-.023.204c0 .968 3.814 4.145 8.925 4.145v.004zm3.418-1.2c.182.86.182.95.182 1.064 0 1.471-1.653 2.288-3.828 2.288-4.912.003-9.216-2.876-9.216-4.779 0-.265.053-.527.158-.77C4.288 9.846 2 10.162 2 12.18c0 3.307 7.838 7.384 14.043 7.384 4.758 0 5.957-2.152 5.957-3.85 0-1.337-1.156-2.854-3.24-3.76" />
</svg>
