<svg
  width="24"
  height="24"
  viewBox="0 0 24 24"
  xmlns="http://www.w3.org/2000/svg"
>
  <path d="M15.86 15.753a1.387 1.387 0 0 0 1.25-1.461 1.439 1.439 0 0 0-1.423-1.374h-.051a1.425 1.425 0 0 0-1.373 1.475c.024.399.188.724.411.96-.873 1.699-2.184 2.947-4.17 3.996-1.336.698-2.747.962-4.12.774-1.148-.161-2.047-.675-2.597-1.498-.823-1.25-.898-2.597-.212-3.945a5.888 5.888 0 0 1 1.75-2.036 8.297 8.297 0 0 1-.35-1.285c-3.698 2.648-3.322 6.268-2.198 7.978.836 1.249 2.547 2.047 4.42 2.047.499 0 1.024-.037 1.535-.162 3.247-.624 5.706-2.571 7.117-5.443l.012-.026zm4.457-3.121c-1.934-2.273-4.781-3.521-8.028-3.521h-.425c-.21-.462-.697-.75-1.247-.75h-.038c-.786 0-1.398.676-1.372 1.461a1.439 1.439 0 0 0 1.423 1.374h.062a1.409 1.409 0 0 0 1.248-.874h.463c1.924 0 3.745.561 5.406 1.66 1.273.836 2.185 1.935 2.697 3.246.448 1.074.424 2.123-.038 2.998-.711 1.372-1.91 2.097-3.495 2.097-1 0-1.973-.312-2.473-.536-.3.248-.8.66-1.162.91 1.099.499 2.21.786 3.284.786 2.435 0 4.244-1.372 4.931-2.696.749-1.499.687-4.02-1.224-6.18l-.012.025zm-12.909 3.57c.024.749.661 1.373 1.424 1.373h.05c.799-.025 1.41-.686 1.373-1.473 0-.75-.65-1.373-1.41-1.373h-.052c-.05 0-.124 0-.187.024-1.036-1.748-1.474-3.621-1.31-5.642.099-1.524.599-2.848 1.497-3.946.75-.937 2.16-1.4 3.122-1.423 2.697-.051 3.82 3.309 3.908 4.645l1.248.374c-.288-4.095-2.834-6.244-5.269-6.244-2.285 0-4.394 1.661-5.244 4.096-1.16 3.247-.399 6.368 1.024 8.865-.124.163-.199.45-.174.724z" />
</svg>
