<svg
  width="24"
  height="24"
  viewBox="0 0 24 24"
  xmlns="http://www.w3.org/2000/svg"
>
  <path
    fill-rule="evenodd"
    clip-rule="evenodd"
    d="M12 4a7.998 7.998 0 0 0-6.93 4H8a1 1 0 0 1 0 2H3a1 1 0 0 1-1-1V4a1 1 0 0 1 2 0v2a9.984 9.984 0 0 1 8-4c5.148 0 9.386 3.89 9.939 8.89a1 1 0 1 1-1.988.22A8.001 8.001 0 0 0 12 4zm-9.055 8.006a1 1 0 0 1 1.104.884A8.001 8.001 0 0 0 18.93 16H16a1 1 0 1 1 0-2h5a1 1 0 0 1 1 1v5a1 1 0 1 1-2 0v-2a9.984 9.984 0 0 1-8 4c-5.148 0-9.386-3.89-9.939-8.89a1 1 0 0 1 .884-1.104z"
  />
</svg>
