<svg width="24" height="24" viewBox="0 0 24 24" fill="none" xmlns="http://www.w3.org/2000/svg">
<path fill-rule="evenodd" clip-rule="evenodd" d="M12 4C7.58172 4 4 7.58172 4 12C4 16.4183 7.58172 20 12 20C16.4183 20 20 16.4183 20 12C20 7.58172 16.4183 4 12 4ZM2 12C2 6.47715 6.47715 2 12 2C17.5228 2 22 6.47715 22 12C22 17.5228 17.5228 22 12 22C6.47715 22 2 17.5228 2 12ZM8 8C8 7.44772 8.44772 7 9 7H13C14.6569 7 16 8.34315 16 10C16 11.3442 15.116 12.4819 13.8976 12.8634L15.8 15.4C16.1314 15.8418 16.0418 16.4686 15.6 16.8C15.1582 17.1314 14.5314 17.0418 14.2 16.6L11.5 13H10V16C10 16.5523 9.55228 17 9 17C8.44772 17 8 16.5523 8 16V8ZM10 11H13C13.5523 11 14 10.5523 14 10C14 9.44772 13.5523 9 13 9H10V11Z" fill="black"/>
</svg>
