<svg
  width="24"
  height="24"
  viewBox="0 0 24 24"
  xmlns="http://www.w3.org/2000/svg"
>
  <path d="M19.84 18.762c.374.832-.003 1.884-.783 2.308-.447.243-.959.47-1.47.596-.842.201-1.704.313-2.57.334-1.384 0-2.774-.793-3.372-1.758-.154.333-.713 1.002-1.692 1.317-.617.2-1.362.441-2.918.44-1.394-.002-2.19-.634-2.608-1.164-.67-.843-.769-1.915-.638-2.637l.007-.035c.526-2.639 1.245-7.437 1.576-9.841l.004-.024c.09-.666.182-1.333.237-2.005.027-.338.045-.678.049-1.017.003-.321-.026-.642-.024-.962.004-.302.053-.608.194-.876.24-.433.631-.762 1.099-.922.489-.163 1-.23 1.509-.288.52-.063 1.041-.115 1.563-.156A26.52 26.52 0 0 1 11.917 2c1.091 0 2.191.017 3.267.24 1.097.225 2.205.658 3.07 1.415.593.52 1.063 1.173 1.417 1.89.31.632.436 1.296.51 1.803a7.54 7.54 0 0 1-.103 2.739 6.001 6.001 0 0 1-.794 1.845c-.412.64-.94 1.221-1.614 1.774.41 1.192 1.48 3.518 2.17 5.056zM7.573 4.435c.027.442.03.887.011 1.33-.02.453-.056.905-.108 1.355-.05.448-.11.896-.171 1.343l-.02.145a292.365 292.365 0 0 1-.604 4.187 233.763 233.763 0 0 1-.722 4.38c-.116.68-.375 1.55-.02 2.2.317.578 1.128.65 1.695.59 2.062-.21 2.39-.668 2.39-.668-.412-.456-.054-2.533.36-5.324h1.465l1.534 4.64s.452 1.436 1.708 1.367c1.61-.088 2.794-.457 2.965-.66-.496-.277-1.914-3.822-2.685-6.424a9.974 9.974 0 0 0 1.078-.754c.467-.38.9-.82 1.231-1.335.242-.372.419-.781.525-1.211a5.412 5.412 0 0 0 .066-1.94c-.059-.393-.144-.831-.32-1.185-.326-.664-.788-1.243-1.417-1.613-1.062-.625-2.287-.744-3.48-.809a22.03 22.03 0 0 0-3.882.127c-.145.017-1.605.146-1.598.258v.001zm3.945 1.796c-.246 1.737-.444 3.202-.8 5.48.961-.02 3.142.362 3.622-2.753.398-2.591-1.374-2.831-2.822-2.727z" />
</svg>
