<svg width="24" height="24" viewBox="0 0 24 24" fill="none" xmlns="http://www.w3.org/2000/svg">
<path fill-rule="evenodd" clip-rule="evenodd" d="M12.4618 4.11302C12.7925 4.28522 13 4.62713 13 5V10.0793L21.4265 4.18077C21.732 3.96694 22.1311 3.94083 22.4618 4.11302C22.7925 4.28522 23 4.62713 23 5V19C23 19.3729 22.7925 19.7148 22.4618 19.887C22.1311 20.0592 21.732 20.0331 21.4265 19.8192L13 13.9207V19C13 19.3729 12.7925 19.7148 12.4618 19.887C12.1311 20.0592 11.732 20.0331 11.4265 19.8192L1.42654 12.8192C1.15921 12.6321 1 12.3263 1 12C1 11.6737 1.15921 11.3679 1.42654 11.1808L11.4265 4.18077C11.732 3.96694 12.1311 3.94083 12.4618 4.11302ZM11 6.92066L3.74379 12L11 17.0793V6.92066ZM13.7438 12L21 17.0793V6.92066L13.7438 12Z" fill="black"/>
</svg>
