<svg
  width="24"
  height="24"
  viewBox="0 0 24 24"
  xmlns="http://www.w3.org/2000/svg"
>
  <path d="M6.932 2C5.209 2 3.798 3.353 3.798 5.025c-.002 4.605.001 9.57 0 13.952C3.798 20.65 5.21 22 6.932 22c1.722 0 3.135-1.35 3.135-3.023v-2.559l1.653-.001 3.025 4.15a2.916 2.916 0 0 0 2.363 1.182c.572 0 1.149-.163 1.653-.502 1.303-.879 1.619-2.609.705-3.863l-1.935-2.658c1.642-1.328 2.687-3.314 2.687-5.518C20.218 5.231 16.852 2 12.734 2H6.932zm1.183.502h4.62c3.858 0 6.983 3.011 6.983 6.706 0 2.037-.964 3.877-2.484 5.114l-1.373-1.886c.898-.809 1.473-1.948 1.473-3.228 0-2.451-2.066-4.435-4.6-4.435H9.806a2.68 2.68 0 0 0-.498-1.338 2.838 2.838 0 0 0-1.193-.933zm1.69 2.773h2.93c2.272 0 4.098 1.762 4.098 3.932 0 1.113-.49 2.109-1.265 2.825l-.175-.241a2.886 2.886 0 0 0-1.834-1.133c.53-.284.893-.827.893-1.45 0-.92-.778-1.662-1.718-1.662H9.566v3.327l2.255-.002a2.733 2.733 0 0 0-1.65 2.272l-2.989.004V7.775a2.93 2.93 0 0 0 1.417-.48 2.747 2.747 0 0 0 1.188-1.79c.014-.076.01-.152.016-.23h.001zm-5.506.857c.077.168.17.329.282.482.505.694 1.286 1.086 2.101 1.159v11.204c-.016.35.517.35.5 0v-5.329l2.992-.003c.045.463.199.922.495 1.33l.687.94-1.79.003v3.06c0 1.39-1.172 2.521-2.634 2.521s-2.634-1.13-2.634-2.521V6.131H4.3zm5.767 1.915h2.668c.678 0 1.216.525 1.216 1.161 0 .604-.49 1.117-1.13 1.159l-.09.002-2.663.002-.001-2.324z" />
</svg>
