<svg
  width="24"
  height="24"
  viewBox="0 0 24 24"
  xmlns="http://www.w3.org/2000/svg"
>
  <path
    fill-rule="evenodd"
    clip-rule="evenodd"
    d="M7 7c-1.457 0-2.948.435-4.485 1.357l-.858.515L.628 7.157l.858-.514C3.28 5.565 5.124 5 7 5c1.876 0 3.719.565 5.514 1.643C14.053 7.565 15.543 8 17 8c1.457 0 2.948-.435 4.485-1.357l.858-.515 1.029 1.715-.857.514C20.719 9.435 18.876 10 17 10s-3.719-.565-5.514-1.643C9.947 7.435 8.457 7 7 7z"
  />
  <path
    fill-rule="evenodd"
    clip-rule="evenodd"
    d="M7 17c-1.457 0-2.948.435-4.485 1.358l-.858.514-1.029-1.715.858-.515C3.28 15.565 5.124 15 7 15c1.876 0 3.719.565 5.514 1.642C14.053 17.566 15.543 18 17 18c1.457 0 2.948-.435 4.485-1.358l.858-.514 1.029 1.715-.857.515C20.719 19.434 18.876 20 17 20s-3.719-.565-5.514-1.642C9.947 17.434 8.457 17 7 17z"
  />
  <path
    fill-rule="evenodd"
    clip-rule="evenodd"
    d="M7 12c-1.457 0-2.948.435-4.485 1.357l-.858.515-1.029-1.715.858-.514C3.28 10.565 5.124 10 7 10c1.876 0 3.719.565 5.514 1.643C14.053 12.565 15.543 13 17 13c1.457 0 2.948-.435 4.485-1.357l.858-.515 1.029 1.715-.857.514C20.719 14.435 18.876 15 17 15s-3.719-.565-5.514-1.643C9.947 12.435 8.457 12 7 12z"
  />
</svg>
