<svg width="24" height="24" viewBox="0 0 24 24" fill="none" xmlns="http://www.w3.org/2000/svg">
<path d="M9 17.4C7.8 21 3 21 3 21C3 21 3 16.2 6.6 15" stroke="white" stroke-width="2" stroke-linecap="round" stroke-linejoin="round"/>
<path d="M21 3C21 3 17.851 3.266 16 4C14.553 4.573 13.133 5.735 11.9 7C9.633 9.326 8 12 8 12L12 16C12 16 14.674 14.367 17 12.1C18.265 10.867 19.427 9.447 20 8C20.733 6.149 21 3 21 3Z" stroke="white" stroke-width="2" stroke-linecap="round" stroke-linejoin="round"/>
<path d="M12 16.0001L13 21.0001H14L17 18.0001V12.1001" stroke="white" stroke-width="2" stroke-linecap="round" stroke-linejoin="round"/>
<path d="M8 12L3 11V10L6 7H11.9" stroke="white" stroke-width="2" stroke-linecap="round" stroke-linejoin="round"/>
</svg>
