<svg width="24" height="24" viewBox="0 0 24 24" fill="none" xmlns="http://www.w3.org/2000/svg">
<path d="M9 17.4C7.8 21 3 21 3 21C3 21 3 16.2 6.6 15" stroke="#1E293B" stroke-width="2" stroke-linecap="round" stroke-linejoin="round"/>
<path d="M21 3C21 3 17.8513 3.26648 16 4C14.5532 4.57326 13.1331 5.7352 11.9004 7C9.63329 9.32606 8 12 8 12L12 16C12 16 14.6739 14.3667 17 12.0996C18.2648 10.8669 19.4267 9.44681 20 8C20.7335 6.14873 21 3 21 3Z" stroke="#1E293B" stroke-width="2" stroke-linecap="round" stroke-linejoin="round"/>
<path d="M12 16L13 21H14L17 18V12.0996" stroke="#1E293B" stroke-width="2" stroke-linecap="round" stroke-linejoin="round"/>
<path d="M8 12L3 11L3 10L6 7H11.9004" stroke="#1E293B" stroke-width="2" stroke-linecap="round" stroke-linejoin="round"/>
</svg>
