<svg
  width="24"
  height="24"
  viewBox="0 0 24 24"
  xmlns="http://www.w3.org/2000/svg"
  fill="none"
  stroke="currentColor"
  stroke-width="2"
  stroke-linecap="round"
  stroke-linejoin="round"
>
  <path d="M11.56 3.162c-1.203.956-4.333 3.873-4.548 8.45-.1 2.117.424 4.59 2.05 7.388h5.926c1.594-2.799 2.103-5.272 1.999-7.39-.225-4.571-3.31-7.486-4.498-8.446a.743.743 0 0 0-.93-.002h.001z" />
  <path d="M7.012 11.612l-2.81 2.925a.72.72 0 0 0-.178.304.655.655 0 0 0-.003.34l1.34 5.23c.032.125.1.24.198.336a.88.88 0 0 0 .36.21c.14.042.289.053.434.032a.935.935 0 0 0 .397-.154L9.396 19" />
  <path d="M16.987 11.61l2.812 2.927c.083.085.144.19.177.304a.653.653 0 0 1 .003.34l-1.34 5.23a.722.722 0 0 1-.198.336.884.884 0 0 1-.36.21.994.994 0 0 1-.434.032.937.937 0 0 1-.397-.154L14.604 19" />
  <path d="M12 10h.01" />
  <path d="M10 22h4" />
</svg>
