<svg
  width="24"
  height="24"
  viewBox="0 0 24 24"
  xmlns="http://www.w3.org/2000/svg"
>
  <path d="M12 2c5.523 0 10 4.478 10 10 0 5.523-4.477 10-10 10-5.522 0-10-4.477-10-10C2 6.478 6.478 2 12 2zm-1.988 13.332c.146.537.13 1.04-.02 1.493l-.054.15a2.806 2.806 0 0 1-.527.822c-.582.632-1.393.872-1.742.67-.375-.218-.188-1.112.487-1.825.726-.764 1.766-1.257 1.766-1.257v-.002l.09-.051zm8.26-9.051c-.452-1.778-3.398-2.362-6.185-1.371-1.658.59-3.454 1.515-4.744 2.723-1.536 1.434-1.78 2.684-1.68 3.206.356 1.843 2.881 3.048 3.92 3.942v.005c-.306.15-2.547 1.274-3.072 2.437-.563 1.225.087 2.101.512 2.213 1.313.363 2.663-.3 3.388-1.374.7-1.051.638-2.401.337-3.064.413-.112.9-.162 1.525-.086 1.75.2 2.1 1.3 2.024 1.75-.075.449-.435.711-.561.786-.125.076-.163.1-.151.151.012.075.076.075.175.063.138-.025.913-.375.95-1.226.038-1.075-.988-2.274-2.812-2.25-.75.013-1.226.076-1.562.213a.301.301 0 0 0-.088-.087c-1.125-1.213-3.212-2.063-3.125-3.675.025-.588.238-2.137 4-4.012 3.088-1.538 5.551-1.112 5.976-.175.611 1.337-1.313 3.825-4.526 4.187-1.225.137-1.862-.337-2.026-.513-.174-.187-.199-.2-.261-.162-.1.05-.038.213 0 .313.1.25.487.688 1.163.912.587.188 2.025.3 3.75-.374 1.937-.75 3.45-2.838 3.012-4.588l.06.056z" />
</svg>
