<svg
  width="24"
  height="24"
  viewBox="0 0 24 24"
  xmlns="http://www.w3.org/2000/svg"
>
  <path
    fill-rule="evenodd"
    clip-rule="evenodd"
    d="M16.414 2.144c1.258.234 2.521.81 3.133 1.992.63 1.22.564 2.407.04 3.407-.495.944-1.36 1.65-2.228 2.124-.877.48-1.865.78-2.731.838-.43.03-.884.002-1.296-.133-.414-.136-.87-.413-1.123-.933a1.015 1.015 0 0 1-.062-.742.997.997 0 0 1 .461-.58.972.972 0 0 1 1.318.347.379.379 0 0 0 .01.004c.099.032.283.06.561.04.552-.037 1.269-.243 1.929-.603.667-.363 1.172-.827 1.422-1.304.222-.42.278-.908-.045-1.534-.197-.382-.727-.766-1.744-.956-.983-.183-2.231-.14-3.512.13-1.277.27-2.525.754-3.514 1.398-.999.65-1.65 1.406-1.9 2.19-.27.848-.174 1.445.069 1.935.268.538.757 1.036 1.431 1.57.327.257.674.506 1.04.77l.02.013c.365.262.751.54 1.11.828.305.244.614.514.9.818 1.273-.25 2.376-.223 3.282.197 1.164.541 1.747 1.607 2.022 2.814a1.015 1.015 0 0 1-.376 1.061.98.98 0 0 1-1.543-.61c-.197-.867-.52-1.257-.923-1.445-.296-.137-.739-.217-1.397-.155.607 2.165-.453 4.127-1.75 5.238-.699.6-1.553 1.036-2.41 1.122-.893.09-1.848-.214-2.41-1.162-.494-.837-.498-1.727-.24-2.52.248-.763.739-1.45 1.276-2.017a9.687 9.687 0 0 1 2.332-1.784c-.33-.259-.667-.51-1.01-.75l-.036-.027a29.664 29.664 0 0 1-1.096-.813c-.74-.585-1.513-1.304-1.98-2.246-.493-.99-.605-2.135-.185-3.453.44-1.383 1.493-2.465 2.71-3.259 1.228-.798 2.71-1.36 4.177-1.67 1.464-.31 2.975-.38 4.268-.14zM10.848 16.09a7.615 7.615 0 0 0-2.193 1.583c-.424.447-.704.883-.827 1.26-.113.346-.087.613.059.86.081.138.207.235.527.202.36-.036.853-.247 1.335-.66.92-.788 1.478-2.01 1.099-3.245z"
  />
</svg>
