<svg
  width="24"
  height="24"
  viewBox="0 0 24 24"
  xmlns="http://www.w3.org/2000/svg"
>
  <path
    fill-rule="evenodd"
    clip-rule="evenodd"
    d="M12 2a1 1 0 0 1 1 1v1.28l5 1.666 2.684-.895a1 1 0 0 1 .632 1.898l-2.051.683 2.684 8.052A1 1 0 0 1 21.6 16.8a6 6 0 0 1-7.2 0 1 1 0 0 1-.349-1.116l2.684-8.052L13 6.387V20h2a1 1 0 1 1 0 2H9a1 1 0 1 1 0-2h2V6.387L7.265 7.632l2.684 8.052A1 1 0 0 1 9.6 16.8a6 6 0 0 1-7.2 0 1 1 0 0 1-.349-1.116l2.684-8.052-2.051-.683a1 1 0 0 1 .632-1.898L6 5.946l5-1.667V3a1 1 0 0 1 1-1zm-6 8.162l-1.803 5.409a4 4 0 0 0 3.606 0L6 10.162zm12 0l-1.803 5.409a4 4 0 0 0 3.606 0L18 10.162z"
  />
</svg>
