<svg
  width="24"
  height="24"
  viewBox="0 0 24 24"
  xmlns="http://www.w3.org/2000/svg"
>
  <path d="M15.842 11.258v4.767a1.475 1.475 0 0 1-1.284 1.408h-3.333a1.19 1.19 0 0 1-1.092-1.016.894.894 0 0 1 0-.15 1.141 1.141 0 0 1 1.142-1.134h1.45a.834.834 0 0 0 .833-.833v-3.017a1.167 1.167 0 0 1 .984-1.158h.141a1.141 1.141 0 0 1 1.159 1.133zm-5.384 1.45V9.717a.833.833 0 0 1 .834-.834h1.541a1.142 1.142 0 0 0 1.142-1.141.817.817 0 0 0 0-.142 1.208 1.208 0 0 0-1.175-1H9.5a1.508 1.508 0 0 0-1.317 1.383v4.75a1.142 1.142 0 0 0 1.142 1.142H9.5a1.166 1.166 0 0 0 .958-1.167zm10-3.575v9.534A3.775 3.775 0 0 1 17 22h-6.317a7.142 7.142 0 0 1-7.133-7.142V5.783A3.783 3.783 0 0 1 7.333 2h5.984a7.133 7.133 0 0 1 7.133 7.133h.008zm-2.283 0a4.858 4.858 0 0 0-4.85-4.85H7.333a1.492 1.492 0 0 0-1.5 1.5v9.075a4.858 4.858 0 0 0 4.85 4.834h6.2a1.493 1.493 0 0 0 1.284-1.234l.008-9.325z" />
</svg>
