<svg width="24" height="24" viewBox="0 0 24 24" fill="none" xmlns="http://www.w3.org/2000/svg">
<path d="M10 18C10 19.6569 8.65685 21 7 21C5.34315 21 4 19.6569 4 18C4 16.3431 5.34315 15 7 15C8.65685 15 10 16.3431 10 18Z" stroke="#1E293B" stroke-width="2" stroke-linecap="round" stroke-linejoin="round"/>
<path d="M16.5 8.5L9.12131 15.8787" stroke="#1E293B" stroke-width="2" stroke-linecap="round" stroke-linejoin="round"/>
<path d="M14 18C14 19.6569 15.3431 21 17 21C18.6569 21 20 19.6569 20 18C20 16.3431 18.6569 15 17 15C15.3431 15 14 16.3431 14 18Z" stroke="#1E293B" stroke-width="2" stroke-linecap="round" stroke-linejoin="round"/>
<path d="M7.50001 8.5L14.8787 15.8787" stroke="#1E293B" stroke-width="2" stroke-linecap="round" stroke-linejoin="round"/>
<path d="M4 12V4H20V12" stroke="#1E293B" stroke-width="2" stroke-linecap="round" stroke-linejoin="round"/>
</svg>
