<svg
  width="24"
  height="24"
  viewBox="0 0 24 24"
  xmlns="http://www.w3.org/2000/svg"
>
  <g clip-path="url(#a)">
    <path
      fill-rule="evenodd"
      clip-rule="evenodd"
      d="M23.707.293a1 1 0 0 1 0 1.414L18.84 6.575A8.964 8.964 0 0 1 20 11a8.966 8.966 0 0 1-1.968 5.618l3.675 3.675a1 1 0 0 1-1.414 1.414l-3.675-3.675A8.966 8.966 0 0 1 11 20a8.964 8.964 0 0 1-4.425-1.161l-4.868 4.868a1 1 0 0 1-1.414-1.414l22-22a1 1 0 0 1 1.414 0zM8.06 17.355A6.97 6.97 0 0 0 11 18a6.975 6.975 0 0 0 4.95-2.05A6.975 6.975 0 0 0 18 11a6.97 6.97 0 0 0-.645-2.94L8.06 17.355zM11 4a7 7 0 0 0-6.087 10.46 1 1 0 0 1-1.737.99A9 9 0 0 1 15.45 3.175a1 1 0 0 1-.99 1.738A6.963 6.963 0 0 0 11 4z"
    />
  </g>
  <defs>
    <clipPath id="a">
      <rect width="24" height="24" />
    </clipPath>
  </defs>
</svg>
