<svg
  width="24"
  height="24"
  viewBox="0 0 24 24"
  xmlns="http://www.w3.org/2000/svg"
>
  <path
    fill-rule="evenodd"
    clip-rule="evenodd"
    d="M1 3a1 1 0 0 1 1-1h3.333c2.02 0 3.965.767 5.405 2.144a7.262 7.262 0 0 1 2.23 4.548c.094-.101.192-.2.293-.298a7.825 7.825 0 0 1 5.406-2.144H22a1 1 0 0 1 1 1v1.063c0 1.97-.82 3.85-2.262 5.23a7.824 7.824 0 0 1-5.405 2.145H13V21a1 1 0 1 1-2 0v-8.5H8.667a7.824 7.824 0 0 1-5.405-2.145C1.818 8.976 1 7.095 1 5.125V3zm10 7.5H8.667a5.825 5.825 0 0 1-4.023-1.59C3.586 7.898 3 6.536 3 5.125V4h2.333c1.517 0 2.964.577 4.023 1.59C10.414 6.602 11 7.964 11 9.375V10.5zm2 3.125v.063h2.333a5.825 5.825 0 0 0 4.023-1.59C20.414 11.086 21 9.723 21 8.312V8.25h-2.333a5.825 5.825 0 0 0-4.023 1.59C13.586 10.852 13 12.214 13 13.625z"
  />
</svg>
