<svg width="24" height="24" viewBox="0 0 24 24" fill="none" xmlns="http://www.w3.org/2000/svg">
<path fill-rule="evenodd" clip-rule="evenodd" d="M2.47427 2.14935C2.76909 1.96714 3.13723 1.95058 3.44721 2.10557L21.4472 11.1056C21.786 11.275 22 11.6212 22 12C22 12.3788 21.786 12.725 21.4472 12.8944L3.44721 21.8944C3.13723 22.0494 2.76909 22.0329 2.47427 21.8507C2.17945 21.6684 2 21.3466 2 21V3C2 2.65342 2.17945 2.33156 2.47427 2.14935ZM4 4.61804V11H9C9.55228 11 10 11.4477 10 12C10 12.5523 9.55228 13 9 13H4V19.382L18.7639 12L4 4.61804Z" fill="black"/>
</svg>
