<svg width="24" height="24" viewBox="0 0 24 24" fill="none" xmlns="http://www.w3.org/2000/svg">
<path fill-rule="evenodd" clip-rule="evenodd" d="M3 4C3 3.44772 3.44772 3 4 3H20C20.5523 3 21 3.44772 21 4V20C21 20.5523 20.5523 21 20 21H4C3.44772 21 3 20.5523 3 20V4ZM5 5V11H19V5H5ZM19 13H5V19H19V13ZM7 8C7 7.44772 7.44772 7 8 7H9C9.55228 7 10 7.44772 10 8C10 8.55228 9.55228 9 9 9H8C7.44772 9 7 8.55228 7 8ZM7 16C7 15.4477 7.44772 15 8 15H9C9.55228 15 10 15.4477 10 16C10 16.5523 9.55228 17 9 17H8C7.44772 17 7 16.5523 7 16Z" fill="black"/>
</svg>
