<svg
  width="24"
  height="24"
  viewBox="0 0 24 24"
  xmlns="http://www.w3.org/2000/svg"
>
  <path d="M3.161 4.47a6.5 6.5 0 0 1 8.84-.329 6.5 6.5 0 0 1 9.178 9.154l-7.765 7.79a2 2 0 0 1-2.719.102l-.11-.1-7.764-7.792a6.5 6.5 0 0 1 .34-8.826zm1.414 1.413a4.5 4.5 0 0 0-.146 6.21l.146.154L12 19.672l5.303-5.304-3.535-3.535-1.06 1.06a3.001 3.001 0 0 1-4.244-4.242l2.102-2.103a4.501 4.501 0 0 0-5.837.19l-.154.145zm8.486 2.828a1 1 0 0 1 1.414 0l4.242 4.242.708-.706a4.5 4.5 0 0 0-6.211-6.51l-.153.146-3.182 3.182a1 1 0 0 0-.078 1.327l.078.087a1 1 0 0 0 1.327.078l.087-.078 1.768-1.768z" />
</svg>
