<svg
  width="24"
  height="24"
  viewBox="0 0 24 24"
  xmlns="http://www.w3.org/2000/svg"
>
  <path
    fill-rule="evenodd"
    clip-rule="evenodd"
    d="M11.293 1.293a1 1 0 0 1 1.414 0L15.414 4H19a1 1 0 0 1 1 1v3.586l2.707 2.707a1 1 0 0 1 0 1.414L20 15.414V19a1 1 0 0 1-1 1h-3.586l-2.707 2.707a1 1 0 0 1-1.414 0L8.586 20H5a1 1 0 0 1-1-1v-3.586l-2.707-2.707a1 1 0 0 1 0-1.414L4 8.586V5a1 1 0 0 1 1-1h3.586l2.707-2.707zM12 3.414L9.707 5.707A1 1 0 0 1 9 6H6v3a1 1 0 0 1-.293.707L3.414 12l2.293 2.293A1 1 0 0 1 6 15v3h3a1 1 0 0 1 .707.293L12 20.586l2.293-2.293A1 1 0 0 1 15 18h3v-3a1 1 0 0 1 .293-.707L20.586 12l-2.293-2.293A1 1 0 0 1 18 9V6h-3a1 1 0 0 1-.707-.293L12 3.414zM12 10a2 2 0 1 0 0 4 2 2 0 0 0 0-4zm-4 2a4 4 0 1 1 8 0 4 4 0 0 1-8 0z"
  />
</svg>
