<svg
  width="24"
  height="24"
  viewBox="0 0 24 24"
  xmlns="http://www.w3.org/2000/svg"
>
  <path
    fill-rule="evenodd"
    clip-rule="evenodd"
    d="M2 3a1 1 0 0 1 1-1h4a1 1 0 0 1 1 1v1h8V3a1 1 0 0 1 1-1h4a1 1 0 0 1 1 1v4a1 1 0 0 1-1 1h-1v8h1a1 1 0 0 1 1 1v4a1 1 0 0 1-1 1h-4a1 1 0 0 1-1-1v-1H8v1a1 1 0 0 1-1 1H3a1 1 0 0 1-1-1v-4a1 1 0 0 1 1-1h1V8H3a1 1 0 0 1-1-1V3zm4 5v8h1a1 1 0 0 1 1 1v1h8v-1a1 1 0 0 1 1-1h1V8h-1a1 1 0 0 1-1-1V6H8v1a1 1 0 0 1-1 1H6zm0-4H4v2h2V4zm14 2V4h-2v2h2zm-2 14h2v-2h-2v2zM4 18v2h2v-2H4z"
  />
</svg>
