<svg
  width="24"
  height="24"
  viewBox="0 0 24 24"
  xmlns="http://www.w3.org/2000/svg"
>
  <path
    fill-rule="evenodd"
    clip-rule="evenodd"
    d="M17.751 19.166l4.542 4.541 1.414-1.414-22-22L.293 1.707 3 4.414v9.376a6 6 0 0 0 2.672 4.991L12 23l5.751-3.834zm-1.442-1.442L5 6.414v7.375a4 4 0 0 0 1.781 3.328L12 20.597l4.31-2.873z"
  />
  <path d="M20.29 16.62l-.091.164-1.492-1.491c.193-.476.293-.987.293-1.503V4.604L12 3.05 7.47 4.056 5.793 2.379 12 1l8.217 1.826a1 1 0 0 1 .783.976v9.987a6 6 0 0 1-.71 2.831z" />
</svg>
