<svg
  width="24"
  height="24"
  viewBox="0 0 24 24"
  xmlns="http://www.w3.org/2000/svg"
>
  <g clip-path="url(#a)">
    <path
      fill-rule="evenodd"
      clip-rule="evenodd"
      d="M.293.293a1 1 0 0 1 1.414 0l22 22a1 1 0 0 1-1.414 1.414l-4.64-4.64c-1.075 1.091-2.23 1.97-3.165 2.602a22.779 22.779 0 0 1-1.873 1.138 9.734 9.734 0 0 1-.12.063l-.033.017-.01.005-.003.002h-.001L12 22l-.448.894-.003-.001-.006-.004-.022-.01a8.28 8.28 0 0 1-.35-.188 22.686 22.686 0 0 1-3.83-2.689C5.281 18.2 3 15.447 3 12V5c0-.167.042-.328.117-.469L.293 1.707a1 1 0 0 1 0-1.414zM5 6.414V12c0 2.554 1.718 4.8 3.659 6.497A20.692 20.692 0 0 0 12 20.863l.051-.03c.325-.185.785-.461 1.316-.82.873-.59 1.918-1.39 2.871-2.36L5 6.414zM12 22l-.448.894c.282.14.614.14.896 0L12 22zm-.351-20.936a1 1 0 0 1 .702 0l8 3A1 1 0 0 1 21 5v7a8.14 8.14 0 0 1-.538 2.878 1 1 0 1 1-1.872-.704c.262-.695.41-1.42.41-2.174V5.693l-7-2.625L8.715 4.3a1 1 0 0 1-.702-1.873l3.636-1.363z"
    />
  </g>
  <defs>
    <clipPath id="a">
      <rect width="24" height="24" />
    </clipPath>
  </defs>
</svg>
