<svg
  width="24"
  height="24"
  viewBox="0 0 24 24"
  xmlns="http://www.w3.org/2000/svg"
>
  <path
    fill-rule="evenodd"
    clip-rule="evenodd"
    d="M18.61 2.076a1 1 0 0 1 1.089.216l2.007 2a1 1 0 0 1 0 1.416l-2.007 2A1 1 0 0 1 17.993 7v-.93c-3.081.438-5.517 2.866-5.956 5.93.44 3.065 2.875 5.492 5.956 5.93V17a1 1 0 0 1 1.706-.708l2.007 2a1 1 0 0 1 0 1.416l-2.007 2A1 1 0 0 1 17.993 21v-1.055a9.032 9.032 0 0 1-6.996-4.764A9.03 9.03 0 0 1 3 20a1 1 0 1 1 0-2c3.543 0 6.47-2.61 6.957-6C9.47 8.61 6.543 6 3 6a1 1 0 0 1 0-2 9.03 9.03 0 0 1 7.996 4.82 9.032 9.032 0 0 1 6.997-4.765V3a1 1 0 0 1 .617-.924z"
  />
</svg>
