<svg width="24" height="24" viewBox="0 0 24 24" fill="none" xmlns="http://www.w3.org/2000/svg">
<path fill-rule="evenodd" clip-rule="evenodd" d="M12 2C12.5523 2 13 2.44772 13 3V11C13 11.5523 12.5523 12 12 12C11.4477 12 11 11.5523 11 11V3C11 2.44772 11.4477 2 12 2ZM7.12003 4.37095C7.46745 4.80028 7.40104 5.42996 6.97171 5.77737C5.15726 7.24562 4 9.4873 4 12C4 16.4183 7.58172 20 12 20C16.4183 20 20 16.4183 20 12C20 9.4873 18.8427 7.24562 17.0283 5.77737C16.599 5.42996 16.5326 4.80028 16.88 4.37095C17.2274 3.94163 17.8571 3.87522 18.2864 4.22263C20.5499 6.05429 22 8.85817 22 12C22 17.5228 17.5228 22 12 22C6.47715 22 2 17.5228 2 12C2 8.85817 3.45007 6.05429 5.71362 4.22263C6.14295 3.87522 6.77262 3.94163 7.12003 4.37095Z" fill="black"/>
</svg>
