<svg
  width="24"
  height="24"
  viewBox="0 0 24 24"
  xmlns="http://www.w3.org/2000/svg"
>
  <path d="M12.057 17.728c-3.352 0-4.85-1.649-4.85-2.886 0-.638.468-1.08 1.111-1.08 1.436 0 1.061 2.064 3.74 2.064 1.367 0 2.124-.746 2.124-1.51 0-.459-.224-.966-1.128-1.19l-2.98-.746c-2.4-.603-2.836-1.905-2.836-3.126 0-2.539 2.384-3.492 4.624-3.492 2.06 0 4.495 1.144 4.495 2.666 0 .653-.574 1.033-1.211 1.033-1.224 0-.999-1.698-3.47-1.698-1.224 0-1.91.554-1.91 1.348s.96 1.048 1.797 1.239l2.198.49c2.409.54 3.02 1.954 3.02 3.286 0 2.063-1.585 3.603-4.769 3.603h.045zm9.192-4.067l-.024.112-.037-.2c.013.038.037.062.05.1.1-.562.15-1.136.15-1.71a9.432 9.432 0 0 0-2.77-6.68 9.567 9.567 0 0 0-2.996-2.021c-1.099-.526-2.335-.775-3.607-.775-.6 0-1.203.058-1.786.17l.1.05-.2-.028.1-.02a5.556 5.556 0 0 0-6.567.98 5.566 5.566 0 0 0-1.635 3.958c0 .952.243 1.887.703 2.715l.017-.104.034.2-.05-.096a9.51 9.51 0 0 0 .593 5.31 9.107 9.107 0 0 0 2.023 3.006 9.438 9.438 0 0 0 2.995 2.035c1.162.5 2.398.749 3.67.749.55 0 1.112-.05 1.648-.15l-.1-.051.2.038-.112.025a5.535 5.535 0 0 0 2.745.726 5.534 5.534 0 0 0 3.944-1.636 5.57 5.57 0 0 0 1.635-3.957c0-.949-.249-1.885-.71-2.722" />
</svg>
