<svg width="24" height="24" viewBox="0 0 24 24" fill="none" xmlns="http://www.w3.org/2000/svg">
<path fill-rule="evenodd" clip-rule="evenodd" d="M13.6051 2.20388C13.8539 2.39298 14 2.68751 14 3.00001V6.34061L20.3939 9.08086C20.7616 9.23844 21 9.59998 21 10V20H22C22.5523 20 23 20.4477 23 21C23 21.5523 22.5523 22 22 22H2C1.44772 22 1 21.5523 1 21C1 20.4477 1.44772 20 2 20H3V5.50001C3 5.0508 3.29954 4.65672 3.73236 4.53649L12.7324 2.03649C13.0335 1.95285 13.3563 2.01478 13.6051 2.20388ZM5 20H12V4.31565L5 6.26009V20ZM14 20H19V10.6594L14 8.51655V20Z" fill="black"/>
</svg>
