<svg
  width="24"
  height="24"
  viewBox="0 0 24 24"
  xmlns="http://www.w3.org/2000/svg"
>
  <path d="M6.202 14.637a2.107 2.107 0 0 1-2.1 2.103A2.107 2.107 0 0 1 2 14.638a2.106 2.106 0 0 1 2.102-2.1h2.1v2.1zm1.059 0a2.106 2.106 0 0 1 2.1-2.1 2.106 2.106 0 0 1 2.101 2.1v5.261A2.107 2.107 0 0 1 9.363 22a2.107 2.107 0 0 1-2.101-2.102v-5.26zm2.1-8.435a2.107 2.107 0 0 1-2.1-2.1A2.107 2.107 0 0 1 9.36 2a2.107 2.107 0 0 1 2.101 2.102v2.1h-2.1zm0 1.059a2.107 2.107 0 0 1 2.101 2.1 2.107 2.107 0 0 1-2.1 2.101h-5.26A2.107 2.107 0 0 1 2 9.363 2.107 2.107 0 0 1 4.102 7.26h5.26zm8.436 2.1a2.107 2.107 0 0 1 2.101-2.1A2.107 2.107 0 0 1 22 9.36a2.107 2.107 0 0 1-2.102 2.101h-2.101v-2.1zm-1.057 0a2.107 2.107 0 0 1-2.102 2.101 2.106 2.106 0 0 1-2.1-2.1v-5.26A2.106 2.106 0 0 1 14.637 2a2.107 2.107 0 0 1 2.102 2.102v5.26zm-2.102 8.436a2.107 2.107 0 0 1 2.102 2.101A2.107 2.107 0 0 1 14.638 22a2.105 2.105 0 0 1-2.1-2.102v-2.101h2.1zm0-1.057a2.105 2.105 0 0 1-2.1-2.102 2.105 2.105 0 0 1 2.1-2.1h5.26a2.105 2.105 0 0 1 2.102 2.1 2.107 2.107 0 0 1-2.102 2.102h-5.26z" />
</svg>
