<svg
  width="24"
  height="24"
  viewBox="0 0 24 24"
  xmlns="http://www.w3.org/2000/svg"
>
  <g clip-path="url(#a)">
    <path
      fill-rule="evenodd"
      clip-rule="evenodd"
      d="M.293.293a1 1 0 0 1 1.414 0l22 22a1 1 0 0 1-1.414 1.414L16.586 18H2a1 1 0 0 1-1-1v-4a1 1 0 0 1 1-1h8.586L.293 1.707a1 1 0 0 1 0-1.414zM12.586 14H8v2h6.586l-2-2zM6 16v-2H3v2h3zM17 2a1 1 0 0 1 1 1v1a1 1 0 0 0 1 1 3 3 0 0 1 3 3v1a1 1 0 1 1-2 0V8a1 1 0 0 0-1-1 3 3 0 0 1-3-3V3a1 1 0 0 1 1-1zm0 11a1 1 0 0 1 1-1h4a1 1 0 0 1 1 1v4a1 1 0 1 1-2 0v-3h-3a1 1 0 0 1-1-1z"
    />
  </g>
  <defs>
    <clipPath id="a">
      <rect width="24" height="24" />
    </clipPath>
  </defs>
</svg>
