<svg width="24" height="24" viewBox="0 0 24 24" fill="none" xmlns="http://www.w3.org/2000/svg">
<g clip-path="url(#clip0)">
<path fill-rule="evenodd" clip-rule="evenodd" d="M0.292893 0.292893C0.683417 -0.0976311 1.31658 -0.0976311 1.70711 0.292893L23.7071 22.2929C24.0976 22.6834 24.0976 23.3166 23.7071 23.7071C23.3166 24.0976 22.6834 24.0976 22.2929 23.7071L16.5858 18H2C1.44772 18 1 17.5523 1 17V13C1 12.4477 1.44772 12 2 12H10.5858L0.292893 1.70711C-0.0976311 1.31658 -0.0976311 0.683417 0.292893 0.292893ZM12.5858 14H8V16H14.5858L12.5858 14ZM6 16V14H3V16H6ZM17 2C17.5523 2 18 2.44772 18 3V4C18 4.26522 18.1054 4.51957 18.2929 4.70711C18.4804 4.89464 18.7348 5 19 5C19.7957 5 20.5587 5.31607 21.1213 5.87868C21.6839 6.44129 22 7.20435 22 8V9C22 9.55229 21.5523 10 21 10C20.4477 10 20 9.55229 20 9V8C20 7.73478 19.8946 7.48043 19.7071 7.29289C19.5196 7.10536 19.2652 7 19 7C18.2043 7 17.4413 6.68393 16.8787 6.12132C16.3161 5.55871 16 4.79565 16 4V3C16 2.44772 16.4477 2 17 2ZM17 13C17 12.4477 17.4477 12 18 12H22C22.5523 12 23 12.4477 23 13V17C23 17.5523 22.5523 18 22 18C21.4477 18 21 17.5523 21 17V14H18C17.4477 14 17 13.5523 17 13Z" fill="black"/>
</g>
<defs>
<clipPath id="clip0">
<rect width="24" height="24" fill="white"/>
</clipPath>
</defs>
</svg>
