<svg
  width="24"
  height="24"
  viewBox="0 0 24 24"
  xmlns="http://www.w3.org/2000/svg"
>
  <path
    fill-rule="evenodd"
    clip-rule="evenodd"
    d="M12 23a1 1 0 0 0 1-1v-1.446l.47.294a1 1 0 0 0 1.06-1.696L13 18.196v-2.078l2-1 2 1V18a1 1 0 1 0 2 0v-.882l1.553.776a1 1 0 1 0 .894-1.788l-1.553-.777.706-.529a1 1 0 0 0-1.2-1.6l-1.506 1.13L16 13.381v-2.764l1.894-.947L19.4 10.8a1 1 0 0 0 1.2-1.6l-.706-.53 1.553-.776a1 1 0 1 0-.894-1.788L19 6.882V6a1 1 0 1 0-2 0v1.882l-2 1-2-1V5.804l1.53-.956a1 1 0 0 0-1.06-1.696l-.47.294V2a1 1 0 1 0-2 0v1.446l-.47-.294a1 1 0 0 0-1.06 1.696l1.53.956v2.078l-2 1-2-1V6a1 1 0 1 0-2 0v.882l-1.553-.776a1 1 0 0 0-.894 1.788l1.553.777L3.4 9.2a1 1 0 0 0 1.2 1.6l1.506-1.13L8 10.619v2.764l-1.894.947L4.6 13.2a1 1 0 0 0-1.2 1.6l.706.53-1.553.776a1 1 0 1 0 .894 1.788L5 17.118V18a1 1 0 1 0 2 0v-1.882l2-1 2 1v2.078l-1.53.956a1 1 0 1 0 1.06 1.696l.47-.294V22a1 1 0 0 0 1 1zm0-8.618l-2-1v-2.764l2-1 2 1v2.764l-2 1z"
  />
</svg>
