<svg
  width="24"
  height="24"
  viewBox="0 0 24 24"
  xmlns="http://www.w3.org/2000/svg"
  fill="none"
  stroke="currentColor"
  stroke-width="2"
  stroke-linecap="round"
  stroke-linejoin="round"
>
  <path d="M9 10l3-1.5 3 1.5v4l-3 1.5L9 14v-4z" />
  <path d="M12 8.5V2" />
  <path d="M12 22v-6.5" />
  <path d="M12 22v-6.5" />
  <path d="M12 19l-2 1" />
  <path d="M12 19l2 1" />
  <path d="M12 2v6.5" />
  <path d="M12 5l2-1" />
  <path d="M12 5l-2-1" />
  <path d="M3.34 17l5.629-3.25" />
  <path d="M5.938 15.5l-1.866-1.232" />
  <path d="M5.938 15.5l.134 2.232" />
  <path d="M20.66 7l-5.629 3.25" />
  <path d="M18.062 8.5l1.866 1.232" />
  <path d="M18.062 8.5l-.134-2.232" />
  <path d="M3.34 7l5.629 3.25" />
  <path d="M5.938 8.5l.134-2.232" />
  <path d="M5.938 8.5L4.072 9.732" />
  <path d="M20.66 17l-5.629-3.25" />
  <path d="M18.062 15.5l-.134 2.232" />
  <path d="M18.062 15.5l1.866-1.232" />
</svg>
