<svg
  width="24"
  height="24"
  viewBox="0 0 24 24"
  xmlns="http://www.w3.org/2000/svg"
>
  <path
    fill-rule="evenodd"
    clip-rule="evenodd"
    d="M13 1v2.382l1.447-.724.895 1.79L13 5.617V7.92l2.04 1.17 1.987-1.148-.157-2.613 1.996-.12.097 1.615 2.063-1.191 1 1.732-2.063 1.191 1.35.892-1.101 1.669-2.185-1.443-1.994 1.151.007 2.352 1.987 1.147 2.185-1.443 1.102 1.67-1.35.891 2.062 1.191-1 1.732-2.063-1.191-.097 1.615-1.996-.12.157-2.613-1.994-1.151L13 16.088v2.294l2.342 1.17-.895 1.79L13 20.618V23h-2v-2.382l-1.447.724-.895-1.79L11 18.383V16.08l-2.04-1.17-1.987 1.148.157 2.613-1.996.12-.097-1.615-2.063 1.191-1-1.732 2.063-1.191-1.35-.891 1.101-1.67 2.185 1.443 1.994-1.151-.007-2.352-1.987-1.147-2.185 1.443-1.102-1.67 1.35-.891-2.062-1.191 1-1.732 2.063 1.191.097-1.615 1.996.12-.157 2.613 1.994 1.151L11 7.912V5.618l-2.342-1.17.895-1.79L11 3.382V1h2zm-1.007 8.649L9.96 10.83l.007 2.35 2.04 1.17 2.033-1.182-.007-2.35-2.04-1.17z"
  />
</svg>
