<svg
  width="24"
  height="24"
  viewBox="0 0 24 24"
  xmlns="http://www.w3.org/2000/svg"
>
  <path
    fill-rule="evenodd"
    clip-rule="evenodd"
    d="M12 4a1 1 0 1 0 0 2 1 1 0 0 0 0-2zM9 5a3 3 0 1 1 4 2.83v2.296a4.002 4.002 0 0 1 2.733 5.312l1.547 1.104a3 3 0 1 1-1.163 1.627l-1.547-1.104A3.985 3.985 0 0 1 12 18a3.985 3.985 0 0 1-2.57-.935l-1.547 1.104a3 3 0 1 1-1.163-1.627l1.547-1.104A4.002 4.002 0 0 1 11 10.126V7.829A3.001 3.001 0 0 1 9 5zm3 7a2 2 0 1 0 0 4 2 2 0 0 0 0-4zm-7 6a1 1 0 1 0 0 2 1 1 0 0 0 0-2zm14 0a.998.998 0 0 0-1 1 1 1 0 1 0 1-1z"
  />
</svg>
