<svg
  width="24"
  height="24"
  viewBox="0 0 24 24"
  xmlns="http://www.w3.org/2000/svg"
>
  <path
    fill-rule="evenodd"
    clip-rule="evenodd"
    d="M12 4a1 1 0 1 0 0 2 1 1 0 0 0 0-2zM9 5a3 3 0 1 1 4 2.83v2.296a4.002 4.002 0 0 1 2.73 5.323l1.54 1.1a3 3 0 1 1-1.156 1.632l-1.553-1.108A3.984 3.984 0 0 1 12 18a3.984 3.984 0 0 1-2.561-.927L7.887 18.18A3.002 3.002 0 0 1 5 22a3 3 0 1 1 1.73-5.45l1.54-1.1A4.002 4.002 0 0 1 11 10.126V7.828A3.001 3.001 0 0 1 9 5zm3 7a2 2 0 1 0 0 4 2 2 0 0 0 0-4zm-7 6a1 1 0 1 0 0 2 1 1 0 0 0 0-2zm14 0a1 1 0 1 0 0 2 1 1 0 0 0 0-2z"
  />
</svg>
