<svg
  width="24"
  height="24"
  viewBox="0 0 24 24"
  xmlns="http://www.w3.org/2000/svg"
>
  <path d="M11.947 2.013c-.836.003-1.67.108-2.48.315-3.9.97-6.994 4.503-7.391 8.509-.492 3.79 1.423 7.738 4.703 9.695 3.218 2.015 7.578 1.934 10.729-.185 2.83-1.839 4.593-5.19 4.488-8.571-.048-3.347-1.925-6.598-4.8-8.317-1.568-.967-3.41-1.453-5.25-1.446zm-.053 1.414c4.121-.006 8.158 3.178 8.568 7.437.788 4.717-3.127 9.51-7.906 9.65-4.545.453-8.938-3.4-9.067-7.964-.339-3.695 2.097-7.363 5.582-8.583a7.594 7.594 0 0 1 2.823-.54zm4.243 2.687c-2.24 1.738-4.384 3.59-6.574 5.38 1.002.015 2.01.014 3.017.01 1.175-1.805 2.383-3.585 3.557-5.39zm-4.721 6.378c-1.175 1.805-2.383 3.591-3.558 5.395 2.244-1.733 4.379-3.6 6.585-5.38a215.034 215.034 0 0 0-3.027-.015z" />
</svg>
