<svg width="24" height="24" viewBox="0 0 24 24" fill="none" xmlns="http://www.w3.org/2000/svg">
<path d="M12 8H3V14H12L18 19V4L12 8Z" stroke="white" stroke-width="2" stroke-linecap="round" stroke-linejoin="round"/>
<path d="M10 8V14" stroke="white" stroke-width="2" stroke-linecap="round" stroke-linejoin="round"/>
<path d="M7 14V20H10V14" stroke="white" stroke-width="2" stroke-linecap="round" stroke-linejoin="round"/>
<path d="M18 14C18.394 14 18.7841 13.9224 19.1481 13.7716C19.512 13.6209 19.8427 13.3999 20.1213 13.1213C20.3999 12.8427 20.6209 12.512 20.7716 12.1481C20.9224 11.7841 21 11.394 21 11C21 10.606 20.9224 10.2159 20.7716 9.85195C20.6209 9.48797 20.3999 9.15726 20.1213 8.87868C19.8427 8.6001 19.512 8.37913 19.1481 8.22836C18.7841 8.0776 18.394 8 18 8" stroke="white" stroke-width="2" stroke-linecap="round" stroke-linejoin="round"/>
</svg>
