<svg
  width="24"
  height="24"
  viewBox="0 0 24 24"
  xmlns="http://www.w3.org/2000/svg"
>
  <g clip-path="url(#a)">
    <path
      fill-rule="evenodd"
      clip-rule="evenodd"
      d="M.293.293a1 1 0 0 1 1.414 0l22 22a1 1 0 0 1-1.414 1.414l-3.824-3.824-.045.023a1 1 0 0 1-1.064-.138L11.638 15H11v5a1 1 0 0 1-1 1H7a1 1 0 0 1-1-1v-5H3a1 1 0 0 1-1-1V8a1 1 0 0 1 1-1h2.586L.293 1.707a1 1 0 0 1 0-1.414zM7.586 9H4v4h5v-2.586L7.586 9zM11 12.414V13h.586L11 12.414zM9 15H8v4h1v-4zm9.472-11.882A1 1 0 0 1 19 4v3.126a4.002 4.002 0 0 1 .162 7.702 1 1 0 0 1-.998-.25l-.871-.87A1 1 0 0 1 17 13V5.869l-3.845 2.563a1 1 0 1 1-1.11-1.664l5.4-3.6a1 1 0 0 1 1.027-.05zM19 9.268v3.318l.091.09A2 2 0 0 0 19 9.269z"
    />
  </g>
  <defs>
    <clipPath id="a">
      <rect width="24" height="24" />
    </clipPath>
  </defs>
</svg>
