<svg
  width="24"
  height="24"
  viewBox="0 0 24 24"
  xmlns="http://www.w3.org/2000/svg"
>
  <path d="M6.85 7.64a.952.952 0 0 0 1.11 1.132 9.6 9.6 0 0 1 1.426-.126c.898-.025 2.102.04 3.356.375a11.92 11.92 0 0 1 3.095 1.353c.412.243.803.517 1.171.822a.952.952 0 0 0 1.567-.795.962.962 0 0 0-.325-.651c-.44-.375-.927-.699-1.418-1-.87-.534-2.116-1.173-3.597-1.569-1.481-.397-2.879-.467-3.899-.44-.58.015-1.157.063-1.729.158a.953.953 0 0 0-.757.741z" />
  <path d="M7.062 12.271a.953.953 0 0 0 .721.056 6.26 6.26 0 0 1 1.046-.178c.712-.06 1.747-.038 2.995.295a8.845 8.845 0 0 1 2.743 1.241c.293.197.566.423.813.676a.964.964 0 0 0 1.344.087.952.952 0 0 0 .09-1.344c-.351-.369-.74-.7-1.162-.985-.742-.513-1.847-1.116-3.334-1.515-1.487-.398-2.746-.429-3.645-.355-.501.042-1.02.11-1.498.273a.953.953 0 0 0-.113 1.75v-.001z" />
  <path d="M6.289 14.649a.953.953 0 0 1 .446-.57c.41-.197.85-.323 1.302-.372.777-.099 1.888-.075 3.363.32 1.477.396 2.45.931 3.074 1.405.367.268.686.597.942.972a.953.953 0 0 1-.343 1.303c-.462.27-.996.095-1.291-.322-.021-.03-.15-.2-.46-.435-.41-.313-1.156-.745-2.414-1.082-1.26-.337-2.122-.335-2.633-.27-.206.025-.427.06-.617.148a.953.953 0 0 1-1.369-1.097z" />
  <path
    fill-rule="evenodd"
    clip-rule="evenodd"
    d="M12 2C6.477 2 2 6.477 2 12s4.477 10 10 10 10-4.477 10-10S17.523 2 12 2zM4 12a8 8 0 1 1 16 0 8 8 0 0 1-16 0z"
  />
</svg>
