<svg width="24" height="24" viewBox="0 0 24 24" fill="none" xmlns="http://www.w3.org/2000/svg">
<path fill-rule="evenodd" clip-rule="evenodd" d="M8.5 5C7.11929 5 6 6.11929 6 7.5V10H18V7.5C18 6.11929 16.8807 5 15.5 5H8.5ZM20 10V7.5C20 5.01472 17.9853 3 15.5 3H8.5C6.01472 3 4 5.01472 4 7.5V10H3C2.44772 10 2 10.4477 2 11C2 11.5523 2.44772 12 3 12H21C21.5523 12 22 11.5523 22 11C22 10.4477 21.5523 10 21 10H20ZM7 15C5.89543 15 5 15.8954 5 17C5 18.1046 5.89543 19 7 19C8.10457 19 9 18.1046 9 17C9 15.8954 8.10457 15 7 15ZM3 17C3 14.7909 4.79086 13 7 13C8.86384 13 10.4299 14.2748 10.874 16H13.126C13.5701 14.2748 15.1362 13 17 13C19.2091 13 21 14.7909 21 17C21 19.2091 19.2091 21 17 21C15.1362 21 13.5701 19.7252 13.126 18H10.874C10.4299 19.7252 8.86384 21 7 21C4.79086 21 3 19.2091 3 17ZM17 15C15.8954 15 15 15.8954 15 17C15 18.1046 15.8954 19 17 19C18.1046 19 19 18.1046 19 17C19 15.8954 18.1046 15 17 15Z" fill="black"/>
</svg>
