<svg width="24" height="24" viewBox="0 0 24 24" fill="none" xmlns="http://www.w3.org/2000/svg">
<path d="M5 11V7C5 5.34315 6.34315 4 8 4H16C17.6569 4 19 5.34315 19 7V11" stroke="#1E293B" stroke-width="2" stroke-linecap="round" stroke-linejoin="round"/>
<path d="M21 11H3" stroke="#1E293B" stroke-width="2" stroke-linecap="round" stroke-linejoin="round"/>
<path d="M20 17C20 18.6569 18.6569 20 17 20C15.3431 20 14 18.6569 14 17C14 16.6494 14.0602 16.3128 14.1707 16C14.5825 14.8348 15.6938 14 17 14C18.6569 14 20 15.3431 20 17Z" stroke="#1E293B" stroke-width="2" stroke-linecap="round" stroke-linejoin="round"/>
<path d="M10 17C10 18.6569 8.65685 20 7 20C5.34315 20 4 18.6569 4 17C4 15.3431 5.34315 14 7 14C8.30622 14 9.41746 14.8348 9.82929 16C9.93985 16.3128 10 16.6494 10 17Z" stroke="#1E293B" stroke-width="2" stroke-linecap="round" stroke-linejoin="round"/>
<path d="M14.1707 16H9.82928" stroke="#1E293B" stroke-width="2" stroke-linecap="round" stroke-linejoin="round"/>
</svg>
