<svg
  width="24"
  height="24"
  viewBox="0 0 24 24"
  xmlns="http://www.w3.org/2000/svg"
>
  <path
    fill-rule="evenodd"
    clip-rule="evenodd"
    d="M11.553 2.106a1 1 0 0 1 .894 0l9 4.5a1 1 0 0 1 0 1.788l-9 4.5a1 1 0 0 1-.894 0l-9-4.5a1 1 0 0 1 0-1.788l9-4.5zM5.236 7.5L12 10.882 18.764 7.5 12 4.118 5.236 7.5zM2 12v-1h2v.382l8 4 8-4V11h2v1a1 1 0 0 1-.553.894l-9 4.5a1 1 0 0 1-.894 0l-9-4.5A1 1 0 0 1 2 12zm2 3.882V15.5H2v1a1 1 0 0 0 .553.894l9 4.5a1 1 0 0 0 .894 0l9-4.5A1 1 0 0 0 22 16.5v-1h-2v.382l-8 4-8-4z"
  />
</svg>
