<svg
  width="24"
  height="24"
  viewBox="0 0 24 24"
  xmlns="http://www.w3.org/2000/svg"
>
  <path
    fill-rule="evenodd"
    clip-rule="evenodd"
    d="M15.135 2.508a1.02 1.02 0 0 0-1.378-.37.981.981 0 0 0-.362 1.356l4.219 7.165L11.7 4.862a1.024 1.024 0 0 0-1.428 0 .978.978 0 0 0 0 1.4l5.994 5.878L9.02 8.038a1.02 1.02 0 0 0-1.378.369.98.98 0 0 0 .363 1.354l7.432 4.209-8.174-2.15a1.012 1.012 0 0 0-1.26 1.099.988.988 0 0 0 .732.832L15.3 16H7a1 1 0 0 0 0 2h10a1 1 0 0 0 .62-1.785 1.001 1.001 0 0 0 .266-1.314 1.01 1.01 0 0 0 .613-.782.98.98 0 0 0-.021-.382 1.01 1.01 0 0 0 .561-.28.978.978 0 0 0 .295-.66.998.998 0 0 0 1.093-.722.98.98 0 0 0-.103-.754l-5.19-8.814h.001zM4 17a1 1 0 1 0-2 0v1a4 4 0 0 0 4 4h12a4 4 0 0 0 4-4v-1a1 1 0 0 0-2 0v1a2 2 0 0 1-2 2H6a2 2 0 0 1-2-2v-1z"
  />
</svg>
