<svg
  width="24"
  height="24"
  viewBox="0 0 24 24"
  xmlns="http://www.w3.org/2000/svg"
>
  <path
    fill-rule="evenodd"
    clip-rule="evenodd"
    d="M12 1.5a1 1 0 0 1 .897.557l2.857 5.784 6.39.925a1 1 0 0 1 .553 1.707l-4.63 4.501 1.092 6.357a1 1 0 0 1-1.451 1.054l-5.701-3.001-5.716 3.001a1 1 0 0 1-1.45-1.054l1.091-6.357-4.63-4.501a1 1 0 0 1 .555-1.707l6.389-.925 2.857-5.784A1 1 0 0 1 12 1.5zm0 3.258l-2.194 4.44a1 1 0 0 1-.753.547l-4.9.71 3.551 3.453a1 1 0 0 1 .289.886l-.838 4.879 4.387-2.304a1 1 0 0 1 .93 0l4.373 2.301-.838-4.876a1 1 0 0 1 .289-.886l3.551-3.454-4.9-.709a1 1 0 0 1-.753-.547L12 4.758z"
  />
</svg>
