<svg width="24" height="24" viewBox="0 0 24 24" fill="none" xmlns="http://www.w3.org/2000/svg">
<path fill-rule="evenodd" clip-rule="evenodd" d="M12 1.5C12.3805 1.5 12.7281 1.71593 12.8966 2.05707L15.754 7.84096L22.1433 8.76599C22.5203 8.82058 22.8336 9.08464 22.9512 9.44699C23.0688 9.80934 22.9703 10.207 22.6972 10.4726L18.0677 14.9743L19.1592 21.3308C19.2237 21.706 19.0694 22.0854 18.7613 22.3091C18.4532 22.5329 18.0448 22.5623 17.7079 22.3849L12.0065 19.3836L6.29137 22.3853C5.95441 22.5623 5.54621 22.5326 5.23836 22.3088C4.93051 22.085 4.7764 21.7059 4.84081 21.3308L5.93234 14.9743L1.30289 10.4726C1.02977 10.207 0.93127 9.80934 1.04887 9.44699C1.16646 9.08464 1.47972 8.82058 1.85675 8.76599L8.24604 7.84096L11.1035 2.05707C11.272 1.71593 11.6195 1.5 12 1.5ZM12 4.7577L9.80626 9.19823C9.66046 9.49335 9.37876 9.69782 9.05299 9.74499L4.15301 10.4544L7.70418 13.9075C7.9405 14.1373 8.0484 14.4688 7.99261 14.7937L7.15479 19.6728L11.5421 17.3685C11.8335 17.2154 12.1816 17.2156 12.4729 17.3689L16.8449 19.6704L16.0074 14.7937C15.9517 14.4688 16.0596 14.1373 16.2959 13.9075L19.847 10.4544L14.9471 9.74499C14.6213 9.69782 14.3396 9.49335 14.1938 9.19823L12 4.7577Z" fill="black"/>
</svg>
