<svg
  width="24"
  height="24"
  viewBox="0 0 24 24"
  xmlns="http://www.w3.org/2000/svg"
>
  <path d="M11.982 2c-5.25 0-9.556 4.05-9.964 9.197l5.36 2.216a2.823 2.823 0 0 1 1.594-.492c.052 0 .104.003.156.005l2.384-3.452v-.049c0-2.08 1.69-3.77 3.77-3.77a3.776 3.776 0 0 1 3.77 3.772c0 2.08-1.691 3.771-3.77 3.771h-.087l-3.397 2.426c0 .043.004.088.004.133a2.826 2.826 0 0 1-2.825 2.83A2.844 2.844 0 0 1 6.2 16.314l-3.838-1.589C3.552 18.922 7.405 22 11.983 22c5.522 0 9.999-4.477 9.999-10 0-5.522-4.478-10-10-10zM8.284 17.175l-1.227-.508c.218.452.595.832 1.095 1.041a2.126 2.126 0 0 0 2.78-2.77A2.123 2.123 0 0 0 8.22 13.76l1.27.526a1.565 1.565 0 0 1-1.205 2.889zm9.513-7.753a2.516 2.516 0 0 0-2.513-2.512 2.513 2.513 0 1 0 2.512 2.512zm-4.394-.004a1.887 1.887 0 1 1 3.774-.002 1.887 1.887 0 0 1-3.774.002z" />
</svg>
