<svg
  width="24"
  height="24"
  viewBox="0 0 24 24"
  xmlns="http://www.w3.org/2000/svg"
>
  <path d="M14.155 4.23c-.8.1-1.584.304-2.32.632l-1.823-1.51.361 2.362a6.882 6.882 0 0 0-1.612 1.698L6.34 7l1.626 1.96a8.316 8.316 0 0 0-.491 2.123L5 12l2.46.916c.07.736.215 1.469.47 2.164l-1.577 1.903 2.349-.355a6.623 6.623 0 0 0 1.687 1.733l-.391 2.292 1.872-1.505a8.05 8.05 0 0 0 2.254.498L14.998 22l.883-2.372c1.181-.12 2.367-.383 3.419-.953-.19-.85-.39-1.696-.577-2.546-1.701.87-3.837 1.202-5.613.336-1.47-.747-2.31-2.368-2.426-3.988-.127-1.791.418-3.758 1.928-4.834 1.437-.993 3.354-1.006 4.97-.488.357.124.697.294 1.02.502.256-.876.514-1.753.775-2.628-1.1-.561-2.342-.816-3.575-.87L14.998 2l-.843 2.23z" />
</svg>
