<svg
  width="24"
  height="24"
  viewBox="0 0 24 24"
  xmlns="http://www.w3.org/2000/svg"
>
  <path
    fill-rule="evenodd"
    clip-rule="evenodd"
    d="M3 3a1 1 0 0 1 1-1h2.125a1 1 0 0 1 0 2H5v4.294c0 2.368 1.928 4.294 4.313 4.294 2.384 0 4.312-1.926 4.312-4.294V4H12.5a1 1 0 1 1 0-2h2.125a1 1 0 0 1 1 1v5.294c0 3.14-2.304 5.738-5.313 6.216v2.255c0 1.676 1.576 3.235 3.782 3.235 1.85 0 3.258-1.098 3.662-2.441a3.118 3.118 0 0 1-2.006-2.912 3.121 3.121 0 0 1 3.125-3.118A3.121 3.121 0 0 1 22 14.647a3.12 3.12 0 0 1-2.201 2.98C19.339 20.183 16.867 22 14.094 22c-3.076 0-5.781-2.233-5.781-5.235V14.51C5.303 14.032 3 11.434 3 8.294V3zm15.875 10.53c-.625 0-1.125.503-1.125 1.117s.5 1.118 1.125 1.118S20 15.26 20 14.647c0-.614-.5-1.118-1.125-1.118z"
  />
</svg>
