<svg width="24" height="24" viewBox="0 0 24 24" fill="none" xmlns="http://www.w3.org/2000/svg">
<path d="M13 4H15V9C15 11.7614 12.7614 14 10 14C7.23858 14 5 11.7614 5 9V4H7" stroke="white" stroke-width="2" stroke-linecap="round" stroke-linejoin="round"/>
<path d="M21 15C21 16.1046 20.1046 17 19 17C18.9908 17 18.9817 16.9999 18.9726 16.9998C17.8806 16.9851 17 16.0954 17 15C17 13.8954 17.8954 13 19 13C20.1046 13 21 13.8954 21 15Z" stroke="white" stroke-width="2" stroke-linecap="round" stroke-linejoin="round"/>
<path d="M18.9726 16.9998C18.7239 19.2499 16.8163 21 14.5 21C12.0147 21 10 18.9853 10 16.5V14" stroke="white" stroke-width="2" stroke-linecap="round" stroke-linejoin="round"/>
</svg>
