<svg
  width="24"
  height="24"
  viewBox="0 0 24 24"
  xmlns="http://www.w3.org/2000/svg"
>
  <path
    fill-rule="evenodd"
    clip-rule="evenodd"
    d="M2 3a1 1 0 0 1 1-1h18a1 1 0 0 1 1 1v6a3.988 3.988 0 0 1-1 2.646V21a1 1 0 0 1-1 1H4a1 1 0 0 1-1-1v-9.354A3.988 3.988 0 0 1 2 9V3zm3 9.874V20h14v-7.126a4.008 4.008 0 0 1-4-1.228A3.99 3.99 0 0 1 12 13a3.99 3.99 0 0 1-3-1.354 3.99 3.99 0 0 1-4 1.228zM10 9a2 2 0 1 0 4 0 1 1 0 1 1 2 0 2 2 0 1 0 4 0V4H4v5c0 .592.256 1.123.667 1.491A2 2 0 0 0 8 9a1 1 0 0 1 2 0z"
  />
</svg>
