<svg width="24" height="24" viewBox="0 0 24 24" fill="none" xmlns="http://www.w3.org/2000/svg">
<path d="M5 12H19" stroke="#1E293B" stroke-width="2" stroke-linecap="round" stroke-linejoin="round"/>
<path d="M16 6.50002C15.7732 6.05998 15.2536 5.67167 14.5265 5.39902C13.7994 5.12638 12.9084 4.98565 12 5.00002H11C10.0717 5.00002 9.1815 5.36877 8.52513 6.02515C7.86875 6.68153 7.5 7.57177 7.5 8.50002C7.5 9.42828 7.86875 10.3185 8.52513 10.9749C9.1815 11.6313 10.0717 12 11 12" stroke="#1E293B" stroke-width="2" stroke-linecap="round" stroke-linejoin="round"/>
<path d="M16.5 16C16.3789 16.8391 15.9574 17.6058 15.3136 18.1576C14.6699 18.7093 13.8478 19.0087 13 19H11.5C10.5916 19.0144 9.70056 18.8736 8.9735 18.601C8.24644 18.3284 7.72675 17.94 7.5 17.5" stroke="#1E293B" stroke-width="2" stroke-linecap="round" stroke-linejoin="round"/>
</svg>
