<svg width="24" height="24" viewBox="0 0 24 24" fill="none" xmlns="http://www.w3.org/2000/svg">
<path d="M5 12H19" stroke="white" stroke-width="2" stroke-linecap="round" stroke-linejoin="round"/>
<path d="M16 6.49998C15.773 6.05998 15.254 5.67198 14.527 5.39898C13.799 5.12598 12.908 4.98598 12 4.99998H11C10.0717 4.99998 9.1815 5.36873 8.52513 6.02511C7.86875 6.68148 7.5 7.57172 7.5 8.49998C7.5 9.42824 7.86875 10.3185 8.52513 10.9749C9.1815 11.6312 10.0717 12 11 12" stroke="white" stroke-width="2" stroke-linecap="round" stroke-linejoin="round"/>
<path d="M16.5 16C16.3789 16.8391 15.9574 17.6058 15.3136 18.1576C14.6699 18.7093 13.8478 19.0087 13 19H11.5C10.592 19.014 9.7 18.874 8.973 18.601C8.246 18.328 7.727 17.94 7.5 17.5" stroke="white" stroke-width="2" stroke-linecap="round" stroke-linejoin="round"/>
</svg>
