<svg
  width="24"
  height="24"
  viewBox="0 0 24 24"
  xmlns="http://www.w3.org/2000/svg"
  fill="none"
  stroke="currentColor"
  stroke-width="2"
  stroke-linecap="round"
  stroke-linejoin="round"
>
  <path d="M15 19l2 2H7l2-2" />
  <path d="M7 4a3 3 0 0 0-3 3v11a1 1 0 0 0 1 1h14a1 1 0 0 0 1-1V7a3 3 0 0 0-3-3H7z" />
  <path d="M4 12h16" />
  <path d="M12 12V4" />
  <path d="M7.5 15.5h.01" />
  <path d="M16.5 15.5h.01" />
  <circle cx="7.5" cy="15.5" r=".5" />
  <circle cx="16.5" cy="15.5" r=".5" />
</svg>
