<svg
  width="24"
  height="24"
  viewBox="0 0 24 24"
  xmlns="http://www.w3.org/2000/svg"
>
  <path
    fill-rule="evenodd"
    clip-rule="evenodd"
    d="M12 1a1 1 0 0 1 1 1v1a1 1 0 1 1-2 0V2a1 1 0 0 1 1-1zm7.778 3.222a1 1 0 0 1 0 1.414l-.707.707a1 1 0 1 1-1.414-1.414l.707-.707a1 1 0 0 1 1.414 0zm-15.556 0a1 1 0 0 1 1.414 0l.707.707A1 1 0 1 1 4.93 6.343l-.707-.707a1 1 0 0 1 0-1.414zM12 8a4 4 0 0 0-4 4h1a1 1 0 1 1 0 2H5a1 1 0 1 1 0-2h1a6 6 0 1 1 6 6 1 1 0 1 1 0-2 4 4 0 0 0 0-8zm8 4a1 1 0 0 1 1-1h1a1 1 0 1 1 0 2h-1a1 1 0 0 1-1-1zM2 17a1 1 0 0 1 1-1h6a1 1 0 1 1 0 2H3a1 1 0 0 1-1-1zm15.657.657a1 1 0 0 1 1.414 0l.707.707a1 1 0 0 1-1.414 1.414l-.707-.707a1 1 0 0 1 0-1.414zM6 21a1 1 0 0 1 1-1h7a1 1 0 1 1 0 2H7a1 1 0 0 1-1-1z"
  />
</svg>
