<svg width="24" height="24" viewBox="0 0 24 24" fill="none" xmlns="http://www.w3.org/2000/svg">
<path d="M4 14H3C2.46957 14 1.96086 13.7893 1.58579 13.4142C1.21071 13.0391 1 12.5304 1 12V8H4" stroke="white" stroke-width="2" stroke-linecap="round" stroke-linejoin="round"/>
<path d="M23 23L1 1" stroke="white" stroke-width="2" stroke-linecap="round" stroke-linejoin="round"/>
<path d="M17.373 17.3741C17.0919 17.5963 16.8006 17.8052 16.5 18.0001C14.88 19.0351 12 20.0001 12 20.0001C12 20.0001 9.12 19.0351 7.5 18.0001C5.983 17.0311 4 15.0001 4 15.0001V6.0001L5.6 5.6001" stroke="white" stroke-width="2" stroke-linecap="round" stroke-linejoin="round"/>
<path d="M20 14H21C21.5304 14 22.0391 13.7893 22.4142 13.4142C22.7893 13.0391 23 12.5304 23 12V8H20" stroke="white" stroke-width="2" stroke-linecap="round" stroke-linejoin="round"/>
<path d="M20 15V6L12 4L9.60001 4.6" stroke="white" stroke-width="2" stroke-linecap="round" stroke-linejoin="round"/>
</svg>
