<svg
  width="24"
  height="24"
  viewBox="0 0 24 24"
  xmlns="http://www.w3.org/2000/svg"
>
  <path d="M19.233 4.642a6.083 6.083 0 0 0-8.166-1.75L6.4 5.858a5.3 5.3 0 0 0-2.408 3.584 5.55 5.55 0 0 0 .558 3.608 5.117 5.117 0 0 0-.792 2 5.7 5.7 0 0 0 .967 4.3 6.108 6.108 0 0 0 8.167 1.767l4.666-2.967a5.3 5.3 0 0 0 2.4-3.583 5.55 5.55 0 0 0-.558-3.6 5.658 5.658 0 0 0-.167-6.325zM10.6 19.608a3.692 3.692 0 0 1-3.967-1.475 3.404 3.404 0 0 1-.583-2.591l.092-.442.083-.275.25.167c.55.416 1.167.716 1.825.916l.167.059-.017.166c-.017.234.05.492.183.692.275.392.75.583 1.209.458.1-.033.2-.066.283-.116l4.65-2.967a1 1 0 0 0 .442-.642 1.076 1.076 0 0 0-.167-.783 1.136 1.136 0 0 0-1.208-.442c-.1.034-.209.075-.292.125l-1.758 1.117a3.691 3.691 0 0 1-4.917-1.067 3.416 3.416 0 0 1-.583-2.591A3.208 3.208 0 0 1 7.767 7.75l4.641-2.967c.292-.183.609-.316.95-.416 1.5-.392 3.084.2 3.967 1.466a3.432 3.432 0 0 1 .475 3.034l-.083.275-.242-.167a6.182 6.182 0 0 0-1.833-.917l-.167-.05.017-.166a1.15 1.15 0 0 0-.184-.7A1.122 1.122 0 0 0 14.1 6.7c-.1.033-.2.067-.283.117L9.158 9.808a.977.977 0 0 0-.433.65c-.05.267.017.559.167.775.266.392.75.559 1.2.442.108-.033.208-.067.291-.117l1.775-1.133c.292-.192.617-.333.95-.425a3.688 3.688 0 0 1 3.967 1.475c.542.75.75 1.675.6 2.583a3.206 3.206 0 0 1-1.458 2.167l-4.65 2.958a4.083 4.083 0 0 1-.967.425z" />
</svg>
