<svg
  width="24"
  height="24"
  viewBox="0 0 24 24"
  xmlns="http://www.w3.org/2000/svg"
>
  <path d="M20.32 15.623c.047-.093.047-.186.093-.28C21.535 10.95 18.871 5.81 14.291 3.1c2.01 2.71 2.804 5.935 2.103 8.833a4.6 4.6 0 0 1-.233.747 4.295 4.295 0 0 1-.375-.233s-4.533-2.804-9.392-7.711c-.14-.14 2.617 3.925 5.701 7.15-1.448-.842-5.56-3.785-8.132-6.17.281.515.702 1.03 1.122 1.543 2.15 2.758 4.954 6.122 8.32 8.692-2.384 1.45-5.702 1.543-9.067 0-.842-.373-1.542-.84-2.337-1.402 1.402 2.197 3.598 4.207 6.216 5.281 3.13 1.356 6.308 1.263 8.598 0h.047a.974.974 0 0 0 .28-.187c1.122-.56 3.319-1.168 4.534 1.169.327.654.934-2.384-1.355-5.188h-.001z" />
</svg>
