<svg
  width="24"
  height="24"
  viewBox="0 0 24 24"
  xmlns="http://www.w3.org/2000/svg"
>
  <path
    fill-rule="evenodd"
    clip-rule="evenodd"
    d="M14 8a2 2 0 1 1 4 0 2 2 0 0 1-4 0zm-4.224-.872a1 1 0 0 1 1.185.152l3.733 3.6a1 1 0 0 1 .138 1.275l-2.155 3.232-1.664-1.11 1.692-2.537-2.597-2.504-4.49 2.526-.98-1.743 5.138-2.89zM7.536 16a1.917 1.917 0 0 0-.819.165c-.25.113-.454.273-.602.459-.356.446-.82.799-1.345 1.035-.525.236-1.1.351-1.678.34h-.007a3.911 3.911 0 0 1-1.493-.336l-.913-.409.816-1.826.913.409c.222.099.47.156.725.163.287.005.568-.053.816-.165.25-.113.454-.273.603-.459.356-.446.82-.799 1.345-1.035a3.914 3.914 0 0 1 1.659-.34 3.914 3.914 0 0 1 1.658.34c.525.236.989.589 1.345 1.035.149.186.353.347.603.459a1.917 1.917 0 0 0 .857.165c.288.005.57-.053.82-.165.249-.113.453-.273.602-.459.356-.446.82-.799 1.345-1.035a3.915 3.915 0 0 1 1.658-.34 3.914 3.914 0 0 1 1.659.34c.525.236.989.589 1.345 1.035.149.186.353.347.603.459.248.112.529.17.816.165.255-.007.503-.064.725-.163l.913-.409.816 1.826-.913.409a3.91 3.91 0 0 1-1.493.336h-.007a3.916 3.916 0 0 1-1.678-.34 3.614 3.614 0 0 1-1.345-1.035 1.615 1.615 0 0 0-.602-.459 1.917 1.917 0 0 0-.857-.165 1.917 1.917 0 0 0-.82.165c-.25.113-.454.273-.602.459-.357.446-.82.799-1.345 1.035a3.914 3.914 0 0 1-1.659.34 3.914 3.914 0 0 1-1.659-.34 3.613 3.613 0 0 1-1.345-1.035 1.615 1.615 0 0 0-.602-.459A1.917 1.917 0 0 0 7.537 16z"
  />
</svg>
