<svg
  width="24"
  height="24"
  viewBox="0 0 24 24"
  xmlns="http://www.w3.org/2000/svg"
  fill="none"
  stroke="currentColor"
  stroke-width="2"
  stroke-linecap="round"
  stroke-linejoin="round"
>
  <path d="M16 10a1 1 0 1 0 0-2 1 1 0 0 0 0 2z" />
  <path d="M6 11l4-2 3.5 3-1.5 2" />
  <path d="M3 16.75A2.4 2.4 0 0 0 4 17a2.4 2.4 0 0 0 2-1 2.4 2.4 0 0 1 2-1 2.401 2.401 0 0 1 2 1 2.4 2.4 0 0 0 2 1 2.4 2.4 0 0 0 2-1 2.4 2.4 0 0 1 2-1 2.401 2.401 0 0 1 2 1 2.4 2.4 0 0 0 2 1 2.4 2.4 0 0 0 1-.25" />
</svg>
