<svg
  width="24"
  height="24"
  viewBox="0 0 24 24"
  xmlns="http://www.w3.org/2000/svg"
>
  <path d="M13.813 22h3.062C19.688 22 22 19.688 22 16.875v-9.75C22 4.312 19.688 2 16.875 2H13.75c-.062 0-.125.062-.125.125v19.75c0 .063.063.125.188.125zm3.812-11c1.126 0 2 .938 2 2 0 1.126-.938 2-2 2-1.125 0-2-.875-2-2-.063-1.125.875-2 2-2zM11.5 2H7.125C4.312 2 2 4.313 2 7.125v9.75C2 19.688 4.313 22 7.125 22H11.5c.062 0 .125-.062.125-.124V2.125c0-.063-.063-.125-.125-.125zm-1.437 18.376H7.125a3.495 3.495 0 0 1-3.5-3.501v-9.75c0-1.938 1.562-3.5 3.5-3.5H10l.063 16.75zM5.125 7.999c0 1.063.813 1.875 1.875 1.875A1.842 1.842 0 0 0 8.875 8c0-1.06-.813-1.875-1.875-1.875A1.843 1.843 0 0 0 5.125 8z" />
</svg>
