<svg
  width="24"
  height="24"
  viewBox="0 0 24 24"
  xmlns="http://www.w3.org/2000/svg"
  fill="none"
  stroke="currentColor"
  stroke-width="2"
  stroke-linecap="round"
  stroke-linejoin="round"
>
  <path d="M7.596 17.937l-2.998 2.84a.84.84 0 0 1-1.133 0l-1.23-1.165a.726.726 0 0 1 0-1.073l2.998-2.84a.726.726 0 0 0 0-1.073L3.14 12.643a.74.74 0 0 1-.172-.83.74.74 0 0 1 .172-.244l1.27-1.203a.823.823 0 0 1 .567-.223c.213 0 .416.08.567.223l7.679 7.275a.738.738 0 0 1 .172.829.74.74 0 0 1-.172.244l-1.27 1.204a.824.824 0 0 1-.567.222.824.824 0 0 1-.567-.222l-2.089-1.98a.824.824 0 0 0-.567-.223.824.824 0 0 0-.566.222h-.001z" />
  <path d="M7 11.747l7.611-8.728L21 3l-.02 6.052-9.213 7.21" />
  <path d="M9.384 14.005l6.008-5.693" />
</svg>
