<svg
  width="24"
  height="24"
  viewBox="0 0 24 24"
  xmlns="http://www.w3.org/2000/svg"
>
  <path d="M12 6c-2.666 0-4.332 1.333-5 4 1-1.333 2.168-1.833 3.5-1.5.762.19 1.305.742 1.908 1.353C13.388 10.848 14.523 12 17 12c2.666 0 4.333-1.333 5-4-1 1.333-2.167 1.833-3.5 1.5-.761-.19-1.304-.742-1.907-1.353C15.614 7.152 14.48 6 12.001 6zm-5 6c-2.666 0-4.332 1.333-5 4 1-1.333 2.168-1.833 3.5-1.5.762.19 1.305.742 1.908 1.353C8.388 16.848 9.523 18 12 18c2.667 0 4.333-1.333 5-4-1 1.333-2.167 1.833-3.5 1.5-.761-.19-1.304-.742-1.907-1.353C10.614 13.152 9.48 12 7.001 12z" />
</svg>
