<svg width="24" height="24" viewBox="0 0 24 24" fill="none" xmlns="http://www.w3.org/2000/svg">
<path d="M11.25 19.5C11.7473 19.5 12.2242 19.3025 12.5758 18.9508C12.9275 18.5992 13.125 18.1223 13.125 17.625C13.125 17.1277 12.9275 16.6508 12.5758 16.2992C12.2242 15.9475 11.7473 15.75 11.25 15.75C10.7527 15.75 10.2758 15.9475 9.92417 16.2992C9.57254 16.6508 9.375 17.1277 9.375 17.625C9.375 18.1223 9.57254 18.5992 9.92417 18.9508C10.2758 19.3025 10.7527 19.5 11.25 19.5V19.5Z" stroke="white" stroke-width="2" stroke-linecap="round" stroke-linejoin="round"/>
<path d="M11.25 15.75V11.25" stroke="white" stroke-width="2" stroke-linecap="round" stroke-linejoin="round"/>
<path d="M19.875 4.5V7.5" stroke="white" stroke-width="2" stroke-linecap="round" stroke-linejoin="round"/>
<path d="M17.022 6.57324L19.875 7.50024" stroke="white" stroke-width="2" stroke-linecap="round" stroke-linejoin="round"/>
<path d="M18.112 9.927L19.875 7.5" stroke="white" stroke-width="2" stroke-linecap="round" stroke-linejoin="round"/>
<path d="M21.638 9.927L19.875 7.5" stroke="white" stroke-width="2" stroke-linecap="round" stroke-linejoin="round"/>
<path d="M22.728 6.57324L19.875 7.50024" stroke="white" stroke-width="2" stroke-linecap="round" stroke-linejoin="round"/>
<path d="M8.25 13.784V4.5C8.25 3.70435 8.56607 2.94129 9.12868 2.37868C9.69129 1.81607 10.4544 1.5 11.25 1.5C12.0456 1.5 12.8087 1.81607 13.3713 2.37868C13.9339 2.94129 14.25 3.70435 14.25 4.5V13.784V13.783C15.0501 14.4077 15.6353 15.2666 15.9239 16.2398C16.2124 17.213 16.19 18.2521 15.8597 19.2119C15.5294 20.1718 14.9076 21.0046 14.0813 21.5942C13.2549 22.1837 12.2651 22.5006 11.25 22.5006C10.2349 22.5006 9.24509 22.1837 8.41873 21.5942C7.59236 21.0046 6.97064 20.1718 6.64032 19.2119C6.31 18.2521 6.28755 17.213 6.57612 16.2398C6.86468 15.2666 7.44986 14.4077 8.25 13.783V13.784Z" stroke="white" stroke-width="2" stroke-linecap="round" stroke-linejoin="round"/>
</svg>
