<svg width="24" height="24" viewBox="0 0 24 24" fill="none" xmlns="http://www.w3.org/2000/svg">
<path d="M11.25 19.5C11.7473 19.5 12.2242 19.3025 12.5758 18.9508C12.9275 18.5992 13.125 18.1223 13.125 17.625C13.125 17.1277 12.9275 16.6508 12.5758 16.2992C12.2242 15.9475 11.7473 15.75 11.25 15.75C10.7527 15.75 10.2758 15.9475 9.92417 16.2992C9.57254 16.6508 9.375 17.1277 9.375 17.625C9.375 18.1223 9.57254 18.5992 9.92417 18.9508C10.2758 19.3025 10.7527 19.5 11.25 19.5V19.5Z" stroke="white" stroke-width="2" stroke-linecap="round" stroke-linejoin="round"/>
<path d="M11.25 15.75V4.5" stroke="white" stroke-width="2" stroke-linecap="round" stroke-linejoin="round"/>
<path d="M22.527 7.50003C22.3529 7.6742 22.1462 7.81235 21.9186 7.90661C21.6911 8.00087 21.4473 8.04938 21.201 8.04938C20.9547 8.04938 20.7109 8.00087 20.4833 7.90661C20.2558 7.81235 20.0491 7.6742 19.875 7.50003C19.7009 7.32587 19.4942 7.18772 19.2666 7.09346C19.0391 6.9992 18.7953 6.95068 18.549 6.95068C18.3027 6.95068 18.0589 6.9992 17.8313 7.09346C17.6038 7.18772 17.3971 7.32587 17.223 7.50003" stroke="white" stroke-width="2" stroke-linecap="round" stroke-linejoin="round"/>
<path d="M22.527 11.25C22.3529 11.4242 22.1462 11.5624 21.9186 11.6566C21.6911 11.7509 21.4473 11.7994 21.201 11.7994C20.9547 11.7994 20.7109 11.7509 20.4833 11.6566C20.2558 11.5624 20.0491 11.4242 19.875 11.25C19.7009 11.0759 19.4942 10.9377 19.2666 10.8435C19.0391 10.7492 18.7953 10.7007 18.549 10.7007C18.3027 10.7007 18.0589 10.7492 17.8313 10.8435C17.6038 10.9377 17.3971 11.0759 17.223 11.25" stroke="white" stroke-width="2" stroke-linecap="round" stroke-linejoin="round"/>
<path d="M8.25 13.784V4.5C8.25 3.70435 8.56607 2.94129 9.12868 2.37868C9.69129 1.81607 10.4544 1.5 11.25 1.5C12.0456 1.5 12.8087 1.81607 13.3713 2.37868C13.9339 2.94129 14.25 3.70435 14.25 4.5V13.784V13.783C15.0501 14.4077 15.6353 15.2666 15.9239 16.2398C16.2124 17.213 16.19 18.2521 15.8597 19.2119C15.5294 20.1718 14.9076 21.0046 14.0813 21.5942C13.2549 22.1837 12.2651 22.5006 11.25 22.5006C10.2349 22.5006 9.24509 22.1837 8.41873 21.5942C7.59236 21.0046 6.97064 20.1718 6.64032 19.2119C6.31 18.2521 6.28755 17.213 6.57612 16.2398C6.86468 15.2666 7.44986 14.4077 8.25 13.783V13.784Z" stroke="white" stroke-width="2" stroke-linecap="round" stroke-linejoin="round"/>
</svg>
