<svg
  width="24"
  height="24"
  viewBox="0 0 24 24"
  xmlns="http://www.w3.org/2000/svg"
  fill="none"
  stroke="currentColor"
  stroke-width="2"
  stroke-linecap="round"
  stroke-linejoin="round"
>
  <path d="M11.25 19.5a1.875 1.875 0 1 0 0-3.75 1.875 1.875 0 0 0 0 3.75z" />
  <path d="M11.25 15.75v-4.5" />
  <path d="M19.875 4.5v3" />
  <path d="M17.022 6.573l2.853.927" />
  <path d="M18.112 9.927L19.875 7.5" />
  <path d="M21.638 9.927L19.875 7.5" />
  <path d="M22.728 6.573l-2.853.927" />
  <path d="M8.25 13.784V4.5a3 3 0 1 1 6 0v9.284-.001a4.876 4.876 0 1 1-6 0v.001z" />
</svg>
