<svg
  width="24"
  height="24"
  viewBox="0 0 24 24"
  xmlns="http://www.w3.org/2000/svg"
  fill="none"
  stroke="currentColor"
  stroke-width="2"
  stroke-linecap="round"
  stroke-linejoin="round"
>
  <path d="M11.25 19.5a1.875 1.875 0 1 0 0-3.75 1.875 1.875 0 0 0 0 3.75z" />
  <path d="M11.25 15.75V4.5" />
  <path d="M22.527 7.5a1.874 1.874 0 0 1-2.652 0 1.874 1.874 0 0 0-2.652 0" />
  <path d="M22.527 11.25a1.873 1.873 0 0 1-2.652 0 1.874 1.874 0 0 0-2.652 0" />
  <path d="M8.25 13.784V4.5a3 3 0 1 1 6 0v9.284-.001a4.876 4.876 0 1 1-6 0v.001z" />
</svg>
