<svg width="24" height="24" viewBox="0 0 24 24" fill="none" xmlns="http://www.w3.org/2000/svg">
<path d="M12 21C16.9706 21 21 16.9706 21 12C21 7.02944 16.9706 3 12 3C7.02944 3 3 7.02944 3 12C3 16.9706 7.02944 21 12 21Z" stroke="#1E293B" stroke-width="2" stroke-linecap="round" stroke-linejoin="round"/>
<path d="M6 5.2998C6.94113 6.14389 7.69387 7.17678 8.20919 8.33118C8.72451 9.48559 8.99084 10.7356 8.99084 11.9998C8.99084 13.264 8.72451 14.514 8.20919 15.6684C7.69387 16.8228 6.94113 17.8557 6 18.6998" stroke="#1E293B" stroke-width="2" stroke-linecap="round" stroke-linejoin="round"/>
<path d="M18 5.2998C17.0589 6.14389 16.3061 7.17678 15.7908 8.33118C15.2755 9.48559 15.0092 10.7356 15.0092 11.9998C15.0092 13.264 15.2755 14.514 15.7908 15.6684C16.3061 16.8228 17.0589 17.8557 18 18.6998" stroke="#1E293B" stroke-width="2" stroke-linecap="round" stroke-linejoin="round"/>
</svg>
