<svg
  width="24"
  height="24"
  viewBox="0 0 24 24"
  xmlns="http://www.w3.org/2000/svg"
>
  <path
    fill-rule="evenodd"
    clip-rule="evenodd"
    d="M13.588 4c-.276 0-.554.116-.77.344-.216.23-.347.555-.347.905v1.125c0 1.44-.538 2.831-1.513 3.867A5.21 5.21 0 0 1 9 11.55v8.444h8.823a1 1 0 0 1 .09.004c.088.008.256-.017.477-.251.227-.242.447-.65.572-1.204l1.036-5.503a1.316 1.316 0 0 0-.346-.824 1.058 1.058 0 0 0-.77-.344h-3.176a1 1 0 0 1-1-1V5.249c0-.35-.132-.674-.348-.905a1.057 1.057 0 0 0-.77-.344zM7 19.995V11.96a4.77 4.77 0 0 1-.5.04H4v7.995h3zm4.363-17.022A3.057 3.057 0 0 1 13.588 2c.847 0 1.646.358 2.226.973.577.614.892 1.433.892 2.276v4.624h2.176c.847 0 1.646.358 2.226.973.577.613.892 1.433.892 2.276a1 1 0 0 1-.017.185l-1.06 5.623-.002.018-.003.013c-.181.82-.537 1.59-1.072 2.158-.532.565-1.253.931-2.061.876H3a1 1 0 0 1-1-1V11a1 1 0 0 1 1-1h3.498l.05-.003a15.393 15.393 0 0 0 .565-.07c.306-.043.596-.09.696-.11a3.16 3.16 0 0 0 1.693-.947 3.645 3.645 0 0 0 .969-2.496V5.249c0-.843.314-1.662.892-2.276z"
  />
</svg>
