<svg
  width="24"
  height="24"
  viewBox="0 0 24 24"
  xmlns="http://www.w3.org/2000/svg"
>
  <path
    fill-rule="evenodd"
    clip-rule="evenodd"
    d="M17.785 2.005c.808-.055 1.53.311 2.061.876.535.568.89 1.339 1.072 2.158l.006.03 1.059 5.624a1 1 0 0 1 .017.185c0 .843-.315 1.663-.892 2.276a3.057 3.057 0 0 1-2.226.973h-2.176v4.624c0 .842-.315 1.662-.892 2.276a3.056 3.056 0 0 1-2.226.973 3.057 3.057 0 0 1-2.225-.973 3.323 3.323 0 0 1-.892-2.276v-1.125c0-.947-.355-1.844-.969-2.496a3.16 3.16 0 0 0-1.693-.947 18.21 18.21 0 0 0-1.262-.18L6.497 14H3a1 1 0 0 1-1-1V3.005a1 1 0 0 1 1-1h14.785zm.605 2.247c-.22-.234-.39-.259-.477-.25a1 1 0 0 1-.09.003H9v8.444a5.21 5.21 0 0 1 1.958 1.31 5.644 5.644 0 0 1 1.513 3.867v1.125c0 .35.131.674.348.905.215.228.493.344.77.344.275 0 .554-.116.768-.344.217-.23.349-.555.349-.905v-5.624a1 1 0 0 1 1-1h3.176c.277 0 .555-.116.77-.344.2-.213.327-.505.346-.824L18.96 5.456c-.124-.553-.344-.963-.571-1.204zM7 12.04V4.005H4V12h2.5c.125 0 .31.017.5.04z"
  />
</svg>
