<svg
  width="24"
  height="24"
  viewBox="0 0 24 24"
  xmlns="http://www.w3.org/2000/svg"
  fill="none"
  stroke="currentColor"
  stroke-width="2"
  stroke-linecap="round"
  stroke-linejoin="round"
>
  <path d="M21.286 13H17V3h4.286a.69.69 0 0 1 .505.225.8.8 0 0 1 .209.544v8.462a.8.8 0 0 1-.21.544.69.69 0 0 1-.504.225z" />
  <path d="M17 13.174L12.997 21c-.42 0-.837-.081-1.226-.238a3.207 3.207 0 0 1-1.039-.679 3.128 3.128 0 0 1-.694-1.015 3.07 3.07 0 0 1-.244-1.198v-2.348H3.601c-.227 0-.451-.047-.658-.139a1.6 1.6 0 0 1-.542-.39 1.531 1.531 0 0 1-.388-1.23l1.2-9.392c.049-.378.237-.727.53-.98A1.628 1.628 0 0 1 4.803 3H17" />
</svg>
