<svg
  width="24"
  height="24"
  viewBox="0 0 24 24"
  xmlns="http://www.w3.org/2000/svg"
  fill="none"
  stroke="currentColor"
  stroke-width="2"
  stroke-linecap="round"
  stroke-linejoin="round"
>
  <path d="M2.714 11H7v10H2.714a.69.69 0 0 1-.505-.225A.8.8 0 0 1 2 20.23v-8.462a.8.8 0 0 1 .21-.544.69.69 0 0 1 .504-.225z" />
  <path d="M7 10.826L11.003 3c.42 0 .837.081 1.226.238.389.158.742.388 1.039.679.297.29.533.636.694 1.015.161.38.244.787.244 1.198v2.348h6.193c.227 0 .451.047.658.139a1.6 1.6 0 0 1 .542.39 1.556 1.556 0 0 1 .389 1.23l-1.201 9.392a1.555 1.555 0 0 1-.53.98 1.623 1.623 0 0 1-1.06.391H7" />
</svg>
