<svg
  width="24"
  height="24"
  viewBox="0 0 24 24"
  xmlns="http://www.w3.org/2000/svg"
>
  <path
    fill-rule="evenodd"
    clip-rule="evenodd"
    d="M14.23 2a1 1 0 0 1 1 1c0 1.218.497 2.392 1.389 3.261A4.845 4.845 0 0 0 20 7.625h1v2h-1a6.845 6.845 0 0 1-4.77-1.923V16.5a5.42 5.42 0 0 1-.952 3.065 5.592 5.592 0 0 1-2.522 2.02 5.726 5.726 0 0 1-3.231.31 5.653 5.653 0 0 1-2.871-1.497 5.466 5.466 0 0 1-1.545-2.82 5.396 5.396 0 0 1 .322-3.191 5.527 5.527 0 0 1 2.074-2.466A5.7 5.7 0 0 1 9.615 11h1v2h-1a3.7 3.7 0 0 0-2.018.596 3.526 3.526 0 0 0-1.325 1.573 3.396 3.396 0 0 0-.204 2.009c.138.674.478 1.297.982 1.788.504.491 1.15.829 1.855.966a3.725 3.725 0 0 0 2.102-.202 3.593 3.593 0 0 0 1.621-1.295 3.42 3.42 0 0 0 .603-1.935V3a1 1 0 0 1 1-1z"
  />
</svg>
