<svg width="24" height="24" viewBox="0 0 24 24" fill="none" xmlns="http://www.w3.org/2000/svg">
<path d="M16 5H8C6.14348 5 4.36301 5.7375 3.05025 7.05025C1.7375 8.36301 1 10.1435 1 12C1 13.8565 1.7375 15.637 3.05025 16.9497C4.36301 18.2625 6.14348 19 8 19H16C16.9193 19 17.8295 18.8189 18.6788 18.4672C19.5281 18.1154 20.2997 17.5998 20.9497 16.9497C21.5998 16.2997 22.1154 15.5281 22.4672 14.6788C22.8189 13.8295 23 12.9193 23 12C23 11.0807 22.8189 10.1705 22.4672 9.32122C22.1154 8.47194 21.5998 7.70026 20.9497 7.05025C20.2997 6.40024 19.5281 5.88463 18.6788 5.53284C17.8295 5.18106 16.9193 5 16 5V5Z" stroke="white" stroke-width="2" stroke-linecap="round" stroke-linejoin="round"/>
<path d="M16 15C16.7956 15 17.5587 14.6839 18.1213 14.1213C18.6839 13.5587 19 12.7956 19 12C19 11.2044 18.6839 10.4413 18.1213 9.87868C17.5587 9.31607 16.7956 9 16 9C15.2044 9 14.4413 9.31607 13.8787 9.87868C13.3161 10.4413 13 11.2044 13 12C13 12.7956 13.3161 13.5587 13.8787 14.1213C14.4413 14.6839 15.2044 15 16 15V15Z" stroke="white" stroke-width="2" stroke-linecap="round" stroke-linejoin="round"/>
</svg>
