<svg width="24" height="24" viewBox="0 0 24 24" fill="none" xmlns="http://www.w3.org/2000/svg">
<path d="M17 9.99998H14V6.99998L17.5 3.49998C16.3804 2.96525 15.1225 2.79078 13.8996 3.0006C12.6767 3.21041 11.5489 3.79419 10.6716 4.67155C9.79423 5.5489 9.21045 6.67668 9.00063 7.89958C8.79082 9.12248 8.96529 10.3803 9.50001 11.5L3.50001 17.5C3.10219 17.8978 2.87869 18.4374 2.87869 19C2.87869 19.5626 3.10219 20.1022 3.50001 20.5C3.89784 20.8978 4.4374 21.1213 5.00001 21.1213C5.56262 21.1213 6.10219 20.8978 6.50001 20.5L12.5 14.5C13.6196 15.0347 14.8775 15.2092 16.1004 14.9994C17.3233 14.7895 18.4511 14.2058 19.3284 13.3284C20.2058 12.451 20.7896 11.3233 20.9994 10.1004C21.2092 8.87748 21.0347 7.61961 20.5 6.49998L17 9.99998Z" stroke="white" stroke-width="2" stroke-linecap="round" stroke-linejoin="round"/>
</svg>
