<svg width="24" height="24" viewBox="0 0 24 24" fill="none" xmlns="http://www.w3.org/2000/svg">
<path d="M17 9.99985H14V6.99985L17.5 3.49985C16.3804 2.96513 15.1225 2.79066 13.8996 3.00048C12.6767 3.21029 11.549 3.79407 10.6716 4.67143C9.79424 5.54878 9.21046 6.67656 9.00065 7.89946C8.79083 9.12235 8.9653 10.3802 9.50002 11.4999L3.50002 17.4999C3.1022 17.8977 2.8787 18.4372 2.8787 18.9999C2.8787 19.5625 3.1022 20.102 3.50002 20.4999C3.89785 20.8977 4.43742 21.1212 5.00002 21.1212C5.56263 21.1212 6.1022 20.8977 6.50002 20.4999L12.5 14.4999C13.6197 15.0346 14.8775 15.209 16.1004 14.9992C17.3233 14.7894 18.4511 14.2056 19.3285 13.3283C20.2058 12.4509 20.7896 11.3232 20.9994 10.1003C21.2092 8.87735 21.0348 7.61948 20.5 6.49985L17 9.99985Z" stroke="#1E293B" stroke-width="2" stroke-linecap="round" stroke-linejoin="round"/>
</svg>
