<svg
  width="24"
  height="24"
  viewBox="0 0 24 24"
  xmlns="http://www.w3.org/2000/svg"
>
  <path
    fill-rule="evenodd"
    clip-rule="evenodd"
    d="M13.726 2.1a6.932 6.932 0 0 1 4.16.577 1 1 0 0 1 .276 1.61l-3.167 3.167v1.551h1.552l3.167-3.167a1 1 0 0 1 1.61.276 6.931 6.931 0 0 1-8.577 9.519l-5.46 5.46a3.097 3.097 0 0 1-4.38-4.38l5.46-5.46a6.932 6.932 0 0 1 5.36-9.153zm1.847 1.946a4.93 4.93 0 0 0-5.125 7.011 1 1 0 0 1-.195 1.138l-5.932 5.932a1.097 1.097 0 1 0 1.552 1.552l5.932-5.932a1 1 0 0 1 1.138-.195 4.93 4.93 0 0 0 7.01-5.126l-2.285 2.286a1 1 0 0 1-.707.293h-2.966a1 1 0 0 1-1-1V7.04a1 1 0 0 1 .293-.707l2.285-2.286z"
  />
</svg>
