<svg width="24" height="24" viewBox="0 0 24 24" fill="none" xmlns="http://www.w3.org/2000/svg">
<path fill-rule="evenodd" clip-rule="evenodd" d="M2 4C2 3.44772 2.44772 3 3 3H8C8.55228 3 9 3.44772 9 4V6H15C15.5523 6 16 6.44772 16 7V11H21C21.5523 11 22 11.4477 22 12C22 12.5523 21.5523 13 21 13H16V17C16 17.5523 15.5523 18 15 18H9V20C9 20.5523 8.55228 21 8 21H3C2.44772 21 2 20.5523 2 20C2 19.4477 2.44772 19 3 19H7V15H3C2.44772 15 2 14.5523 2 14C2 13.4477 2.44772 13 3 13H8C8.55228 13 9 13.4477 9 14V16H14V8H9V10C9 10.5523 8.55228 11 8 11H3C2.44772 11 2 10.5523 2 10C2 9.44772 2.44772 9 3 9H7V5H3C2.44772 5 2 4.55228 2 4Z" fill="black"/>
</svg>
