<svg
  width="24"
  height="24"
  viewBox="0 0 24 24"
  xmlns="http://www.w3.org/2000/svg"
>
  <path
    fill-rule="evenodd"
    clip-rule="evenodd"
    d="M9 2a1 1 0 0 1 1 1v1h5a1 1 0 1 1 0 2h-1.422a18.92 18.92 0 0 1-3.292 7.286c.157.176.317.35.481.52a1 1 0 1 1-1.438 1.389c-.111-.115-.221-.232-.33-.35a19.056 19.056 0 0 1-5.554 4.18 1 1 0 0 1-.89-1.792 17.058 17.058 0 0 0 5.159-3.947A19.026 19.026 0 0 1 5.49 9.39a1 1 0 0 1 1.842-.78A17.022 17.022 0 0 0 9 11.647 16.911 16.911 0 0 0 11.527 6H3a1 1 0 1 1 0-2h5V3a1 1 0 0 1 1-1zm7 8a1 1 0 0 1 .894.553l5 10a1 1 0 1 1-1.788.894L18.882 19h-5.764l-1.224 2.447a1 1 0 1 1-1.789-.894l5-10A1 1 0 0 1 16 10zm-1.882 7h3.764L16 13.236 14.118 17z"
  />
</svg>
