<svg width="24" height="24" viewBox="0 0 24 24" fill="none" xmlns="http://www.w3.org/2000/svg">
<path fill-rule="evenodd" clip-rule="evenodd" d="M7.70711 2.29289C8.09763 2.68342 8.09763 3.31658 7.70711 3.70711L5.91421 5.5L8.95094 8.53673C10.2124 7.57325 11.7899 7 13.5 7C17.6421 7 21 10.3579 21 14.5C21 18.6421 17.6421 22 13.5 22C9.35786 22 6 18.6421 6 14.5C6 12.7899 6.57325 11.2124 7.53673 9.95094L4.5 6.91421L2.70711 8.70711C2.31658 9.09763 1.68342 9.09763 1.29289 8.70711C0.902369 8.31658 0.902369 7.68342 1.29289 7.29289L6.29289 2.29289C6.68342 1.90237 7.31658 1.90237 7.70711 2.29289ZM13.5 9C11.9809 9 10.6073 9.61451 9.61091 10.6109C8.61451 11.6073 8 12.9809 8 14.5C8 17.5376 10.4624 20 13.5 20C16.5376 20 19 17.5376 19 14.5C19 11.4624 16.5376 9 13.5 9Z" fill="black"/>
</svg>
