<svg
  width="24"
  height="24"
  viewBox="0 0 24 24"
  xmlns="http://www.w3.org/2000/svg"
>
  <path d="M2 12v10h20V2H2v10zm16.117-.797c.509.127.895.353 1.251.721.184.197.458.555.48.642.006.025-.864.608-1.39.936-.02.012-.096-.07-.181-.197-.259-.375-.528-.537-.94-.565-.607-.042-.997.276-.994.806-.005.13.024.26.085.375.134.276.382.442 1.159.777 1.432.617 2.045 1.023 2.425 1.6.425.645.521 1.674.232 2.439-.317.831-1.104 1.396-2.212 1.583-.343.06-1.155.052-1.524-.015-.803-.143-1.565-.54-2.035-1.06-.184-.203-.543-.734-.52-.772.009-.013.091-.064.183-.117.09-.051.426-.245.743-.43l.575-.333.121.179c.168.256.536.609.758.726.639.337 1.515.29 1.946-.098a.735.735 0 0 0 .261-.6c0-.232-.03-.333-.15-.508-.155-.222-.473-.409-1.374-.8-1.032-.445-1.476-.72-1.883-1.159a2.637 2.637 0 0 1-.549-1c-.076-.282-.095-.99-.035-1.276.213-.997.965-1.691 2.051-1.898.352-.067 1.172-.042 1.517.044zm-4.695.835l.007.82h-2.604v7.396H8.983v-7.397H6.382v-.803c0-.445.009-.816.021-.825.01-.013 1.595-.02 3.515-.016l3.495.01.01.815z" />
</svg>
