<svg
  width="24"
  height="24"
  viewBox="0 0 24 24"
  xmlns="http://www.w3.org/2000/svg"
>
  <path d="M12 2c5.52 0 10 4.48 10 10s-4.48 10-10 10S2 17.52 2 12 6.48 2 12 2zm2.732 14.733a1.335 1.335 0 1 0 1.335 2.312 1.335 1.335 0 0 0-1.335-2.312zM12 15.9c-.588 0-1.144-.13-1.643-.363L9.43 17.2a5.796 5.796 0 0 0 4.12.387 1.867 1.867 0 0 1 .912-1.322 1.87 1.87 0 0 1 1.6-.13 5.777 5.777 0 0 0 1.726-3.763l-1.905-.027A3.9 3.9 0 0 1 12 15.9zM8.1 12a3.9 3.9 0 0 1 1.658-3.192l-.975-1.634a5.807 5.807 0 0 0-2.4 3.363c.421.336.691.861.691 1.45 0 .586-.27 1.099-.691 1.449a5.808 5.808 0 0 0 2.4 3.361l.975-1.637A3.82 3.82 0 0 1 8.1 12zm-2.9-1.335a1.335 1.335 0 1 0 0 2.67 1.335 1.335 0 0 0 0-2.67zM12 8.1a3.899 3.899 0 0 1 3.883 3.554l1.905-.028a5.79 5.79 0 0 0-1.726-3.763 1.872 1.872 0 0 1-2.512-1.455A5.937 5.937 0 0 0 12 6.2c-.925 0-1.796.217-2.57.6l.928 1.663A3.886 3.886 0 0 1 12 8.1zm2.732-.834a1.336 1.336 0 1 0 1.335-2.313 1.337 1.337 0 0 0-1.825.491 1.333 1.333 0 0 0 .49 1.822z" />
</svg>
