<svg width="24" height="24" viewBox="0 0 24 24" fill="none" xmlns="http://www.w3.org/2000/svg">
<path fill-rule="evenodd" clip-rule="evenodd" d="M4.06189 11H19.9381C19.446 7.05369 16.0796 4 12 4C7.92038 4 4.55399 7.05369 4.06189 11ZM2 12C2 6.47715 6.47715 2 12 2C17.5228 2 22 6.47715 22 12C22 12.5523 21.5523 13 21 13H13V19C13 19.5523 13.4477 20 14 20C14.5523 20 15 19.5523 15 19C15 18.4477 15.4477 18 16 18C16.5523 18 17 18.4477 17 19C17 20.6569 15.6569 22 14 22C12.3431 22 11 20.6569 11 19V13H3C2.44772 13 2 12.5523 2 12Z" fill="black"/>
</svg>
