<svg
  width="24"
  height="24"
  viewBox="0 0 24 24"
  xmlns="http://www.w3.org/2000/svg"
>
  <path d="M12 2C6.522 2 2.082 6.478 2.082 12c0 5.523 4.44 10 9.916 10s9.916-4.477 9.916-10c0-5.522-4.44-10-9.916-10zm0 .44c2.531 0 4.912.995 6.702 2.8A9.539 9.539 0 0 1 21.478 12a9.538 9.538 0 0 1-2.776 6.76A9.377 9.377 0 0 1 12 21.56a9.377 9.377 0 0 1-6.703-2.8A9.539 9.539 0 0 1 2.519 12c0-2.553.987-4.954 2.777-6.76A9.376 9.376 0 0 1 12 2.44zm-.496 3.52c-1.615.433-3.11 1.263-5.103 3.548-1.993 2.285-1.615 4.171-1.615 4.171s.55-1.298 1.873-2.666c.626-.647 1.095-.864 1.414-.865a.498.498 0 0 1 .527.502v4.64c0 .458-.295.557-.566.552-.233-.005-.448-.085-.448-.085 1.358 1.973 4.605 2.25 4.605 2.25l1.426-1.524.033.03 1.307 1.113c2.388-1.42 3.54-4.05 3.54-4.05-1.066 1.127-1.745 1.39-2.148 1.389-.358-.002-.498-.213-.498-.213-.02-.097-.053-1.508-.065-2.92-.012-1.464 0-2.928.072-2.932.412-.774 1.728-2.335 1.728-2.335-2.457.484-3.797 2.094-3.797 2.094-.396-.312-1.203-.259-1.203-.259.378.208.756.813.756 1.315v4.933s-.825.728-1.46.728a.896.896 0 0 1-.734-.374.985.985 0 0 1-.125-.215V8.694a.529.529 0 0 1-.303.103c-.135 0-.275-.069-.37-.267-.072-.15-.117-.375-.117-.702 0-1.125 1.27-1.869 1.27-1.869z" />
</svg>
