<svg width="24" height="24" viewBox="0 0 24 24" fill="none" xmlns="http://www.w3.org/2000/svg">
<path fill-rule="evenodd" clip-rule="evenodd" d="M12 3C9.79086 3 8 4.79086 8 7C8 9.20914 9.79086 11 12 11C14.2091 11 16 9.20914 16 7C16 4.79086 14.2091 3 12 3ZM6 7C6 3.68629 8.68629 1 12 1C15.3137 1 18 3.68629 18 7C18 10.3137 15.3137 13 12 13C8.68629 13 6 10.3137 6 7ZM12 16C8.68629 16 6 18.6863 6 22C6 22.5523 5.55228 23 5 23C4.44772 23 4 22.5523 4 22C4 17.5817 7.58172 14 12 14C16.4183 14 20 17.5817 20 22C20 22.5523 19.5523 23 19 23C18.4477 23 18 22.5523 18 22C18 18.6863 15.3137 16 12 16Z" fill="black"/>
</svg>
