<svg width="24" height="24" viewBox="0 0 24 24" fill="none" xmlns="http://www.w3.org/2000/svg">
<path d="M16.5 5.25H21" stroke="#1E293B" stroke-width="2" stroke-linecap="round" stroke-linejoin="round"/>
<path d="M3 19.9998C3.91247 18.4796 5.22451 17.2172 6.8043 16.3396C8.3841 15.462 10.176 15 12.0001 15C13.8241 15 15.616 15.4621 17.1958 16.3397C18.7756 17.2174 20.0876 18.4797 21 20" stroke="#1E293B" stroke-width="2" stroke-linecap="round" stroke-linejoin="round"/>
<path d="M18 9.00667C17.9986 10.2524 17.6095 11.4669 16.8866 12.4815C16.1638 13.4961 15.143 14.2606 13.966 14.6688C12.789 15.077 11.5141 15.1087 10.3183 14.7595C9.12241 14.4103 8.06491 13.6976 7.2925 12.7201C6.52009 11.7427 6.07107 10.5491 6.00776 9.30493C5.94444 8.06076 6.26997 6.82774 6.93917 5.77696C7.60838 4.72618 8.58806 3.90975 9.74228 3.44098C10.8965 2.97221 12.168 2.87434 13.3804 3.16095" stroke="#1E293B" stroke-width="2" stroke-linecap="round" stroke-linejoin="round"/>
</svg>
