<svg width="24" height="24" viewBox="0 0 24 24" fill="none" xmlns="http://www.w3.org/2000/svg">
<path fill-rule="evenodd" clip-rule="evenodd" d="M10 3C7.79086 3 6 4.79086 6 7C6 9.20914 7.79086 11 10 11C12.2091 11 14 9.20914 14 7C14 4.79086 12.2091 3 10 3ZM4 7C4 3.68629 6.68629 1 10 1C13.3137 1 16 3.68629 16 7C16 10.3137 13.3137 13 10 13C6.68629 13 4 10.3137 4 7ZM17.5513 4.37095C17.8987 3.94163 18.5284 3.87522 18.9577 4.22263C20.2018 5.22931 21 6.77181 21 8.5C21 10.8963 19.4681 12.9322 17.3332 13.6868C16.8125 13.8708 16.2412 13.5979 16.0572 13.0772C15.8731 12.5565 16.146 11.9851 16.6668 11.8011C18.0275 11.3201 19 10.0224 19 8.5C19 7.40093 18.4946 6.42064 17.6996 5.77737C17.2703 5.42996 17.2039 4.80028 17.5513 4.37095ZM10 16C6.68629 16 4 18.6863 4 22C4 22.5523 3.55228 23 3 23C2.44772 23 2 22.5523 2 22C2 17.5817 5.58172 14 10 14C14.4183 14 18 17.5817 18 22C18 22.5523 17.5523 23 17 23C16.4477 23 16 22.5523 16 22C16 18.6863 13.3137 16 10 16ZM17.7511 15.4839C18.0361 15.0108 18.6506 14.8584 19.1237 15.1435C21.135 16.3554 22.5716 18.4293 22.919 20.8584C22.9724 21.2318 23 21.613 23 22C23 22.5523 22.5523 23 22 23C21.4477 23 21 22.5523 21 22C21 21.708 20.9792 21.4214 20.9392 21.1416C20.6794 19.3251 19.6038 17.7678 18.0915 16.8565C17.6184 16.5715 17.466 15.9569 17.7511 15.4839Z" fill="black"/>
</svg>
