<svg
  width="24"
  height="24"
  viewBox="0 0 24 24"
  xmlns="http://www.w3.org/2000/svg"
>
  <path
    fill-rule="evenodd"
    clip-rule="evenodd"
    d="M12 3a4 4 0 1 0 0 8 4 4 0 0 0 0-8zM6 7a6 6 0 1 1 12 0A6 6 0 0 1 6 7zm6 9a6 6 0 0 0-6 6 1 1 0 1 1-2 0 8 8 0 0 1 8-8 1 1 0 1 1 0 2zm4.293.293a1 1 0 0 1 1.414 0L19 17.586l1.293-1.293a1 1 0 0 1 1.414 1.414L20.414 19l1.293 1.293a1 1 0 0 1-1.414 1.414L19 20.414l-1.293 1.293a1 1 0 0 1-1.414-1.414L17.586 19l-1.293-1.293a1 1 0 0 1 0-1.414z"
  />
</svg>
