<svg
  width="24"
  height="24"
  viewBox="0 0 24 24"
  xmlns="http://www.w3.org/2000/svg"
>
  <path
    fill-rule="evenodd"
    clip-rule="evenodd"
    d="M10 3a4 4 0 1 0 0 8 4 4 0 0 0 0-8zM4 7a6 6 0 1 1 12 0A6 6 0 0 1 4 7zm13.551-2.63a1 1 0 0 1 1.407-.147 5.502 5.502 0 0 1-1.624 9.464 1 1 0 1 1-.667-1.886A3.502 3.502 0 0 0 17.7 5.777a1 1 0 0 1-.149-1.406zM10 16a6 6 0 0 0-6 6 1 1 0 1 1-2 0 8 8 0 1 1 16 0 1 1 0 1 1-2 0 6 6 0 0 0-6-6zm7.751-.516a1 1 0 0 1 1.373-.34A8.003 8.003 0 0 1 23 22a1 1 0 1 1-2 0 6.003 6.003 0 0 0-2.909-5.143 1 1 0 0 1-.34-1.373z"
  />
</svg>
