<svg
  width="24"
  height="24"
  viewBox="0 0 24 24"
  xmlns="http://www.w3.org/2000/svg"
  fill="none"
  stroke="currentColor"
  stroke-width="2"
  stroke-linecap="round"
  stroke-linejoin="round"
>
  <path d="M10 8.5A6 6 0 0 0 5 14" />
  <path d="M14 8.5a6 6 0 0 1 5 5.5" />
  <path d="M7 14H3v4h4v-4z" />
  <path d="M21 14h-4v4h4v-4z" />
  <path d="M14 6h-4v4h4V6z" />
  <path d="M3 9a1 1 0 1 0 0-2 1 1 0 0 0 0 2z" />
  <path d="M21 9a1 1 0 1 0 0-2 1 1 0 0 0 0 2z" />
  <path d="M10 8H4" />
  <path d="M20 8h-6" />
</svg>
