<svg
  width="24"
  height="24"
  viewBox="0 0 24 24"
  xmlns="http://www.w3.org/2000/svg"
>
  <path
    fill-rule="evenodd"
    clip-rule="evenodd"
    d="M2 3a1 1 0 0 1 1-1h4a1 1 0 0 1 1 1v1h5.268A2 2 0 0 1 17 5a2 2 0 0 1-3.732 1H10.61c.258.241.497.507.718.794a7.89 7.89 0 0 1 1.244 2.415A9.21 9.21 0 0 1 13 12c0 1.531.47 2.963 1.257 3.986.512.666 1.117 1.11 1.743 1.335V17a1 1 0 0 1 1-1h4a1 1 0 0 1 1 1v4a1 1 0 0 1-1 1h-4a1 1 0 0 1-1-1v-1h-5.268a2 2 0 1 1 0-2h2.658a6.639 6.639 0 0 1-.718-.794C11.584 15.79 11 13.916 11 12c0-.754-.114-1.496-.333-2.184a5.886 5.886 0 0 0-.924-1.802 4.145 4.145 0 0 0-1.304-1.139A3.278 3.278 0 0 0 8 6.678V7a1 1 0 0 1-1 1H3a1 1 0 0 1-1-1V3zm16 15h2v2h-2v-2zM6 6H4V4h2v2z"
  />
</svg>
