<svg
  width="24"
  height="24"
  viewBox="0 0 24 24"
  xmlns="http://www.w3.org/2000/svg"
  fill="none"
  stroke="currentColor"
  stroke-width="2"
  stroke-linecap="round"
  stroke-linejoin="round"
>
  <path d="M7 5.5c.657 0 1.307.168 1.913.495.634.35 1.187.83 1.623 1.409.464.603.832 1.32 1.083 2.109.252.788.381 1.633.381 2.487 0 1.724.527 3.377 1.464 4.596.938 1.22 2.21 1.904 3.536 1.904" />
  <path d="M15 6a1 1 0 1 0 0-2 1 1 0 0 0 0 2z" />
  <path d="M9 20a1 1 0 1 0 0-2 1 1 0 0 0 0 2z" />
  <path d="M7 3H3v4h4V3z" />
  <path d="M21 17h-4v4h4v-4z" />
  <path d="M10 19h7" />
  <path d="M8 5h7" />
</svg>
