<svg
  width="24"
  height="24"
  viewBox="0 0 24 24"
  xmlns="http://www.w3.org/2000/svg"
  fill="none"
  stroke="currentColor"
  stroke-width="2"
  stroke-linecap="round"
  stroke-linejoin="round"
>
  <path d="M7 5.5c.657 0 1.307.168 1.913.495a5.142 5.142 0 0 1 1.623 1.409c.464.603.832 1.32 1.083 2.109.252.788.381 1.633.381 2.487 0 1.724.527 3.377 1.464 4.596.938 1.22 2.21 1.904 3.536 1.904" />
  <circle cx="15" cy="5" r="1" />
  <circle cx="9" cy="19" r="1" />
  <rect x="3" y="3" width="4" height="4" />
  <rect x="17" y="17" width="4" height="4" />
  <path d="M10 19h7" />
  <path d="M8 5h7" />
</svg>
