<svg
  width="24"
  height="24"
  viewBox="0 0 24 24"
  xmlns="http://www.w3.org/2000/svg"
>
  <path d="M21.98 7.347c-.087 1.948-1.448 4.619-4.078 8.007-2.723 3.54-5.021 5.309-6.908 5.309-1.174 0-2.148-1.079-2.96-3.235L6.434 11.5c-.6-2.153-1.24-3.232-1.927-3.232-.149 0-.671.315-1.567.944L2 7.998c.987-.87 1.96-1.737 2.918-2.607 1.315-1.14 2.304-1.738 2.961-1.8 1.556-.15 2.514.917 2.873 3.2.387 2.46.657 3.99.809 4.588.449 2.042.942 3.062 1.48 3.062.418 0 1.046-.663 1.887-1.988.837-1.324 1.284-2.33 1.344-3.023.12-1.142-.33-1.717-1.345-1.717-.479 0-.973.1-1.481.325.988-3.223 2.862-4.797 5.635-4.697 2.06.05 3.023 1.387 2.91 3.997l-.01.009z" />
</svg>
