<svg
  width="24"
  height="24"
  viewBox="0 0 24 24"
  xmlns="http://www.w3.org/2000/svg"
>
  <g clip-path="url(#a)">
    <path
      fill-rule="evenodd"
      clip-rule="evenodd"
      d="M.293.293a1 1 0 0 1 1.414 0l22 22a1 1 0 0 1-1.414 1.414l-3.929-3.929a1 1 0 0 1-1.414-1.414l-1.474-1.473A5.974 5.974 0 0 1 13 17.917V20a1 1 0 1 1 0 2h-2a1 1 0 1 1 0-2v-2.083a5.966 5.966 0 0 1-2.477-1.026L7.05 18.364a1 1 0 1 1-1.414 1.414l-1.414-1.414a1 1 0 0 1 1.414-1.414l1.473-1.473A5.967 5.967 0 0 1 6.083 13H4a1 1 0 1 1-2 0v-2a1 1 0 1 1 2 0h2.083A5.973 5.973 0 0 1 7.11 8.524L5.636 7.05a1 1 0 1 1-1.414-1.414L.292 1.707a1 1 0 0 1 0-1.414zm8.26 9.675a4 4 0 0 0 5.478 5.478L8.555 9.968zM10 3a1 1 0 0 1 1-1h2a1 1 0 1 1 0 2v2.083a5.967 5.967 0 0 1 2.476 1.026l1.474-1.473a1 1 0 0 1 1.414-1.414l1.414 1.414a1 1 0 0 1-1.414 1.414l-1.473 1.473A5.966 5.966 0 0 1 17.917 11H20a1 1 0 1 1 2 0v2a1 1 0 1 1-2 0h-3a1 1 0 0 1-1-1 4 4 0 0 0-4-4 1 1 0 0 1-1-1V4a1 1 0 0 1-1-1z"
    />
  </g>
  <defs>
    <clipPath id="a">
      <rect width="24" height="24" />
    </clipPath>
  </defs>
</svg>
