<svg width="24" height="24" viewBox="0 0 24 24" fill="none" xmlns="http://www.w3.org/2000/svg">
<path d="M15.536 15.5361C15.0721 16.0011 14.521 16.3698 13.9141 16.621C13.3073 16.8723 12.6568 17.0011 12 17.0001C10.62 17.0001 9.37001 16.4401 8.46401 15.5361C7.99903 15.0723 7.63033 14.5211 7.37908 13.9142C7.12784 13.3074 6.99901 12.6569 7.00001 12.0001C7.00001 10.6201 7.56001 9.37011 8.46401 8.46411" stroke="white" stroke-width="2" stroke-linecap="round" stroke-linejoin="round"/>
<path d="M17 12C17 10.62 16.44 9.37001 15.536 8.46401C15.0721 7.99903 14.521 7.63033 13.9141 7.37908C13.3073 7.12784 12.6568 6.99901 12 7.00001" stroke="white" stroke-width="2" stroke-linecap="round" stroke-linejoin="round"/>
<path d="M4.5 6.5L5.5 5.5" stroke="white" stroke-width="2" stroke-linecap="round" stroke-linejoin="round"/>
<path d="M11 3H13" stroke="white" stroke-width="2" stroke-linecap="round" stroke-linejoin="round"/>
<path d="M17.5 4.5L19.5 6.5" stroke="white" stroke-width="2" stroke-linecap="round" stroke-linejoin="round"/>
<path d="M21 11V13" stroke="white" stroke-width="2" stroke-linecap="round" stroke-linejoin="round"/>
<path d="M1 1L23 23" stroke="white" stroke-width="2" stroke-linecap="round" stroke-linejoin="round"/>
<path d="M17.5 19.5L18.5 18.5" stroke="white" stroke-width="2" stroke-linecap="round" stroke-linejoin="round"/>
<path d="M13 21H11" stroke="white" stroke-width="2" stroke-linecap="round" stroke-linejoin="round"/>
<path d="M6.5 19.5L4.5 17.5" stroke="white" stroke-width="2" stroke-linecap="round" stroke-linejoin="round"/>
<path d="M3 13V11" stroke="white" stroke-width="2" stroke-linecap="round" stroke-linejoin="round"/>
<path d="M5.5 18.4999L8.464 15.5359" stroke="white" stroke-width="2" stroke-linecap="round" stroke-linejoin="round"/>
<path d="M12 17V21" stroke="white" stroke-width="2" stroke-linecap="round" stroke-linejoin="round"/>
<path d="M17 12H21" stroke="white" stroke-width="2" stroke-linecap="round" stroke-linejoin="round"/>
<path d="M18.5 5.5L15.536 8.464" stroke="white" stroke-width="2" stroke-linecap="round" stroke-linejoin="round"/>
<path d="M12 7V3" stroke="white" stroke-width="2" stroke-linecap="round" stroke-linejoin="round"/>
<path d="M7 12H3" stroke="white" stroke-width="2" stroke-linecap="round" stroke-linejoin="round"/>
</svg>
