<svg
  width="24"
  height="24"
  viewBox="0 0 24 24"
  xmlns="http://www.w3.org/2000/svg"
>
  <path
    fill-rule="evenodd"
    clip-rule="evenodd"
    d="M18.5 19.914l3.793 3.793 1.414-1.414-22-22L.293 1.707 4.086 5.5l-.793.793 1.414 1.414.793-.793 1.61 1.61A5.968 5.968 0 0 0 6.082 11H4v-1H2v4h2v-1h2.083a5.973 5.973 0 0 0 1.026 2.476L5.5 17.086l-.793-.793-1.414 1.414 3 3 1.414-1.414-.793-.793 1.61-1.61A5.974 5.974 0 0 0 11 17.918V20h-1v2h4v-2h-1v-2.083a5.974 5.974 0 0 0 2.476-1.026l1.61 1.609-.793.793 1.414 1.414.793-.793zm-4.468-4.468L8.554 9.968A3.981 3.981 0 0 0 8 12c0 1.105.447 2.104 1.172 2.828A3.984 3.984 0 0 0 12 16a3.98 3.98 0 0 0 2.032-.554z"
  />
  <path d="M17.917 13a5.954 5.954 0 0 1-.325 1.178l-1.63-1.63a3.984 3.984 0 0 0-1.134-3.377 3.984 3.984 0 0 0-3.377-1.134l-1.63-1.63c.377-.146.77-.256 1.179-.324V4h-1V2h4v2h-1v2.083a5.973 5.973 0 0 1 2.476 1.026l1.61-1.609-.793-.793 1.414-1.414 3 3-1.414 1.414-.793-.793-1.61 1.61A5.974 5.974 0 0 1 17.918 11H20v-1h2v4h-2v-1h-2.083z" />
</svg>
