<svg
  width="24"
  height="24"
  viewBox="0 0 24 24"
  xmlns="http://www.w3.org/2000/svg"
>
  <path
    fill-rule="evenodd"
    clip-rule="evenodd"
    d="M11 4h-1V2h4v2h-1v2.083a5.973 5.973 0 0 1 2.476 1.026l1.61-1.609-.793-.793 1.414-1.414 3 3-1.414 1.414-.793-.793-1.61 1.61A5.974 5.974 0 0 1 17.918 11H20v-1h2v4h-2v-1h-2.083a5.974 5.974 0 0 1-1.026 2.476l1.609 1.61.793-.793 1.414 1.414-3 3-1.414-1.414.793-.793-1.61-1.61A5.974 5.974 0 0 1 13 17.918V20h1v2h-4v-2h1v-2.083a5.974 5.974 0 0 1-2.476-1.026L6.914 18.5l.793.793-1.414 1.414-3-3 1.414-1.414.793.793 1.61-1.61A5.973 5.973 0 0 1 6.082 13H4v1H2v-4h2v1h2.083a5.968 5.968 0 0 1 1.026-2.477L5.5 6.914l-.793.793-1.414-1.414 3-3 1.414 1.414-.793.793 1.61 1.61A5.968 5.968 0 0 1 11 6.082V4zm1 4a4 4 0 1 0 0 8 4 4 0 0 0 0-8z"
  />
</svg>
