<svg
  width="24"
  height="24"
  viewBox="0 0 24 24"
  xmlns="http://www.w3.org/2000/svg"
  fill="none"
  stroke="currentColor"
  stroke-width="2"
  stroke-linecap="round"
  stroke-linejoin="round"
>
  <path d="M17 12c0 1.38-.56 2.63-1.464 3.536A4.984 4.984 0 0 1 12 17c-1.38 0-2.63-.56-3.536-1.464A4.984 4.984 0 0 1 7 12c0-1.38.56-2.63 1.464-3.536A4.984 4.984 0 0 1 12 7c1.38 0 2.63.56 3.536 1.464A4.984 4.984 0 0 1 17 12z" />
  <path d="M4.5 6.5l2-2" />
  <path d="M11 3h2" />
  <path d="M17.5 4.5l2 2" />
  <path d="M21 11v2" />
  <path d="M19.5 17.5l-2 2" />
  <path d="M13 21h-2" />
  <path d="M6.5 19.5l-2-2" />
  <path d="M3 13v-2" />
  <path d="M5.5 18.5l2.964-2.964" />
  <path d="M12 17v4" />
  <path d="M18.5 18.5l-2.964-2.964" />
  <path d="M17 12h4" />
  <path d="M18.5 5.5l-2.964 2.964" />
  <path d="M12 7V3" />
  <path d="M5.5 5.5l2.964 2.964" />
  <path d="M7 12H3" />
</svg>
