<svg
  width="24"
  height="24"
  viewBox="0 0 24 24"
  xmlns="http://www.w3.org/2000/svg"
>
  <path d="M16.538 9.186a4.16 4.16 0 0 0-1.45-.25c-1.6 0-2.73.806-2.738 1.962-.01.85.803 1.328 1.418 1.613.63.292.841.475.84.737-.005.398-.505.578-.969.578-.638 0-.988-.09-1.526-.313l-.199-.092-.226 1.332c.389.162 1.089.301 1.813.312 1.7 0 2.812-.8 2.826-2.032.013-.678-.425-1.192-1.351-1.615-.562-.275-.912-.46-.912-.739 0-.246.3-.51.924-.51.538-.008.914.108 1.213.228l.15.067.226-1.286-.04.008zm4.152-.142h-1.25c-.39 0-.68.106-.85.493l-2.405 5.445h1.7l.34-.892 2.076.002c.05.208.2.89.2.89H22l-1.31-5.938zm-10.64-.05h1.62l-1.013 5.941h-1.62l1.013-5.942v.001zm-4.116 3.274l.168.825 1.585-4.049h1.715l-2.55 5.93H5.14l-1.4-5.022a.332.332 0 0 0-.15-.198A6.843 6.843 0 0 0 2 9.165l.02-.125h2.61c.353.013.638.125.736.503l.568 2.728v-.003zm12.757.606l.646-1.661c-.009.016.133-.344.215-.567l.11.512.375 1.715H18.69v.001z" />
</svg>
