<svg
  width="24"
  height="24"
  viewBox="0 0 24 24"
  xmlns="http://www.w3.org/2000/svg"
>
  <path d="M16.65 2.058a1.25 1.25 0 0 0-.86.327.72.72 0 0 0-.042.037l-6.64 7.342-3.875-3.177-.339-.292a.833.833 0 0 0-.862-.124l-1.514.625a.834.834 0 0 0-.2.119.835.835 0 0 0-.213.254.834.834 0 0 0-.063.155.836.836 0 0 0-.036.235v8.883a.833.833 0 0 0 .512.764l1.514.636a.833.833 0 0 0 .861-.136l.34-.292 3.875-3.177 6.64 7.341.06.054a1.18 1.18 0 0 0 .096.077 1.263 1.263 0 0 0 .161.098 1.202 1.202 0 0 0 .176.072 1.16 1.16 0 0 0 .303.06 1.12 1.12 0 0 0 .19-.002 1.16 1.16 0 0 0 .245-.046c.02-.005.038-.01.057-.017l.058-.023.074-.031 4.119-1.98a1.25 1.25 0 0 0 .47-.395l.004-.006a1.26 1.26 0 0 0 .118-.204l.008-.014a1.278 1.278 0 0 0 .07-.21.817.817 0 0 0 .022-.114l.007-.041a1.28 1.28 0 0 0 .005-.076l.003-.066V5.288v-.001a1.186 1.186 0 0 0-.008-.152 1.25 1.25 0 0 0-.7-.975l-4.117-1.98a1.25 1.25 0 0 0-.517-.12l-.002-.002zm.348 5.71v8.464l-5.163-4.231 5.162-4.233zM4.503 9.147L7.085 12l-2.58 2.853V9.147z" />
</svg>
