<svg
  width="24"
  height="24"
  viewBox="0 0 24 24"
  xmlns="http://www.w3.org/2000/svg"
>
  <path
    fill-rule="evenodd"
    clip-rule="evenodd"
    d="M19.553 4.658l1.789.895-.448.894a22.123 22.123 0 0 1-2.23 3.542c-.559.719-1.198 1.43-1.888 2.01.69.581 1.329 1.293 1.888 2.012a22.125 22.125 0 0 1 2.23 3.542l.448.894-1.79.895-.446-.895a20.129 20.129 0 0 0-2.02-3.208c-.778-1-1.592-1.806-2.338-2.24H13v5a1 1 0 0 1-1.217.977c-2.574-.572-4.762-2.401-6.41-4.707-1.654-2.317-2.833-5.207-3.357-8.09l-.179-.984 1.968-.358.179.984C4.46 8.437 5.53 11.047 7 13.106c1.162 1.627 2.53 2.853 3.999 3.51V7H9V5h3a1 1 0 0 1 1 1v5h1.748c.746-.434 1.56-1.24 2.338-2.24a20.13 20.13 0 0 0 2.02-3.207l.447-.895z"
  />
</svg>
