<svg
  width="24"
  height="24"
  viewBox="0 0 24 24"
  xmlns="http://www.w3.org/2000/svg"
>
  <path d="M15.07 2H8.93C3.327 2 2 3.327 2 8.93v6.14C2 20.673 3.327 22 8.93 22h6.14c5.603 0 6.93-1.327 6.93-6.93V8.93C22 3.327 20.66 2 15.07 2zm3.077 14.27h-1.454c-.55 0-.72-.438-1.708-1.44-.86-.833-1.242-.946-1.453-.946-.297 0-.382.085-.382.494v1.313c0 .353-.113.565-1.044.565-1.538 0-3.247-.932-4.446-2.668-1.807-2.54-2.302-4.446-2.302-4.841 0-.212.085-.41.495-.41h1.453c.367 0 .508.17.65.565.719 2.075 1.919 3.896 2.413 3.896.184 0 .268-.085.268-.55V10.1c-.056-.989-.579-1.073-.579-1.425 0-.17.142-.34.367-.34h2.287c.31 0 .423.17.423.537v2.894c0 .31.142.423.226.423.183 0 .339-.113.677-.452 1.045-1.171 1.793-2.978 1.793-2.978.099-.212.268-.41.636-.41h1.453c.438 0 .537.226.438.537-.184.847-1.962 3.359-1.962 3.359-.155.254-.212.367 0 .65.155.211.663.649 1.002 1.044.621.706 1.1 1.298 1.228 1.708.141.409-.071.62-.48.62v.001z" />
</svg>
