<svg
  width="24"
  height="24"
  viewBox="0 0 24 24"
  xmlns="http://www.w3.org/2000/svg"
>
  <path
    fill-rule="evenodd"
    clip-rule="evenodd"
    d="M20.447 5.106a1 1 0 0 1 .447 1.341 22.122 22.122 0 0 1-2.23 3.542c-.559.72-1.198 1.43-1.888 2.011.69.58 1.329 1.292 1.888 2.011a22.12 22.12 0 0 1 2.23 3.542 1 1 0 1 1-1.788.894 20.128 20.128 0 0 0-2.02-3.208c-.778-1-1.592-1.805-2.338-2.239H13v5a1 1 0 0 1-1.217.976c-2.574-.572-4.762-2.401-6.41-4.707-1.654-2.316-2.833-5.206-3.357-8.09a1 1 0 1 1 1.968-.358C4.46 8.438 5.53 11.048 7 13.107c1.162 1.626 2.53 2.852 3.999 3.51V7h-1a1 1 0 0 1 0-2h2a1 1 0 0 1 1 1v5h1.748c.746-.433 1.56-1.239 2.338-2.239a20.131 20.131 0 0 0 2.02-3.208 1 1 0 0 1 1.341-.447z"
  />
</svg>
