<svg
  width="24"
  height="24"
  viewBox="0 0 24 24"
  xmlns="http://www.w3.org/2000/svg"
  fill="none"
  stroke="currentColor"
  stroke-width="2"
  stroke-linecap="round"
  stroke-linejoin="round"
>
  <path d="M12 21a9 9 0 1 0 0-18 9 9 0 0 0 0 18z" />
  <path d="M7.5 13.5A12 12 0 0 0 16 20" />
  <path d="M12 12a8 8 0 0 0 8 4" />
  <path d="M12.951 7.353a12 12 0 0 0-9.88 4.11" />
  <path d="M12 12a8 8 0 0 0-7.464 4.928" />
  <path d="M15.549 15.147a12 12 0 0 0 1.38-10.61" />
  <path d="M12 12a8 8 0 0 0-.536-8.928" />
</svg>
