<svg
  width="24"
  height="24"
  viewBox="0 0 24 24"
  xmlns="http://www.w3.org/2000/svg"
>
  <path
    fill-rule="evenodd"
    clip-rule="evenodd"
    d="M11.383 3.076A1 1 0 0 1 12 4v16a1 1 0 0 1-1.707.707L5.586 16H2a1 1 0 0 1-1-1V9a1 1 0 0 1 1-1h3.586l4.707-4.707a1 1 0 0 1 1.09-.217zM10 6.414L6.707 9.707A1 1 0 0 1 6 10H3v4h3a1 1 0 0 1 .707.293L10 17.586V6.414zm8.255-1.79a1 1 0 0 1 1.412-.077A9.978 9.978 0 0 1 23 12a9.978 9.978 0 0 1-3.333 7.454 1 1 0 1 1-1.334-1.49A7.978 7.978 0 0 0 21 12a7.978 7.978 0 0 0-2.667-5.963 1 1 0 0 1-.078-1.412zm-4.036 2.751a1 1 0 0 1 1.406-.156C17.06 8.37 18 10.072 18 12c0 1.928-.94 3.631-2.375 4.78a1 1 0 0 1-1.25-1.56C15.395 14.402 16 13.25 16 12c0-1.25-.606-2.403-1.625-3.22a1 1 0 0 1-.156-1.405z"
  />
</svg>
