<svg
  width="24"
  height="24"
  viewBox="0 0 24 24"
  xmlns="http://www.w3.org/2000/svg"
>
  <path
    fill-rule="evenodd"
    clip-rule="evenodd"
    d="M11.383 3.076A1 1 0 0 1 12 4v16a1 1 0 0 1-1.707.707L5.586 16H2a1 1 0 0 1-1-1V9a1 1 0 0 1 1-1h3.586l4.707-4.707a1 1 0 0 1 1.09-.217zM10 6.414L6.707 9.707A1 1 0 0 1 6 10H3v4h3a1 1 0 0 1 .707.293L10 17.586V6.414zm5.293 1.879a1 1 0 0 1 1.414 0L19 10.586l2.293-2.293a1 1 0 1 1 1.414 1.414L20.414 12l2.293 2.293a1 1 0 0 1-1.414 1.414L19 13.414l-2.293 2.293a1 1 0 1 1-1.414-1.414L17.586 12l-2.293-2.293a1 1 0 0 1 0-1.414z"
  />
</svg>
