<svg
  width="24"
  height="24"
  viewBox="0 0 24 24"
  xmlns="http://www.w3.org/2000/svg"
>
  <path
    fill-rule="evenodd"
    clip-rule="evenodd"
    d="M11 4a2 2 0 1 1 4 0 2 2 0 0 1-4 0zm.758 3.03a1 1 0 0 1 .95.263l2.832 2.833 2.776.925a1 1 0 0 1-.632 1.898l-3-1a1 1 0 0 1-.391-.242l-1.626-1.626-.596 3.576 2.636 2.636c.076.076.14.164.187.26l2 4a1 1 0 1 1-1.788.894l-1.928-3.855-2.885-2.885a1 1 0 0 1-.28-.871l.75-4.496-2.145.536-1.786 2.679a1 1 0 0 1-1.664-1.11l2-3a1 1 0 0 1 .59-.415l4-1zM10.6 16.2a1 1 0 0 1 .2 1.4l-3 4a1 1 0 1 1-1.6-1.2l3-4a1 1 0 0 1 1.4-.2z"
  />
</svg>
