<svg
  width="24"
  height="24"
  viewBox="0 0 24 24"
  xmlns="http://www.w3.org/2000/svg"
>
  <path
    fill-rule="evenodd"
    clip-rule="evenodd"
    d="M11 4a2 2 0 1 1 4 0 2 2 0 0 1-4 0zm.757 3.03a1 1 0 0 1 .95.263l2.833 2.833 3.725 1.242-.633 1.897-3.948-1.316a1 1 0 0 1-.391-.242l-1.626-1.626-.596 3.576 2.636 2.636c.076.076.14.164.187.26l2.448 4.894-1.79.895-2.374-4.75-2.885-2.885a1 1 0 0 1-.28-.871l.75-4.496-2.145.536-2.34 3.51-1.665-1.109 2.555-3.832a1 1 0 0 1 .59-.415l4-1zM11.4 16.8l-4.2 5.6-1.6-1.2 4.2-5.6 1.6 1.2z"
  />
</svg>
