<svg
  width="24"
  height="24"
  viewBox="0 0 24 24"
  xmlns="http://www.w3.org/2000/svg"
>
  <path d="M20.499 17.415L12.357 22V18.43l5.073-2.778 3.069 1.764zm.557-.502v-9.59l-2.98 1.713v6.163l2.98 1.714zM3.5 17.415L11.643 22V18.43L6.57 15.651l-3.069 1.764zm-.557-.502v-9.59l2.98 1.713v6.163l-2.98 1.714zm.349-10.21L11.643 2v3.453l-5.35 2.93-.04.023-2.96-1.703zm17.414 0L12.357 2v3.453l5.35 2.93.04.023 2.96-1.703zm-9.064 10.914l-5.005-2.74V9.45l5.005 2.877v5.29zm.714 0l5.005-2.74V9.45l-5.005 2.877v5.29zM6.977 8.82l5.024-2.75 5.024 2.75-5.024 2.89-5.024-2.89z" />
</svg>
