<svg
  width="24"
  height="24"
  viewBox="0 0 24 24"
  xmlns="http://www.w3.org/2000/svg"
>
  <path d="M21.617 12.623c-.507-1.15-1.465-2.063-2.576-2.626-1.962-.993-4.401-.987-6.358.025-1.359.698-2.494 1.948-2.815 3.469-.265 1.12-.028 2.326.566 3.3.884 1.469 2.483 2.406 4.143 2.707 1.202.244 2.446.1 3.615-.237.701.271 1.326.711 2.006 1.038a43.656 43.656 0 0 0-.563-1.752c.763-.541 1.455-1.217 1.87-2.065a4.48 4.48 0 0 0 .113-3.859zm-8.27-7.888c-2.079-1.17-4.668-1.346-6.904-.538-1.47.53-2.8 1.513-3.622 2.85-.746 1.209-1.025 2.715-.666 4.098.36 1.533 1.426 2.82 2.718 3.677-.25.709-.487 1.416-.712 2.13.812-.425 1.625-.87 2.438-1.301a9.05 9.05 0 0 0 3.05.431 5.132 5.132 0 0 1-.212-2.459c.187-1.142.812-2.187 1.661-2.961 1.439-1.346 3.476-1.914 5.414-1.776-.364-1.78-1.614-3.283-3.187-4.15h.023v-.001zm1.445 8.324c-.175.543-.964.707-1.346.293-.422-.382-.258-1.181.296-1.352.611-.258 1.318.447 1.05 1.06zm3.996.077c-.214.488-.951.602-1.314.225-.174-.16-.225-.4-.287-.609.087-.381.35-.777.775-.795.588-.082 1.114.644.813 1.18h.013v-.001zm-5.963-5.379c.007.801-1.063 1.301-1.662.758-.623-.446-.446-1.53.284-1.755.655-.263 1.428.287 1.376.987l.002.01zm-5.05.204c-.142.696-1.075 1.031-1.62.565-.633-.446-.456-1.551.287-1.776.727-.28 1.554.458 1.334 1.21z" />
</svg>
