<svg
  width="24"
  height="24"
  viewBox="0 0 24 24"
  xmlns="http://www.w3.org/2000/svg"
>
  <path d="M16.56 13.985c-.248-.124-1.465-.722-1.692-.806-.227-.082-.392-.123-.558.125-.164.248-.64.805-.784.97-.144.166-.289.186-.536.063-.248-.125-1.046-.386-1.992-1.23-.736-.656-1.233-1.467-1.377-1.715-.144-.248-.015-.382.108-.505.112-.111.248-.29.372-.434.124-.145.165-.248.248-.414.082-.165.042-.309-.02-.433-.063-.124-.558-1.343-.764-1.84-.202-.482-.406-.416-.558-.424-.144-.007-.309-.009-.475-.009a.907.907 0 0 0-.66.31c-.226.248-.866.847-.866 2.066 0 1.219.887 2.396 1.01 2.562.125.165 1.747 2.667 4.231 3.74.591.254 1.052.407 1.412.52.593.19 1.133.162 1.56.098.475-.07 1.464-.599 1.67-1.177.207-.579.207-1.074.145-1.178-.062-.103-.227-.165-.475-.289zm-4.518 6.17h-.004a8.224 8.224 0 0 1-4.192-1.15l-.301-.177-3.118.818.832-3.04-.196-.312a8.216 8.216 0 0 1-1.258-4.383c0-4.542 3.697-8.237 8.24-8.237 2.2 0 4.268.859 5.823 2.415a8.188 8.188 0 0 1 2.411 5.829c-.003 4.541-3.698 8.236-8.238 8.236zm7.01-15.248A9.847 9.847 0 0 0 12.042 2C6.578 2 2.132 6.446 2.13 11.91c0 1.747.456 3.452 1.323 4.954L2.047 22l5.255-1.378a9.902 9.902 0 0 0 4.735 1.206h.004c5.462 0 9.909-4.445 9.911-9.91a9.851 9.851 0 0 0-2.9-7.011z" />
</svg>
