<svg
  width="24"
  height="24"
  viewBox="0 0 24 24"
  xmlns="http://www.w3.org/2000/svg"
>
  <path
    fill-rule="evenodd"
    clip-rule="evenodd"
    d="M11.516 3a1.11 1.11 0 0 0-1.121 1.097 1.11 1.11 0 0 0 1.12 1.097 1.11 1.11 0 0 0 1.122-1.097A1.11 1.11 0 0 0 11.516 3zM8.395 4.097C8.395 2.376 9.803 1 11.515 1c1.714 0 3.122 1.376 3.122 3.097 0 1.37-.893 2.522-2.121 2.935v2.357h5.302v2h-5.302v2.194h3.242a1 1 0 0 1 .777.371l4.871 6.02-1.554 1.259-4.571-5.65h-3.765a1 1 0 0 1-1-1V7.032a3.099 3.099 0 0 1-2.121-2.935zm.183 7.362l-.925.38a4.3 4.3 0 0 0-1.603 1.14 4.224 4.224 0 0 0-.915 1.724 4.186 4.186 0 0 0-.04 1.942c.14.642.428 1.244.844 1.758s.948.927 1.555 1.204a4.354 4.354 0 0 0 3.851-.116 4.285 4.285 0 0 0 1.478-1.294l.58-.814 1.629 1.16-.58.815a6.284 6.284 0 0 1-2.167 1.899 6.349 6.349 0 0 1-7.9-1.596A6.218 6.218 0 0 1 3.14 17.07a6.186 6.186 0 0 1 .058-2.87 6.223 6.223 0 0 1 1.348-2.54 6.3 6.3 0 0 1 2.348-1.672l.925-.38.758 1.851z"
  />
</svg>
