<svg width="24" height="24" viewBox="0 0 24 24" fill="none" xmlns="http://www.w3.org/2000/svg">
<path d="M11 7C12.1046 7 13 6.10457 13 5C13 3.89543 12.1046 3 11 3C9.89543 3 9 3.89543 9 5C9 6.10457 9.89543 7 11 7Z" stroke="#1E293B" stroke-width="2" stroke-linecap="round" stroke-linejoin="round"/>
<path d="M11 7V15H15L19 20" stroke="#1E293B" stroke-width="2" stroke-linecap="round" stroke-linejoin="round"/>
<path d="M11 11H16" stroke="#1E293B" stroke-width="2" stroke-linecap="round" stroke-linejoin="round"/>
<path d="M7.00001 11.5C6.2835 11.7967 5.64584 12.2561 5.13743 12.8417C4.62902 13.4273 4.26381 14.1231 4.07065 14.8742C3.8775 15.6253 3.8617 16.411 4.02451 17.1692C4.18733 17.9275 4.52428 18.6374 5.00874 19.243C5.4932 19.8486 6.11189 20.3332 6.81589 20.6585C7.51989 20.9837 8.28991 21.1408 9.06507 21.1172C9.84022 21.0937 10.5993 20.8901 11.2822 20.5226C11.9651 20.1552 12.5532 19.6339 13 19" stroke="#1E293B" stroke-width="2" stroke-linecap="round" stroke-linejoin="round"/>
</svg>
