<svg
  width="24"
  height="24"
  viewBox="0 0 24 24"
  xmlns="http://www.w3.org/2000/svg"
>
  <g clip-path="url(#a)">
    <path
      fill-rule="evenodd"
      clip-rule="evenodd"
      d="M.293.293a1 1 0 0 1 1.414 0l22 22a1 1 0 0 1-1.414 1.414l-6.715-6.715a.998.998 0 0 1-.863-.138 4.72 4.72 0 0 0-2.71-.854 4.72 4.72 0 0 0-2.71.854 1 1 0 0 1-1.15-1.638 6.72 6.72 0 0 1 4.468-1.188l-2.77-2.771a9.448 9.448 0 0 0-3.824 1.894 1 1 0 1 1-1.27-1.545 11.43 11.43 0 0 1 3.483-1.96L5.948 7.363a14.137 14.137 0 0 0-3.254 2.124 1 1 0 0 1-1.313-1.509 16.126 16.126 0 0 1 3.076-2.106L.293 1.707a1 1 0 0 1 0-1.414zM12.038 6c-.602 0-1.2.038-1.792.113a1 1 0 0 1-.25-1.985 16.232 16.232 0 0 1 12.7 3.849 1 1 0 1 1-1.315 1.509A14.233 14.233 0 0 0 12.038 6zm2.656 4.292a1 1 0 0 1 1.282-.598c1.21.44 2.344 1.084 3.351 1.912a1 1 0 0 1-1.27 1.545 9.428 9.428 0 0 0-2.765-1.578 1 1 0 0 1-.598-1.281zM11 20a1 1 0 0 1 1-1h.01a1 1 0 0 1 0 2H12a1 1 0 0 1-1-1z"
    />
  </g>
  <defs>
    <clipPath id="a">
      <rect width="24" height="24" />
    </clipPath>
  </defs>
</svg>
