<svg
  width="24"
  height="24"
  viewBox="0 0 24 24"
  xmlns="http://www.w3.org/2000/svg"
>
  <path
    fill-rule="evenodd"
    clip-rule="evenodd"
    d="M12.038 6C8.596 6 5.274 7.24 2.694 9.486a1 1 0 0 1-1.313-1.509A16.233 16.233 0 0 1 12.038 4c3.922 0 7.711 1.413 10.656 3.977a1 1 0 1 1-1.313 1.509A14.233 14.233 0 0 0 12.038 6zm0 5c-2.201 0-4.33.762-6.019 2.15a1 1 0 1 1-1.27-1.544A11.476 11.476 0 0 1 12.037 9c2.662 0 5.241.921 7.29 2.606a1 1 0 0 1-1.271 1.545A9.476 9.476 0 0 0 12.037 11zm-.033 5a4.72 4.72 0 0 0-2.71.854 1 1 0 0 1-1.15-1.638A6.72 6.72 0 0 1 12.006 14a6.72 6.72 0 0 1 3.859 1.216 1 1 0 0 1-1.15 1.638 4.72 4.72 0 0 0-2.71-.854zM11 20a1 1 0 0 1 1-1h.01a1 1 0 0 1 0 2H12a1 1 0 0 1-1-1z"
  />
</svg>
