<svg width="24" height="24" viewBox="0 0 24 24" fill="none" xmlns="http://www.w3.org/2000/svg">
<path d="M1 1L23 23" stroke="#1E293B" stroke-width="2" stroke-linecap="round" stroke-linejoin="round"/>
<path d="M12 20H12.01" stroke="#1E293B" stroke-width="2" stroke-linecap="round" stroke-linejoin="round"/>
<path d="M8.53 16.11C9.5452 15.3887 10.7597 15.0012 12.005 15.0012C13.2503 15.0012 14.4648 15.3887 15.48 16.11" stroke="#1E293B" stroke-width="2" stroke-linecap="round" stroke-linejoin="round"/>
<path d="M5 12.55C6.4905 11.3085 8.27355 10.4905 10.1634 10.1633" stroke="#1E293B" stroke-width="2" stroke-linecap="round" stroke-linejoin="round"/>
<path d="M1.41998 8.99996C2.82033 7.76559 4.41343 6.79635 6.12164 6.12158" stroke="#1E293B" stroke-width="2" stroke-linecap="round" stroke-linejoin="round"/>
<path d="M22.58 9.00004C19.6576 6.424 15.8957 5.00269 12 5.00269C11.3668 5.00269 10.7372 5.04023 10.1142 5.11417" stroke="#1E293B" stroke-width="2" stroke-linecap="round" stroke-linejoin="round"/>
<path d="M19.08 12.5502C18.0387 11.6829 16.8547 11.0223 15.5912 10.5913" stroke="#1E293B" stroke-width="2" stroke-linecap="round" stroke-linejoin="round"/>
</svg>
