<svg width="24" height="24" viewBox="0 0 24 24" fill="none" xmlns="http://www.w3.org/2000/svg">
<path fill-rule="evenodd" clip-rule="evenodd" d="M20.6618 2.25033C20.8768 2.44015 21 2.71317 21 3.00001V21C21 21.2868 20.8768 21.5599 20.6618 21.7497C20.4468 21.9395 20.1606 22.0279 19.876 21.9923L3.87597 19.9923C3.37554 19.9297 3 19.5043 3 19V5.00001C3 4.49568 3.37554 4.07028 3.87597 4.00773L19.876 2.00773C20.1606 1.97215 20.4468 2.0605 20.6618 2.25033ZM12 5.00779V11H19V4.13279L12 5.00779ZM19 13H12V18.9922L19 19.8672V13ZM10 18.7422V13H5V18.1172L10 18.7422ZM5 11H10V5.25779L5 5.88279V11Z" fill="black"/>
</svg>
