<svg width="24" height="24" viewBox="0 0 24 24" fill="none" xmlns="http://www.w3.org/2000/svg">
<path fill-rule="evenodd" clip-rule="evenodd" d="M10 5.5C10 3.567 11.567 2 13.5 2C15.433 2 17 3.567 17 5.5C17 7.433 15.433 9 13.5 9H5C4.44772 9 4 9.44772 4 10C4 10.5523 4.44772 11 5 11H18.5C20.433 11 22 12.567 22 14.5C22 16.433 20.433 18 18.5 18C16.567 18 15 16.433 15 14.5C15 13.9477 15.4477 13.5 16 13.5C16.5523 13.5 17 13.9477 17 14.5C17 15.3284 17.6716 16 18.5 16C19.3284 16 20 15.3284 20 14.5C20 13.6716 19.3284 13 18.5 13H5C3.34315 13 2 11.6569 2 10C2 8.34315 3.34315 7 5 7H13.5C14.3284 7 15 6.32843 15 5.5C15 4.67157 14.3284 4 13.5 4C12.6716 4 12 4.67157 12 5.5C12 6.05228 11.5523 6.5 11 6.5C10.4477 6.5 10 6.05228 10 5.5ZM4 16C4 15.4477 4.44772 15 5 15H10.5C12.433 15 14 16.567 14 18.5C14 20.433 12.433 22 10.5 22C8.567 22 7 20.433 7 18.5C7 17.9477 7.44772 17.5 8 17.5C8.55228 17.5 9 17.9477 9 18.5C9 19.3284 9.67157 20 10.5 20C11.3284 20 12 19.3284 12 18.5C12 17.6716 11.3284 17 10.5 17H5C4.44772 17 4 16.5523 4 16Z" fill="black"/>
</svg>
