<svg
  width="24"
  height="24"
  viewBox="0 0 24 24"
  xmlns="http://www.w3.org/2000/svg"
>
  <path
    fill-rule="evenodd"
    clip-rule="evenodd"
    d="M11 2h1c3.21 0 6 2.36 6 5.5 0 1.354-.519 2.563-1.366 3.5H22v1c0 3.21-2.36 6-5.5 6-1.354 0-2.563-.519-3.5-1.366V22h-1c-3.21 0-6-2.36-6-5.5 0-1.354.519-2.563 1.366-3.5H2v-1c0-3.21 2.36-6 5.5-6 1.354 0 2.563.519 3.5 1.366V2zm-.108 9c-.397-1.782-1.83-3-3.392-3-1.563 0-2.995 1.218-3.392 3h6.784zM11 13.108c-1.782.397-3 1.83-3 3.392 0 1.563 1.218 2.995 3 3.392v-6.784zM13.108 13h6.784c-.397 1.782-1.83 3-3.392 3-1.563 0-2.995-1.218-3.392-3zM13 10.892c1.782-.397 3-1.83 3-3.392 0-1.563-1.218-2.995-3-3.392v6.784z"
  />
</svg>
