<svg width="24" height="24" viewBox="0 0 24 24" fill="none" xmlns="http://www.w3.org/2000/svg">
<path d="M12.3892 18.0308C12.5318 18.4164 12.7773 18.7556 13.0991 19.0115C13.421 19.2674 13.8067 19.4303 14.2146 19.4824C14.6224 19.5345 15.0368 19.4739 15.4126 19.3071C15.7884 19.1403 16.1113 18.8737 16.3463 18.5363C16.5813 18.1989 16.7193 17.8036 16.7455 17.3933C16.7716 16.9829 16.6848 16.5733 16.4945 16.2088C16.3042 15.8443 16.0177 15.539 15.6661 15.3259C15.3144 15.1127 14.9112 15 14.5 15H4" stroke="#1E293B" stroke-width="2" stroke-linecap="round" stroke-linejoin="round"/>
<path d="M9.13917 5.96925C9.28179 5.58361 9.52733 5.24442 9.84915 4.98851C10.171 4.7326 10.5567 4.56975 10.9646 4.51765C11.3724 4.46555 11.7868 4.52619 12.1626 4.69298C12.5384 4.85977 12.8613 5.12633 13.0963 5.46373C13.3313 5.80112 13.4693 6.19645 13.4955 6.60678C13.5216 7.01711 13.4348 7.42676 13.2445 7.79123C13.0542 8.15571 12.7677 8.46108 12.4161 8.67419C12.0644 8.8873 11.6612 9 11.25 9.00005H2.25" stroke="#1E293B" stroke-width="2" stroke-linecap="round" stroke-linejoin="round"/>
<path d="M17.3892 8.96925C17.5318 8.58361 17.7773 8.24442 18.0991 7.98851C18.421 7.7326 18.8067 7.56976 19.2146 7.51765C19.6224 7.46555 20.0368 7.52619 20.4126 7.69298C20.7884 7.85977 21.1113 8.12633 21.3463 8.46373C21.5813 8.80112 21.7193 9.19645 21.7455 9.60678C21.7716 10.0171 21.6848 10.4268 21.4945 10.7912C21.3042 11.1557 21.0177 11.4611 20.6661 11.6742C20.3144 11.8873 19.9112 12 19.5 12H3" stroke="#1E293B" stroke-width="2" stroke-linecap="round" stroke-linejoin="round"/>
</svg>
