<svg width="24" height="24" viewBox="0 0 24 24" fill="none" xmlns="http://www.w3.org/2000/svg">
<path d="M12.39 18.03C12.5325 18.4157 12.778 18.7549 13.0998 19.0109C13.4216 19.2668 13.8073 19.4297 14.2152 19.4818C14.623 19.534 15.0374 19.4734 15.4132 19.3066C15.789 19.1398 16.1119 18.8732 16.3469 18.5358C16.5819 18.1984 16.7199 17.803 16.7459 17.3927C16.772 16.9824 16.6852 16.5727 16.4948 16.2083C16.3044 15.8438 16.0178 15.5385 15.6662 15.3255C15.3145 15.1125 14.9112 14.9999 14.5 15H4" stroke="white" stroke-width="2" stroke-linecap="round" stroke-linejoin="round"/>
<path d="M9.14 5.97C9.28254 5.58433 9.52803 5.2451 9.8498 4.98914C10.1716 4.73318 10.5573 4.57029 10.9652 4.51816C11.373 4.46603 11.7874 4.52665 12.1632 4.69344C12.539 4.86022 12.8619 5.1268 13.0969 5.46421C13.3319 5.80163 13.4699 6.19697 13.4959 6.60731C13.522 7.01764 13.4352 7.42728 13.2448 7.79172C13.0544 8.15616 12.7678 8.46147 12.4162 8.67449C12.0645 8.88751 11.6612 9.00009 11.25 9H2.25" stroke="white" stroke-width="2" stroke-linecap="round" stroke-linejoin="round"/>
<path d="M17.39 8.97C17.5325 8.58434 17.778 8.2451 18.0998 7.98914C18.4216 7.73318 18.8073 7.57029 19.2152 7.51816C19.623 7.46603 20.0374 7.52665 20.4132 7.69344C20.789 7.86022 21.1119 8.1268 21.3469 8.46421C21.5819 8.80163 21.7199 9.19697 21.7459 9.60731C21.772 10.0176 21.6852 10.4273 21.4948 10.7917C21.3044 11.1562 21.0178 11.4615 20.6662 11.6745C20.3145 11.8875 19.9112 12.0001 19.5 12H3" stroke="white" stroke-width="2" stroke-linecap="round" stroke-linejoin="round"/>
</svg>
