<svg
  width="24"
  height="24"
  viewBox="0 0 24 24"
  xmlns="http://www.w3.org/2000/svg"
>
  <path d="M19.89 7.688A8.965 8.965 0 0 1 20.99 12a8.985 8.985 0 0 1-4.47 7.77l2.746-7.938c.512-1.284.683-2.31.683-3.22 0-.338-.022-.65-.058-.925zm-6.65.086c.54-.025 1.027-.087 1.027-.087.485-.063.428-.775-.056-.75 0 0-1.463.113-2.4.113-.887 0-2.375-.125-2.375-.125-.488-.025-.551.713-.063.737 0 0 .45.051.938.075l1.4 3.838-1.975 5.9L6.462 7.75c.54-.025 1.028-.083 1.028-.083.487-.063.43-.775-.054-.747 0 0-1.455.115-2.395.115-.167 0-.365-.007-.575-.013C6.093 4.626 8.863 3.013 12 3.013c2.34 0 4.47.894 6.072 2.361-.039-.002-.076-.007-.118-.007-.883 0-1.51.769-1.51 1.595 0 .741.428 1.369.884 2.109.342.6.741 1.37.741 2.48 0 .763-.295 1.662-.684 2.9l-.896 2.988-3.25-9.675.001.011zM12 20.987a8.996 8.996 0 0 1-2.54-.364l2.697-7.839 2.763 7.573c.02.044.042.084.065.124a8.998 8.998 0 0 1-2.985.507v-.001zM3.01 12c0-1.303.28-2.542.778-3.658L8.075 20.09A8.995 8.995 0 0 1 3.009 12zM12 2C6.487 2 2 6.487 2 12c0 5.512 4.487 10 10 10 5.512 0 10-4.488 10-10 0-5.513-4.488-10-10-10z" />
</svg>
