<svg width="24" height="24" viewBox="0 0 24 24" fill="none" xmlns="http://www.w3.org/2000/svg">
<path d="M21 12C21 13.8401 20.4478 15.5512 19.5 16.9767C17.8876 19.4017 15.1305 21 12 21C8.86954 21 6.11238 19.4017 4.5 16.9767C3.55223 15.5512 3 13.8401 3 12C3 10.1599 3.55223 8.44877 4.5 7.02331C6.11238 4.59826 8.86954 3 12 3C15.1305 3 17.8876 4.59826 19.5 7.02331C20.4478 8.44877 21 10.1599 21 12Z" stroke="#1E293B" stroke-width="2" stroke-linecap="round" stroke-linejoin="round"/>
<path d="M4.5 16.9767H19.5" stroke="#1E293B" stroke-width="2" stroke-linecap="round" stroke-linejoin="round"/>
<path d="M21 12H3" stroke="#1E293B" stroke-width="2" stroke-linecap="round" stroke-linejoin="round"/>
<path d="M4.5 7.02332H12H19.5" stroke="#1E293B" stroke-width="2" stroke-linecap="round" stroke-linejoin="round"/>
</svg>
