<svg
  width="24"
  height="24"
  viewBox="0 0 24 24"
  xmlns="http://www.w3.org/2000/svg"
>
  <path
    fill-rule="evenodd"
    clip-rule="evenodd"
    d="M4.831 8.446a9.16 9.16 0 0 1 .399-.188 13.187 13.187 0 0 1 2.274-.754 13.18 13.18 0 0 1 .754-2.274 9.16 9.16 0 0 1 .188-.399A8.034 8.034 0 0 0 4.83 8.446zM12 2C6.477 2 2 6.477 2 12s4.477 10 10 10 10-4.477 10-10S17.523 2 12 2zm0 2c-.227 0-.518.1-.868.432-.354.337-.719.872-1.047 1.61-.147.331-.283.695-.405 1.086A20.863 20.863 0 0 1 12 7a20.8 20.8 0 0 1 2.32.128 10.09 10.09 0 0 0-.405-1.086c-.328-.738-.693-1.273-1.047-1.61C12.518 4.099 12.227 4 12 4zm4.496 3.504a13.186 13.186 0 0 0-.754-2.274 9.78 9.78 0 0 0-.188-.399 8.034 8.034 0 0 1 3.615 3.615 9.877 9.877 0 0 0-.399-.188 13.186 13.186 0 0 0-2.274-.754zm-1.703 1.703A18.44 18.44 0 0 0 12 9c-.986 0-1.926.074-2.793.207A18.44 18.44 0 0 0 9 12c0 .986.074 1.926.207 2.793.867.133 1.807.207 2.793.207.986 0 1.926-.074 2.793-.207.133-.867.207-1.807.207-2.793 0-.986-.074-1.926-.207-2.793zm2.08 5.113a21.045 21.045 0 0 0-.001-4.64c.392.122.755.258 1.086.405.738.328 1.273.693 1.61 1.047.333.35.432.641.432.868 0 .227-.1.518-.432.868-.337.354-.872.719-1.61 1.047-.331.147-.694.283-1.086.405zm-2.553 2.552A20.8 20.8 0 0 1 12 17a20.8 20.8 0 0 1-2.32-.128c.122.392.258.755.405 1.086.328.738.693 1.273 1.047 1.61.35.333.641.432.868.432.227 0 .518-.1.868-.432.354-.337.719-.872 1.047-1.61.147-.331.283-.694.405-1.086zm1.234 2.297a9.16 9.16 0 0 0 .188-.399 13.18 13.18 0 0 0 .754-2.274 13.185 13.185 0 0 0 2.274-.754 9.16 9.16 0 0 0 .399-.188 8.034 8.034 0 0 1-3.615 3.615zm-7.108 0a8.034 8.034 0 0 1-3.615-3.615c.13.065.263.128.399.188a13.18 13.18 0 0 0 2.274.754c.199.831.453 1.597.754 2.274.06.136.123.269.188.399zm-1.318-4.85a10.09 10.09 0 0 1-1.086-.404c-.738-.328-1.273-.693-1.61-1.047C4.099 12.518 4 12.227 4 12c0-.227.1-.518.432-.868.337-.354.872-.719 1.61-1.047.331-.147.695-.283 1.086-.405A20.863 20.863 0 0 0 7 12c0 .796.044 1.573.128 2.32z"
  />
</svg>
