<svg
  width="24"
  height="24"
  viewBox="0 0 24 24"
  xmlns="http://www.w3.org/2000/svg"
>
  <path
    fill-rule="evenodd"
    clip-rule="evenodd"
    d="M4.062 11h15.876a7.947 7.947 0 0 0-1.008-3H5.07a7.948 7.948 0 0 0-1.008 3zm-.476-4.406A9.953 9.953 0 0 0 2 12c0 2.043.614 3.946 1.667 5.53A9.992 9.992 0 0 0 12 22a9.992 9.992 0 0 0 8.333-4.47A9.958 9.958 0 0 0 22 12a9.953 9.953 0 0 0-1.586-5.407c-.047-.104-.11-.199-.188-.28A9.99 9.99 0 0 0 12 2a9.989 9.989 0 0 0-8.226 4.313 1.002 1.002 0 0 0-.188.28zM6.708 6h10.584A7.97 7.97 0 0 0 12 4a7.97 7.97 0 0 0-5.292 2zm13.23 7H4.062a7.94 7.94 0 0 0 .995 2.977h13.886A7.942 7.942 0 0 0 19.938 13zm-2.62 4.977H6.682A7.969 7.969 0 0 0 12 20a7.968 7.968 0 0 0 5.318-2.023z"
  />
</svg>
