<svg
  width="24"
  height="24"
  viewBox="0 0 24 24"
  xmlns="http://www.w3.org/2000/svg"
  fill="none"
  stroke="currentColor"
  stroke-width="2"
  stroke-linecap="round"
  stroke-linejoin="round"
>
  <path d="M21 12c0 1.84-.552 3.551-1.5 4.977A8.992 8.992 0 0 1 12 21a8.992 8.992 0 0 1-7.5-4.023A8.958 8.958 0 0 1 3 12c0-1.84.552-3.551 1.5-4.977A8.992 8.992 0 0 1 12 3a8.992 8.992 0 0 1 7.5 4.023A8.958 8.958 0 0 1 21 12z" />
  <path d="M4.5 16.977h15" />
  <path d="M21 12H3" />
  <path d="M4.5 7.023h15" />
</svg>
