<svg
  width="24"
  height="24"
  viewBox="0 0 24 24"
  xmlns="http://www.w3.org/2000/svg"
>
  <path
    fill-rule="evenodd"
    clip-rule="evenodd"
    d="M12 4.115A15.998 15.998 0 0 0 10.43 8h3.14A15.998 15.998 0 0 0 12 4.115zM13.952 10h-3.904a15.997 15.997 0 0 0 0 4h3.904a15.999 15.999 0 0 0 0-4zm2.014 4a17.98 17.98 0 0 0 0-4h3.782c.165.638.252 1.308.252 2s-.087 1.362-.252 2h-3.782zm-2.396 2h-3.14c.35 1.354.876 2.66 1.57 3.885A15.996 15.996 0 0 0 13.57 16zm-3.945 3.642A18.002 18.002 0 0 1 8.372 16H5.07a8.023 8.023 0 0 0 4.555 3.642zM4.252 14h3.782a18.001 18.001 0 0 1 0-4H4.252A8.016 8.016 0 0 0 4 12c0 .692.088 1.362.252 2zm.818-6h3.302a18.001 18.001 0 0 1 1.253-3.642A8.023 8.023 0 0 0 5.07 8zm9.305 11.642A18 18 0 0 0 15.628 16h3.302a8.023 8.023 0 0 1-4.555 3.642zM18.93 8h-3.302a18 18 0 0 0-1.253-3.642A8.023 8.023 0 0 1 18.93 8zm-7.495-5.984a10.145 10.145 0 0 1 1.13 0c4.11.229 7.553 2.937 8.866 6.65A9.984 9.984 0 0 1 22 12c0 1.167-.2 2.29-.57 3.333-1.312 3.714-4.756 6.422-8.865 6.651a10.165 10.165 0 0 1-1.13 0c-4.11-.229-7.553-2.937-8.866-6.65A9.985 9.985 0 0 1 2 12c0-1.167.2-2.29.57-3.333 1.312-3.714 4.756-6.422 8.865-6.651z"
  />
</svg>
