<svg
  width="24"
  height="24"
  viewBox="0 0 24 24"
  xmlns="http://www.w3.org/2000/svg"
>
  <path
    fill-rule="evenodd"
    clip-rule="evenodd"
    d="M4.062 11h15.876a7.947 7.947 0 0 0-1.008-3H5.07a7.948 7.948 0 0 0-1.008 3zm2.646-5h10.584A7.97 7.97 0 0 0 12 4a7.97 7.97 0 0 0-5.292 2zm13.23 7H4.062a7.948 7.948 0 0 0 1.008 3h13.86a7.947 7.947 0 0 0 1.008-3zm-2.646 5H6.708A7.97 7.97 0 0 0 12 20a7.97 7.97 0 0 0 5.292-2zM2 12C2 6.477 6.477 2 12 2s10 4.477 10 10-4.477 10-10 10S2 17.523 2 12z"
  />
</svg>
