<svg
  width="24"
  height="24"
  viewBox="0 0 24 24"
  xmlns="http://www.w3.org/2000/svg"
>
  <path
    fill-rule="evenodd"
    clip-rule="evenodd"
    d="M13 4.742v14.516a10.204 10.204 0 0 0 0-14.516zm-2 14.516V4.742a10.2 10.2 0 0 0 0 14.516zm-2.794-.213a12.203 12.203 0 0 1 0-14.09 8 8 0 0 0-3.075 11.148 7.999 7.999 0 0 0 3.075 2.942zm7.588 0A7.998 7.998 0 0 0 20 12a8 8 0 0 0-4.206-7.045 12.198 12.198 0 0 1 0 14.09zm-4.37-17.03c.384-.021.769-.021 1.153 0C17.832 2.316 22 6.672 22 12c0 5.33-4.168 9.684-9.423 9.984-.384.022-.77.022-1.154 0C6.168 21.684 2 17.329 2 12c0-5.33 4.168-9.684 9.423-9.984h.001z"
  />
</svg>
