<svg
  width="24"
  height="24"
  viewBox="0 0 24 24"
  xmlns="http://www.w3.org/2000/svg"
>
  <path d="M12 6a1.5 1.5 0 1 0 0 3 1.5 1.5 0 0 0 0-3z" />
  <path d="M12 15a1.5 1.5 0 1 0 0 3 1.5 1.5 0 0 0 0-3z" />
  <path
    fill-rule="evenodd"
    clip-rule="evenodd"
    d="M12 22c5.523 0 10-4.477 10-10S17.523 2 12 2 2 6.477 2 12s4.477 10 10 10zm0-18a3.5 3.5 0 1 0 0 7 5.5 5.5 0 0 1 5.291 7A8 8 0 0 0 12 4zm-8 8a7.98 7.98 0 0 1 2.709-6A5.499 5.499 0 0 0 12 13a3.5 3.5 0 1 1 0 7 8 8 0 0 1-8-8z"
  />
</svg>
