<svg
  width="24"
  height="24"
  viewBox="0 0 24 24"
  xmlns="http://www.w3.org/2000/svg"
>
  <path
    fill-rule="evenodd"
    clip-rule="evenodd"
    d="M6.001 5.004a1 1 0 1 0 0 2 1 1 0 0 0 0-2zm-3 1a2.999 2.999 0 0 1 5.83-1h6.338a3 3 0 1 1 1.537 3.707l-7.998 7.996c.046.095.087.193.122.293h6.34a3 3 0 1 1 0 2H8.83a3 3 0 1 1-1.536-3.707l7.998-7.997a2.983 2.983 0 0 1-.123-.293H8.83a3 3 0 0 1-5.828-1zm14.998-1a1 1 0 1 0 0 2 1 1 0 0 0 0-2zM5.001 18a1 1 0 1 1 2 0 1 1 0 0 1-2 0zM18 17a1 1 0 1 0 0 2 1 1 0 0 0 0-2z"
  />
</svg>
