<svg width="24" height="24" viewBox="0 0 24 24" fill="none" xmlns="http://www.w3.org/2000/svg">
<path fill-rule="evenodd" clip-rule="evenodd" d="M6.00098 5.00387C5.7358 5.00387 5.48149 5.10919 5.29398 5.29667C5.10648 5.48415 5.00114 5.73843 5.00114 6.00356C5.00114 6.2687 5.10648 6.52297 5.29398 6.71045C5.48149 6.89793 5.7358 7.00326 6.00098 7.00326C6.26615 7.00326 6.52046 6.89793 6.70797 6.71045C6.89547 6.52297 7.00081 6.2687 7.00081 6.00356C7.00081 5.73843 6.89547 5.48415 6.70797 5.29667C6.52046 5.10919 6.26615 5.00387 6.00098 5.00387ZM3.00147 6.00356C3.00041 5.2953 3.25009 4.60952 3.70627 4.06768C4.16246 3.52584 4.79572 3.16291 5.49388 3.04317C6.19205 2.92344 6.91007 3.05462 7.52077 3.41348C8.13147 3.77235 8.59545 4.33574 8.83051 5.00387H15.1695C15.3717 4.43165 15.7426 3.9342 16.2335 3.57719C16.7243 3.22017 17.3118 3.02038 17.9186 3.00419C18.5253 2.988 19.1227 3.15618 19.6319 3.48651C20.141 3.81685 20.538 4.29381 20.7704 4.85443C21.0028 5.41505 21.0598 6.03296 20.9336 6.62658C20.8075 7.22021 20.5043 7.76164 20.064 8.17938C19.6238 8.59713 19.0672 8.87155 18.4677 8.96642C17.8682 9.06128 17.254 8.97213 16.7062 8.71074L8.70753 16.7073C8.75352 16.8023 8.79452 16.9002 8.82951 17.0002H15.1705C15.4063 16.3329 15.8706 15.7705 16.4811 15.4123C17.0916 15.0542 17.8091 14.9234 18.5067 15.043C19.2044 15.1626 19.8372 15.525 20.2935 16.0661C20.7498 16.6072 21 17.2922 21 17.9999C21 18.7076 20.7498 19.3926 20.2935 19.9337C19.8372 20.4748 19.2044 20.8372 18.5067 20.9568C17.8091 21.0765 17.0916 20.9456 16.4811 20.5875C15.8706 20.2293 15.4063 19.6669 15.1705 18.9996H8.82951C8.62724 19.5718 8.25616 20.0692 7.76527 20.4262C7.27437 20.7831 6.68675 20.9828 6.07998 20.9989C5.47322 21.015 4.87584 20.8467 4.36673 20.5162C3.85762 20.1858 3.46072 19.7087 3.22843 19.148C2.99613 18.5873 2.93938 17.9694 3.06565 17.3757C3.19192 16.7821 3.49528 16.2408 3.93568 15.8231C4.37607 15.4055 4.9328 15.1312 5.53234 15.0365C6.13189 14.9418 6.74606 15.0312 7.29376 15.2927L15.2924 7.29617C15.2463 7.20079 15.2052 7.10302 15.1695 7.00326H8.82951C8.5929 7.6695 8.12857 8.23078 7.51843 8.5881C6.90829 8.94542 6.19154 9.0758 5.49463 8.95626C4.79772 8.83672 4.16542 8.47492 3.70927 7.93471C3.25313 7.39449 3.00246 6.71056 3.00147 6.00356V6.00356ZM17.999 5.00387C17.7338 5.00387 17.4795 5.10919 17.292 5.29667C17.1045 5.48415 16.9992 5.73843 16.9992 6.00356C16.9992 6.2687 17.1045 6.52297 17.292 6.71045C17.4795 6.89793 17.7338 7.00326 17.999 7.00326C18.2642 7.00326 18.5185 6.89793 18.706 6.71045C18.8935 6.52297 18.9988 6.2687 18.9988 6.00356C18.9988 5.73843 18.8935 5.48415 18.706 5.29667C18.5185 5.10919 18.2642 5.00387 17.999 5.00387ZM5.00114 17.9999C5.00114 17.7348 5.10648 17.4805 5.29398 17.293C5.48149 17.1055 5.7358 17.0002 6.00098 17.0002C6.26615 17.0002 6.52046 17.1055 6.70797 17.293C6.89547 17.4805 7.00081 17.7348 7.00081 17.9999C7.00081 18.265 6.89547 18.5193 6.70797 18.7068C6.52046 18.8943 6.26615 18.9996 6.00098 18.9996C5.7358 18.9996 5.48149 18.8943 5.29398 18.7068C5.10648 18.5193 5.00114 18.265 5.00114 17.9999ZM17.999 17.0002C17.7338 17.0002 17.4795 17.1055 17.292 17.293C17.1045 17.4805 16.9992 17.7348 16.9992 17.9999C16.9992 18.265 17.1045 18.5193 17.292 18.7068C17.4795 18.8943 17.7338 18.9996 17.999 18.9996C18.2642 18.9996 18.5185 18.8943 18.706 18.7068C18.8935 18.5193 18.9988 18.265 18.9988 17.9999C18.9988 17.7348 18.8935 17.4805 18.706 17.293C18.5185 17.1055 18.2642 17.0002 17.999 17.0002Z" fill="black"/>
</svg>
