<svg
  width="24"
  height="24"
  viewBox="0 0 24 24"
  xmlns="http://www.w3.org/2000/svg"
>
  <path
    fill-rule="evenodd"
    clip-rule="evenodd"
    d="M2 4a1 1 0 0 1 1-1c.768 0 1.47.289 2 .764A2.989 2.989 0 0 1 7 3c.768 0 1.47.289 2 .764A3 3 0 0 1 14 6v10a2 2 0 0 0 2 2h2.586l-1.293-1.293a1 1 0 0 1 1.414-1.414l3 3a1 1 0 0 1 0 1.414l-3 3a1 1 0 0 1-1.414-1.414L18.586 20H16a4 4 0 0 1-4-4V6a1 1 0 1 0-2 0v9a1 1 0 1 1-2 0V6a1 1 0 0 0-2 0v9a1 1 0 1 1-2 0V6a1 1 0 0 0-1-1 1 1 0 0 1-1-1z"
  />
</svg>
