<svg
  width="24"
  height="24"
  viewBox="0 0 24 24"
  xmlns="http://www.w3.org/2000/svg"
>
  <path
    fill-rule="evenodd"
    clip-rule="evenodd"
    d="M4.571 2.097a1 1 0 0 1 1.333.475A22 22 0 0 1 8.004 11h7.992a22.002 22.002 0 0 1 2.1-8.428 1 1 0 0 1 1.808.857A20 20 0 0 0 17.998 11H19a1 1 0 1 1 0 2h-1.001a20 20 0 0 0 1.905 7.572 1 1 0 1 1-1.808.857 22.001 22.001 0 0 1-2.1-8.429H8.004a22 22 0 0 1-2.1 8.429 1 1 0 0 1-1.808-.857A20 20 0 0 0 6.002 13H5a1 1 0 1 1 0-2h1.001A20 20 0 0 0 4.096 3.43a1 1 0 0 1 .475-1.332z"
  />
</svg>
