<svg width="24" height="24" viewBox="0 0 24 24" fill="none" xmlns="http://www.w3.org/2000/svg">
<path fill-rule="evenodd" clip-rule="evenodd" d="M8 4C5.79086 4 4 5.79086 4 8C4 9.934 5.37356 11.5494 7.19893 11.92C7.45694 11.9723 7.72472 12 8 12C8.55228 12 9 12.4477 9 13C9 13.5523 8.55228 14 8 14C7.59035 14 7.18928 13.9588 6.80107 13.88C4.06196 13.324 2 10.9039 2 8C2 4.68629 4.68629 2 8 2C9.53724 2 10.9395 2.57875 12.0003 3.52822C13.0611 2.57878 14.4631 2 16.0004 2C19.3141 2 22.0004 4.68629 22.0004 8C22.0004 10.9039 19.9384 13.324 17.1993 13.88C16.8111 13.9588 16.41 14 16.0004 14C15.4481 14 15.0004 13.5523 15.0004 13C15.0004 12.4477 15.4481 12 16.0004 12C16.2756 12 16.5434 11.9723 16.8014 11.92C18.6268 11.5494 20.0004 9.934 20.0004 8C20.0004 5.79086 18.2095 4 16.0004 4C14.8062 4 13.7345 4.52242 13.0004 5.35453V21C13.0004 21.5523 12.5527 22 12.0004 22C11.4481 22 11.0004 21.5523 11.0004 21V5.35454C10.2662 4.52248 9.19424 4 8 4Z" fill="black"/>
</svg>
