<svg
  width="24"
  height="24"
  viewBox="0 0 24 24"
  xmlns="http://www.w3.org/2000/svg"
>
  <path
    fill-rule="evenodd"
    clip-rule="evenodd"
    d="M16.724 6.461c-1.472-.422-3.099-.59-4.716-.482-1.617.108-3.146.487-4.435 1.086A8.728 8.728 0 0 0 5.992 8H6a4 4 0 1 1-4 4.066c-.164-1.38.226-2.736 1.07-3.924.85-1.196 2.127-2.18 3.66-2.891 1.536-.714 3.31-1.145 5.145-1.268a15.917 15.917 0 0 1 5.4.556 1 1 0 0 1-.55 1.922zM6 10a2 2 0 1 0 0 4 2 2 0 0 0 0-4zm12 0a2 2 0 1 0 0 4 2 2 0 0 0 0-4zm-4 2a4 4 0 0 1 8-.067c.164 1.38-.226 2.737-1.07 3.925-.85 1.196-2.127 2.18-3.66 2.891-1.536.713-3.31 1.145-5.145 1.268a15.916 15.916 0 0 1-5.4-.556 1 1 0 1 1 .55-1.922c1.473.422 3.1.59 4.717.482 1.617-.108 3.146-.487 4.436-1.086A8.734 8.734 0 0 0 18.007 16H18a4 4 0 0 1-4-4z"
  />
</svg>
