<svg
  width="24"
  height="24"
  viewBox="0 0 24 24"
  xmlns="http://www.w3.org/2000/svg"
>
  <path
    fill-rule="evenodd"
    clip-rule="evenodd"
    d="M5.293 6.293a1 1 0 0 1 1.414 0L9 8.586l2.293-2.293a1 1 0 0 1 1.414 0L15 8.586l2.293-2.293a1 1 0 0 1 1.414 0L22.414 10 21 11.414l-3-3-2.293 2.293a1 1 0 0 1-1.414 0L12 8.414l-2.293 2.293a1 1 0 0 1-1.414 0L6 8.414l-3 3L1.586 10l3.707-3.707zM6 15.414l-3 3L1.586 17l3.707-3.707a1 1 0 0 1 1.414 0L9 15.586l2.293-2.293a1 1 0 0 1 1.414 0L15 15.586l2.293-2.293a1 1 0 0 1 1.414 0L22.414 17 21 18.414l-3-3-2.293 2.293a1 1 0 0 1-1.414 0L12 15.414l-2.293 2.293a1 1 0 0 1-1.414 0L6 15.414z"
  />
</svg>
