<svg
  width="24"
  height="24"
  viewBox="0 0 24 24"
  xmlns="http://www.w3.org/2000/svg"
  fill="none"
  stroke="currentColor"
  stroke-width="2"
  stroke-linecap="round"
  stroke-linejoin="round"
>
  <path d="M6 15a3 3 0 1 0 0-6 3 3 0 0 0 0 6z" />
  <path d="M18 15a3 3 0 1 0 0-6 3 3 0 0 0 0 6z" />
  <path d="M3 12c-.148-1.124.157-2.254.885-3.28.728-1.023 1.854-1.907 3.266-2.562 1.413-.656 3.064-1.062 4.79-1.177 1.727-.116 3.47.063 5.059.519" />
  <path d="M21 12c.148 1.124-.157 2.254-.885 3.278-.728 1.025-1.854 1.908-3.266 2.564-1.413.656-3.064 1.062-4.79 1.177A14.92 14.92 0 0 1 7 18.5" />
</svg>
