<svg
  width="24"
  height="24"
  viewBox="0 0 24 24"
  xmlns="http://www.w3.org/2000/svg"
>
  <path
    fill-rule="evenodd"
    clip-rule="evenodd"
    d="M2 4a1 1 0 0 1 1-1 3 3 0 0 1 2 .764 3 3 0 0 1 4 0A3 3 0 0 1 14 6v4.536A4 4 0 0 1 20 14v2c0 1.452-.682 2.782-1.804 3.81.576.125 1.183.19 1.804.19a1 1 0 1 1 0 2c-1.406 0-2.787-.274-4-.795-1.213.52-2.594.795-4 .795a1 1 0 1 1 0-2c.62 0 1.228-.066 1.804-.19C12.682 18.783 12 17.453 12 16V6a1 1 0 0 0-2 0v9a1 1 0 1 1-2 0V6a1 1 0 0 0-2 0v9a1 1 0 1 1-2 0V6a1 1 0 0 0-1-1 1 1 0 0 1-1-1zm12 10v2c0 .931.517 1.926 1.632 2.722.117.084.24.165.368.242.128-.077.25-.158.369-.242C17.483 17.926 18 16.932 18 16v-2a2 2 0 0 0-4 0z"
  />
</svg>
