<svg
  width="24"
  height="24"
  viewBox="0 0 24 24"
  xmlns="http://www.w3.org/2000/svg"
>
  <path
    fill-rule="evenodd"
    clip-rule="evenodd"
    d="M5.475 1.668l.428.903A22 22 0 0 1 8.003 11h7.993a21.998 21.998 0 0 1 2.1-8.429l.43-.903 1.806.857-.428.904A19.999 19.999 0 0 0 17.998 11H20v2h-2.001a20 20 0 0 0 1.905 7.572l.428.903-1.807.857-.428-.903a21.998 21.998 0 0 1-2.1-8.429H8.003a22 22 0 0 1-2.1 8.429l-.43.903-1.806-.857.428-.904A20 20 0 0 0 6.001 13H4v-2h2.001a20 20 0 0 0-1.905-7.571l-.428-.904 1.807-.857z"
  />
</svg>
