<svg width="24" height="24" viewBox="0 0 24 24" fill="none" xmlns="http://www.w3.org/2000/svg">
<path fill-rule="evenodd" clip-rule="evenodd" d="M6 2C6.55228 2 7 2.44772 7 3C7 5.76142 9.23858 8 12 8C14.7614 8 17 5.76142 17 3C17 2.44772 17.4477 2 18 2C18.5523 2 19 2.44772 19 3C19 5.54633 17.6404 7.7751 15.6076 9C17.6404 10.2249 19 12.4537 19 15C19 18.866 15.866 22 12 22C8.13401 22 5 18.866 5 15C5 12.4537 6.35958 10.2249 8.39242 9C6.35958 7.7751 5 5.54633 5 3C5 2.44772 5.44772 2 6 2ZM12 10C9.23858 10 7 12.2386 7 15C7 17.7614 9.23858 20 12 20C14.7614 20 17 17.7614 17 15C17 12.2386 14.7614 10 12 10Z" fill="black"/>
</svg>
