<svg
  width="24"
  height="24"
  viewBox="0 0 24 24"
  xmlns="http://www.w3.org/2000/svg"
>
  <path
    fill-rule="evenodd"
    clip-rule="evenodd"
    d="M5.293 6.293a1 1 0 0 1 1.414 0L9 8.586l2.293-2.293a1 1 0 0 1 1.414 0L15 8.586l2.293-2.293a1 1 0 0 1 1.414 0l3 3a1 1 0 0 1-1.414 1.414L18 8.414l-2.293 2.293a1 1 0 0 1-1.414 0L12 8.414l-2.293 2.293a1 1 0 0 1-1.414 0L6 8.414l-2.293 2.293a1 1 0 0 1-1.414-1.414l3-3zm-3 10l3-3a1 1 0 0 1 1.414 0L9 15.586l2.293-2.293a1 1 0 0 1 1.414 0L15 15.586l2.293-2.293a1 1 0 0 1 1.414 0l3 3a1 1 0 0 1-1.414 1.414L18 15.414l-2.293 2.293a1 1 0 0 1-1.414 0L12 15.414l-2.293 2.293a1 1 0 0 1-1.414 0L6 15.414l-2.293 2.293a1 1 0 0 1-1.414-1.414z"
  />
</svg>
