<svg
  width="24"
  height="24"
  viewBox="0 0 24 24"
  xmlns="http://www.w3.org/2000/svg"
>
  <path
    fill-rule="evenodd"
    clip-rule="evenodd"
    d="M2 3h1a3 3 0 0 1 2 .764 3 3 0 0 1 4 0A3 3 0 0 1 14 6v4.536A4 4 0 0 1 20 14v2c0 1.452-.682 2.782-1.804 3.811A8.615 8.615 0 0 0 20 20h1v2h-1c-1.401 0-2.783-.273-4-.795-1.217.522-2.599.795-4 .795h-1v-2h1c.622 0 1.23-.066 1.804-.189C12.682 18.782 12 17.452 12 16V6a1 1 0 0 0-2 0v10H8V6a1 1 0 0 0-2 0v10H4V6a1 1 0 0 0-1-1H2V3zm12 13c0 .931.517 1.926 1.632 2.722.117.084.24.165.368.242a5.63 5.63 0 0 0 .369-.242C17.483 17.926 18 16.932 18 16v-2a2 2 0 0 0-4 0v2z"
  />
</svg>
