<svg width="24" height="24" viewBox="0 0 24 24" fill="none" xmlns="http://www.w3.org/2000/svg">
<path fill-rule="evenodd" clip-rule="evenodd" d="M13 5C12.4477 5 12 4.55228 12 4C12 3.44772 12.4477 3 13 3H20C20.5523 3 21 3.44772 21 4V11C21 11.5523 20.5523 12 20 12C19.4477 12 19 11.5523 19 11V6.41421L10.4142 15L12.2071 16.7929C12.5976 17.1834 12.5976 17.8166 12.2071 18.2071C11.8166 18.5976 11.1834 18.5976 10.7929 18.2071L9 16.4142L4.70711 20.7071C4.31658 21.0976 3.68342 21.0976 3.29289 20.7071C2.90237 20.3166 2.90237 19.6834 3.29289 19.2929L7.58579 15L5.79289 13.2071C5.40237 12.8166 5.40237 12.1834 5.79289 11.7929C6.18342 11.4024 6.81658 11.4024 7.20711 11.7929L9 13.5858L17.5858 5H13Z" fill="black"/>
</svg>
