<svg
  width="24"
  height="24"
  viewBox="0 0 24 24"
  xmlns="http://www.w3.org/2000/svg"
>
  <path
    fill-rule="evenodd"
    clip-rule="evenodd"
    d="M11 4a3 3 0 0 0-3 3c0 1.209.371 2.226.845 3.524l.095.26C9.45 12.183 10 13.818 10 16a4 4 0 1 1-2.672-3.774 33.238 33.238 0 0 0-.383-1.074C6.491 9.915 6 8.578 6 7a5 5 0 0 1 10 0c0 2.163-.543 3.792-1.04 5.283l-.011.033c-.5 1.5-.949 2.862-.949 4.684a3 3 0 0 0 6 0 1 1 0 1 1 2 0 5 5 0 1 1-10 0c0-2.162.543-3.792 1.04-5.283l.011-.033c.5-1.5.949-2.862.949-4.684a3 3 0 0 0-3-3zM8 16a2 2 0 1 0-4 0 2 2 0 0 0 4 0z"
  />
</svg>
