<svg xmlns="http://www.w3.org/2000/svg" viewBox="0 0 24 24" fill="currentColor"><path fill-rule="evenodd" d="M7.817 2.973A1.5 1.5 0 019.221 2h5.557a1.5 1.5 0 011.405.973l6 16A1.5 1.5 0 0120.778 21h-3.557a1.5 1.5 0 01-1.404-.973L12 9.848 10.068 15h1.965a1.501 1.501 0 011.405.973l1.125 3A1.5 1.5 0 0113.158 21H3.222a1.5 1.5 0 01-1.404-2.027l6-16h-.001zM9.567 4L3.944 19h8.494l-.75-2H8.625a1.001 1.001 0 01-.936-1.351l3.375-9a1 1 0 011.872 0L17.568 19h2.489L14.432 4H9.567z" clip-rule="evenodd"/></svg>