<svg xmlns="http://www.w3.org/2000/svg" viewBox="0 0 24 24" fill="currentColor"><path fill-rule="evenodd" d="M10.171 2.508A3.324 3.324 0 0111.997 2c1.459 0 2.38.792 3.271 1.86.023.027.044.056.064.085 2.716 4.074 4.079 7.14 5.096 9.684.499 1.245.947 2.532.947 3.746 0 1.315-.523 2.486-1.775 3.425-1.148.861-2.23 1.2-3.225 1.2-.977 0-1.766-.327-2.322-.606-.863-.431-1.418-.88-2.053-1.488-.635.609-1.19 1.057-2.053 1.488-.556.279-1.345.606-2.322.606-.995 0-2.077-.339-3.225-1.2-1.252-.939-1.775-2.11-1.775-3.425 0-1.214.448-2.501.947-3.746 1.017-2.544 2.38-5.61 5.096-9.684.02-.03.04-.058.063-.085.456-.547.912-1.022 1.44-1.352zm3.156 15.898c.576-.766 1.142-1.555 1.597-2.318C15.5 15.12 16 14.037 16 13c0-1.154-.29-2.203-1.043-2.957C14.203 9.289 13.154 9 12 9s-2.203.29-2.957 1.043C8.289 10.797 8 11.846 8 13c0 1.037.499 2.12 1.076 3.088.455.763 1.02 1.552 1.597 2.318-.596.576-.979.879-1.62 1.2-.444.221-.905.394-1.428.394-.505 0-1.173-.161-2.025-.8-.748-.561-.975-1.14-.975-1.825 0-.786.302-1.749.803-3.004.98-2.447 2.276-5.367 4.874-9.271.4-.478.684-.742.93-.896.218-.137.438-.204.765-.204.54 0 .946.202 1.701 1.1 2.598 3.904 3.895 6.825 4.873 9.271.502 1.255.804 2.218.804 3.004 0 .685-.227 1.264-.975 1.825-.852.639-1.52.8-2.025.8-.523 0-.984-.173-1.428-.394-.641-.321-1.024-.624-1.62-1.2zM12 16.84c.453-.614.868-1.21 1.206-1.777.546-.915.794-1.6.794-2.063 0-.846-.21-1.297-.457-1.543C13.297 11.211 12.846 11 12 11s-1.297.21-1.543.457c-.246.246-.457.697-.457 1.543 0 .463.248 1.148.794 2.063.338.567.753 1.163 1.206 1.777z" clip-rule="evenodd"/></svg>