<svg xmlns="http://www.w3.org/2000/svg" viewBox="0 0 24 24" fill="currentColor"><path fill-rule="evenodd" d="M7.553 2.106a1 1 0 011.341.447l.518 1.034a6 6 0 015.176 0l.518-1.034a1 1 0 111.788.894l-.654 1.308.003.003A6 6 0 0118 9v8a2 2 0 01-2 2v2a1 1 0 11-2 0v-2h-4v2a1 1 0 11-2 0v-2a2 2 0 01-2-2V9a6 6 0 011.757-4.242l.003-.003-.654-1.308a1 1 0 01.447-1.341zM9.587 5.81A4.002 4.002 0 008.127 8h7.746a4 4 0 00-6.286-2.19zM16 10H8v7h8v-7zM4 9a1 1 0 011 1v6a1 1 0 11-2 0v-6a1 1 0 011-1zm16 0a1 1 0 011 1v6a1 1 0 11-2 0v-6a1 1 0 011-1z" clip-rule="evenodd"/></svg>