<svg xmlns="http://www.w3.org/2000/svg" fill="none" viewBox="0 0 24 24" stroke="currentColor"><path stroke-linecap="round" stroke-linejoin="round" stroke-width="2" d="M10.354 20.85L13.732 15m-3.378 5.85c.534.1 1.084.15 1.646.15a8.98 8.98 0 006.844-3.155m-8.49 3.006A9.003 9.003 0 015.16 6.15M13.732 15l1.735-3.004M13.732 15h-3.464m5.198-3.004l3.378 5.85m-3.378-5.85L13.74 9.004m5.105 8.842h0m0 0A9.003 9.003 0 0013.646 3.15m.093 5.854h6.748m-6.748 0h-3.474m0 0l3.38-5.855m-3.38 5.855L8.535 12m5.11-8.85A9.055 9.055 0 0012 3a8.98 8.98 0 00-6.84 3.151M8.535 12L5.159 6.15M8.536 12l1.732 3m-5.11-8.85l.001.001M10.268 15H3.514"/></svg>