<svg xmlns="http://www.w3.org/2000/svg" viewBox="0 0 24 24" fill="currentColor"><path fill-rule="evenodd" d="M12 2a3 3 0 00-1 5.83v.753c-.448.075-.89.2-1.317.377l-5.631 2.33a1.694 1.694 0 00-.503.317 1 1 0 00-.549.894v.272a1.668 1.668 0 000 .168l.002 4.28a1.705 1.705 0 00.973 1.624l5.463 2.58a5.998 5.998 0 005.124 0l5.462-2.58h.002c.38-.182.68-.497.842-.886.097-.232.142-.482.132-.732V12.5a1 1 0 00-.555-.896 1.693 1.693 0 00-.495-.313h-.003l-5.63-2.331A6.063 6.063 0 0013 8.583v-.754A3.001 3.001 0 0012 2zm-1 3a1 1 0 112 0 1 1 0 01-2 0zm7.542 7.873l-4.99-2.065a4.074 4.074 0 00-.552-.183V13a1 1 0 11-2 0v-2.375a4.056 4.056 0 00-.553.183l-4.989 2.065 4.829 2.248a4.066 4.066 0 003.426 0l4.829-2.248zm-13.54 4.245L5 14.867l4.442 2.068a6.065 6.065 0 005.114 0L19 14.866v2.251l-5.292 2.5a3.998 3.998 0 01-3.416 0l-5.29-2.499z" clip-rule="evenodd"/></svg>