<svg xmlns="http://www.w3.org/2000/svg" viewBox="0 0 24 24" fill="currentColor"><path fill-rule="evenodd" d="M9.592 2.449a1 1 0 01.874-.178l2.897.777a1 1 0 01.709.711l1.904 7.236 4.269 1.144a3 3 0 11-1.553 5.795L4.203 14.052a1 1 0 01-.72-.765L2.137 6.715a1 1 0 011.238-1.167l2.898.777a1 1 0 01.607.465l1.207 2.091 1.217.326-.098-5.953a1 1 0 01.385-.805zm1.637 2.097l.098 5.954a1 1 0 01-1.259.982l-2.898-.776a1 1 0 01-.607-.466L5.356 8.15l-.935-.251.897 4.381 13.892 3.722a1 1 0 00.517-1.931l-4.83-1.294a1 1 0 01-.707-.712L12.285 4.83l-1.056-.284zM2 21a1 1 0 011-1h18a1 1 0 110 2H3a1 1 0 01-1-1z" clip-rule="evenodd"/></svg>