<svg xmlns="http://www.w3.org/2000/svg" fill="none" viewBox="0 0 24 24" stroke="currentColor"><path stroke-linecap="round" stroke-linejoin="round" stroke-width="2" d="M12 12v.012m8.356-8.368c-.886-.887-2.617-.857-4.81.084-2.195.94-4.672 2.713-6.889 4.93-2.216 2.216-3.989 4.693-4.93 6.887-.94 2.194-.97 3.925-.083 4.811.886.887 2.617.857 4.81-.084 2.195-.94 4.672-2.713 6.888-4.93a27.904 27.904 0 002.944-3.452c.846-1.181 1.52-2.349 1.986-3.435.466-1.087.713-2.07.727-2.896.015-.826-.204-1.476-.643-1.915zm-16.712 0c-.887.886-.857 2.617.084 4.81.94 2.195 2.713 4.672 4.93 6.888 2.216 2.217 4.693 3.99 6.887 4.93 2.194.94 3.925.97 4.811.084.887-.886.857-2.617-.084-4.81-.94-2.195-2.713-4.672-4.93-6.889a27.903 27.903 0 00-3.452-2.943c-1.181-.846-2.349-1.52-3.435-1.986-1.087-.466-2.07-.713-2.896-.727-.826-.015-1.476.204-1.915.643z"/></svg>