<svg xmlns="http://www.w3.org/2000/svg" viewBox="0 0 24 24" fill="currentColor"><path fill-rule="evenodd" d="M16 4.05a3.95 3.95 0 00-2.793 1.157l-8 8a3.95 3.95 0 005.586 5.586l8-8A3.95 3.95 0 0016 4.05zm-4.207-.257a5.95 5.95 0 118.414 8.414l-8 8a5.95 5.95 0 11-8.414-8.414l8-8zM12 9a1 1 0 011 1v.01a1 1 0 11-2 0V10a1 1 0 011-1zm-2 2a1 1 0 011 1v.01a1 1 0 11-2 0V12a1 1 0 011-1zm4 0a1 1 0 011 1v.01a1 1 0 11-2 0V12a1 1 0 011-1zm-2 2a1 1 0 011 1v.01a1 1 0 11-2 0V14a1 1 0 011-1z" clip-rule="evenodd"/></svg>