<svg xmlns="http://www.w3.org/2000/svg" viewBox="0 0 24 24" fill="currentColor"><path fill-rule="evenodd" d="M4.055 11.056a10 10 0 015.274 2.201L10.586 12 5.68 7.094a7.96 7.96 0 00-1.625 3.962zm3.04-5.376L12 10.586l1.257-1.257a10 10 0 01-2.201-5.274A7.96 7.96 0 007.094 5.68zm5.977-1.609a8 8 0 001.608 3.834l2.226-2.225a7.96 7.96 0 00-3.834-1.609zm5.248 3.023L16.095 9.32a8.001 8.001 0 003.834 1.608 7.961 7.961 0 00-1.61-3.834zm1.625 5.85a10 10 0 01-5.274-2.201L13.415 12l4.906 4.906a7.96 7.96 0 001.625-3.962zm-3.04 5.376L12 13.414l-1.257 1.258a10 10 0 012.201 5.273 7.96 7.96 0 003.962-1.625zm-5.977 1.609a8.001 8.001 0 00-1.608-3.834L7.094 18.32a7.961 7.961 0 003.834 1.609zM5.68 16.906l2.225-2.226a8 8 0 00-3.834-1.608 7.96 7.96 0 001.61 3.834zM2 12C2 6.477 6.477 2 12 2s10 4.477 10 10-4.477 10-10 10S2 17.523 2 12z" clip-rule="evenodd"/></svg>