<svg xmlns="http://www.w3.org/2000/svg" viewBox="0 0 24 24" fill="currentColor"><path fill-rule="evenodd" d="M9.321 2.41a1 1 0 01.034 1.413l-.155.162a3.75 3.75 0 00.863 5.724A2.988 2.988 0 0112 9c.735 0 1.408.264 1.93.703a3.75 3.75 0 00.712-5.863 1 1 0 011.414-1.415 5.75 5.75 0 011.106 6.582 5.75 5.75 0 015.328 5.518v.217a1 1 0 11-2 0v-.193a3.75 3.75 0 00-5.54-3.1 3.001 3.001 0 01-1.954 3.381 3.753 3.753 0 003.749 3.665 1 1 0 110 2 5.75 5.75 0 01-4.748-2.507 5.75 5.75 0 01-4.535 2.507h-.217a1 1 0 110-2h.193a3.75 3.75 0 003.556-3.668 3.001 3.001 0 01-1.945-3.37 3.75 3.75 0 00-5.554 3.288 1 1 0 01-2 0A5.75 5.75 0 016.821 9.01a5.75 5.75 0 01.922-6.396l.164-.172a1 1 0 011.414-.034zm2.794 10.583a.992.992 0 00-.06-.001h-.06c-.03 0-.06.001-.09.004a1 1 0 11.898-1.593c.023.044.05.086.079.125l.004.008a1 1 0 01-.771 1.458z" clip-rule="evenodd"/></svg>