<svg xmlns="http://www.w3.org/2000/svg" viewBox="0 0 24 24" fill="currentColor"><path fill-rule="evenodd" d="M21.707 2.293a1 1 0 01.284.843 17 17 0 01-10.027 13.27A5 5 0 017 22H3a1 1 0 01-1-1v-4a5 5 0 015.595-4.964 17 17 0 0113.27-10.027 1 1 0 01.842.284zM7.76 14.098a.984.984 0 00.287.09 3 3 0 011.766 1.766 1.004 1.004 0 00.09.287 3.006 3.006 0 01-.13 1.907A3 3 0 017 20H4v-3a3 3 0 013.76-2.902zm3.57.4a4.997 4.997 0 00-1.828-1.827c.382-.844.84-1.649 1.367-2.404a8 8 0 012.865 2.865c-.755.527-1.56.985-2.404 1.367zm3.977-2.63a15.008 15.008 0 004.448-7.622 15 15 0 00-7.622 4.448c1.285.804 2.37 1.89 3.174 3.174z" clip-rule="evenodd"/></svg>