<svg xmlns="http://www.w3.org/2000/svg" fill="none" viewBox="0 0 24 24" stroke="currentColor"><path stroke-linecap="round" stroke-linejoin="round" stroke-width="2" d="M10 15h4m0-4h-4M6.341 9A5.99 5.99 0 006 11v2m.341-4H4m2.341 0a6.015 6.015 0 013.916-3.743M6 13v2c0 .701.12 1.374.341 2M6 13H4m2.341 4a6.002 6.002 0 0011.318 0M6.34 17H4m13.659 0A5.99 5.99 0 0018 15v-2m-.341 4H20m-2-4v-2a5.99 5.99 0 00-.341-2M18 13h2m-2.341-4H20m-2.341 0a6.015 6.015 0 00-3.916-3.743m0 0A6 6 0 0012 5c-.606 0-1.191.09-1.743.257m3.486 0L16 3m-5.743 2.257L8 3"/></svg>