<svg xmlns="http://www.w3.org/2000/svg" viewBox="0 0 24 24" fill="currentColor"><path fill-rule="evenodd" d="M16.187 17.601l5.106 5.106 1.414-1.414-20-20-1.414 1.414L4.9 6.314A8 8 0 005.754 15c.143.178.34.38.556.604C7.037 16.353 8 17.345 8 18.5V21a2 2 0 002 2h4a2 2 0 002-2v-2.5c0-.312.07-.612.187-.899zm-1.493-1.493L13 14.414V18h1.027c.075-.68.303-1.292.667-1.892zM11.586 13L6.409 7.823a6 6 0 00.905 5.925c.056.07.383.413.635.676.133.139.245.256.283.298.996 1.084 1.609 2.076 1.741 3.278H11v-5h.586zM10 20v1h4v-1h-4z" clip-rule="evenodd"/><path d="M19.948 10.91a8 8 0 01-1.628 3.996l-1.43-1.43A6 6 0 008.524 5.11L7.095 3.68a8 8 0 0112.853 7.23z"/></svg>