<svg xmlns="http://www.w3.org/2000/svg" viewBox="0 0 24 24" fill="currentColor"><path fill-rule="evenodd" d="M19.586 21l1.707 1.707 1.414-1.414-20-20-1.414 1.414L3.586 5H3a1 1 0 00-1 1v14a1 1 0 001 1h16.586zm-2-2l-2.181-2.18a5.5 5.5 0 01-7.724-7.725L5.586 7H4v12h13.586zM9.11 10.525a3.5 3.5 0 004.864 4.864l-4.864-4.864z" clip-rule="evenodd"/><path d="M22 6v12.586l-2-2V7h-3.828l-2-2H9.828l-.707.707-1.414-1.414L9 3h6l2 2h4a1 1 0 011 1z"/><path d="M17.5 12.5a5.5 5.5 0 01-.182 1.404l-1.846-1.846a3.5 3.5 0 00-3.03-3.03l-1.846-1.846A5.498 5.498 0 0117.5 12.5z"/></svg>