<svg xmlns="http://www.w3.org/2000/svg" viewBox="0 0 24 24" fill="currentColor"><path fill-rule="evenodd" d="M2 4a1 1 0 011-1h18a1 1 0 011 1v8h-2V5H4v13.586l1.293-1.293A1 1 0 016 17h6v2H6.414l-2.707 2.707A1 1 0 012 21V4zm15 10.126a3.995 3.995 0 00-1.854 1.072l-.976-.564-1 1.732.975.563a4.004 4.004 0 000 2.142l-.975.563 1 1.732.976-.564c.502.511 1.14.888 1.854 1.072V23h2v-1.126a3.996 3.996 0 001.854-1.072l.976.564 1-1.732-.975-.563a4.004 4.004 0 000-2.142l.975-.563-1-1.732-.976.563A3.996 3.996 0 0019 14.127V13h-2v1.126zM18 16a2 2 0 100 4 2 2 0 000-4z" clip-rule="evenodd"/></svg>