<svg xmlns="http://www.w3.org/2000/svg" viewBox="0 0 24 24" fill="currentColor"><path d="M10.365 19.833l1.93-3.342a4.499 4.499 0 01-4.234-2.315L4.794 8.52a8.003 8.003 0 005.57 11.313h.001zm2.225.146A8 8 0 0019.602 9.5h-3.86c.495.74.76 1.61.758 2.5a4.48 4.48 0 01-.642 2.318l-3.268 5.66v.001zm1.553-6.691l.022-.038a2.5 2.5 0 10-4.354-.042l.024.042a2.5 2.5 0 004.308.038zm-8.108-6.62l1.929 3.34A4.5 4.5 0 0112 7.5h6.615A7.992 7.992 0 0012 4a7.98 7.98 0 00-5.965 2.669v-.001zM12 22C6.477 22 2 17.523 2 12S6.477 2 12 2s10 4.477 10 10-4.477 10-10 10z"/></svg>