<svg xmlns="http://www.w3.org/2000/svg" viewBox="0 0 24 24" fill="currentColor"><path fill-rule="evenodd" d="M11 6V3h2v3h-2zM6.307 4.893l2.2 2.2-1.414 1.414-2.2-2.2 1.414-1.414zm12.8 1.414l-2.2 2.2-1.414-1.414 2.2-2.2 1.414 1.414zm-7.814 4.986a1 1 0 011.023-.242l9 3a1 1 0 01.131 1.843l-3.702 1.851-1.85 3.702a1 1 0 01-1.844-.13l-3-9a1 1 0 01.242-1.024zM6 13H3v-2h3v2zm7.581.581l1.604 4.812.92-1.84a1 1 0 01.448-.447l1.84-.92-4.812-1.605zm-8.688 4.112l2.2-2.2 1.414 1.414-2.2 2.2-1.414-1.414z" clip-rule="evenodd"/></svg>