<svg xmlns="http://www.w3.org/2000/svg" fill="none" viewBox="0 0 24 24" stroke="currentColor"><path stroke-linecap="round" stroke-linejoin="round" stroke-width="2" d="M6.097 10.498A6.754 6.754 0 016 9.353c0-.989.213-1.925.594-2.76m-.497 3.905C3.767 10.948 2 13.108 2 15.706 2 18.63 4.239 21 7 21h10a4.797 4.797 0 002.967-1.033m-13.87-9.47c.293-.056.595-.085.903-.085m10.903.086c.064-.371.097-.754.097-1.145C18 5.844 15.314 3 12 3c-1.131 0-2.19.331-3.092.908m8.995 6.59a4.76 4.76 0 00-2.286.119m2.286-.12c2.33.45 4.097 2.611 4.097 5.209 0 .402-.042.794-.123 1.171M6.594 6.594L1 1m5.594 5.594l13.373 13.373m0 0L23 23"/></svg>