<svg xmlns="http://www.w3.org/2000/svg" viewBox="0 0 24 24" fill="currentColor"><path fill-rule="evenodd" d="M12 4C9.292 4 7 6.342 7 9.353c0 .334.028.66.083.975a1 1 0 01-.796 1.152C4.457 11.833 3 13.556 3 15.706 3 18.132 4.844 20 7 20h10c2.156 0 4-1.868 4-4.294 0-2.15-1.457-3.873-3.287-4.226a3.754 3.754 0 00-.713-.068c-1.163 0-2.22.533-2.962 1.408l-1.527-1.292c1.09-1.288 2.692-2.116 4.489-2.116v-.06C17 6.343 14.708 4 12 4zm6.99 5.766c.006-.137.01-.275.01-.413C19 5.347 15.92 2 12 2S5 5.347 5 9.353c0 .138.004.276.01.413C2.65 10.634 1 12.992 1 15.706 1 19.127 3.633 22 7 22h10c3.367 0 6-2.873 6-6.294 0-2.714-1.649-5.072-4.01-5.94z" clip-rule="evenodd"/></svg>