<svg xmlns="http://www.w3.org/2000/svg" fill="none" viewBox="0 0 24 24" stroke="currentColor"><path stroke-linecap="round" stroke-linejoin="round" stroke-width="2" d="M19 21H5m1.123-4A5.286 5.286 0 012.5 15.586c-.96-.905-1.5-2.133-1.5-3.414 0-1.28.54-2.508 1.5-3.413a5.286 5.286 0 013.623-1.414c.32-1.409 1.26-2.646 2.61-3.44a6.563 6.563 0 012.204-.804 6.876 6.876 0 012.384.006c.787.141 1.534.418 2.2.815a5.807 5.807 0 011.68 1.5c.444.592.752 1.256.906 1.955A4.816 4.816 0 0118.1 9.49h1.089c1.01 0 1.98.396 2.695 1.1A3.727 3.727 0 0123 13.245c0 .996-.401 1.951-1.116 2.655a3.84 3.84 0 01-2.695 1.1H6.123z"/></svg>