<svg xmlns="http://www.w3.org/2000/svg" fill="none" viewBox="0 0 24 24" stroke="currentColor"><path stroke-linecap="round" stroke-linejoin="round" stroke-width="2" d="M18.202 9.989a4.488 4.488 0 001.906-.28 4.522 4.522 0 001.95-1.428c.508-.646.834-1.418.942-2.235a3.747 3.747 0 01-4.815-.233A3.818 3.818 0 0117.54 1l-.19.051-.001-.003c-.79.213-1.508.639-2.077 1.231a4.565 4.565 0 00-1.268 2.987m4.198 4.723a4.822 4.822 0 00-.095-.612 5.096 5.096 0 00-.905-1.956 5.807 5.807 0 00-1.681-1.499c-.47-.28-.981-.5-1.518-.656m4.199 4.723a4.816 4.816 0 01-.102 1.501h1.089c1.01 0 1.98.396 2.695 1.1A3.727 3.727 0 0123 15.245c0 .996-.401 1.951-1.116 2.655a3.84 3.84 0 01-2.695 1.1H6.123A5.286 5.286 0 012.5 17.586c-.96-.905-1.5-2.133-1.5-3.414 0-1.28.54-2.508 1.5-3.413a5.286 5.286 0 013.623-1.414c.32-1.409 1.26-2.646 2.61-3.44a6.563 6.563 0 012.204-.804 6.876 6.876 0 013.067.165"/></svg>