<svg xmlns="http://www.w3.org/2000/svg" viewBox="0 0 24 24" fill="currentColor"><path fill-rule="evenodd" d="M19.84 21.254l1.453 1.453 1.414-1.414-20-20-1.414 1.414 4.13 4.13a7.665 7.665 0 00-.412 2.929C2.649 10.634 1 12.992 1 15.706 1 19.127 3.633 22 7 22h10c1.034 0 2-.271 2.84-.746zm-1.502-1.502L7.066 8.48a5.802 5.802 0 00.017 1.848 1 1 0 01-.796 1.152C4.457 11.833 3 13.556 3 15.706 3 18.132 4.844 20 7 20h10c.466 0 .917-.087 1.338-.248z" clip-rule="evenodd"/><path d="M23 15.706c0 1.12-.282 2.18-.78 3.1l-1.504-1.504c.183-.49.284-1.028.284-1.596 0-2.15-1.457-3.873-3.287-4.226a3.754 3.754 0 00-2.458.36l-1.458-1.457A5.77 5.77 0 0117 9.412v-.06C17 6.343 14.708 4 12 4c-1.239 0-2.39.49-3.276 1.31L7.31 3.894C8.542 2.721 10.18 2 12 2c3.92 0 7 3.347 7 7.353 0 .138-.004.276-.01.413 2.361.868 4.01 3.226 4.01 5.94z"/></svg>