<svg xmlns="http://www.w3.org/2000/svg" fill="none" viewBox="0 0 24 24" stroke="currentColor"><path stroke-linecap="round" stroke-linejoin="round" stroke-width="2" d="M13.225 5.09A4.502 4.502 0 0122 6.5a4.501 4.501 0 01-3.808 4.447m-4.967-5.856a6.878 6.878 0 00-2.288.01 6.563 6.563 0 00-2.205.803c-1.35.795-2.289 2.032-2.61 3.44A5.286 5.286 0 002.5 10.76c-.96.905-1.5 2.133-1.5 3.413 0 1.28.54 2.509 1.5 3.414A5.286 5.286 0 006.123 19h13.066a3.84 3.84 0 002.695-1.1A3.727 3.727 0 0023 15.245c0-.996-.401-1.95-1.116-2.655a3.84 3.84 0 00-2.695-1.1H18.1c.041-.18.072-.36.092-.543m-4.967-5.856l.096.016c.787.141 1.534.418 2.2.815a5.807 5.807 0 011.68 1.5c.444.592.752 1.256.906 1.955.115.518.143 1.047.085 1.57"/></svg>