<svg xmlns="http://www.w3.org/2000/svg" fill="none" viewBox="0 0 24 24" stroke="currentColor"><path stroke-linecap="round" stroke-linejoin="round" stroke-width="2" d="M11 12v2m0 3v2m4-5v2m0 3v2m4.189-3a3.84 3.84 0 002.695-1.1A3.727 3.727 0 0023 14.245c0-.996-.401-1.95-1.116-2.655a3.84 3.84 0 00-2.695-1.1H18.1a4.816 4.816 0 00.007-2.113 5.096 5.096 0 00-.905-1.956 5.807 5.807 0 00-1.681-1.499 6.554 6.554 0 00-2.2-.815 6.876 6.876 0 00-2.384-.006 6.563 6.563 0 00-2.205.803c-1.35.795-2.289 2.032-2.61 3.44A5.286 5.286 0 002.5 9.76c-.96.905-1.5 2.133-1.5 3.413 0 1.28.54 2.509 1.5 3.414A5.286 5.286 0 006.123 18H7"/></svg>