<svg xmlns="http://www.w3.org/2000/svg" viewBox="0 0 24 24" fill="currentColor"><path fill-rule="evenodd" d="M11.51 2.128a1 1 0 01.98 0l8 4.5A1 1 0 0121 7.5v4.478a.97.97 0 010 .042v4.48a1 1 0 01-.51.872l-8 4.5a1 1 0 01-.98 0l-8-4.5A1 1 0 013 16.5v-4.48V7.5a1 1 0 01.51-.872l8-4.5zM5 13.618v2.297l2 1.125v-2.422l-2-1zm4 4.547V14a1 1 0 00-.553-.894L5 11.382V9.21l6 3.375v6.705l-2-1.125zm4 1.125l2-1.125V14a1 1 0 01.553-.894L19 11.382V9.21l-6 3.375v6.705zm-1-8.437L17.96 7.5 16 6.397l-3.51 1.975a1 1 0 01-.98 0L8 6.397 6.04 7.5 12 10.853zM10.04 5.25L12 6.353l1.96-1.103L12 4.147 10.04 5.25zM19 13.618l-2 1v2.422l2-1.125v-2.297z" clip-rule="evenodd"/></svg>