<svg xmlns="http://www.w3.org/2000/svg" viewBox="0 0 24 24" fill="currentColor"><path d="M9.42 4.4a8 8 0 1010.202 9.91c-3.4 1.46-7.248 1.98-11.545 1.565C7.366 11.75 7.813 7.925 9.42 4.4zm2.448-.414a16.803 16.803 0 00-1.542 3.77 5.98 5.98 0 014.115 1.755 5.977 5.977 0 011.745 3.861c1.33-.34 2.589-.82 3.78-1.433a7.994 7.994 0 00-8.098-7.953zM4.895 19.057C.99 15.152.99 8.82 4.895 4.915c3.905-3.905 10.237-3.905 14.142 0 3.905 3.905 3.905 10.237 0 14.142-3.905 3.905-10.237 3.905-14.142 0zm5.02-9.293a17.885 17.885 0 00-.076 4.23c1.457.063 2.917-.01 4.36-.22a3.988 3.988 0 00-1.172-2.849 3.989 3.989 0 00-3.112-1.16z"/></svg>