<svg xmlns="http://www.w3.org/2000/svg" viewBox="0 0 24 24" fill="currentColor"><path fill-rule="evenodd" d="M8.705 3.566a1 1 0 01.969.262l5.267 5.314 4.269-1.144a3 3 0 111.553 5.795l-14.49 3.883a1 1 0 01-1.006-.303l-4.45-5.019a1 1 0 01.488-1.63l2.898-.776a1 1 0 01.76.1l2.09 1.207 1.217-.326-3.062-5.107a1 1 0 01.599-1.48l2.898-.776zm-1.1 2.365l3.062 5.107a1 1 0 01-.599 1.48l-2.898.776a1 1 0 01-.758-.1L4.32 11.987l-.935.25 2.967 3.347 13.892-3.723a1 1 0 10-.518-1.931l-4.83 1.294a1 1 0 01-.968-.262L8.662 5.648l-1.057.283zM2 21a1 1 0 011-1h18a1 1 0 110 2H3a1 1 0 01-1-1z" clip-rule="evenodd"/></svg>