<svg xmlns="http://www.w3.org/2000/svg" viewBox="0 0 24 24" fill="currentColor"><path fill-rule="evenodd" d="M14.159 2.46A1 1 0 0115 2h3a1 1 0 011 1v4a1 1 0 01-.159.54L15.975 12H18a1 1 0 011 1v4a1 1 0 01-1 1h-5.883l-2.276 3.54A1 1 0 019 22H6a1 1 0 01-1-1v-4a1 1 0 01.159-.54L8.025 12H6a1 1 0 01-1-1V7a1 1 0 011-1h5.883l2.276-3.54zM15.546 4L13.27 7.54a1 1 0 01-.841.46H7v2h2.857a1 1 0 01.841 1.54L7 17.295V20h1.454l2.276-3.54a1 1 0 01.841-.46H17v-2h-2.857a1 1 0 01-.841-1.54L17 6.705V4h-1.454z" clip-rule="evenodd"/></svg>