<svg xmlns="http://www.w3.org/2000/svg" viewBox="0 0 24 24" fill="currentColor"><path fill-rule="evenodd" d="M4.467 3.5a1 1 0 01.866-.5h13.334a1 1 0 01.866.5l3.333 5.779a1 1 0 01-.108 1.152l-9.444 10.978-.03.034A1.778 1.778 0 0112 22a1.751 1.751 0 01-1.314-.59L1.242 10.43a1 1 0 01-.108-1.151L4.467 3.5zM5.911 5L3.22 9.664 12 19.87l8.78-10.206L18.09 5H5.91zm2.81 2.525a1 1 0 01.367 1.366l-.309.537 1.752 2.004a1 1 0 11-1.506 1.316l-2.222-2.543a1 1 0 01-.114-1.157l.667-1.156a1 1 0 011.366-.367z" clip-rule="evenodd"/></svg>