<svg xmlns="http://www.w3.org/2000/svg" viewBox="0 0 24 24" fill="currentColor"><path fill-rule="evenodd" d="M12 1a1 1 0 011 1v1.105h6a1 1 0 01.725.312l2 2.105a1 1 0 010 1.377l-2 2.106a1 1 0 01-.725.31h-6v2.211c.547 0 1.062.23 1.432.62.37.388.568.905.568 1.433v2.105c0 .528-.199 1.045-.568 1.433-.37.39-.885.62-1.432.62V22a1 1 0 11-2 0v-4.263H6a1 1 0 01-.725-.311l-2-2.106a1 1 0 010-1.377l2-2.105A1 1 0 016 11.526h5v-2.21H9c-.547 0-1.061-.23-1.432-.62A2.081 2.081 0 017 7.263V5.158c0-.528.199-1.045.568-1.433.37-.39.885-.62 1.432-.62h2V2a1 1 0 011-1zM9.015 5.105A.088.088 0 009 5.158v2.105c0 .026.01.044.015.053h9.556l1.05-1.105-1.05-1.106H9.015zM6.43 13.526l-1.05 1.106 1.05 1.105h6.556a.088.088 0 00.015-.053V13.58a.089.089 0 00-.015-.053H6.429z" clip-rule="evenodd"/></svg>