<svg xmlns="http://www.w3.org/2000/svg" viewBox="0 0 24 24" fill="currentColor"><path d="M9.5 8a1.5 1.5 0 100 3 1.5 1.5 0 000-3zM15.707 8.293a1 1 0 00-1.414 0l-6 6a1 1 0 101.414 1.414l6-6a1 1 0 000-1.414zM14.5 13a1.5 1.5 0 100 3 1.5 1.5 0 000-3z"/><path fill-rule="evenodd" d="M12.01 2.011a3.2 3.2 0 00-2.268.943h-.001l-.696.697h-.001A1.2 1.2 0 018.2 4h-1A3.2 3.2 0 004 7.2v1a1.2 1.2 0 01-.348.844H3.65l-.696.697-.001.001a3.2 3.2 0 000 4.536v.001l.697.696v.001A1.2 1.2 0 014 15.82v1a3.2 3.2 0 003.2 3.2h1c.316 0 .62.126.845.35l.696.695.001.001a3.2 3.2 0 004.536 0h.001l.696-.697h.001a1.2 1.2 0 01.845-.349h.999a3.2 3.2 0 003.2-3.2v-1c0-.316.125-.62.348-.844h.001l.696-.697.002-.001a3.2 3.2 0 000-4.536l-.002-.001-.697-.697a1.2 1.2 0 01-.348-.845V7.2a3.2 3.2 0 00-3.2-3.2h-1a1.2 1.2 0 01-.844-.348V3.65l-.697-.696-.001-.001a3.199 3.199 0 00-2.268-.943zm-.46 2.092a1.2 1.2 0 011.31.262l.003.002.7.7.002.002c.599.596 1.41.93 2.255.931h1a1.2 1.2 0 011.2 1.2v1a3.2 3.2 0 00.93 2.255l.003.002.7.7.002.002a1.202 1.202 0 010 1.702l-.002.002-.7.7-.002.002c-.596.599-.93 1.41-.931 2.255v1a1.2 1.2 0 01-1.2 1.2h-1a3.2 3.2 0 00-2.255.93l-.002.003-.7.7-.002.002a1.2 1.2 0 01-1.702 0l-.702-.702-.002-.002c-.599-.596-1.41-.93-2.255-.931h-1a1.2 1.2 0 01-1.2-1.2v-1a3.2 3.2 0 00-.93-2.255l-.703-.702-.002-.002a1.2 1.2 0 010-1.702l.002-.002.7-.7.002-.002c.596-.6.93-1.41.931-2.255v-1A1.2 1.2 0 017.2 6h1a3.2 3.2 0 002.255-.93l.002-.003.7-.7.002-.002a1.2 1.2 0 01.39-.262z" clip-rule="evenodd"/></svg>