<svg xmlns="http://www.w3.org/2000/svg" viewBox="0 0 24 24" fill="currentColor"><path fill-rule="evenodd" d="M16.032 17.446l5.26 5.261 1.415-1.414-20-20-1.414 1.414L3.555 4.97a6.002 6.002 0 00-.034 8.024l8.478 8.492 4.033-4.039zm-1.414-1.414L4.972 6.387a4 4 0 00.008 5.236L12 18.654l2.618-2.622z" clip-rule="evenodd"/><path d="M20.479 12.993l-2.034 2.037-1.415-1.414 1.99-1.992a4 4 0 00-5.683-5.607l-1.335 1.198-1.336-1.197a3.974 3.974 0 00-2.228-.994L6.583 3.169A5.998 5.998 0 0112 4.529a5.998 5.998 0 018.242.228 6 6 0 01.236 8.236z"/></svg>