<svg xmlns="http://www.w3.org/2000/svg" fill="none" viewBox="0 0 24 24" stroke="currentColor"><path stroke-linecap="round" stroke-linejoin="round" stroke-width="2" d="M20.338 12.656a5.628 5.628 0 001.26-1.91 5.684 5.684 0 00-.127-4.493 5.616 5.616 0 00-1.364-1.835A5.535 5.535 0 0018.13 3.29a5.489 5.489 0 00-4.417.463 5.574 5.574 0 00-1.705 1.515 5.576 5.576 0 00-1.702-1.528 5.506 5.506 0 00-2.287-.72M1 1l3.166 3.166m0 0a5.615 5.615 0 00-1.64 2.065A5.678 5.678 0 003.68 12.65L12.01 21l4.489-4.501M4.166 4.166L16.5 16.5m3.84-3.85l-1.343 1.347m-2.497 2.503L23 23"/></svg>