<svg xmlns="http://www.w3.org/2000/svg" viewBox="0 0 24 24" fill="currentColor"><path fill-rule="evenodd" d="M17.873 19.287l3.42 3.42 1.414-1.414-20-20-1.414 1.414L6.25 7.664a8.63 8.63 0 00-2.11 4.305 8.906 8.906 0 00.476 4.83 8.37 8.37 0 002.932 3.771A7.698 7.698 0 0012 22c1.59 0 3.139-.5 4.452-1.43.523-.37.999-.801 1.42-1.283zm-1.419-1.418L7.666 9.08a6.638 6.638 0 00-1.557 3.242 6.907 6.907 0 00.368 3.743 6.37 6.37 0 002.227 2.873A5.698 5.698 0 0012 20a5.698 5.698 0 003.296-1.062 6.151 6.151 0 001.158-1.07z" clip-rule="evenodd"/><path d="M19.86 11.969a8.92 8.92 0 01-.26 4.217l-1.669-1.669a6.935 6.935 0 00-.04-2.195 6.628 6.628 0 00-1.624-3.316L12 4.461l-1.997 2.127-1.415-1.414 2.683-2.858a1 1 0 011.458 0l5.007 5.333a8.627 8.627 0 012.124 4.32z"/></svg>