<svg xmlns="http://www.w3.org/2000/svg" fill="none" viewBox="0 0 24 24" stroke="currentColor"><path stroke-linecap="round" stroke-linejoin="round" stroke-width="2" d="M5 9.784c0-1.2.248-2.382.727-3.457A7.658 7.658 0 017.76 3.59a6.685 6.685 0 012.916-1.449 6.324 6.324 0 013.192.142c1.04.32 2 .903 2.803 1.703.804.8 1.43 1.796 1.83 2.91.4 1.113.563 2.314.476 3.51A8.393 8.393 0 0118 13.782a10.624 10.624 0 01-2 2.223 9.011 9.011 0 00-2 3.333 4.897 4.897 0 01-1.277 1.66 4.3 4.3 0 01-1.793.898 4.063 4.063 0 01-1.966-.037 4.337 4.337 0 01-1.764-.966M9 9.784a3.635 3.635 0 01.349-1.601c.235-.493.578-.912.996-1.22a2.81 2.81 0 011.4-.54c.5-.048 1.004.045 1.463.27.46.224.86.573 1.167 1.015.307.442.509.962.588 1.512.078.551.032 1.115-.137 1.64A3.376 3.376 0 0114 12.229"/></svg>