<svg xmlns="http://www.w3.org/2000/svg" viewBox="0 0 24 24" fill="currentColor"><path fill-rule="evenodd" d="M14.601 4.212A6 6 0 007 10a1 1 0 01-2 .002 8 8 0 1114.857 4.114.984.984 0 01-.057.085 11 11 0 01-2.153 2.165 6.999 6.999 0 00-1.711 2.588 1.02 1.02 0 01-.052.115 5.5 5.5 0 01-8.311 1.711 1 1 0 011.254-1.558 3.5 3.5 0 005.262-1.038 8.999 8.999 0 012.225-3.31.982.982 0 01.086-.073 9.001 9.001 0 001.769-1.758 6 6 0 00-3.568-8.83zm-.796 3.922A2 2 0 0011 9.988a1 1 0 11-2 .024 4 4 0 116.667 2.933 1 1 0 01-1.334-1.49 2 2 0 00-.528-3.321z" clip-rule="evenodd"/></svg>