<svg xmlns="http://www.w3.org/2000/svg" viewBox="0 0 24 24" fill="currentColor"><path fill-rule="evenodd" d="M14.593 5.02s0-.001 0 0l-1.61 1.548 5.244 5.244 1.77-1.702-5.293-5.09c0-.001 0 0 0 0a.084.084 0 00-.056-.02.084.084 0 00-.055.02zm2.192 8.18l-5.244-5.245-7.537 7.25L7.948 19h2.807l6.03-5.8zM13.64 19l7.745-7.45.002-.003A2 2 0 0022 10.11a2 2 0 00-.613-1.437l-5.299-5.097-.002-.002A2.081 2.081 0 0014.648 3c-.531 0-1.05.202-1.438.574l-.002.002-10.593 10.19-.002.002A2 2 0 002 15.205a2 2 0 00.613 1.437l.002.003 4.237 4.076a1 1 0 00.693.279h11.653v-2H13.64z" clip-rule="evenodd"/></svg>