<svg xmlns="http://www.w3.org/2000/svg" viewBox="0 0 24 24" fill="currentColor"><path fill-rule="evenodd" d="M17.883 19.297l3.41 3.41 1.414-1.414-20-20-1.414 1.414L4.52 5.934A10.98 10.98 0 001.181 12c.941 5.12 5.427 9 10.819 9a10.95 10.95 0 005.883-1.703zm-1.46-1.46l-2.028-2.027A4.5 4.5 0 018.19 9.605L5.94 7.353A9.005 9.005 0 003.222 12a9.005 9.005 0 0013.2 5.838zm-6.75-6.75a2.5 2.5 0 003.24 3.24l-3.24-3.24z" clip-rule="evenodd"/><path d="M22.819 12a10.954 10.954 0 01-2.366 5.04l-1.421-1.422A9.005 9.005 0 0020.777 12 9.005 9.005 0 008.954 5.54l-1.54-1.541A10.96 10.96 0 0112 3c5.392 0 9.878 3.88 10.819 9z"/><path d="M16.5 12c0 .332-.037.66-.108.978l-2.226-2.226a2.503 2.503 0 00-.918-.918l-2.226-2.226A4.498 4.498 0 0116.5 12z"/></svg>