<svg xmlns="http://www.w3.org/2000/svg" viewBox="0 0 24 24" fill="currentColor"><path fill-rule="evenodd" d="M7.668 1.445a1 1 0 011.387-.277c.96.64 1.685 1.697 2.164 2.722C11.699 4.92 12 6.065 12 7a1 1 0 11-2 0c0-.565-.2-1.419-.594-2.265-.396-.85-.922-1.544-1.46-1.903a1 1 0 01-.278-1.387zM11.9 1.2a1 1 0 011.4.2c1.589 2.119 2.2 3.824 2.2 5.6a1 1 0 11-2 0c0-1.224-.389-2.518-1.8-4.4a1 1 0 01.2-1.4zm4.268 2.745a1 1 0 011.387-.277 10 10 0 014.214 6.15 3.5 3.5 0 01-.373 5.618 10 10 0 01-18.78 0 3.5 3.5 0 01-.374-5.617 10 10 0 014.083-6.062 1 1 0 011.136 1.646 8 8 0 00-3.33 5.165 1 1 0 01-.441.662 1.5 1.5 0 00.174 2.616 1 1 0 01.525.598 8 8 0 0015.233 0 1 1 0 01.525-.598 1.499 1.499 0 00.174-2.616 1 1 0 01-.441-.662 8 8 0 00-3.435-5.236 1 1 0 01-.277-1.387zM8 12a1 1 0 011-1h.01a1 1 0 110 2H9a1 1 0 01-1-1zm6 0a1 1 0 011-1h.01a1 1 0 110 2H15a1 1 0 01-1-1zm-5.2 3.286a1 1 0 011.414.014 2.5 2.5 0 003.572 0 1 1 0 111.428 1.4 4.5 4.5 0 01-6.428 0 1 1 0 01.014-1.414z" clip-rule="evenodd"/></svg>