<svg xmlns="http://www.w3.org/2000/svg" viewBox="0 0 24 24" fill="currentColor"><path fill-rule="evenodd" d="M9.031 4.569A8.003 8.003 0 0012 20a8 8 0 100-16 1 1 0 100 2 1 1 0 110 2 3 3 0 01-2.969-3.431zM12 2C6.477 2 2 6.477 2 12s4.477 10 10 10 10-4.477 10-10S17.523 2 12 2zm-4 8a1 1 0 011-1h.01a1 1 0 010 2H9a1 1 0 01-1-1zm6 0a1 1 0 011-1h.01a1 1 0 110 2H15a1 1 0 01-1-1zm-5.2 4.286a1 1 0 011.414.014 2.5 2.5 0 003.572 0 1 1 0 011.428 1.4 4.5 4.5 0 01-6.428 0 1 1 0 01.014-1.414z" clip-rule="evenodd"/></svg>