<svg xmlns="http://www.w3.org/2000/svg" viewBox="0 0 24 24" fill="currentColor"><path fill-rule="evenodd" d="M10.05 2.192A10 10 0 0122 12v.004a9.947 9.947 0 01-.15 1.686 1 1 0 01-1.97-.346c.078-.444.118-.895.12-1.346A8 8 0 1012 20c.617 0 1.212-.068 1.778-.197a1 1 0 11.444 1.95A9.99 9.99 0 0112 22a10 10 0 01-1.95-19.808zM8 10a1 1 0 011-1h.01a1 1 0 110 2H9a1 1 0 01-1-1zm6 0a1 1 0 011-1h.01a1 1 0 110 2H15a1 1 0 01-1-1zm-2 5.2a2.501 2.501 0 00-1.786.75 1 1 0 01-1.428-1.4 4.5 4.5 0 016.428 0 1 1 0 01-1.428 1.4A2.501 2.501 0 0012 15.2zm7-.2a1 1 0 01.745.333l1.457 1.63a3 3 0 11-4.37-.037l1.422-1.592A1 1 0 0119 15zm0 2.5l-.688.772a1 1 0 101.42.046l-.014-.015L19 17.5z" clip-rule="evenodd"/></svg>