<svg xmlns="http://www.w3.org/2000/svg" viewBox="0 0 24 24" fill="currentColor"><path fill-rule="evenodd" d="M4 5a2 2 0 114 0 2 2 0 01-4 0zm10.293-.707a1 1 0 111.414 1.414l-3 3A1 1 0 0112 9h-2l1.8 2.4c.08.107.138.228.17.357l1 4c.036.144.04.294.01.44l-1 5a1 1 0 11-1.96-.393l.955-4.78-.896-3.586L8 9.667l-1.914 2.552.884 3.539a1 1 0 11-1.94.485l-1-4a1 1 0 01.17-.843l3-4A1 1 0 018 7h3.586l2.707-2.707zM12.5 12a1 1 0 011-1H16c.155 0 .308.036.447.106l4 2a1 1 0 11-.894 1.788L15.763 13H13.5a1 1 0 01-1-1z" clip-rule="evenodd"/></svg>