<svg xmlns="http://www.w3.org/2000/svg" fill="none" viewBox="0 0 24 24" stroke="currentColor"><path stroke-linecap="round" stroke-linejoin="round" stroke-width="2" d="M18.192 7.017a8.314 8.314 0 011.047 4.994v.999A6.223 6.223 0 0020 16.006M7.818 11.012c0-1.06.401-2.076 1.115-2.825a3.718 3.718 0 012.692-1.17c1.01 0 1.978.42 2.692 1.17a4.098 4.098 0 011.115 2.825v.999c0 2.161.668 4.264 1.903 5.993m-5.71-6.992v1.998a14.47 14.47 0 002.38 7.99m-6.187-5.993A18.641 18.641 0 009.531 21m-4.663-1.998a22.995 22.995 0 01-.856-6.991v-.999A8.298 8.298 0 015.024 7.01a7.815 7.815 0 012.785-2.933A7.34 7.34 0 0111.62 3a7.34 7.34 0 013.813 1.07"/></svg>