<svg xmlns="http://www.w3.org/2000/svg" viewBox="0 0 24 24" fill="currentColor"><path fill-rule="evenodd" d="M6.158 1.06a1 1 0 011.045.229l3.628 3.583.285-.539a1 1 0 011.587-.244l2.728 2.694 1.381-1.31a1 1 0 011.68.6l1.5 11.851a1 1 0 01-.5.997l-7 3.95a1 1 0 01-.984 0l-7-3.95a1 1 0 01-.504-.964l1.5-16.05a1 1 0 01.654-.847zm7.82 7.1l-1.723-1.702-3.53 6.683 5.254-4.981zm-7.515 4.98l3.392-6.421L7.3 4.195l-.836 8.944zm.207 4.704L12 20.852l5.924-3.343-1.168-9.226L6.67 17.844z" clip-rule="evenodd"/></svg>