<svg xmlns="http://www.w3.org/2000/svg" viewBox="0 0 24 24" fill="currentColor"><path fill-rule="evenodd" d="M7 4v16a.11.11 0 000 .01.052.052 0 00.019.006.106.106 0 00.007-.006v-.001l4.146-5.252c.382-.476.96-.757 1.574-.757H15a.015.015 0 00.01-.003.014.014 0 00.004-.008L15.817 10H11V8h5.22l.779-3.874a.12.12 0 00-.003-.05A.2.2 0 0016.96 4H7zM5 4c0-1.119.89-2 2-2h10c.705 0 1.264.383 1.594.847.327.459.49 1.07.364 1.683l-1.984 9.856v.003A2.014 2.014 0 0115 16h-2.254a.017.017 0 00-.012.006l-4.14 5.246-.003.003C7.404 22.745 5 21.912 5 20V4z" clip-rule="evenodd"/></svg>