<svg xmlns="http://www.w3.org/2000/svg" viewBox="0 0 24 24" fill="currentColor"><path fill-rule="evenodd" d="M7.012 2.845A1 1 0 018 2h8a1 1 0 01.988.845l1 6.352a1 1 0 01.012.156c0 1.651-.62 3.246-1.738 4.43A5.91 5.91 0 0113 15.56V20h3a1 1 0 110 2H8a1 1 0 110-2h3v-4.44a5.911 5.911 0 01-3.263-1.777A6.456 6.456 0 016 9.353a1 1 0 01.012-.156l1-6.352zM8.855 4l-.563 3.579A4.788 4.788 0 019.5 7.424c1.152 0 2.261.415 3.147 1.166a2.864 2.864 0 001.853.692c.493 0 .98-.131 1.416-.384L15.146 4H8.854zm6.78 7.146c-.37.09-.75.136-1.135.136a4.863 4.863 0 01-3.147-1.166A2.864 2.864 0 009.5 9.424a2.83 2.83 0 00-1.474.418c.104.974.516 1.88 1.165 2.568.756.8 1.767 1.237 2.809 1.237 1.042 0 2.053-.438 2.809-1.237.346-.367.625-.796.825-1.264z" clip-rule="evenodd"/></svg>