<svg xmlns="http://www.w3.org/2000/svg" viewBox="0 0 24 24" fill="currentColor"><path d="M21 16c0 .486-.05.968-.149 1.437L19 15.586V7.5a.5.5 0 00-1 0V12a1 1 0 11-2 0V5.5a.5.5 0 00-1 0v6.086l-2-2V3.5a.5.5 0 00-1 0v5.086l-2-2V5.5a.5.5 0 10-1 0v.086L7.464 4.05a2.5 2.5 0 012.575-.991 2.5 2.5 0 014.922 0 2.499 2.499 0 013 2A2.499 2.499 0 0121 7.5V16z"/><path fill-rule="evenodd" d="M19.234 20.648l2.059 2.06 1.414-1.415-20-20-1.414 1.414L7 8.414v1.983a2.697 2.697 0 00-2.913.17 2.7 2.7 0 00-.645 3.701l2.669 5.19c.015.03.032.06.05.088a7.442 7.442 0 002.423 2.303c.987.592 2.108.98 3.28 1.142.045.006.09.009.136.009h2a7 7 0 005.234-2.352zm-1.418-1.418A5 5 0 0114 21h-1.93a6.68 6.68 0 01-2.457-.866c-.73-.438-1.323-1-1.748-1.639l-2.676-5.202a.996.996 0 00-.08-.131.7.7 0 011.095-.871l.857 1.666a1 1 0 00.919.543H8a1 1 0 001-1v-3.086l1 1V12a1 1 0 001.47.883l6.346 6.348z" clip-rule="evenodd"/></svg>