<svg xmlns="http://www.w3.org/2000/svg" fill="none" viewBox="0 0 24 24" stroke="currentColor"><path stroke-linecap="round" stroke-linejoin="round" stroke-width="2" d="M8.019 13.5v-8A1.501 1.501 0 019.517 4a1.497 1.497 0 011.497 1.5m0 0V12m0-6.5v-2A1.501 1.501 0 0112.512 2a1.497 1.497 0 011.497 1.5v2m0 0V12m0-6.5A1.501 1.501 0 0115.507 4a1.497 1.497 0 011.498 1.5v2m0 0V12m0-4.5A1.501 1.501 0 0118.502 6 1.497 1.497 0 0120 7.5V16a6.004 6.004 0 01-1.755 4.243A5.985 5.985 0 0114.01 22h-1.996a7.67 7.67 0 01-2.897-1.008A6.437 6.437 0 017.02 19l-2.695-5.25a1.702 1.702 0 01.374-2.375 1.696 1.696 0 012.371.375l.899 1.75"/></svg>