<svg xmlns="http://www.w3.org/2000/svg" fill="none" viewBox="0 0 24 24" stroke="currentColor"><path stroke-linecap="round" stroke-linejoin="round" stroke-width="2" d="M11.014 5.5A1.501 1.501 0 009.517 4c-.154 0-.305.024-.448.069M11.014 5.5v-2A1.501 1.501 0 0112.512 2a1.497 1.497 0 011.497 1.5v2m-2.995 0v.514M14.01 5.5A1.501 1.501 0 0115.507 4a1.497 1.497 0 011.498 1.5v2m-2.996-2v3.25m2.996-1.25V12m0-4.5A1.501 1.501 0 0118.502 6 1.497 1.497 0 0120 7.5V15M7.969 13.5l-.899-1.75a1.697 1.697 0 00-3.05.735c-.07.445.04.9.305 1.265L7.02 19a6.437 6.437 0 002.096 1.992A7.67 7.67 0 0012.013 22h1.996a5.985 5.985 0 005.115-2.876M1 1l7.019 7.019m0 0V13.5m0-5.481l2.995 2.995m8.11 8.11L23 23m-3.876-3.876l-8.11-8.11m0 0V12"/></svg>