<svg xmlns="http://www.w3.org/2000/svg" viewBox="0 0 24 24" fill="currentColor"><path fill-rule="evenodd" d="M20.243 4.757a5.998 5.998 0 00-8.242-.228 6 6 0 00-8.48 8.464l8.478 8.492 8.48-8.492a6 6 0 00-.236-8.236zm-6.906 1.26a4 4 0 015.683 5.607L13 17.653v-.417l1.894-3.789A1 1 0 0014.6 12.2l-3.332-2.5 1.626-3.253a.93.93 0 00.027-.056l.416-.374zm-2.528.129l-.143-.128a3.999 3.999 0 00-5.494.154 4 4 0 00-.192 5.451l6.02 6.03V17c0-.155.036-.308.106-.447l1.626-3.254L9.4 10.8a1 1 0 01-.294-1.247l1.703-3.407z" clip-rule="evenodd"/></svg>