<svg xmlns="http://www.w3.org/2000/svg" fill="none" viewBox="0 0 24 24" stroke="currentColor"><path stroke-linecap="round" stroke-linejoin="round" stroke-width="2" d="M20.338 12.65L12.01 21 3.68 12.65a5.626 5.626 0 01-1.27-1.911 5.682 5.682 0 01.117-4.507 5.615 5.615 0 011.368-1.84 5.535 5.535 0 011.983-1.13 5.489 5.489 0 014.429.478 5.576 5.576 0 011.702 1.528 5.574 5.574 0 011.705-1.515 5.506 5.506 0 014.417-.463c.729.234 1.401.619 1.976 1.128a5.616 5.616 0 011.364 1.835 5.679 5.679 0 01-1.133 6.403"/></svg>