<svg xmlns="http://www.w3.org/2000/svg" viewBox="0 0 24 24" fill="currentColor"><path fill-rule="evenodd" d="M11.526 4.168L5.541 7.731A1 1 0 005 8.62h-.001v6.537a1 1 0 00.514.873.93.93 0 01.053.031l5.97 3.814a1 1 0 00.926 0l5.97-3.814a.945.945 0 01.052-.031 1 1 0 00.515-.874V8.613a1 1 0 00-.5-.874 1.007 1.007 0 01-.152-.107l-5.816-3.464a1.056 1.056 0 00-1.006 0zm8.182 1.97a1 1 0 00-.167-.124l-6-3.573a3.056 3.056 0 00-3.023 0L4.529 6.006A3 3 0 003 8.62v6.537a3.003 3.003 0 001.514 2.605l5.977 3.818a3 3 0 003.019 0l5.976-3.818A3 3 0 0021 15.156V8.623a3 3 0 00-1.292-2.484z" clip-rule="evenodd"/></svg>