<svg xmlns="http://www.w3.org/2000/svg" viewBox="0 0 24 24" fill="currentColor"><path fill-rule="evenodd" d="M11.072.724a2.03 2.03 0 012.364.37l9.47 9.47a2.03 2.03 0 010 2.87l-9.47 9.47a2.03 2.03 0 01-2.872 0l-9.47-9.47a2.03 2.03 0 010-2.87l9.47-9.47a2.02 2.02 0 01.508-.37zm1.014 1.849a4.153 4.153 0 00.621 5.078l3.642 3.642a1 1 0 010 1.414L13.357 15.7a6.128 6.128 0 011.146 3.31l6.988-6.988A.027.027 0 0021.5 12c0-.004 0-.008-.002-.012a.03.03 0 00-.007-.01l-9.405-9.405zm-.172 18.854a4.152 4.152 0 00-.621-5.078L7.65 12.707a1 1 0 010-1.414L10.643 8.3a6.13 6.13 0 01-1.146-3.31L2.51 11.979a.027.027 0 00-.007.01.031.031 0 00-.003.01l.002.013.007.01 9.405 9.405zM12 9.772L9.772 12 12 14.228 14.228 12 12 9.772z" clip-rule="evenodd"/></svg>