<svg xmlns="http://www.w3.org/2000/svg" viewBox="0 0 24 24" fill="currentColor"><path d="M21.748 11.15c-.128-.14-1.047-1.285-1.543-1.901-.263-.328-.472-.587-.56-.694l-.006-.009-.008-.008c-.204-.232-.494-.498-.929-.498-.07.001-.141.007-.211.018l-.045.006c-.096.01-.393.06-1.1.178-.546.09-1.37.23-1.496.241l-.028.003-.026.005c-.391.07-.65.247-.765.524-.06.147-.125.444.115.79.06.089.267.38.623.882l.732 1.034-4.349 1.035-4.267-7.118-.008-.013-.009-.013-.017-.026C7.676 5.325 7.46 5 6.832 5c-.044 0-.09 0-.142.004-.18.01-.837.063-1.597.124-.84.067-1.988.16-2.138.163h-.028l-.03.003c-.358.036-.617.183-.77.438-.256.425-.056.902.01 1.059.131.317 1.33 2.89 2.388 5.162.703 1.509 1.428 3.069 1.488 3.207.104.259.283.48.513.633.23.153.499.232.774.226.13 0 .258-.015.385-.044h.008l.008-.002c.541-.134 2.259-.578 3.484-.898.074.132.152.272.234.415.857 1.531 1.48 2.639 1.686 2.922.106.15.418.588 1.006.588.214 0 .41-.056.615-.115l.06-.017h.005c.411-.12 5.886-2.075 6.166-2.201l.01-.004c.212-.096.533-.241.631-.613.065-.243.007-.49-.17-.734l-.004-.004-.002-.003a544.244 544.244 0 00-1.762-2.364 73.703 73.703 0 001.694-.46c.448-.136.584-.425.625-.586.03-.125.071-.445-.23-.75zm-12.5 2.314l-1.48.354c-.26-.53-.77-1.577-1.269-2.598-1.162-2.384-1.762-3.61-2.077-4.252l.318-.028 1.632-.142c.655 1.124 2.903 4.984 3.762 6.455l-.885.211zm6.96 2.65c-.946.319-1.458.492-1.735.587-.246-.412-.788-1.333-1.269-2.155l4.52-1.173c.195.27.57.784 1.307 1.787-.706.24-1.883.637-2.823.954zm2.182-4.837l-.928-1.254 1.022-.183.468.592.467.59c-.32.078-.693.171-1.029.255z"/></svg>