<svg xmlns="http://www.w3.org/2000/svg" fill="none" viewBox="0 0 24 24" stroke="currentColor"><path stroke-linecap="round" stroke-linejoin="round" stroke-width="2" d="M9.188 10.889h.01m5.614 0h.012m-5.636 4.444c.366.37.804.663 1.287.864a3.981 3.981 0 003.05 0c.483-.2.92-.494 1.287-.864M6.376 4.223H7.5V2h9v2.222h1.125c.895 0 1.754.351 2.387.977.632.625.988 1.473.988 2.357v10c0 .884-.356 1.732-.988 2.357a3.397 3.397 0 01-2.387.976V22H6.375v-1.111a3.397 3.397 0 01-2.386-.976A3.313 3.313 0 013 17.556v-10c0-.885.356-1.732.989-2.357a3.397 3.397 0 012.386-.977z"/></svg>