<svg xmlns="http://www.w3.org/2000/svg" viewBox="0 0 24 24" fill="currentColor"><path fill-rule="evenodd" d="M7 3a1 1 0 011-1h8a1 1 0 011 1v1a4 4 0 014 4v9a4 4 0 01-3 3.873V21a1 1 0 01-1 1H7a1 1 0 01-1-1v-.127A4 4 0 013 17V8a4 4 0 014-4V3zm2 1v1a1 1 0 01-1 1H7a2 2 0 00-2 2v9a2 2 0 002 2 1 1 0 011 1h8a1 1 0 011-1 2 2 0 002-2V8a2 2 0 00-2-2h-1a1 1 0 01-1-1V4H9zm-.5 7a1 1 0 011-1h.01a1 1 0 110 2H9.5a1 1 0 01-1-1zm5 0a1 1 0 011-1h.01a1 1 0 110 2h-.01a1 1 0 01-1-1zm-4.7 3.286a1 1 0 011.414.014 2.5 2.5 0 003.572 0 1 1 0 011.428 1.4 4.5 4.5 0 01-6.428 0 1 1 0 01.014-1.414z" clip-rule="evenodd"/></svg>