<svg xmlns="http://www.w3.org/2000/svg" viewBox="0 0 24 24" fill="currentColor"><path fill-rule="evenodd" d="M13.533 3.453a4.96 4.96 0 017.014 7.014l-4.477 4.477a4.92 4.92 0 01-7.024-.004 1 1 0 011.428-1.4 2.92 2.92 0 004.172 0l.007-.007 4.48-4.48a2.96 2.96 0 00-4.186-4.186l-.56.56a1 1 0 11-1.414-1.414l.56-.56zM9.534 7.968a4.92 4.92 0 015.42 1.092 1 1 0 11-1.428 1.4 2.92 2.92 0 00-4.172 0l-.007.007-4.48 4.48a2.96 2.96 0 104.186 4.186l.56-.56a1 1 0 111.414 1.414l-.56.56a4.96 4.96 0 01-7.014-7.014l4.476-4.477a4.92 4.92 0 011.605-1.088z" clip-rule="evenodd"/></svg>