<svg xmlns="http://www.w3.org/2000/svg" viewBox="0 0 24 24" fill="currentColor"><path fill-rule="evenodd" d="M12 2a1 1 0 011 1v.01a1 1 0 11-2 0V3a1 1 0 011-1zm-3.9.89a1 1 0 011 1v.01a1 1 0 11-2 0v-.01a1 1 0 011-1zm7.8 0a1 1 0 011 1v.01a1 1 0 11-2 0v-.01a1 1 0 011-1zM4.96 5.39a1 1 0 011 1v.01a1 1 0 11-2 0v-.01a1 1 0 011-1zm14.08 0a1 1 0 011 1v.01a1 1 0 11-2 0v-.01a1 1 0 011-1zM12 8a4 4 0 100 8 4 4 0 000-8zm-6 4a6 6 0 1112 0 6 6 0 01-12 0zM3.23 9a1 1 0 011 1v.01a1 1 0 11-2 0V10a1 1 0 011-1zm17.54 0a1 1 0 011 1v.01a1 1 0 11-2 0V10a1 1 0 011-1zM10 12a2 2 0 114 0 2 2 0 01-4 0zm-6.77 1a1 1 0 011 1v.01a1 1 0 11-2 0V14a1 1 0 011-1zm17.54 0a1 1 0 011 1v.01a1 1 0 11-2 0V14a1 1 0 011-1zM4.96 16.61a1 1 0 011 1v.01a1 1 0 11-2 0v-.01a1 1 0 011-1zm14.08 0a1 1 0 011 1v.01a1 1 0 11-2 0v-.01a1 1 0 011-1zM8.1 19.11a1 1 0 011 1v.01a1 1 0 11-2 0v-.01a1 1 0 011-1zm7.8 0a1 1 0 011 1v.01a1 1 0 11-2 0v-.01a1 1 0 011-1zM12 20a1 1 0 011 1v.01a1 1 0 11-2 0V21a1 1 0 011-1z" clip-rule="evenodd"/></svg>