<svg xmlns="http://www.w3.org/2000/svg" fill="none" viewBox="0 0 24 24" stroke="currentColor"><path stroke-linecap="round" stroke-linejoin="round" stroke-width="2" d="M16.002 20.1v.01m3.223-2.508v.01M21 13.994v.01m0-4.008v.01m-1.775-3.618v.01M16.002 3.89v.01M12 3v.01m-4.002.88v.01M4.775 6.388v.01M3 9.996v.01m0 3.988v.01m1.775 3.598v.01M7.998 20.1v.01M12 20.99V21m1.026-9.005c0 .552-.46 1-1.026 1a1.013 1.013 0 01-1.026-1c0-.552.46-1 1.026-1 .567 0 1.026.448 1.026 1zm4.105 0c0 2.76-2.297 4.997-5.131 4.997s-5.131-2.237-5.131-4.997S9.166 6.998 12 6.998s5.131 2.237 5.131 4.997z"/></svg>