<svg xmlns="http://www.w3.org/2000/svg" viewBox="0 0 24 24" fill="currentColor"><path fill-rule="evenodd" d="M11.272 2.026C6.089 2.4 2 6.722 2 12c0 5.278 4.089 9.601 9.272 9.974a1 1 0 00.347.019 10.038 10.038 0 00.762 0 1 1 0 00.347-.019C17.911 21.601 22 17.278 22 12c0-5.278-4.089-9.6-9.272-9.974a1.001 1.001 0 00-.347-.019 10.186 10.186 0 00-.762 0 1.001 1.001 0 00-.347.02zM11 4.742a10.2 10.2 0 000 14.516V4.742zM8.206 19.045A12.209 12.209 0 015.966 12a12.2 12.2 0 012.24-7.045A7.999 7.999 0 004 12a7.999 7.999 0 004.206 7.045zm7.588 0A7.999 7.999 0 0020 12a7.999 7.999 0 00-4.206-7.045A12.195 12.195 0 0118.034 12a12.2 12.2 0 01-2.24 7.045zM13 19.258a10.202 10.202 0 000-14.516v14.516z" clip-rule="evenodd"/></svg>