<svg xmlns="http://www.w3.org/2000/svg" fill="none" viewBox="0 0 24 24" stroke="currentColor"><path stroke-linecap="round" stroke-linejoin="round" stroke-width="2" d="M12 14a3 3 0 01-2.562-4.562M2 2l3.83 3.83M23 23l-6.031-6.031M5.83 5.83a7.752 7.752 0 00-1.222 1.978 7.6 7.6 0 00-.455 4.501A7.73 7.73 0 006.343 16.3l4.244 4.131c.375.365.883.57 1.414.57.53 0 1.038-.205 1.413-.57l3.555-3.461M5.83 5.83l3.607 3.607m-.742-5.742a8.182 8.182 0 017.749.617A7.839 7.839 0 0119.39 7.81 7.6 7.6 0 0119.29 14m-2.321 2.969l-7.53-7.53"/></svg>