<svg xmlns="http://www.w3.org/2000/svg" viewBox="0 0 24 24" fill="currentColor"><path d="M20.827 11.756a9 9 0 01-1.795 3.861l-1.426-1.425a7 7 0 00-9.798-9.798L6.383 2.968a9 9 0 0114.444 8.788z"/><path fill-rule="evenodd" d="M16.657 18.071l4.636 4.636 1.414-1.414-20-20-1.414 1.414 2.87 2.87a9 9 0 001.473 10.787L12 22.728l4.657-4.657zm-1.414-1.414L12 19.9l-4.95-4.95A7 7 0 015.647 7.06l2.39 2.391a4 4 0 004.511 4.51l2.695 2.695z" clip-rule="evenodd"/><path d="M16 10a4 4 0 01-.554 2.031l-1.514-1.513a1.999 1.999 0 00-2.45-2.45L9.968 6.554A4 4 0 0116 10z"/></svg>