<svg xmlns="http://www.w3.org/2000/svg" viewBox="0 0 24 24" fill="currentColor"><path d="M20.944 11a9.004 9.004 0 01-1.913 4.617l-1.428-1.428A7.002 7.002 0 0018.928 11h2.016z"/><path fill-rule="evenodd" d="M16.423 17.837l4.87 4.87 1.414-1.414-20-20-1.414 1.414L7 8.414V10a5 5 0 006.389 4.803l1.545 1.546A7.001 7.001 0 015.07 11H3.055A9.004 9.004 0 0011 18.945V23h2v-4.055a9.003 9.003 0 003.423-1.108zm-7.39-7.39a3 3 0 002.52 2.52l-2.52-2.52z" clip-rule="evenodd"/><path d="M17 10a5 5 0 01-.829 2.757l-1.464-1.464A3 3 0 0015 10V6a3 3 0 00-5.975-.389L7.416 4.002A4.999 4.999 0 0117 6v4z"/></svg>