<svg xmlns="http://www.w3.org/2000/svg" viewBox="0 0 24 24" fill="currentColor"><path fill-rule="evenodd" d="M11.098 3.727a6.966 6.966 0 014.604-.561c1.551.345 2.957 1.212 4.05 2.461a1 1 0 11-1.504 1.317c-.837-.955-1.878-1.58-2.981-1.826a4.966 4.966 0 00-3.289.405c-1.05.514-1.97 1.39-2.628 2.545-.12.209-.228.424-.328.646h5.31a1 1 0 010 2H8.435a8.29 8.29 0 000 2.572h5.899a1 1 0 010 2h-5.31c.099.222.208.438.327.646.658 1.154 1.579 2.031 2.628 2.545a4.966 4.966 0 003.289.405c1.103-.246 2.144-.87 2.98-1.826a1 1 0 111.505 1.317c-1.093 1.25-2.499 2.116-4.05 2.461a6.966 6.966 0 01-4.604-.56c-1.441-.707-2.648-1.881-3.486-3.351a9.533 9.533 0 01-.736-1.637H5a1 1 0 110-2h1.415a10.3 10.3 0 010-2.572H5a1 1 0 110-2h1.876c.195-.57.44-1.118.736-1.637.838-1.47 2.045-2.644 3.486-3.35z" clip-rule="evenodd"/></svg>