<svg xmlns="http://www.w3.org/2000/svg" viewBox="0 0 24 24" fill="currentColor"><path fill-rule="evenodd" d="M14.684 5.271a3.936 3.936 0 00-2.42-.147 3.768 3.768 0 00-2 1.278 3.45 3.45 0 00-.769 2.138v3.561h4.822a1 1 0 110 2H9.495v2.994a1 1 0 01-.007.116c-.032.274-.09.542-.172.802a8.398 8.398 0 013.058.415c.03.01.06.021.088.034.804.354 1.68.538 2.568.538.887 0 1.763-.184 2.567-.538a1 1 0 01.806 1.83A8.376 8.376 0 0115.03 21a8.378 8.378 0 01-3.327-.687 6.407 6.407 0 00-4.286.123c-.306.19-.636.346-.983.46a1 1 0 01-.807-1.819 8.24 8.24 0 01.857-.42c.181-.128.344-.277.484-.446.287-.344.467-.752.527-1.18v-2.93H6a1 1 0 110-2h1.495v-3.57a5.45 5.45 0 011.21-3.382 5.768 5.768 0 013.06-1.961 5.936 5.936 0 013.651.222A5.701 5.701 0 0118.2 5.733a1 1 0 01-1.707 1.043 3.702 3.702 0 00-1.81-1.505z" clip-rule="evenodd"/></svg>