<svg xmlns="http://www.w3.org/2000/svg" fill="none" viewBox="0 0 24 24" stroke="currentColor"><path stroke-linecap="round" stroke-linejoin="round" stroke-width="2" d="M16 1v2m0 0v2m0-2h-2m2 0h2m3 3v2m0 0v2m0-2h-2m2 0h2M9.7 3.103L10.08 3a7.636 7.636 0 001.29 9.627 7.494 7.494 0 009.63.465 9.143 9.143 0 01-1.887 4.47 9.043 9.043 0 01-3.898 2.857 8.976 8.976 0 01-4.8.433 9.012 9.012 0 01-4.34-2.115 9.114 9.114 0 01-2.643-4.061 9.174 9.174 0 01-.197-4.853 9.128 9.128 0 012.307-4.265 9.025 9.025 0 014.155-2.463l.002.008z"/></svg>