<svg xmlns="http://www.w3.org/2000/svg" viewBox="0 0 24 24" fill="currentColor"><path fill-rule="evenodd" d="M8.714 4a.645.645 0 00-.007.007l-4.7 4.7A.645.645 0 004 8.714v6.572l.007.007 4.7 4.7.007.007h6.572l.007-.007 4.7-4.7.007-.007V8.714l-.007-.007-4.7-4.7A3.192 3.192 0 0115.286 4H8.714zM8.7 2a1.93 1.93 0 00-.794.161 2.035 2.035 0 00-.613.432l-4.7 4.7a2.035 2.035 0 00-.432.613A1.93 1.93 0 002 8.7v6.6c0 .267.046.534.161.794.114.255.273.454.432.613l4.7 4.7c.159.16.358.318.613.432.26.115.527.161.794.161h6.6c.267 0 .534-.046.794-.161.255-.114.454-.273.613-.432l4.7-4.7c.16-.159.318-.358.432-.613.115-.26.161-.527.161-.794V8.7c0-.267-.046-.534-.161-.794a2.035 2.035 0 00-.432-.613l-4.7-4.7a2.034 2.034 0 00-.613-.432A1.929 1.929 0 0015.3 2H8.7z" clip-rule="evenodd"/></svg>