<svg xmlns="http://www.w3.org/2000/svg" viewBox="0 0 24 24" fill="currentColor"><path fill-rule="evenodd" d="M11.51 2.128a1 1 0 01.98 0l3.986 2.243.03.016 3.984 2.241A1 1 0 0121 7.5v9a1 1 0 01-.51.872l-8 4.5a1 1 0 01-.98 0l-8-4.5A1 1 0 013 16.5v-9a1 1 0 01.51-.872l8-4.5zm2.45 3.122L12 4.147 6.04 7.5 8 8.603l5.96-3.353zm-3.92 4.5L16 6.397 17.96 7.5 12 10.853 10.04 9.75zm-2.546.863l.03.017L11 12.585v6.705l-6-3.375V9.21l2.494 1.403zM13 19.29l6-3.375V9.21l-6 3.375v6.705z" clip-rule="evenodd"/></svg>