<svg xmlns="http://www.w3.org/2000/svg" viewBox="0 0 24 24" fill="currentColor"><path d="M6 17a1 1 0 112 0v.01a1 1 0 11-2 0V17z"/><path fill-rule="evenodd" d="M9 2a3 3 0 013 2.936l.293-.293a3 3 0 014.242 0l2.828 2.828a3 3 0 010 4.242l-.288.288A3 3 0 0122 15v4a3 3 0 01-3 3H7a5 5 0 01-5-5V5a3 3 0 013-3h4zm10 12h-1.924l-6 6H19a1 1 0 001-1v-4a1 1 0 00-1-1zM4.879 19.121A3 3 0 0010 17V5a1 1 0 00-1-1H5a1 1 0 00-1 1v12a3 3 0 00.879 2.121zM12 16.248V7.764l1.707-1.707a1 1 0 011.414 0l2.828 2.828a1 1 0 010 1.414L12 16.248z" clip-rule="evenodd"/></svg>