<svg xmlns="http://www.w3.org/2000/svg" viewBox="0 0 24 24" fill="currentColor"><path fill-rule="evenodd" d="M10.969 3.557A5.432 5.432 0 0114.78 2c1.427 0 2.798.558 3.812 1.557a5.3 5.3 0 011.586 3.775 5.3 5.3 0 01-1.586 3.776l-6.738 6.638a3.216 3.216 0 01-2.257.922c-.844 0-1.656-.33-2.257-.922a3.15 3.15 0 01-.942-2.244c0-.845.34-1.652.942-2.245L14.08 6.62a1 1 0 111.403 1.425l-6.738 6.637a1.15 1.15 0 00-.346.82c0 .304.123.599.346.819.224.22.53.347.853.347.323 0 .63-.127.853-.347l6.738-6.638a3.3 3.3 0 00.99-2.35 3.3 3.3 0 00-.99-2.352A3.432 3.432 0 0014.78 4c-.906 0-1.772.355-2.408.981L5.634 11.62A5.45 5.45 0 004 15.502a5.45 5.45 0 001.634 3.882A5.648 5.648 0 009.597 21c1.49 0 2.915-.583 3.963-1.616l6.738-6.637a1 1 0 011.404 1.425l-6.738 6.637A7.648 7.648 0 019.597 23c-2.01 0-3.94-.786-5.367-2.191A7.45 7.45 0 012 15.501a7.45 7.45 0 012.23-5.307l6.739-6.637z" clip-rule="evenodd"/></svg>