<svg xmlns="http://www.w3.org/2000/svg" viewBox="0 0 24 24" fill="currentColor"><path fill-rule="evenodd" d="M17 5a1 1 0 100 2 1 1 0 000-2zm-3 1a3 3 0 116 0 3 3 0 01-6 0zm-4.243.03a1 1 0 01.843.17l4 3a1 1 0 01.258 1.315L12.765 14H15a1 1 0 01.78.375l4 5a1 1 0 11-1.56 1.25L14.52 16H11a1 1 0 01-.857-1.514l2.535-4.227-2.897-2.173-3.538.884a1 1 0 11-.486-1.94l4-1zm-3.694 4.69A6 6 0 019.017 10a1 1 0 01-.034 2 4 4 0 103.16 6.36 1 1 0 011.614 1.18 5.999 5.999 0 11-7.694-8.82z" clip-rule="evenodd"/></svg>