<svg xmlns="http://www.w3.org/2000/svg" viewBox="0 0 24 24" fill="currentColor"><path fill-rule="evenodd" d="M2.293 2.293a1 1 0 01.942-.265l13.05 3.15a1 1 0 01.746.776l1.015 5.079a1 1 0 01.961.26l2.7 2.7a1 1 0 010 1.414l-6.3 6.3a1 1 0 01-1.414 0l-2.7-2.7a1 1 0 01-.26-.96l-5.08-1.016a1 1 0 01-.775-.746l-3.15-13.05a1 1 0 01.265-.942zM12.57 16.314l3.743-3.743-1.12-5.599L6.22 4.806l4.314 4.314a1 1 0 11-1.414 1.415L4.806 6.22l2.166 8.975 5.6 1.12zm.843 1.986l1.286 1.286 4.886-4.886-1.286-1.286-4.886 4.886z" clip-rule="evenodd"/></svg>