<svg xmlns="http://www.w3.org/2000/svg" fill="none" viewBox="0 0 24 24" stroke="currentColor"><path stroke-linecap="round" stroke-linejoin="round" stroke-width="2" d="M5.786 12.8a17.853 17.853 0 01-2.779-7.83A1.803 1.803 0 014.08 3.153c.23-.101.478-.154.73-.154h2.714a1.812 1.812 0 011.81 1.554c.115.867.328 1.718.634 2.538a1.803 1.803 0 01-.407 1.906l-1.15 1.147m-.213 5.658c.912.911 1.924 1.722 3.019 2.417a17.933 17.933 0 007.81 2.773 1.814 1.814 0 001.822-1.076c.1-.23.152-.48.151-.73v-2.71a1.803 1.803 0 00-1.556-1.834 11.641 11.641 0 01-2.543-.632 1.814 1.814 0 00-1.91.406l-1.15 1.147a14.477 14.477 0 01-3.07-2.333m-2.573 2.572L1 23m7.197-7.197l2.572-2.572M23 1L10.77 13.23"/></svg>