<svg xmlns="http://www.w3.org/2000/svg" viewBox="0 0 24 24" fill="currentColor"><path fill-rule="evenodd" d="M21.293 1.293l-20 20 1.414 1.414 5.243-5.243A17.942 17.942 0 0018.882 22 3.118 3.118 0 0022 18.882v-4.235a1 1 0 00-.629-.928L16.077 11.6a1 1 0 00-1.229.414l-1.094 1.823a10.64 10.64 0 01-1.273-.905L22.707 2.707l-1.414-1.414zm-10.231 13.06l-1.695 1.694A15.94 15.94 0 0018.908 20 1.117 1.117 0 0020 18.882v-3.558l-3.875-1.55-1.15 1.917a1 1 0 01-1.3.382 12.643 12.643 0 01-2.613-1.72z" clip-rule="evenodd"/><path d="M7.927 10.325c.253.513.54 1.007.857 1.477l1.446-1.446a9.616 9.616 0 01-.068-.11l.446-.268 1.849-1.85a1.007 1.007 0 00-.058-.205l-2.118-5.294A1 1 0 009.353 2H5.118a3.118 3.118 0 00-3.116 3.178 17.942 17.942 0 003.63 9.776l1.429-1.429A15.941 15.941 0 014 5.092 1.118 1.118 0 015.117 4h3.558l1.55 3.875-1.917 1.15a1 1 0 00-.382 1.3z"/></svg>