<svg xmlns="http://www.w3.org/2000/svg" viewBox="0 0 24 24" fill="currentColor"><path fill-rule="evenodd" d="M5.118 4A1.118 1.118 0 004 5.092 15.94 15.94 0 0018.908 20 1.117 1.117 0 0020 18.882v-3.558l-3.875-1.55-1.15 1.917a1 1 0 01-1.3.382 12.648 12.648 0 01-5.748-5.748 1 1 0 01.382-1.3l1.917-1.15L8.676 4H5.118zM2.913 2.913A3.118 3.118 0 015.118 2h4.235a1 1 0 01.928.629L12.4 7.923a1 1 0 01-.414 1.229l-1.823 1.094a10.648 10.648 0 003.592 3.592l1.094-1.823a1 1 0 011.23-.414l5.293 2.118a1 1 0 01.629.928v4.235a3.118 3.118 0 01-3.178 3.116A17.942 17.942 0 012 5.118c0-.827.328-1.62.913-2.205zM16.293 2.293a1 1 0 011.414 0L19 3.586l1.293-1.293a1 1 0 111.414 1.414L20.414 5l1.293 1.293a1 1 0 01-1.414 1.414L19 6.414l-1.293 1.293a1 1 0 11-1.414-1.414L17.586 5l-1.293-1.293a1 1 0 010-1.414z" clip-rule="evenodd"/></svg>