<svg xmlns="http://www.w3.org/2000/svg" fill="none" viewBox="0 0 24 24" stroke="currentColor"><path stroke-linecap="round" stroke-linejoin="round" stroke-width="2" d="M21 19.186v-2.71a1.803 1.803 0 00-1.557-1.833 11.641 11.641 0 01-2.543-.632 1.814 1.814 0 00-1.91.406l-1.15 1.147a14.466 14.466 0 01-5.43-5.42l1.15-1.146a1.805 1.805 0 00.407-1.906c-.306-.82-.519-1.671-.633-2.538A1.806 1.806 0 007.524 3H4.807a1.813 1.813 0 00-1.713 1.23c-.08.238-.11.49-.088.74a17.853 17.853 0 002.779 7.83 17.63 17.63 0 005.43 5.42 17.933 17.933 0 007.81 2.773 1.814 1.814 0 001.822-1.076c.1-.23.152-.48.151-.73z"/></svg>