<svg xmlns="http://www.w3.org/2000/svg" viewBox="0 0 24 24" fill="currentColor"><path fill-rule="evenodd" d="M15.576 16.99l5.717 5.717 1.414-1.414-20-20-1.414 1.414L7.01 8.424l-1.667.333-1.414 1.415 4.243 4.242-4.95 4.95 1.414 1.414 4.95-4.95 4.242 4.243 1.415-1.414.333-1.666zm-1.7-1.7L8.71 10.123l-1.666.334 6.5 6.5.333-1.667z" clip-rule="evenodd"/><path d="M20.192 10.879l-2.95 2.95-1.414-1.415 2.95-2.949-4.242-4.243-2.95 2.95-1.414-1.414 2.95-2.95-.707-.707 1.414-1.414 8.485 8.485-1.415 1.414-.707-.707z"/></svg>