<svg xmlns="http://www.w3.org/2000/svg" viewBox="0 0 24 24" fill="currentColor"><path fill-rule="evenodd" d="M8.202 2.398A1 1 0 019 2h3a1 1 0 01.868.504L16.58 9H20a3 3 0 110 6h-3.42l-3.712 6.496A1 1 0 0112 22H9a1 1 0 01-.962-1.275L9.674 15h-2.26l-1.707 1.707A1 1 0 015 17H2a1 1 0 01-.894-1.447L2.882 12 1.106 8.447A1 1 0 012 7h3a1 1 0 01.707.293L7.414 9h2.26L8.038 3.275a1 1 0 01.164-.877zM10.326 4l1.635 5.725A1 1 0 0111 11H7a1 1 0 01-.707-.293L4.586 9h-.968l1.276 2.553a1 1 0 010 .894L3.618 15h.968l1.707-1.707A1 1 0 017 13h4a1 1 0 01.961 1.275L10.326 20h1.094l3.712-6.496A1 1 0 0116 13h4a1 1 0 000-2h-4a1 1 0 01-.868-.504L11.42 4h-1.094z" clip-rule="evenodd"/></svg>