<svg xmlns="http://www.w3.org/2000/svg" viewBox="0 0 24 24" fill="currentColor"><path fill-rule="evenodd" d="M4.095 10.763a8 8 0 0012.108 8.045c.534.228 1.045.425 1.527.589 1.06.362 2.044.588 2.857.602.745.014 1.748-.156 2.212-1.064l.002-.005c.265-.525.229-1.086.104-1.553-.127-.472-.37-.953-.672-1.423-.535-.833-1.34-1.759-2.328-2.718A8 8 0 007.792 5.195c-1.297-.532-2.53-.915-3.55-1.072-.57-.087-1.138-.115-1.638-.02-.495.094-1.088.347-1.402.962m4.837 1.6c-.804-.284-1.52-.475-2.101-.565-.432-.066-.733-.067-.92-.04.022.102.077.272.214.53.28.53.79 1.21 1.53 2a8.012 8.012 0 011.277-1.925zm5.161 7.14c-1.879-1.23-3.549-2.512-4.89-3.713l4.89 3.713zm-4.89-3.713a6 6 0 0111.556 3.175.996.996 0 00-.04.176 5.998 5.998 0 01-1.864 3.063c-1.456-.69-3.082-1.602-4.761-2.7m6.746 3.545c.146.054.289.105.429.153.977.333 1.734.487 2.246.496.183.003.299-.011.369-.026a1.045 1.045 0 00-.018-.08c-.053-.198-.181-.484-.422-.86-.305-.472-.745-1.021-1.312-1.625a8.011 8.011 0 01-1.292 1.942zm3.052.722v-.002.002zm.077-.126l.01-.006s-.003.003-.01.006zm-7.2-.246a45.097 45.097 0 01-3.77-2.222 45.652 45.652 0 01-4.087-3 6 6 0 007.858 5.222zm-9.781-6.938c-.277-.27-.538-.534-.781-.793-.804-.857-1.452-1.69-1.85-2.446-.362-.683-.689-1.622-.262-2.46m1.674 1.032l.005-.003a.027.027 0 01-.005.003z" clip-rule="evenodd"/></svg>