<svg xmlns="http://www.w3.org/2000/svg" viewBox="0 0 24 24" fill="currentColor"><path fill-rule="evenodd" d="M10 4a1 1 0 00-1 1v3h4v2H5a1 1 0 00-1 1v4a1 1 0 001 1h2v-2a3 3 0 013-3h4a1 1 0 001-1V5a1 1 0 00-1-1h-4zm7 2V5a3 3 0 00-3-3h-4a3 3 0 00-3 3v3H5a3 3 0 00-3 3v4a3 3 0 003 3h2v1a3 3 0 003 3h4a3 3 0 003-3v-3h2a3 3 0 003-3V9a3 3 0 00-3-3h-2zm0 2v2a3 3 0 01-3 3h-4a1 1 0 00-1 1v5a1 1 0 001 1h4a1 1 0 001-1v-3h-4v-2h8a1 1 0 001-1V9a1 1 0 00-1-1h-2zm-5-3v2.01h-2V5h2zm2 12v2.01h-2V17h2z" clip-rule="evenodd"/></svg>