<svg xmlns="http://www.w3.org/2000/svg" viewBox="0 0 24 24" fill="currentColor"><path fill-rule="evenodd" d="M7 3.344a10 10 0 0110 0 1 1 0 01.366 1.367l-3 5.19a1 1 0 01-1.366.365 2 2 0 00-2 0 1 1 0 01-1.366-.365l-3-5.19A1 1 0 017 3.344zM8.898 4.63l2.031 3.514a4 4 0 012.142 0l2.031-3.514a8 8 0 00-6.204 0zm-6.605 6.663A1 1 0 013 11h6a1 1 0 011 1 2 2 0 001 1.734 1 1 0 01.366 1.367l-3 5.19A1 1 0 017 20.656a10 10 0 01-5-8.655 1 1 0 01.293-.708zM4.063 13a8 8 0 003.103 5.37l2.031-3.514A4.003 4.003 0 018.127 13H4.063zm10.23-1.707A1 1 0 0115 11h6a1 1 0 011 1 10 10 0 01-5 8.656 1 1 0 01-1.366-.365l-3-5.19A1 1 0 0113 13.734a2 2 0 001-1.733 1 1 0 01.293-.708zM15.873 13a4.002 4.002 0 01-1.07 1.856l2.031 3.514A8 8 0 0019.937 13h-4.064z" clip-rule="evenodd"/></svg>