<svg xmlns="http://www.w3.org/2000/svg" fill="none" viewBox="0 0 24 24" stroke="currentColor"><path stroke-linecap="round" stroke-linejoin="round" stroke-width="2" d="M9.988 18.997l2.021-2.003v2.003m-2.021 0L12.009 21v-2.003m-2.021 0h2.021m0 0h7.074a2.034 2.034 0 001.601-.925 1.99 1.99 0 00.167-1.829l-.555-1.001M7.769 8.25l.74 2.736-1.751-1.002m1.01-1.734l-2.76.733 1.75 1.001m1.01-1.734l-1.01 1.734m0 0l-3.537 6.071a1.988 1.988 0 00.636 2.548c.263.184.567.303.887.347l1.153.024m12.374-7.255l-2.761-.733 1.75-1.002m1.01 1.735l.74-2.736-1.75 1.001m1.01 1.735l-1.01-1.735m0 0l-3.537-6.07a2.034 2.034 0 00-3.291-.14l-.597.976"/></svg>