<svg xmlns="http://www.w3.org/2000/svg" viewBox="0 0 24 24" fill="currentColor"><path fill-rule="evenodd" d="M11 4a2 2 0 114 0 2 2 0 01-4 0zm.804 3.02a1 1 0 01.903.273l2.833 2.833 2.776.925a1 1 0 01-.632 1.898l-3-1a1 1 0 01-.391-.242l-1.626-1.626-.58 3.484L15.6 16.2a1 1 0 01.4.8v4a1 1 0 11-2 0v-3.5l-3.6-2.7a1 1 0 01-.386-.964l.761-4.571L8 9.82V12a1 1 0 11-2 0V9a1 1 0 01.804-.98l5-1zm-1.607 8.586a1 1 0 01.447 1.341l-.75 1.5a1 1 0 01-1.09.534l-5-1a1 1 0 01.392-1.962l4.251.85.409-.816a1 1 0 011.341-.447z" clip-rule="evenodd"/></svg>