<svg xmlns="http://www.w3.org/2000/svg" viewBox="0 0 24 24" fill="currentColor"><path fill-rule="evenodd" d="M16.372 2.15c1.277.235 2.559.81 3.18 1.993.64 1.22.573 2.406.041 3.405-.503.944-1.38 1.65-2.262 2.124-.89.477-1.893.777-2.772.836-.437.03-.897.003-1.316-.132-.42-.136-.883-.412-1.14-.932a1 1 0 011.744-.975.416.416 0 00.01.004c.1.032.287.06.569.04.56-.037 1.288-.243 1.958-.603.677-.363 1.19-.826 1.444-1.303.225-.421.282-.908-.046-1.534-.2-.382-.738-.766-1.77-.955-.998-.183-2.265-.14-3.565.13-1.297.27-2.563.753-3.567 1.397-1.014.65-1.675 1.406-1.929 2.19-.274.847-.177 1.444.07 1.934.272.537.768 1.034 1.453 1.567.332.258.684.508 1.055.77l.02.014c.371.263.763.54 1.128.829.309.242.623.512.912.816 1.293-.25 2.413-.223 3.332.197 1.182.542 1.774 1.607 2.053 2.814a1 1 0 11-1.948.45c-.2-.866-.527-1.256-.937-1.444-.3-.137-.75-.216-1.418-.155.616 2.164-.46 4.126-1.776 5.236-.71.6-1.577 1.035-2.446 1.122-.907.09-1.877-.215-2.447-1.162-.502-.837-.506-1.727-.244-2.52.252-.762.75-1.448 1.296-2.015a9.826 9.826 0 012.367-1.784c-.336-.258-.678-.509-1.026-.75l-.036-.027a29.958 29.958 0 01-1.113-.812c-.75-.584-1.535-1.303-2.01-2.245-.5-.99-.614-2.134-.187-3.452C5.496 5.836 6.564 4.754 7.8 3.96c1.246-.798 2.75-1.361 4.24-1.67 1.486-.31 3.02-.38 4.332-.14zm-5.65 13.94a7.728 7.728 0 00-2.226 1.584c-.43.447-.715.881-.84 1.259-.114.346-.088.613.06.86.083.137.21.235.535.201.365-.035.866-.247 1.355-.66.935-.787 1.501-2.01 1.116-3.244zm3.09-7.635h.002-.002z" clip-rule="evenodd"/></svg>