<svg xmlns="http://www.w3.org/2000/svg" viewBox="0 0 24 24" fill="currentColor"><path fill-rule="evenodd" d="M14.375 4a1 1 0 011-1H16.5c.867 0 1.695.35 2.304.968.607.617.946 1.451.946 2.318V12a1 1 0 01-.843.988c-1.2.19-2.311.764-3.174 1.64a5.897 5.897 0 00-1.62 3.239 1 1 0 01-.988.847H8.346A3.253 3.253 0 015.25 21C3.44 21 2 19.514 2 17.714s1.44-3.285 3.25-3.285c1.46 0 2.68.967 3.096 2.285h3.969a7.883 7.883 0 011.993-3.49 7.727 7.727 0 013.442-2.028v-4.91c0-.346-.136-.675-.372-.915A1.232 1.232 0 0016.5 5h-1.125a1 1 0 01-1-1zM5.25 16.429c-.676 0-1.25.56-1.25 1.285C4 18.44 4.574 19 5.25 19s1.25-.56 1.25-1.286c0-.725-.574-1.285-1.25-1.285zm13.5 0c-.676 0-1.25.56-1.25 1.285 0 .725.574 1.286 1.25 1.286S20 18.44 20 17.714c0-.725-.574-1.285-1.25-1.285zm-3.25 1.285c0-1.8 1.44-3.285 3.25-3.285S22 15.915 22 17.714c0 1.8-1.44 3.286-3.25 3.286s-3.25-1.486-3.25-3.286z" clip-rule="evenodd"/></svg>