<svg xmlns="http://www.w3.org/2000/svg" viewBox="0 0 24 24" fill="currentColor"><path fill-rule="evenodd" d="M21.293 1.293l-20 20 1.414 1.414 3.869-3.869A8.955 8.955 0 0011 20a8.96 8.96 0 005.617-1.969l4.282 4.283 1.415-1.415-4.283-4.282A8.96 8.96 0 0020 11a8.955 8.955 0 00-1.162-4.424l3.87-3.869-1.415-1.414zm-3.938 6.766l-9.296 9.296C8.953 17.769 9.95 18 11 18a6.977 6.977 0 004.875-1.975l.15-.15A6.977 6.977 0 0018 11c0-1.05-.231-2.047-.645-2.94z" clip-rule="evenodd"/><path d="M11 4a6.97 6.97 0 014.193 1.393l1.424-1.424A8.96 8.96 0 0011 2c-4.968 0-9 4.032-9 9a8.96 8.96 0 001.97 5.617l1.423-1.424A6.97 6.97 0 014 11c0-3.868 3.132-7 7-7z"/></svg>