<svg xmlns="http://www.w3.org/2000/svg" viewBox="0 0 24 24" fill="currentColor"><path fill-rule="evenodd" d="M8.938 4.307a3.5 3.5 0 00-4.63 4.631 1 1 0 01.045.707 8 8 0 0010.002 10.002 1 1 0 01.707.045 3.5 3.5 0 004.63-4.63 1 1 0 01-.045-.707A7.998 7.998 0 0012 4H12a7.987 7.987 0 00-2.355.352 1 1 0 01-.706-.045zm.47-1.968A5.5 5.5 0 002.34 9.407 10 10 0 0014.593 21.66a5.5 5.5 0 007.067-7.067A10 10 0 0012 2a9.987 9.987 0 00-2.593.34zm.089 6.229C9.13 8.833 9 9.152 9 9.5c0 .269.165.618.73.952.56.33 1.378.548 2.27.548 1.181 0 2.364.281 3.286.825C16.2 12.365 17 13.266 17 14.5c0 .965-.418 1.896-1.324 2.552-.87.63-2.106.948-3.676.948-.904 0-1.956-.135-2.884-.61-.966-.495-1.76-1.343-2.086-2.648l-.243-.97 1.94-.485.243.97c.174.696.559 1.097 1.058 1.353.536.275 1.234.39 1.972.39 1.335 0 2.1-.276 2.503-.568.367-.265.497-.584.497-.932 0-.27-.165-.618-.73-.953-.56-.33-1.378-.547-2.27-.547-1.181 0-2.364-.281-3.286-.825C7.8 11.635 7 10.734 7 9.5c0-.965.418-1.896 1.324-2.553C9.194 6.317 10.43 6 12 6c.904 0 1.956.135 2.884.61.966.494 1.76 1.343 2.086 2.647l.243.97-1.94.486-.243-.97c-.174-.696-.559-1.098-1.058-1.353C13.436 8.115 12.738 8 12 8c-1.335 0-2.1.275-2.503.568z" clip-rule="evenodd"/></svg>