<svg xmlns="http://www.w3.org/2000/svg" viewBox="0 0 24 24" fill="currentColor"><path fill-rule="evenodd" d="M10.383 5.076A1 1 0 1010 7h1V6a1 1 0 00-.617-.924zM12 3.764A3.001 3.001 0 007.172 7H6a3 3 0 00-2.236 5A3 3 0 007 16.828V18a3 3 0 005 2.236A3 3 0 0016.828 17H18a3 3 0 002.236-5A3 3 0 0017 7.172V6a3 3 0 00-5-2.236zM17 10v1h1a1 1 0 10-1-1zm1 3h-5v2h5a1 1 0 000-2zm-3-7a1 1 0 00-2 0v5h2V6zm-4 5V9H6a1 1 0 000 2h5zm-4 2H6a1 1 0 101 1v-1zm7 4h-1v1a1 1 0 101-1zm-3 1v-5H9v5a1 1 0 102 0z" clip-rule="evenodd"/></svg>