<svg xmlns="http://www.w3.org/2000/svg" fill="none" viewBox="0 0 24 24" stroke="currentColor"><path stroke-linecap="round" stroke-linejoin="round" stroke-width="2" d="M9 10v4m0-4l3-1.5M9 10L6 8.5M9 14l3 1.5M9 14l-3 1.5m6 0l3-1.5m-3 1.5v3.25M15 14v-4m0 4l3 1.5M15 10l-3-1.5m3 1.5l3-1.5m-6 0V5.25M6 8.5L3 7m3 1.5L4 10m2-1.5V6m0 9.5L3 17m3-1.5V18m0-2.5L4 14m8 4.75V22m0-3.25L14 20m-2-1.25L10 20m2-14.75V2m0 3.25L10 4m2 1.25L14 4m4 4.5L21 7m-3 1.5l2 1.5m-2-1.5V6m0 9.5l3 1.5m-3-1.5V18m0-2.5l2-1.5"/></svg>