<svg xmlns="http://www.w3.org/2000/svg" viewBox="0 0 24 24" fill="currentColor"><path fill-rule="evenodd" d="M12 1a1 1 0 011 1v1h1a1 1 0 01.447 1.894L13 5.618v2.303l2.04 1.17 1.987-1.148-.097-1.615a1 1 0 011.864-.56l.5.866.866-.5a1 1 0 111 1.732l-.866.5.5.866a1 1 0 01-1.417 1.335l-1.35-.892-1.994 1.151.007 2.352 1.987 1.147 1.35-.892a1 1 0 011.417 1.335l-.5.866.866.5a1 1 0 11-1 1.732l-.866-.5-.5.866a1 1 0 01-1.864-.56l.097-1.615-1.994-1.151L13 16.088v2.294l1.447.724A1 1 0 0114 21h-1v1a1 1 0 01-2 0v-1h-1a1 1 0 01-.447-1.894L11 18.382v-2.303l-2.04-1.17-1.987 1.148.097 1.615a1 1 0 01-1.864.56l-.5-.866-.866.5a1 1 0 11-1-1.732l.866-.5-.5-.866a1 1 0 011.417-1.335l1.35.892 1.994-1.151-.007-2.352-1.987-1.147-1.35.892a1 1 0 01-1.417-1.335l.5-.866-.866-.5a1 1 0 011-1.732l.866.5.5-.866a1 1 0 011.864.56l-.097 1.615 1.994 1.151L11 7.912V5.618l-1.447-.724A1 1 0 0110 3h1V2a1 1 0 011-1zm-.007 8.649L9.96 10.83l.007 2.35 2.04 1.17 2.033-1.182-.007-2.35-2.04-1.17z" clip-rule="evenodd"/></svg>