<svg xmlns="http://www.w3.org/2000/svg" viewBox="0 0 24 24" fill="currentColor"><path fill-rule="evenodd" d="M12 4a1 1 0 100 2 1 1 0 000-2zM9 5a3 3 0 114 2.83v2.296a4.002 4.002 0 012.73 5.323l1.54 1.1a3 3 0 11-1.156 1.632l-1.553-1.108A3.984 3.984 0 0112 18a3.984 3.984 0 01-2.561-.927L7.887 18.18A3.002 3.002 0 015 22a3 3 0 111.73-5.45l1.54-1.1A4.002 4.002 0 0111 10.126V7.828A3.001 3.001 0 019 5zm3 7a2 2 0 100 4 2 2 0 000-4zm-7 6a1 1 0 100 2 1 1 0 000-2zm14 0a1 1 0 100 2 1 1 0 000-2z" clip-rule="evenodd"/></svg>