<svg xmlns="http://www.w3.org/2000/svg" viewBox="0 0 24 24" fill="currentColor"><path fill-rule="evenodd" d="M17.518 18.932l3.775 3.775 1.414-1.414-20-20-1.414 1.414L5.586 7H4a2 2 0 00-2 2v4a2 2 0 002 2h2v4a2 2 0 002 2h1a2 2 0 002-2v-4h.638l4.246 3.538a1.9 1.9 0 001.634.394zM11.586 13L11 12.414V13h.586zm-4-4L9 10.414V13H4V9h3.586zM9 15H8v4h1v-4zM19 14.873v.713l-2-2V5.135l-4.36 3.633a1 1 0 01-.29.168L10.415 7h1.224l4.246-3.538A1.9 1.9 0 0119 4.922v2.205a4 4 0 010 7.746zm0-5.605v3.464a2 2 0 000-3.464z" clip-rule="evenodd"/></svg>