<svg xmlns="http://www.w3.org/2000/svg" viewBox="0 0 24 24" fill="currentColor"><path fill-rule="evenodd" d="M3.5 11.998a8.498 8.498 0 1116.995-.184 8.498 8.498 0 01-16.995.184zM11.998 1.5C6.2 1.5 1.5 6.2 1.5 11.998c0 5.798 4.7 10.498 10.498 10.498 5.797 0 10.497-4.7 10.497-10.497 0-5.799-4.7-10.499-10.497-10.499zm-5.41 6.312a1 1 0 01.798-1.169c.6-.1 1.207-.15 1.815-.166 1.071-.028 2.538.045 4.093.462 1.555.416 2.862 1.087 3.776 1.647.515.316 1.027.656 1.488 1.05.413.356.462.998.107 1.412a1 1 0 01-1.41.107c-.378-.325-.806-.603-1.23-.864-.804-.493-1.932-1.068-3.249-1.42-1.316-.353-2.58-.42-3.523-.394-.499.013-1.004.045-1.496.132a1 1 0 01-1.168-.797h-.001zm.983 4.53a1 1 0 01-.639-1.896c.502-.17 1.047-.242 1.573-.285.944-.079 2.265-.046 3.826.372s2.721 1.052 3.5 1.59c.439.305.855.644 1.22 1.035a1 1 0 01-.095 1.41 1.012 1.012 0 01-1.41-.091 5.44 5.44 0 00-.854-.71c-.616-.425-1.569-.951-2.879-1.303-1.31-.35-2.397-.372-3.144-.31-.37.032-.738.094-1.098.188zm-1.1 1.838a1 1 0 00.968 1.75c.2-.091.432-.128.648-.155.537-.069 1.442-.07 2.764.283 1.321.355 2.104.808 2.535 1.137.325.247.46.425.482.456.31.438.87.622 1.355.338a1 1 0 00.36-1.367 4.168 4.168 0 00-.988-1.02c-.655-.498-1.677-1.06-3.227-1.476-1.549-.415-2.715-.44-3.531-.335-.474.05-.936.182-1.366.39z" clip-rule="evenodd"/></svg>