<svg xmlns="http://www.w3.org/2000/svg" viewBox="0 0 24 24" fill="currentColor"><path fill-rule="evenodd" d="M11.553 2.106a1 1 0 01.894 0l9 4.5a1 1 0 010 1.788l-9 4.5a1 1 0 01-.894 0l-9-4.5a1 1 0 010-1.788l9-4.5zM5.236 7.5L12 10.882 18.764 7.5 12 4.118 5.236 7.5zm-3.13 4.053a1 1 0 011.341-.447L12 15.382l8.553-4.276a1 1 0 11.894 1.788l-9 4.5a1 1 0 01-.894 0l-9-4.5a1 1 0 01-.447-1.341zm0 4.5a1 1 0 011.341-.447L12 19.882l8.553-4.276a1 1 0 11.894 1.788l-9 4.5a1 1 0 01-.894 0l-9-4.5a1 1 0 01-.447-1.341z" clip-rule="evenodd"/></svg>