<svg xmlns="http://www.w3.org/2000/svg" viewBox="0 0 24 24" fill="currentColor"><path fill-rule="evenodd" d="M15.135 2.508a1.02 1.02 0 00-1.378-.37.981.981 0 00-.362 1.356l4.219 7.165L11.7 4.862a1.024 1.024 0 00-1.428 0 .978.978 0 000 1.4l5.994 5.878L9.02 8.038a1.02 1.02 0 00-1.378.369.98.98 0 00.363 1.354l7.432 4.209-8.174-2.15a1.012 1.012 0 00-1.26 1.099.988.988 0 00.732.832L15.3 16H7a1 1 0 000 2h10a1 1 0 00.62-1.785 1.001 1.001 0 00.266-1.314 1.01 1.01 0 00.613-.782.98.98 0 00-.021-.382 1.01 1.01 0 00.561-.28.978.978 0 00.295-.66.998.998 0 001.093-.722.98.98 0 00-.103-.754l-5.19-8.814h.001zM4 17a1 1 0 10-2 0v1a4 4 0 004 4h12a4 4 0 004-4v-1a1 1 0 00-2 0v1a2 2 0 01-2 2H6a2 2 0 01-2-2v-1z" clip-rule="evenodd"/></svg>