<svg xmlns="http://www.w3.org/2000/svg" viewBox="0 0 24 24" fill="currentColor"><path d="M18 12c0 .752-.141 1.49-.409 2.177l-1.629-1.629a3.997 3.997 0 00-1.134-3.376 4 4 0 00-3.376-1.134l-1.629-1.63A5.999 5.999 0 0118 12z"/><path fill-rule="evenodd" d="M7.11 8.524a6 6 0 008.366 8.367l5.817 5.816 1.414-1.414-20-20-1.414 1.414L7.11 8.524zm1.444 1.445a4 4 0 005.477 5.477L8.554 9.969z" clip-rule="evenodd"/><path d="M11 1h2v3h-2V1zM11 23v-3h2v3h-2zM19.071 3.514l1.414 1.415-2.121 2.121-1.414-1.414 2.121-2.121v-.001zM5.636 16.95l1.414 1.414-2.121 2.121-1.414-1.414 2.121-2.121zM23 13h-3v-2h3v2zM4 11v2H1v-2h3z"/></svg>