<svg xmlns="http://www.w3.org/2000/svg" viewBox="0 0 24 24" fill="currentColor"><path fill-rule="evenodd" d="M7 4a1 1 0 00-1 1v14.131l1.445-.963a1 1 0 011.262.125L10 19.586l1.293-1.293a1 1 0 011.414 0L14 19.586l1.293-1.293a1 1 0 011.262-.125L18 19.13V5a1 1 0 00-1-1H7zM4.879 2.879A3 3 0 017 2h10a3 3 0 013 3v16a1 1 0 01-1.555.832l-2.318-1.545-1.42 1.42a1 1 0 01-1.414 0L12 20.414l-1.293 1.293a1 1 0 01-1.414 0l-1.42-1.42-2.318 1.545A1 1 0 014 21V5a3 3 0 01.879-2.121zM8 8.5a1.5 1.5 0 113 0 1.5 1.5 0 01-3 0zm6.293-1.207a1 1 0 111.414 1.414l-6 6a1 1 0 01-1.414-1.414l6-6zM13 13.5a1.5 1.5 0 113 0 1.5 1.5 0 01-3 0z" clip-rule="evenodd"/></svg>