<svg xmlns="http://www.w3.org/2000/svg" viewBox="0 0 24 24" fill="currentColor"><path fill-rule="evenodd" d="M12 2a1 1 0 01.96.722c.44 1.516 1.455 2.88 2.91 3.85 1.457.97 3.256 1.48 5.102 1.428A1 1 0 0122 9a4 4 0 01-3 3.873V20h2v2H3v-2h2v-7.127A4 4 0 012 9a1 1 0 011.028-1c1.846.052 3.645-.457 5.102-1.428 1.455-.97 2.47-2.334 2.91-3.85A1 1 0 0112 2zM7 13v7h10v-7H7zm5-7.58a9.372 9.372 0 01-2.76 2.816c-1.47.98-3.199 1.57-4.993 1.726A1.998 1.998 0 006 11h12a2 2 0 001.753-1.038 10.679 10.679 0 01-4.992-1.726A9.371 9.371 0 0112 5.42z" clip-rule="evenodd"/></svg>