<svg xmlns="http://www.w3.org/2000/svg" viewBox="0 0 24 24" fill="currentColor"><path fill-rule="evenodd" d="M5.995 6.714A7.97 7.97 0 004 12a7.97 7.97 0 001.995 5.286 8 8 0 000-10.572zm1.499-1.325a10 10 0 010 13.222A7.963 7.963 0 0012 20a7.963 7.963 0 004.506-1.389 10.002 10.002 0 010-13.222A7.963 7.963 0 0012 4a7.963 7.963 0 00-4.506 1.389zm10.51 1.325a8 8 0 000 10.572A7.97 7.97 0 0020 12a7.97 7.97 0 00-1.995-5.286zM2 12C2 6.477 6.477 2 12 2s10 4.477 10 10-4.477 10-10 10S2 17.523 2 12z" clip-rule="evenodd"/></svg>