<svg xmlns="http://www.w3.org/2000/svg" fill="none" viewBox="0 0 24 24" stroke="currentColor"><path stroke-linecap="round" stroke-linejoin="round" stroke-width="2" d="M8 20.995H3V11h3.5c.258 0 1.25-.152 1.5-.201m0 10.196V10.799m0 10.196h9.823c.459.041.913-.156 1.295-.562.382-.405.67-.998.823-1.688L21 13.122c0-.597-.223-1.169-.62-1.59a2.057 2.057 0 00-1.498-.66h-3.176V5.25c0-.596-.223-1.168-.62-1.59A2.057 2.057 0 0013.588 3c-.561 0-1.1.237-1.497.659-.397.422-.62.994-.62 1.59v1.125a4.644 4.644 0 01-1.24 3.181A4.16 4.16 0 018 10.799"/></svg>