<svg xmlns="http://www.w3.org/2000/svg" fill="none" viewBox="0 0 24 24" stroke="currentColor"><path stroke-linecap="round" stroke-linejoin="round" stroke-width="2" d="M8 3.005H3V13h3.5c.258 0 1.25.152 1.5.201M8 3.005v10.196M8 3.005h9.823c.459-.041.913.156 1.295.562.382.405.67.998.823 1.688L21 10.878c0 .597-.223 1.169-.62 1.59a2.057 2.057 0 01-1.498.66h-3.176v5.623c0 .596-.223 1.168-.62 1.59a2.057 2.057 0 01-1.498.659c-.561 0-1.1-.237-1.497-.659a2.322 2.322 0 01-.62-1.59v-1.125a4.644 4.644 0 00-1.24-3.181A4.16 4.16 0 008 13.201"/></svg>