<svg xmlns="http://www.w3.org/2000/svg" viewBox="0 0 24 24" fill="currentColor"><path fill-rule="evenodd" d="M4.293 6.293a1 1 0 011.414 0l2.5 2.5a1 1 0 010 1.414l-2.5 2.5a1 1 0 01-1.414 0l-2.5-2.5a1 1 0 010-1.414l2.5-2.5zm7 0a1 1 0 011.414 0l2.5 2.5a.997.997 0 01.293.707c0-.256.098-.512.293-.707l2.5-2.5a1 1 0 011.414 0l2.5 2.5a1 1 0 010 1.414l-2.5 2.5a1 1 0 01-1.414 0l-2.5-2.5A.997.997 0 0115.5 9.5a.997.997 0 01-.293.707l-2.5 2.5a1 1 0 01-1.414 0l-2.5-2.5a1 1 0 010-1.414l2.5-2.5zM3.914 9.5L5 10.586 6.086 9.5 5 8.414 3.914 9.5zm7 0L12 10.586 13.086 9.5 12 8.414 10.914 9.5zm7 0L19 10.586 20.086 9.5 19 8.414 17.914 9.5zm-9.121 6.293l2.5-2.5a1 1 0 011.414 0l2.5 2.5a1 1 0 010 1.414l-2.5 2.5a1 1 0 01-1.414 0l-2.5-2.5a1 1 0 010-1.414zm2.121.707L12 17.586l1.086-1.086L12 15.414 10.914 16.5z" clip-rule="evenodd"/></svg>