<svg xmlns="http://www.w3.org/2000/svg" viewBox="0 0 24 24" fill="currentColor"><path fill-rule="evenodd" d="M12.015 1.18a1 1 0 011.035-.066c2.827 1.477 5.3 3.575 6.764 6.615 1.402 2.739 1.545 5.944.512 8.622-1.04 2.7-3.286 4.876-6.6 5.431-8.645 1.87-14.46-8.704-7.938-14.929.312-.307 1.206-1.14 1.63-1.444A1 1 0 019 6.222c0 .191.06.992.205 1.694.038.179.076.328.112.447.765-.128 1.385-.732 1.826-1.848.5-1.263.642-2.934.452-4.386a1 1 0 01.42-.949zM9.433 8.652a.05.05 0 01-.006-.008.056.056 0 01.006.008zm9.485-.478l-.901.433c-.97-2.017-2.485-3.582-4.348-4.813-.038 1.188-.249 2.4-.666 3.456-.63 1.597-1.857 3.07-3.86 3.137a1.254 1.254 0 01-.955-.195 1.705 1.705 0 01-.536-.625c-.197-.372-.321-.843-.405-1.245a9.583 9.583 0 01-.017-.082 9.57 9.57 0 00-.044.043l-.012.012c-5.033 4.796-.591 13.005 6.15 11.528a.964.964 0 01.051-.01c2.553-.42 4.269-2.062 5.085-4.181.826-2.143.72-4.76-.431-7.001l.889-.457z" clip-rule="evenodd"/></svg>