<svg xmlns="http://www.w3.org/2000/svg" viewBox="0 0 24 24" fill="currentColor"><path fill-rule="evenodd" d="M6.293 2.293a1 1 0 011.414 0L12 6.586l3.293-3.293a3.828 3.828 0 115.414 5.414L17.414 12l4.293 4.293a1 1 0 010 1.414l-4 4a1 1 0 01-1.414 0L12 17.414l-4.293 4.293A1 1 0 017 22H3a1 1 0 01-1-1v-4a1 1 0 01.293-.707L6.586 12 2.293 7.707a1 1 0 010-1.414l4-4zM8 10.586L10.586 8 7 4.414 4.414 7 5.5 8.086l1.293-1.293 1.414 1.414L6.914 9.5 8 10.586zM13.414 16l1.086 1.086 1.293-1.293 1.414 1.414-1.293 1.293L17 19.586 19.586 17 16 13.414 13.414 16zM18 4.172c-.485 0-.95.192-1.293.535l-.793.793L18.5 8.086l.793-.793A1.828 1.828 0 0018 4.172zM17.086 9.5L14.5 6.914 4 17.414V20h2.586l10.5-10.5z" clip-rule="evenodd"/></svg>