<svg xmlns="http://www.w3.org/2000/svg" viewBox="0 0 24 24" fill="currentColor"><path fill-rule="evenodd" d="M8.426 4.046l2.286 2.286a1 1 0 01.293.707v2.966a1 1 0 01-1 1H7.04a1 1 0 01-.707-.293L4.046 8.426a4.931 4.931 0 007.011 5.126 1 1 0 011.138.195l5.932 5.932a1.097 1.097 0 101.552-1.552l-5.932-5.932a1 1 0 01-.195-1.138 4.931 4.931 0 00-5.126-7.01zm-2.312-1.37a6.932 6.932 0 019.519 8.577l5.46 5.46a3.097 3.097 0 01-4.38 4.38l-5.46-5.46a6.932 6.932 0 01-8.576-9.519 1 1 0 011.61-.276l3.167 3.167h1.551V7.454L5.838 4.286a1 1 0 01.276-1.61z" clip-rule="evenodd"/></svg>