<svg xmlns="http://www.w3.org/2000/svg" viewBox="0 0 24 24" fill="currentColor"><path fill-rule="evenodd" d="M2 3h4.857c.618 0 1.204.255 1.63.696.424.44.656 1.03.656 1.637v.334h4.143c.618 0 1.203.255 1.629.696.424.44.656 1.03.656 1.637v3H22v2h-6.429v3c0 .607-.232 1.197-.656 1.637a2.263 2.263 0 01-1.63.696H9.144v.334c0 .607-.232 1.196-.657 1.637A2.263 2.263 0 016.857 21H2v-2h4.857a.263.263 0 00.19-.085.359.359 0 00.096-.248V16a.36.36 0 00-.097-.249.263.263 0 00-.189-.084H2v-2h4.857c.618 0 1.204.255 1.63.696.424.44.656 1.03.656 1.637v.333h4.143a.263.263 0 00.189-.084.36.36 0 00.096-.249V8a.36.36 0 00-.096-.249.263.263 0 00-.19-.084H9.144V8c0 .607-.232 1.197-.657 1.637a2.263 2.263 0 01-1.629.696H2v-2h4.857a.263.263 0 00.19-.084A.36.36 0 007.142 8V5.333a.36.36 0 00-.097-.248A.263.263 0 006.857 5H2V3z" clip-rule="evenodd"/></svg>