<svg xmlns="http://www.w3.org/2000/svg" fill="none" viewBox="0 0 24 24" stroke="currentColor"><path stroke-linecap="round" stroke-linejoin="round" stroke-width="2" d="M16 21v-2m3-3h2M3 8h2m3-5v2m1 9.768c.39.39.855.7 1.368.912a4.257 4.257 0 003.243 0 4.19 4.19 0 001.368-.912l4.783-4.69A4.106 4.106 0 0021 7.146c0-1.1-.445-2.154-1.238-2.932A4.27 4.27 0 0016.772 3a4.27 4.27 0 00-2.989 1.214l-.598.587M15 9.23a4.19 4.19 0 00-1.368-.91 4.256 4.256 0 00-3.243 0 4.19 4.19 0 00-1.368.91l-4.783 4.691A4.106 4.106 0 003 16.854c0 1.1.445 2.154 1.238 2.932A4.27 4.27 0 007.228 21a4.27 4.27 0 002.989-1.214l.598-.587"/></svg>