<svg xmlns="http://www.w3.org/2000/svg" viewBox="0 0 24 24" fill="currentColor"><path fill-rule="evenodd" d="M9 7a2 2 0 012-2h2a2 2 0 012 2h4.268A2 2 0 0123 8a2 2 0 01-3.732 1h-1.822a7.007 7.007 0 012.423 4H20a2 2 0 012 2v2a2 2 0 01-2 2h-2a2 2 0 01-2-2v-2a2 2 0 011.812-1.991 5.001 5.001 0 00-2.964-3.242A2 2 0 0113 11h-2a2 2 0 01-1.848-1.233 5 5 0 00-2.964 3.242A2 2 0 018 15v2a2 2 0 01-2 2H4a2 2 0 01-2-2v-2a2 2 0 012-2h.13a7 7 0 012.424-4H4.732a2 2 0 110-2H9zm2 1.484V7h2v2h-2v-.481-.035zM4.992 15H4v2h2v-2H4.992zm13.998 0H18v2h2v-2h-1.01z" clip-rule="evenodd"/></svg>