<svg xmlns="http://www.w3.org/2000/svg" fill="none" viewBox="0 0 24 24" stroke="currentColor"><path stroke-linecap="round" stroke-linejoin="round" stroke-width="2" d="M12 17a5 5 0 01-5-5m5 5v4m0-4c1.38 0 2.63-.56 3.536-1.464M7 12H3m4 0c0-1.38.56-2.63 1.464-3.536M12 3v4a5 5 0 015 5h4M11 3h2m2.536 5.464l2.828-2.828m-.707-.707l1.414 1.414M21 11v2m-2.636 5.364l-.707.707M13 21h-2m-2.536-5.464l-2.828 2.828m.707.707L4.93 17.657M3 13v-2m1.929-4.657l.707-.707M1 1l4.636 4.636M23 23l-7.464-7.464M8.463 8.463L5.636 5.636m2.828 2.828l7.072 7.072"/></svg>