<svg xmlns="http://www.w3.org/2000/svg" viewBox="0 0 24 24" fill="currentColor"><path fill-rule="evenodd" d="M18.364 19.778l2.929 2.93 1.414-1.415-20-20-1.414 1.414 2.929 2.93-.707.706 1.414 1.414.707-.707 1.473 1.474A5.968 5.968 0 006.083 11H4v-1H2v4h2v-1h2.083a5.968 5.968 0 001.026 2.477L5.636 16.95l-.707-.707-1.414 1.414 2.828 2.828 1.414-1.414-.707-.707 1.473-1.473A5.968 5.968 0 0011 17.917V20h-1v2h4v-2h-1v-2.083a5.967 5.967 0 002.476-1.026l1.474 1.473-.707.707 1.414 1.414.707-.707zm-4.332-4.332L8.554 9.968a4 4 0 005.478 5.478z" clip-rule="evenodd"/><path d="M17.917 13a5.956 5.956 0 01-.325 1.178l-1.63-1.63a4 4 0 00-4.511-4.511l-1.63-1.63c.377-.146.77-.255 1.179-.324V4h-1V2h4v2h-1v2.083a5.967 5.967 0 012.476 1.026l1.474-1.473-.707-.707 1.414-1.414 2.828 2.828-1.414 1.414-.707-.707-1.473 1.474A5.969 5.969 0 0117.917 11H20v-1h2v4h-2v-1h-2.083z"/></svg>