<svg xmlns="http://www.w3.org/2000/svg" viewBox="0 0 24 24" fill="currentColor"><path fill-rule="evenodd" d="M10 2h4v2h-1v2.083a5.967 5.967 0 012.476 1.026l1.474-1.473-.707-.707 1.414-1.414 2.828 2.828-1.414 1.414-.707-.707-1.473 1.473A5.966 5.966 0 0117.917 11H20v-1h2v4h-2v-1h-2.083a5.966 5.966 0 01-1.026 2.476l1.473 1.474.707-.707 1.414 1.414-2.828 2.828-1.414-1.414.707-.707-1.473-1.473A5.966 5.966 0 0113 17.917V20h1v2h-4v-2h1v-2.083a5.966 5.966 0 01-2.477-1.026L7.05 18.364l.707.707-1.414 1.414-2.828-2.828 1.414-1.414.707.707 1.473-1.473A5.967 5.967 0 016.083 13H4v1H2v-4h2v1h2.083a5.968 5.968 0 011.026-2.477L5.636 7.05l-.707.707-1.414-1.414 2.828-2.828 1.414 1.414-.707.707 1.473 1.473A5.968 5.968 0 0111 6.083V4h-1V2zm-.828 7.172a4 4 0 105.657 5.657 4 4 0 00-5.657-5.657z" clip-rule="evenodd"/></svg>