<svg xmlns="http://www.w3.org/2000/svg" viewBox="0 0 24 24" fill="currentColor"><path fill-rule="evenodd" d="M4 11.924V12c0 1.01.187 1.977.53 2.868a9 9 0 016.866-3.853 7 7 0 00.704-2.69 11 11 0 00-8.1 3.6zm.74-3.288a13 13 0 017.184-2.309 6.999 6.999 0 00-.977-2.258A8.008 8.008 0 004.74 8.636zm8.512-4.539a8.998 8.998 0 01-.097 7.872 7 7 0 001.977 1.955 11 11 0 00.933-8.816 7.947 7.947 0 00-2.813-1.01zm5.292 3.3a12.999 12.999 0 01-1.593 7.374 7 7 0 002.445.283A7.977 7.977 0 0020 12a7.964 7.964 0 00-1.456-4.603zm-.328 9.639a8.997 8.997 0 01-6.767-4.02 7.001 7.001 0 00-2.681.735 11 11 0 007.168 5.215 8.039 8.039 0 002.28-1.93zm-5.501 2.932a13 13 0 01-5.59-5.066 7 7 0 00-1.467 1.975 7.987 7.987 0 007.057 3.091zM2 12C2 6.477 6.477 2 12 2s10 4.477 10 10-4.477 10-10 10S2 17.523 2 12z" clip-rule="evenodd"/></svg>