<svg xmlns="http://www.w3.org/2000/svg" viewBox="0 0 24 24" fill="currentColor"><path fill-rule="evenodd" d="M9 2a1 1 0 011 1 1 1 0 001 1 1 1 0 110 2 1 1 0 00-1 1 1 1 0 01-2 0 1 1 0 00-1-1 1 1 0 010-2 1 1 0 001-1 1 1 0 011-1zm8.293.293a1 1 0 011.414 0l3 3a1 1 0 010 1.414l-15 15a1 1 0 01-1.414 0l-3-3a1 1 0 010-1.414l12-12 3-3zM15 7.414L4.414 18 6 19.586 16.586 9 15 7.414zm3 .172L16.414 6 18 4.414 19.586 6 18 7.586zM19 12a1 1 0 011 1 1 1 0 001 1 1 1 0 110 2 1 1 0 00-1 1 1 1 0 11-2 0 1 1 0 00-1-1 1 1 0 110-2 1 1 0 001-1 1 1 0 011-1z" clip-rule="evenodd"/></svg>