<svg xmlns="http://www.w3.org/2000/svg" viewBox="0 0 24 24" fill="currentColor"><path d="M15.725 17.14l5.568 5.567 1.414-1.414-20-20-1.414 1.414 2.791 2.791A15.578 15.578 0 001.25 8.025a1 1 0 001.5 1.323 13.479 13.479 0 012.776-2.407l2.342 2.34a10.443 10.443 0 00-3.29 2.515 1 1 0 101.499 1.323 8.428 8.428 0 012.728-2.069c.193-.09.388-.172.585-.246l2.871 2.871a5.173 5.173 0 00-.279-.007c-1.556 0-3.019.702-4.076 1.9a1 1 0 101.499 1.323c.707-.801 1.638-1.223 2.577-1.223.94 0 1.87.422 2.578 1.223a1 1 0 001.165.248zM15.16 11.05a7.661 7.661 0 00-1.118-.422L11.75 8.336a9.46 9.46 0 014.259.904 10.428 10.428 0 013.378 2.556 1 1 0 11-1.5 1.323 8.429 8.429 0 00-2.728-2.069zM21.252 9.35C17.863 5.535 13.14 4.23 8.848 5.434L7.26 3.846c5.264-1.939 11.294-.545 15.487 4.177a1 1 0 11-1.496 1.328zM10.982 20a1 1 0 011-1h.012a1 1 0 110 2h-.012a1 1 0 01-1-1z"/></svg>