<svg xmlns="http://www.w3.org/2000/svg" viewBox="0 0 24 24" fill="currentColor"><path fill-rule="evenodd" d="M21.252 9.35C16.101 3.549 7.863 3.553 2.75 9.349a1 1 0 11-1.5-1.323c5.912-6.702 15.553-6.698 21.498-.002a1 1 0 11-1.496 1.328zm-9.27.983a7.46 7.46 0 00-3.177.717 8.428 8.428 0 00-2.728 2.07 1 1 0 01-1.5-1.324A10.427 10.427 0 017.956 9.24a9.46 9.46 0 014.026-.907 9.46 9.46 0 014.027.907 10.428 10.428 0 013.378 2.556 1 1 0 11-1.5 1.323 8.429 8.429 0 00-2.728-2.069 7.46 7.46 0 00-3.177-.717zm0 5.335c-.94 0-1.87.422-2.577 1.223a1 1 0 01-1.5-1.323c1.058-1.198 2.521-1.9 4.077-1.9 1.557 0 3.02.702 4.077 1.9a1 1 0 01-1.5 1.323c-.707-.801-1.637-1.223-2.577-1.223zm-1 4.332a1 1 0 011-1h.012a1 1 0 110 2h-.012a1 1 0 01-1-1z" clip-rule="evenodd"/></svg>