<svg xmlns="http://www.w3.org/2000/svg" fill="none" viewBox="0 0 24 24" stroke="currentColor"><path stroke-linecap="round" stroke-linejoin="round" stroke-width="2" d="M3 12a3 3 0 106 0 3 3 0 00-6 0zm0 0c-.148-1.124.157-2.254.885-3.279.728-1.024 1.854-1.908 3.266-2.563 1.413-.656 3.064-1.062 4.79-1.177 1.727-.116 3.47.063 5.059.519m4 6.5a3 3 0 11-6 0 3 3 0 016 0zm0 0c.148 1.124-.157 2.254-.885 3.278-.728 1.025-1.854 1.908-3.266 2.564-1.413.656-3.064 1.061-4.79 1.177A14.92 14.92 0 017 18.499"/></svg>