<svg xmlns="http://www.w3.org/2000/svg" viewBox="0 0 24 24" fill="currentColor"><path fill-rule="evenodd" d="M16.724 6.461c-1.472-.422-3.099-.59-4.716-.482-1.617.108-3.146.487-4.436 1.086A8.728 8.728 0 005.993 8H6a4 4 0 11-4 4.066c-.164-1.38.226-2.736 1.07-3.924.85-1.196 2.127-2.18 3.66-2.891 1.536-.714 3.31-1.145 5.145-1.268a15.917 15.917 0 015.4.556l.962.275-.551 1.923-.962-.276zM6 10a2 2 0 100 4 2 2 0 000-4zm12 0a2 2 0 100 4 2 2 0 000-4zm-4 2a4 4 0 018-.067c.164 1.38-.226 2.737-1.07 3.925-.85 1.196-2.127 2.18-3.66 2.891-1.536.713-3.31 1.145-5.145 1.268a15.916 15.916 0 01-5.4-.556l-.962-.276.551-1.922.962.275c1.472.423 3.099.59 4.716.483 1.617-.108 3.146-.487 4.435-1.086a8.727 8.727 0 001.58-.935H18a4 4 0 01-4-4z" clip-rule="evenodd"/></svg>